<svg width="12" height="12" viewBox="0 0 12 12" fill="none" xmlns="http://www.w3.org/2000/svg">
<path fill-rule="evenodd" clip-rule="evenodd" d="M6 6.26087C6 6.1168 6.1168 6 6.26087 6H6.2611H11.7391C11.8832 6 12 6.1168 12 6.26087C12 6.40494 11.8832 6.52174 11.7391 6.52174H6.52197V6.52197L6.52197 11.7391C6.52197 11.8832 6.40518 12 6.2611 12C6.11703 12 6.00023 11.8832 6.00023 11.7391L6.00023 6.272C6.00008 6.26831 6 6.2646 6 6.26087ZM6.52197 6.52197V11.7394C6.52197 11.7394 6.52197 6.52197 11.7394 6.52197H6.52197Z" fill="#B19B71"/>
<path fill-rule="evenodd" clip-rule="evenodd" d="M6 5.73913C6 5.8832 5.8832 6 5.73913 6L5.7389 6L0.26087 6C0.116795 6 1.02106e-08 5.8832 2.28059e-08 5.73913C3.54013e-08 5.59506 0.116795 5.47826 0.26087 5.47826L5.47803 5.47826L5.47803 5.47803L5.47803 0.260869C5.47803 0.116795 5.59482 -5.12259e-07 5.7389 -4.99664e-07C5.88297 -4.87068e-07 5.99977 0.116795 5.99977 0.260869L5.99977 5.72798C5.99992 5.73168 6 5.73539 6 5.73913ZM5.47803 5.47803L5.47803 0.260635C5.47803 0.260635 5.47803 5.47803 0.260635 5.47803L5.47803 5.47803Z" fill="#B19B71"/>
</svg>
