<svg width="94" height="26" viewBox="0 0 94 26" fill="none" xmlns="http://www.w3.org/2000/svg">
<g clip-path="url(#clip0_2128_931)">
<path d="M25.6841 8.60449L31.544 16.6202V8.60449H32.7154V18.5549H31.4768L25.6174 10.4688V18.5549H24.4453V8.60449H25.6841Z" fill="#898892"/>
<path d="M42.2234 18.1657C41.4514 18.4724 40.6184 18.6251 39.7256 18.6251C36.2573 18.6251 34.5225 16.8973 34.5225 13.4411C34.5225 10.1706 36.1966 8.53516 39.5443 8.53516C40.5049 8.53516 41.398 8.67471 42.2233 8.95341V10.0666C41.3978 9.74184 40.5491 9.57923 39.6782 9.57923C37.0671 9.57923 35.7618 10.867 35.7618 13.4411C35.7618 16.2011 37.0467 17.5817 39.6189 17.5817C40.0291 17.5817 40.4843 17.5258 40.9848 17.4141V14.0327H42.2234V18.1657Z" fill="#898892"/>
<path d="M44.2002 14.7135V8.60449H45.4382V14.7134C45.4382 16.6246 46.3537 17.5812 48.1843 17.5812C50.0144 17.5812 50.9299 16.6244 50.9299 14.7134V8.60449H52.1686V14.7134C52.1686 17.3214 50.8405 18.6246 48.1843 18.6246C45.5282 18.6248 44.2002 17.3214 44.2002 14.7135Z" fill="#898892"/>
<path d="M60.6259 17.5115V18.5549H54.3779V8.60449H55.616V17.5115H60.6259Z" fill="#898892"/>
<path d="M65.8888 7.29102L70.6498 18.5542H69.2774L68.0381 15.4224H64.8716L65.2128 14.3799H67.6235L65.8355 9.87022L62.4134 18.5542H61.1279L65.8888 7.29102Z" fill="#898892"/>
<path d="M71.957 18.5549V8.60449H76.042C77.8638 8.60449 78.7743 9.40037 78.7743 10.991C78.7743 12.2857 77.8842 13.2437 76.1025 13.8646L79.3903 18.5549H77.7564L74.7099 14.0809V13.2397C76.5399 12.9374 77.4549 12.2068 77.4549 11.0475C77.4549 10.1294 76.9461 9.66937 75.9288 9.66937H73.1959V18.5553H71.9572L71.957 18.5549Z" fill="#898892"/>
<path d="M84.0296 8.60449V15.6883C84.0296 17.5994 82.9469 18.5548 80.7812 18.5548V17.5112C82.1208 17.5112 82.7907 16.9028 82.7907 15.6882V8.60449H84.0296Z" fill="#898892"/>
<path d="M86.2418 18.2077V17.0247C87.2466 17.3957 88.331 17.5819 89.4964 17.5819C91.1437 17.5819 91.9677 16.9555 91.9677 15.702C91.9677 14.6367 91.36 14.102 90.1458 14.102H88.9133C86.9093 14.102 85.9062 13.198 85.9062 11.3887C85.9062 9.48704 87.1905 8.53516 89.7581 8.53516C90.8738 8.53516 91.9116 8.67542 92.8717 8.95341V10.1363C91.9113 9.76489 90.8738 9.57923 89.7581 9.57923C88.0167 9.57923 87.1462 10.1826 87.1462 11.3887C87.1462 12.4551 87.7351 12.9887 88.9133 12.9887H90.1458C92.1854 12.9887 93.2063 13.894 93.2063 15.702C93.2063 17.651 91.9699 18.6254 89.4961 18.6254C88.331 18.6254 87.2466 18.4857 86.2418 18.2077Z" fill="#898892"/>
<path d="M25.9984 8.27734L31.8578 16.2932V8.27734H33.0299V18.2278H31.7911L25.9313 10.1416V18.2278H24.7598V8.27734H25.9984Z" fill="white"/>
<path d="M42.5377 17.8406C41.7657 18.1473 40.9331 18.2999 40.0401 18.2999C36.5715 18.2999 34.8369 16.5723 34.8369 13.1161C34.8369 9.84557 36.5111 8.20996 39.8595 8.20996C40.8192 8.20996 41.7124 8.34966 42.5377 8.62821V9.74129C41.7123 9.4165 40.8636 9.2539 39.9933 9.2539C37.3819 9.2539 36.0764 10.5417 36.0764 13.1158C36.0764 15.8759 37.3618 17.2566 39.9333 17.2566C40.3437 17.2566 40.7995 17.2009 41.2998 17.0889V13.7073H42.5379L42.5377 17.8406Z" fill="white"/>
<path d="M44.5127 14.3871V8.27734H45.7507V14.3869C45.7507 16.298 46.6662 17.2541 48.4969 17.2541C50.3269 17.2541 51.2424 16.2979 51.2424 14.3869V8.27734H52.481V14.3869C52.481 16.9948 51.153 18.2975 48.4969 18.2975C45.8407 18.2975 44.5127 16.9951 44.5127 14.3871Z" fill="white"/>
<path d="M60.9398 17.1844V18.2278H54.6924V8.27734H55.9305V17.1844H60.9398Z" fill="white"/>
<path d="M66.2006 6.96582L70.9616 18.2296H69.5884L68.3498 15.0981H65.1826L65.5246 14.0547H67.9347L66.1472 9.54502L62.725 18.2296H61.4395L66.2006 6.96582Z" fill="white"/>
<path d="M72.2715 18.2278V8.27734H76.3564C78.1782 8.27734 79.0879 9.07266 79.0879 10.664C79.0879 11.958 78.1984 12.9166 76.4168 13.5374L79.7048 18.2278H78.0701L75.0241 13.7536V12.9115C76.8542 12.6092 77.7696 11.8794 77.7696 10.7194C77.7696 9.80122 77.2603 9.34194 76.2424 9.34194H73.5103V18.2278H72.2715Z" fill="white"/>
<path d="M84.3459 8.27734V15.3613C84.3459 17.2729 83.2632 18.2278 81.0977 18.2278V17.1844C82.4371 17.1844 83.107 16.5758 83.107 15.3612V8.27734H84.3459Z" fill="white"/>
<path d="M86.5503 17.8795V16.6967C87.5552 17.0676 88.6395 17.2539 89.805 17.2539C91.4522 17.2539 92.2761 16.6272 92.2761 15.3745C92.2761 14.3086 91.6686 13.7744 90.4543 13.7744H89.2218C87.2177 13.7744 86.2148 12.8699 86.2148 11.0604C86.2148 9.15877 87.4985 8.20703 90.0665 8.20703C91.1822 8.20703 92.2202 8.34729 93.1803 8.62528V9.80835C92.2197 9.43676 91.1822 9.25111 90.0665 9.25111C88.3252 9.25111 87.4547 9.85445 87.4547 11.0606C87.4547 12.127 88.0432 12.6606 89.2218 12.6606H90.4543C92.4938 12.6606 93.5148 13.5654 93.5148 15.3745C93.5148 17.3231 92.2785 18.2973 89.8047 18.2973C88.6396 18.2971 87.5551 18.1574 86.5503 17.8795Z" fill="white"/>
<path d="M75.1101 23.5389L74.6553 22.1018H74.3319L74.9596 23.9176C74.945 23.9571 74.921 24.0173 74.8886 24.0985C74.8558 24.1797 74.8366 24.2244 74.8316 24.2333C74.8147 24.2597 74.7939 24.2819 74.7689 24.3C74.744 24.3182 74.7053 24.3271 74.6528 24.3271C74.6359 24.3271 74.6162 24.3253 74.594 24.3222C74.5719 24.319 74.536 24.3101 74.4865 24.2958V24.5661C74.5181 24.5749 74.545 24.5807 74.5664 24.5842C74.588 24.5873 74.6192 24.589 74.6593 24.589C74.8241 24.589 74.9401 24.5396 75.0076 24.4408C75.0752 24.342 75.1911 24.0679 75.356 23.618C75.4258 23.427 75.5122 23.1796 75.616 22.8766C75.7542 22.4734 75.8437 22.2152 75.8836 22.102H75.5682L75.1101 23.5389ZM73.4212 23.6599C73.2155 23.6599 73.075 23.5629 72.9998 23.3684C72.9595 23.2654 72.9396 23.1309 72.9396 22.965C72.9396 22.7357 72.9884 22.571 73.0867 22.4707C73.1848 22.3711 73.299 22.3211 73.4293 22.3211C73.5787 22.3211 73.6919 22.3822 73.769 22.5039C73.8459 22.6258 73.8843 22.7795 73.8843 22.965C73.8843 23.1737 73.846 23.3417 73.769 23.469C73.6919 23.5962 73.5759 23.6599 73.4212 23.6599ZM72.6777 23.8658H72.9408V23.6403C73.0011 23.7251 73.0579 23.7865 73.1111 23.8249C73.2001 23.8896 73.3094 23.922 73.4388 23.922C73.6701 23.922 73.8509 23.8298 73.9816 23.6451C74.1121 23.4606 74.1771 23.2291 74.1771 22.9503C74.1771 22.656 74.1113 22.4334 73.979 22.2824C73.8469 22.1315 73.6748 22.056 73.4629 22.056C73.3609 22.056 73.2666 22.0782 73.1794 22.1228C73.0924 22.1672 73.0179 22.2317 72.9551 22.3163V21.4385H72.6777V23.8658Z" fill="white"/>
<path d="M2.31519 19.9296L11.7436 25.3143L21.2205 19.8566L22.9872 4.63161L11.7317 0.614258L0.547852 4.70399L2.31519 19.9296Z" fill="#898892"/>
<path d="M11.7061 24.0277L20.2257 19.1282L21.8721 5.51151L11.7061 1.90918V24.0277Z" fill="white"/>
<path d="M11.7063 24.0281V1.90918L1.80371 5.57687L3.31813 19.1937L11.7063 24.0281Z" fill="white"/>
<path d="M14.5041 13.6845L11.7058 15.0442H8.75633L7.36986 18.6477L4.79102 18.6973L11.7058 2.71289L14.5041 13.6845ZM14.2336 12.9999L11.7243 7.83798L9.66603 12.9111H11.7056L14.2336 12.9999Z" fill="#1C1A22"/>
<path d="M14.0601 12.915H11.7113L11.7061 15.041L14.9539 15.0442L16.4718 18.6978L18.9393 18.7453L11.7061 2.71289L11.7246 7.83798L14.0601 12.915Z" fill="#898892"/>
<path d="M83.9029 22.5932C83.9029 23.3755 83.3139 23.9519 82.5911 23.9519C81.8683 23.9519 81.2793 23.3755 81.2793 22.5932C81.2793 21.8053 81.8683 21.2344 82.5911 21.2344C83.3139 21.2344 83.9029 21.8053 83.9029 22.5932ZM83.3286 22.5932C83.3286 22.1043 82.9873 21.7698 82.5911 21.7698C82.1949 21.7698 81.8535 22.1043 81.8535 22.5932C81.8535 23.0771 82.1949 23.4165 82.5911 23.4165C82.9873 23.4165 83.3286 23.0765 83.3286 22.5932Z" fill="white"/>
<path d="M86.7319 22.5932C86.7319 23.3755 86.143 23.9519 85.4202 23.9519C84.6974 23.9519 84.1084 23.3755 84.1084 22.5932C84.1084 21.8059 84.6974 21.2344 85.4202 21.2344C86.143 21.2344 86.7319 21.8053 86.7319 22.5932ZM86.1577 22.5932C86.1577 22.1043 85.8164 21.7698 85.4202 21.7698C85.024 21.7698 84.6826 22.1043 84.6826 22.5932C84.6826 23.0771 85.024 23.4165 85.4202 23.4165C85.8164 23.4165 86.1577 23.0765 86.1577 22.5932Z" fill="white"/>
<path d="M89.4453 21.3165V23.7559C89.4453 24.7594 88.8758 25.1692 88.2025 25.1692C87.5687 25.1692 87.1873 24.7287 87.0434 24.3685L87.5434 24.1523C87.6324 24.3734 87.8505 24.6344 88.2019 24.6344C88.6329 24.6344 88.8999 24.3581 88.8999 23.838V23.6426H88.8799C88.7514 23.8074 88.5037 23.9513 88.1913 23.9513C87.5375 23.9513 86.9385 23.3595 86.9385 22.5981C86.9385 21.8311 87.5375 21.2344 88.1913 21.2344C88.5032 21.2344 88.7508 21.3783 88.8799 21.5382H88.8999V21.3171H89.4453V21.3165ZM88.9406 22.5981C88.9406 22.1196 88.6335 21.7698 88.2426 21.7698C87.8464 21.7698 87.5145 22.1196 87.5145 22.5981C87.5145 23.0716 87.8464 23.4165 88.2426 23.4165C88.6335 23.4165 88.9406 23.0716 88.9406 22.5981Z" fill="white"/>
<path d="M90.3443 19.8867V23.8687H89.7842V19.8867H90.3443Z" fill="white"/>
<path d="M92.5254 23.039L92.9711 23.3478C92.8273 23.5689 92.4806 23.95 91.8816 23.95C91.1388 23.95 90.584 23.3533 90.584 22.5912C90.584 21.7832 91.1435 21.2324 91.8173 21.2324C92.4959 21.2324 92.8279 21.7936 92.9363 22.0968L92.9959 22.2512L91.2478 23.0035C91.3817 23.2761 91.5898 23.4152 91.8816 23.4152C92.174 23.4152 92.3768 23.2657 92.5254 23.039ZM91.1535 22.5502L92.322 22.046C92.2578 21.8763 92.0644 21.758 91.8368 21.758C91.545 21.758 91.1388 22.0258 91.1535 22.5502Z" fill="white"/>
<path d="M79.1589 22.2395V21.663H81.0285C81.0467 21.7635 81.0562 21.8823 81.0562 22.011C81.0562 22.4435 80.9424 22.9783 80.5757 23.3594C80.219 23.7453 79.7632 23.9511 79.1595 23.9511C78.0405 23.9511 77.0996 23.004 77.0996 21.8413C77.0996 20.6785 78.0405 19.7314 79.1595 19.7314C79.7786 19.7314 80.2196 19.9838 80.5509 20.3128L80.1594 20.7196C79.9218 20.488 79.5999 20.3079 79.1589 20.3079C78.3418 20.3079 77.7027 20.9922 77.7027 21.8413C77.7027 22.6904 78.3418 23.3747 79.1589 23.3747C79.689 23.3747 79.9908 23.1535 80.1842 22.9526C80.341 22.7896 80.4442 22.5568 80.4849 22.2389L79.1589 22.2394V22.2395Z" fill="white"/>
</g>
<defs>
<clipPath id="clip0_2128_931">
<rect width="94" height="26" fill="white"/>
</clipPath>
</defs>
</svg>
