<svg width="93" height="24" viewBox="0 0 93 24" fill="none" xmlns="http://www.w3.org/2000/svg">
<path fill-rule="evenodd" clip-rule="evenodd" d="M8.14967 0.00233961C8.15002 0.0249271 8.14066 0.412353 8.12892 0.86331C8.10394 1.82071 8.01263 2.23861 7.6854 2.89248C7.2797 3.7032 6.59643 4.29137 5.11366 5.10632C3.59535 5.94085 3.06605 6.2878 2.39482 6.88841C1.77575 7.44236 1.09258 8.41203 0.741761 9.23465C0.253955 10.3785 0.0514289 11.2924 0.00619628 12.5538C-0.088449 15.1922 0.904085 17.6967 2.78231 19.559C3.15626 19.9298 4.10525 20.7001 4.188 20.7001C4.20616 20.7001 4.11142 20.5275 3.97756 20.3166C3.52976 19.6112 3.25822 18.9406 3.08978 18.1241C2.98633 17.6228 2.97259 16.3318 3.06574 15.8599C3.45114 13.9068 4.62431 12.3242 6.2819 11.5212C6.6664 11.3349 7.50915 11.0727 7.72327 11.0727C7.78413 11.0727 7.84533 11.0605 7.85927 11.0457C7.8732 11.0309 7.77009 10.775 7.63006 10.4771C6.76572 8.63786 7.13002 6.52241 8.55532 5.10373C9.33816 4.32454 10.3098 3.92024 11.4239 3.91008L11.9868 3.90495L11.822 3.75234C10.2139 2.26326 9.14096 1.17345 8.44237 0.319729C8.28104 0.12263 8.14937 -0.020195 8.14967 0.00233961ZM10.9357 5.86293C10.4535 5.97809 10.0342 6.22068 9.69624 6.57991C8.33762 8.02419 8.94017 10.4174 10.8078 10.9945C11.2077 11.1181 11.9452 11.0818 12.3402 10.9189C12.9563 10.6651 13.5379 10.0467 13.7767 9.39181C13.9299 8.97191 13.9641 8.18791 13.8478 7.76282C13.6085 6.88777 13.0251 6.22591 12.2487 5.94873C11.8376 5.80199 11.3298 5.76877 10.9357 5.86293ZM25.2505 13.0283V20.308L27.8257 20.2808C30.1349 20.2563 30.4676 20.242 31.0477 20.1415C32.7373 19.8489 33.7613 19.3553 34.5835 18.4369C34.972 18.003 35.162 17.7033 35.4284 17.1046C35.6701 16.5614 35.8675 15.8847 35.9743 15.2331C36.2208 13.7311 36.1869 11.7056 35.892 10.3004C35.2882 7.42306 33.6457 6.05928 30.4754 5.80304C30.1059 5.77321 28.7792 5.74872 27.5271 5.74861L25.2505 5.74851V13.0283ZM82.6869 13.0352L82.6995 20.3219H84.0928H85.4861L85.4987 13.0352L85.5113 5.74851H84.0928H82.6743L82.6869 13.0352ZM87.6009 6.013V6.27749H87.999H88.3971V7.44125V8.60501H88.6957H88.9942V7.44125V6.27749H89.3923H89.7904V6.013V5.74851H88.6957H87.6009V6.013ZM90.1122 5.81341C90.0985 5.85145 90.0932 6.48919 90.1005 7.23056L90.1139 8.57857H90.3876H90.6612L90.6704 7.78509C90.6755 7.34868 90.6822 6.9202 90.6854 6.83292C90.6893 6.72675 90.7807 6.94555 90.9616 7.49415C91.3626 8.71023 91.3087 8.6129 91.5708 8.59438L91.7945 8.57857L92.0874 7.68252C92.2485 7.18967 92.3909 6.77505 92.404 6.76119C92.4291 6.73447 92.4296 6.74771 92.4436 7.86444L92.4526 8.57857H92.7263H93V7.17676V5.77495H92.5827H92.1653L91.8939 6.67422C91.7447 7.16882 91.6075 7.59053 91.589 7.61132C91.5706 7.63211 91.4191 7.22743 91.2524 6.71204L90.9495 5.77495L90.5433 5.75956C90.244 5.74824 90.1306 5.76242 90.1122 5.81341ZM15.6878 8.40907C15.6878 9.43614 15.6221 9.74628 15.2349 10.5467C14.7667 11.5145 14.0906 12.1739 13.0945 12.6342C12.8894 12.7289 12.7085 12.8204 12.6924 12.8374C12.6765 12.8545 12.7417 12.9606 12.8374 13.0732C13.3176 13.6382 13.7929 14.6023 14.0083 15.4485C14.1284 15.9203 14.14 16.0516 14.14 16.9443C14.14 17.8382 14.1285 17.9688 14.0069 18.4519C13.7355 19.5304 13.1589 20.5248 12.3258 21.3507L11.8563 21.8162L12.2046 21.6797C13.0869 21.3343 14.1504 20.7054 14.8917 20.0908C15.3934 19.6747 16.2532 18.7373 16.6284 18.1973C17.3668 17.1345 17.8695 15.9561 18.1331 14.6697C18.2614 14.0435 18.2634 12.5901 18.1368 12.0248C17.9355 11.1266 17.57 10.202 17.1304 9.47888C16.8549 9.02581 16.2678 8.20795 15.9257 7.80074L15.6878 7.51753V8.40907ZM31.1882 8.43823C31.9432 8.65458 32.4507 9.0729 32.7549 9.72974C33.0895 10.4524 33.2125 11.1714 33.2487 12.6173C33.3279 15.7729 32.7052 17.2624 31.1472 17.6446C30.571 17.7859 29.3947 17.8448 28.5472 17.7747L28.1367 17.7407V13.008V8.27535L29.4678 8.30101C30.6157 8.32317 30.8525 8.34206 31.1882 8.43823ZM43.3902 8.9789C42.374 9.14431 41.3493 9.86378 40.6533 10.9007C40.5243 11.0928 40.3979 11.2499 40.3724 11.2499C40.2911 11.2499 40.2398 11.0339 40.0993 10.0985L39.9621 9.18515L38.7017 9.19922L37.4413 9.21334L37.4292 14.7544L37.4171 20.2955H38.8477H40.2783L40.2788 17.2142L40.2793 14.1329L40.3962 13.8684C40.9274 12.6668 42.1841 11.8645 43.3884 11.9583C44.0565 12.0102 44.8943 12.2993 45.3956 12.6507C45.5417 12.7531 45.6816 12.8369 45.7066 12.8369C45.733 12.8369 45.752 12.1428 45.752 11.1779V9.51899L45.3664 9.33406C44.7007 9.01487 43.9729 8.88411 43.3902 8.9789ZM63.1932 8.95346C62.5815 9.04158 62.2404 9.11643 61.8673 9.24434C60.0127 9.87991 58.6039 11.5082 58.1317 13.5616C58.0267 14.0181 58.0243 14.1234 58.0066 19.0135L57.9885 24L59.4215 23.9859L60.8545 23.9719L60.8793 21.1727C60.898 19.0672 60.9189 18.3682 60.9637 18.3524C60.9965 18.3408 61.0724 18.4341 61.1325 18.5596C61.3264 18.9651 61.6067 19.3623 61.9309 19.6911C62.9222 20.6963 64.3212 20.9147 65.7559 20.2882C67.6828 19.4468 69.01 17.5395 69.1885 15.3553C69.3179 13.7715 68.8565 12.2445 67.884 11.0383C67.091 10.0547 66.0566 9.39013 64.8778 9.10697C64.3798 8.98736 63.5088 8.90796 63.1932 8.95346ZM75.2851 8.97985C74.0226 9.13823 72.8371 9.74936 71.9297 10.7096C71.4503 11.2169 71.1872 11.6024 70.8892 12.2345C70.4921 13.0764 70.3159 13.8806 70.3166 14.847C70.3186 17.3889 71.8341 19.6063 74.1289 20.4252C75.4789 20.907 76.8033 20.5825 77.7262 19.5438C77.9162 19.3298 78.1501 19.0051 78.2459 18.8222C78.4475 18.4373 78.5343 18.3253 78.5983 18.3673C78.6234 18.3839 78.644 18.8238 78.644 19.3449V20.2923L80.0497 20.3071C80.8229 20.3153 81.4737 20.3073 81.496 20.2894C81.5183 20.2715 81.5276 18.8552 81.5166 17.142C81.4978 14.196 81.491 14.0022 81.3919 13.5677C80.8179 11.0518 78.908 9.2737 76.4592 8.97536C75.9767 8.91659 75.7833 8.91733 75.2851 8.97985ZM46.8666 9.20827C46.8518 9.2491 46.8486 10.7071 46.8593 12.4483C46.8805 15.8827 46.8838 15.9303 47.1781 16.8836C47.3246 17.3582 47.6287 18.0325 47.8579 18.3912C48.2089 18.9403 48.9152 19.623 49.4893 19.9681C50.5901 20.6298 52.1191 20.7905 53.3981 20.3789C53.9532 20.2002 54.2293 20.0633 54.6836 19.7415C55.7967 18.9529 56.5513 17.7052 56.8823 16.1057C56.9647 15.7073 56.9731 15.3675 56.9731 12.4137V9.16045L55.5674 9.14637L54.1616 9.13236V12.115C54.1616 15.3122 54.1375 15.7013 53.9023 16.2953C53.528 17.2408 52.8854 17.7016 51.9392 17.7029C50.8157 17.7045 50.0875 17.0403 49.7941 15.7462C49.7291 15.4598 49.7128 14.8798 49.6964 12.2682L49.6768 9.134H48.2851C47.1362 9.134 46.8887 9.14696 46.8666 9.20827ZM64.366 11.9691C65.6884 12.3823 66.5486 13.6769 66.4354 15.0836C66.3413 16.2518 65.5922 17.2636 64.5221 17.6678C64.1342 17.8143 63.1731 17.8253 62.7639 17.688C61.9342 17.4094 61.2075 16.6477 60.921 15.7563C60.7854 15.3345 60.7623 14.5063 60.8741 14.08C61.1325 13.0944 61.86 12.3102 62.8186 11.984C63.1815 11.8605 63.9934 11.8527 64.366 11.9691ZM76.784 12.019C78.1828 12.4981 79.0097 14.0442 78.6624 15.5313C78.4501 16.4407 77.886 17.16 77.0839 17.5441C75.5636 18.2723 73.7589 17.4501 73.2216 15.7845C73.0717 15.32 73.0366 14.6467 73.1396 14.2122C73.3891 13.1592 74.0484 12.3806 74.9839 12.0345C75.5392 11.8289 76.2123 11.8231 76.784 12.019ZM7.77805 13.591C6.23681 13.9872 5.13202 15.7141 5.35992 17.371C5.47701 18.2222 5.73781 18.7758 6.30737 19.3826C6.7277 19.8304 7.26651 20.1542 7.84956 20.3093C8.32836 20.4367 9.1515 20.3908 9.63369 20.2098C10.6037 19.8457 11.3411 19.054 11.6899 18.0023C11.7869 17.7096 11.804 17.5523 11.8045 16.9443C11.8051 16.3021 11.7918 16.1912 11.6725 15.8422C11.4835 15.2893 11.2604 14.9176 10.8599 14.4882C10.244 13.8279 9.48262 13.5023 8.57304 13.5104C8.2988 13.5128 7.94107 13.5491 7.77805 13.591Z" fill="white"/>
</svg>
