<svg width="74" height="36" viewBox="0 0 74 36" fill="none" xmlns="http://www.w3.org/2000/svg">
<path fill-rule="evenodd" clip-rule="evenodd" d="M8.55028 27.8405C8.55028 27.8405 7.17536 28.6406 9.52981 28.9108C12.383 29.2367 13.8403 29.1898 16.9835 28.5952C16.9835 28.5952 17.811 29.1133 18.9662 29.5616C11.918 32.5817 3.01504 29.3869 8.55028 27.8405ZM7.68871 23.8994C7.68871 23.8994 6.14625 25.0411 8.5028 25.2848C11.5507 25.5996 13.9565 25.6252 18.1222 24.8237C18.1222 24.8237 18.6974 25.4075 19.6025 25.7265C11.0821 28.2186 1.59263 25.9227 7.68871 23.8994Z" fill="white"/>
<path fill-rule="evenodd" clip-rule="evenodd" d="M14.9489 17.2127C16.6864 19.2127 14.4935 21.0114 14.4935 21.0114C14.4935 21.0114 18.9032 18.7355 16.8778 15.8844C14.9868 13.2268 13.5364 11.9065 21.3878 7.35352C21.3875 7.35322 9.06308 10.4304 14.9489 17.2127Z" fill="white"/>
<path fill-rule="evenodd" clip-rule="evenodd" d="M24.27 30.7562C24.27 30.7562 25.2878 31.5953 23.1489 32.2443C19.0818 33.4761 6.218 33.8476 2.6448 32.2932C1.36126 31.7342 3.76947 30.9592 4.52712 30.7956C5.31731 30.6248 5.76825 30.6558 5.76825 30.6558C4.33987 29.65 -3.46442 32.6313 1.80474 33.4866C16.1728 35.8163 27.9964 32.4378 24.27 30.7562ZM9.21184 19.8159C9.21184 19.8159 2.66929 21.3703 6.89531 21.9353C8.68026 22.1739 12.2358 22.119 15.5504 21.8409C18.2585 21.6137 20.9767 21.1275 20.9767 21.1275C20.9767 21.1275 20.0225 21.5369 19.3312 22.0082C12.6862 23.7561 -0.148648 22.942 3.54669 21.1553C6.67103 19.6439 9.21184 19.8159 9.21184 19.8159ZM20.9495 26.376C27.7038 22.8671 24.5809 19.4942 22.4006 19.9488C21.8675 20.0602 21.6283 20.1563 21.6283 20.1563C21.6283 20.1563 21.8272 19.8451 22.2052 19.7114C26.5179 18.1958 29.8339 24.1825 20.8148 26.5534C20.8145 26.5534 20.9184 26.4597 20.9495 26.376Z" fill="white"/>
<path fill-rule="evenodd" clip-rule="evenodd" d="M16.8775 0C16.8775 0 20.6173 3.74222 13.3294 9.49487C7.48474 14.1112 11.9969 16.7425 13.3276 19.7501C9.91535 16.672 7.41247 13.9619 9.09141 11.4402C11.5564 7.73859 18.3865 5.94348 16.8775 0Z" fill="white"/>
<path fill-rule="evenodd" clip-rule="evenodd" d="M9.87678 35.887C16.359 36.3015 26.3153 35.6568 26.5515 32.5889C26.5515 32.5889 26.0982 33.7518 21.1936 34.6743C15.6602 35.7159 8.83424 35.5947 4.78711 34.9266C4.78711 34.9266 5.61642 35.6129 9.87678 35.887Z" fill="white"/>
<path fill-rule="evenodd" clip-rule="evenodd" d="M72.1182 16.1504H71.844V15.9945H72.5839V16.1504H72.3097V16.9293H72.1182V16.1504ZM73.5946 16.1892H73.5913L73.3188 16.9288H73.1938L72.9229 16.1892H72.9196V16.9288H72.7376V15.9941H73.0047L73.2557 16.6553L73.5066 15.9941H73.7712V16.9288H73.5951V16.1892H73.5946ZM47.8614 24.9269C47.011 25.6746 46.112 26.0951 45.3048 26.0951C44.1549 26.0951 43.531 25.3943 43.531 24.2728C43.531 23.0587 44.199 22.1703 46.8727 22.1703H47.861V24.9269H47.8614ZM50.2086 27.6132V19.2973C50.2086 17.172 49.0138 15.7695 46.1336 15.7695C44.4532 15.7695 42.9801 16.1905 41.7824 16.727L42.1272 18.1999C43.0707 17.8484 44.2904 17.5227 45.4876 17.5227C47.1469 17.5227 47.861 18.1999 47.861 19.602V20.6535H47.0318C43.0013 20.6535 41.1826 22.2398 41.1826 24.6247C41.1826 26.6797 42.3811 27.8479 44.6373 27.8479C46.0875 27.8479 47.1709 27.2406 48.1825 26.3518L48.3665 27.6132H50.2086ZM58.0423 27.6132H55.1156L51.5915 15.981H54.1481L56.3353 23.1291L56.8222 25.2767C57.9255 22.1703 58.7086 19.0167 59.1004 15.981H61.5863C60.9208 19.8111 59.7219 24.0162 58.0423 27.6132ZM69.2742 24.9269C68.4213 25.6746 67.5223 26.0951 66.7168 26.0951C65.5669 26.0951 64.9438 25.3943 64.9438 24.2728C64.9438 23.0587 65.6122 22.1703 68.2842 22.1703H69.2742V24.9269ZM71.6222 27.6132V19.2973C71.6222 17.172 70.4237 15.7695 67.5464 15.7695C65.8644 15.7695 64.3917 16.1905 63.194 16.727L63.5388 18.1999C64.4822 17.8484 65.7044 17.5227 66.9021 17.5227C68.5588 17.5227 69.2738 18.1999 69.2738 19.602V20.6535H68.4446C64.4137 20.6535 62.5962 22.2398 62.5962 24.6247C62.5962 26.6797 63.7922 27.8479 66.0488 27.8479C67.5003 27.8479 68.5821 27.2406 69.5962 26.3518L69.781 27.6132H71.6222ZM38.609 29.5897C37.9401 30.5814 36.8584 31.3665 35.6756 31.8095L34.5166 30.4246C35.4177 29.9555 36.1895 29.1982 36.5489 28.4936C36.8584 27.8656 36.9876 27.0581 36.9876 25.1254V11.8438H39.4822V24.9421C39.4822 27.5272 39.2787 28.572 38.609 29.5897Z" fill="white"/>
</svg>
