<svg width="34" height="36" viewBox="0 0 34 36" fill="none" xmlns="http://www.w3.org/2000/svg">
<g clip-path="url(#clip0_2128_921)">
<path d="M33.9204 8.21373C33.933 8.26143 33.9394 8.31062 33.9395 8.36003V16.0403C33.9395 16.1389 33.9141 16.2357 33.8659 16.321C33.8176 16.4063 33.7483 16.4771 33.6648 16.5261L27.3702 20.2374V27.5936C27.3702 27.7938 27.2663 27.9786 27.0968 28.0794L13.9575 35.8255C13.9274 35.843 13.8946 35.8542 13.8618 35.8661C13.8495 35.8703 13.8379 35.878 13.8249 35.8815C13.733 35.9063 13.6365 35.9063 13.5446 35.8815C13.5296 35.8773 13.5159 35.8689 13.5016 35.8633C13.4715 35.8521 13.4401 35.8423 13.4114 35.8255L0.274775 28.0794C0.191322 28.0303 0.121982 27.9596 0.0737413 27.8743C0.0255011 27.789 6.61234e-05 27.6922 0 27.5936L0 4.55278C0 4.50239 0.00683521 4.45339 0.0191386 4.40579C0.0232397 4.38969 0.032809 4.37499 0.0382772 4.35889C0.04853 4.32949 0.0580993 4.29939 0.0731367 4.27209C0.0833895 4.25389 0.098427 4.23919 0.11073 4.22239C0.126451 4.19999 0.140805 4.17689 0.15926 4.15729C0.174981 4.14119 0.195487 4.12929 0.213258 4.11529C0.233081 4.09849 0.250852 4.08029 0.273408 4.06699H0.274092L6.84273 0.193949C6.9259 0.144936 7.02018 0.119141 7.11613 0.119141C7.21209 0.119141 7.30637 0.144936 7.38954 0.193949L13.9582 4.06699H13.9595C13.9814 4.08099 13.9999 4.09849 14.0197 4.11459C14.0375 4.12859 14.0573 4.14119 14.073 4.15659C14.0921 4.17689 14.1058 4.19999 14.1222 4.22239C14.1338 4.23919 14.1496 4.25389 14.1591 4.27209C14.1749 4.30009 14.1837 4.32949 14.1947 4.35889C14.2001 4.37499 14.2097 4.38969 14.2138 4.40649C14.2264 4.45419 14.2328 4.50337 14.233 4.55278V18.9439L19.7066 15.7162V8.35933C19.7066 8.31033 19.7134 8.26063 19.7257 8.21373C19.7305 8.19693 19.7394 8.18223 19.7449 8.16613C19.7558 8.13673 19.7654 8.10663 19.7804 8.07933C19.7907 8.06113 19.8057 8.04643 19.8173 8.02963C19.8337 8.00723 19.8474 7.98413 19.8665 7.96453C19.8823 7.94843 19.9021 7.93653 19.9198 7.92253C19.9403 7.90573 19.9581 7.88754 19.98 7.87424H19.9807L26.55 4.00119C26.6331 3.95211 26.7274 3.92628 26.8234 3.92628C26.9194 3.92628 27.0137 3.95211 27.0968 4.00119L33.6654 7.87424C33.6887 7.88824 33.7065 7.90573 33.727 7.92183C33.744 7.93583 33.7639 7.94843 33.7796 7.96383C33.7987 7.98413 33.8124 8.00723 33.8288 8.02963C33.8411 8.04643 33.8562 8.06113 33.8657 8.07933C33.8814 8.10663 33.8903 8.13673 33.9013 8.16613C33.9074 8.18223 33.9163 8.19693 33.9204 8.21373ZM32.8445 15.7162V9.32951L30.5459 10.6847L27.3702 12.5572V18.9439L32.8452 15.7162H32.8445ZM26.2759 27.2695V20.8786L23.1522 22.7056L14.2323 27.9191V34.3702L26.2759 27.2695ZM1.095 5.52227V27.2695L13.1373 34.3695V27.9198L6.84614 24.2736L6.84409 24.2722L6.84136 24.2708C6.82017 24.2582 6.8024 24.24 6.78258 24.2246C6.76549 24.2106 6.74567 24.1994 6.73063 24.184L6.72926 24.1819C6.71149 24.1644 6.69919 24.1427 6.68415 24.1231C6.67048 24.1042 6.65407 24.0881 6.64314 24.0685L6.64245 24.0664C6.63015 24.0454 6.62263 24.0202 6.61375 23.9964C6.60486 23.9754 6.59324 23.9558 6.58777 23.9334V23.9327C6.58094 23.9061 6.57957 23.8781 6.57684 23.8508C6.5741 23.8298 6.56863 23.8088 6.56863 23.7878V8.74992L3.39368 6.87675L1.095 5.52297V5.52227ZM7.11682 1.32653L1.64387 4.55278L7.11545 7.77904L12.5877 4.55208L7.11545 1.32653H7.11682ZM9.963 21.461L13.138 19.5893V5.52227L10.8393 6.87745L7.66363 8.74992V22.8169L9.963 21.461ZM26.8234 5.13378L21.3511 8.36003L26.8234 11.5863L32.295 8.35933L26.8234 5.13378ZM26.2759 12.5572L23.1003 10.6847L20.8016 9.32951V15.7162L23.9765 17.588L26.2759 18.9439V12.5572ZM13.6841 26.9497L21.7107 22.2569L25.7229 19.912L20.2548 16.6878L13.9589 20.3998L8.2207 23.7829L13.6841 26.9497Z" fill="white"/>
</g>
<defs>
<clipPath id="clip0_2128_921">
<rect width="34" height="36" fill="white"/>
</clipPath>
</defs>
</svg>
