<svg width="107" height="30" viewBox="0 0 107 30" fill="none" xmlns="http://www.w3.org/2000/svg">
<path d="M98.4256 10.6455C98.165 10.6455 97.9117 10.6989 97.6875 10.8249L90.5936 14.8924C90.1345 15.1549 89.8555 15.651 89.8555 16.1786V24.2991C89.8555 24.8264 90.1345 25.3217 90.5936 25.585L92.4462 26.645C93.3463 27.0856 93.6783 27.0786 94.088 27.0786C95.4206 27.0786 96.1813 26.2757 96.1813 24.8802V16.8688C96.1813 16.7555 96.0825 16.6745 95.9705 16.6745H95.0819C94.968 16.6745 94.8711 16.7576 94.8711 16.8688V24.8843C94.8711 25.5029 94.2222 26.1252 93.1692 25.6022L91.2434 24.4807C91.1753 24.4439 91.1228 24.3768 91.1228 24.3013V16.1808C91.1228 16.1039 91.1747 16.0254 91.2434 15.9865L98.3224 11.9335C98.3888 11.8957 98.4677 11.8957 98.5332 11.9335L105.612 15.9865C105.68 16.0266 105.733 16.1014 105.733 16.1808V24.3013C105.733 24.3789 105.694 24.4583 105.627 24.4957L98.5334 28.5487C98.4706 28.5846 98.3869 28.5846 98.3226 28.5487L96.5001 27.472C96.4457 27.4404 96.3718 27.4429 96.3195 27.472C95.8165 27.7551 95.7218 27.7879 95.2502 27.9505C95.134 27.9906 94.9571 28.0532 95.3105 28.2498L97.6902 29.6423C97.9167 29.7724 98.1692 29.8367 98.4283 29.8367C98.691 29.8367 98.9397 29.7743 99.1664 29.6423L106.26 25.5894C106.719 25.3241 106.998 24.8307 106.998 24.3034V16.1829C106.998 15.6554 106.719 15.1603 106.26 14.8968L99.1664 10.8292C98.9441 10.7033 98.6891 10.6499 98.4283 10.6499L98.4256 10.6455ZM100.323 16.4481C98.3033 16.4481 97.1003 17.3017 97.1003 18.7211C97.1003 20.2592 98.2943 20.684 100.233 20.8744C102.553 21.0999 102.733 21.4381 102.733 21.8914C102.733 22.6777 102.102 23.0129 100.61 23.0129C98.735 23.0129 98.3228 22.5482 98.1849 21.6203C98.1685 21.521 98.0915 21.441 97.9891 21.441H97.0681C97.0125 21.4422 96.9596 21.4646 96.9204 21.5036C96.8811 21.5426 96.8585 21.5952 96.8573 21.6503C96.8573 22.8356 97.5066 24.2373 100.608 24.2373C102.852 24.2373 104.147 23.3644 104.147 21.8296C104.147 20.3124 103.101 19.9023 100.924 19.6161C98.726 19.3251 98.5141 19.1859 98.5141 18.6739C98.5141 18.2516 98.6921 17.6867 100.322 17.6867C101.777 17.6867 102.315 17.9984 102.536 18.9728C102.555 19.0643 102.636 19.1391 102.731 19.1391H103.652C103.709 19.1391 103.764 19.1046 103.803 19.0643C103.842 19.0212 103.869 18.9728 103.863 18.9146C103.721 17.2365 102.594 16.4471 100.324 16.4471L100.323 16.4481Z" fill="#898892"/>
<path d="M56.7217 0.000271833C56.6425 0.000413882 56.5646 0.0210439 56.4958 0.0601312C56.4274 0.0998859 56.3706 0.156655 56.331 0.224845C56.2914 0.293035 56.2703 0.370293 56.27 0.449009V11.8892C56.27 12.0015 56.2172 12.102 56.1192 12.1584C56.0712 12.1862 56.0167 12.2008 55.9611 12.2008C55.9055 12.2008 55.8509 12.1862 55.8029 12.1584L53.9202 11.0817C53.7829 11.0028 53.627 10.9613 53.4683 10.9613C53.3097 10.9613 53.1538 11.0028 53.0165 11.0817L45.501 15.3885C45.2201 15.5494 45.0488 15.8591 45.0488 16.181V24.7947C45.0486 24.9524 45.0903 25.1072 45.1696 25.2438C45.249 25.3803 45.3632 25.4936 45.5008 25.5723L53.0165 29.8792C53.1538 29.9583 53.3096 30 53.4683 30C53.627 30 53.7829 29.9583 53.9202 29.8792L61.4359 25.5723C61.5735 25.4936 61.6877 25.3803 61.767 25.2438C61.8464 25.1072 61.8881 24.9524 61.8878 24.7947V3.32018C61.8878 2.99345 61.7082 2.68688 61.421 2.52767L56.9478 0.0449585C56.8774 0.00609149 56.7996 -0.00076739 56.7217 6.39905e-05V0.000271833ZM8.37398 10.7525C8.23059 10.7583 8.09599 10.7831 7.96725 10.8573L0.451746 15.164C0.31407 15.2426 0.199764 15.3558 0.120427 15.4924C0.0410893 15.629 -0.000456779 15.7839 3.78799e-06 15.9416L0.0152852 27.5017C0.0152852 27.6626 0.0990187 27.8118 0.241366 27.8904C0.380991 27.9735 0.55411 27.9735 0.693108 27.8904L5.15129 25.348C5.43389 25.1817 5.6181 24.8916 5.6181 24.5707V19.1719C5.6181 18.8497 5.78871 18.5546 6.07026 18.3946L7.96808 17.303C8.10522 17.2238 8.26119 17.1824 8.41983 17.1832C8.57855 17.1823 8.73462 17.2236 8.87178 17.303L10.7688 18.3939C11.0499 18.554 11.2205 18.8495 11.2205 19.1713V24.5698C11.2205 24.8912 11.4089 25.183 11.6873 25.3472L16.1455 27.8895C16.2858 27.9727 16.4585 27.9727 16.5972 27.8895C16.7354 27.8106 16.8233 27.6615 16.8233 27.5009L16.8384 15.9412C16.8393 15.7834 16.7979 15.6283 16.7185 15.4917C16.6392 15.355 16.5246 15.2418 16.3867 15.1636L8.87115 10.8571C8.74408 10.7831 8.60885 10.7581 8.46441 10.7523H8.3744L8.37398 10.7525ZM75.9101 10.8573C75.7514 10.8568 75.5955 10.8981 75.4581 10.977L67.9424 15.2839C67.6619 15.445 67.4902 15.7395 67.4902 16.0613V24.675C67.4902 24.9988 67.674 25.2923 67.9571 25.4523L75.4125 29.6716C75.6878 29.8275 76.0237 29.8393 76.3011 29.6862L80.8196 27.1887C80.963 27.1097 81.0599 26.9621 81.0603 26.8C81.0607 26.6379 80.9759 26.492 80.8342 26.4113L73.2731 22.1044C73.1316 22.0242 73.0324 21.8618 73.0324 21.7005V19.0071C73.0324 18.8462 73.1328 18.6986 73.2731 18.6184L75.6227 17.2724C75.7625 17.1922 75.9341 17.1922 76.0748 17.2724L78.4254 18.6184C78.4942 18.6577 78.5514 18.7143 78.5911 18.7826C78.6307 18.8508 78.6515 18.9283 78.6513 19.0071V21.1306C78.6511 21.2094 78.6719 21.2869 78.7115 21.3552C78.7512 21.4234 78.8083 21.48 78.8772 21.5193C79.018 21.5999 79.1887 21.6004 79.3293 21.5193L83.8325 18.9177C84.112 18.7564 84.2847 18.4611 84.2847 18.1404V16.0619C84.2847 15.9043 84.2429 15.7495 84.1636 15.613C84.0843 15.4765 83.9702 15.3632 83.8327 15.2844L76.3622 10.9774C76.2249 10.8985 76.0689 10.8571 75.9103 10.8577L75.9101 10.8573ZM53.4381 17.288C53.4801 17.2878 53.5216 17.298 53.5587 17.3177L56.1341 18.7982C56.204 18.8383 56.2547 18.9125 56.2547 18.9925V21.9535C56.2547 22.0339 56.2044 22.1079 56.1341 22.1478L53.5587 23.6283C53.4885 23.6678 53.4029 23.6678 53.3326 23.6283L50.7572 22.1478C50.687 22.1077 50.6366 22.0335 50.6366 21.9535V18.9921C50.6366 18.9119 50.6872 18.8383 50.7572 18.7978L53.3326 17.3175C53.3678 17.2973 53.3987 17.2878 53.4381 17.2878V17.2876V17.288Z" fill="white"/>
<path d="M30.9509 10.8127C30.7922 10.8124 30.6362 10.8537 30.4987 10.9324L22.983 15.2244C22.7021 15.3853 22.5313 15.6952 22.5313 16.0169V24.6307C22.5308 24.7883 22.5724 24.9432 22.6517 25.0797C22.7311 25.2162 22.8454 25.3295 22.983 25.408L30.4987 29.715C30.636 29.7941 30.7918 29.8357 30.9506 29.8357C31.1093 29.8357 31.2651 29.7941 31.4024 29.715L38.9181 25.408C39.0557 25.3293 39.1699 25.216 39.2493 25.0795C39.3286 24.943 39.3703 24.7881 39.3701 24.6305V16.0167C39.3701 15.6946 39.1992 15.3849 38.9179 15.2242L31.4022 10.9322C31.2649 10.8532 31.1088 10.8118 30.95 10.8125L30.9509 10.8127ZM75.8948 18.4994C75.8649 18.4994 75.8316 18.4994 75.8044 18.514L74.3585 19.3516C74.3316 19.3665 74.309 19.3881 74.2932 19.4143C74.2773 19.4406 74.2686 19.4705 74.2681 19.5011V21.1461C74.2681 21.2081 74.3043 21.2646 74.3585 21.2958L75.8044 22.1182C75.8292 22.1335 75.8579 22.1416 75.8871 22.1416C75.9163 22.1416 75.9449 22.1335 75.9698 22.1182L77.4156 21.2958C77.4692 21.2652 77.5061 21.2081 77.5061 21.1461V19.5011C77.5061 19.4391 77.4694 19.3826 77.4156 19.3514L75.9698 18.5138C75.943 18.498 75.9245 18.4992 75.8944 18.4992L75.8948 18.4994Z" fill="#898892"/>
</svg>
