<svg width="36" height="36" viewBox="0 0 36 36" fill="none" xmlns="http://www.w3.org/2000/svg">
<path d="M17.951 36C8.27843 36 0.0758381 27.8304 0.000455318 18.0966C-0.0163662 15.7485 0.433064 13.4204 1.32269 11.2473C2.21232 9.07415 3.52445 7.09923 5.18302 5.43699C6.8525 3.72711 8.84507 2.36596 11.045 1.43261C13.2449 0.499256 15.6084 0.0122942 17.9981 7.05567e-06C20.3446 -0.00208297 22.6683 0.460179 24.8354 1.36016C27.0025 2.26014 28.97 3.58004 30.6247 5.24382C32.307 6.88374 33.6481 8.8404 34.5708 11.001C35.4934 13.1616 35.9793 15.4835 36.0005 17.8327C36.0219 22.6119 34.1509 27.2054 30.7962 30.6094C27.4416 34.0135 22.876 35.9515 18.097 36H17.951ZM18.0075 0.942292C15.743 0.955559 13.5036 1.41843 11.4194 2.30404C9.33519 3.18965 7.4476 4.48037 5.86618 6.1013C4.29317 7.67392 3.04799 9.54316 2.20283 11.6006C1.35768 13.6581 0.929373 15.8629 0.94274 18.0872C1.01341 27.3121 8.78726 35.0483 17.9463 35.0483H18.0688C22.6003 35.0072 26.9313 33.1737 30.1149 29.9486C33.2985 26.7235 35.0758 22.3692 35.0582 17.8375C35.037 15.6118 34.5757 13.4124 33.7008 11.3658C32.8259 9.31921 31.5547 7.46598 29.9604 5.91284C28.3961 4.33464 26.534 3.08264 24.4822 2.22941C22.4304 1.37618 20.2297 0.938684 18.0075 0.942292Z" fill="white"/>
<path d="M4.03809 23.2649V12.749H6.59639V13.6913H5.2395V22.3415H6.59639V23.2838L4.03809 23.2649Z" fill="white"/>
<path d="M12.7216 17.9034C12.7216 19.8209 11.5579 20.914 9.97956 20.914C8.40123 20.914 7.35059 19.6843 7.35059 18.0023C7.35059 16.245 8.45306 15.0059 10.0644 15.0059C11.6757 15.0059 12.7216 16.2968 12.7216 17.9034ZM8.45306 17.9882C8.45306 19.1519 9.03728 20.0754 10.0408 20.0754C11.0443 20.0754 11.6191 19.1331 11.6191 17.9458C11.6191 16.8669 11.0867 15.8492 10.0408 15.8492C8.99487 15.8492 8.44364 16.8339 8.44364 18.0117L8.45306 17.9882Z" fill="white"/>
<path d="M13.6074 15.2045C14.1084 15.118 14.6161 15.0754 15.1245 15.0773C15.6957 15.0215 16.2698 15.1485 16.7641 15.4401C16.9494 15.5492 17.1022 15.7059 17.2065 15.894C17.3109 16.082 17.3631 16.2946 17.3577 16.5096C17.3509 16.789 17.2562 17.0591 17.0871 17.2816C16.9179 17.504 16.6829 17.6675 16.4154 17.7487C16.7413 17.815 17.0343 17.9919 17.2447 18.2495C17.455 18.5071 17.5699 18.8295 17.5697 19.1621C17.5733 19.3874 17.5255 19.6105 17.43 19.8146C17.3345 20.0187 17.1938 20.1983 17.0185 20.3399C16.6133 20.698 15.9396 20.8723 14.8984 20.8723C14.47 20.8744 14.042 20.8493 13.6168 20.797L13.6074 15.2045ZM14.6439 17.4613H15.1763C15.8972 17.4613 16.3024 17.122 16.3024 16.6368C16.3024 16.1515 15.8972 15.8547 15.2329 15.8547C15.034 15.8479 14.8351 15.8621 14.6392 15.8971L14.6439 17.4613ZM14.6439 20.0902C14.827 20.1091 15.0111 20.117 15.1952 20.1138C15.8642 20.1138 16.4578 19.8594 16.4578 19.1715C16.4578 18.4836 15.883 18.2292 15.1622 18.2292H14.6439V20.0902Z" fill="white"/>
<path d="M19.6277 15.1289H20.6689V18.8462C20.6689 20.4245 19.9057 20.9522 18.7844 20.9522C18.4845 20.9497 18.187 20.8988 17.9033 20.8015L18.0305 19.9628C18.2396 20.0281 18.457 20.063 18.676 20.0665C19.2696 20.0665 19.6183 19.7932 19.6183 18.8038L19.6277 15.1289Z" fill="white"/>
<path d="M23.6331 18.2236V18.9445H21.4658V18.2236H23.6331Z" fill="white"/>
<path d="M28.6939 20.6737C28.2255 20.8605 27.7231 20.9472 27.2192 20.9281C25.4053 20.9281 24.3028 19.7927 24.3028 18.0542C24.2814 17.6491 24.346 17.2441 24.4923 16.8658C24.6386 16.4874 24.8633 16.1443 25.1517 15.8591C25.44 15.5738 25.7855 15.3528 26.1654 15.2106C26.5453 15.0685 26.951 15.0083 27.3558 15.0342C27.84 15.0141 28.3225 15.101 28.7693 15.2886L28.5384 16.1178C28.1841 15.967 27.8022 15.8916 27.4171 15.8963C26.2534 15.8963 25.4147 16.6266 25.4147 18.0024C25.4147 19.2556 26.1544 20.066 27.4077 20.066C27.7965 20.0716 28.1825 19.9995 28.5431 19.8539L28.6939 20.6737Z" fill="white"/>
<path d="M31.9626 12.7207V23.2649H29.4043V22.3226H30.7612V13.663H29.4043V12.7207H31.9626Z" fill="white"/>
</svg>
