<svg width="89" height="29" viewBox="0 0 89 29" fill="none" xmlns="http://www.w3.org/2000/svg">
<path fill-rule="evenodd" clip-rule="evenodd" d="M8.55215 0.0828873C7.70974 0.261744 6.85229 1.02882 6.48464 1.93259C5.96858 3.20146 5.8814 5.55751 6.26686 7.82092C6.36005 8.3685 6.43643 8.87157 6.43655 8.9388C6.43655 9.00603 5.99831 9.21124 5.46253 9.39478C3.54746 10.0509 1.53129 11.3568 0.747554 12.4487C-0.0718074 13.5905 -0.210762 14.6025 0.296955 15.7314C1.016 17.3302 3.04174 18.8433 5.69757 19.7649L6.46149 20.0301L6.39112 20.4555C6.03817 22.5876 5.97348 23.3153 6.03059 24.5118C6.12056 26.3968 6.3968 27.2412 7.20013 28.0863C7.71363 28.6265 7.94244 28.7784 8.42677 28.9007C10.008 29.2997 12.3457 28.3134 14.6864 26.2597L15.5674 25.4865L16.1516 26.0404C18.101 27.8889 20.5731 29.1286 22.0324 28.9893C23.6081 28.8391 24.5595 27.6721 24.9297 25.4354C25.0936 24.4456 25.0041 22.0219 24.7597 20.8341C24.6616 20.3574 24.5948 19.9561 24.6111 19.9423C24.6276 19.9283 24.9913 19.7959 25.4195 19.6479C27.1767 19.0404 28.6002 18.2083 29.6509 17.1743C32.104 14.7602 31.1464 12.0961 27.1103 10.1051C26.5483 9.82781 25.7346 9.4831 25.302 9.33915L24.5155 9.07736L24.7296 7.95128C24.9912 6.57501 25.037 4.09949 24.8199 3.07718C24.3075 0.66502 22.8591 -0.399686 20.8357 0.148362C19.3054 0.562883 17.7263 1.51901 16.1204 3.00327L15.505 3.57205L15.0626 3.16245C13.4044 1.62724 11.6824 0.581858 10.1928 0.206107C9.21552 -0.040333 9.15439 -0.0449008 8.55215 0.0828873ZM10.7233 1.84076C11.6512 2.21628 12.7814 2.96415 13.8128 3.88491L14.5642 4.55571L13.7989 5.51476C13.378 6.04231 12.7894 6.81454 12.4908 7.23094L11.9481 7.98795L10.2779 8.25805C9.35937 8.40657 8.42744 8.5593 8.20699 8.59749C7.72555 8.68088 7.74314 8.71708 7.49017 7.12576C7.23008 5.48911 7.30078 3.55378 7.65173 2.70799C8.21545 1.34941 8.97758 1.13424 10.7233 1.84076ZM22.6457 1.66694C23.3084 2.12387 23.7805 4.0531 23.6499 5.77116C23.6107 6.28652 23.501 7.16019 23.406 7.71257L23.2333 8.71696L22.2113 8.50835C21.6492 8.39356 20.7134 8.23813 20.1317 8.16282L19.0739 8.0259L18.4059 7.07551C18.0384 6.55264 17.4489 5.77045 17.0958 5.33731L16.4537 4.54961L17.2072 3.89041C19.6268 1.7733 21.6186 0.959015 22.6457 1.66694ZM39.2824 12.6818V20.0024H40.189H41.0958L41.0188 18.929C40.9764 18.3387 40.9767 17.021 41.0192 16.0008L41.0967 14.1459H42.4077H43.7188L44.88 16.0493C45.5185 17.0962 46.3272 18.4139 46.677 18.9775L47.313 20.0024H48.3703C49.1859 20.0024 49.4088 19.9689 49.3451 19.856C49.2997 19.7755 48.4667 18.4524 47.4941 16.9158C46.5216 15.3793 45.7415 14.1085 45.7608 14.092C45.78 14.0755 46.1534 13.9494 46.5903 13.8118C48.4937 13.2126 49.565 11.2024 49.1987 8.91783C48.9321 7.25554 47.9807 6.06796 46.5357 5.59347C45.8975 5.38404 45.5069 5.3612 42.5553 5.3612H39.2824V12.6818ZM16.4463 6.73454C16.881 7.29665 17.2368 7.78414 17.2368 7.81799C17.2368 7.85184 16.4602 7.87948 15.511 7.87948C14.5618 7.87948 13.7978 7.84177 13.813 7.79562C13.8884 7.56827 15.4155 5.71259 15.527 5.71259C15.5978 5.71259 16.0114 6.17244 16.4463 6.73454ZM84.821 7.87948V9.3436H83.986H83.1509V10.1049V10.8663H83.986H84.821L84.8237 14.468C84.8253 16.5159 84.876 18.2961 84.9414 18.5945C85.1915 19.7364 85.9287 20.2779 87.2209 20.2691C87.9782 20.2639 88.8028 19.9803 88.9908 19.6604C89.0558 19.5498 88.7614 18.6298 88.5993 18.4368C88.5524 18.3811 88.3984 18.4207 88.2573 18.5247C87.8474 18.8267 87.1377 18.7711 86.8167 18.4119L86.5468 18.1098L86.5144 14.488L86.482 10.8663H87.5443H88.6066V10.1049V9.3436H87.5489H86.4912V7.87948V6.41537H85.6561H84.821V7.87948ZM45.9521 7.2881C46.9871 7.83978 47.457 8.70899 47.3904 9.94881C47.3556 10.5955 47.2871 10.8301 47.0132 11.2402C46.6282 11.8162 46.1087 12.2182 45.5306 12.3871C45.3091 12.4519 44.2009 12.505 43.068 12.5053L41.0082 12.5057L40.9855 9.75332L40.9627 7.00101H43.1881C45.3293 7.00101 45.434 7.01191 45.9521 7.2881ZM54.3135 9.27063C52.7231 9.75613 51.4294 11.1684 50.9279 12.9666C50.7007 13.7816 50.6973 15.5214 50.9212 16.4258C51.566 19.0302 53.8792 20.5631 56.6681 20.2341C57.7101 20.1111 58.5686 19.7733 59.3666 19.172L59.9952 18.6986L59.634 18.1695C59.4354 17.8786 59.2426 17.6208 59.2055 17.5966C59.1684 17.5725 58.8829 17.7544 58.5712 18.0009C57.4389 18.8958 55.5655 19.0932 54.3555 18.4449C53.5512 18.0142 52.9154 17.2115 52.6428 16.2833C52.5207 15.8672 52.4207 15.4802 52.4207 15.4234C52.4207 15.3662 54.2447 15.3064 56.5125 15.2893L60.6043 15.2586L60.5812 14.3982C60.5223 12.1994 59.5557 10.4691 57.9071 9.61206C57.1182 9.20187 56.9865 9.1706 55.9381 9.14507C55.2646 9.12867 54.6138 9.17903 54.3135 9.27063ZM65.6367 9.23174C64.7021 9.47631 63.1095 10.5172 63.1095 10.8836C63.1095 10.9475 63.2626 11.2339 63.4497 11.5201L63.7901 12.0404L64.326 11.5651C65.075 10.9006 65.8093 10.632 66.8762 10.632C67.6055 10.632 67.8425 10.684 68.3446 10.9541C69.1885 11.4081 69.3832 11.8499 69.4394 13.4384L69.4829 14.6636L69.0766 14.2883C67.541 12.8699 64.898 12.8467 63.5136 14.2395C62.8495 14.9077 62.555 15.6707 62.555 16.7227C62.555 18.5758 63.6794 19.9244 65.4821 20.233C66.6616 20.4349 68.2454 20.0035 69.0941 19.2491L69.4559 18.9274V19.4649V20.0024H70.2404H71.0249L70.992 15.6979C70.9601 11.5453 70.9506 11.3768 70.7188 10.9248C70.3854 10.2751 69.9585 9.8804 69.1776 9.49985C68.592 9.21464 68.3583 9.17107 67.2848 9.14764C66.6111 9.133 65.8695 9.17072 65.6367 9.23174ZM76.9022 9.37979C74.9769 10.0702 73.7524 11.9065 73.6046 14.325C73.4966 16.0946 74.1494 17.9455 75.2457 18.9777C77.0933 20.7173 80.3548 20.7053 81.9785 18.9528L82.4204 18.4757L81.902 17.9302L81.3836 17.3849L80.9185 17.8268C80.2465 18.4655 79.6651 18.7083 78.8006 18.7114C77.8527 18.7146 77.1634 18.4598 76.527 17.8704C74.8727 16.3384 74.8591 13.0567 76.5008 11.5039C77.7399 10.3319 79.6997 10.3433 80.8951 11.5293C81.1119 11.7445 81.3198 11.9183 81.3572 11.9156C81.3945 11.9129 81.6482 11.6987 81.9209 11.4394C82.4998 10.8889 82.4878 10.8359 81.6114 10.081C80.4888 9.11426 78.4779 8.81476 76.9022 9.37979ZM17.0994 9.30354L18.3538 9.37956L19.0947 10.6208C19.5024 11.3034 20.1315 12.4539 20.493 13.1772L21.15 14.4926L20.5214 15.7657C20.1755 16.4658 19.551 17.6133 19.1335 18.3156L18.3744 19.5924L17.6664 19.6666C16.6953 19.7682 14.3351 19.7824 13.4244 19.6919L12.6739 19.6174L12.0102 18.5393C11.2081 17.2369 9.88869 14.7342 9.88846 14.5149C9.88813 14.2893 11.2373 11.7103 12.0232 10.434L12.6886 9.35356L13.4874 9.31326C15.1125 9.23139 15.8748 9.2294 17.0994 9.30354ZM10.8903 9.62717C10.8903 9.65423 10.6468 10.0894 10.3493 10.5941C10.0517 11.0989 9.67413 11.7902 9.51024 12.1305C9.34634 12.4706 9.16953 12.7213 9.11743 12.6874C8.99061 12.6049 8.17091 10.1742 8.24395 10.0973C8.38736 9.94646 10.8903 9.50172 10.8903 9.62717ZM21.5169 9.80556C22.177 9.93077 22.7445 10.062 22.7779 10.0971C22.8113 10.1322 22.6244 10.7692 22.3625 11.5125L21.8865 12.864L21.009 11.2591C20.5265 10.3764 20.1317 9.63713 20.1317 9.61604C20.1317 9.55068 20.2811 9.57106 21.5169 9.80556ZM7.21649 11.4926C7.39564 12.0467 7.72499 12.9429 7.94845 13.484L8.35462 14.4679L7.79892 15.9175C7.49329 16.7147 7.15626 17.649 7.04993 17.9938C6.8671 18.5866 6.83949 18.6172 6.54277 18.5548C5.98728 18.4379 4.49386 17.7889 3.86979 17.3931C2.19277 16.3297 1.31495 15.3426 1.31495 14.5204C1.31495 13.3141 3.3123 11.6502 5.82795 10.7609C6.37341 10.5681 6.8357 10.427 6.85519 10.4477C6.87467 10.4682 7.03734 10.9384 7.21649 11.4926ZM25.0637 10.741C28.0782 11.832 30.0061 13.5989 29.5988 14.8974C29.3425 15.7143 28.1619 16.825 26.7565 17.5717C26.2139 17.86 24.235 18.6339 24.2034 18.5702C24.1947 18.5527 24.0951 18.2484 23.9822 17.894C23.8692 17.5397 23.5259 16.6233 23.2194 15.8575L22.6621 14.4651L23.0226 13.5735C23.3151 12.8502 23.8143 11.4816 24.0847 10.6613C24.1505 10.4617 24.3332 10.4766 25.0637 10.741ZM57.1527 10.8414C58.1476 11.3918 58.8022 12.357 58.9501 13.491L59.0201 14.0288H55.7204C53.0634 14.0288 52.4207 13.9987 52.4207 13.8744C52.4207 13.5441 52.7862 12.4488 53.0347 12.0349C53.392 11.4393 54.0468 10.8925 54.6475 10.6879C55.3471 10.4495 56.5813 10.5252 57.1527 10.8414ZM14.5365 11.7362C13.4279 12.1524 12.7442 13.2045 12.7424 14.4973C12.7411 15.3649 12.9413 15.9024 13.4841 16.4895C14.2966 17.3684 15.5741 17.6552 16.5687 17.182C17.9156 16.5414 18.5722 15.127 18.1807 13.7095C17.9478 12.8658 17.0933 11.9005 16.4017 11.6997C15.8111 11.5282 15.0509 11.5431 14.5365 11.7362ZM68.3425 14.8406C68.6181 14.9881 68.9813 15.2446 69.1497 15.4105C69.4379 15.6946 69.4559 15.7719 69.4559 16.7217C69.4559 17.7068 69.4472 17.7398 69.0941 18.0994C67.7347 19.4831 65.1627 19.2769 64.4494 17.7269C63.9006 16.5341 64.4381 15.1703 65.6736 14.6207C66.1607 14.4042 67.7754 14.5371 68.3425 14.8406ZM22.4734 17.6993C22.7804 18.555 22.8631 18.9111 22.7679 18.9671C22.5733 19.0816 20.2523 19.4656 20.1847 19.3944C20.1529 19.361 20.391 18.8631 20.7139 18.2879C21.0366 17.7127 21.425 16.9954 21.5769 16.6937C21.9011 16.0496 21.8686 16.0132 22.4734 17.6993ZM9.67179 17.162C9.93133 17.6612 10.3141 18.3517 10.5226 18.6961C10.731 19.0407 10.8865 19.3612 10.8682 19.4083C10.8331 19.4979 8.33391 19.109 8.22792 18.9975C8.13628 18.9011 9.0318 16.2542 9.15595 16.2542C9.18022 16.2542 9.41237 16.6628 9.67179 17.162ZM9.13602 20.6401C9.67146 20.7372 10.5135 20.8521 11.0072 20.8955L11.9049 20.9742L12.4269 21.6888C12.7141 22.0819 13.3169 22.8688 13.7664 23.4373C14.7215 24.6454 14.7562 24.4856 13.2842 25.6555C12.2426 26.4834 10.6527 27.3254 9.76232 27.5208C9.21863 27.64 9.06554 27.6302 8.60871 27.4466C8.12883 27.2538 8.05155 27.1665 7.7388 26.4635C7.43483 25.7801 7.39007 25.5418 7.34776 24.3787C7.31481 23.4722 7.3589 22.6946 7.49017 21.8688C7.72054 20.4197 7.75026 20.331 7.98074 20.4052C8.08072 20.4374 8.60058 20.543 9.13602 20.6401ZM23.4471 21.1151C23.7024 22.3774 23.7487 24.5375 23.5413 25.518C23.0674 27.759 22.0399 28.1396 19.7465 26.9237C18.6791 26.3578 16.7374 24.8638 16.6079 24.5089C16.5722 24.4108 16.7744 24.0725 17.095 23.6939C17.3966 23.3381 17.9652 22.582 18.3587 22.0139L19.0739 20.981L20.2987 20.8356C20.9723 20.7556 21.824 20.6189 22.1915 20.5319C23.2379 20.2839 23.2832 20.305 23.4471 21.1151ZM17.2498 21.2615C17.1073 21.5368 15.6833 23.3318 15.5741 23.3739C15.5266 23.3923 15.1017 22.918 14.6301 22.3198L13.7725 21.2322L15.5325 21.1691C16.5005 21.1344 17.3067 21.095 17.3242 21.0812C17.3417 21.0677 17.3081 21.1487 17.2498 21.2615Z" fill="white"/>
</svg>
