<svg width="39" height="36" viewBox="0 0 39 36" fill="none" xmlns="http://www.w3.org/2000/svg">
<path fill-rule="evenodd" clip-rule="evenodd" d="M10.6165 0.102895C9.57071 0.324923 8.5063 1.27716 8.0499 2.39908C7.40927 3.97422 7.30104 6.89898 7.77955 9.70873C7.89524 10.3885 7.99006 11.013 7.99019 11.0964C7.99019 11.1799 7.44617 11.4346 6.78107 11.6625C4.40374 12.477 1.90091 14.0981 0.927998 15.4536C-0.0891403 16.8709 -0.261635 18.1272 0.368634 19.5286C1.26124 21.5133 3.77596 23.3916 7.07285 24.5358L8.02116 24.865L7.9338 25.3931C7.49565 28.0398 7.41535 28.9431 7.48626 30.4285C7.59793 32.7685 7.94085 33.8167 8.93809 34.8657C9.57554 35.5363 9.85958 35.7249 10.4608 35.8767C12.4238 36.3721 15.3256 35.1477 18.2314 32.5982L19.3251 31.6384L20.0503 32.326C22.4702 34.6207 25.5391 36.1597 27.3505 35.9868C29.3066 35.8002 30.4876 34.3516 30.9472 31.575C31.1507 30.3462 31.0395 27.3375 30.7361 25.863C30.6144 25.2712 30.5314 24.7731 30.5518 24.7559C30.5722 24.7386 31.0236 24.5742 31.5552 24.3905C33.7366 23.6363 35.5037 22.6034 36.808 21.3198C39.8532 18.3231 38.6646 15.0159 33.6542 12.5442C32.9565 12.2 31.9464 11.7721 31.4094 11.5934L30.433 11.2685L30.6988 9.87056C31.0235 8.16209 31.0804 5.08902 30.8109 3.81995C30.1748 0.825542 28.3768 -0.496162 25.865 0.184174C23.9653 0.698751 22.0051 1.88567 20.0115 3.7282L19.2476 4.43427L18.6984 3.9258C16.64 2.02002 14.5023 0.722306 12.6531 0.255857C11.44 -0.0500685 11.3641 -0.0557389 10.6165 0.102895ZM13.3117 2.28509C14.4636 2.75125 15.8666 3.67964 17.1469 4.82264L18.0798 5.65536L17.1297 6.84591C16.6072 7.5008 15.8764 8.45943 15.5059 8.97634L14.8321 9.91607L12.7588 10.2514C11.6185 10.4357 10.4617 10.6253 10.188 10.6727C9.59033 10.7763 9.61217 10.8212 9.29814 8.84577C8.97527 6.81407 9.06304 4.41159 9.4987 3.36164C10.1985 1.67513 11.1446 1.40802 13.3117 2.28509ZM28.112 2.06931C28.9346 2.63652 29.5207 5.03144 29.3585 7.16419C29.3099 7.80396 29.1736 8.88851 29.0557 9.57423L28.8413 10.8211L27.5726 10.5621C26.8749 10.4196 25.7132 10.2266 24.991 10.1332L23.678 9.96318L22.8487 8.78339C22.3925 8.13431 21.6607 7.16332 21.2224 6.62562L20.4253 5.6478L21.3606 4.82947C24.3643 2.20134 26.8369 1.1905 28.112 2.06931ZM20.416 8.36012C20.9558 9.05791 21.3974 9.66307 21.3974 9.70509C21.3974 9.74711 20.4333 9.78143 19.255 9.78143C18.0767 9.78143 17.1283 9.73461 17.1472 9.67732C17.2408 9.39509 19.1364 7.09149 19.2749 7.09149C19.3628 7.09149 19.8762 7.66234 20.416 8.36012ZM21.2268 11.5492L22.784 11.6436L23.7038 13.1844C24.2098 14.0318 24.9909 15.46 25.4395 16.358L26.2552 17.9908L25.4748 19.5712C25.0455 20.4403 24.2702 21.8648 23.7519 22.7366L22.8095 24.3216L21.9308 24.4137C20.7252 24.5399 17.7953 24.5575 16.6648 24.4451L15.7331 24.3526L14.9092 23.0143C13.9135 21.3976 12.2756 18.2908 12.2753 18.0184C12.2749 17.7384 13.9497 14.5369 14.9254 12.9525L15.7514 11.6113L16.7429 11.5613C18.7603 11.4597 19.7067 11.4572 21.2268 11.5492ZM13.519 11.951C13.519 11.9846 13.2167 12.5247 12.8474 13.1513C12.478 13.7779 12.0093 14.6361 11.8058 15.0585C11.6024 15.4807 11.3829 15.7919 11.3182 15.7499C11.1608 15.6475 10.1432 12.63 10.2339 12.5346C10.4119 12.3473 13.519 11.7952 13.519 11.951ZM26.7106 12.1724C27.5301 12.3279 28.2346 12.4907 28.276 12.5343C28.3175 12.5779 28.0854 13.3686 27.7603 14.2914L27.1695 15.9692L26.0802 13.9769C25.4811 12.8811 24.991 11.9633 24.991 11.9372C24.991 11.856 25.1765 11.8813 26.7106 12.1724ZM8.95841 14.2666C9.1808 14.9545 9.58964 16.067 9.86704 16.7388L10.3713 17.9601L9.68142 19.7596C9.30201 20.7492 8.88363 21.9091 8.75163 22.3372C8.52468 23.0731 8.4904 23.111 8.12205 23.0335C7.43249 22.8884 5.57858 22.0827 4.80388 21.5914C2.72205 20.2713 1.63235 19.046 1.63235 18.0253C1.63235 16.5278 4.11183 14.4624 7.2347 13.3583C7.91183 13.119 8.4857 12.9439 8.50989 12.9695C8.53408 12.995 8.73601 13.5787 8.95841 14.2666ZM31.1136 13.3336C34.8557 14.688 37.2489 16.8814 36.7433 18.4933C36.4252 19.5074 34.9596 20.8862 33.2149 21.8131C32.5414 22.171 30.0849 23.1318 30.0456 23.0527C30.0348 23.0309 29.9111 22.6531 29.771 22.2133C29.6307 21.7735 29.2046 20.6358 28.8241 19.6852L28.1323 17.9567L28.5798 16.8499C28.9429 15.952 29.5625 14.253 29.8983 13.2347C29.98 12.987 30.2068 13.0054 31.1136 13.3336ZM18.0453 14.5691C16.6691 15.0857 15.8203 16.3918 15.8181 17.9966C15.8166 19.0736 16.0651 19.7409 16.7389 20.4698C17.7475 21.5607 19.3334 21.9168 20.5681 21.3294C22.2401 20.5342 23.0552 18.7783 22.5692 17.0187C22.28 15.9713 21.2192 14.7731 20.3608 14.5237C19.6275 14.3108 18.6839 14.3293 18.0453 14.5691ZM27.898 21.9715C28.2791 23.0338 28.3818 23.4758 28.2636 23.5453C28.022 23.6875 25.1408 24.1641 25.0568 24.0757C25.0174 24.0343 25.3129 23.4162 25.7138 22.7023C26.1144 21.9882 26.5965 21.0978 26.7851 20.7232C27.1876 19.9236 27.1472 19.8784 27.898 21.9715ZM12.0064 21.3045C12.3285 21.9242 12.8037 22.7814 13.0625 23.209C13.3212 23.6368 13.5143 24.0346 13.4915 24.093C13.448 24.2043 10.3456 23.7215 10.214 23.5831C10.1002 23.4635 11.2119 20.1777 11.366 20.1777C11.3961 20.1777 11.6843 20.6848 12.0064 21.3045ZM11.3413 25.6222C12.006 25.7428 13.0513 25.8854 13.6641 25.9392L14.7784 26.0369L15.4265 26.924C15.783 27.412 16.5313 28.3888 17.0893 29.0946C18.2749 30.5943 18.318 30.3959 16.4907 31.8482C15.1977 32.8759 13.2241 33.9212 12.1187 34.1637C11.4438 34.3117 11.2538 34.2995 10.6867 34.0717C10.091 33.8324 9.99503 33.7239 9.60678 32.8512C9.22945 32.0029 9.17389 31.707 9.12136 30.2632C9.08045 29.1379 9.13518 28.1726 9.29814 27.1475C9.58411 25.3486 9.62102 25.2385 9.90713 25.3306C10.0312 25.3705 10.6766 25.5017 11.3413 25.6222ZM29.1067 26.2118C29.4236 27.7788 29.4811 30.4603 29.2236 31.6775C28.6354 34.4595 27.3599 34.9319 24.5129 33.4225C23.1878 32.72 20.7775 30.8654 20.6167 30.4249C20.5724 30.303 20.8234 29.8831 21.2214 29.4132C21.5957 28.9714 22.3016 28.0329 22.7901 27.3277L23.678 26.0454L25.1983 25.8649C26.0346 25.7656 27.0919 25.5959 27.548 25.4879C28.847 25.1801 28.9033 25.2062 29.1067 26.2118ZM21.4136 26.3936C21.2366 26.7353 19.469 28.9636 19.3334 29.0159C19.2744 29.0387 18.7469 28.4499 18.1614 27.7073L17.0969 26.3572L19.2817 26.2789C20.4834 26.2358 21.4842 26.1868 21.5059 26.1698C21.5276 26.153 21.486 26.2536 21.4136 26.3936Z" fill="white"/>
</svg>
