<svg width="36" height="36" viewBox="0 0 36 36" fill="none" xmlns="http://www.w3.org/2000/svg">
<g clip-path="url(#clip0_3693_1372)">
<path d="M7.92686 0H27.6811C28.6424 0 29.5757 0.154688 30.4813 0.478125C31.7908 0.95625 32.9749 1.8 33.8665 2.89688C34.772 3.99375 35.3711 5.34375 35.58 6.75C35.6636 7.27031 35.6776 7.79062 35.6776 8.31094V27.7594C35.6776 28.3781 35.6497 29.0109 35.5243 29.6156C35.2457 31.0078 34.5909 32.3156 33.6436 33.3703C32.7102 34.425 31.4843 35.2125 30.1609 35.6344C29.3529 35.8875 28.517 36 27.6672 36C27.2911 36 7.87114 36 7.57858 35.9859C6.15761 35.9156 4.75057 35.4516 3.56643 34.65C2.41015 33.8625 1.46284 32.7656 0.849874 31.5C0.320493 30.4172 0.0558023 29.2078 0.0558023 27.9984V8.00156C0.0279402 6.80625 0.2787 5.625 0.794149 4.55625C1.39319 3.29063 2.32657 2.17969 3.48285 1.39219C4.66699 0.576562 6.0601 0.0984375 7.48107 0.028125C7.62038 0 7.77362 0 7.92686 0Z" fill="white"/>
<path d="M30.0911 29.4469C29.9657 29.25 29.8264 29.0531 29.6732 28.8703C29.3249 28.4484 28.9209 28.0828 28.4751 27.7734C27.9179 27.3937 27.2631 27.1547 26.5944 27.1266C26.1208 27.0984 25.6471 27.1828 25.2013 27.3516C24.7555 27.5063 24.3237 27.7313 23.9057 27.9563C23.4181 28.2094 22.9306 28.4625 22.4151 28.6734C21.8021 28.9266 21.1613 29.1234 20.5065 29.2641C19.6846 29.4188 18.8487 29.475 18.0268 29.4609C16.5362 29.4328 15.0456 29.2078 13.6246 28.7859C12.3708 28.4062 11.1727 27.8859 10.0443 27.225C9.0552 26.6484 8.13575 25.9875 7.27202 25.2422C6.56154 24.6234 5.90678 23.9625 5.29381 23.2594C4.87588 22.7672 4.47188 22.2469 4.09574 21.7125C3.94249 21.5016 3.80318 21.2766 3.6778 21.0516L0 17.0437V7.97344C0 3.57188 3.52456 0 7.88499 0H14.9202L20.1304 5.34375C31.8882 13.4156 28.0851 22.3172 28.0851 22.3172C28.0851 22.3172 31.4285 26.1141 30.0911 29.4469Z" fill="white"/>
<path d="M20.1582 5.34375C31.916 13.4156 28.1128 22.3172 28.1128 22.3172C28.1128 22.3172 31.4563 26.1281 30.105 29.4609C30.105 29.4609 28.7258 27.1266 26.4132 27.1266C24.1843 27.1266 22.8748 29.4609 18.3889 29.4609C8.40037 29.4609 3.67773 21.0375 3.67773 21.0375C12.6772 27.0141 18.8208 22.7812 18.8208 22.7812C14.7669 20.4047 6.14353 9.04219 6.14353 9.04219C13.6524 15.4969 16.8983 17.1984 16.8983 17.1984C14.9619 15.5813 9.52879 7.67812 9.52879 7.67812C13.8753 12.1219 22.5125 18.3234 22.5125 18.3234C24.9644 11.4609 20.1582 5.34375 20.1582 5.34375Z" fill="#1C1A22"/>
</g>
<defs>
<clipPath id="clip0_3693_1372">
<rect width="35.6636" height="36" fill="white"/>
</clipPath>
</defs>
</svg>
