<svg width="32" height="32" viewBox="0 0 32 32" fill="none" xmlns="http://www.w3.org/2000/svg">
<g clip-path="url(#clip0_2128_970)">
<path d="M16 31.9745C24.8366 31.9745 32 24.8398 32 16.0385C32 7.23733 24.8366 0.102539 16 0.102539C7.16344 0.102539 0 7.23733 0 16.0385C0 24.8398 7.16344 31.9745 16 31.9745Z" fill="white"/>
<path d="M22.9635 5.99097C21.3403 6.04737 19.9235 6.93842 18.8689 8.17097C17.7011 9.52241 16.9243 11.1254 16.3645 12.7615C15.3633 11.9442 14.5908 10.8861 12.9844 10.4247C11.7428 10.0696 10.4386 10.2163 9.2394 11.1062C8.67127 11.5289 8.2799 12.1678 8.09377 12.7684C7.6119 14.3292 8.6004 15.7183 9.0494 16.217L10.031 17.2648C10.2334 17.4702 10.7208 18.0062 10.4825 18.7746C10.225 19.61 9.21377 20.151 8.17652 19.8323C7.71327 19.6916 7.04777 19.3478 7.19677 18.8638C7.2584 18.6658 7.40065 18.5177 7.4769 18.3465C7.5469 18.1994 7.58027 18.0891 7.60152 18.0244C7.79102 17.4081 7.53215 16.6063 6.8694 16.4028C6.25115 16.214 5.61852 16.3636 5.37327 17.1565C5.09515 18.0573 5.5279 19.6921 7.84615 20.404C10.5623 21.2351 12.8599 19.7622 13.1858 17.841C13.391 16.6377 12.8455 15.7438 11.8461 14.594L11.0319 13.6971C10.5386 13.2064 10.3693 12.3699 10.8798 11.7269C11.3105 11.1846 11.924 10.9532 12.9288 11.2253C14.3954 11.622 15.0491 12.6355 16.14 13.453C15.6896 14.9245 15.3953 16.4014 15.1288 17.7258L14.9664 18.7133C14.1866 22.787 13.5914 25.0239 12.0445 26.3081C11.7329 26.5289 11.2874 26.8593 10.6159 26.8823C10.2639 26.8931 10.1501 26.652 10.1453 26.5469C10.1369 26.3008 10.3451 26.188 10.4835 26.0772C10.6903 25.9649 11.0029 25.7786 10.9816 25.1819C10.9591 24.4767 10.3726 23.8653 9.5249 23.8933C8.8899 23.9149 7.92202 24.5101 7.9584 25.5996C7.99627 26.7249 9.0494 27.5683 10.6371 27.5149C11.4859 27.4859 13.3811 27.1418 15.249 24.9303C17.423 22.3952 18.031 19.489 18.4884 17.3619L18.9989 14.5537C19.2825 14.5876 19.5858 14.6101 19.9156 14.6179C22.6233 14.6748 23.9776 13.278 23.9978 12.2619C24.0111 11.647 23.5926 11.0419 23.0068 11.0556C22.5874 11.0675 22.0605 11.3455 21.934 11.9231C21.8105 12.4899 22.7956 13.0013 22.0256 13.4981C21.4786 13.8507 20.498 14.0992 19.117 13.8972L19.3681 12.5149C19.8806 9.89355 20.5128 6.66912 22.9108 6.59069C23.0855 6.58185 23.725 6.59853 23.7399 7.01972C23.7443 7.1604 23.7093 7.19626 23.5439 7.51834C23.3755 7.76945 23.312 7.98322 23.3199 8.22886C23.343 8.89817 23.854 9.33803 24.593 9.31151C25.5825 9.27964 25.8671 8.32012 25.8509 7.82735C25.8109 6.6695 24.5856 5.93806 22.9634 5.99097H22.9635Z" fill="#1C1A22"/>
</g>
<defs>
<clipPath id="clip0_2128_970">
<rect width="32" height="32" fill="white"/>
</clipPath>
</defs>
</svg>
