<?xml version="1.0" standalone="no"?>
<!DOCTYPE svg PUBLIC "-//W3C//DTD SVG 20010904//EN"
 "http://www.w3.org/TR/2001/REC-SVG-20010904/DTD/svg10.dtd">
<svg version="1.0" xmlns="http://www.w3.org/2000/svg"
 width="70.000000pt" height="70.000000pt" viewBox="0 0 70.000000 70.000000"
 preserveAspectRatio="xMidYMid meet">
<metadata>
Created by potrace 1.14, written by Peter Selinger 2001-2017
</metadata>
<g transform="translate(0.000000,70.000000) scale(0.100000,-0.100000)"
fill="#000000" stroke="none">
<path d="M0 350 l0 -350 350 0 350 0 0 350 0 350 -350 0 -350 0 0 -350z m266
88 l87 -173 83 173 83 172 45 0 46 0 0 -260 0 -260 -40 0 -40 0 -1 183 0 182
-75 -148 c-71 -140 -76 -147 -104 -147 -28 0 -33 7 -104 148 l-75 147 0 -182
-1 -183 -40 0 -40 0 0 260 0 260 45 0 45 0 86 -172z"/>
</g>
</svg>
