<?xml version="1.0" standalone="no"?>
<!DOCTYPE svg PUBLIC "-//W3C//DTD SVG 20010904//EN"
 "http://www.w3.org/TR/2001/REC-SVG-20010904/DTD/svg10.dtd">
<svg version="1.0" xmlns="http://www.w3.org/2000/svg"
 width="96.000000pt" height="96.000000pt" viewBox="0 0 96.000000 96.000000"
 preserveAspectRatio="xMidYMid meet">
<metadata>
Created by potrace 1.14, written by Peter Selinger 2001-2017
</metadata>
<g transform="translate(0.000000,96.000000) scale(0.100000,-0.100000)"
fill="#000000" stroke="none">
<path d="M144 813 l-25 -27 3 -311 c3 -292 4 -313 22 -331 18 -18 39 -19 320
-22 166 -2 311 0 323 3 49 12 53 41 53 355 0 314 -4 341 -52 354 -13 3 -157 6
-321 6 l-298 0 -25 -27z m616 -333 l0 -280 -280 0 -280 0 0 280 0 280 280 0
280 0 0 -280z"/>
<path d="M341 548 c-34 -35 -61 -66 -61 -69 0 -9 110 -119 120 -119 5 0 16 7
25 16 15 15 13 19 -25 56 -22 22 -40 44 -40 48 0 5 18 26 40 47 39 38 39 38
21 61 l-19 22 -61 -62z"/>
<path d="M537 582 c-16 -17 -14 -21 23 -57 22 -22 40 -42 40 -46 0 -4 -18 -25
-39 -46 -38 -37 -39 -39 -21 -60 l17 -22 66 64 65 63 -60 61 c-34 34 -64 61
-68 61 -4 0 -14 -8 -23 -18z"/>
</g>
</svg>
