<svg width="93" height="24" viewBox="0 0 93 24" fill="none" xmlns="http://www.w3.org/2000/svg">
<path fill-rule="evenodd" clip-rule="evenodd" d="M8.14869 0.00233961C8.14904 0.0249271 8.13968 0.412353 8.12794 0.86331C8.10296 1.82071 8.01165 2.23861 7.68442 2.89248C7.27872 3.7032 6.59546 4.29137 5.11268 5.10632C3.59438 5.94085 3.06507 6.2878 2.39385 6.88841C1.77477 7.44236 1.0916 8.41203 0.740785 9.23465C0.252978 10.3785 0.0504524 11.2924 0.00521972 12.5538C-0.0894255 15.1922 0.903109 17.6967 2.78133 19.559C3.15529 19.9298 4.10427 20.7001 4.18703 20.7001C4.20519 20.7001 4.11044 20.5275 3.97659 20.3166C3.52879 19.6112 3.25725 18.9406 3.0888 18.1241C2.98535 17.6228 2.97162 16.3318 3.06477 15.8599C3.45017 13.9068 4.62333 12.3242 6.28092 11.5212C6.66542 11.3349 7.50817 11.0727 7.72229 11.0727C7.78315 11.0727 7.84436 11.0605 7.85829 11.0457C7.87222 11.0309 7.76911 10.775 7.62909 10.4771C6.76474 8.63786 7.12904 6.52241 8.55434 5.10373C9.33718 4.32454 10.3089 3.92024 11.423 3.91008L11.9858 3.90495L11.821 3.75234C10.2129 2.26326 9.13998 1.17345 8.44139 0.319729C8.28006 0.12263 8.14839 -0.020195 8.14869 0.00233961ZM10.9347 5.86293C10.4526 5.97809 10.0332 6.22068 9.69526 6.57991C8.33664 8.02419 8.9392 10.4174 10.8068 10.9945C11.2067 11.1181 11.9442 11.0818 12.3392 10.9189C12.9553 10.6651 13.537 10.0467 13.7758 9.39181C13.9289 8.97191 13.9631 8.18791 13.8469 7.76282C13.6076 6.88777 13.0241 6.22591 12.2477 5.94873C11.8366 5.80199 11.3289 5.76877 10.9347 5.86293ZM25.2496 13.0283V20.308L27.8247 20.2808C30.1339 20.2563 30.4666 20.242 31.0467 20.1415C32.7363 19.8489 33.7603 19.3553 34.5826 18.4369C34.971 18.003 35.161 17.7033 35.4274 17.1046C35.6691 16.5614 35.8665 15.8847 35.9734 15.2331C36.2198 13.7311 36.186 11.7056 35.8911 10.3004C35.2872 7.42306 33.6447 6.05928 30.4744 5.80304C30.105 5.77321 28.7782 5.74872 27.5261 5.74861L25.2496 5.74851V13.0283ZM82.6859 13.0352L82.6985 20.3219H84.0918H85.4851L85.4978 13.0352L85.5104 5.74851H84.0918H82.6733L82.6859 13.0352ZM87.6 6.013V6.27749H87.9981H88.3961V7.44125V8.60501H88.6947H88.9933V7.44125V6.27749H89.3914H89.7894V6.013V5.74851H88.6947H87.6V6.013ZM90.1113 5.81341C90.0975 5.85145 90.0922 6.48919 90.0996 7.23056L90.1129 8.57857H90.3866H90.6603L90.6694 7.78509C90.6745 7.34868 90.6813 6.9202 90.6844 6.83292C90.6884 6.72675 90.7797 6.94555 90.9606 7.49415C91.3616 8.71023 91.3077 8.6129 91.5698 8.59438L91.7935 8.57857L92.0864 7.68252C92.2475 7.18967 92.39 6.77505 92.403 6.76119C92.4281 6.73447 92.4286 6.74771 92.4426 7.86444L92.4517 8.57857H92.7253H92.999V7.17676V5.77495H92.5817H92.1643L91.8929 6.67422C91.7437 7.16882 91.6065 7.59053 91.5881 7.61132C91.5696 7.63211 91.4181 7.22743 91.2515 6.71204L90.9485 5.77495L90.5423 5.75956C90.2431 5.74824 90.1296 5.76242 90.1113 5.81341ZM15.6869 8.40907C15.6869 9.43614 15.6211 9.74628 15.2339 10.5467C14.7657 11.5145 14.0896 12.1739 13.0935 12.6342C12.8884 12.7289 12.7075 12.8204 12.6915 12.8374C12.6755 12.8545 12.7407 12.9606 12.8365 13.0732C13.3166 13.6382 13.7919 14.6023 14.0073 15.4485C14.1275 15.9203 14.1391 16.0516 14.1391 16.9443C14.1391 17.8382 14.1275 17.9688 14.0059 18.4519C13.7346 19.5304 13.1579 20.5248 12.3248 21.3507L11.8553 21.8162L12.2036 21.6797C13.086 21.3343 14.1495 20.7054 14.8907 20.0908C15.3924 19.6747 16.2523 18.7373 16.6275 18.1973C17.3659 17.1345 17.8685 15.9561 18.1321 14.6697C18.2604 14.0435 18.2624 12.5901 18.1358 12.0248C17.9346 11.1266 17.569 10.202 17.1294 9.47888C16.8539 9.02581 16.2668 8.20795 15.9247 7.80074L15.6869 7.51753V8.40907ZM31.1873 8.43823C31.9422 8.65458 32.4498 9.0729 32.7539 9.72974C33.0885 10.4524 33.2115 11.1714 33.2478 12.6173C33.3269 15.7729 32.7042 17.2624 31.1462 17.6446C30.57 17.7859 29.3937 17.8448 28.5462 17.7747L28.1357 17.7407V13.008V8.27535L29.4668 8.30101C30.6147 8.32317 30.8515 8.34206 31.1873 8.43823ZM43.3892 8.9789C42.373 9.14431 41.3484 9.86378 40.6523 10.9007C40.5234 11.0928 40.397 11.2499 40.3714 11.2499C40.2901 11.2499 40.2388 11.0339 40.0983 10.0985L39.9611 9.18515L38.7007 9.19922L37.4403 9.21334L37.4282 14.7544L37.4161 20.2955H38.8467H40.2773L40.2778 17.2142L40.2783 14.1329L40.3952 13.8684C40.9264 12.6668 42.1831 11.8645 43.3874 11.9583C44.0555 12.0102 44.8934 12.2993 45.3946 12.6507C45.5407 12.7531 45.6806 12.8369 45.7056 12.8369C45.732 12.8369 45.751 12.1428 45.751 11.1779V9.51899L45.3654 9.33406C44.6997 9.01487 43.9719 8.88411 43.3892 8.9789ZM63.1922 8.95346C62.5805 9.04158 62.2395 9.11643 61.8663 9.24434C60.0118 9.87991 58.6029 11.5082 58.1308 13.5616C58.0258 14.0181 58.0233 14.1234 58.0056 19.0135L57.9875 24L59.4205 23.9859L60.8535 23.9719L60.8784 21.1727C60.8971 19.0672 60.918 18.3682 60.9628 18.3524C60.9955 18.3408 61.0714 18.4341 61.1315 18.5596C61.3255 18.9651 61.6058 19.3623 61.93 19.6911C62.9212 20.6963 64.3202 20.9147 65.7549 20.2882C67.6818 19.4468 69.009 17.5395 69.1875 15.3553C69.3169 13.7715 68.8555 12.2445 67.883 11.0383C67.0901 10.0547 66.0556 9.39013 64.8768 9.10697C64.3788 8.98736 63.5078 8.90796 63.1922 8.95346ZM75.2841 8.97985C74.0216 9.13823 72.8361 9.74936 71.9287 10.7096C71.4493 11.2169 71.1862 11.6024 70.8882 12.2345C70.4912 13.0764 70.3149 13.8806 70.3157 14.847C70.3176 17.3889 71.8331 19.6063 74.1279 20.4252C75.478 20.907 76.8023 20.5825 77.7252 19.5438C77.9152 19.3298 78.1491 19.0051 78.2449 18.8222C78.4465 18.4373 78.5333 18.3253 78.5973 18.3673C78.6224 18.3839 78.643 18.8238 78.643 19.3449V20.2923L80.0488 20.3071C80.8219 20.3153 81.4728 20.3073 81.495 20.2894C81.5173 20.2715 81.5266 18.8552 81.5156 17.142C81.4968 14.196 81.49 14.0022 81.3909 13.5677C80.817 11.0518 78.907 9.2737 76.4583 8.97536C75.9758 8.91659 75.7823 8.91733 75.2841 8.97985ZM46.8656 9.20827C46.8509 9.2491 46.8476 10.7071 46.8583 12.4483C46.8795 15.8827 46.8829 15.9303 47.1771 16.8836C47.3236 17.3582 47.6277 18.0325 47.8569 18.3912C48.2079 18.9403 48.9142 19.623 49.4883 19.9681C50.5891 20.6298 52.1181 20.7905 53.3972 20.3789C53.9522 20.2002 54.2284 20.0633 54.6826 19.7415C55.7957 18.9529 56.5503 17.7052 56.8813 16.1057C56.9638 15.7073 56.9721 15.3675 56.9721 12.4137V9.16045L55.5664 9.14637L54.1606 9.13236V12.115C54.1606 15.3122 54.1365 15.7013 53.9013 16.2953C53.527 17.2408 52.8844 17.7016 51.9383 17.7029C50.8148 17.7045 50.0866 17.0403 49.7931 15.7462C49.7281 15.4598 49.7119 14.8798 49.6954 12.2682L49.6758 9.134H48.2841C47.1352 9.134 46.8877 9.14696 46.8656 9.20827ZM64.365 11.9691C65.6874 12.3823 66.5476 13.6769 66.4344 15.0836C66.3404 16.2518 65.5913 17.2636 64.5212 17.6678C64.1332 17.8143 63.1721 17.8253 62.763 17.688C61.9332 17.4094 61.2065 16.6477 60.9201 15.7563C60.7845 15.3345 60.7613 14.5063 60.8731 14.08C61.1315 13.0944 61.8591 12.3102 62.8176 11.984C63.1805 11.8605 63.9924 11.8527 64.365 11.9691ZM76.783 12.019C78.1819 12.4981 79.0087 14.0442 78.6614 15.5313C78.4491 16.4407 77.885 17.16 77.0829 17.5441C75.5626 18.2723 73.758 17.4501 73.2206 15.7845C73.0708 15.32 73.0356 14.6467 73.1386 14.2122C73.3881 13.1592 74.0474 12.3806 74.9829 12.0345C75.5382 11.8289 76.2113 11.8231 76.783 12.019ZM7.77708 13.591C6.23583 13.9872 5.13104 15.7141 5.35895 17.371C5.47603 18.2222 5.73683 18.7758 6.3064 19.3826C6.72673 19.8304 7.26553 20.1542 7.84858 20.3093C8.32738 20.4367 9.15053 20.3908 9.63271 20.2098C10.6027 19.8457 11.3402 19.054 11.6889 18.0023C11.7859 17.7096 11.803 17.5523 11.8035 16.9443C11.8041 16.3021 11.7908 16.1912 11.6715 15.8422C11.4825 15.2893 11.2594 14.9176 10.8589 14.4882C10.243 13.8279 9.48164 13.5023 8.57206 13.5104C8.29783 13.5128 7.94009 13.5491 7.77708 13.591Z" fill="white"/>
</svg>
