<svg width="89" height="29" viewBox="0 0 89 29" fill="none" xmlns="http://www.w3.org/2000/svg">
<path fill-rule="evenodd" clip-rule="evenodd" d="M8.55117 0.0828873C7.70876 0.261744 6.85132 1.02882 6.48367 1.93259C5.9676 3.20146 5.88042 5.55751 6.26588 7.82092C6.35908 8.3685 6.43546 8.87157 6.43557 8.9388C6.43557 9.00603 5.99733 9.21124 5.46155 9.39478C3.54648 10.0509 1.53031 11.3568 0.746578 12.4487C-0.072784 13.5905 -0.211738 14.6025 0.295979 15.7314C1.01502 17.3302 3.04077 18.8433 5.6966 19.7649L6.46051 20.0301L6.39014 20.4555C6.03719 22.5876 5.9725 23.3153 6.02962 24.5118C6.11958 26.3968 6.39582 27.2412 7.19915 28.0863C7.71266 28.6265 7.94146 28.7784 8.4258 28.9007C10.0071 29.2997 12.3447 28.3134 14.6854 26.2597L15.5665 25.4865L16.1507 26.0404C18.1 27.8889 20.5721 29.1286 22.0314 28.9893C23.6071 28.8391 24.5585 27.6721 24.9287 25.4354C25.0926 24.4456 25.0031 22.0219 24.7587 20.8341C24.6606 20.3574 24.5938 19.9561 24.6102 19.9423C24.6266 19.9283 24.9903 19.7959 25.4185 19.6479C27.1757 19.0404 28.5992 18.2083 29.6499 17.1743C32.103 14.7602 31.1455 12.0961 27.1093 10.1051C26.5473 9.82781 25.7336 9.4831 25.301 9.33915L24.5145 9.07736L24.7286 7.95128C24.9902 6.57501 25.036 4.09949 24.8189 3.07718C24.3065 0.66502 22.8581 -0.399686 20.8347 0.148362C19.3044 0.562883 17.7254 1.51901 16.1194 3.00327L15.504 3.57205L15.0616 3.16245C13.4034 1.62724 11.6814 0.581858 10.1918 0.206107C9.21454 -0.040333 9.15341 -0.0449008 8.55117 0.0828873ZM10.7223 1.84076C11.6502 2.21628 12.7805 2.96415 13.8118 3.88491L14.5633 4.55571L13.7979 5.51476C13.377 6.04231 12.7884 6.81454 12.4899 7.23094L11.9471 7.98795L10.277 8.25805C9.35839 8.40657 8.42647 8.5593 8.20601 8.59749C7.72457 8.68088 7.74216 8.71708 7.48919 7.12576C7.2291 5.48911 7.2998 3.55378 7.65075 2.70799C8.21447 1.34941 8.9766 1.13424 10.7223 1.84076ZM22.6448 1.66694C23.3075 2.12387 23.7796 4.0531 23.649 5.77116C23.6098 6.28652 23.5 7.16019 23.405 7.71257L23.2323 8.71696L22.2103 8.50835C21.6483 8.39356 20.7124 8.23813 20.1307 8.16282L19.0729 8.0259L18.4049 7.07551C18.0375 6.55264 17.4479 5.77045 17.0948 5.33731L16.4527 4.54961L17.2062 3.89041C19.6259 1.7733 21.6176 0.959015 22.6448 1.66694ZM39.2814 12.6818V20.0024H40.1881H41.0948L41.0178 18.929C40.9755 18.3387 40.9757 17.021 41.0182 16.0008L41.0957 14.1459H42.4068H43.7178L44.879 16.0493C45.5175 17.0962 46.3262 18.4139 46.676 18.9775L47.312 20.0024H48.3693C49.1849 20.0024 49.4078 19.9689 49.3441 19.856C49.2987 19.7755 48.4657 18.4524 47.4932 16.9158C46.5206 15.3793 45.7405 14.1085 45.7598 14.092C45.7791 14.0755 46.1524 13.9494 46.5893 13.8118C48.4927 13.2126 49.564 11.2024 49.1977 8.91783C48.9311 7.25554 47.9797 6.06796 46.5347 5.59347C45.8965 5.38404 45.5059 5.3612 42.5543 5.3612H39.2814V12.6818ZM16.4453 6.73454C16.8801 7.29665 17.2358 7.78414 17.2358 7.81799C17.2358 7.85184 16.4592 7.87948 15.51 7.87948C14.5608 7.87948 13.7968 7.84177 13.8121 7.79562C13.8874 7.56827 15.4145 5.71259 15.526 5.71259C15.5969 5.71259 16.0104 6.17244 16.4453 6.73454ZM84.8201 7.87948V9.3436H83.985H83.1499V10.1049V10.8663H83.985H84.8201L84.8227 14.468C84.8243 16.5159 84.8751 18.2961 84.9404 18.5945C85.1905 19.7364 85.9277 20.2779 87.2199 20.2691C87.9773 20.2639 88.8018 19.9803 88.9898 19.6604C89.0548 19.5498 88.7604 18.6298 88.5983 18.4368C88.5514 18.3811 88.3975 18.4207 88.2563 18.5247C87.8464 18.8267 87.1367 18.7711 86.8157 18.4119L86.5459 18.1098L86.5135 14.488L86.4811 10.8663H87.5434H88.6057V10.1049V9.3436H87.5479H86.4902V7.87948V6.41537H85.6551H84.8201V7.87948ZM45.9511 7.2881C46.9861 7.83978 47.456 8.70899 47.3894 9.94881C47.3547 10.5955 47.2861 10.8301 47.0122 11.2402C46.6273 11.8162 46.1077 12.2182 45.5297 12.3871C45.3081 12.4519 44.1999 12.505 43.067 12.5053L41.0072 12.5057L40.9845 9.75332L40.9618 7.00101H43.1872C45.3284 7.00101 45.433 7.01191 45.9511 7.2881ZM54.3125 9.27063C52.7221 9.75613 51.4284 11.1684 50.9269 12.9666C50.6997 13.7816 50.6964 15.5214 50.9203 16.4258C51.565 19.0302 53.8783 20.5631 56.6672 20.2341C57.7091 20.1111 58.5676 19.7733 59.3656 19.172L59.9943 18.6986L59.6331 18.1695C59.4344 17.8786 59.2416 17.6208 59.2045 17.5966C59.1674 17.5725 58.882 17.7544 58.5702 18.0009C57.438 18.8958 55.5645 19.0932 54.3545 18.4449C53.5503 18.0142 52.9144 17.2115 52.6418 16.2833C52.5197 15.8672 52.4197 15.4802 52.4197 15.4234C52.4197 15.3662 54.2437 15.3064 56.5115 15.2893L60.6033 15.2586L60.5802 14.3982C60.5213 12.1994 59.5547 10.4691 57.9062 9.61206C57.1172 9.20187 56.9855 9.1706 55.9371 9.14507C55.2636 9.12867 54.6128 9.17903 54.3125 9.27063ZM65.6357 9.23174C64.7011 9.47631 63.1085 10.5172 63.1085 10.8836C63.1085 10.9475 63.2616 11.2339 63.4487 11.5201L63.7891 12.0404L64.325 11.5651C65.074 10.9006 65.8083 10.632 66.8753 10.632C67.6046 10.632 67.8415 10.684 68.3436 10.9541C69.1875 11.4081 69.3822 11.8499 69.4385 13.4384L69.4819 14.6636L69.0756 14.2883C67.54 12.8699 64.8971 12.8467 63.5126 14.2395C62.8485 14.9077 62.554 15.6707 62.554 16.7227C62.554 18.5758 63.6784 19.9244 65.4812 20.233C66.6606 20.4349 68.2444 20.0035 69.0931 19.2491L69.4549 18.9274V19.4649V20.0024H70.2394H71.024L70.991 15.6979C70.9592 11.5453 70.9496 11.3768 70.7178 10.9248C70.3844 10.2751 69.9575 9.8804 69.1766 9.49985C68.591 9.21464 68.3573 9.17107 67.2838 9.14764C66.6102 9.133 65.8685 9.17072 65.6357 9.23174ZM76.9012 9.37979C74.9759 10.0702 73.7514 11.9065 73.6036 14.325C73.4956 16.0946 74.1484 17.9455 75.2447 18.9777C77.0923 20.7173 80.3538 20.7053 81.9775 18.9528L82.4194 18.4757L81.901 17.9302L81.3826 17.3849L80.9175 17.8268C80.2455 18.4655 79.6642 18.7083 78.7996 18.7114C77.8518 18.7146 77.1624 18.4598 76.526 17.8704C74.8717 16.3384 74.8581 13.0567 76.4998 11.5039C77.739 10.3319 79.6987 10.3433 80.8942 11.5293C81.1109 11.7445 81.3188 11.9183 81.3562 11.9156C81.3935 11.9129 81.6473 11.6987 81.9199 11.4394C82.4988 10.8889 82.4868 10.8359 81.6104 10.081C80.4879 9.11426 78.4769 8.81476 76.9012 9.37979ZM17.0984 9.30354L18.3528 9.37956L19.0938 10.6208C19.5014 11.3034 20.1306 12.4539 20.492 13.1772L21.149 14.4926L20.5204 15.7657C20.1745 16.4658 19.55 17.6133 19.1325 18.3156L18.3734 19.5924L17.6655 19.6666C16.6943 19.7682 14.3341 19.7824 13.4235 19.6919L12.6729 19.6174L12.0092 18.5393C11.2071 17.2369 9.88771 14.7342 9.88749 14.5149C9.88715 14.2893 11.2363 11.7103 12.0222 10.434L12.6876 9.35356L13.4864 9.31326C15.1115 9.23139 15.8739 9.2294 17.0984 9.30354ZM10.8893 9.62717C10.8893 9.65423 10.6458 10.0894 10.3483 10.5941C10.0507 11.0989 9.67316 11.7902 9.50926 12.1305C9.34537 12.4706 9.16856 12.7213 9.11645 12.6874C8.98963 12.6049 8.16994 10.1742 8.24298 10.0973C8.38638 9.94646 10.8893 9.50172 10.8893 9.62717ZM21.5159 9.80556C22.176 9.93077 22.7435 10.062 22.7769 10.0971C22.8103 10.1322 22.6234 10.7692 22.3615 11.5125L21.8855 12.864L21.008 11.2591C20.5255 10.3764 20.1307 9.63713 20.1307 9.61604C20.1307 9.55068 20.2801 9.57106 21.5159 9.80556ZM7.21552 11.4926C7.39466 12.0467 7.72401 12.9429 7.94747 13.484L8.35365 14.4679L7.79794 15.9175C7.49231 16.7147 7.15528 17.649 7.04895 17.9938C6.86613 18.5866 6.83851 18.6172 6.54179 18.5548C5.98631 18.4379 4.49288 17.7889 3.86881 17.3931C2.19179 16.3297 1.31397 15.3426 1.31397 14.5204C1.31397 13.3141 3.31133 11.6502 5.82698 10.7609C6.37244 10.5681 6.83473 10.427 6.85421 10.4477C6.8737 10.4682 7.03637 10.9384 7.21552 11.4926ZM25.0628 10.741C28.0772 11.832 30.0051 13.5989 29.5978 14.8974C29.3415 15.7143 28.161 16.825 26.7555 17.5717C26.2129 17.86 24.2341 18.6339 24.2024 18.5702C24.1938 18.5527 24.0941 18.2484 23.9812 17.894C23.8682 17.5397 23.5249 16.6233 23.2184 15.8575L22.6611 14.4651L23.0217 13.5735C23.3142 12.8502 23.8133 11.4816 24.0837 10.6613C24.1495 10.4617 24.3323 10.4766 25.0628 10.741ZM57.1517 10.8414C58.1467 11.3918 58.8012 12.357 58.9491 13.491L59.0191 14.0288H55.7194C53.0625 14.0288 52.4197 13.9987 52.4197 13.8744C52.4197 13.5441 52.7852 12.4488 53.0337 12.0349C53.391 11.4393 54.0458 10.8925 54.6465 10.6879C55.3461 10.4495 56.5803 10.5252 57.1517 10.8414ZM14.5355 11.7362C13.4269 12.1524 12.7432 13.2045 12.7414 14.4973C12.7402 15.3649 12.9404 15.9024 13.4831 16.4895C14.2956 17.3684 15.5731 17.6552 16.5678 17.182C17.9146 16.5414 18.5712 15.127 18.1798 13.7095C17.9468 12.8658 17.0923 11.9005 16.4007 11.6997C15.8101 11.5282 15.0499 11.5431 14.5355 11.7362ZM68.3415 14.8406C68.6171 14.9881 68.9803 15.2446 69.1488 15.4105C69.4369 15.6946 69.4549 15.7719 69.4549 16.7217C69.4549 17.7068 69.4463 17.7398 69.0931 18.0994C67.7337 19.4831 65.1617 19.2769 64.4485 17.7269C63.8997 16.5341 64.4371 15.1703 65.6727 14.6207C66.1597 14.4042 67.7745 14.5371 68.3415 14.8406ZM22.4724 17.6993C22.7794 18.555 22.8621 18.9111 22.7669 18.9671C22.5723 19.0816 20.2514 19.4656 20.1837 19.3944C20.1519 19.361 20.39 18.8631 20.7129 18.2879C21.0357 17.7127 21.424 16.9954 21.5759 16.6937C21.9001 16.0496 21.8676 16.0132 22.4724 17.6993ZM9.67082 17.162C9.93036 17.6612 10.3131 18.3517 10.5216 18.6961C10.73 19.0407 10.8856 19.3612 10.8672 19.4083C10.8321 19.4979 8.33294 19.109 8.22694 18.9975C8.13531 18.9011 9.03083 16.2542 9.15497 16.2542C9.17924 16.2542 9.41139 16.6628 9.67082 17.162ZM9.13504 20.6401C9.67048 20.7372 10.5126 20.8521 11.0062 20.8955L11.9039 20.9742L12.426 21.6888C12.7131 22.0819 13.3159 22.8688 13.7654 23.4373C14.7205 24.6454 14.7552 24.4856 13.2832 25.6555C12.2416 26.4834 10.6517 27.3254 9.76134 27.5208C9.21766 27.64 9.06456 27.6302 8.60773 27.4466C8.12785 27.2538 8.05058 27.1665 7.73782 26.4635C7.43386 25.7801 7.3891 25.5418 7.34679 24.3787C7.31383 23.4722 7.35792 22.6946 7.48919 21.8688C7.71956 20.4197 7.74929 20.331 7.97976 20.4052C8.07975 20.4374 8.5996 20.543 9.13504 20.6401ZM23.4461 21.1151C23.7014 22.3774 23.7477 24.5375 23.5403 25.518C23.0664 27.759 22.039 28.1396 19.7455 26.9237C18.6781 26.3578 16.7364 24.8638 16.6069 24.5089C16.5712 24.4108 16.7734 24.0725 17.0941 23.6939C17.3956 23.3381 17.9642 22.582 18.3577 22.0139L19.0729 20.981L20.2977 20.8356C20.9713 20.7556 21.8231 20.6189 22.1905 20.5319C23.2369 20.2839 23.2822 20.305 23.4461 21.1151ZM17.2488 21.2615C17.1063 21.5368 15.6824 23.3318 15.5731 23.3739C15.5256 23.3923 15.1007 22.918 14.6291 22.3198L13.7715 21.2322L15.5315 21.1691C16.4995 21.1344 17.3057 21.095 17.3232 21.0812C17.3407 21.0677 17.3072 21.1487 17.2488 21.2615Z" fill="white"/>
</svg>
