<svg width="32" height="32" viewBox="0 0 32 32" fill="none" xmlns="http://www.w3.org/2000/svg">
<g clip-path="url(#clip0_1979_887)">
<path d="M2.2655 16.0001C2.2655 21.4332 5.4106 26.1285 9.97125 28.3535L3.44924 10.4139C2.6906 12.121 2.2655 14.0101 2.2655 16.0001ZM25.1681 15.3074C25.1681 13.611 24.5612 12.4362 24.0406 11.5218C23.3475 10.3912 22.6979 9.43366 22.6979 8.303C22.6979 7.04123 23.6511 5.86669 24.9938 5.86669C25.0544 5.86669 25.1119 5.87426 25.171 5.87766C22.7385 3.64037 19.4976 2.27438 15.9381 2.27438C11.1615 2.27438 6.95909 4.73472 4.51434 8.46128C4.83512 8.47094 5.13743 8.47774 5.39421 8.47774C6.82433 8.47774 9.03805 8.30353 9.03805 8.30353C9.77509 8.25991 9.86199 9.34669 9.12572 9.43419C9.12572 9.43419 8.38504 9.52168 7.56085 9.56504L12.5398 24.4329L15.532 15.4239L13.4018 9.56452C12.6655 9.52116 11.968 9.43367 11.968 9.43367C11.2312 9.39031 11.3176 8.25939 12.0544 8.303C12.0544 8.303 14.3123 8.47721 15.6558 8.47721C17.0857 8.47721 19.2996 8.303 19.2996 8.303C20.0372 8.25939 20.1238 9.34617 19.3873 9.43367C19.3873 9.43367 18.6451 9.52116 17.8224 9.56452L22.7634 24.3198L24.1272 19.7446C24.7183 17.8461 25.1681 16.4825 25.1681 15.3074ZM16.178 17.2007L12.0757 29.1679C13.3006 29.5293 14.5959 29.7271 15.9381 29.7271C17.5303 29.7271 19.0572 29.4507 20.4784 28.949C20.4418 28.8902 20.4085 28.8278 20.3811 28.7599L16.178 17.2007ZM27.9352 9.4146C27.994 9.85182 28.0273 10.3212 28.0273 10.826C28.0273 12.2189 27.7682 13.7847 26.9877 15.7425L22.8113 27.8648C26.8761 25.4852 29.6101 21.0641 29.6101 16.0003C29.6104 13.6139 29.0032 11.3698 27.9352 9.4146ZM15.9381 0C7.15005 0 0 7.17757 0 16.0001C0 24.8236 7.15005 32.0009 15.9381 32.0009C24.7259 32.0009 31.8769 24.8236 31.8769 16.0001C31.8767 7.17757 24.7259 0 15.9381 0ZM15.9381 31.2675C7.55304 31.2675 0.730797 24.4185 0.730797 16.0001C0.730797 7.58214 7.55278 0.733663 15.9381 0.733663C24.3229 0.733663 31.1446 7.58214 31.1446 16.0001C31.1446 24.4185 24.3229 31.2675 15.9381 31.2675Z" fill="white"/>
</g>
<defs>
<clipPath id="clip0_1979_887">
<rect width="32" height="32" fill="white"/>
</clipPath>
</defs>
</svg>
