<svg width="49" height="28" viewBox="0 0 49 28" fill="none" xmlns="http://www.w3.org/2000/svg">
<path fill-rule="evenodd" clip-rule="evenodd" d="M42.1752 4.34634C41.3887 5.11471 41.9039 6.37243 43.0053 6.37243C44.12 6.37243 44.7115 5.38421 44.0878 4.56417C43.6069 3.93229 42.7043 3.82951 42.1752 4.34634ZM46.8527 4.35715C46.083 5.10903 46.6004 6.37243 47.6782 6.37243C48.4092 6.37243 48.9625 5.85945 48.9625 5.18158C48.9625 4.12393 47.6259 3.60179 46.8527 4.35715ZM30.8135 9.59248C30.6429 12.4829 30.7936 16.5157 31.1042 17.3649C31.7733 19.1947 33.1519 20.0082 35.5977 20.0163C36.9536 20.0206 37.1983 20.0683 37.2516 20.3378C37.2859 20.5116 37.101 20.8621 36.8407 21.1164C36.3294 21.6158 35.4587 21.7005 33.7204 21.4198C32.5398 21.2293 31.764 21.4724 31.1845 22.2147C30.4238 23.1887 30.5965 23.4638 32.1327 23.726C34.4148 24.1153 36.5074 24.089 37.4819 23.6586C38.4914 23.2129 39.2631 22.3752 39.5304 21.4356C39.6474 21.0241 39.7245 18.0863 39.725 14.0179L39.7261 7.28151L39.2104 7.40151C38.4764 7.57226 37.766 8.00151 37.4819 8.44616C37.3058 8.7217 37.2109 10.0959 37.142 13.3713L37.0466 17.9145H35.8024C33.5225 17.9145 33.3524 17.5309 33.3509 12.3866C33.3498 8.79333 33.3483 8.78051 32.8727 8.22832C32.6103 7.92365 32.2094 7.62227 31.9819 7.55852C31.7544 7.49476 31.4292 7.40499 31.2593 7.35919C30.9891 7.28627 30.9332 7.56658 30.8135 9.59248ZM41.8744 7.51894C41.8245 7.64554 41.8061 10.4693 41.8333 13.7938L41.8829 19.8382L42.9907 19.8941C43.75 19.9322 44.1474 19.8746 44.2537 19.7108C44.4351 19.4316 44.4711 9.39114 44.2954 8.13855L44.1761 7.28847H43.0705C42.3555 7.28847 41.9329 7.36981 41.8744 7.51894ZM46.5629 7.51894C46.513 7.64554 46.4946 10.4693 46.5218 13.7938L46.5713 19.8382L47.6197 19.8922C48.3093 19.9278 48.7365 19.8651 48.868 19.709C49.0054 19.546 49.0352 17.5666 48.9634 13.3801L48.859 7.28847H47.7562C47.0434 7.28847 46.6214 7.36999 46.5629 7.51894Z" fill="white"/>
<path fill-rule="evenodd" clip-rule="evenodd" d="M13.5328 16.0905C13.3117 16.5019 12.5377 17.6132 11.8698 18.4784C10.3131 20.4951 9.41594 22.5127 9.05613 24.8056C8.91968 25.6754 8.90389 27.7646 9.03229 27.9666C9.08186 28.0445 9.59169 27.9849 10.4252 27.8037C13.528 27.1291 15.8975 25.3708 17.2275 22.7559C17.7565 21.7158 18.1081 20.5737 18.1965 19.608L18.2258 19.2874L17.9216 18.8982C17.279 18.0759 16.1652 17.1382 15.0782 16.5042C14.5124 16.1742 13.8252 15.8299 13.7327 15.8301C13.6997 15.8302 13.6098 15.9474 13.5328 16.0905Z" fill="white"/>
<path fill-rule="evenodd" clip-rule="evenodd" d="M21.4015 0.0604219C19.3013 0.430024 17.0987 2.43204 16.4417 4.56865C16.2678 5.13407 16.2191 5.46099 16.2191 6.06171C16.2191 6.76877 16.3037 7.14341 16.7025 8.20216C18.0947 11.898 18.6315 14.1538 18.8404 17.1849L18.872 17.6428L19.2212 17.2765C20.2589 16.1879 20.831 15.5671 21.2932 15.0282C23.81 12.0929 25.0512 9.62022 25.3143 7.01711C25.4104 6.06565 25.2196 4.5958 24.8665 3.56796C24.3473 2.05676 23.3463 0.757955 22.2027 0.111483C21.9608 -0.0253033 21.9078 -0.028693 21.4015 0.0604219ZM3.26494 1.71184C2.08045 1.85051 0.956849 2.11176 0.21392 2.42123L0 2.51039L0.0268569 3.39069C0.0564477 4.36079 0.15898 5.05333 0.391089 5.85088C1.0729 8.19388 2.56583 9.99092 4.72667 11.0696C5.43407 11.4228 5.854 11.5657 8.09951 12.2171C11.3113 13.1488 12.5958 13.5852 13.912 14.1921C15.5966 14.9687 17.0091 16.0067 18.0383 17.2242C18.2188 17.4377 18.3742 17.605 18.3836 17.5958C18.4122 17.568 18.2964 16.6757 18.1728 15.9713C17.5804 12.596 15.9474 8.94448 13.9113 6.4424C13.4163 5.83412 12.3337 4.78099 11.7131 4.30401C9.97321 2.96696 8.08674 2.15206 5.90361 1.7945C5.47337 1.72407 3.64891 1.66687 3.26494 1.71184Z" fill="white"/>
</svg>
