<svg width="155" height="25" viewBox="0 0 155 25" fill="none" xmlns="http://www.w3.org/2000/svg">
<mask id="mask0_2074_889" style="mask-type:alpha" maskUnits="userSpaceOnUse" x="0" y="0" width="155" height="25">
<rect width="155" height="25" fill="#D9D9D9"/>
</mask>
<g mask="url(#mask0_2074_889)">
<path d="M1 24.6022V1.39779H5.14925L13.0162 16.8453L20.85 1.39779H24.9992V24.6022H21.4807V7.46409L14.3772 21.2873H11.6553L4.51856 7.49724V24.6022H1Z" fill="white"/>
<path d="M28.3928 24.6022V1.39779H31.9114V24.6022H28.3928Z" fill="white"/>
<path d="M35.2987 24.6022V1.39779H38.8173V11.3425L47.9788 1.39779H52.3272L43.73 10.6464L52.5264 24.6022H48.2443L41.2072 13.3315L38.8173 15.9171V24.6022H35.2987Z" fill="white"/>
<path d="M61.9311 25C60.2272 25 58.7335 24.7017 57.45 24.105C56.1665 23.5083 55.1596 22.6575 54.4293 21.5525C53.7212 20.4475 53.356 19.1326 53.3339 17.6077H57.0516C57.0738 18.8453 57.5053 19.895 58.3462 20.7569C59.1871 21.6188 60.371 22.0497 61.8979 22.0497C63.2478 22.0497 64.299 21.7293 65.0514 21.0884C65.8259 20.4254 66.2132 19.5856 66.2132 18.5691C66.2132 17.7514 66.0251 17.0884 65.6489 16.5801C65.2948 16.0718 64.7969 15.6519 64.1551 15.3204C63.5355 14.989 62.8163 14.6906 61.9975 14.4254C61.1788 14.1602 60.3157 13.8729 59.4084 13.5635C57.6159 12.9669 56.266 12.1934 55.3587 11.2431C54.4736 10.2928 54.031 9.0442 54.031 7.49724C54.0089 6.19337 54.3076 5.05525 54.9272 4.08287C55.569 3.1105 56.4541 2.35912 57.5827 1.82873C58.7335 1.27624 60.0723 1 61.5992 1C63.104 1 64.4207 1.27624 65.5493 1.82873C66.7 2.38121 67.5963 3.15469 68.238 4.14917C68.8797 5.12155 69.2117 6.25967 69.2338 7.56354H65.5161C65.5161 6.96685 65.3612 6.40332 65.0514 5.87293C64.7416 5.32044 64.2879 4.8674 63.6904 4.51381C63.0929 4.16022 62.3627 3.98342 61.4996 3.98342C60.3932 3.96133 59.4748 4.23757 58.7445 4.81216C58.0364 5.38674 57.6823 6.18232 57.6823 7.19889C57.6823 8.10497 57.9479 8.80111 58.479 9.28729C59.0101 9.77348 59.7403 10.1823 60.6698 10.5138C61.5992 10.8232 62.6614 11.1878 63.8564 11.6077C65.0071 11.9834 66.0361 12.4365 66.9434 12.9669C67.8507 13.4972 68.5699 14.1934 69.101 15.0552C69.6543 15.9171 69.9309 17.011 69.9309 18.337C69.9309 19.5083 69.6321 20.6022 69.0347 21.6188C68.4372 22.6133 67.5409 23.4309 66.3459 24.0718C65.151 24.6906 63.6794 25 61.9311 25Z" fill="white"/>
<path d="M87.1534 25C85.4494 25 83.9557 24.7017 82.6722 24.105C81.3887 23.5083 80.3818 22.6575 79.6515 21.5525C78.9434 20.4475 78.5783 19.1326 78.5561 17.6077H82.2739C82.296 18.8453 82.7275 19.895 83.5684 20.7569C84.4093 21.6188 85.5933 22.0497 87.1202 22.0497C88.4701 22.0497 89.5212 21.7293 90.2736 21.0884C91.0481 20.4254 91.4354 19.5856 91.4354 18.5691C91.4354 17.7514 91.2473 17.0884 90.8711 16.5801C90.517 16.0718 90.0191 15.6519 89.3774 15.3204C88.7577 14.989 88.0385 14.6906 87.2198 14.4254C86.401 14.1602 85.5379 13.8729 84.6306 13.5635C82.8382 12.9669 81.4883 12.1934 80.581 11.2431C79.6958 10.2928 79.2532 9.0442 79.2532 7.49724C79.2311 6.19337 79.5298 5.05525 80.1494 4.08287C80.7912 3.1105 81.6764 2.35912 82.805 1.82873C83.9557 1.27624 85.2945 1 86.8214 1C88.3262 1 89.6429 1.27624 90.7715 1.82873C91.9222 2.38121 92.8185 3.15469 93.4602 4.14917C94.102 5.12155 94.4339 6.25967 94.456 7.56354H90.7383C90.7383 6.96685 90.5834 6.40332 90.2736 5.87293C89.9638 5.32044 89.5101 4.8674 88.9127 4.51381C88.3152 4.16022 87.5849 3.98342 86.7218 3.98342C85.6154 3.96133 84.697 4.23757 83.9668 4.81216C83.2586 5.38674 82.9045 6.18232 82.9045 7.19889C82.9045 8.10497 83.1701 8.80111 83.7012 9.28729C84.2323 9.77348 84.9626 10.1823 85.892 10.5138C86.8214 10.8232 87.8836 11.1878 89.0786 11.6077C90.2294 11.9834 91.2583 12.4365 92.1656 12.9669C93.073 13.4972 93.7922 14.1934 94.3233 15.0552C94.8765 15.9171 95.1531 17.011 95.1531 18.337C95.1531 19.5083 94.8544 20.6022 94.2569 21.6188C93.6594 22.6133 92.7631 23.4309 91.5682 24.0718C90.3732 24.6906 88.9016 25 87.1534 25Z" fill="white"/>
<path d="M108.394 25C106.092 25 104.079 24.4917 102.353 23.4751C100.626 22.4586 99.2766 21.0553 98.3029 19.2652C97.3292 17.453 96.8424 15.3646 96.8424 13C96.8424 10.6354 97.3292 8.55801 98.3029 6.76796C99.2766 4.9558 100.626 3.54144 102.353 2.52486C104.079 1.50829 106.092 1 108.394 1C110.695 1 112.709 1.50829 114.435 2.52486C116.161 3.54144 117.5 4.9558 118.452 6.76796C119.425 8.55801 119.912 10.6354 119.912 13C119.912 15.3646 119.425 17.453 118.452 19.2652C117.5 21.0553 116.161 22.4586 114.435 23.4751C112.709 24.4917 110.695 25 108.394 25ZM108.394 21.8508C109.987 21.8508 111.37 21.4972 112.543 20.7901C113.738 20.0829 114.668 19.0663 115.331 17.7403C115.995 16.4144 116.327 14.8343 116.327 13C116.327 11.1657 115.995 9.58564 115.331 8.25967C114.668 6.9337 113.738 5.91713 112.543 5.20994C111.37 4.50276 109.987 4.14917 108.394 4.14917C106.801 4.14917 105.406 4.50276 104.211 5.20994C103.016 5.91713 102.087 6.9337 101.423 8.25967C100.781 9.58564 100.461 11.1657 100.461 13C100.461 14.8343 100.781 16.4144 101.423 17.7403C102.087 19.0663 103.016 20.0829 104.211 20.7901C105.406 21.4972 106.801 21.8508 108.394 21.8508Z" fill="white"/>
<path d="M122.504 24.6022V1.39779H137.076V4.24862H126.023V11.5746H135.184V14.3923H126.023V24.6022H122.504Z" fill="white"/>
<path d="M144.643 24.6022V4.24862H137.772V1.39779H155V4.24862H148.162V24.6022H144.643Z" fill="white"/>
</g>
</svg>
