<svg width="91" height="10" viewBox="0 0 91 10" fill="none" xmlns="http://www.w3.org/2000/svg">
<path d="M60.2388 4.23225H56.0633V0.616211H54.9316V8.90971H56.0633V5.3168H60.2388V8.90971H61.3704V0.616211H60.2388V4.23225Z" fill="#CDCAD5"/>
<path d="M65.7565 2.06152C63.6919 2.06152 62.3975 3.44934 62.3975 5.56105V5.70069C62.3975 7.76614 63.5171 9.08371 65.7214 9.08371C67.3662 9.08371 68.4979 8.30242 68.8825 6.92574H67.6583C67.4013 7.70703 66.7365 8.12509 65.7685 8.12509C64.3918 8.12509 63.5985 7.31981 63.5171 5.95512H68.9759V5.42141C68.9759 3.62496 67.9496 2.06152 65.7565 2.06152ZM63.5291 5.0599C63.6688 3.7646 64.4852 2.98331 65.7685 2.98331C67.0518 2.98331 67.7508 3.79972 67.8485 5.0599H63.5291Z" fill="#CDCAD5"/>
<path d="M73.1522 2.06152C71.2675 2.06152 70.1315 3.08954 70.0262 4.53475H71.1578C71.2281 3.60097 71.904 2.94818 73.1993 2.94818C74.3987 2.94818 74.9255 3.44934 74.9255 4.14753C74.9255 4.7652 74.2719 4.88171 73.1059 5.04533C71.7644 5.24322 71.2161 5.37173 70.6798 5.72211C70.4103 5.88897 70.189 6.12341 70.038 6.40216C69.8869 6.68091 69.8114 6.9943 69.8189 7.31124C69.8189 8.3838 70.5659 9.08371 72 9.08371C73.482 9.08371 74.5083 8.27929 74.9743 7.25213L75.1028 8.90895H76.0126L76.0246 4.32487C76.0221 2.99445 75.1354 2.06152 73.1522 2.06152ZM74.9375 5.7598C74.9375 6.87948 73.8752 8.18591 72.3478 8.18591C71.4731 8.18591 71.0293 7.78927 71.0293 7.17075C71.0293 6.7861 71.181 6.50597 71.5194 6.28409C71.8809 6.03908 72.3358 5.93456 73.3509 5.77008C74.074 5.65357 74.636 5.52507 74.9375 5.26892V5.7598Z" fill="#CDCAD5"/>
<path d="M77.4463 4.54785V8.9092H78.578V4.51016V0.242188H77.4463V4.54785Z" fill="#CDCAD5"/>
<path d="M81.8428 0.626953H80.9792C80.9681 0.871963 80.933 1.49048 80.8747 1.68923C80.7891 2.10815 80.7034 2.20324 80.3265 2.24864C80.1551 2.29576 79.7079 2.29576 79.498 2.29576V3.25181H80.7831V6.33157C80.7831 8.31478 81.2731 8.90931 83.0575 8.90931H83.8157V7.84789H83.3137C82.1238 7.84789 81.8445 7.60288 81.8445 6.16794V3.25524H83.8148V2.24864H81.8445L81.8428 0.626953Z" fill="#CDCAD5"/>
<path d="M88.4448 2.06177C87.2669 2.06177 86.4385 2.6683 86.0299 3.59008V0.242188H84.9453V8.9092H86.0299V5.40967C86.0299 4.03299 86.7649 3.05295 88.0362 3.05295C89.3426 3.05295 89.8678 3.90534 89.8678 5.1184V8.9092H90.9995V4.83826C90.9995 3.14633 90.1479 2.06177 88.4448 2.06177Z" fill="#CDCAD5"/>
<path d="M6.08241 4.54674C6.85342 4.24604 7.27405 3.69006 7.27405 2.71944V2.70745C7.27405 1.2511 6.21006 0.533203 3.74625 0.533203H0V8.8267H4.01353C6.33941 8.8267 7.49593 8.02827 7.49593 6.41001C7.49593 5.382 6.9982 4.8243 6.08241 4.54674ZM2.30189 2.32623H3.75824C4.61492 2.32623 4.94988 2.52241 4.94988 3.03127V3.04327C4.94988 3.56413 4.56781 3.7723 3.78138 3.7723H2.30189V2.32623ZM5.06639 6.15301C5.06639 6.67387 4.75456 6.92402 3.64345 6.92402H2.30189V5.382H3.66658C4.71944 5.382 5.06639 5.59017 5.06639 6.13416V6.15301Z" fill="#CDCAD5"/>
<path d="M10.6546 0.533203L7.4541 8.8267H9.86051L10.3574 7.38063H13.4688L13.9897 8.8267H16.3952L13.1536 0.533203H10.6546ZM10.9785 5.5876L11.8925 2.93875L12.8298 5.5876H10.9785Z" fill="#CDCAD5"/>
<path d="M21.2446 4.90569C21.2446 6.31663 20.8745 6.79038 19.9724 6.79038C19.0935 6.79038 18.6651 6.28151 18.6651 4.90569V0.533203H16.2373V4.97508C16.2373 7.78584 17.4367 9.02374 19.9733 9.02374C22.3334 9.02374 23.6861 7.79697 23.6861 4.97508V0.533203H21.2446V4.90569Z" fill="#CDCAD5"/>
<path d="M28.8694 3.70366C27.5621 3.51862 26.9256 3.40211 26.9256 2.85897C26.9256 2.45376 27.2382 2.15307 28.0392 2.15307C28.9293 2.15307 29.3688 2.43063 29.4502 3.12454V3.13654H31.842V3.12454C31.657 1.25099 30.396 0.336914 28.0829 0.336914C25.7922 0.336914 24.5663 1.4129 24.5663 2.97462C24.5663 4.74452 25.8847 5.21826 27.5158 5.45899C28.8925 5.64403 29.6095 5.75968 29.6095 6.37306C29.6095 6.84681 29.2274 7.12437 28.3948 7.12437C27.4233 7.12437 26.9144 6.74315 26.845 5.99099V5.95672H24.335V5.96786C24.4737 7.95706 25.4915 9.02191 28.3022 9.02191C30.7429 9.02191 31.9688 7.90823 31.9688 6.24542C31.9688 4.45496 30.5827 3.9461 28.8694 3.70366Z" fill="#CDCAD5"/>
<path d="M38.252 5.40166C38.1594 6.35086 37.708 6.89399 36.6902 6.89399C35.5911 6.89399 35.024 6.25834 35.024 4.93905V4.46531C35.024 3.08863 35.6031 2.44098 36.7014 2.44098C37.6968 2.44098 38.1577 2.94985 38.2434 3.85193V3.93246H40.7654V3.76112C40.6001 1.45752 39.0649 0.358398 36.7014 0.358398C34.2264 0.358398 32.6064 1.73508 32.6064 4.37279V5.03157C32.6064 7.73868 34.1108 9.02284 36.6328 9.02284C39.1549 9.02284 40.6352 7.85433 40.7971 5.43678V5.29543H38.2528L38.252 5.40166Z" fill="#CDCAD5"/>
<path d="M49.2176 3.60953V0.533203H46.8926V3.60953H46.8917H44.0347V0.533203H41.6865V8.8267H44.0347V5.78464H46.8917H46.8926V8.8267H49.2176V5.78464H52.0746V3.60953H49.2176Z" fill="#CDCAD5"/>
<path d="M49.2176 3.60938H46.8926V5.78362H49.2176V3.60938Z" fill="#3A3B3F"/>
</svg>
