<svg width="276" height="151" viewBox="0 0 276 151" fill="none" xmlns="http://www.w3.org/2000/svg">
<path d="M159.381 74.9201H153.185V69.5547H151.506V81.8604H153.185V76.5293H159.381V81.8604H161.06V69.5547H159.381V74.9201Z" fill="#CDCAD5"/>
<path d="M167.569 71.6992C164.505 71.6992 162.584 73.7584 162.584 76.8917V77.0989C162.584 80.1636 164.246 82.1186 167.516 82.1186C169.957 82.1186 171.636 80.9593 172.207 78.9166H170.39C170.009 80.0759 169.023 80.6962 167.586 80.6962C165.544 80.6962 164.367 79.5013 164.246 77.4764H172.345V76.6845C172.345 74.019 170.823 71.6992 167.569 71.6992ZM164.264 76.1481C164.471 74.2262 165.682 73.0669 167.586 73.0669C169.49 73.0669 170.528 74.2783 170.673 76.1481H164.264Z" fill="#CDCAD5"/>
<path d="M178.541 71.6992C175.745 71.6992 174.059 73.2246 173.903 75.3689H175.582C175.686 73.9834 176.689 73.0148 178.611 73.0148C180.391 73.0148 181.173 73.7584 181.173 74.7944C181.173 75.7109 180.203 75.8837 178.473 76.1265C176.482 76.4201 175.669 76.6108 174.873 77.1307C174.473 77.3783 174.145 77.7261 173.921 78.1397C173.696 78.5533 173.584 79.0183 173.595 79.4886C173.595 81.0801 174.704 82.1186 176.832 82.1186C179.031 82.1186 180.554 80.925 181.245 79.4009L181.436 81.8593H182.786L182.803 75.0575C182.8 73.0835 181.484 71.6992 178.541 71.6992ZM181.19 77.1866C181.19 78.848 179.614 80.7864 177.348 80.7864C176.05 80.7864 175.392 80.1979 175.392 79.2802C175.392 78.7094 175.617 78.2938 176.119 77.9646C176.655 77.601 177.33 77.4459 178.836 77.2019C179.909 77.029 180.743 76.8383 181.19 76.4583V77.1866Z" fill="#CDCAD5"/>
<path d="M184.913 75.3886V81.8599H186.592V75.3327V69H184.913V75.3886Z" fill="#CDCAD5"/>
<path d="M191.437 69.5703H190.155C190.139 69.9339 190.087 70.8516 190 71.1465C189.873 71.7681 189.746 71.9092 189.187 71.9765C188.932 72.0464 188.269 72.0464 187.958 72.0464V73.465H189.864V78.0347C189.864 80.9773 190.591 81.8595 193.239 81.8595H194.364V80.2846H193.619C191.853 80.2846 191.439 79.921 191.439 77.7919V73.4701H194.363V71.9765H191.439L191.437 69.5703Z" fill="#CDCAD5"/>
<path d="M201.233 71.6999C199.485 71.6999 198.256 72.5998 197.65 73.9675V69H196.041V81.8599H197.65V76.6674C197.65 74.6247 198.74 73.1705 200.627 73.1705C202.565 73.1705 203.344 74.4353 203.344 76.2352V81.8599H205.024V75.8195C205.024 73.3091 203.76 71.6999 201.233 71.6999Z" fill="#CDCAD5"/>
<path d="M79.0249 75.3868C80.1689 74.9407 80.7931 74.1157 80.7931 72.6755V72.6577C80.7931 70.4968 79.2143 69.4316 75.5586 69.4316H70V81.7373H75.9552C79.4063 81.7373 81.1223 80.5526 81.1223 78.1515C81.1223 76.6262 80.3838 75.7987 79.0249 75.3868ZM73.4155 72.0921H75.5764C76.8475 72.0921 77.3445 72.3832 77.3445 73.1382V73.156C77.3445 73.9289 76.7776 74.2377 75.6107 74.2377H73.4155V72.0921ZM77.5174 77.7702C77.5174 78.543 77.0547 78.9142 75.4061 78.9142H73.4155V76.6262H75.4404C77.0026 76.6262 77.5174 76.935 77.5174 77.7422V77.7702Z" fill="#CDCAD5"/>
<path d="M85.809 69.4316L81.0601 81.7373H84.6306L85.3679 79.5917H89.9846L90.7574 81.7373H94.3267L89.5168 69.4316H85.809ZM86.2894 76.9312L87.6457 73.0009L89.0363 76.9312H86.2894Z" fill="#CDCAD5"/>
<path d="M101.522 75.9194C101.522 78.0129 100.973 78.7159 99.6348 78.7159C98.3307 78.7159 97.6951 77.9608 97.6951 75.9194V69.4316H94.0928V76.0224C94.0928 80.1929 95.8723 82.0297 99.6361 82.0297C103.138 82.0297 105.145 80.2094 105.145 76.0224V69.4316H101.522V75.9194Z" fill="#CDCAD5"/>
<path d="M112.836 74.1351C110.896 73.8606 109.952 73.6877 109.952 72.8818C109.952 72.2806 110.416 71.8344 111.604 71.8344C112.925 71.8344 113.577 72.2463 113.698 73.2759V73.2937H117.247V73.2759C116.972 70.4959 115.101 69.1396 111.669 69.1396C108.27 69.1396 106.451 70.7362 106.451 73.0534C106.451 75.6795 108.407 76.3825 110.828 76.7397C112.87 77.0142 113.934 77.1858 113.934 78.0959C113.934 78.7989 113.367 79.2107 112.132 79.2107C110.69 79.2107 109.935 78.6451 109.832 77.529V77.4782H106.108V77.4947C106.314 80.4462 107.824 82.0262 111.994 82.0262C115.616 82.0262 117.435 80.3738 117.435 77.9065C117.435 75.2499 115.378 74.4949 112.836 74.1351Z" fill="#CDCAD5"/>
<path d="M126.757 76.6569C126.62 78.0653 125.95 78.8712 124.44 78.8712C122.809 78.8712 121.967 77.928 121.967 75.9705V75.2676C121.967 73.2249 122.827 72.2639 124.456 72.2639C125.933 72.2639 126.617 73.019 126.744 74.3574V74.4769H130.486V74.2227C130.241 70.8047 127.963 69.1738 124.456 69.1738C120.784 69.1738 118.38 71.2165 118.38 75.1303V76.1078C118.38 80.1245 120.612 82.0299 124.355 82.0299C128.097 82.0299 130.293 80.2961 130.534 76.709V76.4993H126.758L126.757 76.6569Z" fill="#CDCAD5"/>
<path d="M143.027 73.9962V69.4316H139.578V73.9962H139.576H135.337V69.4316H131.853V81.7373H135.337V77.2236H139.576H139.578V81.7373H143.027V77.2236H147.267V73.9962H143.027Z" fill="#CDCAD5"/>
<path d="M143.028 73.9961H139.578V77.2222H143.028V73.9961Z" fill="#3A3B3F"/>
</svg>
