<svg width="136" height="14" viewBox="0 0 136 14" fill="none" xmlns="http://www.w3.org/2000/svg">
<path d="M89.3809 5.92007H83.1855V0.554688H81.5063V12.8604H83.1855V7.5293H89.3809V12.8604H91.0601V0.554688H89.3809V5.92007Z" fill="#CDCAD5"/>
<path d="M97.5685 2.69922C94.5051 2.69922 92.5845 4.75843 92.5845 7.89173V8.09892C92.5845 11.1636 94.2458 13.1186 97.5164 13.1186C99.9569 13.1186 101.636 11.9593 102.207 9.91662H100.39C100.009 11.0759 99.0227 11.6962 97.5863 11.6962C95.5436 11.6962 94.3666 10.5013 94.2458 8.47644H102.345V7.68454C102.345 5.01901 100.823 2.69922 97.5685 2.69922ZM94.2636 7.14813C94.4708 5.2262 95.6822 4.06694 97.5863 4.06694C99.4904 4.06694 100.528 5.27831 100.673 7.14813H94.2636Z" fill="#CDCAD5"/>
<path d="M108.541 2.69922C105.745 2.69922 104.059 4.22456 103.903 6.36893H105.582C105.686 4.98342 106.689 4.01482 108.611 4.01482C110.391 4.01482 111.173 4.75843 111.173 5.79439C111.173 6.71086 110.203 6.88373 108.473 7.12652C106.482 7.42015 105.669 7.61081 104.873 8.1307C104.473 8.37829 104.145 8.72614 103.921 9.13974C103.696 9.55335 103.584 10.0183 103.595 10.4886C103.595 12.0801 104.704 13.1186 106.832 13.1186C109.031 13.1186 110.554 11.925 111.245 10.4009L111.436 12.8593H112.786L112.803 6.05751C112.8 4.08346 111.484 2.69922 108.541 2.69922ZM111.19 8.18663C111.19 9.84798 109.614 11.7864 107.348 11.7864C106.05 11.7864 105.392 11.1979 105.392 10.2802C105.392 9.70943 105.617 9.29377 106.119 8.96455C106.655 8.60101 107.33 8.44594 108.836 8.20188C109.909 8.02901 110.743 7.83834 111.19 7.45828V8.18663Z" fill="#CDCAD5"/>
<path d="M114.913 6.38863V12.8599H116.592V6.3327V0H114.913V6.38863Z" fill="#CDCAD5"/>
<path d="M121.437 0.570312H120.155C120.139 0.933852 120.087 1.8516 120 2.1465C119.873 2.76807 119.746 2.90917 119.187 2.97654C118.932 3.04645 118.269 3.04645 117.958 3.04645V4.46501H119.864V9.03468C119.864 11.9773 120.591 12.8595 123.239 12.8595H124.364V11.2846H123.619C121.853 11.2846 121.439 10.921 121.439 8.7919V4.4701H124.363V2.97654H121.439L121.437 0.570312Z" fill="#CDCAD5"/>
<path d="M131.233 2.69985C129.485 2.69985 128.256 3.5998 127.65 4.96753V0H126.041V12.8599H127.65V7.66738C127.65 5.62469 128.74 4.17053 130.627 4.17053C132.565 4.17053 133.344 5.4353 133.344 7.2352V12.8599H135.024V6.81954C135.024 4.30909 133.76 2.69985 131.233 2.69985Z" fill="#CDCAD5"/>
<path d="M9.02493 6.38682C10.1689 5.94066 10.7931 5.1157 10.7931 3.67553V3.65773C10.7931 1.49684 9.21432 0.431641 5.55859 0.431641H0V12.7373H5.95518C9.40626 12.7373 11.1223 11.5526 11.1223 9.1515C11.1223 7.62616 10.3838 6.79866 9.02493 6.38682ZM3.41549 3.09209H5.57639C6.84751 3.09209 7.34451 3.38317 7.34451 4.13822V4.15601C7.34451 4.92885 6.77759 5.23773 5.61071 5.23773H3.41549V3.09209ZM7.51738 8.77016C7.51738 9.543 7.0547 9.91417 5.40606 9.91417H3.41549V7.62616H5.44038C7.00258 7.62616 7.51738 7.93504 7.51738 8.7422V8.77016Z" fill="#CDCAD5"/>
<path d="M15.809 0.431641L11.0601 12.7373H14.6306L15.3679 10.5917H19.9846L20.7574 12.7373H24.3267L19.5168 0.431641H15.809ZM16.2894 7.93123L17.6457 4.00094L19.0363 7.93123H16.2894Z" fill="#CDCAD5"/>
<path d="M31.5224 6.91942C31.5224 9.01295 30.9733 9.71588 29.6348 9.71588C28.3307 9.71588 27.6951 8.96083 27.6951 6.91942V0.431641H24.0928V7.02238C24.0928 11.1929 25.8723 13.0297 29.6361 13.0297C33.138 13.0297 35.1451 11.2094 35.1451 7.02238V0.431641H31.5224V6.91942Z" fill="#CDCAD5"/>
<path d="M42.8359 5.13514C40.8962 4.86058 39.9518 4.6877 39.9518 3.88182C39.9518 3.28058 40.4157 2.83442 41.6042 2.83442C42.9249 2.83442 43.577 3.24626 43.6977 4.27586V4.29366H47.2467V4.27586C46.9721 1.49593 45.1011 0.139648 41.669 0.139648C38.2701 0.139648 36.4511 1.73617 36.4511 4.05342C36.4511 6.67954 38.4074 7.38247 40.8276 7.73966C42.8703 8.01422 43.9342 8.18582 43.9342 9.09594C43.9342 9.79886 43.3673 10.2107 42.1317 10.2107C40.6903 10.2107 39.9352 9.64506 39.8323 8.52902V8.47817H36.1079V8.4947C36.3138 11.4462 37.8239 13.0262 41.9945 13.0262C45.6159 13.0262 47.4348 11.3738 47.4348 8.90654C47.4348 6.24991 45.3782 5.49486 42.8359 5.13514Z" fill="#CDCAD5"/>
<path d="M56.757 7.65689C56.6198 9.06529 55.9499 9.87118 54.4398 9.87118C52.8089 9.87118 51.9675 8.92801 51.9675 6.97049V6.26756C51.9675 4.22488 52.8267 3.26391 54.4563 3.26391C55.9333 3.26391 56.6172 4.01896 56.7443 5.35744V5.47693H60.4865V5.2227C60.2412 1.80467 57.9633 0.173828 54.4563 0.173828C50.7841 0.173828 48.3804 2.21651 48.3804 6.13028V7.10777C48.3804 11.1245 50.6125 13.0299 54.3546 13.0299C58.0968 13.0299 60.2933 11.2961 60.5335 7.70901V7.49927H56.7583L56.757 7.65689Z" fill="#CDCAD5"/>
<path d="M73.0274 4.99622V0.431641H69.5776V4.99622H69.5763H65.3372V0.431641H61.853V12.7373H65.3372V8.22358H69.5763H69.5776V12.7373H73.0274V8.22358H77.2666V4.99622H73.0274Z" fill="#CDCAD5"/>
<path d="M73.0279 4.99609H69.5781V8.22219H73.0279V4.99609Z" fill="#3A3B3F"/>
</svg>
