<svg width="80" height="36" viewBox="0 0 80 36" fill="none" xmlns="http://www.w3.org/2000/svg">
<path d="M48.1409 7.56112C47.9992 7.49698 47.8389 7.46758 47.7053 7.3647C47.7093 7.22039 47.7293 7.1362 47.72 7.02664C47.7079 6.90371 47.6197 6.81017 47.6358 6.68858C47.6478 6.59638 47.7881 6.47478 47.8469 6.39328C48.3319 5.71047 48.7649 4.79117 48.6206 3.63669C48.4789 2.50358 47.7413 1.70453 46.989 1.16204C46.2234 0.608847 45.2253 0.151866 44.0213 0.036952C42.784 -0.080634 41.5266 0.0797105 40.5766 0.556735C40.9841 0.472555 41.3316 0.391046 41.7297 0.345615C43.0953 0.189279 44.3607 0.457856 45.2734 0.852036C45.8693 1.10992 46.4626 1.49341 46.8902 1.99048C47.2122 2.36462 47.4474 2.81492 47.6211 3.32669C47.6785 3.49505 47.7627 3.67944 47.7894 3.84647C47.8322 4.10302 47.8442 4.41436 47.8456 4.66155C47.8496 5.30293 47.6117 6.1394 47.3258 6.58836C47.3084 6.61642 47.2884 6.64849 47.2697 6.67254C46.7058 7.36202 45.3428 7.66935 44.1336 7.61457C43.1969 7.57181 42.2963 7.39276 41.5467 7.12284C41.2941 7.03198 41.0069 6.95181 40.8291 6.81284C40.5819 6.61909 40.5873 6.17013 40.7583 5.89888C40.9267 5.63298 41.3022 5.56082 41.4478 5.25216C41.4839 5.17466 41.4719 5.04772 41.532 4.9288C41.5828 4.82992 41.7645 4.79651 41.7712 4.67625C41.7738 4.63349 41.7017 4.54798 41.687 4.52125C41.5654 4.30212 41.5373 4.03888 41.4478 3.81841C41.3235 3.51242 41.1151 3.19574 40.8706 3.01669C40.4644 2.72005 39.7762 2.66393 39.7882 1.97578C39.5664 2.01186 39.6466 2.37798 39.6052 2.55169C38.7781 2.64389 38.261 2.04527 38.4093 1.15936C38.289 1.21014 38.2062 1.40122 38.1848 1.60966C38.1621 1.81811 38.2382 2.03324 38.1995 2.18557C37.9964 2.19359 37.8 2.06264 37.6797 1.96109C37.6289 1.91833 37.5969 1.83415 37.5394 1.86221C37.8147 2.44078 38.4507 2.64656 39.2404 2.77617C39.8871 2.88173 40.5325 3.00065 40.8158 3.35341C40.8893 3.44427 40.9815 3.626 40.9561 3.77565C40.904 4.08565 40.4938 3.95337 40.3655 4.19789C40.6701 4.11104 40.8933 4.23531 40.928 4.49319C40.9882 4.94884 40.5966 5.61828 40.2385 5.85746C40.0301 5.99642 39.7548 6.02582 39.5076 5.90022C39.5544 6.04052 39.6506 6.05922 39.6346 6.22358C39.6025 6.55095 39.0814 6.57634 38.6779 6.54694C37.7706 6.48146 37.1279 6.09129 36.4558 5.63298C36.1471 5.42319 35.8651 5.22811 35.471 5.04237C35.2999 4.9622 34.3926 4.58005 34.3031 4.94349C34.2724 5.0691 34.41 5.28556 34.4862 5.39379C34.9565 6.06457 35.6634 6.30509 36.568 6.47612C37.0851 6.57366 37.7265 6.6378 37.8895 7.06672C37.9924 7.33396 37.9269 7.77892 37.8895 8.09293C37.8521 8.40693 37.7973 8.72361 37.8053 9.06301C37.9015 9.75784 37.9496 10.7506 37.6223 11.2571C37.5929 11.3012 37.5314 11.4094 37.4673 11.4815C37.3283 11.6392 37.1078 11.8249 36.8914 11.9733C36.1631 12.4743 35.3173 13.0155 34.8376 13.8159C34.5343 14.3236 34.394 14.7619 34.247 15.4608C34.1548 15.899 34.1455 16.4482 34.0786 16.8958C34.0573 17.0348 34.0345 17.1911 33.9798 17.3034C33.7686 17.7417 33.0271 17.902 32.5594 18.1332C32.1158 18.3523 31.6802 18.6556 31.3354 18.9482C30.7408 19.4547 30.4054 19.897 29.915 20.4809C29.7587 20.6679 29.6104 20.855 29.4086 20.9726C29.1748 21.1102 28.7753 21.149 28.7058 21.3801C28.6096 21.7008 28.9677 21.9093 29.0291 22.1952C29.0665 22.3703 29.0305 22.552 29.0719 22.7016C29.1387 22.9408 29.3218 23.2241 29.4794 23.3484C29.5596 23.4112 29.7079 23.4887 29.8308 23.4192C29.8015 23.1319 29.5796 22.9609 29.5209 22.7016C29.4407 22.3449 29.5703 21.8171 29.7039 21.5632C29.8776 21.2318 30.1515 21.0929 30.4068 20.9018C30.8009 20.6078 31.3033 20.2644 31.7002 20.0012C32.2668 19.627 32.8239 19.277 33.4439 18.975C33.7085 18.8454 34.0011 18.6543 34.3018 18.5113C34.5343 18.4004 34.724 18.2521 34.9071 18.061C35.0808 17.8793 35.2759 17.6308 35.3708 17.4851C35.6393 17.0709 35.8665 16.6794 36.1164 16.2892C36.2994 16.0046 36.5346 15.6278 36.6642 15.3886C36.7524 15.2256 36.8753 15.0198 36.9167 14.9249C37.0423 14.6457 37.1786 14.3958 37.367 14.1513C37.9911 14.3277 38.6364 14.5067 39.505 14.5588C40.1677 14.5989 40.8719 14.5401 41.4171 14.488C41.6082 14.4706 41.8366 14.4613 41.9943 14.5161C42.1653 14.5762 42.2669 14.7619 42.3885 14.9517C42.6998 15.4407 43.0673 15.8549 43.4708 16.2598C43.7341 16.523 43.9986 16.7622 44.2859 16.9627C44.5318 17.1337 44.8351 17.3007 45.0315 17.413C45.268 17.5479 45.5032 17.6882 45.6087 17.9327C45.717 18.1839 45.6355 18.657 45.8613 18.7478C45.9695 18.7919 46.0991 18.7518 46.17 18.7478C46.3022 18.6904 46.4172 18.6035 46.5775 18.5514C46.9516 18.4271 47.418 18.5768 47.8148 18.5648C47.915 18.5621 48.2117 18.5207 48.1943 18.3817C48.1796 18.2681 47.8616 18.2681 47.7159 18.2548C47.4848 18.2334 47.3284 18.2013 47.1815 18.1559C46.8688 18.0623 46.6189 17.9501 46.3517 17.7898C45.8252 17.4744 45.415 16.968 45.0302 16.5658C44.3741 15.883 43.8703 15.2336 43.3706 14.484C43.2036 14.2341 43.0446 13.9482 42.8361 13.7384C42.335 13.2373 41.3944 12.9687 40.6982 12.8097C40.447 12.7523 40.0688 12.7296 39.8831 12.5986C39.7308 12.4917 39.6159 12.1683 39.5451 12.0214C39.501 11.9292 39.4662 11.8343 39.4328 11.7408C39.2751 11.2985 39.362 10.8255 39.517 10.3912C39.6239 10.0892 39.7415 9.87409 39.8965 9.66029C40.153 9.3062 40.4737 9.09374 40.5579 8.66215C40.5886 8.50715 40.5566 8.3281 40.614 8.12767C40.6942 7.85107 40.9307 7.67469 41.2474 7.66401C41.7137 7.64797 42.2135 7.7709 42.7105 7.819C43.7394 7.91922 44.8124 7.92056 45.7197 7.73482C46.17 7.64263 46.6229 7.45823 47.0692 7.45422C47.7868 7.4462 48.2357 7.89918 48.5457 8.32676C48.8798 8.78642 49.127 9.37702 49.0802 10.1413C49.0455 10.6945 48.8811 11.1969 48.6446 11.6045C47.8923 12.9006 46.198 13.9789 44.2993 13.4324C43.5764 13.2253 43.2236 12.9393 42.6825 12.5465C42.7119 12.6587 42.7533 12.7095 42.8228 12.7857C43.4628 13.3856 44.3861 13.9522 45.6074 13.9522C46.2541 13.9522 46.8247 13.868 47.2803 13.6996C47.764 13.5206 48.1515 13.2587 48.5324 12.9821C48.5417 12.9754 48.5725 13.0142 48.5471 12.9674C48.9199 12.6694 49.2579 12.3087 49.5038 11.857C49.747 11.408 49.9514 10.8455 49.9113 10.1841C49.8365 8.92405 49.0628 7.98202 48.1409 7.56112ZM39.211 7.91254C39.2003 7.96332 39.2644 8.30538 39.2257 8.33478C39.1869 8.36418 39.052 8.15172 38.9304 8.0956C38.7567 8.1437 38.5536 8.29469 38.5082 8.26396C38.4413 8.21185 38.6391 7.90719 38.6204 7.72948C38.6097 7.62526 38.2423 7.29655 38.297 7.25112C38.3505 7.20569 38.5683 7.32595 38.7473 7.30724C38.8756 7.21504 38.9304 6.86763 38.9865 6.885C39.0426 6.90237 39.0867 7.35401 39.1135 7.39142C39.2217 7.54241 39.5905 7.54241 39.6052 7.60254C39.6212 7.66267 39.2257 7.8484 39.211 7.91254Z" fill="#CDCAD5"/>
<path d="M42.0926 11.2321C42.1247 11.204 42.1514 11.1706 42.1902 11.1372C42.1982 11.1305 42.2289 11.1145 42.2289 11.0944C42.2289 11.0744 42.2196 11.0624 42.1969 11.0624C42.1741 11.0624 42.0646 11.065 42.0646 11.065C42.0646 11.065 41.9336 11.065 41.9203 11.0584L41.8428 10.7617C41.8401 10.7484 41.816 10.7363 41.816 10.7363C41.7866 10.739 41.7639 10.7724 41.7412 10.8472C41.7185 10.9221 41.6798 11.0263 41.6731 11.0463C41.6664 11.0664 41.649 11.0891 41.6236 11.1118C41.5969 11.1345 41.5568 11.1452 41.5181 11.1626C41.4793 11.1786 41.3925 11.1933 41.3671 11.204C41.3417 11.2134 41.3283 11.2267 41.3243 11.2494C41.3217 11.2721 41.3711 11.2935 41.4072 11.3136C41.4432 11.3336 41.4766 11.3617 41.4954 11.379C41.5194 11.4031 41.5221 11.3951 41.5314 11.4231C41.5435 11.4539 41.5114 11.518 41.4887 11.5755C41.4847 11.5848 41.4633 11.6262 41.474 11.6423C41.4833 11.6583 41.4994 11.6556 41.5328 11.6423C41.5648 11.6289 41.6076 11.5968 41.6276 11.5875C41.6477 11.5781 41.6931 11.5621 41.7279 11.5674C41.7639 11.5741 41.8548 11.6383 41.8775 11.653C41.9002 11.6677 41.9523 11.6971 41.9751 11.7104C41.9978 11.7238 42.0232 11.7371 42.0405 11.7238C42.0579 11.7104 42.0539 11.6717 42.0445 11.6423C42.0352 11.6129 42.0258 11.5608 42.0045 11.4472C42.0045 11.4472 41.9817 11.3724 41.9978 11.343C42.0151 11.3122 42.0686 11.2534 42.0926 11.2321Z" fill="#CDCAD5"/>
<path d="M48.1854 6.38493C48.1747 6.42368 48.2709 6.49584 48.3284 6.53726C48.3872 6.57868 48.4526 6.6348 48.4807 6.67088C48.5181 6.71765 48.5248 6.70696 48.5355 6.75907C48.5488 6.81519 48.5141 6.90605 48.462 7.00092C48.4526 7.01696 48.3658 7.12252 48.3791 7.15325C48.3925 7.18398 48.3938 7.19868 48.454 7.18265C48.5141 7.16661 48.6638 7.06506 48.6998 7.0517C48.7359 7.03834 48.8188 7.01963 48.8802 7.03967C48.9417 7.05838 49.0873 7.19067 49.1234 7.2214C49.1595 7.25213 49.221 7.29623 49.257 7.32429C49.2944 7.35235 49.3733 7.42717 49.404 7.40713C49.4347 7.38709 49.4241 7.30558 49.4174 7.23877C49.4107 7.18131 49.4013 7.09179 49.3893 6.88868C49.3893 6.88868 49.3679 6.75506 49.4 6.70562C49.4521 6.62679 49.5403 6.56666 49.5884 6.53459C49.6512 6.49317 49.7234 6.45442 49.7942 6.3983C49.8476 6.35687 49.9171 6.34485 49.9211 6.31011C49.9251 6.27537 49.857 6.27937 49.8169 6.27403C49.7768 6.26869 49.5657 6.28739 49.5657 6.28739C49.5657 6.28739 49.3893 6.31679 49.2958 6.23528C49.2771 6.21925 49.2517 5.68209 49.2503 5.65938C49.2463 5.59123 49.1942 5.5752 49.1942 5.5752C49.1421 5.5752 49.1114 5.66071 49.0553 5.78632C48.9991 5.91192 48.9096 6.08563 48.8949 6.11903C48.8789 6.1511 48.8361 6.22058 48.8361 6.22058C48.8027 6.25399 48.7987 6.29541 48.7292 6.31545C48.6571 6.3355 48.3952 6.33282 48.3484 6.34485C48.3043 6.3542 48.1961 6.34485 48.1854 6.38493Z" fill="#CDCAD5"/>
<path d="M39.0325 1.47205C39.07 1.45201 39.1916 1.37985 39.1916 1.37985C39.1916 1.37985 39.2383 1.35313 39.2864 1.35714C39.3345 1.35981 39.3572 1.38386 39.3773 1.40791C39.3973 1.43197 39.4895 1.51615 39.4895 1.51615C39.4895 1.51615 39.5069 1.53619 39.5269 1.52951C39.547 1.52283 39.551 1.47472 39.547 1.43464C39.543 1.39455 39.5363 1.31304 39.5363 1.31304C39.5363 1.31304 39.5203 1.26494 39.547 1.22085C39.5737 1.17675 39.6111 1.16339 39.6552 1.14335C39.6993 1.1233 39.7701 1.08589 39.7808 1.05916C39.7902 1.03244 39.7701 1.02576 39.7541 1.01908C39.7367 1.0124 39.6619 0.988346 39.6419 0.981665C39.6218 0.974984 39.5684 0.957613 39.543 0.93757C39.5216 0.9202 39.5122 0.905501 39.5096 0.8427C39.5069 0.790588 39.5042 0.795933 39.5069 0.750502C39.5082 0.719769 39.5163 0.640933 39.4895 0.635588C39.4895 0.635588 39.4855 0.624899 39.4561 0.655631C39.4254 0.686364 39.3546 0.786579 39.3546 0.786579C39.3546 0.786579 39.3212 0.834683 39.2931 0.854726C39.2664 0.874769 39.225 0.885458 39.1942 0.885458C39.1635 0.885458 39.0526 0.865415 39.0526 0.865415C39.0526 0.865415 39.0085 0.858734 39.0018 0.885458C38.9951 0.912182 39.0325 0.960286 39.0566 0.983001C39.0807 1.00705 39.1141 1.05115 39.1207 1.10192C39.1274 1.1527 39.09 1.22085 39.066 1.25692C39.0419 1.29434 38.9778 1.39188 38.9778 1.39188L38.951 1.45335C38.951 1.45335 38.9404 1.48007 38.951 1.48675C38.9778 1.50813 38.9951 1.4921 39.0325 1.47205Z" fill="#CDCAD5"/>
<path d="M2.29875 32.7297C2.77189 32.9252 3.32615 33.1817 3.20488 33.9609C3.05457 34.9269 1.69153 35.0561 0.618869 34.8486V31.1782C0.722207 31.1455 0.955358 31.1472 1.0587 31.18V32.7065C2.06987 32.9966 2.82398 31.8954 2.24068 31.1619C1.80597 30.616 0.663279 30.5902 0.113281 31.062C0.292628 30.7994 0.717083 30.6746 1.11762 30.6255C1.91871 30.5265 2.90682 30.8829 2.92988 31.7172C2.94269 32.195 2.61389 32.4921 2.29875 32.7297ZM2.7326 33.7224C2.6788 33.0388 1.79231 32.7753 1.0587 32.988V34.71C1.87003 34.9278 2.7958 34.5309 2.7326 33.7224Z" fill="#CDCAD5"/>
<path d="M1.48322 35.0472C1.19712 35.0472 0.891378 35.017 0.59759 34.9602C0.543786 34.9499 0.505355 34.9025 0.505355 34.8483V31.1779C0.505355 31.128 0.537808 31.0841 0.58478 31.0686C0.664205 31.0436 0.774375 31.0402 0.832449 31.0402C0.881129 31.0402 1.00496 31.0428 1.09208 31.0703C1.13905 31.085 1.1715 31.1297 1.1715 31.1797V32.6166C1.61731 32.7105 2.05884 32.4918 2.24587 32.1C2.38594 31.8065 2.35007 31.4827 2.15193 31.233C1.95807 30.9894 1.58144 30.843 1.14503 30.843C0.768397 30.843 0.409703 30.9575 0.1868 31.1487C0.143245 31.1857 0.0791921 31.1848 0.0373444 31.1469C-0.00450318 31.1082 -0.0121895 31.0445 0.0194098 30.9971C0.236334 30.6803 0.728257 30.558 1.10318 30.5115C1.97344 30.4048 3.01792 30.8198 3.04183 31.7135C3.05379 32.1534 2.81381 32.4522 2.51917 32.6993C2.92825 32.8827 3.43725 33.2021 3.31598 33.9778C3.21179 34.658 2.54308 35.0472 1.48322 35.0472ZM0.731673 34.7527C0.812807 34.7665 0.894794 34.7785 0.975927 34.788C0.956284 34.7673 0.944328 34.7389 0.944328 34.7088V32.9877C0.944328 32.9369 0.977635 32.8921 1.02631 32.8784C1.06902 32.8663 1.11172 32.8551 1.15442 32.8457C1.11172 32.8379 1.06902 32.8276 1.02631 32.8155C0.977635 32.8017 0.944328 32.757 0.944328 32.7053V31.2735C0.877713 31.2666 0.78804 31.2666 0.730819 31.2726V34.7527H0.731673ZM1.74883 32.8104C2.36544 32.868 2.80697 33.2236 2.84541 33.7135C2.86761 33.9976 2.7805 34.2559 2.59347 34.46C2.48757 34.5753 2.35092 34.6709 2.19378 34.7415C2.60628 34.6425 3.01877 34.4221 3.09393 33.9434C3.19727 33.2813 2.77623 33.0506 2.25698 32.8362C2.2194 32.8207 2.19292 32.7854 2.1878 32.7449C2.18268 32.7045 2.19976 32.664 2.23221 32.639C2.52173 32.4203 2.82918 32.1517 2.81722 31.7212C2.80441 31.2606 2.44657 30.9549 1.99137 30.8137C2.12716 30.8878 2.24246 30.9816 2.32872 31.091C2.58322 31.4113 2.62848 31.8254 2.44999 32.1999C2.30993 32.4927 2.05201 32.7122 1.74883 32.8104ZM1.1715 34.6193C1.28167 34.6425 1.3944 34.6546 1.50799 34.6546C1.88291 34.6546 2.22623 34.5237 2.42693 34.305C2.57212 34.1466 2.63702 33.9537 2.61909 33.7316C2.58066 33.2469 2.06397 33.0308 1.56777 33.0308C1.43283 33.0308 1.29961 33.0463 1.17065 33.0764V34.6193H1.1715Z" fill="#CDCAD5"/>
<path d="M9.15527 30.5995C9.18773 30.5995 9.19114 30.6899 9.19114 30.6899C9.19114 30.6899 9.19541 30.7932 9.15527 30.7932H8.75217V34.7012H10.1135C10.2476 34.6986 10.526 34.244 10.6328 34.1028C10.6601 34.0666 10.696 34.0572 10.6925 34.0735C10.6746 34.1562 10.5012 34.7503 10.4534 34.8932C10.4432 34.9233 10.4158 34.9423 10.4158 34.9423C10.4158 34.9423 7.9323 34.9423 7.83067 34.9405C7.79395 34.9423 7.79395 34.8312 7.79395 34.8312C7.79395 34.8312 7.79395 34.7012 7.83067 34.7012H8.30637V30.7932H7.85971C7.83067 30.7932 7.83067 30.6951 7.83067 30.6951C7.83067 30.6951 7.83067 30.5995 7.87422 30.5986L9.15527 30.5995Z" fill="#CDCAD5"/>
<path d="M9.85252 35.0562C8.96603 35.0562 7.89593 35.0562 7.82846 35.0544C7.79942 35.0536 7.75672 35.0355 7.73622 35.0148C7.69011 34.9683 7.67986 34.8891 7.68071 34.8306C7.68071 34.8306 7.68071 34.7901 7.68669 34.7496C7.70719 34.6024 7.7943 34.5869 7.83102 34.5869H8.19399V30.9071H7.86006C7.81736 30.9071 7.71744 30.8865 7.71744 30.6945C7.71744 30.5696 7.77978 30.4852 7.87287 30.4844H9.15477C9.22395 30.4844 9.2991 30.5378 9.30337 30.6858C9.30508 30.7289 9.30167 30.8124 9.25299 30.8641C9.23164 30.8865 9.18552 30.9071 9.15477 30.9071H8.86526V34.5869H10.113C10.1753 34.5611 10.3752 34.2718 10.4503 34.1633C10.4871 34.1099 10.5187 34.0643 10.5426 34.0333C10.6075 33.9472 10.727 33.93 10.78 33.9972C10.8013 34.0247 10.8099 34.0652 10.8022 34.0996C10.7826 34.1891 10.6083 34.7875 10.5605 34.9296C10.54 34.9907 10.493 35.0269 10.4794 35.0363C10.4606 35.0493 10.4384 35.0562 10.4153 35.0562H9.85252ZM7.90703 34.8263C8.12908 34.8271 8.80291 34.8271 9.85337 34.8271H10.3581C10.3743 34.7738 10.4025 34.679 10.4333 34.574C10.3043 34.7367 10.2121 34.8125 10.1164 34.8151H8.75252C8.69018 34.8151 8.63894 34.7643 8.63894 34.7006V30.7926C8.63894 30.7616 8.65089 30.7332 8.67139 30.7125H8.387C8.40749 30.7332 8.41945 30.7616 8.41945 30.7926V34.7006C8.41945 34.7634 8.36906 34.8151 8.30586 34.8151H7.90618C7.90703 34.8185 7.90703 34.8228 7.90703 34.8263Z" fill="#CDCAD5"/>
<path d="M17.2793 30.5967C18.2879 30.5967 19.4118 31.4292 19.4118 32.7715C19.4118 33.9622 18.5449 34.9412 17.2699 34.9412C16.1528 34.9412 15.1553 33.9605 15.1553 32.7715C15.1561 31.6264 16.1366 30.5967 17.2793 30.5967ZM15.6805 32.7681C15.6805 33.9528 16.2305 34.7948 17.2801 34.7948C18.6167 34.7948 18.8746 33.8219 18.8746 32.7689C18.8746 31.6402 18.1726 30.7525 17.2801 30.7551C16.3193 30.7585 15.6805 31.6626 15.6805 32.7681Z" fill="#CDCAD5"/>
<path d="M17.2693 35.0542C16.0617 35.0542 15.042 34.0081 15.042 32.7709C15.042 31.5518 16.0873 30.4824 17.2787 30.4824C18.3591 30.4824 19.5248 31.3572 19.5248 32.7709C19.5248 34.0727 18.5555 35.0542 17.2693 35.0542ZM17.2838 30.7545L17.2796 30.869C16.4178 30.8724 15.7927 31.6706 15.7927 32.7674C15.7927 33.9651 16.3478 34.6797 17.2787 34.6797C18.3164 34.6797 18.7596 34.108 18.7596 32.7674C18.7596 31.7024 18.1114 30.8681 17.2838 30.8681V30.7545ZM16.3102 30.9835C15.6996 31.346 15.2683 32.0279 15.2683 32.7709C15.2683 33.4511 15.6099 34.0667 16.1223 34.4429C15.7654 34.0727 15.5655 33.4958 15.5655 32.7674C15.5664 31.9943 15.8516 31.3529 16.3102 30.9835ZM18.108 30.8983C18.6358 31.2556 18.9859 31.9512 18.9859 32.7683C18.9859 33.2909 18.9287 33.9108 18.5982 34.3491C19.0312 33.978 19.2976 33.4183 19.2976 32.7709C19.2985 31.8634 18.7656 31.2031 18.108 30.8983Z" fill="#CDCAD5"/>
<path d="M26.1855 30.5967C27.1941 30.5967 28.318 31.4292 28.318 32.7715C28.318 33.9622 27.4512 34.9412 26.1761 34.9412C25.059 34.9412 24.0615 33.9605 24.0615 32.7715C24.0615 31.6264 25.0428 30.5967 26.1855 30.5967ZM24.5859 32.7681C24.5859 33.9528 25.1359 34.7948 26.1855 34.7948C27.5221 34.7948 27.7791 33.8219 27.7791 32.7689C27.7791 31.6402 27.0771 30.7525 26.1855 30.7551C25.2256 30.7585 24.5859 31.6626 24.5859 32.7681Z" fill="#CDCAD5"/>
<path d="M26.1775 35.0542C24.9699 35.0542 23.9502 34.0081 23.9502 32.7709C23.9502 31.5518 24.9955 30.4824 26.1869 30.4824C27.2673 30.4824 28.433 31.3572 28.433 32.7709C28.433 34.0727 27.4628 35.0542 26.1775 35.0542ZM26.192 30.7545L26.1878 30.869C25.326 30.8724 24.7009 31.6706 24.7009 32.7674C24.7009 33.9651 25.256 34.6797 26.1869 34.6797C27.2246 34.6797 27.6678 34.108 27.6678 32.7674C27.6678 31.7024 27.0196 30.8681 26.192 30.8681V30.7545ZM25.2176 30.9835C24.6069 31.346 24.1757 32.0279 24.1757 32.7709C24.1757 33.4511 24.5173 34.0667 25.0297 34.4429C24.6727 34.0727 24.4729 33.4958 24.4729 32.7674C24.4746 31.9943 24.7598 31.3529 25.2176 30.9835ZM27.0162 30.8983C27.544 31.2556 27.8941 31.9512 27.8941 32.7683C27.8941 33.2909 27.8369 33.9108 27.5064 34.3491C27.9394 33.978 28.2058 33.4183 28.2058 32.7709C28.2058 31.8634 27.6738 31.2031 27.0162 30.8983Z" fill="#CDCAD5"/>
<path d="M38.0105 34.7575C38.0575 34.7575 38.0575 34.7997 38.0575 34.8556C38.0575 34.9116 38.0566 34.946 38.0105 34.946C37.9644 34.946 36.7483 34.9443 36.7483 34.9443C36.7098 34.9443 36.7098 34.9099 36.7098 34.8539C36.7098 34.7988 36.7098 34.7558 36.7483 34.7558L37.1582 34.7566C37.1582 34.7566 36.6586 32.6722 36.4143 31.652L35.1606 34.6748L34.0162 31.6296C34.006 31.6855 33.2459 34.748 33.2459 34.748H33.6251C33.6652 34.748 33.6601 34.8496 33.6601 34.8496C33.6601 34.8496 33.6507 34.9435 33.6105 34.9426L32.6036 34.9374C32.5652 34.9374 32.5695 34.847 32.5695 34.847C32.5695 34.847 32.5644 34.7489 32.6165 34.7489C32.6694 34.7489 32.9683 34.7437 32.9683 34.7437C32.9683 34.7437 34.0734 30.6283 34.0734 30.6016L35.2913 33.7803L36.5851 30.6024L37.6014 34.7566C37.6023 34.7575 37.9636 34.7575 38.0105 34.7575Z" fill="#CDCAD5"/>
<path d="M38.0103 35.0611L36.748 35.0594C36.6805 35.0594 36.6267 35.0198 36.6071 34.9552C36.5968 34.9233 36.5968 34.8906 36.5968 34.8553C36.5968 34.7141 36.6481 34.6426 36.748 34.6426H37.0136L36.385 32.0175L35.2645 34.7193C35.2466 34.7615 35.2056 34.789 35.1604 34.789C35.1595 34.789 35.1586 34.789 35.1586 34.789C35.1125 34.7882 35.0707 34.7589 35.0545 34.715L34.0399 32.0141C33.8759 32.6822 33.5283 34.0822 33.3917 34.6349H33.6257C33.6564 34.6349 33.7025 34.6556 33.7239 34.6779C33.7717 34.7287 33.7751 34.8114 33.7734 34.8562C33.7606 34.9827 33.6991 35.0585 33.6111 35.0585L32.6034 35.0533C32.5726 35.0533 32.5265 35.0327 32.5052 35.0103C32.4582 34.9603 32.4548 34.8846 32.4565 34.8433C32.4548 34.8226 32.4556 34.7399 32.5077 34.684C32.5359 34.6538 32.5743 34.6366 32.6153 34.6366C32.6504 34.6366 32.7887 34.634 32.8818 34.6323C33.2601 33.2246 33.9425 30.6753 33.963 30.5814C33.9639 30.5263 34.0014 30.4902 34.0552 30.4807C34.1082 30.4721 34.1603 30.5108 34.1799 30.5616L35.2953 33.4726L36.4815 30.5599C36.5003 30.5143 36.5447 30.4859 36.5943 30.4893C36.643 30.4927 36.6839 30.528 36.6959 30.5763L37.6909 34.6435H38.0103C38.1162 34.6435 38.17 34.715 38.17 34.8562C38.17 34.9922 38.1162 35.0611 38.0103 35.0611ZM37.2425 34.8321L37.5158 34.8329C37.5047 34.82 37.4961 34.8036 37.4919 34.7856L36.5593 30.9706L35.7881 32.8656L36.309 31.6086C36.3278 31.5629 36.3731 31.5345 36.4226 31.5388C36.4713 31.5431 36.5123 31.5776 36.5234 31.6258L37.2673 34.7305C37.2758 34.764 37.2681 34.8002 37.2459 34.8278C37.245 34.8295 37.2442 34.8303 37.2425 34.8321ZM33.0475 34.8269L33.1636 34.8278C33.1611 34.8252 33.1585 34.8226 33.1568 34.8191C33.1354 34.7916 33.1278 34.7554 33.1363 34.721C33.2559 34.2406 33.4847 33.315 33.6624 32.5978C33.5138 33.1532 33.3233 33.8643 33.0782 34.7752C33.0722 34.795 33.062 34.8131 33.0475 34.8269ZM34.016 31.5173C34.0629 31.5173 34.1048 31.5457 34.1219 31.5905L35.1646 34.3671L35.3756 33.8592C35.3542 33.8824 35.3235 33.8996 35.291 33.8962C35.2449 33.8953 35.2031 33.8669 35.1868 33.823L34.0954 30.9732C34.0604 31.1075 34.0117 31.2909 33.9442 31.5431C33.9621 31.5285 33.9835 31.519 34.0074 31.5173C34.01 31.5173 34.0125 31.5173 34.016 31.5173Z" fill="#CDCAD5"/>
<path d="M44.5259 30.737C44.6454 30.7431 44.6343 30.5631 44.7539 30.6329C44.7718 30.6544 44.7838 31.0401 44.8265 31.4069C44.8265 31.4069 44.7573 31.4086 44.6497 31.177C44.3482 30.5252 42.969 30.6811 43.2388 31.6789C43.4515 32.4659 44.8709 32.5795 45.1271 33.5404C45.4636 34.8017 43.9016 35.419 42.9485 34.6906C42.8024 34.6829 42.9143 34.9352 42.7819 34.942C42.7367 34.9334 42.7418 34.9136 42.7418 34.9136L42.6777 33.9166C42.7614 33.9132 42.8332 34.1465 42.9058 34.2722C43.0954 34.602 43.5027 34.8826 44.0058 34.837C44.4054 34.8008 44.8299 34.4573 44.7735 33.9166C44.6967 33.1848 43.7256 32.9678 43.2593 32.5365C43.068 32.3591 42.8989 32.0862 42.8648 31.8038C42.7469 30.8145 43.6667 30.3608 44.5259 30.737Z" fill="#CDCAD5"/>
<path d="M43.8809 35.1148C43.5564 35.1148 43.237 35.0193 42.9714 34.8445C42.9629 34.9134 42.9364 35.0477 42.7886 35.0546C42.7801 35.0554 42.7716 35.0546 42.763 35.0528C42.7118 35.0434 42.6742 35.0201 42.6511 34.984C42.64 34.9667 42.6323 34.9426 42.6315 34.9194H42.6306L42.5666 33.9232C42.5649 33.8922 42.5751 33.8621 42.5956 33.8397C42.6161 33.8165 42.6443 33.8036 42.6751 33.8018C42.8126 33.8018 42.8783 33.9439 42.9466 34.0937C42.9663 34.1368 42.9859 34.1798 43.0056 34.2142C43.1422 34.451 43.4582 34.7274 43.8997 34.7274C43.9313 34.7274 43.9638 34.7257 43.9971 34.7231C44.1952 34.705 44.3882 34.6025 44.5138 34.4484C44.6308 34.3047 44.682 34.1247 44.6615 33.9284C44.6163 33.4962 44.1901 33.2525 43.7785 33.0175C43.5564 32.8901 43.3463 32.7704 43.1832 32.6197C42.9483 32.4019 42.7869 32.1023 42.7528 31.8173C42.7084 31.4436 42.7972 31.1173 43.0107 30.8745C43.348 30.4905 43.9672 30.3838 44.5317 30.6162C44.5343 30.6119 44.5385 30.6059 44.542 30.6016C44.5676 30.5672 44.6163 30.5034 44.7042 30.5034C44.7392 30.5034 44.7734 30.5138 44.8093 30.5344C44.8212 30.5413 44.8315 30.5499 44.84 30.5603C44.8725 30.599 44.875 30.6317 44.893 30.8823C44.9032 31.0261 44.9169 31.212 44.9382 31.3946C44.9417 31.4273 44.9323 31.4591 44.9101 31.4841C44.8887 31.5082 44.858 31.5228 44.8255 31.5228C44.7307 31.5228 44.6368 31.423 44.5462 31.2267C44.4549 31.0286 44.2183 30.9004 43.9441 30.9004C43.7204 30.9004 43.5214 30.9865 43.4129 31.1294C43.3122 31.2628 43.29 31.4376 43.3472 31.6503C43.436 31.9792 43.7879 32.1884 44.1611 32.4105C44.5966 32.6697 45.0894 32.9633 45.2363 33.5126C45.3721 34.0205 45.2124 34.3735 45.0544 34.581C44.8007 34.9142 44.3618 35.1148 43.8809 35.1148ZM43.2968 30.9176C43.2549 30.9503 43.2165 30.9856 43.1823 31.0252C43.0124 31.2181 42.9424 31.4824 42.9791 31.7889C43.0064 32.0179 43.1439 32.271 43.3378 32.451C43.4813 32.5836 43.6811 32.6981 43.8912 32.8177C44.3319 33.0692 44.8306 33.3541 44.8878 33.9034C44.9152 34.1617 44.846 34.3994 44.6897 34.5922C44.6607 34.6275 44.6291 34.6611 44.5958 34.6921C44.7059 34.6232 44.8016 34.5388 44.8767 34.439C45.0587 34.2005 45.1073 33.8991 45.0194 33.5685C44.8964 33.1088 44.4651 32.8522 44.0483 32.6034C43.6529 32.3683 43.2447 32.1255 43.1311 31.7071C43.0355 31.3524 43.1354 31.1199 43.2353 30.9873C43.2541 30.9632 43.2746 30.94 43.2968 30.9176ZM42.9432 34.5759C42.968 34.5759 42.9979 34.5845 43.0175 34.5991C43.0244 34.6043 43.0303 34.6086 43.0372 34.6137C42.9475 34.5294 42.8749 34.4381 42.8202 34.3477L42.8365 34.6069C42.8638 34.5871 42.898 34.5759 42.9432 34.5759ZM44.5274 30.8504C44.5838 30.8935 44.6342 30.9425 44.676 30.9985C44.6735 30.9632 44.6709 30.9296 44.6684 30.8978C44.6658 30.8676 44.6641 30.8358 44.6615 30.8057C44.6299 30.8315 44.5898 30.8539 44.5274 30.8504Z" fill="#CDCAD5"/>
<path d="M53.0096 32.7298C53.4827 32.9253 54.037 33.1818 53.9157 33.961C53.7654 34.927 52.4015 35.0562 51.3288 34.8487V31.1784C51.4322 31.1456 51.6653 31.1474 51.7687 31.1801V32.7066C52.7798 32.9967 53.5339 31.8955 52.9506 31.162C52.5168 30.6161 51.3732 30.5912 50.8232 31.063C51.0026 30.8004 51.427 30.6755 51.8276 30.6265C52.6287 30.5275 53.6168 30.8839 53.6398 31.7182C53.6527 32.1952 53.3239 32.4922 53.0096 32.7298ZM53.4426 33.7225C53.3888 33.0389 52.5023 32.7755 51.7687 32.9881V34.7101C52.58 34.9279 53.5066 34.531 53.4426 33.7225Z" fill="#CDCAD5"/>
<path d="M52.193 35.0472C51.9069 35.0472 51.6012 35.017 51.3074 34.9602C51.2544 34.9499 51.2151 34.9025 51.2151 34.8483V31.1779C51.2151 31.128 51.2476 31.0841 51.2946 31.0686C51.374 31.0436 51.4842 31.0402 51.5422 31.0402C51.5909 31.0402 51.7148 31.0428 51.8019 31.0703C51.8488 31.085 51.8813 31.1297 51.8813 31.1797V32.6166C52.3271 32.7105 52.7686 32.4918 52.9557 32.1C53.0957 31.8065 53.0599 31.4827 52.8617 31.233C52.6679 30.9894 52.2912 30.843 51.8548 30.843C51.4782 30.843 51.1195 30.9575 50.8966 31.1495C50.853 31.1866 50.789 31.1857 50.7471 31.1469C50.7053 31.1082 50.6976 31.0445 50.7301 30.9971C50.947 30.6803 51.4389 30.558 51.8138 30.5115C52.6841 30.4048 53.7286 30.8198 53.7525 31.7135C53.7644 32.1534 53.5245 32.4522 53.2298 32.6993C53.6389 32.8827 54.1479 33.2021 54.0266 33.9778C53.9216 34.658 53.2529 35.0472 52.193 35.0472ZM51.4423 34.7527C51.5235 34.7665 51.6054 34.7785 51.6866 34.788C51.6669 34.7673 51.655 34.7389 51.655 34.7088V32.9877C51.655 32.9369 51.6883 32.8921 51.737 32.8784C51.7797 32.8663 51.8224 32.8551 51.8659 32.8457C51.8232 32.8379 51.7805 32.8276 51.7378 32.8155C51.6891 32.8017 51.6558 32.757 51.6558 32.7053V31.2735C51.5884 31.2666 51.4987 31.2666 51.4423 31.2726V34.7527ZM52.4595 32.8104C53.0761 32.868 53.5168 33.2236 53.5561 33.7135C53.5783 33.9976 53.4911 34.2559 53.3041 34.46C53.1982 34.5753 53.0616 34.6709 52.9044 34.7415C53.3169 34.6425 53.7294 34.4221 53.8046 33.9434C53.9079 33.2813 53.486 33.0506 52.9676 32.8362C52.93 32.8207 52.9036 32.7854 52.8984 32.7449C52.8933 32.7045 52.9104 32.664 52.9429 32.639C53.2324 32.4203 53.5398 32.1517 53.5279 31.7212C53.5151 31.2606 53.1572 30.9549 52.702 30.8137C52.8378 30.8878 52.9531 30.9816 53.0402 31.091C53.2947 31.4113 53.34 31.8254 53.1615 32.1999C53.0197 32.4927 52.7627 32.7122 52.4595 32.8104ZM51.8821 34.6193C51.9923 34.6425 52.105 34.6546 52.2186 34.6546C52.5936 34.6546 52.9369 34.5237 53.1376 34.305C53.2828 34.1466 53.3477 33.9537 53.3297 33.7316C53.2913 33.2469 52.7746 33.0308 52.2784 33.0308C52.1435 33.0308 52.0103 33.0463 51.8813 33.0764V34.6193H51.8821Z" fill="#CDCAD5"/>
<path d="M60.4359 30.7002C60.4359 30.7002 60.4359 30.7906 60.4017 30.7906H60.0226V32.8036C60.0226 34.1415 60.3983 34.7571 61.1772 34.7597C61.9211 34.7623 62.3524 34.1872 62.3618 33.3934C62.3686 32.8217 62.3618 30.7906 62.3618 30.7906H61.992C61.9569 30.7906 61.9569 30.6994 61.9569 30.6994C61.9569 30.6994 61.9569 30.5986 61.992 30.5986L62.9212 30.6021C62.9664 30.6055 62.9596 30.7071 62.9596 30.7071C62.9596 30.7071 62.9596 30.7906 62.9212 30.7906C62.8836 30.7906 62.5479 30.7906 62.5479 30.7906L62.5445 33.3934C62.5027 34.2345 62.0321 34.9414 61.1772 34.9423C60.2395 34.9431 59.5383 34.2776 59.5383 33.3934V30.7906H59.1788C59.1429 30.7906 59.1472 30.7286 59.1438 30.6994C59.1438 30.6994 59.1326 30.6072 59.1788 30.5986H60.3915C60.4393 30.6064 60.4359 30.7002 60.4359 30.7002Z" fill="#CDCAD5"/>
<path d="M61.1761 35.0572H61.1744C60.6927 35.0572 60.2495 34.8894 59.9267 34.5837C59.6021 34.2763 59.4236 33.8545 59.4236 33.3947V30.9056H59.1777C59.1358 30.9056 59.0385 30.8875 59.0308 30.7222C59.0163 30.5957 59.0667 30.5044 59.1572 30.4881L60.3904 30.4863C60.4946 30.5001 60.5518 30.5871 60.5484 30.7033C60.5484 30.711 60.5476 30.742 60.5407 30.7748C60.5202 30.872 60.4545 30.9065 60.4007 30.9065H60.1351V32.8049C60.1351 34.4528 60.7295 34.6457 61.1761 34.6474C61.8295 34.6474 62.2377 34.167 62.2471 33.3938C62.2531 32.9074 62.2488 31.343 62.2471 30.9073H61.99C61.9217 30.9073 61.8423 30.854 61.8423 30.7024C61.8423 30.5035 61.955 30.4881 61.99 30.4881L62.9201 30.4915C63.0243 30.5001 63.0798 30.5888 63.0704 30.7179C63.0704 30.8471 62.9944 30.9082 62.9192 30.9082H62.6596L62.6562 33.3964C62.6075 34.39 62.0122 35.0564 61.1761 35.0572ZM59.6201 30.7136C59.6389 30.7343 59.6508 30.761 59.6508 30.7911V33.3938C59.6508 33.7899 59.8045 34.1532 60.0821 34.4167C60.2256 34.5527 60.3981 34.6578 60.5894 34.7275C60.1316 34.4597 59.9087 33.8235 59.9087 32.8041V30.7911C59.9087 30.761 59.9207 30.7334 59.9395 30.7128L59.6201 30.7136Z" fill="#CDCAD5"/>
<path d="M69.717 32.8415C70.0031 33.0188 70.2499 33.1049 70.4472 33.3727C70.8307 33.8945 70.6872 34.9664 71.7342 34.7391C71.6369 34.8699 71.49 34.9259 71.3491 34.938C70.1756 35.037 70.355 33.3477 69.5342 32.9844C69.366 32.9104 69.1192 32.9026 68.9168 32.9353V34.7537C68.9168 34.7537 69.2336 34.7537 69.2857 34.7537C69.3387 34.7537 69.331 34.845 69.331 34.845C69.331 34.845 69.3344 34.938 69.3028 34.9414L68.0884 34.9431C68.0576 34.944 68.0576 34.851 68.0576 34.851C68.0576 34.851 68.0576 34.7546 68.0884 34.7546L68.4769 34.7554V31.1333C68.5957 31.0842 68.7878 31.0997 68.9168 31.1324V32.7158C69.6948 32.832 70.1662 32.3654 70.1551 31.8186C70.1406 31.1411 69.5274 30.6779 68.8245 30.6942C68.5957 30.6994 68.2874 30.8139 68.155 30.8173C69.1354 30.2896 70.7188 30.7898 70.589 31.9013C70.5309 32.3972 70.1286 32.6435 69.717 32.8415Z" fill="#CDCAD5"/>
<path d="M68.0888 35.0581C68.0615 35.0581 67.9718 35.0477 67.9504 34.916C67.9453 34.8833 67.9453 34.8514 67.9453 34.8514C67.9453 34.656 68.0555 34.6405 68.0896 34.6405L68.3646 34.6413V31.1337C68.3646 31.0872 68.3928 31.0459 68.4355 31.0278C68.5602 30.9762 68.7712 30.977 68.9462 31.0227C68.9966 31.0356 69.0316 31.0812 69.0316 31.1329V32.6155C69.3681 32.6447 69.6483 32.5552 69.8344 32.3632C69.9736 32.2203 70.0479 32.0283 70.0428 31.8225C70.03 31.2448 69.5219 30.8091 68.86 30.8091H68.8284C68.7105 30.8117 68.5628 30.8479 68.4321 30.8806C68.3228 30.9073 68.228 30.9305 68.1588 30.9323C68.1059 30.934 68.0598 30.8978 68.0469 30.847C68.0333 30.7962 68.0572 30.742 68.1033 30.717C68.3757 30.5707 68.7003 30.4932 69.0427 30.4932C69.6081 30.4932 70.1274 30.6989 70.4314 31.0442C70.6475 31.2887 70.7414 31.59 70.703 31.9146C70.6492 32.3787 70.3289 32.6465 69.9566 32.8488C69.9642 32.8531 69.9719 32.8574 69.9796 32.8617C70.1837 32.9762 70.3767 33.0838 70.5399 33.3051C70.668 33.479 70.7397 33.7003 70.8089 33.9147C70.9583 34.3762 71.0779 34.6568 71.4716 34.6568C71.5434 34.6568 71.6245 34.6474 71.7125 34.6284C71.7586 34.6181 71.8064 34.6388 71.832 34.6784C71.8576 34.7188 71.8559 34.7705 71.8277 34.8084C71.7227 34.9496 71.557 35.0365 71.3614 35.0529C71.3247 35.0555 71.2897 35.0572 71.2555 35.0572C70.5809 35.0572 70.3357 34.4821 70.1188 33.9741C69.9548 33.5901 69.8003 33.2268 69.492 33.0899C69.3826 33.0416 69.2093 33.0218 69.0333 33.0373V34.6405H69.2896C69.3323 34.6405 69.3715 34.6577 69.3997 34.6887C69.4501 34.7438 69.4501 34.823 69.4476 34.8549C69.4552 35.0253 69.3519 35.052 69.3203 35.0555L68.0888 35.0581ZM68.591 31.2215V34.755C68.591 34.7817 68.5816 34.8084 68.5645 34.829H68.8318C68.8147 34.8092 68.8045 34.7834 68.8045 34.755V32.9357C68.8045 32.8841 68.8386 32.8402 68.8856 32.8264C68.8378 32.8126 68.8045 32.7679 68.8045 32.7171V31.2267C68.7293 31.2155 68.6507 31.2129 68.591 31.2215ZM69.8114 33.0287C70.0496 33.2388 70.1889 33.5651 70.3246 33.8828C70.5253 34.3521 70.6996 34.7627 71.142 34.8204C70.8166 34.6766 70.6996 34.3133 70.5928 33.9844C70.5288 33.7873 70.463 33.5841 70.3571 33.4403C70.2239 33.2595 70.0676 33.1717 69.8694 33.0606C69.8498 33.0511 69.831 33.0399 69.8114 33.0287ZM69.404 32.8264C69.4638 32.8385 69.5244 32.8557 69.5808 32.8806C69.5936 32.8867 69.6073 32.8927 69.6192 32.8987C69.6081 32.8798 69.603 32.8583 69.6047 32.8359C69.6064 32.8057 69.6192 32.7782 69.6406 32.7584C69.5654 32.7885 69.4868 32.8109 69.404 32.8264ZM69.7524 30.8539C70.0633 31.0769 70.2597 31.4196 70.2683 31.8173C70.2743 32.0851 70.1769 32.3357 69.995 32.5225C69.9489 32.5698 69.8976 32.6129 69.843 32.6508C70.1982 32.4588 70.4357 32.2409 70.4767 31.8879C70.5074 31.6262 70.4348 31.3929 70.2606 31.1957C70.1342 31.0519 69.9583 30.9357 69.7524 30.8539Z" fill="#CDCAD5"/>
<path d="M79.5291 30.5986C79.5556 30.5986 79.5556 30.6994 79.5556 30.6994C79.5556 30.6994 79.5539 30.7872 79.5223 30.7906L79.1516 30.7924L77.909 32.5789L77.9013 34.7546L78.3249 34.7571C78.3489 34.7632 78.3506 34.8536 78.3506 34.8536C78.3506 34.8536 78.3625 34.9423 78.3249 34.9423C78.1721 34.9423 77.0456 34.9423 77.0456 34.9423C77.0131 34.9423 77.0131 34.8536 77.0131 34.8536C77.0131 34.8536 77.0131 34.7571 77.0456 34.7571L77.4564 34.7546V32.5789L76.3846 30.7915H75.8602C75.8235 30.7915 75.8346 30.7002 75.8346 30.7002C75.8346 30.7002 75.8346 30.5995 75.8602 30.5995H77.2881C77.3146 30.5995 77.3146 30.7002 77.3146 30.7002C77.3146 30.7002 77.3146 30.7915 77.2881 30.7915H76.8236L77.8091 32.3834L78.9211 30.7915L78.5572 30.7924C78.5051 30.7915 78.5154 30.6976 78.5154 30.6976C78.5154 30.6976 78.5051 30.5995 78.5538 30.5995L79.5291 30.5986Z" fill="#CDCAD5"/>
<path d="M78.3254 35.057H77.046C76.9751 35.057 76.9 35.0036 76.9 34.8538C76.9 34.6584 77.0118 34.6429 77.046 34.6429L77.3441 34.6412V32.611L76.3201 30.9054H75.8598C75.8273 30.9054 75.7812 30.8847 75.7598 30.8598C75.7163 30.8107 75.7154 30.7375 75.7214 30.6858C75.7205 30.5128 75.8077 30.4852 75.8589 30.4852H77.2868C77.3389 30.4852 77.4261 30.5128 77.4261 30.7005C77.4261 30.8856 77.3287 30.9063 77.2868 30.9063H77.0264L77.8138 32.1771L78.7011 30.9063H78.5559C78.5124 30.9063 78.4731 30.8882 78.4458 30.8563C78.4014 30.8055 78.3988 30.7358 78.4014 30.697C78.3988 30.6574 78.4014 30.5842 78.4466 30.5326C78.474 30.5016 78.5124 30.4844 78.5534 30.4844H79.5287C79.5808 30.4844 79.6679 30.5119 79.6679 30.6996C79.6645 30.877 79.5646 30.9011 79.5338 30.9045L79.211 30.9063L78.0222 32.6153L78.0153 34.6412L78.3262 34.6429C78.3356 34.6429 78.345 34.6446 78.3544 34.6463C78.4611 34.6739 78.4637 34.8073 78.4654 34.8512C78.4697 34.8805 78.4731 34.958 78.427 35.0105C78.4048 35.0355 78.3578 35.057 78.3254 35.057ZM77.5431 34.8289H77.8146C77.7976 34.8091 77.7873 34.7824 77.7873 34.7539L77.795 32.5783C77.795 32.555 77.8018 32.5326 77.8155 32.5128L77.8283 32.4948C77.8206 32.4965 77.8138 32.4965 77.8052 32.4965C77.7677 32.4956 77.7327 32.4749 77.7122 32.4431L76.7266 30.852C76.7044 30.8167 76.7035 30.7728 76.7232 30.7358C76.7275 30.728 76.7334 30.7203 76.7394 30.7134H76.4661C76.4712 30.7194 76.4764 30.7254 76.4798 30.7323L77.5525 32.5206C77.5636 32.5387 77.5687 32.5585 77.5687 32.58V34.7557C77.5695 34.7832 77.5593 34.8091 77.5431 34.8289Z" fill="#CDCAD5"/>
</svg>
