<svg width="113" height="50" viewBox="0 0 113 50" fill="none" xmlns="http://www.w3.org/2000/svg">
<path d="M67.7287 10.6378C67.5294 10.5476 67.3039 10.5062 67.1159 10.3615C67.1215 10.1584 67.1497 10.04 67.1365 9.88586C67.1196 9.7129 66.9955 9.58131 67.0181 9.41024C67.035 9.28052 67.2324 9.10945 67.3151 8.99477C67.9975 8.03413 68.6066 6.74075 68.4036 5.1165C68.2043 3.52232 67.1666 2.39813 66.1082 1.63488C65.031 0.856594 63.6267 0.213661 61.9329 0.0519882C60.1921 -0.113445 58.4231 0.112146 57.0865 0.783278C57.6599 0.664842 58.1486 0.550167 58.7089 0.48625C60.6301 0.266299 62.4104 0.644163 63.6944 1.19874C64.5328 1.56156 65.3675 2.1011 65.9691 2.80043C66.4222 3.32681 66.753 3.96034 66.9974 4.68035C67.0783 4.91722 67.1967 5.17665 67.2343 5.41164C67.2945 5.77259 67.3114 6.21061 67.3133 6.5584C67.3189 7.46076 66.9843 8.63759 66.582 9.26924C66.5575 9.30872 66.5293 9.35384 66.503 9.38768C65.7097 10.3577 63.7922 10.7901 62.0908 10.713C60.773 10.6529 59.5059 10.401 58.4513 10.0212C58.096 9.89338 57.6918 9.78058 57.4418 9.58507C57.094 9.31248 57.1015 8.68083 57.3421 8.2992C57.579 7.9251 58.1073 7.82358 58.3122 7.38932C58.3629 7.28028 58.346 7.10169 58.4306 6.93438C58.5021 6.79527 58.7577 6.74827 58.7671 6.57907C58.7709 6.51892 58.6694 6.3986 58.6487 6.361C58.4776 6.0527 58.4381 5.68235 58.3122 5.37216C58.1374 4.94166 57.8441 4.49612 57.5001 4.24421C56.9286 3.82687 55.9604 3.74791 55.9773 2.77975C55.6653 2.83051 55.7781 3.34561 55.7198 3.59C54.5561 3.71971 53.8286 2.87751 54.0372 1.63112C53.8681 1.70256 53.7515 1.97139 53.7214 2.26466C53.6895 2.55792 53.7966 2.86059 53.7421 3.0749C53.4563 3.08618 53.18 2.90195 53.0108 2.75907C52.9394 2.69892 52.8943 2.58048 52.8134 2.61996C53.2007 3.43397 54.0955 3.72347 55.2066 3.90583C56.1164 4.05434 57.0244 4.22165 57.423 4.71795C57.5264 4.84579 57.6561 5.10146 57.6204 5.31201C57.5471 5.74815 56.9699 5.56204 56.7894 5.90606C57.2181 5.78387 57.532 5.9587 57.5809 6.32153C57.6655 6.96258 57.1147 7.90442 56.6109 8.24092C56.3176 8.43644 55.9303 8.4778 55.5825 8.30108C55.6483 8.49847 55.7837 8.52479 55.7611 8.75602C55.716 9.2166 54.9828 9.25232 54.4151 9.21096C53.1386 9.11885 52.2344 8.56991 51.2888 7.9251C50.8545 7.62995 50.4579 7.35548 49.9033 7.09417C49.6627 6.98138 48.3862 6.44372 48.2602 6.95506C48.217 7.13177 48.4106 7.43632 48.5178 7.58859C49.1795 8.53231 50.174 8.8707 51.4467 9.11133C52.1742 9.24856 53.0766 9.3388 53.306 9.94225C53.4507 10.3182 53.3586 10.9443 53.306 11.386C53.2533 11.8278 53.1762 12.2734 53.1875 12.7509C53.3229 13.7284 53.3905 15.1252 52.93 15.8377C52.8886 15.8997 52.8021 16.052 52.7119 16.1535C52.5164 16.3753 52.2062 16.6367 51.9017 16.8453C50.8771 17.5503 49.6871 18.3117 49.0122 19.4377C48.5855 20.1521 48.3881 20.7687 48.1813 21.7519C48.0516 22.3685 48.0384 23.1412 47.9444 23.771C47.9143 23.9665 47.8824 24.1864 47.8053 24.3443C47.5083 24.9609 46.4649 25.1865 45.807 25.5118C45.1828 25.8201 44.57 26.2468 44.0849 26.6585C43.2484 27.371 42.7765 27.9933 42.0866 28.8148C41.8666 29.078 41.658 29.3412 41.3741 29.5066C41.0451 29.7002 40.483 29.7547 40.3853 30.08C40.2499 30.5311 40.7537 30.8244 40.8402 31.2267C40.8928 31.473 40.8421 31.7287 40.9004 31.9392C40.9944 32.2757 41.2519 32.6743 41.4737 32.8491C41.5865 32.9374 41.7952 33.0465 41.9681 32.9487C41.9268 32.5445 41.6147 32.3039 41.532 31.9392C41.4192 31.4373 41.6016 30.6947 41.7896 30.3375C42.0339 29.8713 42.4193 29.6758 42.7784 29.407C43.333 28.9934 44.0398 28.5102 44.5982 28.1399C45.3952 27.6135 46.1792 27.121 47.0515 26.6961C47.4237 26.5138 47.8354 26.2449 48.2584 26.0438C48.5855 25.8877 48.8524 25.6791 49.11 25.4102C49.3544 25.1546 49.6288 24.8049 49.7623 24.6C50.1402 24.0172 50.4598 23.4664 50.8113 22.9175C51.0688 22.517 51.3997 21.9869 51.5821 21.6504C51.7061 21.4211 51.8791 21.1315 51.9374 20.9981C52.1141 20.6052 52.3058 20.2536 52.5709 19.9096C53.4488 20.1577 54.3568 20.4097 55.5788 20.483C56.5112 20.5394 57.5019 20.4567 58.269 20.3833C58.5378 20.3589 58.8592 20.3457 59.0811 20.4228C59.3217 20.5074 59.4646 20.7687 59.6357 21.0357C60.0737 21.7237 60.5907 22.3065 61.1584 22.8761C61.5287 23.2465 61.901 23.583 62.3051 23.865C62.651 24.1056 63.0778 24.3406 63.3541 24.4985C63.6869 24.6884 64.0177 24.8857 64.1663 25.2298C64.3185 25.5832 64.2039 26.2487 64.5216 26.3765C64.6738 26.4386 64.8562 26.3822 64.9558 26.3765C65.1419 26.2957 65.3036 26.1735 65.5292 26.1002C66.0556 25.9253 66.7117 26.1359 67.27 26.119C67.411 26.1152 67.8284 26.0569 67.8039 25.8614C67.7832 25.7016 67.3358 25.7016 67.1309 25.6828C66.8057 25.6528 66.5857 25.6076 66.3789 25.5437C65.939 25.4121 65.5875 25.2542 65.2115 25.0286C64.4708 24.585 63.8937 23.8725 63.3523 23.3066C62.4292 22.346 61.7205 21.4323 61.0174 20.3777C60.7824 20.0261 60.5587 19.6238 60.2654 19.3287C59.5605 18.6237 58.237 18.2459 57.2576 18.0222C56.9041 17.9413 56.3721 17.9094 56.1108 17.7251C55.8965 17.5747 55.7348 17.1198 55.6352 16.913C55.5731 16.7833 55.5243 16.6498 55.4773 16.5182C55.2554 15.896 55.3776 15.2305 55.5957 14.6195C55.7461 14.1946 55.9115 13.892 56.1296 13.5912C56.4905 13.093 56.9417 12.7941 57.0602 12.1869C57.1034 11.9688 57.0583 11.7169 57.1391 11.4349C57.2519 11.0458 57.5847 10.7976 58.0302 10.7826C58.6863 10.76 59.3894 10.933 60.0887 11.0006C61.5363 11.1416 63.0458 11.1435 64.3223 10.8822C64.9558 10.7525 65.5931 10.4931 66.221 10.4874C67.2305 10.4762 67.8622 11.1134 68.2983 11.715C68.7683 12.3617 69.1161 13.1926 69.0503 14.268C69.0014 15.0462 68.7702 15.7531 68.4374 16.3265C67.3791 18.15 64.9953 19.6671 62.3239 18.8982C61.3069 18.6068 60.8106 18.2045 60.0492 17.6518C60.0906 17.8097 60.1489 17.8812 60.2466 17.9883C61.1471 18.8324 62.4461 19.6295 64.1644 19.6295C65.0743 19.6295 65.877 19.5111 66.518 19.2742C67.1986 19.0223 67.7438 18.6538 68.2795 18.2647C68.2927 18.2553 68.3359 18.3098 68.3002 18.244C68.8247 17.8248 69.3003 17.3172 69.6462 16.6818C69.9884 16.0501 70.276 15.2587 70.2196 14.3281C70.1143 12.5553 69.0259 11.23 67.7287 10.6378ZM55.1652 11.1322C55.1502 11.2037 55.2404 11.6849 55.1859 11.7263C55.1314 11.7677 54.9415 11.4688 54.7704 11.3898C54.526 11.4575 54.2403 11.6699 54.1764 11.6267C54.0824 11.5533 54.3606 11.1247 54.3343 10.8747C54.3192 10.7281 53.8023 10.2656 53.8793 10.2017C53.9545 10.1378 54.261 10.307 54.5129 10.2806C54.6933 10.1509 54.7704 9.66215 54.8494 9.68658C54.9283 9.71102 54.9904 10.3464 55.028 10.3991C55.1802 10.6115 55.6991 10.6115 55.7198 10.6961C55.7423 10.7807 55.1859 11.042 55.1652 11.1322Z" fill="#CDCAD5"/>
<path d="M59.2198 15.8019C59.2649 15.7625 59.3025 15.7155 59.357 15.6685C59.3683 15.6591 59.4115 15.6365 59.4115 15.6083C59.4115 15.5801 59.3984 15.5632 59.3664 15.5632C59.3344 15.5632 59.1803 15.567 59.1803 15.567C59.1803 15.567 58.9961 15.567 58.9773 15.5576L58.8682 15.1402C58.8645 15.1214 58.8306 15.1045 58.8306 15.1045C58.7893 15.1083 58.7573 15.1553 58.7254 15.2605C58.6934 15.3658 58.6389 15.5124 58.6295 15.5406C58.6201 15.5688 58.5956 15.6008 58.5599 15.6328C58.5223 15.6647 58.4659 15.6797 58.4114 15.7042C58.3569 15.7267 58.2347 15.7474 58.199 15.7625C58.1633 15.7756 58.1445 15.7944 58.1388 15.8264C58.1351 15.8583 58.2046 15.8884 58.2554 15.9166C58.3061 15.9448 58.3531 15.9843 58.3794 16.0087C58.4133 16.0426 58.417 16.0313 58.4302 16.0708C58.4471 16.114 58.402 16.2042 58.37 16.2851C58.3644 16.2982 58.3343 16.3565 58.3494 16.3791C58.3625 16.4016 58.3851 16.3979 58.4321 16.3791C58.4772 16.3603 58.5374 16.3152 58.5656 16.302C58.5938 16.2888 58.6577 16.2663 58.7066 16.2738C58.7573 16.2832 58.8851 16.3734 58.9171 16.3941C58.9491 16.4148 59.0224 16.4562 59.0543 16.475C59.0863 16.4938 59.122 16.5126 59.1465 16.4938C59.1709 16.475 59.1653 16.4204 59.1521 16.3791C59.1389 16.3377 59.1258 16.2644 59.0957 16.1046C59.0957 16.1046 59.0637 15.9993 59.0863 15.958C59.1107 15.9147 59.1859 15.832 59.2198 15.8019Z" fill="#CDCAD5"/>
<path d="M67.7922 8.98298C67.7771 9.0375 67.9125 9.13902 67.9933 9.19729C68.076 9.25557 68.1682 9.33453 68.2076 9.38528C68.2603 9.45108 68.2697 9.43604 68.2847 9.50936C68.3035 9.58832 68.2546 9.71615 68.1813 9.84963C68.1682 9.87218 68.046 10.0207 68.0648 10.0639C68.0836 10.1072 68.0854 10.1279 68.17 10.1053C68.2546 10.0827 68.4652 9.93986 68.5159 9.92106C68.5667 9.90226 68.6833 9.87594 68.7697 9.90414C68.8562 9.93046 69.0611 10.1166 69.1119 10.1598C69.1626 10.2031 69.2491 10.2651 69.2999 10.3046C69.3525 10.344 69.4634 10.4493 69.5067 10.4211C69.5499 10.3929 69.5349 10.2782 69.5255 10.1843C69.5161 10.1034 69.5029 9.97746 69.486 9.69171C69.486 9.69171 69.4559 9.50372 69.501 9.43416C69.5743 9.32325 69.6984 9.23865 69.7661 9.19353C69.8544 9.13526 69.956 9.08074 70.0556 9.00178C70.1308 8.9435 70.2286 8.92658 70.2342 8.87771C70.2398 8.82883 70.144 8.83447 70.0876 8.82695C70.0312 8.81943 69.7341 8.84575 69.7341 8.84575C69.7341 8.84575 69.486 8.88711 69.3544 8.77243C69.3281 8.74987 69.2923 7.99414 69.2905 7.96218C69.2848 7.86631 69.2115 7.84375 69.2115 7.84375C69.1382 7.84375 69.095 7.96406 69.016 8.14078C68.937 8.31749 68.8111 8.56188 68.7904 8.60888C68.7679 8.654 68.7077 8.75175 68.7077 8.75175C68.6607 8.79875 68.6551 8.85703 68.5573 8.88523C68.4558 8.91342 68.0873 8.90966 68.0215 8.92658C67.9595 8.93974 67.8072 8.92658 67.7922 8.98298Z" fill="#CDCAD5"/>
<path d="M54.9143 2.07096C54.967 2.04276 55.138 1.94125 55.138 1.94125C55.138 1.94125 55.2038 1.90365 55.2715 1.90929C55.3392 1.91305 55.3711 1.94689 55.3993 1.98073C55.4275 2.01457 55.5573 2.133 55.5573 2.133C55.5573 2.133 55.5817 2.1612 55.6099 2.1518C55.6381 2.1424 55.6437 2.07472 55.6381 2.01833C55.6325 1.96193 55.6231 1.84725 55.6231 1.84725C55.6231 1.84725 55.6005 1.77958 55.6381 1.71754C55.6757 1.6555 55.7283 1.6367 55.7904 1.6085C55.8524 1.5803 55.952 1.52767 55.9671 1.49007C55.9802 1.45247 55.952 1.44307 55.9295 1.43367C55.905 1.42427 55.7998 1.39043 55.7716 1.38103C55.7434 1.37163 55.6682 1.34719 55.6325 1.319C55.6024 1.29456 55.5892 1.27388 55.5855 1.18552C55.5817 1.1122 55.5779 1.11972 55.5817 1.05581C55.5836 1.01257 55.5949 0.901653 55.5573 0.894133C55.5573 0.894133 55.5516 0.879093 55.5103 0.922332C55.467 0.96557 55.3674 1.10656 55.3674 1.10656C55.3674 1.10656 55.3204 1.17424 55.2809 1.20244C55.2433 1.23064 55.185 1.24568 55.1418 1.24568C55.0986 1.24568 54.9425 1.21748 54.9425 1.21748C54.9425 1.21748 54.8805 1.20808 54.8711 1.24568C54.8617 1.28328 54.9143 1.35095 54.9482 1.38291C54.982 1.41675 55.029 1.47879 55.0384 1.55023C55.0478 1.62166 54.9952 1.71754 54.9613 1.7683C54.9275 1.82093 54.8373 1.95817 54.8373 1.95817L54.7997 2.04464C54.7997 2.04464 54.7846 2.08224 54.7997 2.09164C54.8373 2.12172 54.8617 2.09916 54.9143 2.07096Z" fill="#CDCAD5"/>
<path d="M3.23297 46.0486C3.89863 46.3235 4.67843 46.6845 4.50781 47.7807C4.29634 49.1398 2.37867 49.3215 0.86952 49.0296V43.8658C1.01491 43.8197 1.34293 43.8222 1.48832 43.8682V46.0159C2.91095 46.4241 3.97192 44.8748 3.15126 43.8428C2.53967 43.0748 0.932001 43.0384 0.158203 43.7022C0.410528 43.3328 1.0077 43.1571 1.57123 43.0881C2.69828 42.9488 4.08847 43.4503 4.12091 44.624C4.13894 45.2963 3.67634 45.7142 3.23297 46.0486ZM3.84335 47.4452C3.76766 46.4834 2.52045 46.1128 1.48832 46.412V48.8346C2.62979 49.141 3.93227 48.5826 3.84335 47.4452Z" fill="#CDCAD5"/>
<path d="M2.08676 49.3086C1.68424 49.3086 1.25409 49.2662 0.840757 49.1863C0.765059 49.1717 0.710989 49.1051 0.710989 49.0288V43.865C0.710989 43.7947 0.756648 43.7329 0.822733 43.7111C0.934477 43.676 1.08948 43.6712 1.17118 43.6712C1.23967 43.6712 1.4139 43.6748 1.53645 43.7136C1.60254 43.7341 1.6482 43.7971 1.6482 43.8674V45.8891C2.27541 46.0211 2.89661 45.7134 3.15975 45.1623C3.3568 44.7492 3.30634 44.2938 3.02758 43.9425C2.75482 43.5997 2.22494 43.3938 1.61095 43.3938C1.08107 43.3938 0.576416 43.5549 0.262811 43.8238C0.201532 43.8759 0.111416 43.8747 0.0525403 43.8214C-0.00633558 43.7669 -0.0171495 43.6772 0.0273078 43.6106C0.332501 43.1648 1.02459 42.9928 1.55207 42.9274C2.77645 42.7772 4.24595 43.3611 4.27959 44.6184C4.29641 45.2374 3.95878 45.6577 3.54424 46.0054C4.11978 46.2634 4.83591 46.7128 4.66529 47.8042C4.5187 48.7611 3.57789 49.3086 2.08676 49.3086ZM1.0294 48.8944C1.14355 48.9137 1.2589 48.9307 1.37304 48.944C1.34541 48.9149 1.32859 48.875 1.32859 48.8326V46.4112C1.32859 46.3397 1.37545 46.2767 1.44393 46.2573C1.50401 46.2404 1.56409 46.2246 1.62417 46.2113C1.56409 46.2004 1.50401 46.1859 1.44393 46.1689C1.37545 46.1495 1.32859 46.0865 1.32859 46.0138V43.9994C1.23486 43.9897 1.1087 43.9897 1.0282 43.9982V48.8944H1.0294ZM2.46045 46.1616C3.32796 46.2428 3.94916 46.7431 4.00323 47.4323C4.03447 47.832 3.91192 48.1954 3.64878 48.4825C3.49979 48.6448 3.30754 48.7793 3.08645 48.8786C3.6668 48.7393 4.24715 48.4292 4.35289 47.7557C4.49827 46.8242 3.90591 46.4996 3.17537 46.198C3.1225 46.1762 3.08525 46.1265 3.07804 46.0696C3.07083 46.0126 3.09486 45.9557 3.14052 45.9206C3.54785 45.6129 3.98041 45.235 3.96358 44.6293C3.94556 43.9813 3.44211 43.5512 2.80169 43.3526C2.99273 43.4568 3.15494 43.5888 3.2763 43.7426C3.63436 44.1932 3.69804 44.7759 3.44692 45.3028C3.24986 45.7147 2.887 46.0235 2.46045 46.1616ZM1.6482 48.7066C1.8032 48.7393 1.9618 48.7563 2.12161 48.7563C2.64909 48.7563 3.13211 48.5721 3.41448 48.2645C3.61874 48.0416 3.71006 47.7703 3.68482 47.4577C3.63075 46.7758 2.90382 46.4717 2.20572 46.4717C2.01587 46.4717 1.82843 46.4935 1.647 46.5359V48.7066H1.6482Z" fill="#CDCAD5"/>
<path d="M12.8801 43.05C12.9258 43.05 12.9306 43.1772 12.9306 43.1772C12.9306 43.1772 12.9366 43.3226 12.8801 43.3226H12.313V48.8207H14.2283C14.4169 48.8171 14.8086 48.1775 14.9588 47.9789C14.9972 47.928 15.0477 47.9147 15.0429 47.9377C15.0177 48.054 14.7738 48.8898 14.7065 49.0909C14.6921 49.1333 14.6536 49.1599 14.6536 49.1599C14.6536 49.1599 11.1595 49.1599 11.0165 49.1575C10.9648 49.1599 10.9648 49.0037 10.9648 49.0037C10.9648 49.0037 10.9648 48.8207 11.0165 48.8207H11.6858V43.3226H11.0574C11.0165 43.3226 11.0165 43.1845 11.0165 43.1845C11.0165 43.1845 11.0165 43.05 11.0778 43.0488L12.8801 43.05Z" fill="#CDCAD5"/>
<path d="M13.8613 49.3208C12.6141 49.3208 11.1085 49.3208 11.0136 49.3183C10.9727 49.3171 10.9127 49.2917 10.8838 49.2626C10.8189 49.1972 10.8045 49.0858 10.8057 49.0034C10.8057 49.0034 10.8057 48.9465 10.8141 48.8895C10.843 48.6824 10.9655 48.6606 11.0172 48.6606H11.5279V43.4834H11.0581C10.998 43.4834 10.8574 43.4544 10.8574 43.1842C10.8574 43.0086 10.9451 42.8899 11.0761 42.8887H12.8796C12.9769 42.8887 13.0827 42.9638 13.0887 43.1721C13.0911 43.2327 13.0863 43.3502 13.0178 43.4229C12.9877 43.4544 12.9229 43.4834 12.8796 43.4834H12.4723V48.6606H14.2277C14.3155 48.6243 14.5966 48.2172 14.7024 48.0646C14.754 47.9895 14.7985 47.9253 14.8321 47.8817C14.9234 47.7606 15.0917 47.7364 15.1662 47.8308C15.1962 47.8696 15.2082 47.9265 15.1974 47.975C15.1698 48.101 14.9246 48.9428 14.8574 49.1427C14.8285 49.2287 14.7624 49.2796 14.7432 49.2929C14.7168 49.3111 14.6855 49.3208 14.6531 49.3208H13.8613ZM11.1241 48.9973C11.4365 48.9985 12.3846 48.9985 13.8625 48.9985H14.5726C14.5954 48.9234 14.6351 48.7902 14.6783 48.6424C14.4969 48.8714 14.3671 48.978 14.2325 48.9816H12.3137C12.226 48.9816 12.1539 48.9101 12.1539 48.8205V43.3223C12.1539 43.2787 12.1707 43.2387 12.1995 43.2097H11.7994C11.8282 43.2387 11.8451 43.2787 11.8451 43.3223V48.8205C11.8451 48.9089 11.7742 48.9816 11.6853 48.9816H11.1229C11.1241 48.9864 11.1241 48.9925 11.1241 48.9973Z" fill="#CDCAD5"/>
<path d="M24.3105 43.0469C25.7295 43.0469 27.3108 44.2182 27.3108 46.1067C27.3108 47.7819 26.0912 49.1592 24.2973 49.1592C22.7257 49.1592 21.3223 47.7795 21.3223 46.1067C21.3235 44.4956 22.7028 43.0469 24.3105 43.0469ZM22.0612 46.1018C22.0612 47.7686 22.835 48.9533 24.3117 48.9533C26.1921 48.9533 26.555 47.5845 26.555 46.103C26.555 44.515 25.5673 43.2661 24.3117 43.2698C22.96 43.2746 22.0612 44.5465 22.0612 46.1018Z" fill="#CDCAD5"/>
<path d="M24.2967 49.3188C22.5977 49.3188 21.1631 47.8471 21.1631 46.1064C21.1631 44.3912 22.6338 42.8867 24.3099 42.8867C25.8299 42.8867 27.47 44.1174 27.47 46.1064C27.47 47.9379 26.1063 49.3188 24.2967 49.3188ZM24.3172 43.2695L24.3111 43.4306C23.0988 43.4354 22.2192 44.5583 22.2192 46.1016C22.2192 47.7865 23.0003 48.7919 24.3099 48.7919C25.7698 48.7919 26.3934 47.9876 26.3934 46.1016C26.3934 44.6032 25.4815 43.4294 24.3172 43.4294V43.2695ZM22.9474 43.5917C22.0883 44.1017 21.4815 45.061 21.4815 46.1064C21.4815 47.0633 21.9621 47.9294 22.683 48.4588C22.1808 47.9379 21.8996 47.1263 21.8996 46.1016C21.9008 45.0138 22.3022 44.1114 22.9474 43.5917ZM25.4766 43.4718C26.2192 43.9745 26.7118 44.9532 26.7118 46.1028C26.7118 46.838 26.6313 47.7102 26.1663 48.3267C26.7755 47.8047 27.1504 47.0173 27.1504 46.1064C27.1516 44.8297 26.4018 43.9006 25.4766 43.4718Z" fill="#CDCAD5"/>
<path d="M36.8408 43.0469C38.2598 43.0469 39.8411 44.2182 39.8411 46.1067C39.8411 47.7819 38.6215 49.1592 36.8276 49.1592C35.2559 49.1592 33.8525 47.7795 33.8525 46.1067C33.8525 44.4956 35.2331 43.0469 36.8408 43.0469ZM34.5903 46.1018C34.5903 47.7686 35.3641 48.9533 36.8408 48.9533C38.7212 48.9533 39.0829 47.5845 39.0829 46.103C39.0829 44.515 38.0952 43.2661 36.8408 43.2698C35.4903 43.2746 34.5903 44.5465 34.5903 46.1018Z" fill="#CDCAD5"/>
<path d="M36.829 49.3188C35.13 49.3188 33.6953 47.8471 33.6953 46.1064C33.6953 44.3912 35.166 42.8867 36.8422 42.8867C38.3621 42.8867 40.0022 44.1174 40.0022 46.1064C40.0022 47.9379 38.6373 49.3188 36.829 49.3188ZM36.8494 43.2695L36.8434 43.4306C35.631 43.4354 34.7515 44.5583 34.7515 46.1016C34.7515 47.7865 35.5325 48.7919 36.8422 48.7919C38.3021 48.7919 38.9257 47.9876 38.9257 46.1016C38.9257 44.6032 38.0137 43.4294 36.8494 43.4294V43.2695ZM35.4784 43.5917C34.6193 44.1017 34.0125 45.061 34.0125 46.1064C34.0125 47.0633 34.4931 47.9294 35.2141 48.4588C34.7118 47.9379 34.4307 47.1263 34.4307 46.1016C34.4331 45.0138 34.8344 44.1114 35.4784 43.5917ZM38.0089 43.4718C38.7514 43.9745 39.2441 44.9532 39.2441 46.1028C39.2441 46.838 39.1636 47.7102 38.6986 48.3267C39.3077 47.8047 39.6826 47.0173 39.6826 46.1064C39.6826 44.8297 38.9341 43.9006 38.0089 43.4718Z" fill="#CDCAD5"/>
<path d="M53.4775 48.9017C53.5436 48.9017 53.5436 48.9611 53.5436 49.0398C53.5436 49.1185 53.5424 49.167 53.4775 49.167C53.4127 49.167 51.7016 49.1646 51.7016 49.1646C51.6476 49.1646 51.6476 49.1161 51.6476 49.0374C51.6476 48.9599 51.6476 48.8993 51.7016 48.8993L52.2784 48.9005C52.2784 48.9005 51.5755 45.9679 51.2318 44.5325L49.468 48.7854L47.8579 44.501C47.8435 44.5797 46.7741 48.8884 46.7741 48.8884H47.3076C47.3641 48.8884 47.3568 49.0313 47.3568 49.0313C47.3568 49.0313 47.3436 49.1634 47.2872 49.1621L45.8705 49.1549C45.8165 49.1549 45.8225 49.0277 45.8225 49.0277C45.8225 49.0277 45.8153 48.8896 45.8886 48.8896C45.963 48.8896 46.3836 48.8823 46.3836 48.8823C46.3836 48.8823 47.9384 43.0922 47.9384 43.0547L49.6518 47.5269L51.4722 43.0559L52.902 48.9005C52.9032 48.9017 53.4115 48.9017 53.4775 48.9017Z" fill="#CDCAD5"/>
<path d="M53.4764 49.3287L51.7005 49.3263C51.6056 49.3263 51.5299 49.2706 51.5022 49.1797C51.4878 49.1349 51.4878 49.0889 51.4878 49.0392C51.4878 48.8405 51.5599 48.74 51.7005 48.74H52.0742L51.1898 45.0467L49.6134 48.8478C49.5882 48.9072 49.5305 48.9459 49.4668 48.9459C49.4656 48.9459 49.4644 48.9459 49.4644 48.9459C49.3995 48.9447 49.3407 48.9035 49.3178 48.8418L47.8904 45.0419C47.6597 45.9818 47.1707 47.9514 46.9784 48.7291H47.3076C47.3509 48.7291 47.4158 48.7582 47.4458 48.7897C47.5131 48.8611 47.5179 48.9774 47.5155 49.0404C47.4975 49.2185 47.411 49.3251 47.2872 49.3251L45.8694 49.3178C45.8261 49.3178 45.7612 49.2887 45.7312 49.2572C45.6651 49.187 45.6603 49.0804 45.6627 49.0222C45.6603 48.9932 45.6615 48.8769 45.7348 48.7981C45.7745 48.7557 45.8285 48.7315 45.8862 48.7315C45.9355 48.7315 46.1301 48.7279 46.2611 48.7255C46.7934 46.745 47.7534 43.1583 47.7822 43.0262C47.7835 42.9487 47.8363 42.8978 47.912 42.8845C47.9865 42.8724 48.0598 42.9269 48.0874 42.9984L49.6567 47.0938L51.3256 42.9959C51.3521 42.9317 51.4145 42.8918 51.4842 42.8966C51.5527 42.9015 51.6104 42.9511 51.6272 43.019L53.027 48.7412H53.4764C53.6254 48.7412 53.7011 48.8418 53.7011 49.0404C53.7011 49.2318 53.6254 49.3287 53.4764 49.3287ZM52.3962 49.0065L52.7807 49.0077C52.7651 48.9895 52.7531 48.9665 52.747 48.9411L51.435 43.5737L50.35 46.2398L51.0829 44.4713C51.1093 44.4071 51.173 44.3672 51.2427 44.3732C51.3112 44.3793 51.3689 44.4277 51.3845 44.4956L52.431 48.8636C52.4431 48.9108 52.4322 48.9617 52.401 49.0004C52.3998 49.0029 52.3986 49.0041 52.3962 49.0065ZM46.4942 48.9992L46.6576 49.0004C46.654 48.9968 46.6504 48.9932 46.648 48.9883C46.6179 48.9496 46.6071 48.8987 46.6192 48.8502C46.7874 48.1743 47.1094 46.8722 47.3593 45.8631C47.1502 46.6444 46.8823 47.645 46.5374 48.9265C46.529 48.9544 46.5146 48.9798 46.4942 48.9992ZM47.8567 44.3429C47.9228 44.3429 47.9817 44.3829 48.0057 44.4459L49.4728 48.3524L49.7696 47.6377C49.7396 47.6704 49.6963 47.6946 49.6507 47.6898C49.5858 47.6886 49.5269 47.6486 49.5041 47.5868L47.9685 43.5774C47.9192 43.7663 47.8507 44.0244 47.7558 44.3793C47.781 44.3587 47.8111 44.3454 47.8447 44.3429C47.8483 44.3429 47.8519 44.3429 47.8567 44.3429Z" fill="#CDCAD5"/>
<path d="M62.6441 43.2437C62.8123 43.2522 62.7967 42.999 62.9649 43.0971C62.9901 43.1274 63.007 43.6701 63.0671 44.1861C63.0671 44.1861 62.9697 44.1885 62.8183 43.8627C62.3942 42.9457 60.4537 43.165 60.8334 44.5689C61.1325 45.676 63.1295 45.8359 63.49 47.1878C63.9634 48.9623 61.7658 49.8308 60.4248 48.8061C60.2194 48.7952 60.3768 49.1501 60.1905 49.1598C60.1269 49.1477 60.1341 49.1198 60.1341 49.1198L60.0439 47.7171C60.1617 47.7122 60.2626 48.0405 60.3648 48.2174C60.6315 48.6813 61.2046 49.0762 61.9124 49.012C62.4747 48.9611 63.0719 48.4778 62.9926 47.7171C62.8844 46.6875 61.5183 46.3822 60.8622 45.7754C60.5931 45.5258 60.3551 45.1418 60.3071 44.7445C60.1413 43.3527 61.4353 42.7144 62.6441 43.2437Z" fill="#CDCAD5"/>
<path d="M61.7362 49.4032C61.2796 49.4032 60.8302 49.2688 60.4565 49.0229C60.4445 49.1198 60.4072 49.3088 60.1994 49.3185C60.1874 49.3197 60.1753 49.3185 60.1633 49.316C60.0912 49.3027 60.0384 49.27 60.0059 49.2191C59.9903 49.1949 59.9795 49.161 59.9783 49.1283H59.9771L59.887 47.7268C59.8846 47.6832 59.899 47.6408 59.9278 47.6093C59.9567 47.5766 59.9963 47.5584 60.0396 47.556C60.233 47.556 60.3255 47.7559 60.4217 47.9666C60.4493 48.0272 60.4769 48.0878 60.5046 48.1362C60.6968 48.4693 61.1414 48.8582 61.7626 48.8582C61.8071 48.8582 61.8527 48.8557 61.8996 48.8521C62.1783 48.8267 62.4499 48.6825 62.6265 48.4657C62.7911 48.2634 62.8632 48.0102 62.8344 47.7341C62.7707 47.126 62.1711 46.7832 61.592 46.4525C61.2796 46.2732 60.984 46.1048 60.7545 45.8929C60.4241 45.5864 60.197 45.1649 60.1489 44.7639C60.0864 44.2382 60.2114 43.7791 60.5118 43.4375C60.9864 42.8973 61.8575 42.7471 62.6517 43.0741C62.6553 43.0681 62.6613 43.0596 62.6662 43.0535C62.7022 43.0051 62.7707 42.9154 62.8945 42.9154C62.9437 42.9154 62.9918 42.93 63.0422 42.959C63.0591 42.9687 63.0735 42.9808 63.0855 42.9954C63.1312 43.0499 63.1348 43.0959 63.16 43.4484C63.1744 43.6507 63.1936 43.9124 63.2237 44.1692C63.2285 44.2152 63.2153 44.26 63.184 44.2951C63.154 44.329 63.1107 44.3496 63.0651 44.3496C62.9317 44.3496 62.7995 44.2091 62.6722 43.9329C62.5436 43.6543 62.2108 43.4739 61.8251 43.4739C61.5103 43.4739 61.2303 43.595 61.0777 43.7961C60.9359 43.9838 60.9047 44.2297 60.9852 44.5289C61.1102 44.9916 61.6052 45.286 62.1303 45.5985C62.7431 45.9631 63.4363 46.3762 63.643 47.149C63.8341 47.8637 63.6094 48.3603 63.3871 48.6522C63.0302 49.121 62.4126 49.4032 61.7362 49.4032ZM60.9143 43.4981C60.8554 43.5441 60.8014 43.5938 60.7533 43.6495C60.5142 43.9208 60.4157 44.2927 60.4673 44.7239C60.5058 45.0461 60.6992 45.4023 60.972 45.6554C61.1738 45.842 61.455 46.0031 61.7506 46.1715C62.3706 46.5252 63.0723 46.9261 63.1528 47.6989C63.1912 48.0623 63.0939 48.3966 62.874 48.668C62.8332 48.7176 62.7887 48.7649 62.7419 48.8085C62.8969 48.7116 63.0314 48.5929 63.1372 48.4524C63.3931 48.1168 63.4616 47.6929 63.3378 47.2277C63.1648 46.5809 62.558 46.2199 61.9717 45.8698C61.4153 45.5391 60.841 45.1976 60.6812 44.6089C60.5466 44.1098 60.6872 43.7827 60.8278 43.5962C60.8542 43.5623 60.8831 43.5296 60.9143 43.4981ZM60.4169 48.645C60.4517 48.645 60.4938 48.6571 60.5214 48.6777C60.531 48.6849 60.5394 48.691 60.549 48.6983C60.4229 48.5795 60.3207 48.4511 60.2438 48.324L60.2667 48.6886C60.3051 48.6607 60.3532 48.645 60.4169 48.645ZM62.6457 43.4036C62.725 43.4642 62.7959 43.5332 62.8548 43.6119C62.8512 43.5623 62.8476 43.515 62.844 43.4702C62.8404 43.4278 62.838 43.383 62.8344 43.3406C62.7899 43.3769 62.7334 43.4084 62.6457 43.4036Z" fill="#CDCAD5"/>
<path d="M74.5799 46.0483C75.2455 46.3233 76.0253 46.6843 75.8547 47.7805C75.6432 49.1396 73.7244 49.3213 72.2152 49.0294V43.8655C72.3606 43.8195 72.6886 43.8219 72.834 43.868V46.0156C74.2567 46.4238 75.3176 44.8746 74.497 43.8425C73.8866 43.0745 72.2777 43.0394 71.5039 43.7032C71.7562 43.3338 72.3534 43.1581 72.9169 43.0891C74.044 42.9498 75.4342 43.4513 75.4666 44.625C75.4846 45.2961 75.022 45.714 74.5799 46.0483ZM75.1891 47.445C75.1134 46.4832 73.8662 46.1125 72.834 46.4117V48.8343C73.9755 49.1408 75.2792 48.5824 75.1891 47.445Z" fill="#CDCAD5"/>
<path d="M73.4313 49.3086C73.0287 49.3086 72.5986 49.2662 72.1852 49.1863C72.1108 49.1717 72.0555 49.1051 72.0555 49.0288V43.865C72.0555 43.7947 72.1011 43.7329 72.1672 43.7111C72.279 43.676 72.434 43.6712 72.5157 43.6712C72.5842 43.6712 72.7584 43.6748 72.8809 43.7136C72.947 43.7341 72.9927 43.7971 72.9927 43.8674V45.8891C73.6199 46.0211 74.2411 45.7134 74.5042 45.1623C74.7013 44.7492 74.6508 44.2938 74.3721 43.9425C74.0993 43.5997 73.5694 43.3938 72.9554 43.3938C72.4256 43.3938 71.9209 43.5549 71.6073 43.825C71.546 43.8771 71.4559 43.8759 71.397 43.8214C71.3381 43.7669 71.3273 43.6772 71.373 43.6106C71.6782 43.1648 72.3703 42.9928 72.8978 42.9274C74.1221 42.7772 75.5916 43.3611 75.6253 44.6184C75.6421 45.2374 75.3045 45.6577 74.8899 46.0054C75.4655 46.2634 76.1816 46.7128 76.011 47.8042C75.8632 48.7611 74.9224 49.3086 73.4313 49.3086ZM72.3751 48.8944C72.4892 48.9137 72.6046 48.9307 72.7187 48.944C72.6911 48.9149 72.6743 48.875 72.6743 48.8326V46.4112C72.6743 46.3397 72.7211 46.2767 72.7896 46.2573C72.8497 46.2404 72.9098 46.2246 72.9711 46.2113C72.911 46.2004 72.8509 46.1859 72.7908 46.1689C72.7223 46.1495 72.6755 46.0865 72.6755 46.0138V43.9994C72.5806 43.9897 72.4544 43.9897 72.3751 43.9982V48.8944ZM73.8061 46.1616C74.6737 46.2428 75.2937 46.7431 75.3489 47.4323C75.3802 47.832 75.2576 48.1954 74.9945 48.4825C74.8455 48.6448 74.6532 48.7793 74.4321 48.8786C75.0125 48.7393 75.5928 48.4292 75.6986 47.7557C75.844 46.8242 75.2504 46.4996 74.5211 46.198C74.4682 46.1762 74.4309 46.1265 74.4237 46.0696C74.4165 46.0126 74.4406 45.9557 74.4862 45.9206C74.8935 45.6129 75.3261 45.235 75.3093 44.6293C75.2913 43.9813 74.7878 43.5512 74.1474 43.3526C74.3384 43.4568 74.5006 43.5888 74.6232 43.7426C74.9813 44.1932 75.0449 44.7759 74.7938 45.3028C74.5944 45.7147 74.2327 46.0235 73.8061 46.1616ZM72.9939 48.7066C73.1489 48.7393 73.3075 48.7563 73.4673 48.7563C73.9948 48.7563 74.4778 48.5721 74.7602 48.2645C74.9644 48.0416 75.0558 47.7703 75.0305 47.4577C74.9764 46.7758 74.2495 46.4717 73.5514 46.4717C73.3616 46.4717 73.1741 46.4935 72.9927 46.5359V48.7066H72.9939Z" fill="#CDCAD5"/>
<path d="M85.0276 43.1937C85.0276 43.1937 85.0276 43.3209 84.9795 43.3209H84.4461V46.153C84.4461 48.0353 84.9747 48.9014 86.0706 48.9051C87.1171 48.9087 87.7239 48.0995 87.7371 46.9827C87.7467 46.1784 87.7371 43.3209 87.7371 43.3209H87.2168C87.1676 43.3209 87.1676 43.1925 87.1676 43.1925C87.1676 43.1925 87.1676 43.0508 87.2168 43.0508L88.5241 43.0556C88.5878 43.0605 88.5782 43.2034 88.5782 43.2034C88.5782 43.2034 88.5782 43.3209 88.5241 43.3209C88.4713 43.3209 87.999 43.3209 87.999 43.3209L87.9942 46.9827C87.9354 48.1662 87.2733 49.1607 86.0706 49.1619C84.7513 49.1631 83.7648 48.2267 83.7648 46.9827V43.3209H83.2589C83.2085 43.3209 83.2145 43.2337 83.2097 43.1925C83.2097 43.1925 83.194 43.0629 83.2589 43.0508H84.9651C85.0324 43.0617 85.0276 43.1937 85.0276 43.1937Z" fill="#CDCAD5"/>
<path d="M86.0696 49.3235H86.0672C85.3895 49.3235 84.7659 49.0872 84.3118 48.6572C83.8552 48.2248 83.604 47.6312 83.604 46.9844V43.4825H83.258C83.1991 43.4825 83.0621 43.4571 83.0513 43.2245C83.0309 43.0464 83.1018 42.918 83.2292 42.895L84.9642 42.8926C85.1108 42.912 85.1913 43.0343 85.1865 43.1978C85.1865 43.2087 85.1853 43.2523 85.1757 43.2984C85.1468 43.4352 85.0543 43.4837 84.9786 43.4837H84.6049V46.1547C84.6049 48.4731 85.4412 48.7444 86.0696 48.7469C86.9888 48.7469 87.5631 48.071 87.5764 46.9832C87.5848 46.2988 87.5788 44.0978 87.5764 43.4849H87.2147C87.1186 43.4849 87.0068 43.4098 87.0068 43.1966C87.0068 42.9168 87.1654 42.895 87.2147 42.895L88.5232 42.8998C88.6698 42.912 88.7479 43.0367 88.7347 43.2184C88.7347 43.4001 88.6277 43.4861 88.522 43.4861H88.1567L88.1519 46.9868C88.0834 48.3847 87.2459 49.3222 86.0696 49.3235ZM83.8804 43.2124C83.9068 43.2414 83.9236 43.279 83.9236 43.3214V46.9832C83.9236 47.5404 84.1399 48.0516 84.5304 48.4222C84.7323 48.6136 84.975 48.7614 85.2442 48.8595C84.6001 48.4828 84.2865 47.5876 84.2865 46.1534V43.3214C84.2865 43.279 84.3033 43.2402 84.3298 43.2112L83.8804 43.2124Z" fill="#CDCAD5"/>
<path d="M98.0866 46.205C98.4891 46.4546 98.8363 46.5757 99.1139 46.9524C99.6534 47.6865 99.4515 49.1946 100.925 48.8748C100.788 49.0589 100.581 49.1376 100.383 49.1546C98.7318 49.2939 98.9841 46.9173 97.8294 46.4061C97.5927 46.302 97.2455 46.2911 96.9607 46.3371V48.8954C96.9607 48.8954 97.4065 48.8954 97.4798 48.8954C97.5543 48.8954 97.5435 49.0238 97.5435 49.0238C97.5435 49.0238 97.5483 49.1546 97.5038 49.1594L95.7952 49.1619C95.752 49.1631 95.752 49.0323 95.752 49.0323C95.752 49.0323 95.752 48.8966 95.7952 48.8966L96.3419 48.8978V43.8018C96.5089 43.7328 96.7793 43.7546 96.9607 43.8006V46.0282C98.0553 46.1917 98.7186 45.5352 98.703 44.766C98.6825 43.8127 97.8198 43.161 96.8309 43.184C96.5089 43.1913 96.0752 43.3524 95.8889 43.3572C97.2683 42.6147 99.496 43.3185 99.3133 44.8823C99.2316 45.58 98.6657 45.9264 98.0866 46.205Z" fill="#CDCAD5"/>
<path d="M95.7946 49.3238C95.7562 49.3238 95.63 49.3092 95.6 49.1239C95.5928 49.0779 95.5928 49.033 95.5928 49.033C95.5928 48.7581 95.7478 48.7363 95.7958 48.7363L96.1827 48.7375V43.8026C96.1827 43.7372 96.2224 43.679 96.2825 43.6536C96.4579 43.5809 96.7547 43.5821 97.001 43.6463C97.0719 43.6645 97.1211 43.7287 97.1211 43.8014V45.8873C97.5946 45.9284 97.9887 45.8025 98.2506 45.5323C98.4465 45.3313 98.551 45.0611 98.5438 44.7716C98.5258 43.9588 97.8108 43.3459 96.8796 43.3459H96.8352C96.6694 43.3496 96.4615 43.4004 96.2777 43.4465C96.1239 43.484 95.9905 43.5167 95.8932 43.5191C95.8187 43.5216 95.7538 43.4707 95.7358 43.3992C95.7165 43.3278 95.7502 43.2514 95.8151 43.2163C96.1984 43.0104 96.6549 42.9014 97.1368 42.9014C97.9322 42.9014 98.6627 43.1909 99.0905 43.6766C99.3945 44.0206 99.5266 44.4446 99.4726 44.9012C99.3969 45.5541 98.9463 45.9309 98.4224 46.2155C98.4332 46.2216 98.444 46.2276 98.4549 46.2337C98.742 46.3948 99.0136 46.5462 99.2431 46.8575C99.4233 47.1022 99.5242 47.4135 99.6216 47.7151C99.8318 48.3644 100 48.7593 100.554 48.7593C100.655 48.7593 100.769 48.746 100.893 48.7193C100.958 48.7048 101.025 48.7339 101.061 48.7896C101.097 48.8465 101.095 48.9192 101.055 48.9725C100.907 49.1711 100.674 49.2935 100.399 49.3165C100.347 49.3201 100.298 49.3226 100.25 49.3226C99.3007 49.3226 98.9559 48.5134 98.6507 47.7987C98.42 47.2585 98.2025 46.7473 97.7688 46.5547C97.615 46.4869 97.3711 46.459 97.1235 46.4808V48.7363H97.484C97.5441 48.7363 97.5994 48.7605 97.639 48.8041C97.7099 48.8816 97.7099 48.9931 97.7063 49.0379C97.7171 49.2777 97.5717 49.3153 97.5273 49.3201L95.7946 49.3238ZM96.5011 43.9261V48.8974C96.5011 48.9349 96.4879 48.9725 96.4639 49.0016H96.84C96.8159 48.9737 96.8015 48.9374 96.8015 48.8974V46.3379C96.8015 46.2652 96.8496 46.2034 96.9157 46.184C96.8484 46.1647 96.8015 46.1017 96.8015 46.0302V43.9334C96.6958 43.9177 96.5853 43.914 96.5011 43.9261ZM98.2182 46.4687C98.5534 46.7643 98.7492 47.2233 98.9403 47.6703C99.2227 48.3305 99.4678 48.9083 100.09 48.9894C99.6324 48.7871 99.4678 48.276 99.3176 47.8133C99.2275 47.5359 99.1349 47.25 98.9859 47.0477C98.7985 46.7933 98.5786 46.6698 98.2999 46.5135C98.2722 46.5002 98.2458 46.4844 98.2182 46.4687ZM97.645 46.184C97.7291 46.201 97.8144 46.2252 97.8937 46.2603C97.9118 46.2688 97.931 46.2773 97.9478 46.2858C97.9322 46.2591 97.925 46.2289 97.9274 46.1974C97.9298 46.155 97.9478 46.1162 97.9778 46.0883C97.8721 46.1307 97.7616 46.1622 97.645 46.184ZM98.1352 43.4089C98.5726 43.7226 98.849 44.2047 98.861 44.7644C98.8694 45.1411 98.7324 45.4936 98.4765 45.7564C98.4116 45.8231 98.3395 45.8836 98.2626 45.9369C98.7625 45.6668 99.0965 45.3603 99.1542 44.8637C99.1974 44.4955 99.0953 44.1672 98.8502 43.8898C98.6723 43.6875 98.4248 43.524 98.1352 43.4089Z" fill="#CDCAD5"/>
<path d="M111.89 43.0488C111.927 43.0488 111.927 43.1906 111.927 43.1906C111.927 43.1906 111.924 43.3141 111.88 43.319L111.358 43.3214L109.61 45.8349L109.599 48.8958L110.195 48.8995C110.229 48.908 110.231 49.0352 110.231 49.0352C110.231 49.0352 110.248 49.1599 110.195 49.1599C109.98 49.1599 108.395 49.1599 108.395 49.1599C108.35 49.1599 108.35 49.0352 108.35 49.0352C108.35 49.0352 108.35 48.8995 108.395 48.8995L108.973 48.8958V45.8349L107.465 43.3202H106.728C106.676 43.3202 106.692 43.1918 106.692 43.1918C106.692 43.1918 106.692 43.05 106.728 43.05H108.737C108.774 43.05 108.774 43.1918 108.774 43.1918C108.774 43.1918 108.774 43.3202 108.737 43.3202H108.083L109.47 45.5599L111.034 43.3202L110.522 43.3214C110.449 43.3202 110.463 43.1881 110.463 43.1881C110.463 43.1881 110.449 43.05 110.517 43.05L111.89 43.0488Z" fill="#CDCAD5"/>
<path d="M110.197 49.322H108.397C108.297 49.322 108.191 49.2469 108.191 49.0361C108.191 48.7611 108.349 48.7393 108.397 48.7393L108.816 48.7369V45.8806L107.375 43.481H106.728C106.682 43.481 106.617 43.4519 106.587 43.4168C106.526 43.3478 106.525 43.2448 106.533 43.1721C106.532 42.9286 106.654 42.8899 106.726 42.8899H108.735C108.809 42.8899 108.931 42.9286 108.931 43.1927C108.931 43.4531 108.794 43.4822 108.735 43.4822H108.369L109.477 45.2701L110.725 43.4822H110.521C110.46 43.4822 110.404 43.4568 110.366 43.412C110.303 43.3405 110.3 43.2424 110.303 43.1879C110.3 43.1321 110.303 43.0292 110.367 42.9565C110.406 42.9129 110.46 42.8887 110.517 42.8887H111.89C111.963 42.8887 112.085 42.9274 112.085 43.1915C112.081 43.441 111.94 43.4749 111.897 43.4798L111.443 43.4822L109.77 45.8867L109.76 48.7369L110.198 48.7393C110.211 48.7393 110.224 48.7417 110.237 48.7442C110.388 48.7829 110.391 48.9707 110.394 49.0325C110.4 49.0736 110.404 49.1827 110.34 49.2566C110.308 49.2917 110.242 49.322 110.197 49.322ZM109.096 49.001H109.478C109.454 48.9731 109.44 48.9356 109.44 48.8956L109.45 45.8346C109.45 45.8019 109.46 45.7704 109.479 45.7425L109.497 45.7171C109.486 45.7195 109.477 45.7195 109.465 45.7195C109.412 45.7183 109.363 45.6892 109.334 45.6444L107.947 43.4059C107.916 43.3562 107.915 43.2945 107.942 43.2424C107.948 43.2315 107.957 43.2206 107.965 43.2109H107.581C107.588 43.2194 107.595 43.2278 107.6 43.2375L109.109 45.7534C109.125 45.7789 109.132 45.8067 109.132 45.837V48.898C109.133 48.9368 109.119 48.9731 109.096 49.001Z" fill="#CDCAD5"/>
</svg>
