<svg width="276" height="151" viewBox="0 0 276 151" fill="none" xmlns="http://www.w3.org/2000/svg">
<path d="M149.729 61.6378C149.529 61.5476 149.304 61.5062 149.116 61.3615C149.122 61.1584 149.15 61.04 149.137 60.8859C149.12 60.7129 148.996 60.5813 149.018 60.4102C149.035 60.2805 149.232 60.1094 149.315 59.9948C149.998 59.0341 150.607 57.7407 150.404 56.1165C150.204 54.5223 149.167 53.3981 148.108 52.6349C147.031 51.8566 145.627 51.2137 143.933 51.052C142.192 50.8866 140.423 51.1121 139.086 51.7833C139.66 51.6648 140.149 51.5502 140.709 51.4862C142.63 51.2663 144.41 51.6442 145.694 52.1987C146.533 52.5616 147.368 53.1011 147.969 53.8004C148.422 54.3268 148.753 54.9603 148.997 55.6804C149.078 55.9172 149.197 56.1767 149.234 56.4116C149.294 56.7726 149.311 57.2106 149.313 57.5584C149.319 58.4608 148.984 59.6376 148.582 60.2692C148.558 60.3087 148.529 60.3538 148.503 60.3877C147.71 61.3577 145.792 61.7901 144.091 61.713C142.773 61.6529 141.506 61.401 140.451 61.0212C140.096 60.8934 139.692 60.7806 139.442 60.5851C139.094 60.3125 139.102 59.6808 139.342 59.2992C139.579 58.9251 140.107 58.8236 140.312 58.3893C140.363 58.2803 140.346 58.1017 140.431 57.9344C140.502 57.7953 140.758 57.7483 140.767 57.5791C140.771 57.5189 140.669 57.3986 140.649 57.361C140.478 57.0527 140.438 56.6824 140.312 56.3722C140.137 55.9417 139.844 55.4961 139.5 55.2442C138.929 54.8269 137.96 54.7479 137.977 53.7798C137.665 53.8305 137.778 54.3456 137.72 54.59C136.556 54.7197 135.829 53.8775 136.037 52.6311C135.868 52.7026 135.751 52.9714 135.721 53.2647C135.689 53.5579 135.797 53.8606 135.742 54.0749C135.456 54.0862 135.18 53.9019 135.011 53.7591C134.939 53.6989 134.894 53.5805 134.813 53.62C135.201 54.434 136.096 54.7235 137.207 54.9058C138.116 55.0543 139.024 55.2217 139.423 55.718C139.526 55.8458 139.656 56.1015 139.62 56.312C139.547 56.7481 138.97 56.562 138.789 56.9061C139.218 56.7839 139.532 56.9587 139.581 57.3215C139.665 57.9626 139.115 58.9044 138.611 59.2409C138.318 59.4364 137.93 59.4778 137.583 59.3011C137.648 59.4985 137.784 59.5248 137.761 59.756C137.716 60.2166 136.983 60.2523 136.415 60.211C135.139 60.1188 134.234 59.5699 133.289 58.9251C132.855 58.63 132.458 58.3555 131.903 58.0942C131.663 57.9814 130.386 57.4437 130.26 57.9551C130.217 58.1318 130.411 58.4363 130.518 58.5886C131.18 59.5323 132.174 59.8707 133.447 60.1113C134.174 60.2486 135.077 60.3388 135.306 60.9423C135.451 61.3182 135.359 61.9443 135.306 62.386C135.253 62.8278 135.176 63.2734 135.188 63.7509C135.323 64.7284 135.391 66.1252 134.93 66.8377C134.889 66.8997 134.802 67.052 134.712 67.1535C134.516 67.3753 134.206 67.6367 133.902 67.8453C132.877 68.5503 131.687 69.3117 131.012 70.4377C130.585 71.1521 130.388 71.7687 130.181 72.7519C130.052 73.3685 130.038 74.1412 129.944 74.771C129.914 74.9665 129.882 75.1864 129.805 75.3443C129.508 75.9609 128.465 76.1865 127.807 76.5118C127.183 76.8201 126.57 77.2468 126.085 77.6585C125.248 78.371 124.777 78.9933 124.087 79.8148C123.867 80.078 123.658 80.3412 123.374 80.5066C123.045 80.7002 122.483 80.7547 122.385 81.08C122.25 81.5311 122.754 81.8244 122.84 82.2267C122.893 82.473 122.842 82.7287 122.9 82.9392C122.994 83.2757 123.252 83.6743 123.474 83.8491C123.587 83.9374 123.795 84.0465 123.968 83.9487C123.927 83.5445 123.615 83.3039 123.532 82.9392C123.419 82.4373 123.602 81.6947 123.79 81.3375C124.034 80.8713 124.419 80.6758 124.778 80.407C125.333 79.9934 126.04 79.5102 126.598 79.1399C127.395 78.6135 128.179 78.121 129.051 77.6961C129.424 77.5138 129.835 77.2449 130.258 77.0438C130.585 76.8877 130.852 76.6791 131.11 76.4102C131.354 76.1546 131.629 75.8049 131.762 75.6C132.14 75.0172 132.46 74.4664 132.811 73.9175C133.069 73.517 133.4 72.9869 133.582 72.6504C133.706 72.4211 133.879 72.1315 133.937 71.9981C134.114 71.6052 134.306 71.2536 134.571 70.9096C135.449 71.1577 136.357 71.4097 137.579 71.483C138.511 71.5394 139.502 71.4567 140.269 71.3833C140.538 71.3589 140.859 71.3457 141.081 71.4228C141.322 71.5074 141.465 71.7687 141.636 72.0357C142.074 72.7237 142.591 73.3065 143.158 73.8761C143.529 74.2465 143.901 74.583 144.305 74.865C144.651 75.1056 145.078 75.3406 145.354 75.4985C145.687 75.6884 146.018 75.8857 146.166 76.2298C146.319 76.5832 146.204 77.2487 146.522 77.3765C146.674 77.4386 146.856 77.3822 146.956 77.3765C147.142 77.2957 147.304 77.1735 147.529 77.1002C148.056 76.9253 148.712 77.1359 149.27 77.119C149.411 77.1152 149.828 77.0569 149.804 76.8614C149.783 76.7016 149.336 76.7016 149.131 76.6828C148.806 76.6528 148.586 76.6076 148.379 76.5437C147.939 76.4121 147.587 76.2542 147.212 76.0286C146.471 75.585 145.894 74.8725 145.352 74.3066C144.429 73.346 143.72 72.4323 143.017 71.3777C142.782 71.0261 142.559 70.6238 142.265 70.3287C141.56 69.6237 140.237 69.2459 139.258 69.0222C138.904 68.9413 138.372 68.9094 138.111 68.7251C137.896 68.5747 137.735 68.1198 137.635 67.913C137.573 67.7833 137.524 67.6498 137.477 67.5182C137.255 66.896 137.378 66.2305 137.596 65.6195C137.746 65.1946 137.912 64.892 138.13 64.5912C138.491 64.093 138.942 63.7941 139.06 63.1869C139.103 62.9688 139.058 62.7169 139.139 62.4349C139.252 62.0458 139.585 61.7976 140.03 61.7826C140.686 61.76 141.389 61.933 142.089 62.0006C143.536 62.1416 145.046 62.1435 146.322 61.8822C146.956 61.7525 147.593 61.4931 148.221 61.4874C149.231 61.4762 149.862 62.1134 150.298 62.715C150.768 63.3617 151.116 64.1926 151.05 65.268C151.001 66.0462 150.77 66.7531 150.437 67.3265C149.379 69.15 146.995 70.6671 144.324 69.8982C143.307 69.6068 142.811 69.2045 142.049 68.6518C142.091 68.8097 142.149 68.8812 142.247 68.9883C143.147 69.8324 144.446 70.6295 146.164 70.6295C147.074 70.6295 147.877 70.5111 148.518 70.2742C149.199 70.0223 149.744 69.6538 150.28 69.2647C150.293 69.2553 150.336 69.3098 150.3 69.244C150.825 68.8248 151.3 68.3172 151.646 67.6818C151.988 67.0501 152.276 66.2587 152.22 65.3281C152.114 63.5553 151.026 62.23 149.729 61.6378ZM137.165 62.1322C137.15 62.2037 137.24 62.6849 137.186 62.7263C137.131 62.7677 136.941 62.4688 136.77 62.3898C136.526 62.4575 136.24 62.6699 136.176 62.6267C136.082 62.5533 136.361 62.1247 136.334 61.8747C136.319 61.7281 135.802 61.2656 135.879 61.2017C135.955 61.1378 136.261 61.307 136.513 61.2806C136.693 61.1509 136.77 60.6621 136.849 60.6866C136.928 60.711 136.99 61.3464 137.028 61.3991C137.18 61.6115 137.699 61.6115 137.72 61.6961C137.742 61.7807 137.186 62.042 137.165 62.1322Z" fill="#CDCAD5"/>
<path d="M141.22 66.8019C141.265 66.7625 141.302 66.7155 141.357 66.6685C141.368 66.6591 141.412 66.6365 141.412 66.6083C141.412 66.5801 141.398 66.5632 141.366 66.5632C141.334 66.5632 141.18 66.567 141.18 66.567C141.18 66.567 140.996 66.567 140.977 66.5576L140.868 66.1402C140.864 66.1214 140.831 66.1045 140.831 66.1045C140.789 66.1083 140.757 66.1553 140.725 66.2605C140.693 66.3658 140.639 66.5124 140.629 66.5406C140.62 66.5688 140.596 66.6008 140.56 66.6328C140.522 66.6647 140.466 66.6797 140.411 66.7042C140.357 66.7267 140.235 66.7474 140.199 66.7625C140.163 66.7756 140.144 66.7944 140.139 66.8264C140.135 66.8583 140.205 66.8884 140.255 66.9166C140.306 66.9448 140.353 66.9843 140.379 67.0087C140.413 67.0426 140.417 67.0313 140.43 67.0708C140.447 67.114 140.402 67.2042 140.37 67.2851C140.364 67.2982 140.334 67.3565 140.349 67.3791C140.363 67.4016 140.385 67.3979 140.432 67.3791C140.477 67.3603 140.537 67.3152 140.566 67.302C140.594 67.2888 140.658 67.2663 140.707 67.2738C140.757 67.2832 140.885 67.3734 140.917 67.3941C140.949 67.4148 141.022 67.4562 141.054 67.475C141.086 67.4938 141.122 67.5126 141.146 67.4938C141.171 67.475 141.165 67.4204 141.152 67.3791C141.139 67.3377 141.126 67.2644 141.096 67.1046C141.096 67.1046 141.064 66.9993 141.086 66.958C141.111 66.9147 141.186 66.832 141.22 66.8019Z" fill="#CDCAD5"/>
<path d="M149.792 59.983C149.777 60.0375 149.912 60.139 149.993 60.1973C150.076 60.2556 150.168 60.3345 150.208 60.3853C150.26 60.4511 150.27 60.436 150.285 60.5094C150.304 60.5883 150.255 60.7162 150.181 60.8496C150.168 60.8722 150.046 61.0207 150.065 61.0639C150.084 61.1072 150.085 61.1279 150.17 61.1053C150.255 61.0827 150.465 60.9399 150.516 60.9211C150.567 60.9023 150.683 60.8759 150.77 60.9041C150.856 60.9305 151.061 61.1166 151.112 61.1598C151.163 61.2031 151.249 61.2651 151.3 61.3046C151.353 61.344 151.463 61.4493 151.507 61.4211C151.55 61.3929 151.535 61.2782 151.525 61.1843C151.516 61.1034 151.503 60.9775 151.486 60.6917C151.486 60.6917 151.456 60.5037 151.501 60.4342C151.574 60.3232 151.698 60.2387 151.766 60.1935C151.854 60.1353 151.956 60.0807 152.056 60.0018C152.131 59.9435 152.229 59.9266 152.234 59.8777C152.24 59.8288 152.144 59.8345 152.088 59.8269C152.031 59.8194 151.734 59.8457 151.734 59.8457C151.734 59.8457 151.486 59.8871 151.354 59.7724C151.328 59.7499 151.292 58.9941 151.29 58.9622C151.285 58.8663 151.212 58.8438 151.212 58.8438C151.138 58.8438 151.095 58.9641 151.016 59.1408C150.937 59.3175 150.811 59.5619 150.79 59.6089C150.768 59.654 150.708 59.7518 150.708 59.7518C150.661 59.7987 150.655 59.857 150.557 59.8852C150.456 59.9134 150.087 59.9097 150.022 59.9266C149.959 59.9397 149.807 59.9266 149.792 59.983Z" fill="#CDCAD5"/>
<path d="M136.914 53.071C136.967 53.0428 137.138 52.9412 137.138 52.9412C137.138 52.9412 137.204 52.9037 137.272 52.9093C137.339 52.9131 137.371 52.9469 137.399 52.9807C137.428 53.0146 137.557 53.133 137.557 53.133C137.557 53.133 137.582 53.1612 137.61 53.1518C137.638 53.1424 137.644 53.0747 137.638 53.0183C137.632 52.9619 137.623 52.8473 137.623 52.8473C137.623 52.8473 137.6 52.7796 137.638 52.7175C137.676 52.6555 137.728 52.6367 137.79 52.6085C137.852 52.5803 137.952 52.5277 137.967 52.4901C137.98 52.4525 137.952 52.4431 137.929 52.4337C137.905 52.4243 137.8 52.3904 137.772 52.381C137.743 52.3716 137.668 52.3472 137.632 52.319C137.602 52.2946 137.589 52.2739 137.585 52.1855C137.582 52.1122 137.578 52.1197 137.582 52.0558C137.584 52.0126 137.595 51.9017 137.557 51.8941C137.557 51.8941 137.552 51.8791 137.51 51.9223C137.467 51.9656 137.367 52.1066 137.367 52.1066C137.367 52.1066 137.32 52.1742 137.281 52.2024C137.243 52.2306 137.185 52.2457 137.142 52.2457C137.099 52.2457 136.943 52.2175 136.943 52.2175C136.943 52.2175 136.88 52.2081 136.871 52.2457C136.862 52.2833 136.914 52.351 136.948 52.3829C136.982 52.4168 137.029 52.4788 137.038 52.5502C137.048 52.6217 136.995 52.7175 136.961 52.7683C136.927 52.8209 136.837 52.9582 136.837 52.9582L136.8 53.0446C136.8 53.0446 136.785 53.0822 136.8 53.0916C136.837 53.1217 136.862 53.0992 136.914 53.071Z" fill="#CDCAD5"/>
<path d="M85.233 97.0486C85.8986 97.3235 86.6784 97.6845 86.5078 98.7807C86.2963 100.14 84.3787 100.322 82.8695 100.03V94.8658C83.0149 94.8197 83.3429 94.8222 83.4883 94.8682V97.0159C84.911 97.4241 85.9719 95.8748 85.1513 94.8428C84.5397 94.0748 82.932 94.0384 82.1582 94.7022C82.4105 94.3328 83.0077 94.1571 83.5712 94.0881C84.6983 93.9488 86.0885 94.4503 86.1209 95.624C86.1389 96.2963 85.6763 96.7142 85.233 97.0486ZM85.8434 98.4452C85.7677 97.4834 84.5204 97.1128 83.4883 97.412V99.8346C84.6298 100.141 85.9323 99.5826 85.8434 98.4452Z" fill="#CDCAD5"/>
<path d="M84.0868 100.309C83.6842 100.309 83.2541 100.266 82.8408 100.186C82.7651 100.172 82.711 100.105 82.711 100.029V94.865C82.711 94.7947 82.7566 94.7329 82.8227 94.7111C82.9345 94.676 83.0895 94.6712 83.1712 94.6712C83.2397 94.6712 83.4139 94.6748 83.5365 94.7136C83.6025 94.7341 83.6482 94.7971 83.6482 94.8674V96.8891C84.2754 97.0211 84.8966 96.7134 85.1597 96.1623C85.3568 95.7492 85.3063 95.2938 85.0276 94.9425C84.7548 94.5997 84.2249 94.3938 83.6109 94.3938C83.0811 94.3938 82.5764 94.5549 82.2628 94.8238C82.2015 94.8759 82.1114 94.8747 82.0525 94.8214C81.9937 94.7669 81.9829 94.6772 82.0273 94.6106C82.3325 94.1648 83.0246 93.9928 83.5521 93.9274C84.7765 93.7772 86.2459 94.3611 86.2796 95.6184C86.2964 96.2374 85.9588 96.6577 85.5442 97.0054C86.1198 97.2634 86.8359 97.7128 86.6653 98.8042C86.5187 99.7611 85.5779 100.309 84.0868 100.309ZM83.0294 99.8944C83.1435 99.9137 83.2589 99.9307 83.373 99.944C83.3454 99.9149 83.3286 99.875 83.3286 99.8326V97.4112C83.3286 97.3397 83.3754 97.2767 83.4439 97.2573C83.504 97.2404 83.5641 97.2246 83.6242 97.2113C83.5641 97.2004 83.504 97.1859 83.4439 97.1689C83.3754 97.1495 83.3286 97.0865 83.3286 97.0138V94.9994C83.2349 94.9897 83.1087 94.9897 83.0282 94.9982V99.8944H83.0294ZM84.4604 97.1616C85.328 97.2428 85.9492 97.7431 86.0032 98.4323C86.0345 98.832 85.9119 99.1954 85.6488 99.4825C85.4998 99.6448 85.3075 99.7793 85.0865 99.8786C85.6668 99.7393 86.2471 99.4292 86.3529 98.7557C86.4983 97.8242 85.9059 97.4996 85.1754 97.198C85.1225 97.1762 85.0853 97.1265 85.078 97.0696C85.0708 97.0126 85.0949 96.9557 85.1405 96.9206C85.5478 96.6129 85.9804 96.235 85.9636 95.6293C85.9456 94.9813 85.4421 94.5512 84.8017 94.3526C84.9927 94.4568 85.1549 94.5888 85.2763 94.7426C85.6344 95.1932 85.698 95.7759 85.4469 96.3028C85.2499 96.7147 84.887 97.0235 84.4604 97.1616ZM83.6482 99.7066C83.8032 99.7393 83.9618 99.7563 84.1216 99.7563C84.6491 99.7563 85.1321 99.5721 85.4145 99.2645C85.6187 99.0416 85.7101 98.7703 85.6848 98.4577C85.6308 97.7758 84.9038 97.4717 84.2057 97.4717C84.0159 97.4717 83.8284 97.4935 83.647 97.5359V99.7066H83.6482Z" fill="#CDCAD5"/>
<path d="M94.8801 94.05C94.9258 94.05 94.9306 94.1772 94.9306 94.1772C94.9306 94.1772 94.9366 94.3226 94.8801 94.3226H94.313V99.8207H96.2283C96.4169 99.8171 96.8086 99.1775 96.9588 98.9789C96.9972 98.928 97.0477 98.9147 97.0429 98.9377C97.0177 99.054 96.7738 99.8898 96.7065 100.091C96.6921 100.133 96.6536 100.16 96.6536 100.16C96.6536 100.16 93.1595 100.16 93.0165 100.157C92.9648 100.16 92.9648 100.004 92.9648 100.004C92.9648 100.004 92.9648 99.8207 93.0165 99.8207H93.6858V94.3226H93.0574C93.0165 94.3226 93.0165 94.1845 93.0165 94.1845C93.0165 94.1845 93.0165 94.05 93.0778 94.0488L94.8801 94.05Z" fill="#CDCAD5"/>
<path d="M95.8613 100.321C94.6141 100.321 93.1085 100.321 93.0136 100.318C92.9727 100.317 92.9127 100.292 92.8838 100.263C92.8189 100.197 92.8045 100.086 92.8057 100.003C92.8057 100.003 92.8057 99.9465 92.8141 99.8895C92.843 99.6824 92.9655 99.6606 93.0172 99.6606H93.5279V94.4834H93.0581C92.998 94.4834 92.8574 94.4544 92.8574 94.1842C92.8574 94.0086 92.9451 93.8899 93.0761 93.8887H94.8796C94.9769 93.8887 95.0827 93.9638 95.0887 94.1721C95.0911 94.2327 95.0863 94.3502 95.0178 94.4229C94.9877 94.4544 94.9229 94.4834 94.8796 94.4834H94.4723V99.6606H96.2277C96.3155 99.6243 96.5966 99.2172 96.7024 99.0646C96.754 98.9895 96.7985 98.9253 96.8321 98.8817C96.9234 98.7606 97.0917 98.7364 97.1662 98.8308C97.1962 98.8696 97.2082 98.9265 97.1974 98.975C97.1698 99.101 96.9246 99.9428 96.8574 100.143C96.8285 100.229 96.7624 100.28 96.7432 100.293C96.7168 100.311 96.6855 100.321 96.6531 100.321H95.8613ZM93.1241 99.9973C93.4365 99.9985 94.3846 99.9985 95.8625 99.9985H96.5726C96.5954 99.9234 96.6351 99.7902 96.6783 99.6424C96.4969 99.8714 96.3671 99.978 96.2325 99.9816H94.3137C94.226 99.9816 94.1539 99.9101 94.1539 99.8205V94.3223C94.1539 94.2787 94.1707 94.2387 94.1995 94.2097H93.7994C93.8282 94.2387 93.8451 94.2787 93.8451 94.3223V99.8205C93.8451 99.9089 93.7742 99.9816 93.6853 99.9816H93.1229C93.1241 99.9864 93.1241 99.9925 93.1241 99.9973Z" fill="#CDCAD5"/>
<path d="M106.311 94.0469C107.73 94.0469 109.311 95.2182 109.311 97.1067C109.311 98.7819 108.091 100.159 106.297 100.159C104.726 100.159 103.322 98.7795 103.322 97.1067C103.323 95.4956 104.703 94.0469 106.311 94.0469ZM104.061 97.1018C104.061 98.7686 104.835 99.9533 106.312 99.9533C108.192 99.9533 108.555 98.5845 108.555 97.103C108.555 95.515 107.567 94.2661 106.312 94.2698C104.96 94.2746 104.061 95.5465 104.061 97.1018Z" fill="#CDCAD5"/>
<path d="M106.297 100.319C104.598 100.319 103.163 98.8471 103.163 97.1064C103.163 95.3912 104.634 93.8867 106.31 93.8867C107.83 93.8867 109.47 95.1174 109.47 97.1064C109.47 98.9379 108.106 100.319 106.297 100.319ZM106.317 94.2695L106.311 94.4306C105.099 94.4354 104.219 95.5583 104.219 97.1016C104.219 98.7865 105 99.7919 106.31 99.7919C107.77 99.7919 108.393 98.9876 108.393 97.1016C108.393 95.6032 107.481 94.4294 106.317 94.4294V94.2695ZM104.947 94.5917C104.088 95.1017 103.481 96.061 103.481 97.1064C103.481 98.0633 103.962 98.9294 104.683 99.4588C104.181 98.9379 103.9 98.1263 103.9 97.1016C103.901 96.0138 104.302 95.1114 104.947 94.5917ZM107.477 94.4718C108.219 94.9745 108.712 95.9532 108.712 97.1028C108.712 97.838 108.631 98.7102 108.166 99.3267C108.776 98.8047 109.15 98.0173 109.15 97.1064C109.152 95.8297 108.402 94.9006 107.477 94.4718Z" fill="#CDCAD5"/>
<path d="M118.841 94.0469C120.26 94.0469 121.841 95.2182 121.841 97.1067C121.841 98.7819 120.621 100.159 118.828 100.159C117.256 100.159 115.853 98.7795 115.853 97.1067C115.853 95.4956 117.233 94.0469 118.841 94.0469ZM116.59 97.1018C116.59 98.7686 117.364 99.9533 118.841 99.9533C120.721 99.9533 121.083 98.5845 121.083 97.103C121.083 95.515 120.095 94.2661 118.841 94.2698C117.49 94.2746 116.59 95.5465 116.59 97.1018Z" fill="#CDCAD5"/>
<path d="M118.829 100.319C117.13 100.319 115.695 98.8471 115.695 97.1064C115.695 95.3912 117.166 93.8867 118.842 93.8867C120.362 93.8867 122.002 95.1174 122.002 97.1064C122.002 98.9379 120.637 100.319 118.829 100.319ZM118.849 94.2695L118.843 94.4306C117.631 94.4354 116.751 95.5583 116.751 97.1016C116.751 98.7865 117.532 99.7919 118.842 99.7919C120.302 99.7919 120.926 98.9876 120.926 97.1016C120.926 95.6032 120.014 94.4294 118.849 94.4294V94.2695ZM117.478 94.5917C116.619 95.1017 116.013 96.061 116.013 97.1064C116.013 98.0633 116.493 98.9294 117.214 99.4588C116.712 98.9379 116.431 98.1263 116.431 97.1016C116.433 96.0138 116.834 95.1114 117.478 94.5917ZM120.009 94.4718C120.751 94.9745 121.244 95.9532 121.244 97.1028C121.244 97.838 121.164 98.7102 120.699 99.3267C121.308 98.8047 121.683 98.0173 121.683 97.1064C121.683 95.8297 120.934 94.9006 120.009 94.4718Z" fill="#CDCAD5"/>
<path d="M135.478 99.9017C135.544 99.9017 135.544 99.9611 135.544 100.04C135.544 100.119 135.542 100.167 135.478 100.167C135.413 100.167 133.702 100.165 133.702 100.165C133.648 100.165 133.648 100.116 133.648 100.037C133.648 99.9599 133.648 99.8993 133.702 99.8993L134.278 99.9005C134.278 99.9005 133.575 96.9679 133.232 95.5325L131.468 99.7854L129.858 95.501C129.843 95.5797 128.774 99.8884 128.774 99.8884H129.308C129.364 99.8884 129.357 100.031 129.357 100.031C129.357 100.031 129.344 100.163 129.287 100.162L127.871 100.155C127.816 100.155 127.822 100.028 127.822 100.028C127.822 100.028 127.815 99.8896 127.889 99.8896C127.963 99.8896 128.384 99.8823 128.384 99.8823C128.384 99.8823 129.938 94.0922 129.938 94.0547L131.652 98.5269L133.472 94.0559L134.902 99.9005C134.903 99.9017 135.411 99.9017 135.478 99.9017Z" fill="#CDCAD5"/>
<path d="M135.476 100.329L133.701 100.326C133.606 100.326 133.53 100.271 133.502 100.18C133.488 100.135 133.488 100.089 133.488 100.039C133.488 99.8405 133.56 99.74 133.701 99.74H134.074L133.19 96.0467L131.613 99.8478C131.588 99.9072 131.531 99.9459 131.467 99.9459C131.466 99.9459 131.464 99.9459 131.464 99.9459C131.4 99.9447 131.341 99.9035 131.318 99.8418L129.89 96.0419C129.66 96.9818 129.171 98.9514 128.978 99.7291H129.308C129.351 99.7291 129.416 99.7582 129.446 99.7897C129.513 99.8611 129.518 99.9774 129.516 100.04C129.497 100.218 129.411 100.325 129.287 100.325L127.869 100.318C127.826 100.318 127.761 100.289 127.731 100.257C127.665 100.187 127.66 100.08 127.663 100.022C127.66 99.9932 127.662 99.8769 127.735 99.7981C127.774 99.7557 127.829 99.7315 127.886 99.7315C127.935 99.7315 128.13 99.7279 128.261 99.7255C128.793 97.745 129.753 94.1583 129.782 94.0262C129.783 93.9487 129.836 93.8978 129.912 93.8845C129.987 93.8724 130.06 93.9269 130.087 93.9984L131.657 98.0938L133.326 93.9959C133.352 93.9317 133.415 93.8918 133.484 93.8966C133.553 93.9015 133.61 93.9511 133.627 94.019L135.027 99.7412H135.476C135.625 99.7412 135.701 99.8418 135.701 100.04C135.701 100.232 135.625 100.329 135.476 100.329ZM134.396 100.006L134.781 100.008C134.765 99.9895 134.753 99.9665 134.747 99.9411L133.435 94.5737L132.35 97.2398L133.083 95.4713C133.109 95.4071 133.173 95.3672 133.243 95.3732C133.311 95.3793 133.369 95.4277 133.384 95.4956L134.431 99.8636C134.443 99.9108 134.432 99.9617 134.401 100C134.4 100.003 134.399 100.004 134.396 100.006ZM128.494 99.9992L128.658 100C128.654 99.9968 128.65 99.9932 128.648 99.9883C128.618 99.9496 128.607 99.8987 128.619 99.8502C128.787 99.1743 129.109 97.8722 129.359 96.8631C129.15 97.6444 128.882 98.645 128.537 99.9265C128.529 99.9544 128.515 99.9798 128.494 99.9992ZM129.857 95.3429C129.923 95.3429 129.982 95.3829 130.006 95.4459L131.473 99.3524L131.77 98.6377C131.74 98.6704 131.696 98.6946 131.651 98.6898C131.586 98.6886 131.527 98.6486 131.504 98.5868L129.968 94.5774C129.919 94.7663 129.851 95.0244 129.756 95.3793C129.781 95.3587 129.811 95.3454 129.845 95.3429C129.848 95.3429 129.852 95.3429 129.857 95.3429Z" fill="#CDCAD5"/>
<path d="M144.644 94.2437C144.812 94.2522 144.797 93.999 144.965 94.0971C144.99 94.1274 145.007 94.6701 145.067 95.1861C145.067 95.1861 144.97 95.1885 144.818 94.8627C144.394 93.9457 142.454 94.165 142.833 95.5689C143.133 96.676 145.13 96.8359 145.49 98.1878C145.963 99.9623 143.766 100.831 142.425 99.8061C142.219 99.7952 142.377 100.15 142.191 100.16C142.127 100.148 142.134 100.12 142.134 100.12L142.044 98.7171C142.162 98.7122 142.263 99.0405 142.365 99.2174C142.632 99.6813 143.205 100.076 143.912 100.012C144.475 99.9611 145.072 99.4778 144.993 98.7171C144.884 97.6875 143.518 97.3822 142.862 96.7754C142.593 96.5258 142.355 96.1418 142.307 95.7445C142.141 94.3527 143.435 93.7144 144.644 94.2437Z" fill="#CDCAD5"/>
<path d="M143.736 100.403C143.28 100.403 142.83 100.269 142.457 100.023C142.444 100.12 142.407 100.309 142.199 100.318C142.187 100.32 142.175 100.318 142.163 100.316C142.091 100.303 142.038 100.27 142.006 100.219C141.99 100.195 141.979 100.161 141.978 100.128H141.977L141.887 98.7268C141.885 98.6832 141.899 98.6408 141.928 98.6093C141.957 98.5766 141.996 98.5584 142.04 98.556C142.233 98.556 142.326 98.7559 142.422 98.9666C142.449 99.0272 142.477 99.0878 142.505 99.1362C142.697 99.4693 143.141 99.8582 143.763 99.8582C143.807 99.8582 143.853 99.8557 143.9 99.8521C144.178 99.8267 144.45 99.6825 144.627 99.4657C144.791 99.2634 144.863 99.0102 144.834 98.7341C144.771 98.126 144.171 97.7832 143.592 97.4525C143.28 97.2732 142.984 97.1048 142.754 96.8929C142.424 96.5864 142.197 96.1649 142.149 95.7639C142.086 95.2382 142.211 94.7791 142.512 94.4375C142.986 93.8973 143.858 93.7471 144.652 94.0741C144.655 94.0681 144.661 94.0596 144.666 94.0535C144.702 94.0051 144.771 93.9154 144.894 93.9154C144.944 93.9154 144.992 93.93 145.042 93.959C145.059 93.9687 145.073 93.9808 145.085 93.9954C145.131 94.0499 145.135 94.0959 145.16 94.4484C145.174 94.6507 145.194 94.9124 145.224 95.1692C145.228 95.2152 145.215 95.26 145.184 95.2951C145.154 95.329 145.111 95.3496 145.065 95.3496C144.932 95.3496 144.8 95.2091 144.672 94.9329C144.544 94.6543 144.211 94.4739 143.825 94.4739C143.51 94.4739 143.23 94.595 143.078 94.7961C142.936 94.9838 142.905 95.2297 142.985 95.5289C143.11 95.9916 143.605 96.286 144.13 96.5985C144.743 96.9631 145.436 97.3762 145.643 98.149C145.834 98.8637 145.609 99.3603 145.387 99.6522C145.03 100.121 144.413 100.403 143.736 100.403ZM142.914 94.4981C142.855 94.5441 142.801 94.5938 142.753 94.6495C142.514 94.9208 142.416 95.2927 142.467 95.7239C142.506 96.0461 142.699 96.4023 142.972 96.6554C143.174 96.842 143.455 97.0031 143.751 97.1715C144.371 97.5252 145.072 97.9261 145.153 98.6989C145.191 99.0623 145.094 99.3966 144.874 99.668C144.833 99.7176 144.789 99.7649 144.742 99.8085C144.897 99.7116 145.031 99.5929 145.137 99.4524C145.393 99.1168 145.462 98.6929 145.338 98.2277C145.165 97.5809 144.558 97.2199 143.972 96.8698C143.415 96.5391 142.841 96.1976 142.681 95.6089C142.547 95.1098 142.687 94.7827 142.828 94.5962C142.854 94.5623 142.883 94.5296 142.914 94.4981ZM142.417 99.645C142.452 99.645 142.494 99.6571 142.521 99.6777C142.531 99.6849 142.539 99.691 142.549 99.6983C142.423 99.5795 142.321 99.4511 142.244 99.324L142.267 99.6886C142.305 99.6607 142.353 99.645 142.417 99.645ZM144.646 94.4036C144.725 94.4642 144.796 94.5332 144.855 94.6119C144.851 94.5623 144.848 94.515 144.844 94.4702C144.84 94.4278 144.838 94.383 144.834 94.3406C144.79 94.3769 144.733 94.4084 144.646 94.4036Z" fill="#CDCAD5"/>
<path d="M156.58 97.0483C157.246 97.3233 158.025 97.6843 157.855 98.7805C157.643 100.14 155.724 100.321 154.215 100.029V94.8655C154.361 94.8195 154.689 94.8219 154.834 94.868V97.0156C156.257 97.4238 157.318 95.8746 156.497 94.8425C155.887 94.0745 154.278 94.0394 153.504 94.7032C153.756 94.3338 154.353 94.1581 154.917 94.0891C156.044 93.9498 157.434 94.4513 157.467 95.625C157.485 96.2961 157.022 96.714 156.58 97.0483ZM157.189 98.445C157.113 97.4832 155.866 97.1125 154.834 97.4117V99.8343C155.975 100.141 157.279 99.5824 157.189 98.445Z" fill="#CDCAD5"/>
<path d="M155.431 100.309C155.029 100.309 154.599 100.266 154.185 100.186C154.111 100.172 154.055 100.105 154.055 100.029V94.865C154.055 94.7947 154.101 94.7329 154.167 94.7111C154.279 94.676 154.434 94.6712 154.516 94.6712C154.584 94.6712 154.758 94.6748 154.881 94.7136C154.947 94.7341 154.993 94.7971 154.993 94.8674V96.8891C155.62 97.0211 156.241 96.7134 156.504 96.1623C156.701 95.7492 156.651 95.2938 156.372 94.9425C156.099 94.5997 155.569 94.3938 154.955 94.3938C154.426 94.3938 153.921 94.5549 153.607 94.825C153.546 94.8771 153.456 94.8759 153.397 94.8214C153.338 94.7669 153.327 94.6772 153.373 94.6106C153.678 94.1648 154.37 93.9928 154.898 93.9274C156.122 93.7772 157.592 94.3611 157.625 95.6184C157.642 96.2374 157.304 96.6577 156.89 97.0054C157.465 97.2634 158.182 97.7128 158.011 98.8042C157.863 99.7611 156.922 100.309 155.431 100.309ZM154.375 99.8944C154.489 99.9137 154.605 99.9307 154.719 99.944C154.691 99.9149 154.674 99.875 154.674 99.8326V97.4112C154.674 97.3397 154.721 97.2767 154.79 97.2573C154.85 97.2404 154.91 97.2246 154.971 97.2113C154.911 97.2004 154.851 97.1859 154.791 97.1689C154.722 97.1495 154.675 97.0865 154.675 97.0138V94.9994C154.581 94.9897 154.454 94.9897 154.375 94.9982V99.8944ZM155.806 97.1616C156.674 97.2428 157.294 97.7431 157.349 98.4323C157.38 98.832 157.258 99.1954 156.994 99.4825C156.845 99.6448 156.653 99.7793 156.432 99.8786C157.012 99.7393 157.593 99.4292 157.699 98.7557C157.844 97.8242 157.25 97.4996 156.521 97.198C156.468 97.1762 156.431 97.1265 156.424 97.0696C156.417 97.0126 156.441 96.9557 156.486 96.9206C156.894 96.6129 157.326 96.235 157.309 95.6293C157.291 94.9813 156.788 94.5512 156.147 94.3526C156.338 94.4568 156.501 94.5888 156.623 94.7426C156.981 95.1932 157.045 95.7759 156.794 96.3028C156.594 96.7147 156.233 97.0235 155.806 97.1616ZM154.994 99.7066C155.149 99.7393 155.307 99.7563 155.467 99.7563C155.995 99.7563 156.478 99.5721 156.76 99.2645C156.964 99.0416 157.056 98.7703 157.031 98.4577C156.976 97.7758 156.25 97.4717 155.551 97.4717C155.362 97.4717 155.174 97.4935 154.993 97.5359V99.7066H154.994Z" fill="#CDCAD5"/>
<path d="M167.028 94.1937C167.028 94.1937 167.028 94.3209 166.98 94.3209H166.446V97.153C166.446 99.0353 166.975 99.9014 168.071 99.9051C169.117 99.9087 169.724 99.0995 169.737 97.9827C169.747 97.1784 169.737 94.3209 169.737 94.3209H169.217C169.168 94.3209 169.168 94.1925 169.168 94.1925C169.168 94.1925 169.168 94.0508 169.217 94.0508L170.524 94.0556C170.588 94.0605 170.578 94.2034 170.578 94.2034C170.578 94.2034 170.578 94.3209 170.524 94.3209C170.471 94.3209 169.999 94.3209 169.999 94.3209L169.994 97.9827C169.935 99.1662 169.273 100.161 168.071 100.162C166.751 100.163 165.765 99.2267 165.765 97.9827V94.3209H165.259C165.208 94.3209 165.214 94.2337 165.21 94.1925C165.21 94.1925 165.194 94.0629 165.259 94.0508H166.965C167.032 94.0617 167.028 94.1937 167.028 94.1937Z" fill="#CDCAD5"/>
<path d="M168.07 100.323H168.067C167.39 100.323 166.766 100.087 166.312 99.6572C165.855 99.2248 165.604 98.6312 165.604 97.9844V94.4825H165.258C165.199 94.4825 165.062 94.4571 165.051 94.2245C165.031 94.0464 165.102 93.918 165.229 93.895L166.964 93.8926C167.111 93.912 167.191 94.0343 167.186 94.1978C167.186 94.2087 167.185 94.2523 167.176 94.2984C167.147 94.4352 167.054 94.4837 166.979 94.4837H166.605V97.1547C166.605 99.4731 167.441 99.7444 168.07 99.7469C168.989 99.7469 169.563 99.071 169.576 97.9832C169.585 97.2988 169.579 95.0978 169.576 94.4849H169.215C169.119 94.4849 169.007 94.4098 169.007 94.1966C169.007 93.9168 169.165 93.895 169.215 93.895L170.523 93.8998C170.67 93.912 170.748 94.0367 170.735 94.2184C170.735 94.4001 170.628 94.4861 170.522 94.4861H170.157L170.152 97.9868C170.083 99.3847 169.246 100.322 168.07 100.323ZM165.88 94.2124C165.907 94.2414 165.924 94.279 165.924 94.3214V97.9832C165.924 98.5404 166.14 99.0516 166.53 99.4222C166.732 99.6136 166.975 99.7614 167.244 99.8595C166.6 99.4828 166.287 98.5876 166.287 97.1534V94.3214C166.287 94.279 166.303 94.2402 166.33 94.2112L165.88 94.2124Z" fill="#CDCAD5"/>
<path d="M180.087 97.205C180.489 97.4546 180.836 97.5757 181.114 97.9524C181.653 98.6865 181.452 100.195 182.925 99.8748C182.788 100.059 182.581 100.138 182.383 100.155C180.732 100.294 180.984 97.9173 179.829 97.4061C179.593 97.302 179.245 97.2911 178.961 97.3371V99.8954C178.961 99.8954 179.406 99.8954 179.48 99.8954C179.554 99.8954 179.543 100.024 179.543 100.024C179.543 100.024 179.548 100.155 179.504 100.159L177.795 100.162C177.752 100.163 177.752 100.032 177.752 100.032C177.752 100.032 177.752 99.8966 177.795 99.8966L178.342 99.8978V94.8018C178.509 94.7328 178.779 94.7546 178.961 94.8006V97.0282C180.055 97.1917 180.719 96.5352 180.703 95.766C180.683 94.8127 179.82 94.161 178.831 94.184C178.509 94.1913 178.075 94.3524 177.889 94.3572C179.268 93.6147 181.496 94.3185 181.313 95.8823C181.232 96.58 180.666 96.9264 180.087 97.205Z" fill="#CDCAD5"/>
<path d="M177.795 100.324C177.756 100.324 177.63 100.309 177.6 100.124C177.593 100.078 177.593 100.033 177.593 100.033C177.593 99.7581 177.748 99.7363 177.796 99.7363L178.183 99.7375V94.8026C178.183 94.7372 178.222 94.679 178.282 94.6536C178.458 94.5809 178.755 94.5821 179.001 94.6463C179.072 94.6645 179.121 94.7287 179.121 94.8014V96.8873C179.595 96.9284 179.989 96.8025 180.251 96.5323C180.446 96.3313 180.551 96.0611 180.544 95.7716C180.526 94.9588 179.811 94.3459 178.88 94.3459H178.835C178.669 94.3496 178.461 94.4004 178.278 94.4465C178.124 94.484 177.99 94.5167 177.893 94.5191C177.819 94.5216 177.754 94.4707 177.736 94.3992C177.717 94.3278 177.75 94.2514 177.815 94.2163C178.198 94.0104 178.655 93.9014 179.137 93.9014C179.932 93.9014 180.663 94.1909 181.09 94.6766C181.394 95.0206 181.527 95.4446 181.473 95.9012C181.397 96.5541 180.946 96.9309 180.422 97.2155C180.433 97.2216 180.444 97.2276 180.455 97.2337C180.742 97.3948 181.014 97.5462 181.243 97.8575C181.423 98.1022 181.524 98.4135 181.622 98.7151C181.832 99.3644 182 99.7593 182.554 99.7593C182.655 99.7593 182.769 99.746 182.893 99.7193C182.958 99.7048 183.025 99.7339 183.061 99.7896C183.097 99.8465 183.095 99.9192 183.055 99.9725C182.907 100.171 182.674 100.293 182.399 100.316C182.347 100.32 182.298 100.323 182.25 100.323C181.301 100.323 180.956 99.5134 180.651 98.7987C180.42 98.2585 180.203 97.7473 179.769 97.5547C179.615 97.4869 179.371 97.459 179.124 97.4808V99.7363H179.484C179.544 99.7363 179.599 99.7605 179.639 99.8041C179.71 99.8816 179.71 99.9931 179.706 100.038C179.717 100.278 179.572 100.315 179.527 100.32L177.795 100.324ZM178.501 94.9261V99.8974C178.501 99.9349 178.488 99.9725 178.464 100.002H178.84C178.816 99.9737 178.802 99.9374 178.802 99.8974V97.3379C178.802 97.2652 178.85 97.2034 178.916 97.184C178.848 97.1647 178.802 97.1017 178.802 97.0302V94.9334C178.696 94.9177 178.585 94.914 178.501 94.9261ZM180.218 97.4687C180.553 97.7643 180.749 98.2233 180.94 98.6703C181.223 99.3305 181.468 99.9083 182.09 99.9894C181.632 99.7871 181.468 99.276 181.318 98.8133C181.227 98.5359 181.135 98.25 180.986 98.0477C180.799 97.7933 180.579 97.6698 180.3 97.5135C180.272 97.5002 180.246 97.4844 180.218 97.4687ZM179.645 97.184C179.729 97.201 179.814 97.2252 179.894 97.2603C179.912 97.2688 179.931 97.2773 179.948 97.2858C179.932 97.2591 179.925 97.2289 179.927 97.1974C179.93 97.155 179.948 97.1162 179.978 97.0883C179.872 97.1307 179.762 97.1622 179.645 97.184ZM180.135 94.4089C180.573 94.7226 180.849 95.2047 180.861 95.7644C180.869 96.1411 180.732 96.4936 180.476 96.7564C180.412 96.8231 180.34 96.8836 180.263 96.9369C180.762 96.6668 181.096 96.3603 181.154 95.8637C181.197 95.4955 181.095 95.1672 180.85 94.8898C180.672 94.6875 180.425 94.524 180.135 94.4089Z" fill="#CDCAD5"/>
<path d="M193.89 94.0488C193.927 94.0488 193.927 94.1906 193.927 94.1906C193.927 94.1906 193.924 94.3141 193.88 94.319L193.358 94.3214L191.61 96.8349L191.599 99.8958L192.195 99.8995C192.229 99.908 192.231 100.035 192.231 100.035C192.231 100.035 192.248 100.16 192.195 100.16C191.98 100.16 190.395 100.16 190.395 100.16C190.35 100.16 190.35 100.035 190.35 100.035C190.35 100.035 190.35 99.8995 190.395 99.8995L190.973 99.8958V96.8349L189.465 94.3202H188.728C188.676 94.3202 188.692 94.1918 188.692 94.1918C188.692 94.1918 188.692 94.05 188.728 94.05H190.737C190.774 94.05 190.774 94.1918 190.774 94.1918C190.774 94.1918 190.774 94.3202 190.737 94.3202H190.083L191.47 96.5599L193.034 94.3202L192.522 94.3214C192.449 94.3202 192.463 94.1881 192.463 94.1881C192.463 94.1881 192.449 94.05 192.517 94.05L193.89 94.0488Z" fill="#CDCAD5"/>
<path d="M192.197 100.322H190.397C190.297 100.322 190.191 100.247 190.191 100.036C190.191 99.7611 190.349 99.7393 190.397 99.7393L190.816 99.7369V96.8806L189.375 94.481H188.728C188.682 94.481 188.617 94.4519 188.587 94.4168C188.526 94.3478 188.525 94.2448 188.533 94.1721C188.532 93.9286 188.654 93.8899 188.726 93.8899H190.735C190.809 93.8899 190.931 93.9286 190.931 94.1927C190.931 94.4531 190.794 94.4822 190.735 94.4822H190.369L191.477 96.2701L192.725 94.4822H192.521C192.46 94.4822 192.404 94.4568 192.366 94.412C192.303 94.3405 192.3 94.2424 192.303 94.1879C192.3 94.1321 192.303 94.0292 192.367 93.9565C192.406 93.9129 192.46 93.8887 192.517 93.8887H193.89C193.963 93.8887 194.085 93.9274 194.085 94.1915C194.081 94.441 193.94 94.4749 193.897 94.4798L193.443 94.4822L191.77 96.8867L191.76 99.7369L192.198 99.7393C192.211 99.7393 192.224 99.7417 192.237 99.7442C192.388 99.7829 192.391 99.9707 192.394 100.032C192.4 100.074 192.404 100.183 192.34 100.257C192.308 100.292 192.242 100.322 192.197 100.322ZM191.096 100.001H191.478C191.454 99.9731 191.44 99.9356 191.44 99.8956L191.45 96.8346C191.45 96.8019 191.46 96.7704 191.479 96.7425L191.497 96.7171C191.486 96.7195 191.477 96.7195 191.465 96.7195C191.412 96.7183 191.363 96.6892 191.334 96.6444L189.947 94.4059C189.916 94.3562 189.915 94.2945 189.942 94.2424C189.948 94.2315 189.957 94.2206 189.965 94.2109H189.581C189.588 94.2194 189.595 94.2278 189.6 94.2375L191.109 96.7534C191.125 96.7789 191.132 96.8067 191.132 96.837V99.898C191.133 99.9368 191.119 99.9731 191.096 100.001Z" fill="#CDCAD5"/>
</svg>
