<svg width="68" height="37" viewBox="0 0 68 37" fill="none" xmlns="http://www.w3.org/2000/svg">
<path d="M10.3301 25.3428L10.7956 25.928V29.5946H11.9483V25.3428H10.3301Z" fill="#CDCAD5"/>
<path d="M52.0596 25.3867L52.5251 25.972V29.6341H53.6202V25.3867H52.0596Z" fill="#CDCAD5"/>
<path d="M17.1631 25.3867L17.633 26.0074V29.674H18.7814V25.3867H17.1631Z" fill="#CDCAD5"/>
<path d="M12.7871 26.5044L12.9999 25.3428H16.5291L16.7064 26.4689L16.1079 25.8438H15.2522V29.6345H14.1527V25.8039H13.4788L12.7871 26.5044Z" fill="#CDCAD5"/>
<path d="M22.6955 26.5529L22.6112 25.511C21.9284 25.4223 21.3742 25.1696 20.6959 25.4666C20.0575 25.7149 19.4323 26.8765 20.3146 27.5017C20.7358 27.8431 22.6511 28.5923 21.2545 29.2175C20.6959 29.3017 20.1506 29.1731 19.8535 28.5081V29.1332C20.2791 29.3859 20.7402 29.6342 21.2545 29.6342C22.4826 29.7229 23.0767 28.5968 22.6511 27.8475C22.1856 27.3066 21.7201 27.1381 21.1659 26.7613C20.7358 26.5085 20.8245 25.7593 21.1659 25.6351C21.4629 25.5154 21.9284 25.6351 22.1856 25.8479L22.6955 26.5529Z" fill="#CDCAD5"/>
<path d="M23.4189 25.2979L23.9288 25.9274V29.594H25.117V27.6388H26.6909V29.594H27.919V25.3466H26.6909V27.0048H25.117V25.2979H23.4189Z" fill="#CDCAD5"/>
<path d="M36.5957 29.6345L37.3982 26.1364L37.0169 25.4226H38.3691L39.3534 27.431L40.4928 25.3428H41.5214L42.1998 29.6345H41.047L40.5416 26.5044L39.0563 29.3064L37.611 26.5531L36.9327 29.6345H36.5957Z" fill="#CDCAD5"/>
<path d="M42.8379 25.3428L43.3034 25.8438V29.6345H46.1897V28.8054L45.6798 29.1778H44.4074V27.4665H45.8128V26.93H44.4074V25.8438H45.937V25.3428H42.8379Z" fill="#CDCAD5"/>
<path d="M58.3457 26.6721L58.257 25.6346C56.3062 24.8011 54.4352 25.8874 54.8609 28.0997C54.9894 28.8091 56.0535 29.6382 56.9846 29.5983C57.5831 29.6382 57.8801 29.4697 58.3013 29.3456V28.5963C57.6673 29.0973 57.0644 29.4298 56.222 28.5519C55.3264 27.4302 55.9205 25.7144 57.5388 25.8474C57.8757 26.047 58.0442 26.3839 58.3457 26.6721Z" fill="#CDCAD5"/>
<path d="M63.7822 25.3428L64.2123 26.1364V29.6345H64.6778V26.7615L67.1828 29.6345H67.8212V25.3428H67.2715V28.1359L64.935 25.3428H63.7822Z" fill="#CDCAD5"/>
<path d="M3.14786 24.6777C4.46463 24.8861 4.3804 26.4689 3.23653 26.8413C4.85036 27.3468 4.85036 29.1778 3.06805 29.6345H0.425626V25.3428L0 24.6777H3.14786ZM1.53403 25.0457V26.8413C2.42961 26.8413 2.89514 26.7172 2.94391 25.9723C3.01928 25.2984 2.50942 24.8861 1.53403 25.0457ZM1.53403 27.2537V29.1335C2.60252 29.1335 3.14786 29.1335 3.18776 28.1758C3.23209 27.2537 2.55819 27.1339 1.53403 27.2537Z" fill="#CDCAD5"/>
<path d="M7.73225 25.3867C9.35495 25.3867 9.27071 27.302 7.86526 27.5947L9.94905 29.6341H8.45493L6.59725 27.8474V29.6341H5.53318V25.9675L5.14746 25.3867H7.73225ZM6.63272 25.5862V27.169C7.39973 27.169 7.82092 27.0449 7.86526 26.3843C7.94063 25.7591 7.48397 25.5463 6.63272 25.5862Z" fill="#CDCAD5"/>
<path d="M49.4261 25.3867C50.9956 25.3867 50.9069 27.1735 49.5547 27.4661L51.8025 29.6341H50.2729L48.3221 27.6789V29.6341H47.3467V25.9276L46.9521 25.3867H49.4261ZM48.362 25.7591V27.3464C49.0803 27.3464 49.5059 27.2577 49.5547 26.5971C49.63 25.972 49.1689 25.635 48.362 25.7591Z" fill="#CDCAD5"/>
<path d="M30.9814 29.6343L33.0165 25.0898L32.5509 24.4248H34.0406L36.2486 29.6343H35.0249L34.2933 27.883H32.4711L31.7041 29.6343H30.9814ZM34.1648 27.5062L33.4421 25.4711L32.6352 27.5062H34.1648Z" fill="#CDCAD5"/>
<path d="M58.9844 29.6341L60.6869 25.9232L60.2923 25.3867H61.5337L63.3116 29.6341H62.3007L61.7421 28.2198H60.1682L59.574 29.6341H58.9844ZM61.6224 27.8828L61.0194 26.2202L60.3411 27.8828H61.6224Z" fill="#CDCAD5"/>
<path d="M17.207 33.1412L17.4287 31.9707H21.6672L21.8401 33.0924L21.246 32.4673H20.0623V36.8876H18.9938V32.4318H17.8898L17.207 33.1412Z" fill="#CDCAD5"/>
<path d="M40.4522 34.0106L40.4078 32.9731C38.4571 32.0953 36.5861 33.2258 36.9718 35.4338C37.1403 36.1387 38.1999 36.9722 39.1398 36.888C39.7295 36.9279 39.9866 36.8082 40.4123 36.6796V35.9348C39.8182 36.4313 39.2241 36.7683 38.3772 35.8505C37.4861 34.7643 38.0314 33.013 39.6985 33.1815C40.031 33.3943 40.2039 33.7224 40.4522 34.0106Z" fill="#CDCAD5"/>
<path d="M44.9165 34.0549L44.8766 33.013C42.9213 32.1396 41.0459 33.2613 41.4317 35.4648C41.6046 36.1741 42.6199 37.0165 43.5953 36.9278C44.2027 36.9722 44.4465 36.848 44.881 36.7283V35.9702C44.2825 36.4712 43.6884 36.8081 42.8415 35.8904C41.9016 34.8041 42.5002 33.0573 44.1583 33.2258C44.4908 33.4297 44.6593 33.7667 44.9165 34.0549Z" fill="#CDCAD5"/>
<path d="M30.1307 32.7598C31.4076 32.9282 31.3234 34.2184 30.215 34.5554C31.7889 34.9721 31.7002 36.6791 30.0864 36.8475H27.577V33.3051L27.1514 32.7598H30.1307ZM28.5967 33.0568V34.5554C29.4435 34.5554 29.9135 34.4756 29.9578 33.846C30.0421 33.2608 29.5322 32.9282 28.5967 33.0568ZM28.5967 34.8879V36.4707C29.6164 36.4707 30.1706 36.4707 30.1706 35.6815C30.2549 34.9322 29.581 34.8037 28.5967 34.8879Z" fill="#CDCAD5"/>
<path d="M31.9131 36.8474L33.5269 33.2606L33.1412 32.7197H34.458L36.1605 36.8873L35.0964 36.8474L34.6708 35.8099H32.9328L32.4673 36.8474H31.9131ZM34.5067 35.3444L33.8284 33.5532L33.1057 35.3444H34.5067Z" fill="#CDCAD5"/>
<path d="M24.2654 32.6846C25.5378 32.6846 26.5974 33.5979 26.5974 34.7684C26.5974 35.9388 25.5378 36.8522 24.2654 36.8522C22.9885 36.8522 21.9688 35.9388 21.9688 34.7684C21.9688 33.5979 22.9885 32.6846 24.2654 32.6846ZM23.0727 34.8038C23.0727 35.8103 23.6269 36.595 24.2654 36.595C24.9481 36.595 25.458 35.8103 25.458 34.8038C25.458 33.8462 24.9437 33.0526 24.2654 33.0526C23.6269 33.057 23.0727 33.8462 23.0727 34.8038Z" fill="#CDCAD5"/>
<path d="M48.3131 32.6846C49.5899 32.6846 50.6097 33.5979 50.6097 34.7684C50.6097 35.9388 49.5899 36.8522 48.3131 36.8522C47.0362 36.8522 45.9766 35.9388 45.9766 34.7684C45.9766 33.5979 47.0362 32.6846 48.3131 32.6846ZM47.1249 34.8038C47.1249 35.8103 47.6436 36.595 48.3131 36.595C48.9515 36.595 49.5013 35.8103 49.5013 34.8038C49.5013 33.8462 48.9515 33.0526 48.3131 33.0526C47.6436 33.057 47.1249 33.8462 47.1249 34.8038Z" fill="#CDCAD5"/>
<path d="M26.9297 21.5739C21.0375 21.5739 15.562 15.7215 14.1787 9.11992C19.4104 8.83173 25.8479 10.7914 28.8495 13.8018C28.6411 8.62335 30.818 3.13899 33.9082 0C37.7211 3.47594 39.0955 10.082 39.0113 13.6777C43.3607 10.3746 47.9982 9.15982 53.6377 9.3682C52.1348 16.1028 46.8676 21.7025 40.6828 21.6581L45.3203 19.1088L39.3882 20.9488L48.0425 13.5092L37.7566 20.4433L40.266 15.2161L36.3334 20.3192L37.1714 14.9235L34.6176 20.1906L34.0811 4.47794L33.1989 20.062L30.7293 14.8348L31.7358 20.1906L27.6879 15.4245L30.0643 20.4877L19.6586 13.4249L28.517 20.8202L22.7489 18.8517L26.9297 21.5739Z" fill="#CDCAD5"/>
</svg>
