<svg width="276" height="151" viewBox="0 0 276 151" fill="none" xmlns="http://www.w3.org/2000/svg">
<path d="M104.534 85.6543L105.189 86.4777V91.6362H106.811V85.6543H104.534Z" fill="#CDCAD5"/>
<path d="M163.243 85.7168L163.898 86.5402V91.6925H165.438V85.7168H163.243Z" fill="#CDCAD5"/>
<path d="M114.147 85.7168L114.808 86.5901V91.7486H116.424V85.7168H114.147Z" fill="#CDCAD5"/>
<path d="M107.99 87.2886L108.289 85.6543H113.254L113.504 87.2387L112.662 86.3592H111.458V91.6924H109.911V86.303H108.963L107.99 87.2886Z" fill="#CDCAD5"/>
<path d="M121.931 87.3577L121.812 85.8918C120.852 85.7671 120.072 85.4115 119.118 85.8295C118.22 86.1788 117.34 87.813 118.581 88.6926C119.174 89.1729 121.869 90.227 119.904 91.1065C119.118 91.2251 118.351 91.0442 117.933 90.1085V90.988C118.531 91.3436 119.18 91.6929 119.904 91.6929C121.632 91.8176 122.467 90.2333 121.869 89.1791C121.214 88.4181 120.559 88.1811 119.779 87.6509C119.174 87.2953 119.299 86.2412 119.779 86.0665C120.197 85.8981 120.852 86.0665 121.214 86.3659L121.931 87.3577Z" fill="#CDCAD5"/>
<path d="M122.948 85.5918L123.665 86.4775V91.6361H125.337V88.8853H127.551V91.6361H129.279V85.6604H127.551V87.9933H125.337V85.5918H122.948Z" fill="#CDCAD5"/>
<path d="M141.486 91.6924L142.615 86.7708L142.079 85.7666H143.981L145.366 88.5922L146.969 85.6543H148.416L149.371 91.6924H147.749L147.038 87.2886L144.948 91.2308L142.915 87.3572L141.96 91.6924H141.486Z" fill="#CDCAD5"/>
<path d="M150.269 85.6543L150.924 86.3592V91.6924H154.985V90.5259L154.267 91.0499H152.477V88.6421H154.455V87.8874H152.477V86.3592H154.629V85.6543H150.269Z" fill="#CDCAD5"/>
<path d="M172.088 87.5256L171.963 86.066C169.219 84.8933 166.586 86.4216 167.185 89.5342C167.366 90.5322 168.863 91.6986 170.173 91.6425C171.015 91.6986 171.433 91.4616 172.025 91.287V90.2328C171.133 90.9376 170.285 91.4055 169.1 90.1704C167.84 88.5923 168.676 86.1783 170.953 86.3654C171.427 86.6461 171.664 87.1202 172.088 87.5256Z" fill="#CDCAD5"/>
<path d="M179.736 85.6543L180.341 86.7708V91.6924H180.996V87.6504L184.52 91.6924H185.418V85.6543H184.645V89.584L181.358 85.6543H179.736Z" fill="#CDCAD5"/>
<path d="M94.4288 84.7188C96.2813 85.0119 96.1628 87.2388 94.5535 87.7627C96.824 88.4738 96.824 91.05 94.3165 91.6925H90.5988V85.6544L90 84.7188H94.4288ZM92.1582 85.2365V87.7627C93.4183 87.7627 94.0732 87.5881 94.1418 86.5402C94.2479 85.592 93.5305 85.0119 92.1582 85.2365ZM92.1582 88.3428V90.9876C93.6615 90.9876 94.4288 90.9876 94.4849 89.6403C94.5473 88.3428 93.5991 88.1744 92.1582 88.3428Z" fill="#CDCAD5"/>
<path d="M100.879 85.7168C103.162 85.7168 103.044 88.4115 101.066 88.8232L103.998 91.6925H101.896L99.2824 89.1787V91.6925H97.7854V86.5339L97.2427 85.7168H100.879ZM99.3323 85.9975V88.2243C100.411 88.2243 101.004 88.0497 101.066 87.1203C101.172 86.2408 100.53 85.9414 99.3323 85.9975Z" fill="#CDCAD5"/>
<path d="M159.538 85.7168C161.746 85.7168 161.621 88.2306 159.719 88.6423L162.881 91.6925H160.729L157.985 88.9417V91.6925H156.612V86.4778L156.057 85.7168H159.538ZM158.041 86.2408V88.4739C159.051 88.4739 159.65 88.3491 159.719 87.4197C159.825 86.5402 159.176 86.0661 158.041 86.2408Z" fill="#CDCAD5"/>
<path d="M133.588 91.6926L136.451 85.2989L135.797 84.3633H137.892L140.999 91.6926H139.277L138.248 89.2287H135.684L134.605 91.6926H133.588ZM138.067 88.6985L137.05 85.8354L135.915 88.6985H138.067Z" fill="#CDCAD5"/>
<path d="M172.986 91.6925L175.382 86.4716L174.826 85.7168H176.573L179.074 91.6925H177.652L176.866 89.7027H174.652L173.816 91.6925H172.986ZM176.698 89.2286L175.849 86.8895L174.895 89.2286H176.698Z" fill="#CDCAD5"/>
<path d="M114.209 96.6262L114.521 94.9795H120.484L120.727 96.5576L119.892 95.6781H118.226V101.897H116.723V95.6282H115.17L114.209 96.6262Z" fill="#CDCAD5"/>
<path d="M146.913 97.849L146.851 96.3894C144.106 95.1544 141.474 96.745 142.016 99.8513C142.253 100.843 143.744 102.016 145.067 101.897C145.896 101.953 146.258 101.785 146.857 101.604V100.556C146.021 101.255 145.185 101.729 143.994 100.438C142.74 98.9095 143.507 96.4456 145.853 96.6826C146.32 96.982 146.564 97.4436 146.913 97.849Z" fill="#CDCAD5"/>
<path d="M153.194 97.9113L153.138 96.4454C150.387 95.2166 147.749 96.7947 148.291 99.8948C148.534 100.893 149.963 102.078 151.335 101.953C152.19 102.016 152.533 101.841 153.144 101.673V100.606C152.302 101.311 151.466 101.785 150.275 100.494C148.952 98.9654 149.794 96.5078 152.127 96.7448C152.595 97.0318 152.832 97.5058 153.194 97.9113Z" fill="#CDCAD5"/>
<path d="M132.392 96.0898C134.188 96.3269 134.07 98.142 132.51 98.6161C134.725 99.2024 134.6 101.604 132.33 101.841H128.799V96.8571L128.2 96.0898H132.392ZM130.234 96.5078V98.6161C131.425 98.6161 132.086 98.5038 132.149 97.6181C132.267 96.7947 131.55 96.3269 130.234 96.5078ZM130.234 99.0839V101.311C131.668 101.311 132.448 101.311 132.448 100.2C132.567 99.1463 131.618 98.9654 130.234 99.0839Z" fill="#CDCAD5"/>
<path d="M134.899 101.841L137.169 96.7952L136.627 96.0342H138.479L140.875 101.898L139.378 101.841L138.779 100.382H136.334L135.679 101.841H134.899ZM138.548 99.7269L137.594 97.2069L136.577 99.7269H138.548Z" fill="#CDCAD5"/>
<path d="M124.139 95.9844C125.929 95.9844 127.42 97.2693 127.42 98.9161C127.42 100.563 125.929 101.848 124.139 101.848C122.342 101.848 120.908 100.563 120.908 98.9161C120.908 97.2693 122.342 95.9844 124.139 95.9844ZM122.461 98.966C122.461 100.382 123.241 101.486 124.139 101.486C125.099 101.486 125.817 100.382 125.817 98.966C125.817 97.6186 125.093 96.5021 124.139 96.5021C123.241 96.5083 122.461 97.6186 122.461 98.966Z" fill="#CDCAD5"/>
<path d="M157.972 95.9844C159.769 95.9844 161.203 97.2693 161.203 98.9161C161.203 100.563 159.769 101.848 157.972 101.848C156.176 101.848 154.685 100.563 154.685 98.9161C154.685 97.2693 156.176 95.9844 157.972 95.9844ZM156.301 98.966C156.301 100.382 157.03 101.486 157.972 101.486C158.871 101.486 159.644 100.382 159.644 98.966C159.644 97.6186 158.871 96.5021 157.972 96.5021C157.03 96.5083 156.301 97.6186 156.301 98.966Z" fill="#CDCAD5"/>
<path d="M127.888 80.3526C119.598 80.3526 111.894 72.1188 109.948 62.8309C117.309 62.4255 126.366 65.1825 130.589 69.4179C130.296 62.1323 133.358 54.4163 137.706 50C143.07 54.8903 145.004 64.1845 144.886 69.2433C151.005 64.5962 157.529 62.8871 165.464 63.1802C163.349 72.6553 155.939 80.5335 147.237 80.4711L153.762 76.8844L145.416 79.4731L157.592 69.0062L143.12 78.762L146.651 71.4077L141.118 78.5873L142.297 70.996L138.704 78.4064L137.949 56.3001L136.708 78.2255L133.234 70.8713L134.649 78.4064L128.954 71.7009L132.298 78.8243L117.658 68.8877L130.121 79.2922L122.006 76.5226L127.888 80.3526Z" fill="#CDCAD5"/>
</svg>
