<svg width="96" height="52" viewBox="0 0 96 52" fill="none" xmlns="http://www.w3.org/2000/svg">
<path d="M14.5342 35.6543L15.1891 36.4777V41.6362H16.8109V35.6543H14.5342Z" fill="#CDCAD5"/>
<path d="M73.2432 35.7168L73.8981 36.5402V41.6925H75.4388V35.7168H73.2432Z" fill="#CDCAD5"/>
<path d="M24.1465 35.7168L24.8077 36.5901V41.7486H26.4232V35.7168H24.1465Z" fill="#CDCAD5"/>
<path d="M17.9902 37.2886L18.2896 35.6543H23.2548L23.5043 37.2387L22.6623 36.3592H21.4584V41.6924H19.9114V36.303H18.9633L17.9902 37.2886Z" fill="#CDCAD5"/>
<path d="M31.931 37.3577L31.8125 35.8918C30.8519 35.7671 30.0721 35.4115 29.1178 35.8295C28.2196 36.1788 27.34 37.813 28.5813 38.6926C29.1739 39.1729 31.8686 40.227 29.9037 41.1065C29.1178 41.2251 28.3505 41.0442 27.9326 40.1085V40.988C28.5314 41.3436 29.1802 41.6929 29.9037 41.6929C31.6316 41.8176 32.4674 40.2333 31.8686 39.1791C31.2136 38.4181 30.5587 38.1811 29.779 37.6509C29.1739 37.2953 29.2987 36.2412 29.779 36.0665C30.1969 35.8981 30.8519 36.0665 31.2136 36.3659L31.931 37.3577Z" fill="#CDCAD5"/>
<path d="M32.9473 35.5918L33.6646 36.4775V41.6361H35.3363V38.8853H37.5507V41.6361H39.2785V35.6604H37.5507V37.9933H35.3363V35.5918H32.9473Z" fill="#CDCAD5"/>
<path d="M51.4863 41.6924L52.6153 36.7708L52.0789 35.7666H53.9814L55.3662 38.5922L56.9693 35.6543H58.4164L59.3708 41.6924H57.749L57.0379 37.2886L54.9482 41.2308L52.9148 37.3572L51.9604 41.6924H51.4863Z" fill="#CDCAD5"/>
<path d="M60.2695 35.6543L60.9245 36.3592V41.6924H64.9852V40.5259L64.2679 41.0499H62.4777V38.6421H64.455V37.8874H62.4777V36.3592H64.6297V35.6543H60.2695Z" fill="#CDCAD5"/>
<path d="M82.0883 37.5256L81.9636 36.066C79.219 34.8933 76.5867 36.4216 77.1855 39.5342C77.3664 40.5322 78.8634 41.6986 80.1734 41.6425C81.0154 41.6986 81.4334 41.4616 82.026 41.287V40.2328C81.134 40.9376 80.2856 41.4055 79.1005 40.1704C77.8405 38.5923 78.6763 36.1783 80.9531 36.3654C81.4271 36.6461 81.6642 37.1202 82.0883 37.5256Z" fill="#CDCAD5"/>
<path d="M89.7354 35.6543L90.3404 36.7708V41.6924H90.9954V37.6504L94.5197 41.6924H95.4179V35.6543H94.6444V39.584L91.3572 35.6543H89.7354Z" fill="#CDCAD5"/>
<path d="M4.42876 34.7188C6.28135 35.0119 6.16283 37.2388 4.55351 37.7627C6.82403 38.4738 6.82403 41.05 4.31648 41.6925H0.598818V35.6544L0 34.7188H4.42876ZM2.15824 35.2365V37.7627C3.41825 37.7627 4.07321 37.5881 4.14182 36.5402C4.24786 35.592 3.53053 35.0119 2.15824 35.2365ZM2.15824 38.3428V40.9876C3.66152 40.9876 4.42876 40.9876 4.48489 39.6403C4.54727 38.3428 3.59914 38.1744 2.15824 38.3428Z" fill="#CDCAD5"/>
<path d="M10.8788 35.7168C13.1618 35.7168 13.0432 38.4115 11.0659 38.8232L13.9976 41.6925H11.8955L9.28191 39.1787V41.6925H7.78487V36.5339L7.24219 35.7168H10.8788ZM9.33181 35.9975V38.2243C10.4109 38.2243 11.0035 38.0497 11.0659 37.1203C11.1719 36.2408 10.5294 35.9414 9.33181 35.9975Z" fill="#CDCAD5"/>
<path d="M69.5382 35.7168C71.7464 35.7168 71.6216 38.2306 69.7191 38.6423L72.8816 41.6925H70.7296L67.9851 38.9417V41.6925H66.6128V36.4778L66.0576 35.7168H69.5382ZM68.0412 36.2408V38.4739C69.0517 38.4739 69.6505 38.3491 69.7191 37.4197C69.8252 36.5402 69.1765 36.0661 68.0412 36.2408Z" fill="#CDCAD5"/>
<path d="M43.5879 41.6926L46.451 35.2989L45.796 34.3633H47.8919L50.9983 41.6926H49.2767L48.2474 39.2287H45.6838L44.6046 41.6926H43.5879ZM48.0665 38.6985L47.0498 35.8354L45.9145 38.6985H48.0665Z" fill="#CDCAD5"/>
<path d="M82.9863 41.6925L85.3816 36.4716L84.8265 35.7168H86.573L89.0743 41.6925H87.6521L86.8662 39.7027H84.6518L83.8159 41.6925H82.9863ZM86.6978 39.2286L85.8494 36.8895L84.8951 39.2286H86.6978Z" fill="#CDCAD5"/>
<path d="M24.209 46.6262L24.5209 44.9795H30.4841L30.7274 46.5576L29.8915 45.6781H28.2261V51.8971H26.7228V45.6282H25.1696L24.209 46.6262Z" fill="#CDCAD5"/>
<path d="M56.9125 47.849L56.8501 46.3894C54.1056 45.1544 51.4733 46.745 52.0159 49.8513C52.253 50.8431 53.7438 52.0158 55.0662 51.8973C55.8958 51.9534 56.2576 51.785 56.8564 51.6041V50.5562C56.0205 51.2548 55.1847 51.7289 53.9933 50.4377C52.7395 48.9095 53.5068 46.4456 55.8521 46.6826C56.3199 46.982 56.5632 47.4436 56.9125 47.849Z" fill="#CDCAD5"/>
<path d="M63.194 47.9113L63.1379 46.4454C60.3871 45.2166 57.7485 46.7947 58.2912 49.8948C58.5345 50.8929 59.9629 52.078 61.3352 51.9533C62.1897 52.0157 62.5328 51.841 63.1441 51.6726V50.6059C62.302 51.3108 61.4662 51.7849 60.2748 50.4937C58.9524 48.9654 59.7945 46.5078 62.1274 46.7448C62.5952 47.0318 62.8322 47.5058 63.194 47.9113Z" fill="#CDCAD5"/>
<path d="M42.3919 46.0898C44.1884 46.3269 44.0699 48.142 42.5104 48.6161C44.7248 49.2024 44.6001 51.604 42.3295 51.841H38.799V46.8571L38.2002 46.0898H42.3919ZM40.2337 46.5078V48.6161C41.4251 48.6161 42.0863 48.5038 42.1486 47.6181C42.2672 46.7947 41.5498 46.3269 40.2337 46.5078ZM40.2337 49.0839V51.3108C41.6683 51.3108 42.4481 51.3108 42.4481 50.2005C42.5666 49.1463 41.6184 48.9654 40.2337 49.0839Z" fill="#CDCAD5"/>
<path d="M44.8984 51.8415L47.169 46.7952L46.6263 46.0342H48.4789L50.8741 51.8976L49.3771 51.8415L48.7783 50.3818H46.3331L45.6781 51.8415H44.8984ZM48.5475 49.7269L47.5931 47.2069L46.5764 49.7269H48.5475Z" fill="#CDCAD5"/>
<path d="M34.1393 45.9844C35.9295 45.9844 37.4203 47.2693 37.4203 48.9161C37.4203 50.5628 35.9295 51.8478 34.1393 51.8478C32.3429 51.8478 30.9082 50.5628 30.9082 48.9161C30.9082 47.2693 32.3429 45.9844 34.1393 45.9844ZM32.4614 48.966C32.4614 50.3819 33.2411 51.486 34.1393 51.486C35.0999 51.486 35.8173 50.3819 35.8173 48.966C35.8173 47.6186 35.0937 46.5021 34.1393 46.5021C33.2411 46.5083 32.4614 47.6186 32.4614 48.966Z" fill="#CDCAD5"/>
<path d="M67.9728 45.9844C69.7693 45.9844 71.2039 47.2693 71.2039 48.9161C71.2039 50.5628 69.7693 51.8478 67.9728 51.8478C66.1764 51.8478 64.6855 50.5628 64.6855 48.9161C64.6855 47.2693 66.1764 45.9844 67.9728 45.9844ZM66.3011 48.966C66.3011 50.3819 67.0309 51.486 67.9728 51.486C68.871 51.486 69.6445 50.3819 69.6445 48.966C69.6445 47.6186 68.871 46.5021 67.9728 46.5021C67.0309 46.5083 66.3011 47.6186 66.3011 48.966Z" fill="#CDCAD5"/>
<path d="M37.8878 30.3526C29.5979 30.3526 21.8944 22.1188 19.9482 12.8309C27.3087 12.4255 36.3658 15.1825 40.5887 19.4179C40.2956 12.1323 43.3583 4.41628 47.7059 0C53.0703 4.89034 55.004 14.1845 54.8855 19.2433C61.0047 14.5962 67.5293 12.8871 75.4636 13.1802C73.349 22.6553 65.9387 30.5335 57.2371 30.4711L63.7617 26.8844L55.4157 29.4731L67.5917 19.0062L53.1202 28.762L56.6508 21.4077L51.1179 28.5873L52.2969 20.996L48.704 28.4064L47.9492 6.30006L46.7079 28.2255L43.2335 20.8713L44.6495 28.4064L38.9545 21.7009L42.2979 28.8243L27.658 18.8877L40.1209 29.2922L32.0057 26.5226L37.8878 30.3526Z" fill="#CDCAD5"/>
</svg>
