<svg width="57" height="57" viewBox="0 0 57 57" fill="none" xmlns="http://www.w3.org/2000/svg">
<path d="M1.03381 44.5383C0.728789 44.5428 0.612913 44.5532 0.527079 44.5658C0.44135 44.5782 0.385767 44.5931 0.340862 44.6087C0.246549 44.6457 0.185209 44.6666 0.106912 44.7809C0.0430599 44.8961 0.0428506 44.9764 0.0460955 45.0932C0.0490264 45.1459 0.0566678 45.2071 0.0719504 45.2834C0.087233 45.3598 0.110262 45.4514 0.148677 45.5705C0.19411 45.7092 0.244703 45.8461 0.300352 45.981C0.653108 46.7263 1.09871 47.4288 1.61319 48.0438C2.12767 48.6588 2.71103 49.1865 3.33898 49.6691C3.96692 50.1518 4.63946 50.5893 5.36235 50.9869C6.08524 51.3846 6.85869 51.7425 7.68541 52.0669C8.53573 52.3998 9.40386 52.686 10.2859 52.9241C13.1324 53.6716 16.0489 54.1275 20.3606 54.3609C24.6721 54.5942 30.3789 54.6049 35.1039 54.3371C39.8288 54.0692 43.5719 53.5231 47.2434 52.6562C48.3511 52.3664 49.4358 51.9871 50.3873 51.566C51.3386 51.1448 52.1566 50.6817 52.8865 50.1681C53.6164 49.6545 54.2582 49.0906 54.8393 48.4058C55.4203 47.7211 55.9403 46.9158 56.352 46.0603C56.5259 45.6667 56.6795 45.2583 56.3882 44.8791C56.3576 44.8434 56.3234 44.811 56.2861 44.7824C56.239 44.7464 56.1885 44.715 56.1353 44.6888C56.0737 44.6575 55.9991 44.626 55.8845 44.6C55.77 44.5739 55.6155 44.5534 55.4606 44.5456H2.32603C1.83259 44.5357 1.33873 44.534 1.03381 44.5383ZM54.8462 13.5798C55.1645 13.5646 55.483 13.5346 55.6851 13.5045C55.8869 13.4744 55.9723 13.4443 56.0418 13.4154C56.1117 13.3865 56.1657 13.3589 56.2115 13.3291C56.4564 13.1545 56.482 12.9958 56.5186 12.8242C56.5291 12.7608 56.5356 12.6887 56.5362 12.603C56.5364 12.5 56.5298 12.3971 56.5165 12.295C56.5013 12.1717 56.4764 12.0242 56.4335 11.838C56.3833 11.6249 56.3253 11.4138 56.2597 11.2049C56.1209 10.7627 55.9245 10.3401 55.598 9.82162C55.2713 9.30328 54.8148 8.68917 54.1761 8.00488C53.5373 7.32059 52.7168 6.56611 51.8273 5.87693C50.9293 5.18235 49.976 4.56138 48.9767 4.02016C47.2052 3.08216 45.3266 2.35357 42.8671 1.70942C40.4077 1.06526 37.3672 0.505436 33.9542 0.220532C30.5413 -0.0643733 26.7558 -0.0744593 23.3042 0.197448C19.8528 0.469459 16.7353 1.02346 14.2062 1.66866C11.6771 2.31385 9.73632 3.05003 7.90293 4.00072C6.96985 4.48132 6.06106 5.00953 5.26301 5.52933C4.46486 6.04923 3.77746 6.56081 3.17327 7.06376C2.56919 7.56671 2.04833 8.06093 1.5865 8.65684C1.12467 9.25264 0.721566 9.95024 0.411308 10.6855C0.317485 10.894 0.23509 11.1075 0.164483 11.3249C0.101364 11.5216 0.0613782 11.691 0.035942 11.8406C0.0129829 11.9713 0.000973815 12.1037 3.83402e-05 12.2363C-0.000676704 12.3409 0.00861141 12.4452 0.0277773 12.548C0.0767654 12.779 0.153074 12.9777 0.3865 13.189C0.450247 13.2446 0.523625 13.2963 0.610296 13.3438C0.696967 13.3914 0.796933 13.4347 0.916577 13.4726C1.03622 13.5105 1.17533 13.543 1.34491 13.5654C1.51448 13.588 1.71452 13.6 1.91424 13.5999L54.8462 13.5798Z" fill="#CDCAD5"/>
<path d="M18.5765 25.2171C19.2818 24.6038 19.4521 23.9905 19.4636 23.362L19.4682 17.1374C19.464 16.8875 19.4021 16.6365 19.1242 16.3867C19.0703 16.3399 19.0124 16.2978 18.9512 16.2609C18.8797 16.2176 18.8047 16.1803 18.7271 16.1493C18.4462 16.0369 18.1269 15.9922 17.8013 16.0153C17.6946 16.0231 17.5886 16.0389 17.4842 16.0625C17.3843 16.0852 17.2918 16.1145 17.208 16.1478C17.1243 16.1813 17.0492 16.2192 16.9831 16.2591C16.9169 16.2991 16.8596 16.3413 16.8093 16.3848C16.5331 16.6319 16.4674 16.8802 16.4623 17.1356L16.4734 22.9382C16.4639 23.1596 16.4327 23.3896 16.1145 23.6196C15.7625 23.8324 15.3356 23.8913 14.8712 23.6171C14.5659 23.3968 14.5207 23.1698 14.5123 22.933L14.5064 17.1611C14.5017 16.9066 14.4384 16.6513 14.1547 16.3965C14.0997 16.349 14.0407 16.3062 13.9784 16.2687C13.9056 16.2248 13.8293 16.1869 13.7503 16.1554C13.466 16.042 13.142 15.9967 12.8124 16.021C12.7048 16.0291 12.598 16.0452 12.4929 16.0693C12.3927 16.0925 12.2998 16.1221 12.2159 16.1561C12.1377 16.1875 12.0623 16.2252 11.9905 16.269C11.929 16.3064 11.8708 16.349 11.8166 16.3963C11.5401 16.6471 11.476 16.8985 11.4733 17.1579L11.4655 23.3606C11.4656 23.4972 11.4771 23.6337 11.4999 23.7684C11.5873 24.2544 11.7941 24.7386 12.3543 25.2203C12.4971 25.34 12.6497 25.4475 12.8106 25.5417C13.0009 25.653 13.1999 25.7487 13.4057 25.828C13.6458 25.9208 13.8927 25.9952 14.1443 26.0505C14.6812 26.1712 15.311 26.2195 15.9122 26.1753C16.2023 26.1547 16.4905 26.113 16.7746 26.0507C17.0278 25.9951 17.2765 25.9205 17.5183 25.8273C17.7256 25.7476 17.926 25.6513 18.1177 25.5394C18.2795 25.445 18.4329 25.3371 18.5765 25.2171ZM21.8716 28.3654C21.7897 28.2944 21.7018 28.2305 21.6088 28.1745C21.5086 28.1136 21.3953 28.0561 21.2685 28.0053C21.1417 27.9544 21.0018 27.9099 20.8506 27.8753C20.5492 27.8054 20.1991 27.7778 19.8644 27.8032C19.7026 27.8152 19.542 27.8393 19.3839 27.8753C19.2328 27.9099 19.0928 27.9543 18.9661 28.0053C18.8482 28.0523 18.7343 28.1089 18.6258 28.1745C18.5256 28.2352 18.4389 28.2992 18.3629 28.3654C17.9451 28.7408 17.8462 29.1179 17.8394 29.5061V41.2437C17.8394 41.3298 17.8459 41.416 17.8591 41.4994C17.9113 41.8008 18.0291 42.0961 18.366 42.3972C18.4422 42.4638 18.5289 42.5281 18.6292 42.5893C18.7377 42.6552 18.8516 42.712 18.9695 42.7593C19.3945 42.9298 19.8775 42.9976 20.3692 42.9618C20.5357 42.9494 20.6974 42.9244 20.8481 42.8897C20.9989 42.855 21.1385 42.8104 21.2652 42.7593C21.3918 42.7082 21.5053 42.6504 21.6055 42.5893C21.7056 42.5281 21.7925 42.4638 21.8687 42.3972C22.2891 42.0177 22.3883 41.6364 22.3951 41.2437V29.5061C22.3885 29.1264 22.2944 28.7451 21.8716 28.3654ZM15.7752 39.5113L11.8487 35.244L15.8108 30.9911C16.364 30.2434 16.4509 29.4965 15.8929 28.7262C15.7917 28.5951 15.6759 28.4758 15.5476 28.3707C15.263 28.1355 14.9119 27.965 14.5716 27.8775C14.3973 27.8321 14.2187 27.8054 14.0387 27.7979C13.8713 27.7911 13.7037 27.8021 13.5387 27.8307C13.3856 27.8574 13.2357 27.9002 13.0917 27.9584C12.9539 28.0143 12.8222 28.084 12.6987 28.1666C12.5764 28.2482 12.4624 28.3417 12.3585 28.4456C10.6467 30.2837 8.93502 32.1216 7.22295 33.9596L7.23519 29.4888C7.22954 29.1158 7.13837 28.7404 6.71935 28.3676C6.63807 28.298 6.5509 28.2355 6.45882 28.1808C6.35948 28.1214 6.24695 28.0654 6.12113 28.0159C5.99531 27.9664 5.8562 27.9234 5.70589 27.8902C5.40536 27.823 5.05648 27.7981 4.72246 27.8261C4.56062 27.8393 4.40001 27.8645 4.242 27.9017C4.09918 27.9352 3.95923 27.9797 3.8234 28.0349C3.69643 28.0869 3.58254 28.1453 3.48206 28.2069C3.38157 28.2685 3.29448 28.3334 3.21817 28.4002C2.79968 28.7783 2.69772 29.1582 2.68945 29.5484L2.70034 41.2851C2.7061 41.6533 2.79444 42.0291 3.19807 42.3957C3.27592 42.4637 3.35947 42.5251 3.44783 42.579C3.54266 42.6372 3.64995 42.6918 3.77012 42.7405C3.89039 42.7891 4.02365 42.8319 4.16915 42.8656C4.61182 42.9676 5.12337 42.9796 5.63649 42.8665C5.78522 42.8337 5.93119 42.7895 6.07309 42.7343C6.20602 42.6823 6.32535 42.6236 6.43024 42.5618C6.52717 42.5051 6.61915 42.4404 6.70522 42.3684C7.13104 42.0001 7.2398 41.628 7.24859 41.2502L7.21625 36.6479L12.3228 42.2337C12.9274 42.8443 13.558 42.9859 14.1825 42.9204C14.4772 42.8859 14.8017 42.7875 15.1133 42.6122C15.2664 42.5261 15.4105 42.4253 15.5437 42.3111C16.295 41.6429 16.5006 40.8444 16.1929 40.1139C16.1069 39.9163 15.9718 39.7097 15.7752 39.5113ZM3.07717 25.8521C3.12103 25.8889 3.17044 25.9237 3.22906 25.9569C3.28778 25.99 3.35592 26.0216 3.43956 26.0519C3.52319 26.0822 3.62211 26.1113 3.78164 26.133C3.94106 26.1546 4.16119 26.1691 4.38059 26.1691H7.42999C7.63694 26.1691 7.84388 26.1555 8.03722 26.1296C8.43875 26.07 8.75445 25.9941 9.10365 25.8025C9.28463 25.7011 9.48017 25.5602 9.65843 25.401C10.0937 25.0027 10.3279 24.6032 10.471 24.2044C10.5139 24.0831 10.5497 23.9546 10.577 23.8177C10.6057 23.6723 10.6232 23.525 10.6294 23.377C10.6362 23.2189 10.6314 23.0486 10.6086 22.8671C10.5857 22.6857 10.545 22.4932 10.4915 22.3249C10.4428 22.1681 10.3749 22.0179 10.2894 21.8775C10.1252 21.638 9.94273 21.4097 9.79451 21.2526C9.64639 21.0954 9.53261 21.0093 9.41202 20.9313C9.29093 20.8527 9.16389 20.7834 9.03205 20.7242C9.21827 20.6001 9.39559 20.4622 9.53135 20.3382C9.78435 20.1047 9.91677 19.9076 10.027 19.706C10.1175 19.5363 10.1815 19.3539 10.2169 19.165C10.2801 18.7958 10.2675 18.2592 10.1057 17.7871C10.029 17.5621 9.92116 17.3525 9.75892 17.1393C9.66467 17.0131 9.55488 16.8992 9.43212 16.8001C9.28191 16.6776 9.07685 16.542 8.86185 16.4262C8.73857 16.3619 8.61006 16.308 8.47769 16.265C8.30509 16.2084 8.1286 16.1641 7.9496 16.1326C7.71438 16.0912 7.47703 16.0628 7.23865 16.0475H4.36949C4.18275 16.0475 3.9958 16.0627 3.83418 16.0917C3.67267 16.1207 3.53649 16.1628 3.41883 16.2142C3.30118 16.2655 3.20205 16.3261 3.11642 16.396C3.03196 16.4646 2.95851 16.5456 2.89859 16.6361C2.76555 16.8322 2.70442 17.0918 2.70421 17.3512V24.8886C2.70421 24.9623 2.70693 25.036 2.71405 25.1047C2.74619 25.356 2.80156 25.6108 3.07717 25.8521ZM5.63669 18.0636L6.38073 18.0726C6.64744 18.082 6.89761 18.1346 7.13994 18.4012C7.18869 18.4581 7.23044 18.5206 7.26429 18.5873C7.45648 19.0045 7.40246 19.393 7.13607 19.7161C6.88003 19.9858 6.6264 20.0171 6.38167 20.0208L5.63649 20.0113V18.0636H5.63669ZM5.63669 21.8879L6.52905 21.8864C6.8256 21.9099 7.10226 21.9703 7.3674 22.2916C7.41649 22.3552 7.45951 22.4271 7.49427 22.5068C7.52912 22.5867 7.55592 22.6745 7.57183 22.7677C7.6204 23.0601 7.56356 23.3534 7.4144 23.5984C7.36948 23.672 7.31578 23.7399 7.25445 23.8006C6.94943 24.0874 6.64723 24.1189 6.35498 24.1031L5.63669 24.0968V21.8879ZM41.2086 26.169H45.2285C45.4485 26.1638 45.6687 26.1157 45.8909 25.8541C46.1878 25.4538 46.2403 24.9872 46.0863 24.4734C46.061 24.3985 46.0309 24.3309 45.9982 24.2707C45.9677 24.2145 45.9323 24.1611 45.8923 24.1111C45.6743 23.8513 45.4549 23.7961 45.2282 23.7893L42.9607 23.7748L42.968 22.2003L44.7647 22.2094C45.0225 22.2032 45.2881 22.1588 45.5524 21.836C45.8431 21.426 45.9028 20.935 45.6687 20.4082C45.6368 20.3434 45.5986 20.2818 45.5548 20.2243C45.2976 19.9077 45.0389 19.8537 44.7671 19.8461L42.9447 19.8463V18.4479L45.0215 18.4529C45.2533 18.4438 45.4917 18.3895 45.7282 18.1609C45.7773 18.1118 45.8239 18.0554 45.8666 17.9908C46.1028 17.6128 46.1624 17.1623 45.9786 16.6832C45.9482 16.6102 45.9105 16.5404 45.866 16.4749C45.5976 16.1095 45.3216 16.057 45.0329 16.0472H41.2083C40.9996 16.0471 40.7817 16.087 40.5754 16.1893C40.4778 16.2377 40.3871 16.2984 40.3053 16.37C40.025 16.62 39.9003 16.9358 39.8995 17.2359L39.904 24.9056C39.904 25.0009 39.9162 25.0961 39.9422 25.1931C39.9679 25.2902 40.0072 25.389 40.0575 25.4815C40.1078 25.5741 40.1689 25.6603 40.2366 25.7363C40.5466 26.0718 40.8769 26.1643 41.2086 26.169ZM55.2093 24.3284L53.2222 21.8025C53.2264 21.8037 53.2309 21.8036 53.259 21.7934C53.3566 21.764 53.6213 21.6179 53.8278 21.4231C54.5794 20.683 54.6997 19.9414 54.7607 19.2016C54.8096 18.5697 54.675 17.9526 54.1798 17.2907C54.0331 17.0998 53.8662 16.9251 53.682 16.7695C53.1443 16.3136 52.4718 16.0457 51.8862 16.0493H48.1074C47.8373 16.0571 47.564 16.0921 47.3011 16.406C47.2644 16.4527 47.2285 16.5074 47.1934 16.5738C47.158 16.6405 47.1232 16.7189 47.0951 16.8262C47.067 16.9336 47.0452 17.0701 47.0358 17.2071V25.12C47.0358 25.1743 47.0399 25.2287 47.0481 25.2811C47.0798 25.468 47.1528 25.6534 47.3595 25.8383C47.4063 25.8794 47.4601 25.9193 47.5221 25.9571C47.5838 25.9948 47.6537 26.0302 47.7318 26.0617C48.0029 26.17 48.3073 26.2103 48.6203 26.1884C48.7269 26.1807 48.8329 26.1651 48.9372 26.1418C49.0322 26.1205 49.1254 26.092 49.216 26.0564C49.2949 26.0255 49.3711 25.9883 49.444 25.9452C49.5057 25.9087 49.5643 25.867 49.619 25.8208C49.8912 25.5829 49.9592 25.3428 49.9637 25.0984L49.9686 22.2734L52.5947 25.7434C52.6765 25.8569 52.8219 25.9886 52.9553 26.0568C53.4605 26.3001 53.9559 26.2122 54.5214 25.9004C54.6122 25.847 54.6992 25.7875 54.7818 25.7223C55.3115 25.2824 55.53 24.7886 55.2093 24.3284ZM51.5137 20.0561C51.2594 20.3319 51.0086 20.3921 50.763 20.415C50.7128 20.4179 50.7238 20.4177 50.5447 20.425C50.4169 20.4301 50.1948 20.4389 49.9724 20.4473V18.0929C50.197 18.0946 50.422 18.0966 50.552 18.098C50.6822 18.0993 50.7176 18.1002 50.7399 18.1006C50.762 18.1011 50.7708 18.1013 50.7798 18.1017C51.0365 18.1169 51.2782 18.1767 51.517 18.4247C51.5672 18.4793 51.6114 18.5392 51.6487 18.6032C51.9258 19.1395 51.8478 19.641 51.5137 20.0561ZM54.7162 34.5936C54.6886 34.4993 54.6526 34.4075 54.6087 34.3195C54.5743 34.2511 54.5331 34.1864 54.4856 34.1263C54.3799 33.9956 54.2814 33.9247 54.1656 33.8627C54.092 33.8245 54.0149 33.7934 53.9354 33.7698C53.846 33.7428 53.7426 33.7198 53.6087 33.7036C53.4554 33.6861 53.3012 33.678 53.1469 33.6793L49.6227 33.7007C49.2107 33.6802 48.7834 33.7406 48.3633 34.0768C48.2723 34.1518 48.1895 34.236 48.1162 34.3282C48.0356 34.4298 47.9659 34.5394 47.9081 34.6553C47.7139 35.0454 47.64 35.5025 47.7073 35.9625C47.7283 36.1035 47.7638 36.242 47.8135 36.3757C47.8578 36.4955 47.915 36.6102 47.984 36.7179C48.3137 37.2013 48.6622 37.3243 49.0197 37.3901C49.1358 37.4083 49.2522 37.4232 49.3458 37.4323C49.5239 37.4493 49.6367 37.4494 49.7729 37.4469C49.857 37.4371 49.9413 37.4297 50.0258 37.4246C50.1468 37.4194 50.1644 37.4245 50.2231 37.4561C50.3591 37.5856 50.3388 37.677 50.3636 37.8436C50.3664 37.884 50.366 37.9186 50.3614 37.9635C50.3475 38.1124 50.2582 38.4021 50.1033 38.6473C50.033 38.722 49.9526 38.7869 49.8646 38.84C49.6576 38.9657 49.405 39.0528 49.1593 39.106C48.8894 39.1645 48.5969 39.1911 48.306 39.1898C48.0582 39.1905 47.8108 39.1715 47.5661 39.133C47.3486 39.0991 47.1349 39.0443 46.928 38.9695C46.5359 38.8224 46.1983 38.6299 45.8431 38.2758C45.6656 38.0969 45.4838 37.8721 45.3256 37.6325C45.0438 37.1957 44.8509 36.703 44.7594 36.158C44.6678 35.6131 44.6774 35.0162 44.7924 34.4332C44.9075 33.8502 45.1283 33.2812 45.4383 32.766C45.5475 32.5824 45.689 32.4099 45.8964 32.2336C46.0099 32.1384 46.1311 32.0527 46.2587 31.9772C46.42 31.8818 46.5887 31.7992 46.7631 31.73C46.9606 31.6508 47.1903 31.5761 47.4623 31.5131C48.0165 31.3829 48.7014 31.3223 49.3374 31.384C49.4558 31.3977 49.5732 31.4177 49.7111 31.4475C49.8491 31.4774 50.0078 31.5172 50.3664 31.6443C50.7248 31.7713 51.2829 31.9855 51.8355 32.2121C52.3818 32.4066 52.9246 32.3654 53.4919 31.9794C53.6103 31.8957 53.7202 31.8006 53.8201 31.6956C54.3108 31.1644 54.5348 30.5013 54.3643 29.8712C54.3106 29.6833 54.216 29.5094 54.0873 29.3617C54.0237 29.2881 53.9528 29.221 53.8757 29.1613C53.3937 28.7814 52.8723 28.4484 52.4081 28.2195C51.9442 27.9905 51.5376 27.8656 51.117 27.7634C50.683 27.6578 50.2427 27.5793 49.7987 27.5285C49.3192 27.4743 48.8368 27.4485 48.3541 27.4513C47.6986 27.4466 47.0444 27.5117 46.4029 27.6453C45.7716 27.7776 45.1686 27.9761 44.5912 28.2463C44.0136 28.5167 43.4613 28.8588 42.9434 29.2878C42.4256 29.7167 41.9423 30.2323 41.5698 30.7419C41.1975 31.2515 40.936 31.7552 40.7259 32.3309C40.5155 32.9066 40.3567 33.5545 40.272 34.204C40.1873 34.8536 40.177 35.5049 40.2285 36.1177C40.28 36.7304 40.3932 37.3046 40.5526 37.8369C40.7119 38.3692 40.9172 38.8596 41.1356 39.283C41.3537 39.7065 41.585 40.0632 41.8362 40.3887C42.0818 40.7087 42.3562 41.006 42.6558 41.277C42.9591 41.5505 43.2882 41.7945 43.6386 42.0054C43.9998 42.2234 44.3981 42.417 44.8533 42.5843C45.3089 42.7517 45.8216 42.893 46.4327 42.9906C47.044 43.0883 47.7536 43.1426 48.4625 43.1407C48.8051 43.14 49.1476 43.1253 49.489 43.0967C49.8219 43.0685 50.1408 43.0274 50.4466 42.9733C50.7523 42.9192 51.0454 42.8524 51.3261 42.7725C51.6067 42.6926 51.8754 42.5999 52.1322 42.4939C52.3856 42.3899 52.6318 42.2694 52.8692 42.1331C53.1052 41.9978 53.3307 41.845 53.5436 41.676C53.9666 41.345 54.3641 40.8898 54.5963 40.4626C54.7104 40.253 54.7767 40.0631 54.8116 39.867L54.8569 35.7273C54.8505 35.476 54.8315 35.2247 54.8066 35.0319C54.781 34.8391 54.7497 34.7048 54.7162 34.5936ZM38.6618 20.6344C38.6437 20.5724 38.6201 20.5122 38.5912 20.4544C38.5325 20.33 38.4107 20.2076 38.3004 20.1544C38.2521 20.1293 38.2015 20.1089 38.1493 20.0935C38.0195 20.0518 37.8267 20.0344 37.6319 20.034L35.3188 20.0206C34.9978 20.0111 34.6639 20.0447 34.3325 20.4352C34.0846 20.7621 34.0099 21.1248 34.0618 21.5251C34.0764 21.6234 34.1007 21.7162 34.132 21.8005C34.1633 21.8848 34.2017 21.9607 34.2446 22.0278C34.4606 22.3471 34.6891 22.4281 34.9229 22.4713C34.999 22.4831 35.0754 22.4929 35.137 22.4989C35.2539 22.51 35.3281 22.5101 35.4173 22.5085C35.4799 22.5014 35.5428 22.496 35.5833 22.4938C35.6727 22.4902 35.6892 22.4942 35.7323 22.5307C35.7939 22.6093 35.7924 22.6667 35.8049 22.7691C35.8088 22.8445 35.8012 22.8831 35.7806 22.9627C35.7542 23.0571 35.7038 23.1876 35.6343 23.2969C35.3014 23.6066 34.8649 23.6454 34.4545 23.6531C34.2919 23.6536 34.1295 23.6411 33.9689 23.6159C33.5543 23.5449 33.195 23.4051 32.8379 23.0529C32.7216 22.9354 32.6021 22.7878 32.4983 22.6303C32.313 22.3435 32.1867 22.0199 32.1266 21.662C32.0665 21.3042 32.0726 20.912 32.1483 20.5291C32.2253 20.1427 32.3688 19.7722 32.5723 19.4341C32.6439 19.3136 32.7369 19.2003 32.873 19.0845C32.9475 19.022 33.027 18.9657 33.1108 18.9161C33.204 18.8606 33.3124 18.8057 33.4419 18.7537C33.5715 18.7017 33.7223 18.6526 33.9007 18.6113C34.2645 18.5257 34.7141 18.4859 35.1313 18.5266C35.209 18.5355 35.2859 18.5486 35.3767 18.5683C35.4672 18.5878 35.5713 18.614 35.8066 18.6974C36.0419 18.7809 36.4082 18.9215 36.7709 19.0704C37.1976 19.2127 37.6116 19.1825 38.073 18.7313C38.4353 18.3304 38.596 17.8323 38.3568 17.3533C38.3022 17.2547 38.2278 17.1589 38.1101 17.0667C37.7936 16.8171 37.4513 16.5985 37.1467 16.448C36.8421 16.2978 36.5753 16.2156 36.2991 16.1485C35.7307 16.0086 35.1116 15.9402 34.4859 15.9435C34.0558 15.9405 33.6266 15.9832 33.2057 16.071C32.7911 16.1578 32.3955 16.2881 32.0165 16.4656C31.6374 16.6431 31.275 16.8678 30.9348 17.1496C30.595 17.4313 30.2777 17.77 30.0334 18.1048C29.7889 18.4395 29.6171 18.7702 29.4794 19.1484C29.3414 19.5264 29.2371 19.9519 29.1814 20.3786C29.1258 20.8052 29.1191 21.233 29.1529 21.6354C29.1867 22.0378 29.261 22.415 29.3655 22.7645C29.4701 23.1141 29.6049 23.4362 29.7482 23.7143C29.8788 23.9699 30.0328 24.2131 30.2082 24.4406C30.3695 24.6508 30.5496 24.8461 30.7463 25.0241C30.9454 25.2037 31.1614 25.3639 31.3914 25.5025C31.6285 25.6456 31.8898 25.7727 32.1887 25.8826C32.4875 25.9925 32.8243 26.0853 33.2252 26.1494C33.8178 26.2431 34.5314 26.2781 35.2307 26.2191C35.4414 26.2016 35.6511 26.1746 35.8592 26.1381C36.0538 26.104 36.2464 26.06 36.4364 26.0063C36.6162 25.9555 36.7928 25.8945 36.9655 25.8235C37.1319 25.7552 37.2934 25.6761 37.4492 25.5866C37.6042 25.4978 37.7522 25.3974 37.8919 25.2863C38.1697 25.0689 38.4306 24.77 38.5832 24.4893C38.6582 24.3515 38.7016 24.2268 38.7247 24.098L38.7543 21.3792C38.7509 21.2264 38.7399 21.0739 38.7213 20.9223C38.7043 20.7956 38.6839 20.7072 38.6618 20.6344ZM38.1331 28.3456C38.0509 28.2738 37.9625 28.2092 37.869 28.1526C37.7601 28.0864 37.6458 28.0292 37.5273 27.9817C37.1013 27.8105 36.6163 27.7424 36.1228 27.7788C35.9613 27.791 35.8011 27.8154 35.6434 27.8518C35.5012 27.8845 35.3618 27.9284 35.2266 27.983C35.1088 28.0306 34.9952 28.0878 34.887 28.154C34.7942 28.2107 34.7064 28.2752 34.6247 28.3469C34.206 28.7284 34.109 29.1112 34.1048 29.5061V34.5617C32.6671 32.8529 31.2288 31.1448 30.3978 30.1568C29.5668 29.1688 29.3429 28.901 29.1828 28.7187C29.0225 28.5364 28.9262 28.4399 28.8186 28.3513C28.711 28.2627 28.5923 28.1817 28.4617 28.1104C28.3249 28.0358 28.1813 27.9742 28.0328 27.9265C27.5368 27.768 26.9826 27.7451 26.414 27.8882C26.2371 27.9333 26.065 27.9955 25.9003 28.0738C25.7539 28.1432 25.6152 28.2276 25.4864 28.3256C25.001 28.7075 24.855 29.1112 24.851 29.5062L24.8856 41.2423C24.8858 41.3295 24.8926 41.4165 24.9061 41.5006C24.9593 41.8037 25.0762 42.0999 25.4146 42.4027C25.4905 42.4691 25.5767 42.533 25.6761 42.5937C25.7754 42.6543 25.8879 42.7115 26.0132 42.762C26.433 42.9301 26.9089 42.996 27.3933 42.959C27.5525 42.9467 27.7105 42.9222 27.866 42.8859C28.007 42.8531 28.1451 42.8092 28.2791 42.7546C28.3964 42.7069 28.5094 42.6497 28.6171 42.5835C28.7099 42.5266 28.7976 42.462 28.8792 42.3903C29.3001 42.0069 29.4 41.6211 29.4067 41.2238V35.8345L34.3647 42.0525C35.0603 42.838 35.7574 42.9987 36.4698 42.9579C36.763 42.935 37.087 42.8564 37.4 42.7127C37.5531 42.6424 37.6995 42.5586 37.8374 42.4622C38.3552 42.0968 38.6276 41.6407 38.6606 41.2438L38.6592 29.5063C38.6536 29.12 38.5604 28.7322 38.1331 28.3456ZM26.6557 26.0531C27.1608 26.2964 27.6562 26.2085 28.2218 25.8967C28.3125 25.8433 28.3995 25.7838 28.482 25.7186C29.0121 25.2787 29.2306 24.7849 28.9097 24.3249L26.9227 21.7988C26.9271 21.8001 26.9314 21.7999 26.9595 21.7898C27.0571 21.7604 27.3219 21.6143 27.5282 21.4195C28.2798 20.6793 28.4003 19.9378 28.4612 19.198C28.5098 18.5661 28.3753 17.949 27.8803 17.287C27.7335 17.0962 27.5666 16.9215 27.3823 16.766C26.8447 16.31 26.1723 16.0421 25.5867 16.0457H21.8078C21.5378 16.0535 21.2644 16.0887 21.0015 16.4025C20.9648 16.4492 20.9289 16.5039 20.8936 16.5703C20.8509 16.6503 20.818 16.735 20.7954 16.8227C20.7672 16.9301 20.7454 17.0666 20.7361 17.2035V25.1165C20.7361 25.1708 20.7402 25.2252 20.7485 25.2776C20.7801 25.4644 20.8533 25.6498 21.0599 25.8348C21.1068 25.8759 21.1606 25.9158 21.2223 25.9535C21.2842 25.9913 21.3539 26.0266 21.4321 26.0582C21.7032 26.1665 22.0076 26.2068 22.3206 26.1849C22.4273 26.1772 22.5332 26.1616 22.6376 26.1382C22.7326 26.117 22.8258 26.0885 22.9164 26.053C22.9952 26.022 23.0714 25.9848 23.1443 25.9418C23.206 25.9053 23.2646 25.8636 23.3193 25.8173C23.5914 25.5794 23.6595 25.3393 23.664 25.095L23.6688 22.27L26.2949 25.74C26.3769 25.8533 26.5222 25.9848 26.6557 26.0531ZM25.2074 20.0379C24.953 20.3138 24.7023 20.3739 24.4568 20.3968C24.4066 20.3998 24.4175 20.3995 24.2384 20.4069C24.1107 20.4121 23.8884 20.4208 23.6662 20.4292V18.0747C23.8909 18.0764 24.1157 18.0784 24.2457 18.0798C24.3758 18.0811 24.4113 18.0819 24.4335 18.0824C24.4556 18.0828 24.4645 18.0831 24.4735 18.0834C24.7302 18.0987 24.9717 18.1584 25.2106 18.4064C25.2587 18.4587 25.3032 18.518 25.3424 18.5849C25.6194 19.1212 25.5415 19.6227 25.2074 20.0379Z" fill="#CDCAD5"/>
<path d="M52.7576 54.4939C52.8287 54.3464 52.8365 54.2117 52.7778 54.0239C52.7499 53.9456 52.6761 53.8652 52.6096 53.83C52.5347 53.7882 52.4654 53.7692 52.3753 53.7559C52.3149 53.7479 52.2541 53.744 52.1932 53.7441H51.5234V55.4991H51.7896V54.7384H52.0963L52.5607 55.4991H52.8592L52.3587 54.7262C52.4871 54.7098 52.6658 54.6614 52.7576 54.4939ZM52.1084 54.5129H51.7894V53.9695C52.0094 53.9784 52.2666 53.937 52.4222 54.0211C52.5884 54.1261 52.55 54.3048 52.4859 54.4082C52.4233 54.4788 52.3817 54.4891 52.2813 54.5047C52.2366 54.5099 52.1724 54.5129 52.1084 54.5129Z" fill="#CDCAD5"/>
<path d="M53.585 54.1606C53.4893 53.854 53.2964 53.5863 53.035 53.3976C52.6131 53.0978 52.1156 53.025 51.6241 53.1756C51.4664 53.2258 51.3164 53.3013 51.1833 53.3975C51.0502 53.4937 50.9343 53.6104 50.8412 53.7399C50.5552 54.1477 50.4946 54.614 50.6317 55.0792C50.678 55.2286 50.7484 55.3714 50.8412 55.5014C50.9341 55.6314 51.0499 55.7485 51.1829 55.8449C51.6007 56.1422 52.1059 56.2198 52.5966 56.0674C52.7538 56.0168 52.9019 55.9417 53.0353 55.8448C53.1666 55.7489 53.2816 55.6327 53.3759 55.5008C53.6581 55.0961 53.7225 54.6233 53.585 54.1606ZM53.1158 55.3753C52.9655 55.5904 52.748 55.7503 52.497 55.8302C52.1053 55.9494 51.7059 55.8907 51.3754 55.6545C51.2695 55.577 51.177 55.4829 51.1017 55.3758C51.0258 55.2684 50.9671 55.148 50.9281 55.0194C50.8891 54.8907 50.8694 54.7541 50.8694 54.6185C50.869 54.3579 50.943 54.0901 51.1027 53.8659C51.1787 53.759 51.2717 53.6651 51.3779 53.5877C51.4837 53.511 51.6012 53.4519 51.726 53.4126C52.116 53.2958 52.5062 53.3492 52.8403 53.5877C52.9464 53.6651 53.0391 53.7593 53.1147 53.8664C53.1913 53.9748 53.2499 54.0946 53.2884 54.2213C53.4065 54.6253 53.3482 55.0374 53.1158 55.3753Z" fill="#CDCAD5"/>
</svg>
