<svg width="40" height="39" viewBox="0 0 40 39" fill="none" xmlns="http://www.w3.org/2000/svg">
<path d="M0.716522 30.8689C0.505114 30.872 0.424802 30.8792 0.365312 30.8879C0.305894 30.8966 0.26737 30.9069 0.236247 30.9177C0.17088 30.9434 0.128366 30.9579 0.0740993 31.0371C0.0298443 31.1169 0.0296992 31.1725 0.0319482 31.2535C0.0339796 31.29 0.0392757 31.3325 0.0498679 31.3854C0.06046 31.4383 0.0764209 31.5017 0.103046 31.5843C0.134535 31.6804 0.1696 31.7753 0.20817 31.8689C0.452661 32.3854 0.761503 32.8722 1.11808 33.2985C1.47466 33.7248 1.87898 34.0905 2.3142 34.425C2.74942 34.7595 3.21555 35.0628 3.71658 35.3384C4.2176 35.614 4.75367 35.862 5.32666 36.0869C5.91601 36.3176 6.5177 36.516 7.129 36.681C9.1019 37.1991 11.1233 37.5151 14.1116 37.6768C17.0999 37.8385 21.0552 37.846 24.33 37.6603C27.6048 37.4747 30.1991 37.0962 32.7438 36.4953C33.5115 36.2945 34.2633 36.0316 34.9228 35.7397C35.5821 35.4478 36.149 35.1268 36.6549 34.7709C37.1608 34.4149 37.6057 34.024 38.0084 33.5495C38.4111 33.0749 38.7715 32.5167 39.0568 31.9238C39.1774 31.651 39.2838 31.3679 39.0819 31.1051C39.0607 31.0804 39.037 31.0579 39.0112 31.0381C38.9785 31.0131 38.9435 30.9914 38.9066 30.9732C38.864 30.9515 38.8122 30.9297 38.7328 30.9117C38.6534 30.8936 38.5463 30.8794 38.439 30.874H1.61214C1.27014 30.8671 0.927858 30.8659 0.716522 30.8689V30.8689ZM38.0132 9.41196C38.2338 9.40143 38.4546 9.38068 38.5946 9.35978C38.7345 9.33895 38.7937 9.31805 38.8418 9.29802C38.8903 9.27798 38.9277 9.25888 38.9594 9.2382C39.1292 9.1172 39.1469 9.00723 39.1723 8.88832C39.1796 8.84435 39.1841 8.79434 39.1845 8.73496C39.1846 8.66358 39.1801 8.59228 39.1708 8.52149C39.1603 8.43602 39.1431 8.33383 39.1133 8.20476C39.0785 8.05709 39.0383 7.91072 38.9929 7.76594C38.8967 7.45951 38.7605 7.16656 38.5342 6.80723C38.3078 6.44798 37.9914 6.02235 37.5487 5.54808C37.106 5.0738 36.5373 4.55089 35.9208 4.07323C35.2984 3.59182 34.6377 3.16143 33.9451 2.78632C32.7173 2.13621 31.4153 1.63123 29.7107 1.18478C28.006 0.738321 25.8987 0.350311 23.5332 0.152848C21.1678 -0.0446163 18.5441 -0.0516068 16.1519 0.136849C13.7597 0.325376 11.599 0.70935 9.84611 1.15653C8.09325 1.6037 6.74812 2.11394 5.47742 2.77285C4.83071 3.10594 4.20084 3.47204 3.64773 3.8323C3.09454 4.19264 2.61811 4.54721 2.19935 4.8958C1.78067 5.24439 1.41967 5.58692 1.09958 5.99994C0.779495 6.41288 0.500108 6.89638 0.285072 7.40597C0.220045 7.55051 0.162937 7.69844 0.114001 7.84911C0.0702542 7.98546 0.0425404 8.10286 0.0249109 8.20656C0.00899825 8.29715 0.000674938 8.38889 2.65731e-05 8.48085C-0.000469014 8.55329 0.00596845 8.62561 0.0192521 8.69683C0.0532051 8.85697 0.106093 8.99469 0.267878 9.14113C0.312061 9.17968 0.362918 9.2155 0.422988 9.24843C0.483059 9.28137 0.552344 9.31142 0.635267 9.33765C0.718191 9.36396 0.814609 9.38644 0.932138 9.40201C1.04967 9.41765 1.18831 9.42601 1.32673 9.42594L38.0132 9.41196V9.41196Z" fill="#CDCAD5"/>
<path d="M12.8753 17.4773C13.3642 17.0522 13.4822 16.6272 13.4902 16.1915L13.4934 11.8774C13.4905 11.7042 13.4476 11.5302 13.255 11.3571C13.2176 11.3246 13.1775 11.2954 13.1351 11.2699C13.0855 11.2399 13.0336 11.214 12.9797 11.1925C12.7851 11.1146 12.5637 11.0836 12.3381 11.0996C12.2641 11.1051 12.1906 11.116 12.1183 11.1324C12.0491 11.1481 11.9849 11.1684 11.9269 11.1915C11.8689 11.2147 11.8168 11.241 11.771 11.2686C11.7251 11.2964 11.6854 11.3256 11.6506 11.3558C11.4591 11.527 11.4135 11.6991 11.4101 11.8762L11.4178 15.8979C11.4111 16.0513 11.3895 16.2107 11.169 16.3701C10.925 16.5176 10.6291 16.5584 10.3072 16.3684C10.0957 16.2157 10.0643 16.0584 10.0585 15.8943L10.0544 11.8938C10.0511 11.7174 10.0073 11.5405 9.81064 11.3639C9.77252 11.331 9.73165 11.3013 9.68847 11.2753C9.63802 11.2449 9.58515 11.2186 9.53038 11.1968C9.33334 11.1182 9.1088 11.0868 8.88034 11.1036C8.80579 11.1092 8.73177 11.1204 8.65892 11.1371C8.58942 11.1532 8.52507 11.1737 8.46689 11.1973C8.41273 11.219 8.36049 11.2452 8.31069 11.2755C8.26803 11.3014 8.22772 11.3309 8.19018 11.3638C7.99851 11.5376 7.95411 11.7118 7.95222 11.8916L7.94685 16.1906C7.9469 16.2853 7.95486 16.3798 7.97065 16.4732C8.03123 16.8101 8.17458 17.1457 8.56287 17.4795C8.66178 17.5625 8.76757 17.637 8.87911 17.7023C9.01096 17.7794 9.1489 17.8458 9.29155 17.9007C9.45797 17.965 9.62911 18.0166 9.80346 18.0549C10.1756 18.1386 10.6121 18.1721 11.0287 18.1415C11.2298 18.1271 11.4296 18.0982 11.6265 18.055C11.802 18.0166 11.9743 17.9648 12.1419 17.9002C12.2856 17.845 12.4245 17.7782 12.5574 17.7007C12.6695 17.6352 12.7759 17.5605 12.8753 17.4773V17.4773ZM15.1592 19.6593C15.1024 19.6101 15.0414 19.5659 14.977 19.527C14.9076 19.4849 14.829 19.445 14.7412 19.4098C14.6533 19.3745 14.5563 19.3437 14.4515 19.3197C14.2426 19.2712 14 19.2521 13.768 19.2697C13.6559 19.278 13.5446 19.2947 13.435 19.3197C13.3302 19.3437 13.2332 19.3744 13.1454 19.4098C13.0636 19.4424 12.9848 19.4816 12.9095 19.527C12.8401 19.5691 12.78 19.6135 12.7273 19.6593C12.4377 19.9196 12.3692 20.1809 12.3645 20.45V28.5851C12.3645 28.6448 12.369 28.7045 12.3782 28.7623C12.4143 28.9713 12.496 29.1759 12.7294 29.3846C12.7823 29.4308 12.8424 29.4754 12.9119 29.5177C12.9871 29.5634 13.066 29.6028 13.1478 29.6356C13.4423 29.7538 13.777 29.8008 14.1179 29.776C14.2332 29.7673 14.3453 29.75 14.4498 29.7259C14.5543 29.7019 14.651 29.671 14.7388 29.6356C14.8266 29.6002 14.9053 29.5601 14.9747 29.5177C15.0441 29.4754 15.1043 29.4308 15.1572 29.3846C15.4485 29.1216 15.5173 28.8573 15.522 28.5851V20.45C15.5174 20.1868 15.4522 19.9225 15.1592 19.6593ZM10.9338 27.3844L8.21238 24.4269L10.9585 21.4792C11.3419 20.961 11.4022 20.4433 11.0154 19.9094C10.9453 19.8185 10.865 19.7359 10.7761 19.663C10.5788 19.5 10.3355 19.3819 10.0996 19.3212C9.97883 19.2897 9.85501 19.2712 9.73026 19.2661C9.61427 19.2613 9.49811 19.2689 9.38376 19.2888C9.27761 19.3073 9.17374 19.3369 9.0739 19.3773C8.9784 19.416 8.88714 19.4643 8.80155 19.5215C8.71674 19.5781 8.63776 19.6429 8.56577 19.715C7.3793 20.9889 6.19298 22.2628 5.00636 23.5366L5.01485 20.4379C5.01093 20.1794 4.94774 19.9193 4.65733 19.6609C4.60099 19.6127 4.54058 19.5694 4.47675 19.5314C4.4079 19.4903 4.32991 19.4514 4.24271 19.4171C4.15551 19.3828 4.05909 19.353 3.95491 19.33C3.74662 19.2834 3.50481 19.2662 3.27331 19.2856C3.16114 19.2947 3.04982 19.3122 2.94031 19.338C2.84132 19.3612 2.74432 19.3921 2.65018 19.4303C2.56218 19.4663 2.48325 19.5068 2.4136 19.5495C2.34395 19.5922 2.28359 19.6372 2.2307 19.6835C1.94065 19.9455 1.86999 20.2088 1.86426 20.4793L1.8718 28.6138C1.87579 28.869 1.93702 29.1295 2.21677 29.3836C2.27073 29.4307 2.32864 29.4732 2.38988 29.5106C2.45561 29.551 2.52997 29.5888 2.61326 29.6225C2.69661 29.6563 2.78897 29.6859 2.88981 29.7092C3.19662 29.7799 3.55117 29.7883 3.90681 29.7099C4.00989 29.6871 4.11106 29.6565 4.20941 29.6183C4.30155 29.5822 4.38425 29.5415 4.45695 29.4987C4.52413 29.4594 4.58788 29.4146 4.64753 29.3647C4.94266 29.1094 5.01804 28.8515 5.02414 28.5897L5.00172 25.3998L8.54103 29.2713C8.96007 29.6945 9.39711 29.7926 9.82994 29.7472C10.0342 29.7234 10.2591 29.6551 10.475 29.5336C10.5811 29.474 10.6811 29.4041 10.7734 29.325C11.2941 28.8618 11.4366 28.3084 11.2233 27.8021C11.1637 27.6651 11.0701 27.5219 10.9338 27.3844V27.3844ZM2.13298 17.9174C2.16338 17.9429 2.19762 17.9671 2.23825 17.99C2.27895 18.013 2.32618 18.0349 2.38415 18.0559C2.44211 18.0769 2.51067 18.0971 2.62124 18.1121C2.73173 18.1271 2.8843 18.1371 3.03636 18.1371H5.14986C5.29329 18.1371 5.43672 18.1277 5.57072 18.1097C5.84902 18.0684 6.06783 18.0158 6.30985 17.883C6.43529 17.8128 6.57081 17.7151 6.69436 17.6048C6.99602 17.3287 7.15839 17.0518 7.25756 16.7754C7.28731 16.6913 7.31212 16.6023 7.33098 16.5074C7.35088 16.4067 7.36303 16.3046 7.36733 16.202C7.37205 16.0924 7.36871 15.9743 7.35289 15.8486C7.33708 15.7228 7.30886 15.5894 7.27178 15.4727C7.23798 15.3641 7.19093 15.26 7.13169 15.1627C7.01786 14.9967 6.89141 14.8385 6.78868 14.7296C6.68602 14.6206 6.60716 14.5609 6.52358 14.5069C6.43965 14.4524 6.35161 14.4044 6.26023 14.3633C6.38929 14.2774 6.51219 14.1817 6.60629 14.0958C6.78164 13.934 6.87342 13.7974 6.94981 13.6577C7.01255 13.54 7.05692 13.4136 7.08141 13.2827C7.12523 13.0268 7.11653 12.6549 7.00437 12.3277C6.95119 12.1717 6.87646 12.0265 6.76401 11.8787C6.69869 11.7912 6.6226 11.7123 6.53751 11.6436C6.4334 11.5587 6.29128 11.4647 6.14226 11.3844C6.05682 11.3399 5.96775 11.3025 5.87601 11.2727C5.75638 11.2335 5.63406 11.2028 5.51 11.181C5.34697 11.1523 5.18247 11.1326 5.01724 11.122H3.02867C2.89924 11.122 2.76967 11.1325 2.65766 11.1526C2.54571 11.1727 2.45133 11.2019 2.36978 11.2375C2.28824 11.2731 2.21953 11.315 2.16019 11.3635C2.10165 11.4111 2.05074 11.4672 2.00921 11.5299C1.917 11.6659 1.87463 11.8457 1.87449 12.0256V17.2496C1.87449 17.3007 1.87637 17.3518 1.88131 17.3994C1.90358 17.5736 1.94196 17.7502 2.13298 17.9174V17.9174ZM3.90695 12.5193L4.42263 12.5256C4.60749 12.532 4.78088 12.5685 4.94883 12.7533C4.98262 12.7927 5.01155 12.836 5.03502 12.8823C5.16822 13.1714 5.13078 13.4407 4.94615 13.6646C4.76869 13.8516 4.5929 13.8733 4.42328 13.8758L3.90681 13.8692V12.5193H3.90695V12.5193ZM3.90695 15.1699L4.52543 15.1688C4.73097 15.1851 4.92271 15.227 5.10648 15.4497C5.14051 15.4938 5.17032 15.5436 5.19441 15.5989C5.21857 15.6542 5.23714 15.7151 5.24817 15.7797C5.28183 15.9823 5.24244 16.1856 5.13905 16.3554C5.10793 16.4064 5.0707 16.4535 5.0282 16.4956C4.81679 16.6943 4.60734 16.7162 4.40478 16.7052L3.90695 16.7008V15.1699V15.1699ZM28.5613 18.1371H31.3475C31.5 18.1335 31.6526 18.1001 31.8066 17.9188C32.0124 17.6414 32.0488 17.3179 31.9421 16.9619C31.9245 16.91 31.9037 16.8631 31.881 16.8214C31.8599 16.7824 31.8353 16.7454 31.8076 16.7108C31.6565 16.5307 31.5044 16.4924 31.3473 16.4877L29.7757 16.4776L29.7808 15.3864L31.0261 15.3927C31.2047 15.3884 31.3888 15.3576 31.572 15.1339C31.7735 14.8497 31.8149 14.5094 31.6526 14.1443C31.6305 14.0994 31.604 14.0567 31.5737 14.0168C31.3954 13.7975 31.2161 13.76 31.0277 13.7547L29.7646 13.7549V12.7856L31.204 12.7891C31.3647 12.7828 31.5299 12.7452 31.6939 12.5867C31.7279 12.5527 31.7602 12.5137 31.7898 12.4688C31.9534 12.2069 31.9948 11.8946 31.8674 11.5626C31.8463 11.512 31.8202 11.4636 31.7893 11.4182C31.6033 11.1649 31.412 11.1285 31.2119 11.1218H28.5612C28.4165 11.1217 28.2655 11.1494 28.1225 11.2203C28.0549 11.2538 27.992 11.2959 27.9353 11.3455C27.741 11.5188 27.6546 11.7376 27.654 11.9456L27.6572 17.2614C27.6572 17.3275 27.6656 17.3935 27.6836 17.4607C27.7015 17.5279 27.7287 17.5965 27.7636 17.6605C27.7984 17.7248 27.8408 17.7845 27.8877 17.8372C28.1025 18.0697 28.3315 18.1338 28.5613 18.1371V18.1371ZM38.2651 16.8614L36.8878 15.1107C36.8908 15.1115 36.8939 15.1115 36.9133 15.1044C36.981 15.084 37.1644 14.9828 37.3076 14.8478C37.8285 14.3348 37.9119 13.8208 37.9541 13.3081C37.988 12.8701 37.8948 12.4424 37.5516 11.9836C37.4498 11.8513 37.3342 11.7302 37.2065 11.6224C36.8338 11.3064 36.3678 11.1207 35.9619 11.1232H33.3428C33.1557 11.1286 32.9662 11.1529 32.784 11.3705C32.7586 11.4028 32.7337 11.4407 32.7093 11.4868C32.6848 11.533 32.6607 11.5873 32.6412 11.6617C32.6218 11.7361 32.6066 11.8308 32.6002 11.9257V17.41C32.6002 17.4477 32.603 17.4854 32.6086 17.5217C32.6306 17.6512 32.6812 17.7797 32.8245 17.9079C32.8569 17.9364 32.8942 17.964 32.9371 17.9902C32.9799 18.0163 33.0284 18.0408 33.0825 18.0627C33.2704 18.1378 33.4814 18.1657 33.6983 18.1505C33.7722 18.1452 33.8456 18.1344 33.9179 18.1182C33.9838 18.1035 34.0484 18.0837 34.1112 18.059C34.1659 18.0376 34.2187 18.0118 34.2692 17.982C34.312 17.9566 34.3526 17.9278 34.3905 17.8957C34.5791 17.7308 34.6263 17.5644 34.6294 17.3951L34.6328 15.4371L36.4529 17.8421C36.5096 17.9208 36.6104 18.012 36.7029 18.0593C37.053 18.2279 37.3964 18.167 37.7883 17.9509C37.8512 17.9139 37.9115 17.8726 37.9688 17.8275C38.3359 17.5225 38.4874 17.1803 38.2651 16.8614V16.8614ZM35.7037 13.9003C35.5274 14.0914 35.3536 14.1332 35.1834 14.149C35.1486 14.151 35.1562 14.1509 35.0321 14.156C34.9435 14.1595 34.7896 14.1656 34.6354 14.1714V12.5396C34.7911 12.5408 34.947 12.5422 35.0371 12.5431C35.1274 12.5441 35.1519 12.5447 35.1674 12.5449C35.1827 12.5453 35.1888 12.5454 35.195 12.5457C35.373 12.5563 35.5405 12.5977 35.706 12.7696C35.7408 12.8074 35.7714 12.8489 35.7972 12.8933C35.9894 13.265 35.9352 13.6126 35.7037 13.9003V13.9003ZM37.9233 23.9761C37.9042 23.9107 37.8793 23.8471 37.8488 23.786C37.825 23.7387 37.7964 23.6938 37.7635 23.6521C37.6902 23.5615 37.6219 23.5125 37.5417 23.4694C37.4907 23.443 37.4373 23.4215 37.3822 23.4051C37.3202 23.3864 37.2485 23.3704 37.1557 23.3592C37.0495 23.3471 36.9426 23.3414 36.8356 23.3423L34.3931 23.3572C34.1075 23.343 33.8114 23.3848 33.5202 23.6178C33.4571 23.6698 33.3997 23.7282 33.3489 23.7921C33.2931 23.8625 33.2447 23.9385 33.2047 24.0188C33.0701 24.2892 33.0189 24.606 33.0656 24.9248C33.0801 25.0225 33.1047 25.1185 33.1391 25.2112C33.1698 25.2942 33.2095 25.3737 33.2573 25.4483C33.4858 25.7834 33.7273 25.8686 33.9752 25.9142C34.0556 25.9269 34.1363 25.9372 34.2012 25.9435C34.3246 25.9553 34.4028 25.9553 34.4972 25.9536C34.5554 25.9469 34.6139 25.9417 34.6724 25.9382C34.7563 25.9346 34.7685 25.9381 34.8092 25.96C34.9034 26.0497 34.8894 26.1131 34.9066 26.2286C34.9085 26.2566 34.9082 26.2806 34.905 26.3117C34.8954 26.4149 34.8335 26.6157 34.7262 26.7856C34.6774 26.8374 34.6217 26.8823 34.5607 26.9192C34.4173 27.0063 34.2422 27.0667 34.0719 27.1035C33.8849 27.1441 33.6821 27.1625 33.4805 27.1616C33.3088 27.1621 33.1373 27.1489 32.9677 27.1222C32.8169 27.0987 32.6688 27.0608 32.5254 27.0089C32.2537 26.907 32.0197 26.7736 31.7735 26.5281C31.6505 26.4042 31.5245 26.2484 31.4148 26.0822C31.2195 25.7796 31.0858 25.438 31.0224 25.0603C30.9589 24.6826 30.9655 24.269 31.0453 23.8649C31.125 23.4608 31.2781 23.0664 31.4929 22.7094C31.5686 22.5821 31.6667 22.4625 31.8105 22.3404C31.8891 22.2744 31.9731 22.2149 32.0615 22.1627C32.1734 22.0965 32.2902 22.0393 32.4111 21.9913C32.548 21.9364 32.7072 21.8846 32.8957 21.841C33.2799 21.7507 33.7546 21.7088 34.1954 21.7515C34.2774 21.761 34.3587 21.7749 34.4544 21.7955C34.55 21.8162 34.66 21.8438 34.9085 21.9319C35.1569 22.02 35.5438 22.1684 35.9267 22.3255C36.3054 22.4603 36.6815 22.4317 37.0748 22.1642C37.1569 22.1061 37.233 22.0403 37.3022 21.9675C37.6423 21.5993 37.7976 21.1397 37.6794 20.703C37.6422 20.5728 37.5766 20.4522 37.4874 20.3499C37.4433 20.2989 37.3942 20.2523 37.3408 20.211C37.0067 19.9477 36.6453 19.7169 36.3236 19.5582C36.0021 19.3995 35.7203 19.313 35.4288 19.2421C35.1279 19.1689 34.8228 19.1145 34.5151 19.0793C34.1827 19.0417 33.8484 19.0238 33.5138 19.0258C33.0595 19.0226 32.6061 19.0676 32.1614 19.1603C31.7239 19.2519 31.306 19.3895 30.9058 19.5768C30.5055 19.7642 30.1227 20.0014 29.7638 20.2986C29.4049 20.5959 29.0699 20.9533 28.8117 21.3065C28.5536 21.6597 28.3724 22.0088 28.2268 22.4078C28.081 22.8068 27.9709 23.2558 27.9122 23.706C27.8535 24.1562 27.8464 24.6077 27.8821 25.0324C27.9178 25.4571 27.9963 25.855 28.1067 26.2239C28.2171 26.5928 28.3594 26.9328 28.5108 27.2262C28.662 27.5198 28.8222 27.7669 28.9963 27.9925C29.1666 28.2144 29.3567 28.4204 29.5644 28.6082C29.7746 28.7978 30.0027 28.9669 30.2456 29.1131C30.4959 29.2641 30.772 29.3983 31.0875 29.5143C31.4032 29.6303 31.7586 29.7283 32.1821 29.7959C32.6058 29.8636 33.0976 29.9012 33.5889 29.8999C33.8264 29.8994 34.0638 29.8893 34.3004 29.8694C34.5311 29.8499 34.7522 29.8214 34.9641 29.7839C35.176 29.7464 35.3791 29.7001 35.5737 29.6447C35.7682 29.5894 35.9544 29.5251 36.1324 29.4517C36.308 29.3796 36.4786 29.296 36.6432 29.2016C36.8068 29.1078 36.963 29.0019 37.1106 28.8848C37.4038 28.6553 37.6792 28.3399 37.8402 28.0438C37.9193 27.8985 37.9652 27.7669 37.9895 27.631L38.0208 24.7618C38.0164 24.5876 38.0033 24.4135 37.986 24.2798C37.9682 24.1462 37.9465 24.0531 37.9233 23.9761V23.9761ZM26.7962 14.3011C26.7837 14.2581 26.7673 14.2164 26.7473 14.1763C26.7066 14.0901 26.6222 14.0053 26.5457 13.9684C26.5123 13.951 26.4772 13.9369 26.441 13.9262C26.3511 13.8973 26.2174 13.8852 26.0824 13.885L24.4792 13.8757C24.2568 13.8691 24.0253 13.8924 23.7957 14.1631C23.6238 14.3896 23.5721 14.641 23.608 14.9185C23.6181 14.9866 23.635 15.0509 23.6567 15.1093C23.6783 15.1677 23.705 15.2204 23.7347 15.2668C23.8845 15.4882 24.0428 15.5443 24.2048 15.5742C24.2576 15.5824 24.3105 15.5892 24.3532 15.5934C24.4342 15.6011 24.4857 15.6012 24.5475 15.6C24.5909 15.5951 24.6345 15.5914 24.6625 15.5898C24.7245 15.5873 24.736 15.5901 24.7659 15.6154C24.8085 15.6699 24.8075 15.7097 24.8161 15.7806C24.8188 15.8329 24.8136 15.8597 24.7993 15.9148C24.781 15.9802 24.746 16.0707 24.6979 16.1464C24.4672 16.3611 24.1646 16.388 23.8802 16.3933C23.7675 16.3936 23.6549 16.385 23.5436 16.3675C23.2563 16.3183 23.0073 16.2214 22.7597 15.9774C22.6791 15.8959 22.5963 15.7936 22.5244 15.6845C22.396 15.4856 22.3084 15.2614 22.2668 15.0133C22.2251 14.7653 22.2293 14.4935 22.2818 14.2281C22.3352 13.9603 22.4346 13.7036 22.5757 13.4692C22.6253 13.3857 22.6897 13.3071 22.7841 13.2269C22.8357 13.1836 22.8908 13.1445 22.9489 13.1102C23.0135 13.0717 23.0886 13.0336 23.1784 12.9976C23.2682 12.9616 23.3727 12.9275 23.4964 12.8989C23.7485 12.8396 24.0601 12.812 24.3493 12.8402C24.4031 12.8464 24.4564 12.8555 24.5193 12.8691C24.5821 12.8826 24.6542 12.9008 24.8173 12.9586C24.9804 13.0165 25.2343 13.1139 25.4857 13.2171C25.7814 13.3158 26.0683 13.2948 26.3881 12.9821C26.6392 12.7042 26.7506 12.359 26.5848 12.027C26.547 11.9587 26.4954 11.8923 26.4138 11.8284C26.1945 11.6554 25.9573 11.5039 25.7461 11.3996C25.535 11.2954 25.3501 11.2385 25.1586 11.192C24.7647 11.095 24.3356 11.0476 23.9019 11.0499C23.6039 11.0478 23.3064 11.0774 23.0147 11.1383C22.7273 11.1984 22.4531 11.2887 22.1904 11.4118C21.9277 11.5348 21.6765 11.6905 21.4407 11.8858C21.2052 12.081 20.9853 12.3158 20.816 12.5479C20.6465 12.7799 20.5275 13.0091 20.432 13.2712C20.3364 13.5332 20.2641 13.8281 20.2255 14.1238C20.1869 14.4195 20.1823 14.716 20.2057 14.9949C20.2291 15.2738 20.2806 15.5352 20.3531 15.7774C20.4256 16.0197 20.519 16.243 20.6183 16.4358C20.7088 16.6129 20.8156 16.7814 20.9371 16.9392C21.0489 17.0848 21.1738 17.2202 21.3101 17.3435C21.4481 17.468 21.5978 17.5791 21.7572 17.6751C21.9216 17.7743 22.1026 17.8624 22.3098 17.9386C22.5169 18.0148 22.7503 18.079 23.0282 18.1235C23.4389 18.1884 23.9335 18.2127 24.4182 18.1718C24.5642 18.1596 24.7095 18.1409 24.8538 18.1157C24.9886 18.092 25.1221 18.0615 25.2538 18.0243C25.3784 17.9891 25.5009 17.9468 25.6206 17.8976C25.7358 17.8503 25.8478 17.7954 25.9558 17.7334C26.0632 17.6718 26.1658 17.6023 26.2626 17.5253C26.4552 17.3746 26.636 17.1675 26.7417 16.9729C26.7937 16.8774 26.8238 16.7909 26.8398 16.7017L26.8604 14.8173C26.858 14.7114 26.8503 14.6057 26.8374 14.5006C26.8257 14.4128 26.8115 14.3516 26.7962 14.3011V14.3011ZM26.4298 19.6456C26.3728 19.5959 26.3115 19.5511 26.2467 19.5119C26.1712 19.466 26.092 19.4263 26.0099 19.3934C25.7147 19.2748 25.3785 19.2276 25.0365 19.2528C24.9246 19.2612 24.8135 19.2781 24.7042 19.3034C24.6056 19.326 24.509 19.3565 24.4153 19.3943C24.3337 19.4273 24.255 19.4669 24.1799 19.5128C24.1156 19.5521 24.0548 19.5969 23.9981 19.6465C23.7079 19.9109 23.6408 20.1763 23.6378 20.45V23.954C22.6414 22.7696 21.6445 21.5858 21.0685 20.901C20.4926 20.2162 20.3374 20.0305 20.2265 19.9042C20.1154 19.7779 20.0486 19.711 19.9741 19.6496C19.8995 19.5882 19.8172 19.5321 19.7267 19.4826C19.6319 19.4309 19.5323 19.3882 19.4294 19.3551C19.0856 19.2453 18.7015 19.2295 18.3075 19.3286C18.1848 19.3599 18.0656 19.403 17.9514 19.4573C17.8499 19.5054 17.7538 19.5639 17.6645 19.6318C17.3281 19.8964 17.2269 20.1763 17.2242 20.4501L17.2481 28.5842C17.2482 28.6446 17.253 28.7049 17.2623 28.7632C17.2992 28.9733 17.3802 29.1785 17.6148 29.3885C17.6674 29.4344 17.7271 29.4788 17.796 29.5208C17.8648 29.5628 17.9428 29.6024 18.0297 29.6374C18.3206 29.754 18.6505 29.7996 18.9862 29.774C19.0965 29.7654 19.206 29.7485 19.3138 29.7234C19.4115 29.7006 19.5073 29.6701 19.6001 29.6323C19.6814 29.5993 19.7597 29.5596 19.8344 29.5137C19.8987 29.4743 19.9595 29.4295 20.0161 29.3798C20.3078 29.1141 20.377 28.8467 20.3816 28.5714V24.8361L23.8179 29.1457C24.3001 29.6901 24.7832 29.8015 25.277 29.7732C25.4802 29.7574 25.7047 29.7029 25.9217 29.6033C26.0278 29.5546 26.1292 29.4965 26.2248 29.4297C26.5837 29.1764 26.7725 28.8603 26.7954 28.5852L26.7944 20.4501C26.7906 20.1824 26.7259 19.9136 26.4298 19.6456V19.6456ZM18.475 18.0567C18.825 18.2253 19.1684 18.1644 19.5604 17.9483C19.6233 17.9113 19.6835 17.8701 19.7407 17.8249C20.1081 17.52 20.2596 17.1778 20.0372 16.8589L18.66 15.1082C18.663 15.109 18.6661 15.1089 18.6855 15.1019C18.7531 15.0815 18.9367 14.9802 19.0797 14.8452C19.6006 14.3322 19.6841 13.8183 19.7263 13.3055C19.76 12.8676 19.6668 12.4399 19.3237 11.9811C19.222 11.8488 19.1063 11.7277 18.9785 11.62C18.6059 11.3039 18.1399 11.1182 17.734 11.1207H15.1149C14.9278 11.1262 14.7383 11.1505 14.5561 11.368C14.5307 11.4004 14.5058 11.4383 14.4813 11.4843C14.4517 11.5398 14.4289 11.5985 14.4132 11.6592C14.3937 11.7337 14.3786 11.8283 14.3722 11.9232V17.4076C14.3722 17.4452 14.375 17.4829 14.3807 17.5192C14.4026 17.6487 14.4534 17.7772 14.5966 17.9054C14.6291 17.9339 14.6664 17.9616 14.7092 17.9877C14.752 18.0139 14.8004 18.0384 14.8545 18.0602C15.0425 18.1353 15.2534 18.1633 15.4703 18.1481C15.5443 18.1427 15.6177 18.1319 15.69 18.1157C15.7559 18.101 15.8205 18.0813 15.8833 18.0566C15.9379 18.0352 15.9907 18.0094 16.0412 17.9796C16.084 17.9543 16.1246 17.9254 16.1625 17.8933C16.3511 17.7284 16.3983 17.562 16.4014 17.3927L16.4048 15.4347L18.2249 17.8397C18.2817 17.9183 18.3824 18.0094 18.475 18.0567V18.0567ZM17.4712 13.8877C17.2948 14.0789 17.1211 14.1205 16.9509 14.1364C16.9161 14.1385 16.9237 14.1383 16.7995 14.1435C16.711 14.1471 16.557 14.153 16.403 14.1589V12.527C16.5587 12.5282 16.7145 12.5296 16.8046 12.5305C16.8948 12.5315 16.9194 12.532 16.9348 12.5323C16.9501 12.5326 16.9562 12.5328 16.9625 12.533C17.1404 12.5436 17.3078 12.585 17.4734 12.7569C17.5067 12.7931 17.5376 12.8343 17.5647 12.8806C17.7567 13.2523 17.7027 13.5999 17.4712 13.8877V13.8877Z" fill="#CDCAD5"/>
<path d="M36.5653 37.7687C36.6146 37.6664 36.62 37.5731 36.5793 37.4429C36.56 37.3886 36.5089 37.3329 36.4627 37.3086C36.4109 37.2796 36.3628 37.2664 36.3004 37.2572C36.2585 37.2517 36.2163 37.2489 36.1741 37.249H35.71V38.4654H35.8945V37.9381H36.107L36.4289 38.4654H36.6358L36.2889 37.9297C36.3778 37.9183 36.5017 37.8847 36.5653 37.7687V37.7687ZM36.1154 37.7818H35.8943V37.4052C36.0468 37.4114 36.2251 37.3827 36.3329 37.441C36.4481 37.5137 36.4215 37.6376 36.3771 37.7092C36.3337 37.7582 36.3048 37.7653 36.2352 37.7761C36.2042 37.7797 36.1598 37.7818 36.1154 37.7818V37.7818Z" fill="#CDCAD5"/>
<path d="M37.1395 37.5381C37.0732 37.3256 36.9394 37.1401 36.7583 37.0093C36.4658 36.8015 36.1211 36.751 35.7804 36.8554C35.6711 36.8902 35.5672 36.9425 35.4749 37.0092C35.3826 37.0759 35.3023 37.1568 35.2378 37.2465C35.0396 37.5292 34.9976 37.8524 35.0926 38.1747C35.1247 38.2783 35.1734 38.3773 35.2378 38.4674C35.3021 38.5575 35.3825 38.6386 35.4746 38.7054C35.7642 38.9115 36.1143 38.9653 36.4544 38.8597C36.5634 38.8246 36.6661 38.7725 36.7585 38.7054C36.8495 38.6389 36.9292 38.5584 36.9946 38.467C37.1902 38.1865 37.2348 37.8588 37.1395 37.5381V37.5381ZM36.8143 38.38C36.7101 38.5291 36.5594 38.6399 36.3854 38.6953C36.1139 38.7779 35.8371 38.7372 35.608 38.5735C35.5346 38.5198 35.4705 38.4546 35.4183 38.3803C35.3657 38.3059 35.3251 38.2224 35.298 38.1333C35.271 38.0441 35.2573 37.9494 35.2573 37.8555C35.257 37.6749 35.3083 37.4892 35.419 37.3339C35.4717 37.2598 35.5361 37.1947 35.6098 37.141C35.6831 37.0879 35.7646 37.0469 35.8511 37.0196C36.1213 36.9387 36.3918 36.9757 36.6233 37.141C36.6969 37.1947 36.7611 37.26 36.8135 37.3342C36.8666 37.4093 36.9072 37.4923 36.9339 37.5802C37.0158 37.8602 36.9753 38.1458 36.8143 38.38V38.38Z" fill="#CDCAD5"/>
</svg>
