<svg width="276" height="151" viewBox="0 0 276 151" fill="none" xmlns="http://www.w3.org/2000/svg">
<path d="M86.4381 82.5439H85.3042V75.0826H86.4746C88.3765 75.0826 89.9676 76.2895 89.9676 78.8132C89.9493 81.3552 88.34 82.5439 86.4381 82.5439ZM86.5295 72.9795H83.384C83.1829 72.9795 83 73.1441 83 73.3635V84.2995C83 84.5007 83.1646 84.6653 83.384 84.6653H86.5112C89.8396 84.6653 92.2901 82.5256 92.2901 78.8315C92.3084 75.1374 89.8578 72.9795 86.5295 72.9795ZM83.384 72.9795C83.1829 72.9795 83 73.1441 83 73.3635V84.2995C83 84.5007 83.1646 84.6653 83.384 84.6653" fill="#CDCAD5"/>
<path d="M99.733 81.7754C100.574 81.7754 101.251 82.452 101.251 83.275C101.251 84.0979 100.574 84.7746 99.733 84.7746C98.91 84.7746 98.2334 84.0979 98.2334 83.275C98.2334 82.452 98.91 81.7754 99.733 81.7754Z" fill="#CDCAD5"/>
<path d="M107.724 78.1915H105.877V74.9363H107.724C108.876 74.9363 109.553 75.5763 109.553 76.5639C109.553 77.5331 108.876 78.1915 107.724 78.1915ZM109.388 79.8739C110.924 79.435 111.875 78.1915 111.875 76.5639C111.875 74.5339 110.43 72.9795 108.144 72.9795H103.957C103.755 72.9795 103.591 73.1441 103.591 73.3635V84.2995C103.591 84.5007 103.755 84.6653 103.957 84.6653H105.493C105.694 84.6653 105.858 84.5007 105.858 84.2995V80.1665H107.047L109.15 84.2995C109.26 84.5007 109.516 84.6653 109.717 84.6653H111.491C111.692 84.6653 111.784 84.5007 111.674 84.2995L109.388 79.8739Z" fill="#CDCAD5"/>
<path d="M98.1605 76.4902C97.4655 76.4902 96.35 76.6914 95.8562 77.7521V76.9291C95.8562 76.728 95.6916 76.5817 95.5088 76.5634H94.1006C93.8995 76.5634 93.7349 76.728 93.7349 76.9291V84.299C93.7349 84.5002 93.8995 84.6648 94.1006 84.6648H95.5453C95.7465 84.6648 95.9111 84.5002 95.9111 84.299V80.9707C95.9111 79.2334 96.8803 78.6847 97.9959 78.6847C98.197 78.6847 98.3982 78.703 98.6542 78.7579V76.5451C98.5079 76.5085 98.3433 76.4902 98.1605 76.4902Z" fill="#CDCAD5"/>
<path d="M149.328 76.5459H147.737C147.536 76.5459 147.28 76.7105 147.152 76.9116L145.323 81.2824L143.33 76.9116C143.22 76.7105 142.946 76.5459 142.745 76.5459H141.044C140.843 76.5459 140.77 76.7105 140.88 76.9299L144.135 83.6415L142.397 87.4819C142.288 87.683 142.379 87.8476 142.58 87.8476H144.153C144.354 87.8476 144.592 87.683 144.702 87.5002L149.456 76.9299C149.603 76.7105 149.53 76.5459 149.328 76.5459Z" fill="#CDCAD5"/>
<path d="M156.168 79.745L155.016 79.4889C154.577 79.4158 154.267 79.1598 154.267 78.7574C154.267 78.3003 154.724 77.9528 155.309 77.9528C156.022 77.9528 156.388 78.3185 156.552 78.7209C156.607 78.9037 156.772 79.0318 156.973 78.9769L158.143 78.7209C158.326 78.666 158.436 78.4831 158.399 78.3003C158.162 77.4407 157.302 76.3252 155.291 76.3252C153.553 76.3252 152.255 77.5322 152.255 78.9769C152.255 80.1107 152.968 81.0617 154.523 81.3909L155.601 81.6469C156.223 81.7749 156.479 82.0675 156.479 82.4332C156.479 82.8539 156.132 83.2379 155.4 83.2379C154.523 83.2379 154.065 82.7441 153.937 82.1589C153.919 82.0675 153.828 82.0309 153.736 82.0309L152.365 82.3235C152.182 82.3784 152.072 82.5613 152.109 82.7624C152.365 83.6768 153.279 84.9021 155.419 84.9021C157.54 84.9021 158.564 83.5488 158.564 82.2321C158.564 81.0434 157.759 80.0741 156.168 79.745Z" fill="#CDCAD5"/>
<path d="M114.601 79.6725C114.656 78.9227 115.278 78.0815 116.411 78.0815C117.673 78.0815 118.185 78.8679 118.222 79.6725H114.601ZM116.375 76.3076C114.308 76.3076 112.388 77.9901 112.388 80.5686C112.388 83.3118 114.345 84.9028 116.576 84.9028C118.423 84.9028 119.667 83.8787 120.16 82.6168C120.179 82.434 120.069 82.2694 119.904 82.2328L118.734 81.8853C118.606 81.8488 118.441 81.9036 118.35 82.0499C118.057 82.6351 117.509 83.0374 116.613 83.0374C115.534 83.0374 114.619 82.2694 114.564 81.1904H120.014C120.215 81.1904 120.38 81.0258 120.38 80.8247C120.38 80.7332 120.398 80.6235 120.398 80.5138C120.38 77.8986 118.88 76.3076 116.375 76.3076Z" fill="#CDCAD5"/>
<path d="M125.848 82.8915C124.696 82.8915 123.837 82.032 123.837 80.5873C123.837 79.1426 124.733 78.3196 125.848 78.3196C126.964 78.3196 127.842 79.1243 127.842 80.569C127.842 82.032 126.964 82.8915 125.848 82.8915ZM129.963 84.318V76.7652V73.1077C129.963 72.9065 129.798 72.7236 129.597 72.7236H128.189C128.006 72.7236 127.842 72.8699 127.823 73.0528C127.823 73.0711 127.805 73.0894 127.805 73.1077V77.2224H127.823V77.3504C127.586 76.9298 126.927 76.3446 125.537 76.3446C123.251 76.3446 121.642 78.2099 121.642 80.569C121.642 83.0195 123.288 84.83 125.592 84.83C126.671 84.83 127.494 84.3362 127.86 83.6962C127.86 83.7145 127.86 83.7145 127.86 83.7328V83.7145C127.86 83.8242 127.86 83.9339 127.86 84.0254C127.878 84.2082 127.896 84.3728 127.915 84.5008C127.951 84.574 128.024 84.6288 128.098 84.6288H129.597C129.78 84.6471 129.926 84.5008 129.963 84.318Z" fill="#CDCAD5"/>
<path d="M135.577 82.8915C134.425 82.8915 133.565 82.032 133.565 80.5873C133.565 79.1426 134.461 78.3196 135.577 78.3196C136.693 78.3196 137.57 79.1243 137.57 80.569C137.57 82.032 136.711 82.8915 135.577 82.8915ZM139.71 84.318V76.7652V73.1077C139.71 72.9065 139.545 72.7236 139.344 72.7236H137.936C137.753 72.7236 137.589 72.8699 137.57 73.0528C137.57 73.0711 137.552 73.0894 137.552 73.1077V77.2224H137.57V77.3504C137.333 76.9298 136.674 76.3446 135.284 76.3446C132.998 76.3446 131.389 78.2099 131.389 80.569C131.389 83.0195 133.035 84.83 135.339 84.83C136.418 84.83 137.241 84.3362 137.607 83.6962V83.7328V83.7145C137.607 83.8242 137.607 83.9339 137.607 84.0254C137.625 84.2082 137.644 84.3728 137.662 84.5008C137.698 84.574 137.772 84.6288 137.845 84.6288H139.344C139.527 84.6471 139.673 84.5008 139.71 84.318Z" fill="#CDCAD5"/>
<path d="M152.913 74.4247C152.968 74.2784 153.005 74.1138 153.005 73.9493C153.005 73.2178 152.401 72.6143 151.651 72.6143C150.92 72.6143 150.316 73.2178 150.316 73.9493C150.316 74.571 150.755 75.1014 151.322 75.2477L150.591 76.8753C150.591 76.8753 150.591 76.8935 150.591 76.9118C150.591 76.985 150.646 77.0581 150.737 77.0581H151.469C151.542 77.0581 151.615 77.0033 151.67 76.9301L152.895 74.4979C152.895 74.4796 152.913 74.4613 152.913 74.4247Z" fill="#CDCAD5"/>
<path d="M177.236 87.1706V70.8581C177.181 68.371 175.681 66.2313 173.523 65.2621C172.81 64.9512 172.042 64.75 171.237 64.7135C167.287 64.494 164.233 66.8348 163.41 69.9986C162.88 71.9188 163.282 74.2413 164.617 76.1798C166.245 78.5572 172.92 84.8847 176.157 87.7009C176.266 87.7924 176.413 87.829 176.559 87.829C176.943 87.8472 177.236 87.5546 177.236 87.1706ZM175.846 79.691C175.846 80.3493 175.315 80.898 174.657 80.898C173.999 80.898 173.45 80.3676 173.45 79.691C173.45 79.0326 173.98 78.5023 174.657 78.5023C175.315 78.484 175.846 79.0326 175.846 79.691Z" fill="#CDCAD5"/>
<path d="M182.247 78.7393C180.601 78.7393 179.266 80.0743 179.266 81.7201C179.266 83.366 180.601 84.701 182.247 84.701C183.893 84.701 185.228 83.366 185.228 81.7201C185.228 80.056 183.893 78.7393 182.247 78.7393Z" fill="#CDCAD5"/>
<path d="M179.266 85.4883C178.699 85.4883 178.242 85.9455 178.242 86.5124C178.242 87.0793 178.699 87.5365 179.266 87.5365C179.833 87.5365 180.29 87.0793 180.29 86.5124C180.29 85.9455 179.833 85.4883 179.266 85.4883Z" fill="#CDCAD5"/>
<path d="M187.915 71.498C185.739 71.498 183.965 73.2719 183.965 75.4482C183.965 77.6244 185.739 79.3983 187.915 79.3983C190.11 79.3983 191.866 77.6244 191.866 75.4482C191.866 73.2719 190.11 71.498 187.915 71.498Z" fill="#CDCAD5"/>
<path d="M190.66 66.6328C189.508 66.6328 188.593 67.5655 188.593 68.7176C188.593 69.8697 189.526 70.7841 190.66 70.7841C191.812 70.7841 192.726 69.8514 192.726 68.7176C192.745 67.5472 191.812 66.6328 190.66 66.6328Z" fill="#CDCAD5"/>
<path d="M182.722 71.6076C184.825 71.6076 186.526 69.9069 186.526 67.8038C186.526 65.7007 184.825 64 182.722 64C180.619 64 178.918 65.7007 178.918 67.8038C178.937 69.9069 180.637 71.6076 182.722 71.6076Z" fill="#CDCAD5"/>
<path d="M182.869 74.9537C182.869 76.1973 181.863 77.2031 180.601 77.2031C179.358 77.2031 178.352 76.1973 178.352 74.9537C178.352 73.7102 179.358 72.7043 180.601 72.7043C181.863 72.6861 182.869 73.7102 182.869 74.9537Z" fill="#CDCAD5"/>
</svg>
