<svg width="73" height="27" viewBox="0 0 73 27" fill="none" xmlns="http://www.w3.org/2000/svg">
<path d="M35.295 8.47283C35.3555 8.60575 35.3555 8.62992 35.3555 8.65408C35.3555 8.67825 35.3434 8.70242 35.2346 8.73867C35.1984 8.76283 35.15 8.77491 35.1017 8.77491C35.0534 8.77491 35.0413 8.75075 34.993 8.62992C34.8117 8.19492 34.3767 7.92909 33.9175 7.95326C33.2409 7.95326 32.673 8.48492 32.6609 9.17366C32.6246 9.47574 32.6246 9.77782 32.6609 10.0799C32.6609 10.7445 33.2046 11.2882 33.8692 11.2882C33.8813 11.2882 33.9055 11.2882 33.9175 11.2882C34.4855 11.3486 34.9809 10.9378 35.0413 10.382C35.0413 10.3578 35.0413 10.3216 35.0413 10.2974V9.87449H34.123C33.9538 9.87449 33.9538 9.87449 33.9538 9.71741C33.9538 9.56033 33.9538 9.56032 34.123 9.56032H35.0534C35.3555 9.56032 35.3555 9.56032 35.3555 9.85032V10.2612C35.3434 11.0224 34.715 11.6266 33.9538 11.6145C33.9296 11.6145 33.9176 11.6145 33.8934 11.6145C33.0234 11.6266 32.3105 10.9378 32.2984 10.0799C32.2742 9.77782 32.2742 9.47574 32.2984 9.18574C32.3346 8.32783 33.0355 7.65118 33.8934 7.65118C34.5096 7.61493 35.0534 7.94117 35.295 8.47283ZM38.6542 7.94117L39.8987 11.3245C39.9108 11.3607 39.9229 11.397 39.935 11.4332C39.935 11.4695 39.9108 11.4816 39.8142 11.5178C39.7658 11.542 39.7296 11.5541 39.6812 11.5541C39.6571 11.5541 39.645 11.542 39.6208 11.4695L39.1496 10.1766H37.3009L36.8296 11.4695C36.8054 11.542 36.7934 11.5541 36.7571 11.5541C36.7209 11.542 36.6725 11.542 36.6363 11.5178C36.5396 11.4816 36.5034 11.4695 36.5034 11.4332C36.5034 11.4091 36.5154 11.3728 36.5275 11.3486L37.7842 7.92909C37.8808 7.67534 37.8808 7.67534 38.2313 7.67534C38.5575 7.68742 38.5575 7.68743 38.6542 7.94117ZM38.0258 8.1345L37.3975 9.8624H39.0046L38.3763 8.1345C38.3279 8.00159 38.3279 8.00159 38.195 8.00159C38.0742 8.00159 38.0742 8.00159 38.0258 8.1345ZM44.8529 8.04992L45.3604 11.3124C45.3724 11.3728 45.3724 11.4211 45.3845 11.4816C45.3845 11.5299 45.3724 11.542 45.2395 11.5541C45.2033 11.5541 45.1549 11.5661 45.1187 11.5661C45.0704 11.5661 45.0704 11.5541 45.0583 11.4453L44.5387 8.04992C44.5266 7.97742 44.5266 7.97742 44.4662 7.97742C44.4058 7.97742 44.4058 7.97742 44.3816 8.03784L43.5841 11.2399C43.5116 11.5541 43.5116 11.5541 43.2095 11.5541C42.9075 11.5541 42.9075 11.5541 42.8229 11.2399L42.0254 8.03784C42.0133 7.97742 42.0133 7.97742 41.9408 7.97742C41.8804 7.97742 41.8804 7.97742 41.8683 8.04992L41.3729 11.4332C41.3487 11.5541 41.3487 11.5661 41.3125 11.5661C41.2883 11.5661 41.2279 11.5661 41.1916 11.5541C41.0708 11.542 41.0466 11.5299 41.0466 11.4816C41.0466 11.4332 41.0587 11.3728 41.0708 11.3245L41.5662 8.062C41.6266 7.69951 41.6266 7.69951 41.965 7.69951C42.2671 7.69951 42.2671 7.69951 42.3396 8.02576L43.137 11.2278C43.1491 11.2882 43.1491 11.2882 43.2216 11.2882C43.282 11.2882 43.282 11.2882 43.2941 11.2278L44.0675 8.07409C44.152 7.71159 44.152 7.71159 44.4783 7.71159C44.7924 7.68743 44.7924 7.68742 44.8529 8.04992ZM49.5412 8.66617C49.5895 9.05283 49.372 9.41533 49.0095 9.53616C49.4203 9.63282 49.6861 10.0195 49.6499 10.4424C49.6982 10.9982 49.2995 11.4936 48.7437 11.542C48.6712 11.5541 48.5987 11.542 48.5141 11.542H47.2091C46.8949 11.542 46.8949 11.542 46.8949 11.2278V8.00159C46.8949 7.68743 46.8949 7.68742 47.2091 7.68742H48.4416C48.9853 7.62701 49.4807 8.02575 49.5291 8.58158C49.5412 8.60575 49.5412 8.642 49.5412 8.66617ZM47.2212 8.01367V9.40324H48.4537C48.9853 9.40324 49.2149 9.13741 49.2149 8.70241C49.2149 8.25533 48.9612 8.01367 48.4537 8.01367H47.2212ZM47.2212 9.71741V11.2399H48.4778C49.0578 11.2399 49.3237 10.9741 49.3237 10.4786C49.3478 10.0799 49.0457 9.74157 48.6591 9.71741C48.6228 9.71741 48.5866 9.71741 48.5624 9.71741H47.2212ZM51.3295 7.68742C51.4865 7.68742 51.4865 7.68742 51.4865 7.85659V11.2399H53.4199C53.589 11.2399 53.589 11.2399 53.589 11.397C53.589 11.5541 53.589 11.5541 53.4199 11.5541H51.4986C51.1724 11.5541 51.1724 11.5541 51.1724 11.2278V7.84451C51.1603 7.68743 51.1603 7.68742 51.3295 7.68742ZM54.9303 7.68742C55.0873 7.68742 55.0873 7.68742 55.0873 7.85659V11.3849C55.0873 11.5541 55.0873 11.5541 54.9303 11.5541C54.7732 11.5541 54.7732 11.5541 54.7732 11.3849V7.84451C54.7732 7.68743 54.7732 7.68742 54.9303 7.68742ZM57.4315 7.79617L59.5944 11.2278H59.6065C59.5944 10.7082 59.5944 9.47574 59.5944 8.5695V7.84451C59.5944 7.67534 59.5944 7.67534 59.7515 7.67534C59.9086 7.67534 59.9086 7.67534 59.9086 7.84451V11.397C59.9086 11.5541 59.9086 11.5541 59.679 11.5541C59.4252 11.5541 59.4252 11.5541 59.3406 11.4211L57.1898 8.00159H57.1777C57.1898 8.41242 57.1898 9.49991 57.1898 10.2974V11.397C57.1898 11.5661 57.1898 11.5661 57.0327 11.5661C56.8757 11.5661 56.8757 11.5661 56.8757 11.397V7.84451C56.8757 7.69951 56.8757 7.69951 57.1536 7.69951C57.3711 7.68743 57.3711 7.68742 57.4315 7.79617ZM64.4518 8.47283C64.5123 8.60575 64.5123 8.62992 64.5123 8.65408C64.5123 8.67825 64.5002 8.70242 64.3914 8.73867C64.3552 8.76283 64.3068 8.77491 64.2585 8.77491C64.2102 8.77491 64.1981 8.75075 64.1498 8.62992C63.9685 8.19492 63.5335 7.92909 63.0744 7.95326C62.3977 7.95326 61.8298 8.48492 61.8177 9.17366C61.7815 9.47574 61.7815 9.77782 61.8177 10.0799C61.8177 10.7445 62.3614 11.2882 63.026 11.2882C63.0381 11.2882 63.0623 11.2882 63.0744 11.2882C63.6423 11.3486 64.1377 10.9378 64.1981 10.382C64.1981 10.3578 64.1981 10.3216 64.1981 10.2974V9.87449H63.2798C63.1106 9.87449 63.1106 9.87449 63.1106 9.71741C63.1106 9.56033 63.1106 9.56032 63.2798 9.56032H64.2102C64.5123 9.56032 64.5123 9.56032 64.5123 9.85032V10.2612C64.5002 11.0224 63.8718 11.6266 63.1106 11.6145C63.0864 11.6145 63.0744 11.6145 63.0502 11.6145C62.1802 11.6266 61.4673 10.9378 61.4552 10.0799C61.431 9.77782 61.431 9.47574 61.4552 9.18574C61.4915 8.32783 62.1923 7.65118 63.0502 7.65118C63.6664 7.61493 64.2102 7.94117 64.4518 8.47283ZM35.2709 15.2274C35.283 15.2515 35.283 15.2757 35.295 15.2999C35.295 15.324 35.2709 15.3361 35.1863 15.3844C35.15 15.4086 35.1017 15.4207 35.0534 15.4328C35.0292 15.4328 35.0171 15.4086 34.993 15.3482C34.8117 14.9011 34.3646 14.6111 33.8813 14.6111C33.2167 14.6111 32.673 15.1428 32.6609 15.8073C32.6367 16.1094 32.6367 16.4236 32.6609 16.7257C32.673 17.3903 33.2167 17.934 33.8813 17.934C34.3646 17.934 34.7875 17.6561 34.9688 17.209C35.005 17.1365 35.005 17.1003 35.0534 17.1003C35.0896 17.1003 35.138 17.1123 35.1742 17.1244C35.283 17.1607 35.3071 17.1607 35.3071 17.209C35.3071 17.2453 35.295 17.2815 35.283 17.3057C35.0534 17.8736 34.5096 18.2482 33.8934 18.2482C33.0476 18.2482 32.3588 17.5594 32.3588 16.7136C32.3346 16.4115 32.3346 16.1094 32.3588 15.8194C32.3709 14.9736 33.0596 14.2969 33.8934 14.2969C34.4855 14.2849 35.0413 14.6594 35.2709 15.2274ZM36.5638 16.7257C36.5396 16.4236 36.5396 16.1215 36.5638 15.8194C36.6 14.9374 37.3371 14.2486 38.2192 14.2849C39.0529 14.3211 39.7175 14.9857 39.7537 15.8194C39.7779 16.1215 39.7779 16.4236 39.7537 16.7257C39.7175 17.6077 38.9804 18.2965 38.0983 18.2602C37.2646 18.224 36.5879 17.5594 36.5638 16.7257ZM39.4154 16.7257C39.4396 16.4236 39.4396 16.1094 39.4154 15.8073C39.3792 15.1065 38.7871 14.5749 38.0863 14.599C37.4338 14.6353 36.9142 15.1549 36.8779 15.8073C36.8538 16.1094 36.8538 16.4236 36.8779 16.7257C36.9142 17.4265 37.5063 17.9582 38.2071 17.934C38.8596 17.8977 39.3792 17.3782 39.4154 16.7257ZM44.9012 14.6957L45.4087 17.9582C45.4208 18.0186 45.4208 18.0669 45.4329 18.1273C45.4329 18.1757 45.4208 18.1877 45.2879 18.1998C45.2516 18.1998 45.2033 18.2119 45.167 18.2119C45.1187 18.2119 45.1187 18.1998 45.0945 18.0911L44.5749 14.6957C44.5629 14.6232 44.5629 14.6232 44.5024 14.6232C44.442 14.6232 44.442 14.6232 44.4179 14.6836L43.6204 17.8857C43.5479 18.1998 43.5479 18.1998 43.2458 18.1998C42.9437 18.1998 42.9437 18.1998 42.8591 17.8857L42.0616 14.6836C42.0496 14.6232 42.0496 14.6232 41.9771 14.6232C41.9166 14.6232 41.9166 14.6232 41.9046 14.6957L41.4091 18.079C41.385 18.1998 41.385 18.2119 41.3487 18.2119C41.3246 18.2119 41.2641 18.2119 41.2279 18.1998C41.1071 18.1877 41.0829 18.1757 41.0829 18.1273C41.0829 18.079 41.095 18.0186 41.1071 17.9702L41.6025 14.7078C41.6629 14.3453 41.6629 14.3453 42.0012 14.3453C42.3033 14.3453 42.3033 14.3453 42.3758 14.6715L43.1733 17.8736C43.1854 17.934 43.1854 17.934 43.2579 17.934C43.3304 17.934 43.3183 17.934 43.3304 17.8736L44.1037 14.7199C44.1883 14.3574 44.1883 14.3574 44.5145 14.3574C44.8408 14.3332 44.8408 14.3332 44.9012 14.6957ZM47.2695 18.0307C47.2695 18.1998 47.2695 18.1998 47.1124 18.1998C46.9553 18.1998 46.9553 18.1998 46.9553 18.0307V14.6474C46.9553 14.3332 46.9553 14.3332 47.2816 14.3332H48.4053C49.0578 14.309 49.6016 14.8286 49.6136 15.4811C49.6378 16.1336 49.1182 16.6773 48.4657 16.6894C48.4295 16.6894 48.3932 16.6894 48.357 16.6894H47.2816L47.2695 18.0307ZM49.2874 15.5053C49.2874 14.8649 48.9128 14.6474 48.1153 14.6474H47.2695V16.3632H48.357C49.0216 16.3632 49.2874 16.0128 49.2874 15.5053ZM51.2207 14.3332C51.3778 14.3332 51.3778 14.3332 51.3778 14.5024V17.8857H53.3111C53.4803 17.8857 53.4803 17.8857 53.4803 18.0427C53.4803 18.1998 53.4803 18.1998 53.3111 18.1998H51.3899C51.0636 18.1998 51.0636 18.1998 51.0636 17.8736V14.4903C51.0636 14.3332 51.0636 14.3332 51.2207 14.3332ZM54.8336 14.3332C54.9907 14.3332 54.9907 14.3332 54.9907 14.5024V18.0307C54.9907 18.1998 54.9907 18.1998 54.8336 18.1998C54.6765 18.1998 54.6765 18.1998 54.6765 18.0307V14.4903C54.6765 14.3332 54.6765 14.3332 54.8336 14.3332ZM58.4586 14.5869L59.7031 17.9702C59.7152 18.0065 59.7273 18.0427 59.7394 18.079C59.7394 18.1152 59.7152 18.1273 59.6186 18.1636C59.5702 18.1877 59.534 18.1998 59.4856 18.1998C59.4615 18.1998 59.4494 18.1877 59.4252 18.1152L58.954 16.8223H57.1052L56.634 18.1152C56.6098 18.1877 56.5977 18.1998 56.5736 18.1998C56.5373 18.1877 56.489 18.1877 56.4528 18.1636C56.3561 18.1273 56.3198 18.1152 56.3198 18.079C56.3198 18.0548 56.3319 18.0186 56.344 17.9944L57.6007 14.5749C57.6973 14.3211 57.6973 14.3211 58.0477 14.3211C58.3982 14.3211 58.3619 14.3332 58.4586 14.5869ZM57.8302 14.7803L57.2019 16.5082H58.8211L58.1927 14.7803C58.1444 14.6474 58.1444 14.6474 58.0115 14.6474C57.8786 14.6353 57.8786 14.6353 57.8302 14.7803ZM61.5881 14.4419L63.751 17.8736H63.7631C63.751 17.354 63.751 16.1215 63.751 15.2153V14.4903C63.751 14.3211 63.751 14.3211 63.9081 14.3211C64.0652 14.3211 64.0652 14.3211 64.0652 14.4903V18.0427C64.0652 18.1998 64.0652 18.1998 63.8356 18.1998C63.5819 18.1998 63.5819 18.1998 63.4973 18.0669L61.3585 14.6474H61.3465C61.3585 15.0582 61.3585 16.1457 61.3585 16.9432V18.0427C61.3585 18.2119 61.3585 18.2119 61.2015 18.2119C61.0444 18.2119 61.0444 18.2119 61.0444 18.0427V14.4903C61.0444 14.3453 61.0444 14.3453 61.3223 14.3453C61.5277 14.3332 61.5277 14.3332 61.5881 14.4419ZM68.5843 15.2274C68.5964 15.2515 68.5964 15.2757 68.6085 15.2999C68.6085 15.324 68.5843 15.3361 68.4997 15.3844C68.4635 15.4086 68.4151 15.4207 68.3668 15.4328C68.3426 15.4328 68.3306 15.4086 68.3064 15.3482C68.1251 14.9011 67.6781 14.6111 67.1947 14.6111C66.5302 14.6111 65.9864 15.1428 65.9743 15.8073C65.9502 16.1094 65.9502 16.4236 65.9743 16.7257C65.9864 17.3903 66.5302 17.934 67.1947 17.934C67.6781 17.934 68.101 17.6561 68.2822 17.209C68.3185 17.1365 68.3185 17.1003 68.3668 17.1003C68.4031 17.1003 68.4514 17.1123 68.4876 17.1244C68.5964 17.1607 68.6206 17.1607 68.6206 17.209C68.6206 17.2453 68.6085 17.2815 68.5964 17.3057C68.3668 17.8736 67.8231 18.2482 67.2068 18.2482C66.361 18.2482 65.6722 17.5594 65.6722 16.7136C65.6481 16.4115 65.6481 16.1094 65.6722 15.8194C65.6843 14.9736 66.3731 14.2969 67.2068 14.2969C67.811 14.2849 68.3547 14.6594 68.5843 15.2274ZM72.4872 14.4903C72.4872 14.6474 72.4872 14.6474 72.318 14.6474H70.3847V16.0973H72.2818C72.463 16.0973 72.463 16.0973 72.463 16.2544C72.463 16.4115 72.463 16.4115 72.2818 16.4115H70.3847V17.8736H72.3301C72.4993 17.8736 72.4993 17.8736 72.4993 18.0307C72.4993 18.1998 72.4993 18.1998 72.3301 18.1998H70.3726C70.0585 18.1998 70.0585 18.1998 70.0585 17.8857V14.6474C70.0585 14.3332 70.0585 14.3332 70.3726 14.3332H72.318C72.4872 14.3332 72.4872 14.3332 72.4872 14.4903Z" fill="#CDCAD5"/>
<path d="M26.2572 12.1937C26.1847 10.7437 24.9522 9.63203 23.5022 9.70453C22.161 9.77702 21.0856 10.8524 21.0131 12.1937C20.9527 12.822 20.9527 13.4624 21.0131 14.1028C21.0856 15.5528 22.3181 16.6645 23.7681 16.592C25.1093 16.5195 26.1847 15.4441 26.2572 14.1028C26.3176 13.4624 26.3176 12.822 26.2572 12.1937Z" fill="#CDCAD5"/>
<path d="M23.6348 17.185C21.8706 17.197 20.4206 15.8195 20.3361 14.0554C20.2877 13.4392 20.2877 12.8229 20.3361 12.2187C20.4206 10.4546 21.8706 9.07711 23.6348 9.0892C24.8793 9.07711 26.0273 9.77794 26.5831 10.9017C25.1814 3.6155 18.1248 -1.15737 10.8386 0.244281C6.00536 1.17469 2.06623 4.67882 0.567911 9.36711L3.22622 16.3875C3.27455 16.5083 3.27455 16.5083 3.37122 16.5083C3.46788 16.5083 3.46788 16.5083 3.51622 16.3875L6.17452 9.34295C6.23494 9.18586 6.27119 9.11336 6.31952 9.11336C6.40411 9.12545 6.50077 9.14961 6.58535 9.18586C6.82702 9.27044 6.86327 9.28253 6.86327 9.36711C6.85118 9.45169 6.82702 9.53627 6.79077 9.62086L4.44662 15.8316C3.97538 17.0883 3.97538 17.0883 3.37122 17.0883C2.76706 17.0883 2.77914 17.0883 2.29581 15.8316L0.277914 10.515C0.0966657 11.3971 0 12.3033 0 13.1975C0 20.4837 5.99328 26.3803 13.3882 26.3803C19.9011 26.4165 25.4956 21.7403 26.6072 15.3121C26.0756 16.472 24.9035 17.2091 23.6348 17.185ZM8.83283 16.75C8.83283 17.0883 8.83283 17.0883 8.4945 17.0883C8.15617 17.0883 8.15617 17.0883 8.15617 16.75V9.52419C8.15617 9.18586 8.15617 9.18586 8.4945 9.18586C8.83283 9.18586 8.83283 9.18586 8.83283 9.52419V16.75ZM16.6628 16.605C16.7232 16.6775 16.7473 16.7016 16.7473 16.75C16.7473 16.8104 16.7232 16.8345 16.554 16.9795C16.3848 17.1245 16.3486 17.1366 16.3003 17.1366C16.2519 17.1366 16.2157 17.1004 16.1432 17.0158L13.5211 13.6808L10.9111 17.0037C10.8386 17.0883 10.7903 17.1366 10.742 17.1366C10.6695 17.1366 10.6453 17.1004 10.5003 16.9795C10.3312 16.8345 10.307 16.7983 10.307 16.75C10.3191 16.6895 10.3432 16.6412 10.3916 16.605L13.1103 13.1492L10.3674 9.68127C10.3191 9.60877 10.2828 9.57253 10.2828 9.52419C10.2828 9.46378 10.307 9.43961 10.4761 9.29461C10.6453 9.14961 10.6574 9.13753 10.7299 9.13753C10.8024 9.13753 10.8507 9.22211 10.8991 9.27044L13.5211 12.6175L16.1794 9.25836C16.2519 9.16169 16.2761 9.13753 16.3365 9.13753C16.3848 9.13753 16.409 9.1617 16.5782 9.29461C16.7594 9.43961 16.7715 9.47586 16.7715 9.52419C16.7715 9.58461 16.7473 9.63294 16.7111 9.66919L13.944 13.1492L16.6628 16.605ZM18.8861 16.75C18.8861 17.0883 18.8861 17.0883 18.5477 17.0883C18.2094 17.0883 18.2094 17.0883 18.2094 16.75V9.52419C18.2094 9.18586 18.2094 9.18586 18.5477 9.18586C18.8861 9.18586 18.8861 9.18586 18.8861 9.52419V16.75Z" fill="#CDCAD5"/>
</svg>
