<svg width="276" height="151" viewBox="0 0 276 151" fill="none" xmlns="http://www.w3.org/2000/svg">
<path d="M136.657 68.9206C136.742 69.1076 136.742 69.1416 136.742 69.1756C136.742 69.2096 136.725 69.2436 136.572 69.2946C136.521 69.3286 136.453 69.3456 136.385 69.3456C136.317 69.3456 136.3 69.3116 136.232 69.1416C135.977 68.5296 135.365 68.1556 134.719 68.1896C133.767 68.1896 132.968 68.9376 132.951 69.9066C132.9 70.3316 132.9 70.7566 132.951 71.1816C132.951 72.1166 133.716 72.8816 134.651 72.8816C134.668 72.8816 134.702 72.8816 134.719 72.8816C135.518 72.9666 136.215 72.3886 136.3 71.6066C136.3 71.5726 136.3 71.5216 136.3 71.4876V70.8926H135.008C134.77 70.8926 134.77 70.8926 134.77 70.6716C134.77 70.4506 134.77 70.4506 135.008 70.4506H136.317C136.742 70.4506 136.742 70.4506 136.742 70.8586V71.4366C136.725 72.5076 135.841 73.3576 134.77 73.3406C134.736 73.3406 134.719 73.3406 134.685 73.3406C133.461 73.3576 132.458 72.3886 132.441 71.1816C132.407 70.7566 132.407 70.3316 132.441 69.9236C132.492 68.7166 133.478 67.7646 134.685 67.7646C135.552 67.7136 136.317 68.1726 136.657 68.9206ZM141.383 68.1726L143.134 72.9326C143.151 72.9836 143.168 73.0346 143.185 73.0856C143.185 73.1366 143.151 73.1536 143.015 73.2046C142.947 73.2386 142.896 73.2556 142.828 73.2556C142.794 73.2556 142.777 73.2386 142.743 73.1366L142.08 71.3176H139.479L138.816 73.1366C138.782 73.2386 138.765 73.2556 138.714 73.2556C138.663 73.2386 138.595 73.2386 138.544 73.2046C138.408 73.1536 138.357 73.1366 138.357 73.0856C138.357 73.0516 138.374 73.0006 138.391 72.9666L140.159 68.1556C140.295 67.7986 140.295 67.7986 140.788 67.7986C141.247 67.8156 141.247 67.8156 141.383 68.1726ZM140.499 68.4446L139.615 70.8756H141.876L140.992 68.4446C140.924 68.2576 140.924 68.2576 140.737 68.2576C140.567 68.2576 140.567 68.2576 140.499 68.4446ZM150.104 68.3256L150.818 72.9156C150.835 73.0006 150.835 73.0686 150.852 73.1536C150.852 73.2216 150.835 73.2386 150.648 73.2556C150.597 73.2556 150.529 73.2726 150.478 73.2726C150.41 73.2726 150.41 73.2556 150.393 73.1026L149.662 68.3256C149.645 68.2236 149.645 68.2236 149.56 68.2236C149.475 68.2236 149.475 68.2236 149.441 68.3086L148.319 72.8136C148.217 73.2556 148.217 73.2556 147.792 73.2556C147.367 73.2556 147.367 73.2556 147.248 72.8136L146.126 68.3086C146.109 68.2236 146.109 68.2236 146.007 68.2236C145.922 68.2236 145.922 68.2236 145.905 68.3256L145.208 73.0856C145.174 73.2556 145.174 73.2726 145.123 73.2726C145.089 73.2726 145.004 73.2726 144.953 73.2556C144.783 73.2386 144.749 73.2216 144.749 73.1536C144.749 73.0856 144.766 73.0006 144.783 72.9326L145.48 68.3426C145.565 67.8326 145.565 67.8326 146.041 67.8326C146.466 67.8326 146.466 67.8326 146.568 68.2916L147.69 72.7966C147.707 72.8816 147.707 72.8816 147.809 72.8816C147.894 72.8816 147.894 72.8816 147.911 72.7966L148.999 68.3596C149.118 67.8496 149.118 67.8496 149.577 67.8496C150.019 67.8156 150.019 67.8156 150.104 68.3256ZM156.7 69.1926C156.768 69.7366 156.462 70.2466 155.952 70.4166C156.53 70.5526 156.904 71.0966 156.853 71.6916C156.921 72.4736 156.36 73.1706 155.578 73.2386C155.476 73.2556 155.374 73.2386 155.255 73.2386H153.419C152.977 73.2386 152.977 73.2386 152.977 72.7966V68.2576C152.977 67.8156 152.977 67.8156 153.419 67.8156H155.153C155.918 67.7306 156.615 68.2916 156.683 69.0736C156.7 69.1076 156.7 69.1586 156.7 69.1926ZM153.436 68.2746V70.2296H155.17C155.918 70.2296 156.241 69.8556 156.241 69.2436C156.241 68.6146 155.884 68.2746 155.17 68.2746H153.436ZM153.436 70.6716V72.8136H155.204C156.02 72.8136 156.394 72.4396 156.394 71.7426C156.428 71.1816 156.003 70.7056 155.459 70.6716C155.408 70.6716 155.357 70.6716 155.323 70.6716H153.436ZM159.216 67.8156C159.437 67.8156 159.437 67.8156 159.437 68.0536V72.8136H162.157C162.395 72.8136 162.395 72.8136 162.395 73.0346C162.395 73.2556 162.395 73.2556 162.157 73.2556H159.454C158.995 73.2556 158.995 73.2556 158.995 72.7966V68.0366C158.978 67.8156 158.978 67.8156 159.216 67.8156ZM164.282 67.8156C164.503 67.8156 164.503 67.8156 164.503 68.0536V73.0176C164.503 73.2556 164.503 73.2556 164.282 73.2556C164.061 73.2556 164.061 73.2556 164.061 73.0176V68.0366C164.061 67.8156 164.061 67.8156 164.282 67.8156ZM167.801 67.9686L170.844 72.7966H170.861C170.844 72.0656 170.844 70.3316 170.844 69.0566V68.0366C170.844 67.7986 170.844 67.7986 171.065 67.7986C171.286 67.7986 171.286 67.7986 171.286 68.0366V73.0346C171.286 73.2556 171.286 73.2556 170.963 73.2556C170.606 73.2556 170.606 73.2556 170.487 73.0686L167.461 68.2576H167.444C167.461 68.8356 167.461 70.3656 167.461 71.4876V73.0346C167.461 73.2726 167.461 73.2726 167.24 73.2726C167.019 73.2726 167.019 73.2726 167.019 73.0346V68.0366C167.019 67.8326 167.019 67.8326 167.41 67.8326C167.716 67.8156 167.716 67.8156 167.801 67.9686ZM177.678 68.9206C177.763 69.1076 177.763 69.1416 177.763 69.1756C177.763 69.2096 177.746 69.2436 177.593 69.2946C177.542 69.3286 177.474 69.3456 177.406 69.3456C177.338 69.3456 177.321 69.3116 177.253 69.1416C176.998 68.5296 176.386 68.1556 175.74 68.1896C174.788 68.1896 173.989 68.9376 173.972 69.9066C173.921 70.3316 173.921 70.7566 173.972 71.1816C173.972 72.1166 174.737 72.8816 175.672 72.8816C175.689 72.8816 175.723 72.8816 175.74 72.8816C176.539 72.9666 177.236 72.3886 177.321 71.6066C177.321 71.5726 177.321 71.5216 177.321 71.4876V70.8926H176.029C175.791 70.8926 175.791 70.8926 175.791 70.6716C175.791 70.4506 175.791 70.4506 176.029 70.4506H177.338C177.763 70.4506 177.763 70.4506 177.763 70.8586V71.4366C177.746 72.5076 176.862 73.3576 175.791 73.3406C175.757 73.3406 175.74 73.3406 175.706 73.3406C174.482 73.3576 173.479 72.3886 173.462 71.1816C173.428 70.7566 173.428 70.3316 173.462 69.9236C173.513 68.7166 174.499 67.7646 175.706 67.7646C176.573 67.7136 177.338 68.1726 177.678 68.9206ZM136.623 78.4236C136.64 78.4576 136.64 78.4916 136.657 78.5256C136.657 78.5596 136.623 78.5766 136.504 78.6446C136.453 78.6786 136.385 78.6956 136.317 78.7126C136.283 78.7126 136.266 78.6786 136.232 78.5936C135.977 77.9646 135.348 77.5566 134.668 77.5566C133.733 77.5566 132.968 78.3046 132.951 79.2396C132.917 79.6646 132.917 80.1066 132.951 80.5316C132.968 81.4666 133.733 82.2316 134.668 82.2316C135.348 82.2316 135.943 81.8406 136.198 81.2116C136.249 81.1096 136.249 81.0586 136.317 81.0586C136.368 81.0586 136.436 81.0756 136.487 81.0926C136.64 81.1436 136.674 81.1436 136.674 81.2116C136.674 81.2626 136.657 81.3136 136.64 81.3476C136.317 82.1466 135.552 82.6736 134.685 82.6736C133.495 82.6736 132.526 81.7046 132.526 80.5146C132.492 80.0896 132.492 79.6646 132.526 79.2566C132.543 78.0666 133.512 77.1146 134.685 77.1146C135.518 77.0976 136.3 77.6246 136.623 78.4236ZM138.442 80.5316C138.408 80.1066 138.408 79.6816 138.442 79.2566C138.493 78.0156 139.53 77.0466 140.771 77.0976C141.944 77.1486 142.879 78.0836 142.93 79.2566C142.964 79.6816 142.964 80.1066 142.93 80.5316C142.879 81.7726 141.842 82.7416 140.601 82.6906C139.428 82.6396 138.476 81.7046 138.442 80.5316ZM142.454 80.5316C142.488 80.1066 142.488 79.6646 142.454 79.2396C142.403 78.2536 141.57 77.5056 140.584 77.5396C139.666 77.5906 138.935 78.3216 138.884 79.2396C138.85 79.6646 138.85 80.1066 138.884 80.5316C138.935 81.5176 139.768 82.2656 140.754 82.2316C141.672 82.1806 142.403 81.4496 142.454 80.5316ZM150.172 77.6756L150.886 82.2656C150.903 82.3506 150.903 82.4186 150.92 82.5036C150.92 82.5716 150.903 82.5886 150.716 82.6056C150.665 82.6056 150.597 82.6226 150.546 82.6226C150.478 82.6226 150.478 82.6056 150.444 82.4526L149.713 77.6756C149.696 77.5736 149.696 77.5736 149.611 77.5736C149.526 77.5736 149.526 77.5736 149.492 77.6586L148.37 82.1636C148.268 82.6056 148.268 82.6056 147.843 82.6056C147.418 82.6056 147.418 82.6056 147.299 82.1636L146.177 77.6586C146.16 77.5736 146.16 77.5736 146.058 77.5736C145.973 77.5736 145.973 77.5736 145.956 77.6756L145.259 82.4356C145.225 82.6056 145.225 82.6226 145.174 82.6226C145.14 82.6226 145.055 82.6226 145.004 82.6056C144.834 82.5886 144.8 82.5716 144.8 82.5036C144.8 82.4356 144.817 82.3506 144.834 82.2826L145.531 77.6926C145.616 77.1826 145.616 77.1826 146.092 77.1826C146.517 77.1826 146.517 77.1826 146.619 77.6416L147.741 82.1466C147.758 82.2316 147.758 82.2316 147.86 82.2316C147.962 82.2316 147.945 82.2316 147.962 82.1466L149.05 77.7096C149.169 77.1996 149.169 77.1996 149.628 77.1996C150.087 77.1656 150.087 77.1656 150.172 77.6756ZM153.504 82.3676C153.504 82.6056 153.504 82.6056 153.283 82.6056C153.062 82.6056 153.062 82.6056 153.062 82.3676V77.6076C153.062 77.1656 153.062 77.1656 153.521 77.1656H155.102C156.02 77.1316 156.785 77.8626 156.802 78.7806C156.836 79.6986 156.105 80.4636 155.187 80.4806C155.136 80.4806 155.085 80.4806 155.034 80.4806H153.521L153.504 82.3676ZM156.343 78.8146C156.343 77.9136 155.816 77.6076 154.694 77.6076H153.504V80.0216H155.034C155.969 80.0216 156.343 79.5286 156.343 78.8146ZM159.063 77.1656C159.284 77.1656 159.284 77.1656 159.284 77.4036V82.1636H162.004C162.242 82.1636 162.242 82.1636 162.242 82.3846C162.242 82.6056 162.242 82.6056 162.004 82.6056H159.301C158.842 82.6056 158.842 82.6056 158.842 82.1466V77.3866C158.842 77.1656 158.842 77.1656 159.063 77.1656ZM164.146 77.1656C164.367 77.1656 164.367 77.1656 164.367 77.4036V82.3676C164.367 82.6056 164.367 82.6056 164.146 82.6056C163.925 82.6056 163.925 82.6056 163.925 82.3676V77.3866C163.925 77.1656 163.925 77.1656 164.146 77.1656ZM169.246 77.5226L170.997 82.2826C171.014 82.3336 171.031 82.3846 171.048 82.4356C171.048 82.4866 171.014 82.5036 170.878 82.5546C170.81 82.5886 170.759 82.6056 170.691 82.6056C170.657 82.6056 170.64 82.5886 170.606 82.4866L169.943 80.6676H167.342L166.679 82.4866C166.645 82.5886 166.628 82.6056 166.594 82.6056C166.543 82.5886 166.475 82.5886 166.424 82.5546C166.288 82.5036 166.237 82.4866 166.237 82.4356C166.237 82.4016 166.254 82.3506 166.271 82.3166L168.039 77.5056C168.175 77.1486 168.175 77.1486 168.668 77.1486C169.161 77.1486 169.11 77.1656 169.246 77.5226ZM168.362 77.7946L167.478 80.2256H169.756L168.872 77.7946C168.804 77.6076 168.804 77.6076 168.617 77.6076C168.43 77.5906 168.43 77.5906 168.362 77.7946ZM173.649 77.3186L176.692 82.1466H176.709C176.692 81.4156 176.692 79.6816 176.692 78.4066V77.3866C176.692 77.1486 176.692 77.1486 176.913 77.1486C177.134 77.1486 177.134 77.1486 177.134 77.3866V82.3846C177.134 82.6056 177.134 82.6056 176.811 82.6056C176.454 82.6056 176.454 82.6056 176.335 82.4186L173.326 77.6076H173.309C173.326 78.1856 173.326 79.7156 173.326 80.8376V82.3846C173.326 82.6226 173.326 82.6226 173.105 82.6226C172.884 82.6226 172.884 82.6226 172.884 82.3846V77.3866C172.884 77.1826 172.884 77.1826 173.275 77.1826C173.564 77.1656 173.564 77.1656 173.649 77.3186ZM183.492 78.4236C183.509 78.4576 183.509 78.4916 183.526 78.5256C183.526 78.5596 183.492 78.5766 183.373 78.6446C183.322 78.6786 183.254 78.6956 183.186 78.7126C183.152 78.7126 183.135 78.6786 183.101 78.5936C182.846 77.9646 182.217 77.5566 181.537 77.5566C180.602 77.5566 179.837 78.3046 179.82 79.2396C179.786 79.6646 179.786 80.1066 179.82 80.5316C179.837 81.4666 180.602 82.2316 181.537 82.2316C182.217 82.2316 182.812 81.8406 183.067 81.2116C183.118 81.1096 183.118 81.0586 183.186 81.0586C183.237 81.0586 183.305 81.0756 183.356 81.0926C183.509 81.1436 183.543 81.1436 183.543 81.2116C183.543 81.2626 183.526 81.3136 183.509 81.3476C183.186 82.1466 182.421 82.6736 181.554 82.6736C180.364 82.6736 179.395 81.7046 179.395 80.5146C179.361 80.0896 179.361 79.6646 179.395 79.2566C179.412 78.0666 180.381 77.1146 181.554 77.1146C182.404 77.0976 183.169 77.6246 183.492 78.4236ZM188.983 77.3866C188.983 77.6076 188.983 77.6076 188.745 77.6076H186.025V79.6476H188.694C188.949 79.6476 188.949 79.6476 188.949 79.8686C188.949 80.0896 188.949 80.0896 188.694 80.0896H186.025V82.1466H188.762C189 82.1466 189 82.1466 189 82.3676C189 82.6056 189 82.6056 188.762 82.6056H186.008C185.566 82.6056 185.566 82.6056 185.566 82.1636V77.6076C185.566 77.1656 185.566 77.1656 186.008 77.1656H188.745C188.983 77.1656 188.983 77.1656 188.983 77.3866Z" fill="#CDCAD5"/>
<path d="M123.941 74.1561C123.839 72.1161 122.105 70.5521 120.065 70.6541C118.178 70.7561 116.665 72.2691 116.563 74.1561C116.478 75.0401 116.478 75.9411 116.563 76.8421C116.665 78.8821 118.399 80.4461 120.439 80.3441C122.326 80.2421 123.839 78.7291 123.941 76.8421C124.026 75.9411 124.026 75.0401 123.941 74.1561Z" fill="#CDCAD5"/>
<path d="M120.252 81.1777C117.77 81.1947 115.73 79.2567 115.611 76.7747C115.543 75.9077 115.543 75.0407 115.611 74.1907C115.73 71.7087 117.77 69.7707 120.252 69.7877C122.003 69.7707 123.618 70.7567 124.4 72.3377C122.428 62.0867 112.5 55.3717 102.249 57.3437C95.449 58.6527 89.907 63.5827 87.799 70.1787L91.539 80.0557C91.607 80.2257 91.607 80.2257 91.743 80.2257C91.879 80.2257 91.879 80.2257 91.947 80.0557L95.687 70.1447C95.772 69.9237 95.823 69.8217 95.891 69.8217C96.01 69.8387 96.146 69.8727 96.265 69.9237C96.605 70.0427 96.656 70.0597 96.656 70.1787C96.639 70.2977 96.605 70.4167 96.554 70.5357L93.256 79.2737C92.593 81.0417 92.593 81.0417 91.743 81.0417C90.893 81.0417 90.91 81.0417 90.23 79.2737L87.391 71.7937C87.136 73.0347 87 74.3097 87 75.5677C87 85.8187 95.432 94.1147 105.836 94.1147C114.999 94.1657 122.87 87.5867 124.434 78.5427C123.686 80.1747 122.037 81.2117 120.252 81.1777ZM99.427 80.5657C99.427 81.0417 99.427 81.0417 98.951 81.0417C98.475 81.0417 98.475 81.0417 98.475 80.5657V70.3997C98.475 69.9237 98.475 69.9237 98.951 69.9237C99.427 69.9237 99.427 69.9237 99.427 70.3997V80.5657ZM110.443 80.3617C110.528 80.4637 110.562 80.4977 110.562 80.5657C110.562 80.6507 110.528 80.6847 110.29 80.8887C110.052 81.0927 110.001 81.1097 109.933 81.1097C109.865 81.1097 109.814 81.0587 109.712 80.9397L106.023 76.2477L102.351 80.9227C102.249 81.0417 102.181 81.1097 102.113 81.1097C102.011 81.1097 101.977 81.0587 101.773 80.8887C101.535 80.6847 101.501 80.6337 101.501 80.5657C101.518 80.4807 101.552 80.4127 101.62 80.3617L105.445 75.4997L101.586 70.6207C101.518 70.5187 101.467 70.4677 101.467 70.3997C101.467 70.3147 101.501 70.2807 101.739 70.0767C101.977 69.8727 101.994 69.8557 102.096 69.8557C102.198 69.8557 102.266 69.9747 102.334 70.0427L106.023 74.7517L109.763 70.0257C109.865 69.8897 109.899 69.8557 109.984 69.8557C110.052 69.8557 110.086 69.8897 110.324 70.0767C110.579 70.2807 110.596 70.3317 110.596 70.3997C110.596 70.4847 110.562 70.5527 110.511 70.6037L106.618 75.4997L110.443 80.3617ZM113.571 80.5657C113.571 81.0417 113.571 81.0417 113.095 81.0417C112.619 81.0417 112.619 81.0417 112.619 80.5657V70.3997C112.619 69.9237 112.619 69.9237 113.095 69.9237C113.571 69.9237 113.571 69.9237 113.571 70.3997V80.5657Z" fill="#CDCAD5"/>
</svg>
