<svg width="102" height="38" viewBox="0 0 102 38" fill="none" xmlns="http://www.w3.org/2000/svg">
<path d="M49.6565 11.9206C49.7415 12.1076 49.7415 12.1416 49.7415 12.1756C49.7415 12.2096 49.7245 12.2436 49.5715 12.2946C49.5205 12.3286 49.4525 12.3456 49.3845 12.3456C49.3165 12.3456 49.2995 12.3116 49.2315 12.1416C48.9765 11.5296 48.3645 11.1556 47.7185 11.1896C46.7665 11.1896 45.9675 11.9376 45.9505 12.9066C45.8995 13.3316 45.8995 13.7566 45.9505 14.1816C45.9505 15.1166 46.7155 15.8816 47.6505 15.8816C47.6675 15.8816 47.7015 15.8816 47.7185 15.8816C48.5175 15.9666 49.2145 15.3886 49.2995 14.6066C49.2995 14.5726 49.2995 14.5216 49.2995 14.4876V13.8926H48.0075C47.7695 13.8926 47.7695 13.8926 47.7695 13.6716C47.7695 13.4506 47.7695 13.4506 48.0075 13.4506H49.3165C49.7415 13.4506 49.7415 13.4506 49.7415 13.8586V14.4366C49.7245 15.5076 48.8405 16.3576 47.7695 16.3406C47.7355 16.3406 47.7185 16.3406 47.6845 16.3406C46.4605 16.3576 45.4575 15.3886 45.4405 14.1816C45.4065 13.7566 45.4065 13.3316 45.4405 12.9236C45.4915 11.7166 46.4775 10.7646 47.6845 10.7646C48.5515 10.7136 49.3165 11.1726 49.6565 11.9206ZM54.3826 11.1726L56.1336 15.9326C56.1506 15.9836 56.1676 16.0346 56.1846 16.0856C56.1846 16.1366 56.1506 16.1536 56.0146 16.2046C55.9466 16.2386 55.8956 16.2556 55.8276 16.2556C55.7936 16.2556 55.7766 16.2386 55.7426 16.1366L55.0796 14.3176H52.4785L51.8155 16.1366C51.7815 16.2386 51.7645 16.2556 51.7135 16.2556C51.6625 16.2386 51.5945 16.2386 51.5435 16.2046C51.4075 16.1536 51.3565 16.1366 51.3565 16.0856C51.3565 16.0516 51.3735 16.0006 51.3905 15.9666L53.1585 11.1556C53.2945 10.7986 53.2945 10.7986 53.7876 10.7986C54.2466 10.8156 54.2466 10.8156 54.3826 11.1726ZM53.4985 11.4446L52.6146 13.8756H54.8756L53.9915 11.4446C53.9235 11.2576 53.9235 11.2576 53.7365 11.2576C53.5665 11.2576 53.5665 11.2576 53.4985 11.4446ZM63.1036 11.3256L63.8176 15.9156C63.8346 16.0006 63.8346 16.0686 63.8516 16.1536C63.8516 16.2216 63.8346 16.2386 63.6476 16.2556C63.5966 16.2556 63.5286 16.2726 63.4776 16.2726C63.4096 16.2726 63.4096 16.2556 63.3926 16.1026L62.6616 11.3256C62.6446 11.2236 62.6446 11.2236 62.5596 11.2236C62.4746 11.2236 62.4746 11.2236 62.4406 11.3086L61.3186 15.8136C61.2166 16.2556 61.2166 16.2556 60.7916 16.2556C60.3666 16.2556 60.3666 16.2556 60.2476 15.8136L59.1256 11.3086C59.1086 11.2236 59.1086 11.2236 59.0066 11.2236C58.9216 11.2236 58.9216 11.2236 58.9046 11.3256L58.2076 16.0856C58.1736 16.2556 58.1736 16.2726 58.1226 16.2726C58.0886 16.2726 58.0036 16.2726 57.9526 16.2556C57.7826 16.2386 57.7486 16.2216 57.7486 16.1536C57.7486 16.0856 57.7656 16.0006 57.7826 15.9326L58.4796 11.3426C58.5646 10.8326 58.5646 10.8326 59.0406 10.8326C59.4656 10.8326 59.4656 10.8326 59.5676 11.2916L60.6896 15.7966C60.7066 15.8816 60.7066 15.8816 60.8086 15.8816C60.8936 15.8816 60.8936 15.8816 60.9106 15.7966L61.9986 11.3596C62.1176 10.8496 62.1176 10.8496 62.5766 10.8496C63.0186 10.8156 63.0186 10.8156 63.1036 11.3256ZM69.6996 12.1926C69.7676 12.7366 69.4616 13.2466 68.9516 13.4166C69.5296 13.5526 69.9036 14.0966 69.8526 14.6916C69.9206 15.4736 69.3596 16.1706 68.5776 16.2386C68.4756 16.2556 68.3736 16.2386 68.2546 16.2386H66.4186C65.9766 16.2386 65.9766 16.2386 65.9766 15.7966V11.2576C65.9766 10.8156 65.9766 10.8156 66.4186 10.8156H68.1526C68.9176 10.7306 69.6146 11.2916 69.6826 12.0736C69.6996 12.1076 69.6996 12.1586 69.6996 12.1926ZM66.4356 11.2746V13.2296H68.1696C68.9176 13.2296 69.2406 12.8556 69.2406 12.2436C69.2406 11.6146 68.8836 11.2746 68.1696 11.2746H66.4356ZM66.4356 13.6716V15.8136H68.2036C69.0196 15.8136 69.3936 15.4396 69.3936 14.7426C69.4276 14.1816 69.0026 13.7056 68.4586 13.6716C68.4076 13.6716 68.3566 13.6716 68.3226 13.6716H66.4356ZM72.2156 10.8156C72.4366 10.8156 72.4366 10.8156 72.4366 11.0536V15.8136H75.1566C75.3946 15.8136 75.3946 15.8136 75.3946 16.0346C75.3946 16.2556 75.3946 16.2556 75.1566 16.2556H72.4536C71.9946 16.2556 71.9946 16.2556 71.9946 15.7966V11.0366C71.9776 10.8156 71.9776 10.8156 72.2156 10.8156ZM77.2816 10.8156C77.5026 10.8156 77.5026 10.8156 77.5026 11.0536V16.0176C77.5026 16.2556 77.5026 16.2556 77.2816 16.2556C77.0606 16.2556 77.0606 16.2556 77.0606 16.0176V11.0366C77.0606 10.8156 77.0606 10.8156 77.2816 10.8156ZM80.8006 10.9686L83.8436 15.7966H83.8606C83.8436 15.0656 83.8436 13.3316 83.8436 12.0566V11.0366C83.8436 10.7986 83.8436 10.7986 84.0646 10.7986C84.2856 10.7986 84.2856 10.7986 84.2856 11.0366V16.0346C84.2856 16.2556 84.2856 16.2556 83.9626 16.2556C83.6056 16.2556 83.6056 16.2556 83.4866 16.0686L80.4606 11.2576H80.4436C80.4606 11.8356 80.4606 13.3656 80.4606 14.4876V16.0346C80.4606 16.2726 80.4606 16.2726 80.2396 16.2726C80.0186 16.2726 80.0186 16.2726 80.0186 16.0346V11.0366C80.0186 10.8326 80.0186 10.8326 80.4096 10.8326C80.7156 10.8156 80.7156 10.8156 80.8006 10.9686ZM90.6776 11.9206C90.7626 12.1076 90.7626 12.1416 90.7626 12.1756C90.7626 12.2096 90.7456 12.2436 90.5926 12.2946C90.5416 12.3286 90.4736 12.3456 90.4056 12.3456C90.3376 12.3456 90.3206 12.3116 90.2526 12.1416C89.9976 11.5296 89.3856 11.1556 88.7396 11.1896C87.7876 11.1896 86.9886 11.9376 86.9716 12.9066C86.9206 13.3316 86.9206 13.7566 86.9716 14.1816C86.9716 15.1166 87.7366 15.8816 88.6716 15.8816C88.6886 15.8816 88.7226 15.8816 88.7396 15.8816C89.5386 15.9666 90.2356 15.3886 90.3206 14.6066C90.3206 14.5726 90.3206 14.5216 90.3206 14.4876V13.8926H89.0286C88.7906 13.8926 88.7906 13.8926 88.7906 13.6716C88.7906 13.4506 88.7906 13.4506 89.0286 13.4506H90.3376C90.7626 13.4506 90.7626 13.4506 90.7626 13.8586V14.4366C90.7456 15.5076 89.8616 16.3576 88.7906 16.3406C88.7566 16.3406 88.7396 16.3406 88.7056 16.3406C87.4816 16.3576 86.4786 15.3886 86.4616 14.1816C86.4276 13.7566 86.4276 13.3316 86.4616 12.9236C86.5126 11.7166 87.4986 10.7646 88.7056 10.7646C89.5726 10.7136 90.3376 11.1726 90.6776 11.9206ZM49.6225 21.4236C49.6395 21.4576 49.6395 21.4916 49.6565 21.5256C49.6565 21.5596 49.6225 21.5766 49.5035 21.6446C49.4525 21.6786 49.3845 21.6956 49.3165 21.7126C49.2825 21.7126 49.2655 21.6786 49.2315 21.5936C48.9765 20.9646 48.3475 20.5566 47.6675 20.5566C46.7325 20.5566 45.9675 21.3046 45.9505 22.2396C45.9165 22.6646 45.9165 23.1066 45.9505 23.5316C45.9675 24.4666 46.7325 25.2316 47.6675 25.2316C48.3475 25.2316 48.9425 24.8406 49.1975 24.2116C49.2485 24.1096 49.2485 24.0586 49.3165 24.0586C49.3675 24.0586 49.4355 24.0756 49.4865 24.0926C49.6395 24.1436 49.6735 24.1436 49.6735 24.2116C49.6735 24.2626 49.6565 24.3136 49.6395 24.3476C49.3165 25.1466 48.5515 25.6736 47.6845 25.6736C46.4945 25.6736 45.5255 24.7046 45.5255 23.5146C45.4915 23.0896 45.4915 22.6646 45.5255 22.2566C45.5425 21.0666 46.5115 20.1146 47.6845 20.1146C48.5175 20.0976 49.2995 20.6246 49.6225 21.4236ZM51.4415 23.5316C51.4075 23.1066 51.4075 22.6816 51.4415 22.2566C51.4925 21.0156 52.5295 20.0466 53.7705 20.0976C54.9436 20.1486 55.8786 21.0836 55.9296 22.2566C55.9636 22.6816 55.9636 23.1066 55.9296 23.5316C55.8786 24.7726 54.8416 25.7416 53.6005 25.6906C52.4275 25.6396 51.4755 24.7046 51.4415 23.5316ZM55.4536 23.5316C55.4876 23.1066 55.4876 22.6646 55.4536 22.2396C55.4026 21.2536 54.5695 20.5056 53.5835 20.5396C52.6655 20.5906 51.9345 21.3216 51.8835 22.2396C51.8495 22.6646 51.8495 23.1066 51.8835 23.5316C51.9345 24.5176 52.7675 25.2656 53.7535 25.2316C54.6715 25.1806 55.4026 24.4496 55.4536 23.5316ZM63.1716 20.6756L63.8856 25.2656C63.9026 25.3506 63.9026 25.4186 63.9196 25.5036C63.9196 25.5716 63.9026 25.5886 63.7156 25.6056C63.6646 25.6056 63.5966 25.6226 63.5456 25.6226C63.4776 25.6226 63.4776 25.6056 63.4436 25.4526L62.7126 20.6756C62.6956 20.5736 62.6956 20.5736 62.6106 20.5736C62.5256 20.5736 62.5256 20.5736 62.4916 20.6586L61.3696 25.1636C61.2676 25.6056 61.2676 25.6056 60.8426 25.6056C60.4176 25.6056 60.4176 25.6056 60.2986 25.1636L59.1766 20.6586C59.1596 20.5736 59.1596 20.5736 59.0576 20.5736C58.9726 20.5736 58.9726 20.5736 58.9556 20.6756L58.2586 25.4356C58.2246 25.6056 58.2246 25.6226 58.1736 25.6226C58.1396 25.6226 58.0546 25.6226 58.0036 25.6056C57.8336 25.5886 57.7996 25.5716 57.7996 25.5036C57.7996 25.4356 57.8166 25.3506 57.8336 25.2826L58.5306 20.6926C58.6156 20.1826 58.6156 20.1826 59.0916 20.1826C59.5166 20.1826 59.5166 20.1826 59.6186 20.6416L60.7406 25.1466C60.7576 25.2316 60.7576 25.2316 60.8596 25.2316C60.9616 25.2316 60.9446 25.2316 60.9616 25.1466L62.0496 20.7096C62.1686 20.1996 62.1686 20.1996 62.6276 20.1996C63.0866 20.1656 63.0866 20.1656 63.1716 20.6756ZM66.5036 25.3676C66.5036 25.6056 66.5036 25.6056 66.2826 25.6056C66.0616 25.6056 66.0616 25.6056 66.0616 25.3676V20.6076C66.0616 20.1656 66.0616 20.1656 66.5206 20.1656H68.1016C69.0196 20.1316 69.7846 20.8626 69.8016 21.7806C69.8356 22.6986 69.1046 23.4636 68.1866 23.4806C68.1356 23.4806 68.0846 23.4806 68.0336 23.4806H66.5206L66.5036 25.3676ZM69.3426 21.8146C69.3426 20.9136 68.8156 20.6076 67.6936 20.6076H66.5036V23.0216H68.0336C68.9686 23.0216 69.3426 22.5286 69.3426 21.8146ZM72.0626 20.1656C72.2836 20.1656 72.2836 20.1656 72.2836 20.4036V25.1636H75.0036C75.2416 25.1636 75.2416 25.1636 75.2416 25.3846C75.2416 25.6056 75.2416 25.6056 75.0036 25.6056H72.3006C71.8416 25.6056 71.8416 25.6056 71.8416 25.1466V20.3866C71.8416 20.1656 71.8416 20.1656 72.0626 20.1656ZM77.1456 20.1656C77.3666 20.1656 77.3666 20.1656 77.3666 20.4036V25.3676C77.3666 25.6056 77.3666 25.6056 77.1456 25.6056C76.9246 25.6056 76.9246 25.6056 76.9246 25.3676V20.3866C76.9246 20.1656 76.9246 20.1656 77.1456 20.1656ZM82.2456 20.5226L83.9966 25.2826C84.0136 25.3336 84.0306 25.3846 84.0476 25.4356C84.0476 25.4866 84.0136 25.5036 83.8776 25.5546C83.8096 25.5886 83.7586 25.6056 83.6906 25.6056C83.6566 25.6056 83.6396 25.5886 83.6056 25.4866L82.9426 23.6676H80.3416L79.6786 25.4866C79.6446 25.5886 79.6276 25.6056 79.5936 25.6056C79.5426 25.5886 79.4746 25.5886 79.4236 25.5546C79.2876 25.5036 79.2366 25.4866 79.2366 25.4356C79.2366 25.4016 79.2536 25.3506 79.2706 25.3166L81.0386 20.5056C81.1746 20.1486 81.1746 20.1486 81.6676 20.1486C82.1606 20.1486 82.1096 20.1656 82.2456 20.5226ZM81.3616 20.7946L80.4776 23.2256H82.7556L81.8716 20.7946C81.8036 20.6076 81.8036 20.6076 81.6166 20.6076C81.4296 20.5906 81.4296 20.5906 81.3616 20.7946ZM86.6486 20.3186L89.6916 25.1466H89.7086C89.6916 24.4156 89.6916 22.6816 89.6916 21.4066V20.3866C89.6916 20.1486 89.6916 20.1486 89.9126 20.1486C90.1336 20.1486 90.1336 20.1486 90.1336 20.3866V25.3846C90.1336 25.6056 90.1336 25.6056 89.8106 25.6056C89.4536 25.6056 89.4536 25.6056 89.3346 25.4186L86.3256 20.6076H86.3086C86.3256 21.1856 86.3256 22.7156 86.3256 23.8376V25.3846C86.3256 25.6226 86.3256 25.6226 86.1046 25.6226C85.8836 25.6226 85.8836 25.6226 85.8836 25.3846V20.3866C85.8836 20.1826 85.8836 20.1826 86.2746 20.1826C86.5636 20.1656 86.5636 20.1656 86.6486 20.3186ZM96.4916 21.4236C96.5086 21.4576 96.5086 21.4916 96.5256 21.5256C96.5256 21.5596 96.4916 21.5766 96.3726 21.6446C96.3216 21.6786 96.2536 21.6956 96.1856 21.7126C96.1516 21.7126 96.1346 21.6786 96.1006 21.5936C95.8456 20.9646 95.2166 20.5566 94.5366 20.5566C93.6016 20.5566 92.8366 21.3046 92.8196 22.2396C92.7856 22.6646 92.7856 23.1066 92.8196 23.5316C92.8366 24.4666 93.6016 25.2316 94.5366 25.2316C95.2166 25.2316 95.8116 24.8406 96.0666 24.2116C96.1176 24.1096 96.1176 24.0586 96.1856 24.0586C96.2366 24.0586 96.3046 24.0756 96.3556 24.0926C96.5086 24.1436 96.5426 24.1436 96.5426 24.2116C96.5426 24.2626 96.5256 24.3136 96.5086 24.3476C96.1856 25.1466 95.4206 25.6736 94.5536 25.6736C93.3636 25.6736 92.3946 24.7046 92.3946 23.5146C92.3606 23.0896 92.3606 22.6646 92.3946 22.2566C92.4116 21.0666 93.3806 20.1146 94.5536 20.1146C95.4036 20.0976 96.1686 20.6246 96.4916 21.4236ZM101.983 20.3866C101.983 20.6076 101.983 20.6076 101.745 20.6076H99.0246V22.6476H101.694C101.949 22.6476 101.949 22.6476 101.949 22.8686C101.949 23.0896 101.949 23.0896 101.694 23.0896H99.0246V25.1466H101.762C102 25.1466 102 25.1466 102 25.3676C102 25.6056 102 25.6056 101.762 25.6056H99.0076C98.5656 25.6056 98.5656 25.6056 98.5656 25.1636V20.6076C98.5656 20.1656 98.5656 20.1656 99.0076 20.1656H101.745C101.983 20.1656 101.983 20.1656 101.983 20.3866Z" fill="#CDCAD5"/>
<path d="M36.9408 17.1561C36.8388 15.1161 35.1048 13.5521 33.0648 13.6541C31.1778 13.7561 29.6648 15.2691 29.5628 17.1561C29.4778 18.0401 29.4778 18.9411 29.5628 19.8421C29.6648 21.8821 31.3988 23.4461 33.4388 23.3441C35.3258 23.2421 36.8388 21.7291 36.9408 19.8421C37.0258 18.9411 37.0258 18.0401 36.9408 17.1561Z" fill="#CDCAD5"/>
<path d="M33.252 24.1777C30.77 24.1947 28.73 22.2567 28.611 19.7747C28.543 18.9077 28.543 18.0407 28.611 17.1907C28.73 14.7087 30.77 12.7707 33.252 12.7877C35.003 12.7707 36.618 13.7567 37.4 15.3377C35.428 5.08669 25.5 -1.62832 15.249 0.343682C8.44901 1.65268 2.907 6.58269 0.799001 13.1787L4.53901 23.0557C4.60701 23.2257 4.60701 23.2257 4.74301 23.2257C4.87901 23.2257 4.87901 23.2257 4.94701 23.0557L8.68701 13.1447C8.77201 12.9237 8.82301 12.8217 8.89101 12.8217C9.01001 12.8387 9.14601 12.8727 9.26501 12.9237C9.60501 13.0427 9.65601 13.0597 9.65601 13.1787C9.63901 13.2977 9.60501 13.4167 9.55401 13.5357L6.25601 22.2737C5.59301 24.0417 5.59301 24.0417 4.74301 24.0417C3.893 24.0417 3.91 24.0417 3.23 22.2737L0.391 14.7937C0.136 16.0347 0 17.3097 0 18.5677C0 28.8187 8.43201 37.1147 18.836 37.1147C27.999 37.1657 35.87 30.5867 37.434 21.5427C36.686 23.1747 35.037 24.2117 33.252 24.1777ZM12.427 23.5657C12.427 24.0417 12.427 24.0417 11.951 24.0417C11.475 24.0417 11.475 24.0417 11.475 23.5657V13.3997C11.475 12.9237 11.475 12.9237 11.951 12.9237C12.427 12.9237 12.427 12.9237 12.427 13.3997V23.5657ZM23.443 23.3617C23.528 23.4637 23.562 23.4977 23.562 23.5657C23.562 23.6507 23.528 23.6847 23.29 23.8887C23.052 24.0927 23.001 24.1097 22.933 24.1097C22.865 24.1097 22.814 24.0587 22.712 23.9397L19.023 19.2477L15.351 23.9227C15.249 24.0417 15.181 24.1097 15.113 24.1097C15.011 24.1097 14.977 24.0587 14.773 23.8887C14.535 23.6847 14.501 23.6337 14.501 23.5657C14.518 23.4807 14.552 23.4127 14.62 23.3617L18.445 18.4997L14.586 13.6207C14.518 13.5187 14.467 13.4677 14.467 13.3997C14.467 13.3147 14.501 13.2807 14.739 13.0767C14.977 12.8727 14.994 12.8557 15.096 12.8557C15.198 12.8557 15.266 12.9747 15.334 13.0427L19.023 17.7517L22.763 13.0257C22.865 12.8897 22.899 12.8557 22.984 12.8557C23.052 12.8557 23.086 12.8897 23.324 13.0767C23.579 13.2807 23.596 13.3317 23.596 13.3997C23.596 13.4847 23.562 13.5527 23.511 13.6037L19.618 18.4997L23.443 23.3617ZM26.571 23.5657C26.571 24.0417 26.571 24.0417 26.095 24.0417C25.619 24.0417 25.619 24.0417 25.619 23.5657V13.3997C25.619 12.9237 25.619 12.9237 26.095 12.9237C26.571 12.9237 26.571 12.9237 26.571 13.3997V23.5657Z" fill="#CDCAD5"/>
</svg>
