<svg width="71" height="34" viewBox="0 0 71 34" fill="none" xmlns="http://www.w3.org/2000/svg">
<path d="M21.8356 10.4396H26.3223V11.9007H24.188V22.1673H21.8356V10.4396ZM28.9823 17.7646L29.3854 11.9007H29.5205L29.9236 17.7646H28.9823ZM26.3773 22.1673H28.6805L28.8983 19.0527H30.0075L30.2264 22.1673H32.5285L31.3018 10.4396H27.604L26.3773 22.1673ZM35.8975 18.0626V20.2735C35.8975 20.5716 36.1289 20.6581 36.264 20.6581C36.4858 20.6581 36.6401 20.4754 36.6401 20.2735V17.5436C36.6401 17.1783 36.5725 16.7746 35.6949 16.7746H34.7401V15.4865H35.7335C36.399 15.4865 36.6401 15.3327 36.6401 14.6117V12.2853C36.6401 12.0834 36.4858 11.9007 36.2639 11.9007C36.1289 11.9007 35.8975 11.9776 35.8975 12.2853V14.1982H33.5441V12.5352C33.5441 11.7181 33.6405 10.4396 35.2897 10.4396H37.2379C38.8872 10.4396 38.9933 11.7181 38.9933 12.5352V14.4096C38.9933 15.6882 38.0963 16.0343 37.3923 16.0054V16.1208C38.974 16.0824 38.9933 17.2935 38.9933 17.7069V20.0717C38.9933 20.8984 38.8872 22.1673 37.2379 22.1673H35.2897C33.6405 22.1673 33.5441 20.8983 33.5441 20.0716V18.0626H35.8975ZM40.5365 10.4396H45.9857V22.1673H43.6324V11.9007H42.8898V22.1673H40.5365V10.4396ZM49.8821 16.8899V11.9008H50.1908C50.4415 11.9008 50.6247 12.1122 50.6247 12.4872V16.3034C50.6247 16.6784 50.4415 16.8898 50.1907 16.8898L49.8821 16.8899ZM47.5288 22.1673H49.8821V18.1779H51.2322C52.8719 18.1779 52.978 16.909 52.978 16.0823V12.5352C52.978 11.7181 52.8719 10.4396 51.2323 10.4396H47.5288V22.1673ZM57.617 20.2735C57.617 20.4754 57.4627 20.6581 57.2409 20.6581C57.1058 20.6581 56.8744 20.5716 56.8744 20.2735V12.2853C56.8744 11.9776 57.1059 11.9007 57.2409 11.9007C57.4627 11.9007 57.617 12.0834 57.617 12.2853V20.2735ZM54.5211 20.0717C54.5211 20.8984 54.6272 22.1673 56.2668 22.1673H58.2247C59.8642 22.1673 59.9703 20.8983 59.9703 20.0716V12.5352C59.9703 11.7181 59.8643 10.4396 58.2247 10.4396H56.2668C54.6273 10.4396 54.5211 11.7181 54.5211 12.5352V20.0717ZM67.6282 10.4396H70.6951V22.1673H68.3419V14.8135H68.255L67.0398 22.1673H65.1591L63.9535 14.8135H63.8668V22.1673H61.5135V10.4396H64.5708L66.1043 18.6874L67.6282 10.4396ZM18.786 6.11384C18.0656 2.97042 16.26 0.413439 16.0112 0C15.6177 0.586335 14.1778 2.84549 13.4458 5.34476C12.6462 8.14208 12.5286 10.6222 12.8045 13.0542C13.0784 15.4959 14.1132 18.0049 14.1132 18.0049C14.663 19.3123 15.4866 20.7253 16.0229 21.4175C16.8088 20.3986 18.6153 17.3608 19.1785 13.4003C19.492 11.1894 19.5055 9.25726 18.786 6.11384V6.11384ZM16.0112 20.6293C15.6573 19.9659 15.1075 18.7066 15.0554 16.7456C15.0419 14.8615 15.801 13.2369 16.0229 12.9005C16.2205 13.237 16.8744 14.65 16.9526 16.5822C17.0056 18.4663 16.3768 19.9562 16.0112 20.6293ZM18.5767 11.4489C18.5497 12.6505 18.406 13.9194 18.2227 14.6789C18.2883 13.3715 18.1312 11.5355 17.8302 10.0936C17.5293 8.66118 16.6776 6.25804 15.9978 5.1525C15.3699 6.20997 14.5964 8.28628 14.1913 10.0839C13.7843 11.8815 13.7728 14.0636 13.7728 14.7173C13.6647 14.1693 13.3947 12.1988 13.4708 10.2281C13.5346 8.60358 13.9164 6.92134 14.1257 6.15227C14.9243 3.58566 15.828 1.94185 15.9977 1.68224C16.1675 1.94185 17.3055 3.97019 17.8958 6.09457C18.4832 8.21905 18.6018 10.2569 18.5767 11.449" fill="#CDCAD5"/>
<path d="M17.2329 22.1479H11.7558V25.8104C11.7606 25.8104 11.7645 25.8008 11.7693 25.8008C13.0597 24.5127 15.1527 24.5127 16.444 25.8008C17.7345 27.0793 17.7345 29.1653 16.444 30.4535C16.4382 30.463 16.4324 30.463 16.4267 30.4726C16.4199 30.4726 16.4132 30.4823 16.4074 30.4919C15.1198 31.7608 13.4378 32.3952 11.7558 32.3952C10.0661 32.3952 8.37631 31.7608 7.08783 30.4726C4.81551 28.2136 4.54642 24.7049 6.2786 22.1479C6.5164 21.7961 6.78738 21.4678 7.08783 21.1674C8.37631 19.8793 10.0661 19.2448 11.7558 19.2448V10.4395C5.26305 10.4395 0 15.6784 0 22.1479C0 28.6174 5.26305 33.866 11.7558 33.866C15.141 33.866 18.1907 32.4336 20.3356 30.1554V22.1479H17.2329ZM70.6948 25.5935H21.8354V33.866H70.6948V25.5935ZM66.4698 31.3686H67.0898V30.1199H66.4698V31.3686ZM66.4698 29.1834H67.4079L68.0359 29.4956L68.1908 29.8078L68.3459 30.4321V30.7442C68.3296 32.9807 66.8859 32.162 65.3688 32.3052V27.1543H66.4698V29.1834ZM58.3218 27.1543V28.0908H57.5387V32.3052H56.2908V28.0908H55.5078V27.1543H58.3218ZM46.8948 30.9004H47.0497L47.3597 30.7442V28.5591H46.8948V30.9004ZM45.6387 28.5592H45.1656V30.7442L45.4836 30.9004H45.6387V28.5592ZM46.8948 27.1543V27.6226H47.6778L48.1427 27.9347L48.4608 28.2469L48.6157 28.8713V30.5882L48.4609 31.2126L48.1427 31.5247L47.6778 31.8368H46.8948V32.3051H45.6387V31.8368H44.8557L44.3827 31.5247L44.0727 31.2126L43.9178 30.5882V28.8713L44.0726 28.2469L44.3827 27.9347L44.8557 27.6226H45.6387V27.1543H46.8948ZM36.7125 27.1543V28.0908H35.7729V29.1834H36.7125V30.1199H35.7729V31.3686H36.8691V32.3051H34.5201V27.1543H36.7125ZM25.4372 29.1834H26.0636V27.1543H27.1598V32.3052H26.0636V30.1199H25.4372V32.3052H24.1844V27.1543H25.4372V29.1834Z" fill="#CDCAD5"/>
</svg>
