<svg width="102" height="49" viewBox="0 0 102 49" fill="none" xmlns="http://www.w3.org/2000/svg">
<path d="M31.5047 15.0624H37.9782V17.1706H34.8988V31.9834H31.5047V15.0624ZM41.8161 25.6311L42.3978 17.1706H42.5926L43.1743 25.6311H41.8161ZM38.0575 31.9834H41.3806L41.6949 27.4896H43.2953L43.6111 31.9834H46.9327L45.1627 15.0624H39.8275L38.0575 31.9834ZM51.7935 26.0611V29.251C51.7935 29.6811 52.1274 29.8059 52.3222 29.8059C52.6422 29.8059 52.8649 29.5424 52.8649 29.251V25.3123C52.8649 24.7852 52.7675 24.2027 51.5012 24.2027H50.1235V22.3442H51.5568C52.517 22.3442 52.8649 22.1223 52.8649 21.082V17.7254C52.8649 17.4341 52.6422 17.1706 52.3221 17.1706C52.1274 17.1706 51.7935 17.2815 51.7935 17.7254V20.4855H48.3979V18.0861C48.3979 16.9071 48.5371 15.0624 50.9165 15.0624H53.7275C56.1071 15.0624 56.2602 16.9071 56.2602 18.0861V20.7905C56.2602 22.6352 54.966 23.1346 53.9502 23.0929V23.2594C56.2323 23.204 56.2602 24.9514 56.2602 25.5479V28.9599C56.2602 30.1526 56.1071 31.9834 53.7275 31.9834H50.9165C48.5371 31.9834 48.3979 30.1525 48.3979 28.9597V26.0611H51.7935ZM58.4868 15.0624H66.349V31.9834H62.9536V17.1706H61.8821V31.9834H58.4868V15.0624ZM71.9708 24.369V17.1708H72.4162C72.7779 17.1708 73.0423 17.4757 73.0423 18.0168V23.5229C73.0423 24.064 72.7779 24.3689 72.416 24.3689L71.9708 24.369ZM68.5754 31.9834H71.9708V26.2275H73.9188C76.2845 26.2275 76.4376 24.3967 76.4376 23.2038V18.0861C76.4376 16.9071 76.2845 15.0624 73.9189 15.0624H68.5754V31.9834ZM83.1309 29.251C83.1309 29.5424 82.9082 29.8059 82.5882 29.8059C82.3933 29.8059 82.0595 29.6811 82.0595 29.251V17.7254C82.0595 17.2815 82.3934 17.1706 82.5882 17.1706C82.9082 17.1706 83.1309 17.4341 83.1309 17.7254V29.251ZM78.6641 28.9599C78.6641 30.1526 78.817 31.9834 81.1828 31.9834H84.0076C86.3732 31.9834 86.5263 30.1525 86.5263 28.9597V18.0861C86.5263 16.9071 86.3733 15.0624 84.0076 15.0624H81.1828C78.8172 15.0624 78.6641 16.9071 78.6641 18.0861V28.9599ZM97.5751 15.0624H102V31.9834H98.6049V21.3732H98.4796L96.7262 31.9834H94.0127L92.2733 21.3732H92.1481V31.9834H88.7527V15.0624H93.1639L95.3764 26.9626L97.5751 15.0624ZM27.1046 8.82117C26.0653 4.28578 23.4602 0.596518 23.1012 0C22.5334 0.845976 20.4559 4.10553 19.3997 7.71154C18.2461 11.7476 18.0763 15.3259 18.4745 18.8349C18.8696 22.3578 20.3626 25.9779 20.3626 25.9779C21.1559 27.8642 22.3442 29.9029 23.118 30.9016C24.2519 29.4315 26.8584 25.0485 27.671 19.3343C28.1233 16.1442 28.1428 13.3566 27.1046 8.82117ZM23.1012 29.7643C22.5906 28.8073 21.7973 26.9902 21.7221 24.1608C21.7026 21.4425 22.7978 19.0984 23.118 18.6131C23.4032 19.0986 24.3466 21.1373 24.4593 23.9251C24.5358 26.6436 23.6286 28.7932 23.1012 29.7643ZM26.8028 16.5187C26.7638 18.2525 26.5564 20.0833 26.292 21.179C26.3866 19.2927 26.1599 16.6436 25.7256 14.5632C25.2915 12.4965 24.0627 9.02923 23.0818 7.43413C22.1759 8.95987 21.0598 11.9556 20.4754 14.5493C19.8881 17.1428 19.8715 20.2913 19.8715 21.2344C19.7155 20.4438 19.3259 17.6006 19.4359 14.7574C19.5278 12.4134 20.0787 9.98625 20.3808 8.87662C21.5329 5.17346 22.8368 2.80174 23.0817 2.42717C23.3267 2.80174 24.9686 5.72827 25.8202 8.79337C26.6678 11.8586 26.8389 14.7989 26.8028 16.5188" fill="#CDCAD5"/>
<path d="M24.864 31.9557H16.9614V37.2401C16.9685 37.2401 16.974 37.2262 16.9809 37.2262C18.8428 35.3677 21.8626 35.3677 23.7258 37.2262C25.5877 39.0709 25.5877 42.0805 23.7258 43.9391C23.7174 43.9529 23.709 43.9529 23.7008 43.9668C23.691 43.9668 23.6813 43.9807 23.6729 43.9946C21.8152 45.8254 19.3884 46.7407 16.9614 46.7407C14.5236 46.7407 12.0855 45.8254 10.2265 43.9668C6.94791 40.7074 6.55967 35.645 9.05889 31.9557C9.40199 31.4482 9.79297 30.9744 10.2265 30.541C12.0855 28.6826 14.5236 27.7671 16.9614 27.7671V15.0625C7.59364 15.0625 0 22.6214 0 31.9557C0 41.29 7.59364 48.8628 16.9614 48.8628C21.8458 48.8628 26.2459 46.7962 29.3406 43.5091V31.9557H24.864ZM102 36.9271H31.5045V48.8628H102V36.9271ZM95.9041 45.2595H96.7986V43.4579H95.9041V45.2595ZM95.9041 42.1067H97.2575L98.1637 42.5572L98.3871 43.0075L98.6108 43.9083V44.3587C98.5873 47.5855 96.5044 46.4043 94.3154 46.6108V39.1791H95.9041V42.1067ZM84.1479 39.1791V40.5303H83.0181V46.6108H81.2175V40.5303H80.0879V39.1791H84.1479ZM67.6607 44.5839H67.8843L68.3315 44.3587V41.2058H67.6607V44.5839ZM65.8485 41.206H65.1659V44.3587L65.6247 44.5839H65.8485V41.206ZM67.6607 39.1791V39.8547H68.7905L69.4613 40.305L69.9202 40.7555L70.1438 41.6563V44.1336L69.9203 45.0344L69.4613 45.4848L68.7905 45.9351H67.6607V46.6107H65.8485V45.9351H64.7187L64.0362 45.4848L63.589 45.0344L63.3654 44.1336V41.6563L63.5889 40.7555L64.0362 40.305L64.7187 39.8547H65.8485V39.1791H67.6607ZM52.9695 39.1791V40.5303H51.6139V42.1067H52.9695V43.4579H51.6139V45.2595H53.1955V46.6107H49.8063V39.1791H52.9695ZM36.7013 42.1067H37.6051V39.1791H39.1868V46.6108H37.6051V43.4579H36.7013V46.6108H34.8937V39.1791H36.7013V42.1067Z" fill="#CDCAD5"/>
</svg>
