<svg width="104" height="32" viewBox="0 0 104 32" fill="none" xmlns="http://www.w3.org/2000/svg">
<path fill-rule="evenodd" clip-rule="evenodd" d="M70.6061 22.65C77.6394 22.65 83.3411 17.5796 83.3411 11.325C83.3411 5.07037 77.6394 0 70.6061 0C63.5727 0 57.8711 5.07037 57.8711 11.325C57.8711 17.5796 63.5727 22.65 70.6061 22.65ZM25.6448 1.58392V11.5443V21.536C25.6448 21.5803 25.6441 21.6186 25.6435 21.6517C25.6415 21.7572 25.6405 21.8104 25.6666 21.8369C25.6932 21.8638 25.7479 21.8631 25.8584 21.8615C25.8882 21.8611 25.922 21.8607 25.9605 21.8607H39.0709C39.0904 21.8607 39.1098 21.8604 39.1289 21.8602C39.1667 21.8597 39.2039 21.8592 39.241 21.8607C39.3305 21.8652 39.3776 21.8293 39.3731 21.7353C39.3716 21.6964 39.3721 21.6585 39.3726 21.6209C39.3728 21.6023 39.3731 21.5837 39.3731 21.5651C39.3731 21.2055 39.3733 20.8457 39.3736 20.4857C39.3741 19.7656 39.3746 19.0451 39.3731 18.3256C39.3731 18.3024 39.3733 18.2809 39.3735 18.2612C39.3737 18.251 39.3738 18.2413 39.3739 18.2321C39.3754 18.1324 39.3762 18.0813 39.351 18.0554C39.3246 18.0281 39.2694 18.0286 39.1563 18.0296H39.1561C39.1319 18.0298 39.1051 18.0301 39.0753 18.0301H30.053C30.0334 18.0301 30.0141 18.0296 29.9949 18.0291C29.9571 18.0281 29.92 18.0271 29.8828 18.0301C29.7642 18.0413 29.697 18.0032 29.7127 17.8711C29.7157 17.8384 29.7147 17.8066 29.7137 17.7745C29.7132 17.7583 29.7127 17.7421 29.7127 17.7256C29.7127 17.2823 29.7124 16.839 29.7122 16.3957C29.7117 15.5092 29.7112 14.6226 29.7127 13.736C29.7127 13.6918 29.7118 13.6536 29.7111 13.6206V13.6205C29.7089 13.5222 29.7077 13.4698 29.7332 13.442C29.7624 13.4103 29.8265 13.4106 29.9638 13.4112L30.0329 13.4114H39.1268C39.3686 13.4114 39.3709 13.4092 39.3709 13.1786V9.81818C39.3709 9.58314 39.3709 9.58313 39.1335 9.58089H39.0126H30.0149C29.9942 9.58089 29.9732 9.58064 29.9521 9.58039H29.952C29.9093 9.57989 29.8658 9.57938 29.8224 9.58089C29.7373 9.58313 29.7082 9.53835 29.7127 9.45997C29.7142 9.4211 29.7137 9.38323 29.7132 9.34569V9.34562L29.7132 9.34537C29.7129 9.3268 29.7127 9.30831 29.7127 9.28982C29.7127 8.85692 29.7124 8.42426 29.7122 7.99168C29.7117 7.12677 29.7112 6.26217 29.7127 5.39657C29.7127 5.35992 29.7121 5.32763 29.7117 5.29919C29.71 5.20065 29.7091 5.14822 29.7348 5.12043C29.764 5.08883 29.8277 5.08911 29.9638 5.08969L30.0284 5.08987H39.0507C39.0714 5.08987 39.0924 5.08962 39.1136 5.08938C39.1563 5.08888 39.1998 5.08837 39.2432 5.08987C39.335 5.09434 39.3753 5.0518 39.3709 4.96002C39.3694 4.92112 39.3699 4.88323 39.3704 4.84567C39.3706 4.82702 39.3709 4.80844 39.3709 4.78987V1.55034C39.3709 1.52317 39.3711 1.49848 39.3712 1.47605C39.3721 1.36206 39.3726 1.30633 39.3449 1.27951C39.3185 1.25385 39.2664 1.25463 39.1645 1.25616C39.1365 1.25658 39.1047 1.25706 39.0686 1.25706H25.9582C25.9189 1.25706 25.8845 1.25653 25.8542 1.25606C25.7475 1.25441 25.6939 1.25358 25.6675 1.27996C25.6408 1.30656 25.6417 1.36084 25.6436 1.46986C25.6442 1.50268 25.6448 1.54045 25.6448 1.58392ZM85.9759 1.28859C90.3056 5.18632 94.6176 9.06615 98.9429 12.9572C98.992 12.88 98.9875 12.8097 98.9832 12.7431C98.9821 12.7246 98.9809 12.7065 98.9809 12.6885C98.982 10.8393 98.982 8.99002 98.982 7.1405C98.982 5.29098 98.982 3.44118 98.983 1.59082C98.983 1.55284 98.9826 1.51925 98.9823 1.48956C98.9808 1.37355 98.9801 1.31695 99.008 1.28968C99.0346 1.2637 99.0873 1.26435 99.19 1.26562C99.2219 1.26601 99.2586 1.26646 99.3009 1.2662C100.064 1.2647 100.828 1.2652 101.591 1.2657C101.973 1.26595 102.354 1.2662 102.735 1.2662H102.832C102.945 1.2673 103.003 1.26786 103.032 1.29695C103.062 1.32699 103.062 1.38742 103.062 1.51023V1.6065V21.5026V21.8452C98.7102 17.9362 94.4025 14.0676 90.0798 10.1878C90.0339 10.2688 90.038 10.3415 90.0419 10.4092C90.0429 10.4275 90.0439 10.4455 90.0439 10.4632C90.0426 12.2981 90.0426 14.1329 90.0426 15.9675C90.0426 17.7995 90.0426 19.6312 90.0413 21.4623C90.0413 21.5136 90.0422 21.5574 90.0429 21.5949C90.0452 21.7063 90.0463 21.7615 90.0193 21.7883C89.9927 21.8146 89.9388 21.8134 89.832 21.8111C89.795 21.8103 89.7517 21.8093 89.701 21.8093C88.9323 21.8108 88.1639 21.8103 87.3953 21.8098C87.0111 21.8096 86.6268 21.8093 86.2424 21.8093C86.2237 21.8093 86.205 21.8091 86.1863 21.8088C86.1487 21.8083 86.1108 21.8078 86.0722 21.8093C85.9802 21.8138 85.9379 21.7758 85.9422 21.6817C85.9436 21.6446 85.9432 21.6074 85.9427 21.5696L85.9424 21.5416L85.9422 21.5116V1.5662C85.9427 1.55024 85.9423 1.53396 85.9419 1.51701C85.9406 1.45551 85.939 1.38512 85.9759 1.28859ZM0.154948 1.39566C0.114672 1.34945 0.0737677 1.30253 0 1.30424C0 8.1527 0 15.0034 0.00223649 21.8586C0.0686611 21.8365 0.13638 21.8389 0.203424 21.8414H0.20344H0.203484H0.203528H0.203572H0.203616C0.224637 21.8421 0.245591 21.8429 0.266419 21.8429H3.797L3.83878 21.843C3.99096 21.8432 4.05925 21.8433 4.08906 21.8095C4.11332 21.782 4.11209 21.732 4.10985 21.6412C4.10908 21.6099 4.10818 21.5736 4.10818 21.5317V11.4504V11.1504C4.13794 11.1782 4.16456 11.2029 4.18887 11.2254L4.18916 11.2256L4.18929 11.2258L4.18955 11.226C4.24723 11.2794 4.29186 11.3207 4.3343 11.3631C6.21396 13.2428 8.09572 15.1224 9.97753 17.0021L9.97768 17.0022L9.97782 17.0024L9.97797 17.0025L9.97812 17.0027L10.1148 17.1392C10.1423 17.1667 10.1658 17.191 10.1863 17.2122C10.2554 17.2836 10.2899 17.3192 10.3243 17.3192C10.3585 17.3191 10.3928 17.2838 10.461 17.2132L10.461 17.2132C10.4812 17.1923 10.5043 17.1684 10.5313 17.1415C11.4776 16.1962 12.4234 15.2509 13.3693 14.3057L13.3693 14.3057L13.3693 14.3056L13.3693 14.3056L13.3693 14.3056C14.3388 13.3367 15.3083 12.3678 16.2783 11.399C16.2929 11.3843 16.3071 11.369 16.3213 11.3536C16.3721 11.2985 16.4239 11.2424 16.5044 11.2109C16.5393 11.2894 16.5361 11.3652 16.533 11.4393L16.533 11.4394C16.5321 11.4604 16.5312 11.4812 16.5312 11.502V21.5093L16.5315 21.5363L16.5322 21.5722C16.5332 21.615 16.5342 21.6584 16.5312 21.7019C16.5267 21.8093 16.5805 21.8452 16.679 21.8384C16.7059 21.8369 16.7327 21.8374 16.7596 21.8379L16.7766 21.8382L16.7999 21.8384H20.3551C20.3716 21.8384 20.3878 21.8382 20.404 21.8379C20.4361 21.8374 20.4679 21.8369 20.5006 21.8384C20.579 21.8407 20.6193 21.8049 20.617 21.7242C20.6155 21.6974 20.616 21.6706 20.6165 21.6437V21.6437C20.6168 21.6302 20.617 21.6168 20.617 21.6034C20.617 19.3713 20.6173 17.1392 20.6175 14.9071C20.618 10.443 20.6185 5.97884 20.617 1.51469C20.617 1.50145 20.618 1.48774 20.6191 1.47384C20.6227 1.42662 20.6265 1.37709 20.5901 1.33559C20.5305 1.36043 20.493 1.4012 20.4566 1.44067L20.4566 1.44071L20.4565 1.44074C20.4438 1.45461 20.4311 1.46831 20.4178 1.48111L19.3029 2.58931C16.4459 5.43761 13.5866 8.28589 10.7274 11.1342L10.5335 11.3273C10.5025 11.3583 10.4764 11.3855 10.454 11.4089C10.3852 11.4804 10.3506 11.5164 10.3159 11.5165C10.2809 11.5166 10.2457 11.4802 10.1749 11.4069C10.1533 11.3845 10.1284 11.3588 10.0992 11.3296C8.5901 9.82271 7.08158 8.31586 5.57308 6.80901L5.57304 6.80898L5.57301 6.80894L5.57297 6.80891L5.57294 6.80887C4.04234 5.27996 2.51175 3.75106 0.98059 2.22215L0.78478 2.02606L0.784774 2.02605L0.784716 2.02599C0.587955 1.82881 0.390877 1.63131 0.192539 1.43633C0.179457 1.42378 0.167232 1.40975 0.154948 1.39566ZM75.5097 28.6021C75.5097 27.6327 74.7751 26.9543 73.5798 26.9543V26.9521H72.0977V31.4275H72.7873V30.2521H73.4904C73.9516 30.2656 74.1105 30.3618 74.4685 30.917L74.7997 31.4275H75.5723L75.1582 30.7894C74.8847 30.3596 74.6787 30.1357 74.4551 30.0282C75.0998 29.8044 75.5097 29.3118 75.5097 28.6021ZM73.6381 29.6073H72.7873V27.6081H73.6381C74.3074 27.6081 74.858 27.9282 74.858 28.6043C74.858 29.3073 74.3096 29.6073 73.6381 29.6073ZM3.01171 28.8464V29.5001H0.7953V31.4299H0.103516V26.9546H3.01171V27.6083H0.7953V28.8464H3.01171ZM10.8236 31.4272H11.5512L9.31464 26.9653L7.07812 31.4272H7.80569L8.22662 30.5877H10.4027L10.8236 31.4272ZM8.55123 29.9385L9.31245 28.4206L10.0759 29.9385H8.55123ZM19.0167 27.6866C18.6093 27.25 18.0025 26.9612 17.3824 26.9612V26.959H17.3264C16.4689 26.9657 15.7615 27.456 15.7615 28.244C15.7615 28.9582 16.3257 29.2896 17.1831 29.3903L17.5973 29.4395C18.1369 29.5089 18.4861 29.6701 18.4861 30.1089C18.4861 30.5343 18.0719 30.7918 17.5033 30.7985H17.472C16.7712 30.7985 16.2943 30.4649 16.0951 30.1023L15.6562 30.5097C15.963 31.0224 16.5943 31.4298 17.472 31.4298H17.5033C18.4301 31.4231 19.1622 30.9239 19.1622 30.1089C19.1622 29.256 18.5667 28.9202 17.6846 28.8127L17.2704 28.7634C16.7578 28.6962 16.4376 28.5642 16.4376 28.2261C16.4376 27.7739 16.9458 27.5925 17.3264 27.5925H17.3824C17.7697 27.5925 18.2645 27.7873 18.5779 28.094L19.0167 27.6866ZM26.8339 31.4299V29.5001H24.7764V31.4299H24.0869V26.9546H24.7764V28.8486H26.8339V26.9546H27.5257V31.4299H26.8339ZM33.9786 31.4299V30.7784V27.6083V26.9546H33.2891V27.6083V30.7784H33.2913V31.4299H33.9786ZM43.8123 29.2C43.8123 30.4359 42.8116 31.4321 41.5825 31.4321C40.3511 31.4321 39.3594 30.4381 39.3594 29.2C39.3594 27.9687 40.3534 26.9702 41.5825 26.9702C42.8116 26.968 43.8123 27.9687 43.8123 29.2ZM40.0332 29.2C40.0332 30.1314 40.7138 30.7941 41.5825 30.7941C42.4511 30.7941 43.1385 30.1314 43.1385 29.2C43.1385 28.2754 42.4511 27.606 41.5825 27.606C40.7138 27.606 40.0332 28.2754 40.0332 29.2ZM51.6425 26.9588H51.7832H52.3322V29.8513V31.4184V31.4252V31.4319L49.0297 28.4969V31.4296H48.8797H48.3379V28.5438V26.9565L51.6425 29.9028V26.9588ZM64.6544 28.8463V29.5336H64.961H66.1836C66.0359 30.2791 65.4179 30.7828 64.6614 30.7828C63.7924 30.7828 63.1097 30.1201 63.1097 29.1888C63.1097 28.2642 63.7924 27.5948 64.6614 27.5948C65.2028 27.5948 65.6731 27.8545 65.953 28.2754L66.4993 27.9284C66.0964 27.3441 65.4243 26.959 64.6614 26.959C63.4297 26.959 62.4355 27.9597 62.4355 29.1911C62.4355 30.4291 63.4297 31.4231 64.6614 31.4231C65.8925 31.4231 66.8931 30.4291 66.8931 29.1911C66.8931 29.0826 66.8765 28.9797 66.8598 28.8757L66.8551 28.8463H64.6544ZM85.2378 29.193C85.2378 30.4311 84.2372 31.4251 83.0056 31.4251C81.7744 31.4251 80.7803 30.4311 80.7803 29.193C80.7803 27.9616 81.7744 26.9609 83.0056 26.9609C84.2372 26.9609 85.2378 27.9616 85.2378 29.193ZM81.4566 29.193C81.4566 30.1243 82.1372 30.787 83.0056 30.787C83.8745 30.787 84.5636 30.1243 84.5636 29.193C84.5636 28.2684 83.8766 27.599 83.0056 27.599C82.1372 27.599 81.4566 28.2684 81.4566 29.193ZM92.1797 31.4229C93.1781 31.4229 93.9796 30.7401 93.9796 29.5021H93.9844V26.9565H93.3017V29.4841C93.3017 30.3819 92.8132 30.7804 92.1818 30.7804C91.5553 30.7804 91.0694 30.3819 91.0694 29.4841V26.9565H90.3867V29.5021C90.3867 30.7401 91.1882 31.4229 92.1797 31.4229ZM101.094 26.9565C102.29 26.9565 103.062 27.6349 103.062 28.6379C103.062 29.6476 102.288 30.3192 101.094 30.3192H100.34V31.4319H99.6504V26.9588H101.094V26.9565ZM101.139 29.6722C101.811 29.6722 102.411 29.3722 102.411 28.6356C102.411 27.9259 101.811 27.6058 101.139 27.6058H100.34V29.67H101.139V29.6722ZM44.0186 11.5468V1.56178C44.0186 1.52839 44.0183 1.49861 44.018 1.47206C44.0168 1.35951 44.0162 1.30489 44.0432 1.2788C44.0687 1.2542 44.1186 1.25498 44.2158 1.25648C44.2488 1.257 44.2872 1.25759 44.3321 1.25731C45.1007 1.25581 45.8694 1.25631 46.638 1.25681L46.6386 1.25681C47.0227 1.25706 47.4069 1.25731 47.791 1.25731C47.8096 1.25731 47.8282 1.25755 47.8468 1.2578C47.8844 1.2583 47.9222 1.2588 47.9611 1.25731C48.0529 1.25283 48.0954 1.29089 48.091 1.38492C48.088 1.43276 48.089 1.4816 48.09 1.53011V1.53036C48.0905 1.5544 48.091 1.57836 48.091 1.60208V17.7012C48.091 17.744 48.0903 17.7812 48.0898 17.8135C48.088 17.9213 48.087 17.9751 48.1135 18.0016C48.1398 18.028 48.1931 18.0274 48.2996 18.0263C48.3311 18.026 48.3673 18.0256 48.4089 18.0258C50.3164 18.0273 52.225 18.0268 54.1332 18.0263H54.1335C55.0873 18.0261 56.041 18.0258 56.9944 18.0258C57.0131 18.0258 57.0318 18.0256 57.0505 18.0253C57.0881 18.0249 57.126 18.0244 57.1646 18.0258L57.1648 18.0258C57.346 18.0303 57.3486 18.0304 57.3508 18.2161C57.3529 19.3691 57.3529 20.5199 57.3508 21.6729C57.3508 21.8519 57.346 21.8542 57.156 21.8542C56.9621 21.8557 56.769 21.8552 56.5757 21.8547C56.4789 21.8544 56.3821 21.8542 56.285 21.8542H44.3365C44.2925 21.8542 44.2545 21.8549 44.2217 21.8556C44.1213 21.8576 44.07 21.8587 44.0442 21.8336C44.0173 21.8073 44.0181 21.7526 44.0198 21.6407C44.0203 21.6086 44.0209 21.5718 44.0209 21.5296C44.0186 18.2083 44.0186 14.8849 44.0186 11.5637V11.5468Z" fill="#CDCAD5"/>
</svg>
