<svg width="276" height="151" viewBox="0 0 276 151" fill="none" xmlns="http://www.w3.org/2000/svg">
<path fill-rule="evenodd" clip-rule="evenodd" d="M156.606 82.65C163.639 82.65 169.341 77.5796 169.341 71.325C169.341 65.0704 163.639 60 156.606 60C149.573 60 143.871 65.0704 143.871 71.325C143.871 77.5796 149.573 82.65 156.606 82.65ZM111.645 61.5839V71.5443V81.536C111.645 81.5803 111.644 81.6186 111.643 81.6517C111.641 81.7572 111.641 81.8104 111.667 81.8369C111.693 81.8638 111.748 81.8631 111.858 81.8615C111.888 81.8611 111.922 81.8607 111.96 81.8607H125.071C125.09 81.8607 125.11 81.8604 125.129 81.8602C125.167 81.8597 125.204 81.8592 125.241 81.8607C125.331 81.8652 125.378 81.8293 125.373 81.7353C125.372 81.6964 125.372 81.6585 125.373 81.6209C125.373 81.6023 125.373 81.5837 125.373 81.5651C125.373 81.2055 125.373 80.8457 125.374 80.4857C125.374 79.7656 125.375 79.0451 125.373 78.3256C125.373 78.3024 125.373 78.2809 125.374 78.2612C125.374 78.251 125.374 78.2413 125.374 78.2321C125.375 78.1324 125.376 78.0813 125.351 78.0554C125.325 78.0281 125.269 78.0286 125.156 78.0296H125.156C125.132 78.0298 125.105 78.0301 125.075 78.0301H116.053C116.033 78.0301 116.014 78.0296 115.995 78.0291C115.957 78.0281 115.92 78.0271 115.883 78.0301C115.764 78.0413 115.697 78.0032 115.713 77.8711C115.716 77.8384 115.715 77.8066 115.714 77.7745C115.713 77.7583 115.713 77.7421 115.713 77.7256C115.713 77.2823 115.712 76.839 115.712 76.3957C115.712 75.5092 115.711 74.6226 115.713 73.736C115.713 73.6918 115.712 73.6536 115.711 73.6206V73.6205C115.709 73.5222 115.708 73.4698 115.733 73.442C115.762 73.4103 115.827 73.4106 115.964 73.4112L116.033 73.4114H125.127C125.369 73.4114 125.371 73.4092 125.371 73.1786V69.8182C125.371 69.5831 125.371 69.5831 125.134 69.5809H125.013H116.015C115.994 69.5809 115.973 69.5806 115.952 69.5804H115.952C115.909 69.5799 115.866 69.5794 115.822 69.5809C115.737 69.5831 115.708 69.5384 115.713 69.46C115.714 69.4211 115.714 69.3832 115.713 69.3457V69.3456L115.713 69.3454C115.713 69.3268 115.713 69.3083 115.713 69.2898C115.713 68.8569 115.712 68.4243 115.712 67.9917C115.712 67.1268 115.711 66.2622 115.713 65.3966C115.713 65.3599 115.712 65.3276 115.712 65.2992C115.71 65.2007 115.709 65.1482 115.735 65.1204C115.764 65.0888 115.828 65.0891 115.964 65.0897L116.028 65.0899H125.051C125.071 65.0899 125.092 65.0896 125.114 65.0894C125.156 65.0889 125.2 65.0884 125.243 65.0899C125.335 65.0943 125.375 65.0518 125.371 64.96C125.369 64.9211 125.37 64.8832 125.37 64.8457V64.8454V64.8452C125.371 64.8267 125.371 64.8083 125.371 64.7899V61.5503C125.371 61.5232 125.371 61.4985 125.371 61.4761C125.372 61.3621 125.373 61.3063 125.345 61.2795C125.319 61.2538 125.266 61.2546 125.164 61.2562C125.136 61.2566 125.105 61.2571 125.069 61.2571H111.958C111.919 61.2571 111.884 61.2565 111.854 61.2561C111.748 61.2544 111.694 61.2536 111.667 61.28C111.641 61.3066 111.642 61.3608 111.644 61.4699C111.644 61.5027 111.645 61.5404 111.645 61.5839ZM171.976 61.2886C176.306 65.1863 180.618 69.0662 184.943 72.9572C184.992 72.88 184.987 72.8097 184.983 72.7431C184.982 72.7246 184.981 72.7065 184.981 72.6885C184.982 70.8393 184.982 68.99 184.982 67.1405C184.982 65.291 184.982 63.4412 184.983 61.5908C184.983 61.5528 184.983 61.5193 184.982 61.4896C184.981 61.3736 184.98 61.3169 185.008 61.2897C185.035 61.2637 185.087 61.2643 185.19 61.2656C185.222 61.266 185.259 61.2665 185.301 61.2662C186.064 61.2647 186.828 61.2652 187.591 61.2657C187.973 61.266 188.354 61.2662 188.735 61.2662H188.832C188.945 61.2673 189.003 61.2679 189.032 61.297C189.062 61.327 189.062 61.3874 189.062 61.5102V61.6065V81.5026V81.8452C184.71 77.9362 180.402 74.0676 176.08 70.1878C176.034 70.2688 176.038 70.3415 176.042 70.4092C176.043 70.4275 176.044 70.4455 176.044 70.4632C176.043 72.2981 176.043 74.1329 176.043 75.9675C176.043 77.7995 176.043 79.6312 176.041 81.4623C176.041 81.5136 176.042 81.5574 176.043 81.5949C176.045 81.7063 176.046 81.7615 176.019 81.7883C175.993 81.8146 175.939 81.8134 175.832 81.8111C175.795 81.8103 175.752 81.8093 175.701 81.8093C174.932 81.8108 174.164 81.8103 173.395 81.8098C173.011 81.8096 172.627 81.8093 172.242 81.8093C172.224 81.8093 172.205 81.8091 172.186 81.8088C172.149 81.8083 172.111 81.8078 172.072 81.8093C171.98 81.8138 171.938 81.7758 171.942 81.6817C171.944 81.6446 171.943 81.6074 171.943 81.5696L171.942 81.5416L171.942 81.5116V61.5662C171.943 61.5502 171.942 61.534 171.942 61.517C171.941 61.4555 171.939 61.3851 171.976 61.2886ZM86.1549 61.3957C86.1147 61.3495 86.0738 61.3025 86 61.3042C86 68.1527 86 75.0034 86.0022 81.8586C86.0687 81.8365 86.1364 81.8389 86.2034 81.8414H86.2034H86.2035H86.2035H86.2036H86.2036C86.2246 81.8421 86.2456 81.8429 86.2664 81.8429H89.797L89.8388 81.843C89.991 81.8432 90.0592 81.8433 90.0891 81.8095C90.1133 81.782 90.1121 81.732 90.1099 81.6412C90.1091 81.6099 90.1082 81.5736 90.1082 81.5317V71.4504V71.1504C90.1379 71.1782 90.1646 71.2029 90.1889 71.2254L90.1892 71.2256L90.1893 71.2258L90.1896 71.226C90.2472 71.2794 90.2919 71.3207 90.3343 71.3631C92.214 73.2428 94.0957 75.1224 95.9775 77.0021L95.9777 77.0022L95.9778 77.0024L95.978 77.0025L95.9781 77.0027L96.1148 77.1392C96.1423 77.1667 96.1658 77.191 96.1863 77.2122C96.2554 77.2836 96.2899 77.3192 96.3243 77.3192C96.3585 77.3191 96.3928 77.2838 96.461 77.2132L96.461 77.2132C96.4812 77.1923 96.5043 77.1684 96.5313 77.1415C97.4776 76.1962 98.4234 75.2509 99.3693 74.3057L99.3693 74.3057L99.3693 74.3056L99.3693 74.3056L99.3693 74.3056C100.339 73.3367 101.308 72.3678 102.278 71.399C102.293 71.3843 102.307 71.369 102.321 71.3536C102.372 71.2985 102.424 71.2424 102.504 71.2109C102.539 71.2894 102.536 71.3652 102.533 71.4393L102.533 71.4394C102.532 71.4604 102.531 71.4812 102.531 71.502V81.5093L102.531 81.5363L102.532 81.5722C102.533 81.615 102.534 81.6584 102.531 81.7019C102.527 81.8093 102.581 81.8452 102.679 81.8384C102.706 81.8369 102.733 81.8374 102.76 81.8379L102.777 81.8382L102.8 81.8384H106.355C106.372 81.8384 106.388 81.8382 106.404 81.8379C106.436 81.8374 106.468 81.8369 106.501 81.8384C106.579 81.8407 106.619 81.8049 106.617 81.7242C106.616 81.6974 106.616 81.6706 106.617 81.6437V81.6437C106.617 81.6302 106.617 81.6168 106.617 81.6034C106.617 79.3713 106.617 77.1392 106.618 74.9071C106.618 70.443 106.619 65.9788 106.617 61.5147C106.617 61.5014 106.618 61.4877 106.619 61.4738C106.623 61.4266 106.626 61.3771 106.59 61.3356C106.531 61.3604 106.493 61.4012 106.457 61.4407L106.457 61.4407L106.457 61.4407C106.444 61.4546 106.431 61.4683 106.418 61.4811L105.303 62.5893C102.446 65.4376 99.5866 68.2859 96.7274 71.1342L96.5335 71.3273C96.5025 71.3583 96.4764 71.3855 96.454 71.4089C96.3852 71.4804 96.3506 71.5164 96.3159 71.5165C96.2809 71.5166 96.2457 71.4802 96.1749 71.4069C96.1533 71.3845 96.1284 71.3588 96.0992 71.3296C94.5901 69.8227 93.0816 68.3159 91.5731 66.809L91.573 66.809L91.573 66.8089L91.573 66.8089L91.5729 66.8089C90.0423 65.28 88.5118 63.7511 86.9806 62.2221L86.7848 62.0261L86.7848 62.026L86.7847 62.026C86.588 61.8288 86.3909 61.6313 86.1925 61.4363C86.1795 61.4238 86.1672 61.4098 86.1549 61.3957ZM161.51 88.6021C161.51 87.6327 160.775 86.9543 159.58 86.9543V86.9521H158.098V91.4275H158.787V90.2521H159.49C159.952 90.2656 160.111 90.3618 160.468 90.917L160.8 91.4275H161.572L161.158 90.7894C160.885 90.3596 160.679 90.1357 160.455 90.0282C161.1 89.8044 161.51 89.3118 161.51 88.6021ZM159.638 89.6073H158.787V87.6081H159.638C160.307 87.6081 160.858 87.9282 160.858 88.6043C160.858 89.3073 160.31 89.6073 159.638 89.6073ZM89.0117 88.8464V89.5001H86.7953V91.4299H86.1035V86.9546H89.0117V87.6083H86.7953V88.8464H89.0117ZM96.8236 91.4272H97.5512L95.3146 86.9653L93.0781 91.4272H93.8057L94.2266 90.5877H96.4027L96.8236 91.4272ZM94.5512 89.9385L95.3125 88.4206L96.0759 89.9385H94.5512ZM105.017 87.6866C104.609 87.25 104.003 86.9612 103.382 86.9612V86.959H103.326C102.469 86.9657 101.761 87.456 101.761 88.244C101.761 88.9582 102.326 89.2896 103.183 89.3903L103.597 89.4395C104.137 89.5089 104.486 89.6701 104.486 90.1089C104.486 90.5343 104.072 90.7918 103.503 90.7985H103.472C102.771 90.7985 102.294 90.4649 102.095 90.1023L101.656 90.5097C101.963 91.0224 102.594 91.4298 103.472 91.4298H103.503C104.43 91.4231 105.162 90.9239 105.162 90.1089C105.162 89.256 104.567 88.9202 103.685 88.8127L103.27 88.7634C102.758 88.6962 102.438 88.5642 102.438 88.2261C102.438 87.7739 102.946 87.5925 103.326 87.5925H103.382C103.77 87.5925 104.264 87.7873 104.578 88.094L105.017 87.6866ZM112.834 91.4299V89.5001H110.776V91.4299H110.087V86.9546H110.776V88.8486H112.834V86.9546H113.526V91.4299H112.834ZM119.979 91.4299V90.7784V87.6083V86.9546H119.289V87.6083V90.7784H119.291V91.4299H119.979ZM129.812 89.2C129.812 90.4359 128.812 91.4321 127.582 91.4321C126.351 91.4321 125.359 90.4381 125.359 89.2C125.359 87.9687 126.353 86.9702 127.582 86.9702C128.812 86.968 129.812 87.9687 129.812 89.2ZM126.033 89.2C126.033 90.1314 126.714 90.7941 127.582 90.7941C128.451 90.7941 129.138 90.1314 129.138 89.2C129.138 88.2754 128.451 87.606 127.582 87.606C126.714 87.606 126.033 88.2754 126.033 89.2ZM137.642 86.9588H137.783H138.332V89.8513V91.4184V91.4252V91.4319L135.03 88.4969V91.4296H134.88H134.338V88.5438V86.9565L137.642 89.9028V86.9588ZM150.654 88.8463V89.5336H150.961H152.184C152.036 90.2791 151.418 90.7828 150.661 90.7828C149.792 90.7828 149.11 90.1201 149.11 89.1888C149.11 88.2642 149.792 87.5948 150.661 87.5948C151.203 87.5948 151.673 87.8545 151.953 88.2754L152.499 87.9284C152.096 87.3441 151.424 86.959 150.661 86.959C149.43 86.959 148.436 87.9597 148.436 89.1911C148.436 90.4291 149.43 91.4231 150.661 91.4231C151.893 91.4231 152.893 90.4291 152.893 89.1911C152.893 89.0826 152.877 88.9797 152.86 88.8757L152.855 88.8463H150.654ZM171.238 89.193C171.238 90.4311 170.237 91.4251 169.006 91.4251C167.774 91.4251 166.78 90.4311 166.78 89.193C166.78 87.9616 167.774 86.9609 169.006 86.9609C170.237 86.9609 171.238 87.9616 171.238 89.193ZM167.457 89.193C167.457 90.1243 168.137 90.787 169.006 90.787C169.874 90.787 170.564 90.1243 170.564 89.193C170.564 88.2684 169.877 87.599 169.006 87.599C168.137 87.599 167.457 88.2684 167.457 89.193ZM178.18 91.4229C179.178 91.4229 179.98 90.7401 179.98 89.5021H179.984V86.9565H179.302V89.4841C179.302 90.3819 178.813 90.7804 178.182 90.7804C177.555 90.7804 177.069 90.3819 177.069 89.4841V86.9565H176.387V89.5021C176.387 90.7401 177.188 91.4229 178.18 91.4229ZM187.094 86.9565C188.29 86.9565 189.062 87.6349 189.062 88.6379C189.062 89.6476 188.288 90.3192 187.094 90.3192H186.34V91.4319H185.65V86.9588H187.094V86.9565ZM187.139 89.6722C187.811 89.6722 188.411 89.3722 188.411 88.6356C188.411 87.9259 187.811 87.6058 187.139 87.6058H186.34V89.67H187.139V89.6722ZM130.019 71.5468V61.5618C130.019 61.5284 130.018 61.4986 130.018 61.4721C130.017 61.3595 130.016 61.3049 130.043 61.2788C130.069 61.2542 130.119 61.255 130.216 61.2565C130.249 61.257 130.287 61.2576 130.332 61.2573C131.101 61.2558 131.869 61.2563 132.638 61.2568L132.639 61.2568C133.023 61.2571 133.407 61.2573 133.791 61.2573C133.81 61.2573 133.828 61.2576 133.847 61.2578C133.884 61.2583 133.922 61.2588 133.961 61.2573C134.053 61.2528 134.095 61.2909 134.091 61.3849C134.088 61.4328 134.089 61.4816 134.09 61.5301V61.5304C134.09 61.5544 134.091 61.5784 134.091 61.6021V77.7012C134.091 77.744 134.09 77.7812 134.09 77.8135C134.088 77.9213 134.087 77.9751 134.113 78.0016C134.14 78.028 134.193 78.0274 134.3 78.0263C134.331 78.026 134.367 78.0256 134.409 78.0258C136.316 78.0273 138.225 78.0268 140.133 78.0263H140.133C141.087 78.0261 142.041 78.0258 142.994 78.0258C143.013 78.0258 143.032 78.0256 143.051 78.0253C143.088 78.0249 143.126 78.0244 143.165 78.0258L143.165 78.0258C143.346 78.0303 143.349 78.0304 143.351 78.2161C143.353 79.3691 143.353 80.5199 143.351 81.6729C143.351 81.8519 143.346 81.8542 143.156 81.8542C142.962 81.8557 142.769 81.8552 142.576 81.8547C142.479 81.8544 142.382 81.8542 142.285 81.8542H130.337C130.292 81.8542 130.254 81.8549 130.222 81.8556C130.121 81.8576 130.07 81.8587 130.044 81.8336C130.017 81.8073 130.018 81.7526 130.02 81.6407C130.02 81.6086 130.021 81.5718 130.021 81.5296C130.019 78.2083 130.019 74.8849 130.019 71.5637V71.5468Z" fill="#CDCAD5"/>
</svg>
