<svg width="74" height="23" viewBox="0 0 74 23" fill="none" xmlns="http://www.w3.org/2000/svg">
<path fill-rule="evenodd" clip-rule="evenodd" d="M50.1852 16.0991C55.1843 16.0991 59.2369 12.4952 59.2369 8.04955C59.2369 3.6039 55.1843 0 50.1852 0C45.186 0 41.1334 3.6039 41.1334 8.04955C41.1334 12.4952 45.186 16.0991 50.1852 16.0991ZM18.2277 1.12616V8.20578V15.3077C18.2277 15.3391 18.2272 15.3663 18.2268 15.3899C18.2254 15.4648 18.2247 15.5027 18.2432 15.5215C18.2621 15.5407 18.301 15.5401 18.3796 15.539L18.3797 15.539C18.4009 15.5387 18.4249 15.5384 18.4521 15.5384H27.7707L27.7899 15.5383L27.8119 15.538C27.8388 15.5377 27.8652 15.5373 27.8916 15.5384C27.9552 15.5416 27.9887 15.5161 27.9855 15.4493C27.9844 15.4217 27.9848 15.3947 27.9851 15.3681V15.368C27.9852 15.3621 27.9853 15.3561 27.9853 15.3502C27.9854 15.3429 27.9855 15.3356 27.9855 15.3284C27.9855 15.0728 27.9856 14.8171 27.9858 14.5613V14.5611C27.9862 14.0493 27.9865 13.5372 27.9855 13.0258C27.9855 13.0008 27.9858 12.9788 27.9861 12.9594V12.9593C27.9871 12.8884 27.9877 12.8521 27.9698 12.8337C27.951 12.8143 27.9118 12.8146 27.8314 12.8154C27.8142 12.8155 27.795 12.8157 27.7738 12.8157H21.361C21.3471 12.8157 21.3333 12.8153 21.3197 12.815H21.3197C21.2928 12.8143 21.2664 12.8136 21.24 12.8157C21.1557 12.8237 21.1079 12.7966 21.1191 12.7027C21.1212 12.6795 21.1205 12.6569 21.1198 12.6341V12.6341C21.1194 12.6226 21.1191 12.611 21.1191 12.5993C21.1191 12.2842 21.1189 11.9691 21.1187 11.6541V11.6515C21.1184 11.0222 21.118 10.3929 21.1191 9.76361C21.1191 9.73217 21.1185 9.70499 21.1179 9.68151V9.68145V9.68142C21.1164 9.61162 21.1155 9.5744 21.1337 9.55464C21.1544 9.53206 21.2 9.53227 21.2976 9.53273L21.3467 9.53288H27.8104C27.9823 9.53288 27.9839 9.53132 27.9839 9.36741V6.97888C27.9839 6.89562 27.9839 6.85386 27.963 6.83271C27.942 6.81142 27.8998 6.81102 27.8152 6.81022H27.7293H21.3339C21.3192 6.81022 21.3043 6.81004 21.2892 6.80987C21.2588 6.80951 21.228 6.80915 21.1971 6.81022C21.1366 6.81182 21.1159 6.77998 21.1191 6.72427C21.1202 6.69664 21.1198 6.66972 21.1194 6.64303V6.643C21.1193 6.62974 21.1191 6.61654 21.1191 6.60333C21.1191 6.29564 21.1189 5.98812 21.1187 5.68065V5.67801V5.67785C21.1184 5.06402 21.118 4.45041 21.1191 3.8361C21.1191 3.8101 21.1187 3.78718 21.1183 3.76699V3.76688C21.1171 3.69685 21.1165 3.65958 21.1348 3.63983C21.1556 3.61737 21.2008 3.61756 21.2976 3.61798L21.3435 3.61811H27.7563C27.7711 3.61811 27.786 3.61793 27.801 3.61776C27.8314 3.6174 27.8623 3.61704 27.8932 3.61811C27.9584 3.62129 27.9871 3.59105 27.9839 3.52581C27.9828 3.49819 27.9832 3.47129 27.9835 3.44461V3.44458V3.44454C27.9836 3.43918 27.9837 3.43384 27.9837 3.4285C27.9838 3.42062 27.9839 3.41274 27.9839 3.40488V1.10229L27.9842 1.0495C27.9848 0.968471 27.9851 0.928858 27.9655 0.90979C27.9467 0.891554 27.9096 0.89211 27.8372 0.893197C27.8173 0.893496 27.7947 0.893836 27.7691 0.893836H18.4505C18.4226 0.893836 18.3981 0.893457 18.3766 0.893125C18.3007 0.891952 18.2627 0.891364 18.2439 0.910113C18.2249 0.929022 18.2256 0.967602 18.2269 1.04509C18.2273 1.06842 18.2277 1.09526 18.2277 1.12616ZM61.1097 0.916244C64.1871 3.68666 67.252 6.44436 70.3263 9.20999C70.3612 9.15515 70.358 9.10519 70.355 9.05782C70.3541 9.04471 70.3533 9.0318 70.3533 9.01904C70.3541 7.70464 70.3541 6.39024 70.3541 5.07565C70.3541 3.76105 70.3541 2.44626 70.3548 1.13107C70.3548 1.10407 70.3545 1.08021 70.3543 1.05911C70.3532 0.976639 70.3528 0.936403 70.3726 0.91702C70.3915 0.898553 70.4289 0.899015 70.5019 0.899917C70.5246 0.900197 70.5507 0.90052 70.5807 0.900332C71.1231 0.89927 71.666 0.899624 72.2086 0.899978C72.4798 0.900155 72.7509 0.900332 73.0219 0.900332H73.0904C73.2543 0.901922 73.2543 0.901922 73.2543 1.07378V1.14221V15.2839V15.5274C70.1609 12.749 67.0991 9.99927 64.0266 7.24158C63.994 7.29919 63.9969 7.35086 63.9997 7.39897C64.0004 7.412 64.0011 7.42477 64.0011 7.43733C64.0002 8.74059 64.0002 10.0438 64.0002 11.3469C64.0002 12.65 64.0002 13.9528 63.9992 15.2553C63.9992 15.271 63.9993 15.2857 63.9995 15.2995C63.9998 15.3177 64.0001 15.3343 64.0004 15.3495V15.3496C64.002 15.4287 64.0028 15.4679 63.9836 15.487C63.9647 15.5057 63.9264 15.5048 63.8505 15.5032C63.8302 15.5027 63.8072 15.5022 63.7812 15.502C63.7736 15.5019 63.7656 15.5019 63.7573 15.5019C63.2114 15.503 62.6656 15.5026 62.1198 15.5023H62.1198H62.1197H62.1186C61.8454 15.5021 61.5723 15.5019 61.2991 15.5019C61.2859 15.5019 61.2726 15.5017 61.2593 15.5016L61.2592 15.5016C61.2325 15.5012 61.2056 15.5008 61.1781 15.5019C61.1127 15.5051 61.0827 15.4781 61.0857 15.4112C61.0867 15.3848 61.0864 15.3585 61.0861 15.3316V15.3315C61.0859 15.3179 61.0857 15.3042 61.0857 15.2903V1.11356C61.0861 1.10222 61.0858 1.09066 61.0855 1.07861C61.0846 1.03489 61.0834 0.984861 61.1097 0.916244ZM0.110133 0.992348C0.0815063 0.959507 0.0524323 0.926153 0 0.927374V0.927533C0 5.7952 0 10.6645 0.00158965 15.5369C0.0488047 15.5212 0.0969397 15.5229 0.144595 15.5247H0.1446L0.144664 15.5247C0.159626 15.5252 0.17454 15.5258 0.189364 15.5258H2.69882L2.72851 15.5258C2.83668 15.526 2.88522 15.5261 2.90641 15.502C2.92365 15.4825 2.92278 15.4469 2.92119 15.3824C2.92064 15.3601 2.92 15.3344 2.92 15.3046V8.13905V7.92582L2.97783 7.97952C3.01883 8.01746 3.05055 8.04682 3.08072 8.07699C4.41639 9.41266 5.75355 10.7483 7.09074 12.084L7.09085 12.0841L7.09096 12.0842L7.09106 12.0843L7.09117 12.0844L7.18939 12.1825C7.20886 12.202 7.22554 12.2192 7.24007 12.2342L7.24014 12.2343L7.2402 12.2344C7.28931 12.2851 7.31381 12.3104 7.33827 12.3104C7.36261 12.3104 7.38693 12.2852 7.43543 12.2351C7.44976 12.2203 7.46621 12.2033 7.48538 12.1841C8.15799 11.5123 8.83022 10.8404 9.50244 10.1686L9.50245 10.1686L9.50247 10.1686L9.50248 10.1686L9.50249 10.1686C10.1916 9.47986 10.8807 8.79116 11.5702 8.10247C11.5806 8.09204 11.5907 8.08115 11.6008 8.07021C11.6369 8.03105 11.6737 7.99117 11.7309 7.96879C11.7557 8.02458 11.7535 8.07844 11.7513 8.13113V8.13113V8.13115V8.13116C11.7506 8.14608 11.75 8.16092 11.75 8.17568V15.2887C11.75 15.3034 11.7504 15.3183 11.7507 15.3333C11.7514 15.3638 11.7522 15.3946 11.75 15.4255C11.7468 15.5019 11.785 15.5274 11.8551 15.5226C11.8741 15.5215 11.8932 15.5219 11.9123 15.5222H11.9123C11.9219 15.5224 11.9314 15.5226 11.941 15.5226H14.4679C14.4751 15.5226 14.4821 15.5225 14.4891 15.5224C14.4937 15.5224 14.4982 15.5223 14.5027 15.5222H14.5027H14.5027C14.5255 15.5219 14.5481 15.5215 14.5714 15.5226C14.627 15.5242 14.6557 15.4987 14.6541 15.4414C14.653 15.4223 14.6534 15.4032 14.6537 15.3842L14.6539 15.3719L14.6541 15.3555C14.6541 13.769 14.6543 12.1825 14.6544 10.596V10.5896C14.6548 7.41872 14.6552 4.24784 14.6541 1.07695C14.6541 1.06756 14.6548 1.05784 14.6556 1.04797V1.04796V1.04794V1.04793V1.04792C14.6581 1.01436 14.6608 0.979154 14.635 0.949652C14.5926 0.967307 14.5659 0.996282 14.5401 1.02434L14.5401 1.02434L14.5401 1.02435C14.531 1.03422 14.522 1.04398 14.5125 1.05309L13.72 1.84077C11.6895 3.86514 9.65732 5.8895 7.62519 7.91386L7.48698 8.05155C7.46496 8.07356 7.4464 8.09288 7.43043 8.1095C7.38156 8.16035 7.357 8.18591 7.33233 8.186C7.3074 8.1861 7.28237 8.16019 7.23205 8.1081L7.23202 8.10807C7.21669 8.0922 7.199 8.07389 7.17825 8.05314C6.10563 6.98209 5.0334 5.91104 3.96118 4.84L3.96115 4.83997L3.96113 4.83995L3.9573 4.83612L3.95636 4.83519C2.87003 3.75006 1.78371 2.66493 0.696981 1.5798L0.557811 1.44043C0.41794 1.30026 0.277844 1.15986 0.136852 1.02126C0.127554 1.01233 0.118864 1.00236 0.110133 0.992348ZM53.6705 20.3297C53.6705 19.6407 53.1484 19.1585 52.2988 19.1585V19.157H51.2453V22.3379H51.7355V21.5025H52.2353C52.5631 21.5121 52.676 21.5805 52.9305 21.9751L53.1659 22.3379H53.715L53.4207 21.8844C53.2263 21.5789 53.0799 21.4198 52.9209 21.3434C53.3792 21.1842 53.6705 20.8342 53.6705 20.3297ZM52.3402 21.0442H51.7355V19.6232H52.3402C52.816 19.6232 53.2073 19.8507 53.2073 20.3313C53.2073 20.831 52.8175 21.0442 52.3402 21.0442ZM2.14065 20.5037V20.9683H0.565281V22.34H0.0735765V19.159H2.14065V19.6237H0.565281V20.5037H2.14065ZM7.69316 22.3374H8.21033L6.62063 19.166L5.03097 22.3374H5.5481L5.84729 21.7407H7.39401L7.69316 22.3374ZM6.07802 21.2792L6.61907 20.2003L7.16169 21.2792H6.07802ZM13.5166 19.679C13.227 19.3687 12.7958 19.1634 12.355 19.1634V19.1618H12.3152C11.7057 19.1666 11.2029 19.5151 11.2029 20.0752C11.2029 20.5828 11.6039 20.8183 12.2134 20.89L12.5078 20.9249C12.8913 20.9743 13.1395 21.0888 13.1395 21.4007C13.1395 21.7031 12.8451 21.8861 12.4409 21.8909H12.4187C11.9206 21.8909 11.5816 21.6537 11.44 21.396L11.1281 21.6856C11.3461 22.05 11.7948 22.3396 12.4187 22.3396H12.4409C13.0997 22.3348 13.6201 21.98 13.6201 21.4007C13.6201 20.7945 13.1968 20.5558 12.5698 20.4794L12.2754 20.4444C11.911 20.3966 11.6835 20.3028 11.6835 20.0625C11.6835 19.741 12.0447 19.6121 12.3152 19.6121H12.355C12.6303 19.6121 12.982 19.7506 13.2047 19.9686L13.5166 19.679ZM19.0729 22.34V20.9683H17.6105V22.34H17.1204V19.159H17.6105V20.5053H19.0729V19.159H19.5646V22.34H19.0729ZM24.1512 22.34V21.8769V19.6237V19.159H23.6611V19.6237V21.8769H23.6627V22.34H24.1512ZM31.1408 20.7551C31.1408 21.6334 30.4295 22.3416 29.5558 22.3416C28.6807 22.3416 27.9757 21.635 27.9757 20.7551C27.9757 19.8799 28.6823 19.1701 29.5558 19.1701C30.4295 19.1686 31.1408 19.8799 31.1408 20.7551ZM28.4547 20.7551C28.4547 21.4171 28.9384 21.8881 29.5558 21.8881C30.1733 21.8881 30.6618 21.4171 30.6618 20.7551C30.6618 20.0979 30.1733 19.6221 29.5558 19.6221C28.9384 19.6221 28.4547 20.0979 28.4547 20.7551ZM36.7063 19.162H36.8063H37.1965V21.2179V22.3318V22.3366V22.3414L34.8491 20.2552V22.3398H34.7425H34.3574V20.2886V19.1604L36.7063 21.2546V19.162ZM45.9548 20.5033V20.9918H46.1728H47.0418C46.9368 21.5217 46.4975 21.8797 45.9598 21.8797C45.3422 21.8797 44.8569 21.4087 44.8569 20.7467C44.8569 20.0895 45.3422 19.6137 45.9598 19.6137C46.3447 19.6137 46.6789 19.7983 46.8778 20.0975L47.2661 19.8509C46.9798 19.4355 46.5021 19.1618 45.9598 19.1618C45.0843 19.1618 44.3777 19.8731 44.3777 20.7483C44.3777 21.6283 45.0843 22.3348 45.9598 22.3348C46.8349 22.3348 47.546 21.6283 47.546 20.7483C47.546 20.6712 47.5343 20.5981 47.5224 20.5241L47.519 20.5033H45.9548ZM60.585 20.7497C60.585 21.6297 59.8739 22.3362 58.9984 22.3362C58.1233 22.3362 57.4167 21.6297 57.4167 20.7497C57.4167 19.8745 58.1233 19.1632 58.9984 19.1632C59.8739 19.1632 60.585 19.8745 60.585 20.7497ZM57.8974 20.7497C57.8974 21.4117 58.3812 21.8827 58.9984 21.8827C59.616 21.8827 60.1059 21.4117 60.1059 20.7497C60.1059 20.0925 59.6175 19.6167 58.9984 19.6167C58.3812 19.6167 57.8974 20.0925 57.8974 20.7497ZM65.5192 22.335C66.2288 22.335 66.7985 21.8497 66.7985 20.9697H66.8019V19.1604H66.3167V20.957C66.3167 21.5951 65.9694 21.8783 65.5207 21.8783C65.0754 21.8783 64.73 21.5951 64.73 20.957V19.1604H64.2448V20.9697C64.2448 21.8497 64.8145 22.335 65.5192 22.335ZM71.8556 19.1604C72.7052 19.1604 73.2544 19.6426 73.2544 20.3555C73.2544 21.0732 72.7037 21.5506 71.8556 21.5506H71.3194V22.3414H70.8292V19.162H71.8556V19.1604ZM71.8876 21.0907C72.3648 21.0907 72.7912 20.8774 72.7912 20.3539C72.7912 19.8495 72.3648 19.6219 71.8876 19.6219H71.3194V21.0891H71.8876V21.0907ZM31.2874 8.20718V1.11008C31.2874 1.08635 31.2872 1.06519 31.287 1.04632C31.2861 0.966317 31.2857 0.927489 31.3049 0.908945C31.323 0.891459 31.3585 0.89201 31.4275 0.89308C31.451 0.893444 31.4783 0.893868 31.5102 0.893664C32.0565 0.892604 32.6029 0.892957 33.1492 0.893311C33.4224 0.893487 33.6956 0.893664 33.9687 0.893664C33.9819 0.893664 33.9951 0.893839 34.0084 0.894016C34.0351 0.89437 34.062 0.894728 34.0896 0.893664C34.1549 0.890484 34.1851 0.917531 34.1819 0.984366C34.1798 1.01837 34.1805 1.05309 34.1812 1.08757C34.1816 1.10472 34.1819 1.12181 34.1819 1.13872V12.5816C34.1819 12.612 34.1815 12.6384 34.1811 12.6614C34.1798 12.7381 34.1791 12.7763 34.1979 12.7951C34.2166 12.8139 34.2546 12.8135 34.3302 12.8127C34.3526 12.8124 34.3784 12.8122 34.4079 12.8123C35.7638 12.8134 37.1203 12.813 38.4766 12.8127H38.4768C39.1548 12.8125 39.8326 12.8123 40.5103 12.8123C40.5179 12.8123 40.5255 12.8123 40.5331 12.8122C40.5388 12.8121 40.5445 12.8121 40.5502 12.812H40.5502C40.5769 12.8116 40.6038 12.8113 40.6312 12.8123L40.6314 12.8123C40.7602 12.8155 40.7621 12.8156 40.7636 12.9476C40.7651 13.7671 40.7651 14.585 40.7636 15.4046C40.7636 15.5318 40.7602 15.5334 40.6252 15.5334C40.4874 15.5345 40.3502 15.5342 40.2129 15.5338H40.2127C40.1439 15.5336 40.0751 15.5334 40.006 15.5334H31.5134C31.4821 15.5334 31.455 15.534 31.4318 15.5345C31.3604 15.5359 31.3239 15.5366 31.3056 15.5188C31.2864 15.5001 31.287 15.4612 31.2883 15.3817C31.2886 15.3589 31.289 15.3327 31.289 15.3027C31.2874 12.9381 31.2874 10.5718 31.2874 8.20718Z" fill="#CDCAD5"/>
</svg>
