<svg width="276" height="151" viewBox="0 0 276 151" fill="none" xmlns="http://www.w3.org/2000/svg">
<path fill-rule="evenodd" clip-rule="evenodd" d="M164.391 75.9835C164.391 90.3335 152.758 101.967 138.407 101.967C124.056 101.967 112.423 90.3335 112.423 75.9835C112.423 61.6326 124.056 50 138.407 50C152.758 50 164.391 61.6326 164.391 75.9835Z" fill="#CDCAD5"/>
<path fill-rule="evenodd" clip-rule="evenodd" d="M127.094 56.778C127.094 56.2829 126.897 55.8081 126.547 55.458C126.197 55.1079 125.722 54.9112 125.227 54.9112C124.732 54.9112 124.257 55.1079 123.907 55.458C123.557 55.8081 123.36 56.2829 123.36 56.778C123.36 57.2731 123.557 57.748 123.907 58.0981C124.257 58.4482 124.732 58.6449 125.227 58.6449C125.722 58.6449 126.197 58.4482 126.547 58.0981C126.897 57.748 127.094 57.2731 127.094 56.778ZM129.255 60.5108C129.259 60.2632 129.214 60.0173 129.122 59.7875C129.029 59.5576 128.893 59.3483 128.719 59.1719C128.545 58.9954 128.338 58.8553 128.11 58.7597C127.881 58.6641 127.636 58.6148 127.388 58.6149C127.141 58.6149 126.896 58.6642 126.667 58.7599C126.439 58.8556 126.232 58.9957 126.058 59.1722C125.884 59.3487 125.747 59.558 125.655 59.7879C125.563 60.0178 125.518 60.2637 125.522 60.5113C125.53 61.0012 125.73 61.4685 126.079 61.8123C126.428 62.156 126.899 62.3486 127.389 62.3486C127.879 62.3485 128.349 62.1558 128.698 61.8119C129.048 61.4681 129.248 61.0008 129.255 60.5108ZM131.417 64.2436C131.417 63.9985 131.369 63.7558 131.275 63.5293C131.181 63.3029 131.044 63.0971 130.87 62.9237C130.697 62.7504 130.491 62.6128 130.265 62.519C130.039 62.4251 129.796 62.3768 129.551 62.3767C129.306 62.3767 129.063 62.4249 128.837 62.5186C128.61 62.6124 128.404 62.7498 128.231 62.9231C128.058 63.0963 127.92 63.3021 127.826 63.5285C127.732 63.7549 127.684 63.9976 127.684 64.2427C127.684 64.7377 127.88 65.2124 128.23 65.5625C128.58 65.9126 129.055 66.1094 129.55 66.1095C130.045 66.1096 130.52 65.9131 130.87 65.5632C131.22 65.2133 131.417 64.7386 131.417 64.2436ZM130.72 55.9344C130.963 55.9926 131.216 56.0013 131.463 55.9599C131.709 55.9186 131.945 55.8281 132.156 55.6937C132.368 55.5594 132.549 55.384 132.691 55.178C132.833 54.972 132.933 54.7395 132.983 54.4945C133.033 54.2494 133.034 53.9967 132.985 53.7514C132.935 53.5061 132.837 53.2732 132.696 53.0665C132.555 52.8598 132.374 52.6836 132.164 52.5483C131.953 52.413 131.718 52.3214 131.471 52.279C130.993 52.1967 130.502 52.3035 130.102 52.5767C129.702 52.8499 129.423 53.2682 129.326 53.743C129.228 54.2178 129.319 54.712 129.579 55.121C129.839 55.5299 130.249 55.8216 130.72 55.9344ZM130.633 57.822C130.546 58.302 130.649 58.7973 130.923 59.2016C131.196 59.606 131.616 59.8874 132.094 59.9857C132.572 60.0839 133.07 59.9911 133.48 59.7272C133.89 59.4632 134.181 59.0491 134.29 58.5735C134.378 58.0934 134.274 57.5982 134.001 57.1938C133.728 56.7894 133.307 56.508 132.829 56.4098C132.351 56.3116 131.854 56.4044 131.443 56.6683C131.033 56.9322 130.742 57.3463 130.633 57.822ZM131.999 61.9135C131.95 62.1536 131.948 62.4012 131.995 62.6419C132.041 62.8827 132.135 63.1119 132.27 63.3166C132.405 63.5213 132.578 63.6974 132.782 63.8348C132.985 63.9723 133.213 64.0684 133.453 64.1176C133.693 64.1669 133.941 64.1684 134.181 64.1221C134.422 64.0757 134.651 63.9823 134.856 63.8474C135.061 63.7124 135.237 63.5384 135.374 63.3354C135.512 63.1324 135.608 62.9043 135.657 62.6641C135.757 62.179 135.659 61.6743 135.387 61.261C135.114 60.8476 134.688 60.5595 134.203 60.4599C133.718 60.3604 133.214 60.4576 132.8 60.7302C132.387 61.0028 132.099 61.4284 131.999 61.9135ZM151.585 54.9116C151.34 54.9116 151.097 54.9598 150.871 55.0536C150.644 55.1474 150.438 55.2849 150.265 55.4583C150.092 55.6317 149.954 55.8375 149.861 56.064C149.767 56.2906 149.719 56.5333 149.719 56.7785C149.719 57.1477 149.828 57.5087 150.033 57.8157C150.239 58.1227 150.53 58.362 150.871 58.5033C151.212 58.6446 151.588 58.6815 151.95 58.6094C152.312 58.5374 152.645 58.3595 152.906 58.0984C153.167 57.8373 153.345 57.5046 153.417 57.1424C153.489 56.7802 153.452 56.4049 153.31 56.0637C153.169 55.7226 152.929 55.4311 152.622 55.226C152.315 55.0209 151.954 54.9115 151.585 54.9116ZM149.423 58.6444C148.935 58.6553 148.471 58.8566 148.13 59.2055C147.789 59.5543 147.598 60.0229 147.598 60.5108C147.598 60.9987 147.789 61.4673 148.13 61.8161C148.471 62.165 148.935 62.3664 149.423 62.3772C149.668 62.3772 149.911 62.3289 150.137 62.2351C150.364 62.1413 150.57 62.0039 150.743 61.8305C150.916 61.6572 151.054 61.4515 151.147 61.225C151.241 60.9986 151.289 60.7559 151.289 60.5108C151.289 60.2657 151.241 60.023 151.147 59.7966C151.054 59.5701 150.916 59.3644 150.743 59.1911C150.57 59.0178 150.364 58.8803 150.137 58.7865C149.911 58.6927 149.668 58.6444 149.423 58.6444ZM147.262 62.3772C147.017 62.3771 146.775 62.4254 146.548 62.5192C146.322 62.613 146.116 62.7505 145.942 62.9239C145.769 63.0973 145.632 63.3031 145.538 63.5296C145.444 63.7561 145.396 63.9989 145.396 64.2441C145.396 64.6133 145.506 64.9743 145.711 65.2813C145.916 65.5883 146.207 65.8276 146.549 65.9688C146.89 66.1101 147.265 66.1471 147.627 66.075C147.989 66.0029 148.322 65.8251 148.583 65.564C148.844 65.3028 149.022 64.9701 149.094 64.608C149.166 64.2458 149.129 63.8704 148.988 63.5293C148.846 63.1882 148.607 62.8967 148.3 62.6916C147.993 62.4865 147.632 62.3771 147.262 62.3772ZM146.092 55.9344C146.333 55.8854 146.561 55.7895 146.765 55.6522C146.968 55.5148 147.142 55.3387 147.277 55.134C147.413 54.9292 147.506 54.6998 147.552 54.4588C147.599 54.2179 147.597 53.9701 147.548 53.7298C147.499 53.4894 147.402 53.2612 147.265 53.0581C147.127 52.855 146.95 52.681 146.745 52.5462C146.54 52.4114 146.311 52.3183 146.07 52.2723C145.829 52.2262 145.581 52.2282 145.341 52.278C144.857 52.3785 144.432 52.6669 144.16 53.0799C143.889 53.493 143.792 53.997 143.892 54.4813C143.991 54.9656 144.279 55.3906 144.691 55.663C145.104 55.9355 145.608 56.0331 146.092 55.9344ZM144.726 60.0259C144.966 59.9766 145.194 59.8804 145.397 59.7429C145.6 59.6054 145.774 59.4293 145.909 59.2246C146.044 59.0199 146.137 58.7906 146.183 58.5499C146.23 58.3092 146.228 58.0616 146.179 57.8215C146.13 57.5814 146.033 57.3533 145.896 57.1503C145.758 56.9473 145.582 56.7734 145.378 56.6385C145.173 56.5036 144.944 56.4103 144.703 56.364C144.462 56.3177 144.215 56.3193 143.974 56.3686C143.49 56.4683 143.064 56.7565 142.792 57.1699C142.519 57.5833 142.422 58.0881 142.522 58.573C142.621 59.058 142.91 59.4835 143.323 59.756C143.736 60.0285 144.241 60.1256 144.726 60.0259ZM143.361 64.117C143.603 64.0692 143.832 63.974 144.037 63.8371C144.242 63.7001 144.417 63.524 144.553 63.3189C144.69 63.1138 144.784 62.8838 144.831 62.6421C144.878 62.4003 144.877 62.1517 144.827 61.9105C144.778 61.6693 144.681 61.4403 144.542 61.2367C144.404 61.033 144.226 60.8588 144.02 60.724C143.814 60.5893 143.584 60.4966 143.342 60.4514C143.099 60.4062 142.851 60.4093 142.61 60.4606C142.128 60.5632 141.706 60.8522 141.437 61.2645C141.167 61.6768 141.072 62.179 141.171 62.6616C141.27 63.1442 141.556 63.568 141.966 63.8406C142.376 64.1132 142.878 64.2126 143.361 64.117ZM138.782 50.9707C138.539 50.9147 138.288 50.9078 138.043 50.9504C137.797 50.993 137.563 51.0842 137.353 51.2187C137.144 51.3532 136.963 51.5283 136.823 51.7336C136.682 51.939 136.583 52.1704 136.533 52.4143C136.483 52.6582 136.482 52.9097 136.531 53.1539C136.58 53.3981 136.677 53.6301 136.816 53.8363C136.956 54.0425 137.135 54.2187 137.344 54.3545C137.553 54.4903 137.786 54.5829 138.031 54.627C138.511 54.7133 139.005 54.6088 139.409 54.3356C139.812 54.0625 140.093 53.6424 140.191 53.1651C140.289 52.6878 140.196 52.1912 139.933 51.7812C139.67 51.3712 139.257 51.0803 138.782 50.9707ZM138.782 55.2934C138.542 55.2435 138.294 55.2416 138.053 55.2876C137.812 55.3336 137.582 55.4267 137.377 55.5615C137.172 55.6964 136.996 55.8703 136.858 56.0734C136.72 56.2765 136.624 56.5048 136.575 56.7451C136.525 56.9855 136.524 57.2332 136.57 57.4741C136.617 57.7151 136.71 57.9445 136.845 58.1493C136.981 58.3541 137.155 58.5301 137.358 58.6675C137.562 58.8048 137.79 58.9008 138.03 58.9497C138.515 59.0484 139.019 58.9508 139.431 58.6784C139.844 58.4059 140.132 57.9809 140.231 57.4966C140.331 57.0123 140.234 56.5083 139.962 56.0953C139.691 55.6822 139.266 55.3938 138.782 55.2934ZM138.782 59.6156C138.542 59.5663 138.294 59.5647 138.054 59.6111C137.813 59.6574 137.584 59.7506 137.379 59.8855C136.966 60.1579 136.678 60.5834 136.578 61.0682C136.479 61.5531 136.576 62.0577 136.848 62.4709C137.121 62.8842 137.546 63.1723 138.031 63.2719C138.272 63.3232 138.52 63.3264 138.762 63.2812C139.004 63.236 139.235 63.1433 139.441 63.0085C139.647 62.8737 139.825 62.6995 139.963 62.4959C140.102 62.2923 140.198 62.0633 140.248 61.822C140.297 61.5808 140.299 61.3322 140.252 61.0905C140.205 60.8488 140.111 60.6187 139.974 60.4136C139.838 60.2085 139.662 60.0324 139.458 59.8955C139.253 59.7585 139.023 59.6634 138.782 59.6156ZM130.907 66.3494C130.212 66.8384 129.573 67.4014 129.001 68.0284L130.623 71.0787V96.7652C131.43 97.066 132.256 97.3165 133.094 97.5154V70.4621L132.95 70.19L130.907 66.3494ZM137.17 64.0732V98.1233C137.993 98.1772 138.818 98.1916 139.642 98.1665V64.0732C138.82 63.9986 137.992 63.9986 137.17 64.0732ZM141.881 64.4725L140.643 70.7274L140.619 70.8462V98.1163C141.447 98.0598 142.272 97.9622 143.091 97.8239V71.0861L144.225 65.3492C143.474 64.9815 142.689 64.6878 141.881 64.4725Z" fill="#1C1A22"/>
<path fill-rule="evenodd" clip-rule="evenodd" d="M134.933 64.4727C134.125 64.688 133.339 64.9818 132.587 65.3499L133.723 71.0886V97.657C134.519 97.8241 135.344 97.9521 136.194 98.0401V70.8459L136.171 70.7271L134.933 64.4727ZM145.906 66.3496L143.864 70.1906L143.719 70.4628V97.7095C144.554 97.5453 145.38 97.333 146.19 97.0735V71.0789L147.812 68.0286C147.24 67.4011 146.601 66.8381 145.906 66.3496Z" fill="#1C1A22"/>
<path fill-rule="evenodd" clip-rule="evenodd" d="M181.153 87.0348H95V68.8613H181.153V87.0348Z" fill="#CDCAD5"/>
<path d="M107.494 82.4192V77.1129L105.836 80.3525C105.39 81.2242 104.08 81.2242 103.635 80.3525L101.979 77.1147V82.4196C101.979 83.0376 101.979 83.6556 100.743 83.6556C99.5068 83.6556 99.5068 83.0376 99.5068 82.4196V71.9871C99.5068 70.8202 101.312 70.3873 101.843 71.4271L104.735 77.0816L107.629 71.4271C108.16 70.3873 109.965 70.8202 109.965 71.9871V82.4196C109.965 83.0376 109.965 83.6556 108.729 83.6556C107.493 83.6556 107.494 83.0372 107.494 82.4192ZM118.827 75.0968L114.286 85.4451C114.038 86.011 113.79 86.5775 112.66 86.0847C111.53 85.5929 111.779 85.027 112.027 84.4615L113.785 80.4538L111.357 74.9536C111.107 74.3886 110.858 73.8231 111.987 73.3262C113.117 72.8293 113.366 73.3944 113.616 73.9594L115.131 77.3896L116.568 74.1127C116.817 73.5468 117.065 72.9813 118.195 73.4736C119.324 73.9654 119.076 74.5313 118.827 75.0968ZM134.759 75.0968L130.218 85.4451C129.97 86.011 129.722 86.5775 128.592 86.0847C127.463 85.5929 127.711 85.027 127.959 84.4615L129.718 80.4538L127.289 74.9536C127.039 74.3886 126.79 73.8231 127.919 73.3262C129.049 72.8289 129.299 73.3944 129.548 73.9594L131.063 77.3887L132.5 74.1127C132.749 73.5468 132.997 72.9813 134.127 73.4736C135.256 73.9654 135.008 74.5313 134.759 75.0968ZM122.061 71.9245V82.485C122.061 83.103 122.061 83.721 120.825 83.721C119.589 83.721 119.589 83.103 119.589 82.485V71.9245C119.589 71.3069 119.589 70.6885 120.825 70.6885C122.061 70.6889 122.061 71.3069 122.061 71.9245ZM126.229 71.9245V82.485C126.229 83.103 126.229 83.721 124.994 83.721C123.758 83.721 123.758 83.103 123.758 82.485V71.9245C123.758 71.3069 123.758 70.6885 124.994 70.6885C126.229 70.6889 126.229 71.3069 126.229 71.9245ZM135.222 82.5283V76.9871C135.222 76.0293 135.611 75.1617 136.239 74.5336H136.243C136.565 74.2114 136.946 73.9557 137.366 73.7813C137.786 73.6069 138.237 73.5172 138.692 73.5173C139.147 73.5168 139.599 73.6063 140.02 73.7807C140.44 73.9552 140.823 74.211 141.144 74.5336C141.467 74.8554 141.723 75.2378 141.897 75.6588C142.072 76.0797 142.161 76.531 142.161 76.9867V82.5278C142.161 83.1458 142.161 83.7638 140.925 83.7638C139.689 83.7638 139.689 83.1458 139.689 82.5278V76.9871C139.689 76.7109 139.577 76.4617 139.396 76.2812C139.209 76.0939 138.954 75.9887 138.689 75.9887C138.423 75.9887 138.169 76.0939 137.981 76.2812H137.986C137.893 76.3738 137.819 76.4838 137.769 76.605C137.719 76.7261 137.693 76.856 137.694 76.9871V82.5283C137.694 83.1463 137.694 83.7643 136.458 83.7643C135.222 83.7643 135.222 83.1463 135.222 82.5283ZM159.854 82.5283V76.9871C159.854 76.0325 160.245 75.1645 160.876 74.5336H160.871C161.193 74.211 161.575 73.9551 161.996 73.7807C162.417 73.6063 162.869 73.5168 163.324 73.5173C163.942 73.5173 164.56 73.5173 164.56 74.7533C164.56 75.9888 163.942 75.9888 163.324 75.9888C163.048 75.9888 162.799 76.1007 162.618 76.2812H162.614C162.522 76.3741 162.449 76.4843 162.399 76.6054C162.35 76.7266 162.325 76.8563 162.326 76.9871V82.5283C162.326 83.1463 162.326 83.7643 161.09 83.7643C159.854 83.7643 159.854 83.1463 159.854 82.5283ZM155.845 80.7043V79.507L154.358 79.991C154.192 80.061 154.046 80.2484 153.959 80.4948C153.866 80.7699 153.86 81.0672 153.943 81.3458C154.033 81.4503 154.143 81.5203 154.255 81.5498H154.261C154.37 81.5792 154.483 81.5696 154.57 81.5138L155.845 80.7043ZM155.842 76.9139C155.825 76.6749 155.722 76.45 155.552 76.2807C155.46 76.1879 155.35 76.1143 155.229 76.0642C155.108 76.014 154.978 75.9882 154.847 75.9883H154.252C153.634 75.9883 153.016 75.9883 153.016 74.7528C153.016 73.5168 153.634 73.5168 154.252 73.5168H154.847C155.805 73.5168 156.672 73.905 157.3 74.5332C157.928 75.1613 158.316 76.0289 158.316 76.9867V82.5278C158.316 83.1458 158.316 83.7638 157.08 83.7638C156.558 83.7638 156.256 83.6533 156.082 83.4788L155.892 83.5994C155.197 84.041 154.381 84.1364 153.622 83.9342H153.628C152.867 83.7285 152.211 83.2449 151.79 82.579C151.753 82.5053 151.716 82.4314 151.68 82.357C151.348 81.5 151.331 80.5531 151.632 79.6847C151.956 78.761 152.626 78.02 153.46 77.6899C153.46 77.6899 153.53 77.6664 153.531 77.6655L155.842 76.9139ZM147.712 75.9639H148.966C149.243 75.9639 149.493 75.8543 149.672 75.6766C149.673 75.6747 149.675 75.6734 149.677 75.6715L149.672 75.6766C149.673 75.6747 149.675 75.6734 149.677 75.6715C149.854 75.4915 149.965 75.2419 149.965 74.966V74.5299C149.965 74.2541 149.852 74.0045 149.672 73.824H149.677C149.584 73.731 149.473 73.6573 149.351 73.6072C149.229 73.5571 149.098 73.5316 148.966 73.532H147.712V75.9639ZM147.712 78.4359V82.5707C147.712 83.1887 147.712 83.8066 146.476 83.8066C145.24 83.8066 145.24 83.1887 145.24 82.5707V72.2965C145.24 71.6785 145.858 71.0606 146.476 71.0606H148.966C149.421 71.0604 149.871 71.1501 150.291 71.3245C150.711 71.4989 151.093 71.7546 151.414 72.0769H151.42C151.742 72.3987 151.998 72.781 152.172 73.202C152.347 73.623 152.436 74.0743 152.436 74.5299V74.966C152.436 75.421 152.346 75.8715 152.172 76.2916C151.997 76.7117 151.741 77.0932 151.419 77.414L151.414 77.4196C151.093 77.7417 150.711 77.9972 150.291 78.1716C149.871 78.346 149.421 78.4358 148.966 78.4359H147.712ZM167.969 80.7043V79.507L166.481 79.991C166.315 80.061 166.169 80.2484 166.083 80.4948C165.99 80.7699 165.984 81.0672 166.067 81.3458C166.156 81.4503 166.267 81.5203 166.379 81.5498H166.384C166.435 81.5655 166.489 81.5704 166.543 81.5642C166.596 81.558 166.648 81.5409 166.694 81.5138L167.969 80.7043ZM167.965 76.9139C167.947 76.6624 167.835 76.427 167.65 76.2552C167.466 76.0834 167.223 75.9881 166.971 75.9883H166.376C165.758 75.9883 165.14 75.9883 165.14 74.7528C165.14 73.5168 165.758 73.5168 166.376 73.5168H166.971C167.928 73.5168 168.795 73.905 169.423 74.5332C169.746 74.8549 170.002 75.2373 170.176 75.6584C170.351 76.0795 170.44 76.5309 170.439 76.9867V82.5278C170.439 83.1458 170.439 83.7638 169.203 83.7638C168.681 83.7638 168.38 83.6533 168.205 83.4788L168.015 83.5994C167.32 84.041 166.504 84.1364 165.746 83.9342H165.751C164.99 83.7285 164.335 83.2448 163.914 82.579C163.876 82.5055 163.839 82.4315 163.803 82.357C163.471 81.5 163.454 80.5529 163.756 79.6847C164.08 78.761 164.749 78.02 165.583 77.6899C165.583 77.6899 165.653 77.6664 165.654 77.6655L167.965 76.9139ZM175.644 76.1785C175.642 76.1767 174.553 75.5661 174.383 76.0012C174.22 76.4157 174.231 76.6777 174.355 76.8356C174.57 77.1101 175.047 77.3321 175.646 77.5227C176.252 77.7114 176.776 78.0991 177.134 78.6228C177.478 79.1193 177.659 79.693 177.709 80.2599C177.753 80.7872 177.694 81.318 177.534 81.8224C177.341 82.4284 176.991 82.9566 176.527 83.2775C176.355 83.3982 176.173 83.4986 175.987 83.5787C175.343 83.8568 174.53 83.9591 173.757 83.808C172.942 83.6478 172.154 83.2135 171.604 82.421C171.473 82.2314 171.36 82.0292 171.267 81.8173C171.023 81.25 170.778 80.6822 171.912 80.195C173.047 79.7073 173.292 80.2751 173.536 80.8424C173.569 80.9161 173.6 80.9755 173.632 81.0216C173.772 81.2233 173.992 81.3384 174.23 81.384C174.492 81.4367 174.764 81.4111 175.011 81.3103C175.063 81.2877 175.102 81.267 175.127 81.25C175.13 81.2481 175.143 81.1869 175.177 81.0782C175.237 80.882 175.257 80.6761 175.237 80.4722C175.221 80.2898 175.178 80.1287 175.106 80.0223C175.056 79.9527 174.984 79.9021 174.902 79.8786C173.875 79.5512 172.985 79.082 172.413 78.3516C171.75 77.5071 171.554 76.453 172.084 75.1037C173.297 72.0101 176.831 74.0206 176.841 74.0262C177.381 74.3259 177.921 74.6262 177.323 75.7028C176.725 76.779 176.185 76.4788 175.644 76.1785Z" fill="#1C1A22"/>
</svg>
