<svg width="87" height="52" viewBox="0 0 87 52" fill="none" xmlns="http://www.w3.org/2000/svg">
<path fill-rule="evenodd" clip-rule="evenodd" d="M69.3904 25.9835C69.3904 40.3335 57.7573 51.9666 43.4064 51.9666C29.0559 51.9666 17.4229 40.3335 17.4229 25.9835C17.4229 11.6326 29.0559 0 43.4064 0C57.7573 0 69.3904 11.6326 69.3904 25.9835Z" fill="#CDCAD5"/>
<path fill-rule="evenodd" clip-rule="evenodd" d="M32.0941 6.77802C32.0941 6.2829 31.8974 5.80806 31.5473 5.45796C31.1972 5.10785 30.7223 4.91117 30.2272 4.91117C29.7321 4.91117 29.2572 5.10785 28.9071 5.45796C28.557 5.80806 28.3604 6.2829 28.3604 6.77802C28.3604 7.27314 28.557 7.74798 28.9071 8.09809C29.2572 8.44819 29.7321 8.64487 30.2272 8.64487C30.7223 8.64487 31.1972 8.44819 31.5473 8.09809C31.8974 7.74798 32.0941 7.27314 32.0941 6.77802ZM34.2552 10.5108C34.259 10.2632 34.2136 10.0173 34.1215 9.78746C34.0294 9.55759 33.8925 9.34834 33.7188 9.1719C33.545 8.99545 33.3379 8.85533 33.1095 8.7597C32.8811 8.66407 32.6359 8.61483 32.3883 8.61487C32.1407 8.6149 31.8955 8.66419 31.6672 8.75988C31.4388 8.85557 31.2317 8.99574 31.058 9.17222C30.8843 9.34871 30.7474 9.55799 30.6554 9.78788C30.5634 10.0178 30.518 10.2637 30.5219 10.5113C30.5297 11.0012 30.7298 11.4685 31.0791 11.8123C31.4283 12.156 31.8987 12.3486 32.3888 12.3486C32.8788 12.3485 33.3492 12.1558 33.6984 11.8119C34.0475 11.4681 34.2475 11.0008 34.2552 10.5108ZM36.4167 14.2436C36.4168 13.9985 36.3686 13.7558 36.2748 13.5293C36.1811 13.3029 36.0437 13.0971 35.8704 12.9237C35.6971 12.7504 35.4914 12.6128 35.265 12.519C35.0386 12.4251 34.7959 12.3768 34.5508 12.3767C34.3057 12.3767 34.063 12.4249 33.8365 12.5186C33.6101 12.6124 33.4043 12.7498 33.2309 12.9231C33.0576 13.0963 32.9201 13.3021 32.8262 13.5285C32.7324 13.7549 32.684 13.9976 32.684 14.2427C32.6838 14.7377 32.8804 15.2124 33.2303 15.5625C33.5802 15.9126 34.0549 16.1094 34.5499 16.1095C35.0449 16.1096 35.5197 15.9131 35.8698 15.5632C36.2199 15.2133 36.4166 14.7386 36.4167 14.2436ZM35.72 5.93439C35.9634 5.99258 36.2159 6.00127 36.4627 5.95993C36.7094 5.91859 36.9454 5.82807 37.1564 5.69375C37.3675 5.55942 37.5495 5.38404 37.6914 5.17802C37.8334 4.972 37.9325 4.73954 37.9829 4.49446C38.0332 4.24938 38.0338 3.99668 37.9846 3.75137C37.9353 3.50606 37.8373 3.27316 37.6963 3.06649C37.5552 2.85982 37.3741 2.6836 37.1636 2.54832C36.9532 2.41303 36.7177 2.32144 36.4711 2.27897C35.9934 2.19669 35.5024 2.30345 35.102 2.57668C34.7016 2.84991 34.4231 3.26817 34.3256 3.743C34.228 4.21784 34.319 4.712 34.5792 5.12097C34.8394 5.52994 35.2486 5.82164 35.72 5.93439ZM35.633 7.82197C35.5455 8.30203 35.6495 8.79726 35.9226 9.20164C36.1957 9.60603 36.6162 9.88744 37.0942 9.98566C37.5722 10.0839 38.0696 9.9911 38.4801 9.72717C38.8905 9.46324 39.1813 9.04914 39.2902 8.5735C39.3777 8.09343 39.2737 7.59821 39.0006 7.19382C38.7275 6.78944 38.307 6.50802 37.829 6.4098C37.351 6.31158 36.8536 6.40436 36.4432 6.66829C36.0327 6.93222 35.7419 7.34632 35.633 7.82197ZM36.9993 11.9135C36.95 12.1536 36.9485 12.4012 36.9949 12.6419C37.0412 12.8827 37.1346 13.1119 37.2696 13.3166C37.4045 13.5213 37.5785 13.6974 37.7815 13.8348C37.9845 13.9723 38.2127 14.0684 38.4528 14.1176C38.693 14.1669 38.9405 14.1684 39.1813 14.1221C39.422 14.0757 39.6513 13.9823 39.856 13.8474C40.0606 13.7124 40.2367 13.5384 40.3742 13.3354C40.5116 13.1324 40.6077 12.9043 40.657 12.6641C40.7565 12.179 40.6593 11.6743 40.3867 11.261C40.1141 10.8476 39.6885 10.5595 39.2034 10.4599C38.7184 10.3604 38.2137 10.4576 37.8003 10.7302C37.387 11.0028 37.0988 11.4284 36.9993 11.9135ZM56.5851 4.91163C56.34 4.91157 56.0972 4.95982 55.8707 5.05362C55.6442 5.14742 55.4384 5.28494 55.2651 5.45831C55.0918 5.63168 54.9543 5.83751 54.8605 6.06403C54.7668 6.29055 54.7186 6.53333 54.7187 6.77848C54.7187 7.14773 54.8282 7.50868 55.0334 7.8157C55.2385 8.12271 55.5301 8.36199 55.8713 8.50327C56.2124 8.64456 56.5878 8.6815 56.95 8.60943C57.3121 8.53736 57.6447 8.35951 57.9058 8.09838C58.1669 7.83725 58.3446 7.50457 58.4166 7.1424C58.4886 6.78024 58.4516 6.40486 58.3102 6.06375C58.1688 5.72263 57.9295 5.4311 57.6224 5.22602C57.3154 5.02095 56.9544 4.91154 56.5851 4.91163ZM54.4231 8.64441C53.9353 8.65525 53.4711 8.85665 53.1299 9.20548C52.7887 9.55432 52.5977 10.0229 52.5977 10.5108C52.5977 10.9987 52.7887 11.4673 53.1299 11.8161C53.4711 12.165 53.9353 12.3664 54.4231 12.3772C54.6682 12.3772 54.9109 12.3289 55.1373 12.2351C55.3638 12.1413 55.5695 12.0039 55.7428 11.8305C55.9161 11.6572 56.0536 11.4515 56.1474 11.225C56.2412 10.9986 56.2895 10.7559 56.2895 10.5108C56.2895 10.2657 56.2412 10.023 56.1474 9.79657C56.0536 9.57013 55.9161 9.36438 55.7428 9.19107C55.5695 9.01776 55.3638 8.88028 55.1373 8.78648C54.9109 8.69269 54.6682 8.64441 54.4231 8.64441ZM52.2624 12.3772C52.0173 12.3771 51.7745 12.4254 51.548 12.5192C51.3215 12.613 51.1157 12.7505 50.9424 12.9239C50.7691 13.0973 50.6316 13.3031 50.5379 13.5296C50.4441 13.7561 50.3959 13.9989 50.396 14.2441C50.396 14.6133 50.5055 14.9743 50.7107 15.2813C50.9159 15.5883 51.2074 15.8276 51.5486 15.9688C51.8897 16.1101 52.2651 16.1471 52.6273 16.075C52.9894 16.0029 53.3221 15.8251 53.5831 15.564C53.8442 15.3028 54.022 14.9701 54.0939 14.608C54.1659 14.2458 54.1289 13.8704 53.9875 13.5293C53.8461 13.1882 53.6068 12.8967 53.2997 12.6916C52.9927 12.4865 52.6317 12.3771 52.2624 12.3772ZM51.0923 5.93439C51.3328 5.88542 51.5612 5.78951 51.7645 5.65217C51.9679 5.51482 52.1421 5.33872 52.2773 5.13395C52.4125 4.92918 52.506 4.69976 52.5525 4.45882C52.5989 4.21787 52.5974 3.97013 52.548 3.72978C52.4986 3.48942 52.4023 3.26117 52.2646 3.05808C52.1269 2.85498 51.9505 2.68104 51.7454 2.5462C51.5404 2.41136 51.3108 2.31827 51.0698 2.27226C50.8288 2.22624 50.5811 2.22821 50.3408 2.27805C49.8567 2.37846 49.4322 2.66686 49.1605 3.07994C48.8888 3.49301 48.7921 3.99702 48.8917 4.48131C48.9912 4.9656 49.2788 5.39061 49.6914 5.66304C50.104 5.93547 50.6078 6.03306 51.0923 5.93439ZM49.726 10.0259C49.9662 9.97656 50.1942 9.8804 50.3972 9.74291C50.6002 9.60542 50.7741 9.4293 50.909 9.2246C51.0439 9.01991 51.1372 8.79064 51.1835 8.5499C51.2298 8.30915 51.2282 8.06164 51.1789 7.82151C51.1295 7.58137 51.0334 7.3533 50.8959 7.15032C50.7584 6.94735 50.5823 6.77344 50.3776 6.63853C50.1729 6.50361 49.9436 6.41034 49.7029 6.36404C49.4621 6.31773 49.2146 6.31929 48.9745 6.36864C48.4895 6.4683 48.064 6.75653 47.7915 7.16994C47.519 7.58334 47.422 8.08805 47.5216 8.57304C47.6213 9.05802 47.9095 9.48355 48.3229 9.75601C48.7363 10.0285 49.241 10.1256 49.726 10.0259ZM48.3611 14.117C48.6027 14.0692 48.8324 13.974 49.037 13.8371C49.2416 13.7001 49.4172 13.524 49.5534 13.3189C49.6897 13.1138 49.784 12.8838 49.831 12.6421C49.878 12.4003 49.8766 12.1517 49.8271 11.9105C49.7775 11.6693 49.6808 11.4403 49.5423 11.2367C49.4039 11.033 49.2265 10.8588 49.0204 10.724C48.8143 10.5893 48.5836 10.4966 48.3415 10.4514C48.0995 10.4062 47.8509 10.4093 47.61 10.4606C47.1282 10.5632 46.7065 10.8522 46.4368 11.2645C46.1672 11.6768 46.0715 12.179 46.1706 12.6616C46.2698 13.1442 46.5557 13.568 46.966 13.8406C47.3763 14.1132 47.8778 14.2126 48.3611 14.117ZM43.7819 0.970697C43.5393 0.914687 43.288 0.907775 43.0426 0.950371C42.7973 0.992966 42.563 1.08421 42.3534 1.21872C42.1439 1.35324 41.9634 1.52831 41.8226 1.73363C41.6817 1.93896 41.5833 2.17038 41.5333 2.41429C41.4832 2.6582 41.4824 2.90966 41.531 3.15387C41.5796 3.39808 41.6765 3.6301 41.8161 3.83629C41.9557 4.04247 42.1351 4.21865 42.3438 4.35446C42.5525 4.49026 42.7863 4.58294 43.0313 4.62704C43.5108 4.71334 44.0051 4.60875 44.4086 4.33561C44.812 4.06246 45.0927 3.6424 45.1907 3.16512C45.2887 2.68785 45.1962 2.19118 44.933 1.78116C44.6698 1.37115 44.2567 1.0803 43.7819 0.970697ZM43.7819 5.29338C43.5417 5.24354 43.2939 5.24158 43.0529 5.28759C42.8119 5.3336 42.5823 5.42669 42.3773 5.56153C42.1723 5.69637 41.9959 5.87031 41.8581 6.07341C41.7204 6.2765 41.6241 6.50475 41.5747 6.74511C41.5253 6.98547 41.5238 7.2332 41.5702 7.47415C41.6167 7.71509 41.7102 7.94451 41.8454 8.14928C41.9806 8.35405 42.1549 8.53015 42.3582 8.6675C42.5615 8.80485 42.79 8.90075 43.0304 8.94972C43.5149 9.04839 44.0187 8.9508 44.4313 8.67837C44.8439 8.40594 45.1315 7.98093 45.2311 7.49664C45.3306 7.01235 45.2339 6.50835 44.9622 6.09527C44.6905 5.68219 44.266 5.39379 43.7819 5.29338ZM43.7819 9.6156C43.5419 9.56628 43.2944 9.56474 43.0537 9.61105C42.8131 9.65736 42.5839 9.75063 42.3792 9.88552C41.9659 10.1579 41.6778 10.5834 41.5782 11.0682C41.4786 11.5531 41.5757 12.0577 41.8481 12.4709C42.1206 12.8842 42.546 13.1723 43.0309 13.2719C43.2717 13.3232 43.5203 13.3264 43.7624 13.2812C44.0044 13.236 44.2351 13.1433 44.4412 13.0085C44.6473 12.8737 44.8247 12.6995 44.9631 12.4959C45.1016 12.2923 45.1984 12.0633 45.2479 11.822C45.2975 11.5808 45.2988 11.3322 45.2518 11.0905C45.2048 10.8488 45.1105 10.6187 44.9742 10.4136C44.838 10.2085 44.6625 10.0324 44.4578 9.89548C44.2532 9.75851 44.0235 9.66339 43.7819 9.6156ZM35.9065 16.3494C35.2123 16.8384 34.5732 17.4014 34.0005 18.0284L35.6228 21.0787V46.7652C36.4304 47.066 37.2558 47.3165 38.0943 47.5154V20.4621L37.9497 20.19L35.9065 16.3494ZM42.1702 14.0732V48.1233C42.993 48.1772 43.8179 48.1916 44.6421 48.1665V14.0732C43.8198 13.9986 42.9925 13.9986 42.1702 14.0732ZM46.8806 14.4725L45.6428 20.7274L45.6193 20.8462V48.1163C46.4475 48.0598 47.2723 47.9622 48.0908 47.8239V21.0861L49.225 15.3492C48.4739 14.9815 47.6887 14.6878 46.8806 14.4725Z" fill="#1C1A22"/>
<path fill-rule="evenodd" clip-rule="evenodd" d="M39.9337 14.4727C39.125 14.688 38.3394 14.9818 37.5879 15.3499L38.723 21.0886V47.657C39.5197 47.8241 40.3449 47.9521 41.1945 48.0401V20.8459L41.171 20.7271L39.9337 14.4727ZM50.9068 16.3496L48.8641 20.1906L48.7195 20.4628V47.7095C49.5549 47.5453 50.3801 47.333 51.191 47.0735V21.0789L52.8124 18.0286C52.2403 17.4011 51.6014 16.8381 50.9068 16.3496Z" fill="#1C1A22"/>
<path fill-rule="evenodd" clip-rule="evenodd" d="M86.1534 37.0348H0V18.8613H86.1534V37.0348Z" fill="#CDCAD5"/>
<path d="M12.4937 32.4192V27.1129L10.8359 30.3525C10.3901 31.2242 9.08049 31.2242 8.63473 30.3525L6.97878 27.1147V32.4196C6.97878 33.0376 6.97878 33.6556 5.74281 33.6556C4.50684 33.6556 4.50684 33.0376 4.50684 32.4196V21.9871C4.50684 20.8202 6.31152 20.3873 6.84294 21.4271L9.73531 27.0816L12.6286 21.4271C13.1605 20.3873 14.9652 20.8202 14.9652 21.9871V32.4196C14.9652 33.0376 14.9652 33.6556 13.7292 33.6556C12.4932 33.6556 12.4937 33.0372 12.4937 32.4192ZM23.8274 25.0968L19.286 35.4451C19.0378 36.011 18.7896 36.5775 17.66 36.0847C16.5304 35.5929 16.7786 35.027 17.0268 34.4615L18.7855 30.4538L16.3568 24.9536C16.1072 24.3886 15.8576 23.8231 16.9872 23.3262C18.1168 22.8293 18.3664 23.3944 18.616 23.9594L20.1306 27.3896L21.5682 24.1127C21.8169 23.5468 22.0651 22.9813 23.1947 23.4736C24.3238 23.9654 24.0756 24.5313 23.8274 25.0968ZM39.7592 25.0968L35.2183 35.4451C34.9701 36.011 34.7219 36.5775 33.5923 36.0847C32.4627 35.5929 32.7109 35.027 32.9591 34.4615L34.7177 30.4538L32.2891 24.9536C32.0395 24.3886 31.7903 23.8231 32.9195 23.3262C34.0491 22.8289 34.2987 23.3944 34.5483 23.9594L36.0628 27.3887L37.5005 24.1127C37.7492 23.5468 37.9969 22.9813 39.1265 23.4736C40.2561 23.9654 40.0079 24.5313 39.7592 25.0968ZM27.0606 21.9245V32.485C27.0606 33.103 27.0606 33.721 25.8251 33.721C24.5891 33.721 24.5891 33.103 24.5891 32.485V21.9245C24.5891 21.3069 24.5891 20.6885 25.8251 20.6885C27.0606 20.6889 27.0606 21.3069 27.0606 21.9245ZM31.2295 21.9245V32.485C31.2295 33.103 31.2295 33.721 29.9939 33.721C28.758 33.721 28.758 33.103 28.758 32.485V21.9245C28.758 21.3069 28.758 20.6885 29.9939 20.6885C31.2295 20.6889 31.2295 21.3069 31.2295 21.9245ZM40.2225 32.5283V26.9871C40.2225 26.0293 40.6111 25.1617 41.2388 24.5336H41.2434C41.5645 24.2114 41.9461 23.9557 42.3663 23.7813C42.7865 23.6069 43.2369 23.5172 43.6919 23.5173C44.1475 23.5168 44.5987 23.6063 45.0196 23.7807C45.4405 23.9552 45.8228 24.211 46.1445 24.5336C46.4671 24.8554 46.723 25.2378 46.8974 25.6588C47.0718 26.0797 47.1613 26.531 47.1608 26.9867V32.5278C47.1608 33.1458 47.1608 33.7638 45.9248 33.7638C44.6889 33.7638 44.6888 33.1458 44.6888 32.5278V26.9871C44.6888 26.7109 44.5774 26.4617 44.3964 26.2812C44.2085 26.0939 43.954 25.9887 43.6886 25.9887C43.4233 25.9887 43.1688 26.0939 42.9809 26.2812H42.9859C42.893 26.3738 42.8194 26.4838 42.7692 26.605C42.719 26.7261 42.6933 26.856 42.6935 26.9871V32.5283C42.6935 33.1463 42.6935 33.7643 41.4575 33.7643C40.2216 33.7643 40.2225 33.1463 40.2225 32.5283ZM64.8545 32.5283V26.9871C64.8545 26.0325 65.245 25.1645 65.8763 24.5336H65.8708C66.1927 24.211 66.5751 23.9551 66.9961 23.7807C67.4172 23.6063 67.8686 23.5168 68.3243 23.5173C68.9423 23.5173 69.5603 23.5173 69.5603 24.7533C69.5603 25.9888 68.9423 25.9888 68.3243 25.9888C68.048 25.9888 67.7989 26.1007 67.6184 26.2812H67.6138C67.5216 26.3741 67.4487 26.4843 67.3993 26.6054C67.35 26.7266 67.325 26.8563 67.3259 26.9871V32.5283C67.3259 33.1463 67.3259 33.7643 66.09 33.7643C64.854 33.7643 64.8545 33.1463 64.8545 32.5283ZM60.8449 30.7043V29.507L59.3575 29.991C59.1922 30.061 59.0462 30.2484 58.9592 30.4948C58.866 30.7699 58.8604 31.0672 58.9431 31.3458C59.0329 31.4503 59.1429 31.5203 59.2553 31.5498H59.2608C59.3704 31.5792 59.4828 31.5696 59.5703 31.5138L60.8449 30.7043ZM60.8421 26.9139C60.825 26.6749 60.7222 26.45 60.5525 26.2807C60.4601 26.1879 60.3502 26.1143 60.2292 26.0642C60.1082 26.014 59.9785 25.9882 59.8475 25.9883H59.2521C58.6341 25.9883 58.0161 25.9883 58.0161 24.7528C58.0161 23.5168 58.6341 23.5168 59.2521 23.5168H59.8475C60.8053 23.5168 61.6724 23.905 62.3001 24.5332C62.9277 25.1613 63.3164 26.0289 63.3164 26.9867V32.5278C63.3164 33.1458 63.3164 33.7638 62.0804 33.7638C61.5578 33.7638 61.2557 33.6533 61.0821 33.4788L60.8923 33.5994C60.197 34.041 59.3805 34.1364 58.6221 33.9342H58.6276C57.867 33.7285 57.2113 33.2449 56.7902 32.579C56.7527 32.5053 56.7158 32.4314 56.6797 32.357C56.3478 31.5 56.3308 30.5531 56.6318 29.6847C56.9556 28.761 57.6256 28.02 58.4595 27.6899C58.4605 27.6899 58.5305 27.6664 58.5314 27.6655L60.8421 26.9139ZM52.7116 25.9639H53.9665C54.2428 25.9639 54.4928 25.8543 54.6724 25.6766C54.6733 25.6747 54.6752 25.6734 54.677 25.6715L54.6724 25.6766C54.6733 25.6747 54.6752 25.6734 54.677 25.6715C54.8543 25.4915 54.9648 25.2419 54.9648 24.966V24.5299C54.9648 24.2541 54.8525 24.0045 54.6724 23.824H54.677C54.5836 23.731 54.4728 23.6573 54.3508 23.6072C54.2289 23.5571 54.0983 23.5316 53.9665 23.532H52.7116V25.9639ZM52.7116 28.4359V32.5707C52.7116 33.1887 52.7116 33.8066 51.4756 33.8066C50.2397 33.8066 50.2397 33.1887 50.2397 32.5707V22.2965C50.2397 21.6785 50.8577 21.0606 51.4756 21.0606H53.966C54.4209 21.0604 54.8713 21.1501 55.2914 21.3245C55.7115 21.4989 56.093 21.7546 56.414 22.0769H56.4195C56.7422 22.3987 56.998 22.781 57.1724 23.202C57.3468 23.623 57.4364 24.0743 57.4359 24.5299V24.966C57.4361 25.421 57.3463 25.8715 57.1717 26.2916C56.9971 26.7117 56.7412 27.0932 56.4186 27.414L56.414 27.4196C56.0929 27.7417 55.7113 27.9972 55.2913 28.1716C54.8712 28.346 54.4208 28.4358 53.966 28.4359H52.7116ZM72.9689 30.7043V29.507L71.4815 29.991C71.3152 30.061 71.1692 30.2484 71.0831 30.4948C70.99 30.7699 70.9843 31.0672 71.067 31.3458C71.1559 31.4503 71.2669 31.5203 71.3792 31.5498H71.3838C71.4352 31.5655 71.4894 31.5704 71.5428 31.5642C71.5962 31.558 71.6477 31.5409 71.6942 31.5138L72.9689 30.7043ZM72.9652 26.9139C72.9473 26.6624 72.8348 26.427 72.6502 26.2552C72.4656 26.0834 72.2227 25.9881 71.9705 25.9883H71.376C70.758 25.9883 70.14 25.9883 70.14 24.7528C70.14 23.5168 70.758 23.5168 71.376 23.5168H71.9705C72.9283 23.5168 73.7955 23.905 74.4231 24.5332C74.7459 24.8549 75.0019 25.2373 75.1763 25.6584C75.3507 26.0795 75.4402 26.5309 75.4394 26.9867V32.5278C75.4394 33.1458 75.4394 33.7638 74.2035 33.7638C73.6808 33.7638 73.3796 33.6533 73.2051 33.4788L73.0154 33.5994C72.32 34.041 71.5036 34.1364 70.746 33.9342H70.7507C69.9903 33.7285 69.3349 33.2448 68.9142 32.579C68.8759 32.5055 68.8388 32.4315 68.8028 32.357C68.4708 31.5 68.4542 30.5529 68.7558 29.6847C69.0795 28.761 69.7486 28.02 70.5826 27.6899C70.5835 27.6899 70.6535 27.6664 70.6544 27.6655L72.9652 26.9139ZM80.6444 26.1785C80.6417 26.1767 79.5526 25.5661 79.3827 26.0012C79.2196 26.4157 79.2307 26.6777 79.3546 26.8356C79.5696 27.1101 80.0472 27.3321 80.6463 27.5227C81.2518 27.7114 81.7759 28.0991 82.1337 28.6228C82.4781 29.1193 82.6591 29.693 82.7093 30.2599C82.7534 30.7872 82.6938 31.318 82.5338 31.8224C82.3414 32.4284 81.9914 32.9566 81.5272 33.2775C81.3545 33.3982 81.1726 33.4986 80.9866 33.5787C80.3428 33.8568 79.5305 33.9591 78.7568 33.808C77.9418 33.6478 77.1543 33.2135 76.6045 32.421C76.4725 32.2314 76.3596 32.0292 76.2674 31.8173C76.0229 31.25 75.7784 30.6822 76.9121 30.195C78.0472 29.7073 78.2917 30.2751 78.5363 30.8424C78.5685 30.9161 78.6003 30.9755 78.6316 31.0216C78.772 31.2233 78.9922 31.3384 79.2298 31.384C79.4918 31.4367 79.7636 31.4111 80.0112 31.3103C80.0633 31.2877 80.102 31.267 80.1273 31.25C80.1301 31.2481 80.1434 31.1869 80.1775 31.0782C80.2368 30.882 80.2569 30.6761 80.2369 30.4722C80.2208 30.2898 80.1784 30.1287 80.1056 30.0223C80.0558 29.9527 79.9839 29.9021 79.9016 29.8786C78.8747 29.5512 77.9851 29.082 77.4131 28.3516C76.7505 27.5071 76.5543 26.453 77.0839 25.1037C78.2973 22.0101 81.8311 24.0206 81.8408 24.0262C82.3814 24.3259 82.9211 24.6262 82.3229 25.7028C81.7247 26.779 81.185 26.4788 80.6444 26.1785Z" fill="#1C1A22"/>
</svg>
