<svg width="49" height="29" viewBox="0 0 49 29" fill="none" xmlns="http://www.w3.org/2000/svg">
<path fill-rule="evenodd" clip-rule="evenodd" d="M38.679 14.4834C38.679 22.4822 32.1947 28.9666 24.1953 28.9666C16.1963 28.9666 9.71191 22.4822 9.71191 14.4834C9.71191 6.48411 16.1963 0 24.1953 0C32.1947 0 38.679 6.48411 38.679 14.4834Z" fill="#CDCAD5"/>
<path fill-rule="evenodd" clip-rule="evenodd" d="M17.8898 3.77837C17.8898 3.50238 17.7802 3.2377 17.585 3.04255C17.3899 2.8474 17.1252 2.73777 16.8492 2.73777C16.5732 2.73777 16.3085 2.8474 16.1134 3.04255C15.9182 3.2377 15.8086 3.50238 15.8086 3.77837C15.8086 4.05435 15.9182 4.31903 16.1134 4.51418C16.3085 4.70933 16.5732 4.81897 16.8492 4.81897C17.1252 4.81897 17.3899 4.70933 17.585 4.51418C17.7802 4.31903 17.8898 4.05435 17.8898 3.77837ZM19.0944 5.85905C19.0966 5.72104 19.0712 5.58398 19.0199 5.45585C18.9686 5.32772 18.8923 5.21108 18.7954 5.11273C18.6986 5.01438 18.5831 4.93628 18.4558 4.88297C18.3285 4.82966 18.1918 4.80222 18.0538 4.80224C17.9158 4.80226 17.7791 4.82973 17.6518 4.88307C17.5245 4.93641 17.4091 5.01454 17.3123 5.11291C17.2155 5.21129 17.1392 5.32795 17.0879 5.45609C17.0366 5.58423 17.0113 5.7213 17.0135 5.85931C17.0178 6.13243 17.1293 6.3929 17.324 6.5845C17.5187 6.7761 17.7809 6.88347 18.0541 6.88344C18.3272 6.8834 18.5894 6.77597 18.784 6.58432C18.9787 6.39267 19.0902 6.13217 19.0944 5.85905ZM20.2993 7.93974C20.2993 7.80312 20.2724 7.66783 20.2202 7.54159C20.1679 7.41536 20.0913 7.30066 19.9948 7.20403C19.8982 7.1074 19.7835 7.03074 19.6573 6.97843C19.5311 6.92611 19.3958 6.89917 19.2592 6.89914C19.1226 6.8991 18.9873 6.92598 18.8611 6.97823C18.7348 7.03048 18.6201 7.10708 18.5235 7.20366C18.4269 7.30025 18.3502 7.41491 18.2979 7.54112C18.2456 7.66733 18.2186 7.8026 18.2186 7.93922C18.2185 8.21514 18.3281 8.47978 18.5231 8.67493C18.7182 8.87008 18.9828 8.97975 19.2587 8.97982C19.5346 8.97989 19.7993 8.87035 19.9944 8.67529C20.1896 8.48024 20.2992 8.21565 20.2993 7.93974ZM19.9109 3.30812C20.0466 3.34056 20.1873 3.3454 20.3249 3.32236C20.4624 3.29931 20.5939 3.24886 20.7116 3.17398C20.8293 3.09911 20.9307 3.00135 21.0098 2.88651C21.0889 2.77168 21.1442 2.6421 21.1723 2.50549C21.2003 2.36888 21.2007 2.22802 21.1732 2.09129C21.1458 1.95455 21.0911 1.82473 21.0125 1.70953C20.9339 1.59433 20.8329 1.49611 20.7156 1.4207C20.5983 1.34529 20.467 1.29423 20.3296 1.27056C20.0633 1.2247 19.7896 1.28421 19.5664 1.43651C19.3432 1.58881 19.188 1.82195 19.1336 2.08662C19.0793 2.3513 19.13 2.62675 19.275 2.85471C19.4201 3.08268 19.6481 3.24528 19.9109 3.30812ZM19.8624 4.36027C19.8137 4.62786 19.8716 4.9039 20.0238 5.12931C20.1761 5.35472 20.4105 5.51158 20.6769 5.56633C20.9433 5.62108 21.2206 5.56936 21.4494 5.42225C21.6782 5.27513 21.8403 5.04431 21.901 4.77918C21.9497 4.51159 21.8918 4.23555 21.7396 4.01014C21.5873 3.78473 21.3529 3.62787 21.0865 3.57312C20.8201 3.51837 20.5428 3.57009 20.314 3.7172C20.0852 3.86432 19.9231 4.09514 19.8624 4.36027ZM20.624 6.64091C20.5965 6.77478 20.5957 6.91276 20.6215 7.04695C20.6474 7.18115 20.6994 7.30894 20.7747 7.42303C20.8499 7.53711 20.9469 7.63527 21.06 7.71188C21.1732 7.78849 21.3004 7.84206 21.4342 7.86953C21.5681 7.89701 21.7061 7.89784 21.8403 7.87199C21.9745 7.84614 22.1022 7.79411 22.2163 7.71888C22.3304 7.64364 22.4286 7.54667 22.5052 7.4335C22.5818 7.32033 22.6354 7.19318 22.6628 7.05931C22.7183 6.78894 22.6641 6.50761 22.5122 6.2772C22.3602 6.04678 22.123 5.88617 21.8526 5.83069C21.5823 5.7752 21.3009 5.8294 21.0705 5.98134C20.8401 6.13329 20.6795 6.37054 20.624 6.64091ZM31.5413 2.73802C31.4047 2.73799 31.2693 2.76488 31.1431 2.81717C31.0168 2.86946 30.9021 2.94611 30.8055 3.04275C30.7089 3.13939 30.6323 3.25412 30.58 3.38038C30.5278 3.50665 30.5009 3.64197 30.501 3.77862C30.501 3.98445 30.562 4.18564 30.6764 4.35678C30.7907 4.52791 30.9532 4.66128 31.1434 4.74004C31.3336 4.81879 31.5428 4.83938 31.7447 4.79921C31.9465 4.75904 32.1319 4.6599 32.2775 4.51435C32.423 4.36879 32.5221 4.18335 32.5622 3.98148C32.6023 3.7796 32.5817 3.57037 32.5029 3.38023C32.4241 3.19009 32.2907 3.02758 32.1195 2.91327C31.9483 2.79896 31.7471 2.73797 31.5413 2.73802ZM30.3362 4.81871C30.0643 4.82475 29.8055 4.93701 29.6153 5.13145C29.4252 5.3259 29.3187 5.58707 29.3187 5.85905C29.3187 6.13103 29.4252 6.39221 29.6153 6.58665C29.8055 6.78109 30.0643 6.89335 30.3362 6.89939C30.4728 6.89939 30.6081 6.87248 30.7343 6.8202C30.8605 6.76792 30.9752 6.69129 31.0718 6.59468C31.1684 6.49808 31.245 6.38339 31.2973 6.25717C31.3496 6.13095 31.3765 5.99567 31.3765 5.85905C31.3765 5.72243 31.3496 5.58715 31.2973 5.46093C31.245 5.33471 31.1684 5.22002 31.0718 5.12342C30.9752 5.02681 30.8605 4.95018 30.7343 4.8979C30.6081 4.84562 30.4728 4.81871 30.3362 4.81871ZM29.1318 6.89939C28.9952 6.89936 28.8598 6.92625 28.7336 6.97854C28.6073 7.03083 28.4926 7.10748 28.396 7.20412C28.2994 7.30076 28.2228 7.41549 28.1705 7.54175C28.1183 7.66802 28.0914 7.80334 28.0915 7.93999C28.0915 8.14582 28.1525 8.34701 28.2669 8.51814C28.3812 8.68928 28.5437 8.82265 28.7339 8.90141C28.9241 8.98016 29.1333 9.00075 29.3352 8.96058C29.537 8.92041 29.7225 8.82127 29.868 8.67572C30.0135 8.53016 30.1126 8.34472 30.1527 8.14285C30.1928 7.94097 30.1722 7.73174 30.0934 7.54159C30.0146 7.35145 29.8812 7.18895 29.71 7.07464C29.5388 6.96033 29.3376 6.89934 29.1318 6.89939ZM28.4796 3.30812C28.6136 3.28082 28.7409 3.22737 28.8543 3.15081C28.9676 3.07425 29.0647 2.97609 29.1401 2.86195C29.2155 2.74781 29.2676 2.61993 29.2935 2.48562C29.3194 2.35132 29.3185 2.21323 29.291 2.07925C29.2635 1.94528 29.2098 1.81804 29.133 1.70484C29.0562 1.59163 28.9579 1.49468 28.8436 1.41952C28.7294 1.34436 28.6014 1.29247 28.467 1.26682C28.3327 1.24117 28.1946 1.24227 28.0607 1.27005C27.7908 1.32602 27.5542 1.48677 27.4028 1.71702C27.2513 1.94728 27.1974 2.22821 27.2529 2.49816C27.3084 2.76811 27.4687 3.00501 27.6987 3.15687C27.9287 3.30872 28.2095 3.36312 28.4796 3.30812ZM27.718 5.58876C27.8518 5.56126 27.979 5.50766 28.0921 5.43102C28.2053 5.35438 28.3022 5.25621 28.3774 5.14211C28.4526 5.02801 28.5046 4.90022 28.5304 4.76603C28.5562 4.63183 28.5553 4.49387 28.5278 4.36001C28.5003 4.22616 28.4467 4.09903 28.3701 3.98589C28.2935 3.87275 28.1953 3.77581 28.0812 3.70061C27.9671 3.62541 27.8393 3.57342 27.7051 3.54761C27.5709 3.5218 27.4329 3.52267 27.2991 3.55017C27.0287 3.60572 26.7916 3.76639 26.6397 3.99682C26.4878 4.22726 26.4337 4.50859 26.4892 4.77892C26.5448 5.04926 26.7055 5.28645 26.9359 5.43832C27.1663 5.5902 27.4477 5.64431 27.718 5.58876ZM26.9572 7.86915C27.0918 7.84251 27.2199 7.78949 27.3339 7.71314C27.448 7.6368 27.5458 7.53863 27.6218 7.42431C27.6977 7.30999 27.7503 7.18176 27.7765 7.04703C27.8027 6.91229 27.8019 6.77371 27.7743 6.63926C27.7467 6.50481 27.6928 6.37715 27.6156 6.26365C27.5384 6.15014 27.4395 6.05303 27.3247 5.9779C27.2098 5.90278 27.0812 5.85113 26.9463 5.82593C26.8113 5.80073 26.6728 5.80248 26.5385 5.83107C26.2699 5.88828 26.0349 6.04936 25.8846 6.27918C25.7343 6.50901 25.6809 6.78893 25.7362 7.05792C25.7915 7.32691 25.9508 7.56314 26.1795 7.71511C26.4083 7.86707 26.6878 7.92244 26.9572 7.86915ZM24.4047 0.541318C24.2695 0.510097 24.1294 0.506245 23.9926 0.529988C23.8559 0.553731 23.7253 0.604589 23.6085 0.679569C23.4917 0.754549 23.391 0.852135 23.3125 0.966584C23.234 1.08103 23.1792 1.21003 23.1513 1.34599C23.1234 1.48194 23.1229 1.62211 23.15 1.75823C23.1771 1.89436 23.2311 2.02369 23.3089 2.13862C23.3867 2.25355 23.4868 2.35176 23.6031 2.42745C23.7194 2.50315 23.8497 2.55481 23.9863 2.57939C24.2536 2.6275 24.5291 2.5692 24.754 2.41694C24.9789 2.26469 25.1354 2.03055 25.19 1.76451C25.2446 1.49847 25.193 1.22162 25.0463 0.993079C24.8996 0.764536 24.6693 0.60241 24.4047 0.541318ZM24.4047 2.95082C24.2708 2.92304 24.1327 2.92194 23.9983 2.94759C23.864 2.97324 23.736 3.02513 23.6217 3.10029C23.5075 3.17545 23.4091 3.2724 23.3324 3.38561C23.2556 3.49881 23.2019 3.62605 23.1744 3.76002C23.1468 3.894 23.146 4.03209 23.1719 4.16639C23.1978 4.3007 23.2499 4.42858 23.3253 4.54272C23.4006 4.65686 23.4978 4.75502 23.6111 4.83158C23.7244 4.90814 23.8518 4.96159 23.9858 4.98889C24.2558 5.04389 24.5367 4.98949 24.7667 4.83764C24.9966 4.68578 25.157 4.44888 25.2125 4.17893C25.2679 3.90898 25.2141 3.62805 25.0626 3.39779C24.9112 3.16754 24.6746 3.00679 24.4047 2.95082ZM24.4047 5.36006C24.2709 5.33257 24.133 5.33171 23.9988 5.35752C23.8646 5.38334 23.7369 5.43532 23.6228 5.51051C23.3925 5.66236 23.2319 5.8995 23.1763 6.16977C23.1208 6.44003 23.1749 6.72128 23.3268 6.95165C23.4786 7.18201 23.7158 7.34262 23.9861 7.39813C24.1203 7.42673 24.2589 7.42847 24.3938 7.40328C24.5287 7.37807 24.6573 7.32642 24.7722 7.2513C24.8871 7.17618 24.9859 7.07906 25.0631 6.96556C25.1403 6.85205 25.1942 6.7244 25.2219 6.58995C25.2495 6.4555 25.2502 6.31691 25.224 6.18218C25.1979 6.04744 25.1453 5.91922 25.0693 5.80489C24.9934 5.69057 24.8955 5.59241 24.7815 5.51606C24.6674 5.43972 24.5394 5.3867 24.4047 5.36006ZM20.0149 9.11355C19.6279 9.38612 19.2717 9.69991 18.9525 10.0494L19.8568 11.7497V26.0676C20.3069 26.2352 20.767 26.3749 21.2344 26.4857V11.406L21.1538 11.2543L20.0149 9.11355ZM23.5063 7.84476V26.8245C23.965 26.8546 24.4248 26.8626 24.8842 26.8487V7.84476C24.4258 7.8032 23.9647 7.8032 23.5063 7.84476ZM26.1319 8.06731L25.442 11.5539L25.4289 11.6201V26.8207C25.8905 26.7891 26.3503 26.7348 26.8065 26.6577V11.7538L27.4387 8.55604C27.02 8.35103 26.5824 8.18735 26.1319 8.06731Z" fill="#1C1A22"/>
<path fill-rule="evenodd" clip-rule="evenodd" d="M22.2587 8.06738C21.808 8.18742 21.3701 8.35119 20.9512 8.55637L21.5839 11.7552V26.5646C22.028 26.6578 22.4879 26.7291 22.9615 26.7781V11.6199L22.9484 11.5537L22.2587 8.06738ZM28.3753 9.11363L27.2366 11.2546L27.156 11.4063V26.5938C27.6217 26.5023 28.0816 26.384 28.5336 26.2394V11.7498L29.4374 10.0495C29.1186 9.69973 28.7624 9.38591 28.3753 9.11363Z" fill="#1C1A22"/>
<path fill-rule="evenodd" clip-rule="evenodd" d="M48.0226 20.6427H0V10.5127H48.0226V20.6427Z" fill="#CDCAD5"/>
<path d="M6.96365 18.07V15.1123L6.03959 16.918C5.79112 17.4039 5.06111 17.4039 4.81264 16.918L3.8896 15.1133V18.0703C3.8896 18.4148 3.8896 18.7592 3.20066 18.7592C2.51172 18.7592 2.51172 18.4148 2.51172 18.0703V12.2551C2.51172 11.6047 3.51767 11.3634 3.81388 11.943L5.42611 15.0948L7.03886 11.943C7.33533 11.3634 8.34128 11.6047 8.34128 12.2551V18.0703C8.34128 18.4148 8.34128 18.7592 7.65234 18.7592C6.9634 18.7592 6.96365 18.4145 6.96365 18.07ZM13.2812 13.9885L10.7498 19.7567C10.6114 20.0722 10.473 20.3879 9.8434 20.1132C9.21375 19.8391 9.3521 19.5236 9.49046 19.2084L10.4707 16.9745L9.11698 13.9087C8.97786 13.5937 8.83873 13.2785 9.46838 13.0015C10.098 12.7246 10.2372 13.0395 10.3763 13.3545L11.2205 15.2665L12.0219 13.44C12.1605 13.1245 12.2988 12.8093 12.9285 13.0837C13.5579 13.3578 13.4195 13.6733 13.2812 13.9885ZM22.1617 13.9885L19.6305 19.7567C19.4922 20.0722 19.3538 20.3879 18.7242 20.1132C18.0945 19.8391 18.2329 19.5236 18.3712 19.2084L19.3515 16.9745L17.9978 13.9087C17.8586 13.5937 17.7198 13.2785 18.3492 13.0015C18.9788 12.7243 19.1179 13.0395 19.257 13.3545L20.1013 15.266L20.9026 13.44C21.0413 13.1245 21.1794 12.8093 21.809 13.0837C22.4386 13.3578 22.3003 13.6733 22.1617 13.9885ZM15.0834 12.2202V18.1067C15.0834 18.4512 15.0834 18.7957 14.3947 18.7957C13.7057 18.7957 13.7057 18.4512 13.7057 18.1067V12.2202C13.7057 11.876 13.7057 11.5312 14.3947 11.5312C15.0834 11.5315 15.0834 11.876 15.0834 12.2202ZM17.4071 12.2202V18.1067C17.4071 18.4512 17.4071 18.7957 16.7184 18.7957C16.0295 18.7957 16.0295 18.4512 16.0295 18.1067V12.2202C16.0295 11.876 16.0295 11.5312 16.7184 11.5312C17.4071 11.5315 17.4071 11.876 17.4071 12.2202ZM22.4199 18.1309V15.0422C22.4199 14.5083 22.6366 14.0247 22.9864 13.6746H22.989C23.168 13.495 23.3807 13.3524 23.6149 13.2552C23.8491 13.158 24.1002 13.108 24.3538 13.1081C24.6077 13.1078 24.8592 13.1577 25.0938 13.2549C25.3285 13.3521 25.5415 13.4947 25.7209 13.6746C25.9007 13.8539 26.0433 14.0671 26.1405 14.3017C26.2378 14.5364 26.2877 14.7879 26.2874 15.0419V18.1306C26.2874 18.4751 26.2874 18.8196 25.5984 18.8196C24.9095 18.8196 24.9095 18.4751 24.9095 18.1306V15.0422C24.9095 14.8882 24.8474 14.7493 24.7465 14.6487C24.6418 14.5443 24.4999 14.4856 24.352 14.4856C24.2041 14.4856 24.0622 14.5443 23.9574 14.6487H23.9603C23.9085 14.7003 23.8674 14.7616 23.8395 14.8291C23.8115 14.8967 23.7972 14.9691 23.7973 15.0422V18.1309C23.7973 18.4753 23.7973 18.8198 23.1083 18.8198C22.4194 18.8198 22.4199 18.4753 22.4199 18.1309ZM36.15 18.1309V15.0422C36.15 14.5101 36.3676 14.0262 36.7195 13.6746H36.7165C36.8959 13.4947 37.1091 13.3521 37.3438 13.2549C37.5785 13.1577 37.83 13.1078 38.0841 13.1081C38.4286 13.1081 38.773 13.1081 38.773 13.797C38.773 14.4857 38.4286 14.4857 38.0841 14.4857C37.9301 14.4857 37.7912 14.5481 37.6906 14.6487H37.688C37.6367 14.7005 37.596 14.7619 37.5685 14.8294C37.541 14.8969 37.5271 14.9693 37.5276 15.0422V18.1309C37.5276 18.4753 37.5276 18.8198 36.8386 18.8198C36.1497 18.8198 36.15 18.4753 36.15 18.1309ZM33.915 17.1141V16.4468L33.0859 16.7165C32.9938 16.7556 32.9124 16.86 32.8639 16.9973C32.812 17.1507 32.8088 17.3165 32.8549 17.4717C32.905 17.53 32.9663 17.569 33.0289 17.5854H33.032C33.0931 17.6018 33.1557 17.5964 33.2045 17.5654L33.915 17.1141ZM33.9135 15.0014C33.9039 14.8681 33.8466 14.7428 33.752 14.6484C33.7005 14.5967 33.6392 14.5557 33.5718 14.5277C33.5044 14.4997 33.432 14.4854 33.359 14.4854H33.0271C32.6827 14.4854 32.3382 14.4854 32.3382 13.7967C32.3382 13.1078 32.6827 13.1078 33.0271 13.1078H33.359C33.8929 13.1078 34.3763 13.3242 34.7261 13.6743C35.076 14.0244 35.2926 14.508 35.2926 15.0419V18.1306C35.2926 18.4751 35.2926 18.8196 34.6037 18.8196C34.3124 18.8196 34.144 18.7579 34.0472 18.6607L33.9414 18.7279C33.5539 18.9741 33.0988 19.0272 32.676 18.9145H32.6791C32.2551 18.7999 31.8896 18.5303 31.6549 18.1591C31.634 18.1181 31.6134 18.0768 31.5933 18.0354C31.4083 17.5577 31.3988 17.0298 31.5666 16.5458C31.7471 16.0309 32.1205 15.6179 32.5854 15.4339C32.5859 15.4339 32.6249 15.4208 32.6254 15.4203L33.9135 15.0014ZM29.3815 14.4718H30.0809C30.2349 14.4718 30.3743 14.4107 30.4744 14.3117C30.4749 14.3106 30.476 14.3099 30.477 14.3088L30.4744 14.3117C30.4749 14.3106 30.476 14.3099 30.477 14.3088C30.5758 14.2085 30.6374 14.0693 30.6374 13.9156V13.6725C30.6374 13.5188 30.5748 13.3796 30.4744 13.279H30.477C30.4249 13.2272 30.3631 13.1861 30.2952 13.1582C30.2272 13.1302 30.1544 13.116 30.0809 13.1163H29.3815V14.4718ZM29.3815 15.8497V18.1545C29.3815 18.499 29.3814 18.8434 28.6925 18.8434C28.0036 18.8434 28.0036 18.499 28.0036 18.1545V12.4276C28.0036 12.0831 28.348 11.7387 28.6925 11.7387H30.0807C30.3342 11.7386 30.5853 11.7886 30.8194 11.8858C31.0536 11.983 31.2663 12.1255 31.4452 12.3052H31.4483C31.6281 12.4845 31.7707 12.6977 31.8679 12.9323C31.9652 13.167 32.0151 13.4185 32.0148 13.6725V13.9156C32.0149 14.1692 31.9649 14.4203 31.8675 14.6545C31.7702 14.8887 31.6276 15.1013 31.4478 15.2801L31.4452 15.2832C31.2662 15.4627 31.0535 15.6052 30.8194 15.7024C30.5852 15.7996 30.3342 15.8497 30.0807 15.8497H29.3815ZM40.673 17.1141V16.4468L39.8439 16.7165C39.7512 16.7556 39.6699 16.86 39.6219 16.9973C39.5699 17.1507 39.5668 17.3165 39.6129 17.4717C39.6624 17.53 39.7243 17.569 39.7869 17.5854H39.7895C39.8182 17.5942 39.8483 17.5969 39.8781 17.5935C39.9079 17.59 39.9366 17.5805 39.9625 17.5654L40.673 17.1141ZM40.6709 15.0014C40.661 14.8612 40.5983 14.7299 40.4954 14.6342C40.3925 14.5384 40.2571 14.4853 40.1165 14.4854H39.7851C39.4407 14.4854 39.0962 14.4854 39.0962 13.7967C39.0962 13.1078 39.4407 13.1078 39.7851 13.1078H40.1165C40.6504 13.1078 41.1338 13.3242 41.4836 13.6743C41.6635 13.8537 41.8062 14.0668 41.9034 14.3015C42.0007 14.5363 42.0505 14.7879 42.0501 15.0419V18.1306C42.0501 18.4751 42.0501 18.8196 41.3612 18.8196C41.0698 18.8196 40.902 18.7579 40.8047 18.6607L40.6989 18.7279C40.3113 18.9741 39.8562 19.0272 39.434 18.9145H39.4366C39.0127 18.7999 38.6474 18.5303 38.4129 18.1591C38.3916 18.1182 38.3709 18.0769 38.3508 18.0354C38.1657 17.5577 38.1565 17.0298 38.3246 16.5458C38.505 16.0309 38.878 15.6179 39.3429 15.4339C39.3434 15.4339 39.3824 15.4208 39.3829 15.4203L40.6709 15.0014ZM44.9514 14.5914C44.9499 14.5904 44.3428 14.2501 44.2481 14.4926C44.1572 14.7236 44.1634 14.8697 44.2324 14.9577C44.3523 15.1107 44.6185 15.2344 44.9524 15.3407C45.29 15.4459 45.5821 15.662 45.7815 15.9539C45.9735 16.2306 46.0744 16.5505 46.1024 16.8664C46.127 17.1603 46.0938 17.4562 46.0046 17.7374C45.8973 18.0752 45.7022 18.3696 45.4435 18.5485C45.3472 18.6157 45.2458 18.6717 45.1421 18.7164C44.7833 18.8714 44.3305 18.9284 43.8993 18.8442C43.4449 18.7549 43.006 18.5128 42.6995 18.0711C42.626 17.9654 42.563 17.8526 42.5116 17.7345C42.3753 17.4183 42.239 17.1018 42.871 16.8302C43.5037 16.5584 43.64 16.8749 43.7763 17.1911C43.7943 17.2322 43.812 17.2653 43.8294 17.291C43.9077 17.4034 44.0304 17.4676 44.1629 17.493C44.309 17.5224 44.4605 17.5081 44.5985 17.4519C44.6275 17.4394 44.649 17.4278 44.6632 17.4183C44.6647 17.4173 44.6721 17.3831 44.6911 17.3226C44.7242 17.2132 44.7354 17.0984 44.7243 16.9848C44.7153 16.8831 44.6917 16.7933 44.6511 16.734C44.6233 16.6952 44.5832 16.667 44.5374 16.6539C43.965 16.4714 43.4691 16.2098 43.1503 15.8027C42.7809 15.332 42.6715 14.7444 42.9667 13.9923C43.6431 12.2679 45.6129 13.3886 45.6183 13.3917C45.9196 13.5588 46.2205 13.7262 45.887 14.3263C45.5536 14.9262 45.2528 14.7588 44.9514 14.5914Z" fill="#1C1A22"/>
</svg>
