<svg width="78" height="17" viewBox="0 0 78 17" fill="none" xmlns="http://www.w3.org/2000/svg">
<path d="M2.4437 13.181H1.6378V7.87763H2.46969C3.82152 7.87763 4.95238 8.73552 4.95238 10.5293C4.93939 12.3361 3.79553 13.181 2.4437 13.181ZM2.50869 6.38281H0.272966C0.129984 6.38281 0 6.4998 0 6.65578V14.4288C0 14.5718 0.116985 14.6888 0.272966 14.6888H2.49569C4.86139 14.6888 6.60318 13.168 6.60318 10.5423C6.61618 7.91662 4.87439 6.38281 2.50869 6.38281ZM0.272966 6.38281C0.129984 6.38281 0 6.4998 0 6.65578V14.4288C0 14.5718 0.116985 14.6888 0.272966 14.6888" fill="#CDCAD5"/>
<path d="M11.894 12.6338C12.4919 12.6338 12.9729 13.1147 12.9729 13.6997C12.9729 14.2846 12.4919 14.7655 11.894 14.7655C11.3091 14.7655 10.8281 14.2846 10.8281 13.6997C10.8281 13.1147 11.3091 12.6338 11.894 12.6338Z" fill="#CDCAD5"/>
<path d="M17.5734 10.0874H16.2605V7.77364H17.5734C18.3923 7.77364 18.8732 8.22858 18.8732 8.9305C18.8732 9.61941 18.3923 10.0874 17.5734 10.0874ZM18.7562 11.2832C19.8481 10.9712 20.524 10.0874 20.524 8.9305C20.524 7.48768 19.4971 6.38281 17.8723 6.38281H14.8957C14.7527 6.38281 14.6357 6.4998 14.6357 6.65578V14.4288C14.6357 14.5718 14.7527 14.6888 14.8957 14.6888H15.9876C16.1306 14.6888 16.2475 14.5718 16.2475 14.4288V11.4912H17.0924L18.5872 14.4288C18.6652 14.5718 18.8472 14.6888 18.9902 14.6888H20.251C20.394 14.6888 20.459 14.5718 20.381 14.4288L18.7562 11.2832Z" fill="#CDCAD5"/>
<path d="M10.7755 8.87793C10.2816 8.87793 9.48865 9.02091 9.13769 9.77482V9.18989C9.13769 9.04691 9.02071 8.94292 8.89073 8.92992H7.88985C7.74687 8.92992 7.62988 9.04691 7.62988 9.18989V14.4282C7.62988 14.5712 7.74687 14.6882 7.88985 14.6882H8.91672C9.0597 14.6882 9.17669 14.5712 9.17669 14.4282V12.0625C9.17669 10.8277 9.8656 10.4377 10.6585 10.4377C10.8015 10.4377 10.9445 10.4507 11.1264 10.4897V8.91692C11.0225 8.89093 10.9055 8.87793 10.7755 8.87793Z" fill="#CDCAD5"/>
<path d="M47.145 8.91699H46.0141C45.8712 8.91699 45.6892 9.03398 45.5982 9.17696L44.2984 12.2836L42.8815 9.17696C42.8035 9.03398 42.6086 8.91699 42.4656 8.91699H41.2567C41.1137 8.91699 41.0618 9.03398 41.1397 9.18996L43.4535 13.9604L42.2186 16.69C42.1406 16.833 42.2056 16.95 42.3486 16.95H43.4665C43.6094 16.95 43.7784 16.833 43.8564 16.703L47.236 9.18996C47.34 9.03398 47.288 8.91699 47.145 8.91699Z" fill="#CDCAD5"/>
<path d="M52.0068 11.1914L51.1879 11.0095C50.876 10.9575 50.655 10.7755 50.655 10.4895C50.655 10.1646 50.98 9.9176 51.3959 9.9176C51.9028 9.9176 52.1628 10.1776 52.2798 10.4635C52.3188 10.5935 52.4358 10.6845 52.5788 10.6455L53.4107 10.4635C53.5406 10.4245 53.6186 10.2945 53.5926 10.1646C53.4237 9.55364 52.8127 8.76074 51.3829 8.76074C50.1481 8.76074 49.2252 9.61864 49.2252 10.6455C49.2252 11.4514 49.7321 12.1273 50.837 12.3613L51.6039 12.5433C52.0458 12.6343 52.2278 12.8422 52.2278 13.1022C52.2278 13.4012 51.9808 13.6741 51.4609 13.6741C50.837 13.6741 50.512 13.3232 50.421 12.9072C50.408 12.8422 50.343 12.8162 50.2781 12.8162L49.3032 13.0242C49.1732 13.0632 49.0952 13.1932 49.1212 13.3362C49.3032 13.9861 49.9531 14.857 51.4739 14.857C52.9817 14.857 53.7096 13.8951 53.7096 12.9592C53.7096 12.1143 53.1377 11.4254 52.0068 11.1914Z" fill="#CDCAD5"/>
<path d="M22.4615 11.1397C22.5005 10.6068 22.9424 10.0089 23.7483 10.0089C24.6452 10.0089 25.0092 10.5678 25.0352 11.1397H22.4615ZM23.7223 8.74805C22.2535 8.74805 20.8887 9.9439 20.8887 11.7767C20.8887 13.7264 22.2795 14.8573 23.8653 14.8573C25.1781 14.8573 26.062 14.1294 26.413 13.2325C26.426 13.1025 26.348 12.9855 26.231 12.9595L25.3991 12.7126C25.3081 12.6866 25.1911 12.7256 25.1261 12.8295C24.9182 13.2455 24.5282 13.5314 23.8913 13.5314C23.1244 13.5314 22.4745 12.9855 22.4355 12.2186H26.309C26.452 12.2186 26.569 12.1016 26.569 11.9586C26.569 11.8937 26.582 11.8157 26.582 11.7377C26.569 9.87891 25.5031 8.74805 23.7223 8.74805Z" fill="#CDCAD5"/>
<path d="M30.4555 13.4273C29.6366 13.4273 29.0256 12.8164 29.0256 11.7895C29.0256 10.7626 29.6625 10.1777 30.4555 10.1777C31.2484 10.1777 31.8723 10.7496 31.8723 11.7765C31.8723 12.8164 31.2484 13.4273 30.4555 13.4273ZM33.3801 14.4412V9.07284V6.47316C33.3801 6.33018 33.2631 6.2002 33.1201 6.2002H32.1192C31.9893 6.2002 31.8723 6.30418 31.8593 6.43417C31.8593 6.44717 31.8463 6.46016 31.8463 6.47316V9.3978H31.8593V9.48879C31.6903 9.18983 31.2224 8.77388 30.2345 8.77388C28.6097 8.77388 27.4658 10.0997 27.4658 11.7765C27.4658 13.5183 28.6357 14.8051 30.2735 14.8051C31.0404 14.8051 31.6253 14.4542 31.8853 13.9992C31.8853 14.0122 31.8853 14.0122 31.8853 14.0252V14.0122C31.8853 14.0902 31.8853 14.1682 31.8853 14.2332C31.8983 14.3632 31.9113 14.4802 31.9243 14.5712C31.9503 14.6231 32.0023 14.6621 32.0542 14.6621H33.1201C33.2501 14.6751 33.3541 14.5712 33.3801 14.4412Z" fill="#CDCAD5"/>
<path d="M37.3702 13.4273C36.5513 13.4273 35.9404 12.8164 35.9404 11.7895C35.9404 10.7626 36.5773 10.1777 37.3702 10.1777C38.1631 10.1777 38.787 10.7496 38.787 11.7765C38.787 12.8164 38.1761 13.4273 37.3702 13.4273ZM40.3078 14.4412V9.07284V6.47316C40.3078 6.33018 40.1908 6.2002 40.0479 6.2002H39.047C38.917 6.2002 38.8 6.30418 38.787 6.43417C38.787 6.44717 38.774 6.46016 38.774 6.47316V9.3978H38.787V9.48879C38.618 9.18983 38.1501 8.77388 37.1622 8.77388C35.5374 8.77388 34.3936 10.0997 34.3936 11.7765C34.3936 13.5183 35.5634 14.8051 37.2012 14.8051C37.9681 14.8051 38.553 14.4542 38.813 13.9992V14.0252V14.0122C38.813 14.0902 38.813 14.1682 38.813 14.2332C38.826 14.3632 38.839 14.4802 38.852 14.5712C38.878 14.6231 38.93 14.6621 38.982 14.6621H40.0479C40.1778 14.6751 40.2818 14.5712 40.3078 14.4412Z" fill="#CDCAD5"/>
<path d="M49.6925 7.40989C49.7314 7.3059 49.7574 7.18892 49.7574 7.07193C49.7574 6.552 49.3285 6.12305 48.7956 6.12305C48.2756 6.12305 47.8467 6.552 47.8467 7.07193C47.8467 7.51388 48.1586 7.89083 48.5616 7.99482L48.0417 9.15167C48.0417 9.15167 48.0417 9.16467 48.0417 9.17767C48.0417 9.22966 48.0806 9.28166 48.1456 9.28166H48.6656C48.7176 9.28166 48.7696 9.24266 48.8086 9.19067L49.6795 7.46188C49.6795 7.44888 49.6925 7.43589 49.6925 7.40989Z" fill="#CDCAD5"/>
<path d="M66.9807 16.4692V4.87465C66.9417 3.10687 65.8758 1.58606 64.342 0.897149C63.8351 0.676176 63.2892 0.533194 62.7172 0.507197C59.9096 0.351216 57.7389 2.01501 57.1539 4.26373C56.777 5.62856 57.0629 7.27935 58.0118 8.65718C59.1687 10.347 63.9131 14.8444 66.2138 16.8462C66.2918 16.9112 66.3958 16.9372 66.4998 16.9372C66.7727 16.9501 66.9807 16.7422 66.9807 16.4692ZM65.9928 11.1529C65.9928 11.6208 65.6159 12.0108 65.1479 12.0108C64.68 12.0108 64.29 11.6338 64.29 11.1529C64.29 10.6849 64.667 10.308 65.1479 10.308C65.6159 10.295 65.9928 10.6849 65.9928 11.1529Z" fill="#CDCAD5"/>
<path d="M70.5426 10.4766C69.3727 10.4766 68.4238 11.4254 68.4238 12.5953C68.4238 13.7652 69.3727 14.714 70.5426 14.714C71.7124 14.714 72.6613 13.7652 72.6613 12.5953C72.6613 11.4124 71.7124 10.4766 70.5426 10.4766Z" fill="#CDCAD5"/>
<path d="M68.4232 15.2734C68.0203 15.2734 67.6953 15.5984 67.6953 16.0013C67.6953 16.4043 68.0203 16.7293 68.4232 16.7293C68.8262 16.7293 69.1511 16.4043 69.1511 16.0013C69.1511 15.5984 68.8262 15.2734 68.4232 15.2734Z" fill="#CDCAD5"/>
<path d="M74.5713 5.3291C73.0245 5.3291 71.7637 6.58994 71.7637 8.13675C71.7637 9.68356 73.0245 10.9444 74.5713 10.9444C76.1311 10.9444 77.379 9.68356 77.379 8.13675C77.379 6.58994 76.1311 5.3291 74.5713 5.3291Z" fill="#CDCAD5"/>
<path d="M76.5225 1.87109C75.7036 1.87109 75.0537 2.53401 75.0537 3.35291C75.0537 4.17181 75.7166 4.82172 76.5225 4.82172C77.3414 4.82172 77.9913 4.15881 77.9913 3.35291C78.0043 2.52101 77.3414 1.87109 76.5225 1.87109Z" fill="#CDCAD5"/>
<path d="M70.8804 5.40732C72.3752 5.40732 73.5841 4.19848 73.5841 2.70366C73.5841 1.20885 72.3752 0 70.8804 0C69.3856 0 68.1768 1.20885 68.1768 2.70366C68.1898 4.19848 69.3986 5.40732 70.8804 5.40732Z" fill="#CDCAD5"/>
<path d="M70.985 7.7855C70.985 8.66939 70.2701 9.3843 69.3732 9.3843C68.4893 9.3843 67.7744 8.66939 67.7744 7.7855C67.7744 6.90161 68.4893 6.18669 69.3732 6.18669C70.2701 6.1737 70.985 6.90161 70.985 7.7855Z" fill="#CDCAD5"/>
</svg>
