<svg width="110" height="24" viewBox="0 0 110 24" fill="none" xmlns="http://www.w3.org/2000/svg">
<path d="M3.7115 18.5439H2.57767V11.0826H3.74808C5.64999 11.0826 7.241 12.2895 7.241 14.8132C7.22272 17.3552 5.61341 18.5439 3.7115 18.5439ZM3.80294 8.97949H0.657477C0.456313 8.97949 0.273438 9.14408 0.273438 9.36353V20.2995C0.273438 20.5007 0.438026 20.6653 0.657477 20.6653H3.78465C7.11299 20.6653 9.56353 18.5256 9.56353 14.8315C9.58181 11.1374 7.13128 8.97949 3.80294 8.97949ZM0.657477 8.97949C0.456313 8.97949 0.273438 9.14408 0.273438 9.36353V20.2995C0.273438 20.5007 0.438026 20.6653 0.657477 20.6653" fill="#CDCAD5"/>
<path d="M17.0064 17.7754C17.8476 17.7754 18.5243 18.452 18.5243 19.275C18.5243 20.0979 17.8476 20.7746 17.0064 20.7746C16.1835 20.7746 15.5068 20.0979 15.5068 19.275C15.5068 18.452 16.1835 17.7754 17.0064 17.7754Z" fill="#CDCAD5"/>
<path d="M24.9973 14.1915H23.1502V10.9363H24.9973C26.1494 10.9363 26.826 11.5763 26.826 12.5639C26.826 13.5331 26.1494 14.1915 24.9973 14.1915ZM26.6614 15.8739C28.1976 15.435 29.1485 14.1915 29.1485 12.5639C29.1485 10.5339 27.7038 8.97949 25.4179 8.97949H21.23C21.0288 8.97949 20.8643 9.14408 20.8643 9.36353V20.2995C20.8643 20.5007 21.0288 20.6653 21.23 20.6653H22.7662C22.9673 20.6653 23.1319 20.5007 23.1319 20.2995V16.1665H24.3206L26.4237 20.2995C26.5334 20.5007 26.7894 20.6653 26.9906 20.6653H28.7645C28.9657 20.6653 29.0571 20.5007 28.9474 20.2995L26.6614 15.8739Z" fill="#CDCAD5"/>
<path d="M15.4339 12.4902C14.739 12.4902 13.6234 12.6914 13.1297 13.7521V12.9291C13.1297 12.728 12.9651 12.5817 12.7822 12.5634H11.3741C11.1729 12.5634 11.0083 12.728 11.0083 12.9291V20.299C11.0083 20.5002 11.1729 20.6648 11.3741 20.6648H12.8188C13.0199 20.6648 13.1845 20.5002 13.1845 20.299V16.9707C13.1845 15.2334 14.1538 14.6847 15.2693 14.6847C15.4705 14.6847 15.6716 14.703 15.9277 14.7579V12.5451C15.7814 12.5085 15.6168 12.4902 15.4339 12.4902Z" fill="#CDCAD5"/>
<path d="M66.6019 12.5459H65.0109C64.8097 12.5459 64.5537 12.7105 64.4257 12.9116L62.5969 17.2824L60.6036 12.9116C60.4938 12.7105 60.2195 12.5459 60.0184 12.5459H58.3176C58.1164 12.5459 58.0433 12.7105 58.153 12.9299L61.4082 19.6415L59.6709 23.4819C59.5612 23.683 59.6526 23.8476 59.8538 23.8476H61.4265C61.6277 23.8476 61.8654 23.683 61.9751 23.5002L66.7299 12.9299C66.8762 12.7105 66.803 12.5459 66.6019 12.5459Z" fill="#CDCAD5"/>
<path d="M73.4419 15.745L72.2897 15.4889C71.8508 15.4158 71.5399 15.1598 71.5399 14.7574C71.5399 14.3003 71.9971 13.9528 72.5823 13.9528C73.2955 13.9528 73.6613 14.3185 73.8259 14.7209C73.8808 14.9037 74.0453 15.0318 74.2465 14.9769L75.4169 14.7209C75.5998 14.666 75.7095 14.4831 75.6729 14.3003C75.4352 13.4407 74.5757 12.3252 72.564 12.3252C70.8267 12.3252 69.5283 13.5322 69.5283 14.9769C69.5283 16.1107 70.2415 17.0617 71.796 17.3909L72.8749 17.6469C73.4967 17.7749 73.7527 18.0675 73.7527 18.4332C73.7527 18.8539 73.4053 19.2379 72.6738 19.2379C71.796 19.2379 71.3388 18.7441 71.2108 18.1589C71.1925 18.0675 71.101 18.0309 71.0096 18.0309L69.638 18.3235C69.4552 18.3784 69.3454 18.5613 69.382 18.7624C69.638 19.6768 70.5524 20.9021 72.6921 20.9021C74.8134 20.9021 75.8375 19.5488 75.8375 18.2321C75.8375 17.0434 75.0329 16.0741 73.4419 15.745Z" fill="#CDCAD5"/>
<path d="M31.8744 15.6725C31.9293 14.9227 32.5511 14.0815 33.6849 14.0815C34.9467 14.0815 35.4588 14.8679 35.4954 15.6725H31.8744ZM33.6483 12.3076C31.5818 12.3076 29.6616 13.9901 29.6616 16.5686C29.6616 19.3118 31.6184 20.9028 33.8495 20.9028C35.6965 20.9028 36.9401 19.8787 37.4338 18.6168C37.4521 18.434 37.3424 18.2694 37.1778 18.2328L36.0074 17.8853C35.8794 17.8488 35.7148 17.9036 35.6234 18.0499C35.3308 18.6351 34.7821 19.0374 33.886 19.0374C32.8071 19.0374 31.8927 18.2694 31.8378 17.1904H37.2875C37.4887 17.1904 37.6533 17.0258 37.6533 16.8247C37.6533 16.7332 37.6716 16.6235 37.6716 16.5138C37.6533 13.8986 36.1537 12.3076 33.6483 12.3076Z" fill="#CDCAD5"/>
<path d="M43.1217 18.8915C41.9696 18.8915 41.11 18.032 41.11 16.5873C41.11 15.1426 42.0061 14.3196 43.1217 14.3196C44.2372 14.3196 45.115 15.1243 45.115 16.569C45.115 18.032 44.2372 18.8915 43.1217 18.8915ZM47.2364 20.318V12.7652V9.10767C47.2364 8.90651 47.0718 8.72363 46.8706 8.72363H45.4625C45.2796 8.72363 45.115 8.86994 45.0967 9.05281C45.0967 9.0711 45.0784 9.08939 45.0784 9.10767V13.2224H45.0967V13.3504C44.859 12.9298 44.2006 12.3446 42.8108 12.3446C40.5248 12.3446 38.9155 14.2099 38.9155 16.569C38.9155 19.0195 40.5614 20.83 42.8656 20.83C43.9446 20.83 44.7676 20.3362 45.1333 19.6962C45.1333 19.7145 45.1333 19.7145 45.1333 19.7328V19.7145C45.1333 19.8242 45.1333 19.9339 45.1333 20.0254C45.1516 20.2082 45.1699 20.3728 45.1882 20.5008C45.2247 20.574 45.2979 20.6288 45.371 20.6288H46.8706C47.0535 20.6471 47.1998 20.5008 47.2364 20.318Z" fill="#CDCAD5"/>
<path d="M52.8505 18.8915C51.6983 18.8915 50.8388 18.032 50.8388 16.5873C50.8388 15.1426 51.7349 14.3196 52.8505 14.3196C53.966 14.3196 54.8438 15.1243 54.8438 16.569C54.8438 18.032 53.9843 18.8915 52.8505 18.8915ZM56.9834 20.318V12.7652V9.10767C56.9834 8.90651 56.8189 8.72363 56.6177 8.72363H55.2095C55.0267 8.72363 54.8621 8.86994 54.8438 9.05281C54.8438 9.0711 54.8255 9.08939 54.8255 9.10767V13.2224H54.8438V13.3504C54.6061 12.9298 53.9477 12.3446 52.5578 12.3446C50.2719 12.3446 48.6626 14.2099 48.6626 16.569C48.6626 19.0195 50.3085 20.83 52.6127 20.83C53.6917 20.83 54.5146 20.3362 54.8804 19.6962V19.7328V19.7145C54.8804 19.8242 54.8804 19.9339 54.8804 20.0254C54.8987 20.2082 54.9169 20.3728 54.9352 20.5008C54.9718 20.574 55.045 20.6288 55.1181 20.6288H56.6177C56.8006 20.6471 56.9469 20.5008 56.9834 20.318Z" fill="#CDCAD5"/>
<path d="M70.1867 10.4247C70.2415 10.2784 70.2781 10.1138 70.2781 9.94925C70.2781 9.21775 69.6746 8.61426 68.9248 8.61426C68.1933 8.61426 67.5898 9.21775 67.5898 9.94925C67.5898 10.571 68.0287 11.1014 68.5957 11.2477L67.8642 12.8753C67.8642 12.8753 67.8642 12.8935 67.8642 12.9118C67.8642 12.985 67.919 13.0581 68.0105 13.0581H68.742C68.8151 13.0581 68.8883 13.0033 68.9431 12.9301L70.1684 10.4979C70.1684 10.4796 70.1867 10.4613 70.1867 10.4247Z" fill="#CDCAD5"/>
<path d="M94.5091 23.1706V6.85809C94.4542 4.37098 92.9547 2.23134 90.7967 1.26209C90.0835 0.951205 89.3154 0.750041 88.5108 0.713466C84.5607 0.494015 81.5066 2.83482 80.6837 5.99857C80.1534 7.91877 80.5557 10.2413 81.8907 12.1798C83.5183 14.5572 90.1932 20.8847 93.4301 23.7009C93.5399 23.7924 93.6862 23.829 93.8325 23.829C94.2165 23.8472 94.5091 23.5546 94.5091 23.1706ZM93.1192 15.691C93.1192 16.3493 92.5889 16.898 91.9305 16.898C91.2722 16.898 90.7236 16.3676 90.7236 15.691C90.7236 15.0326 91.2539 14.5023 91.9305 14.5023C92.5889 14.484 93.1192 15.0326 93.1192 15.691Z" fill="#CDCAD5"/>
<path d="M99.5204 14.7393C97.8745 14.7393 96.5396 16.0743 96.5396 17.7201C96.5396 19.366 97.8745 20.701 99.5204 20.701C101.166 20.701 102.501 19.366 102.501 17.7201C102.501 16.056 101.166 14.7393 99.5204 14.7393Z" fill="#CDCAD5"/>
<path d="M96.5392 21.4883C95.9723 21.4883 95.5151 21.9455 95.5151 22.5124C95.5151 23.0793 95.9723 23.5365 96.5392 23.5365C97.1062 23.5365 97.5633 23.0793 97.5633 22.5124C97.5633 21.9455 97.1062 21.4883 96.5392 21.4883Z" fill="#CDCAD5"/>
<path d="M105.189 7.49805C103.013 7.49805 101.239 9.27194 101.239 11.4482C101.239 13.6244 103.013 15.3983 105.189 15.3983C107.383 15.3983 109.139 13.6244 109.139 11.4482C109.139 9.27194 107.383 7.49805 105.189 7.49805Z" fill="#CDCAD5"/>
<path d="M107.933 2.63281C106.781 2.63281 105.867 3.56548 105.867 4.71759C105.867 5.86971 106.799 6.78409 107.933 6.78409C109.085 6.78409 110 5.85142 110 4.71759C110.018 3.54719 109.085 2.63281 107.933 2.63281Z" fill="#CDCAD5"/>
<path d="M99.9957 7.60763C102.099 7.60763 103.8 5.90688 103.8 3.80381C103.8 1.70074 102.099 0 99.9957 0C97.8926 0 96.1919 1.70074 96.1919 3.80381C96.2102 5.90688 97.9109 7.60763 99.9957 7.60763Z" fill="#CDCAD5"/>
<path d="M100.143 10.9537C100.143 12.1973 99.1367 13.2031 97.8749 13.2031C96.6313 13.2031 95.6255 12.1973 95.6255 10.9537C95.6255 9.71016 96.6313 8.70434 97.8749 8.70434C99.1367 8.68606 100.143 9.71016 100.143 10.9537Z" fill="#CDCAD5"/>
</svg>
