<svg width="36" height="43" viewBox="0 0 36 43" fill="none" xmlns="http://www.w3.org/2000/svg">
<path fill-rule="evenodd" clip-rule="evenodd" d="M15.5238 31.6923H6.59818L5.77042 25.0692L0.337414 21.1369C0.104831 19.9727 0.000976562 18.7826 0.000976562 17.6184C0.000976562 7.89065 7.89162 0 17.5934 0C27.3209 0 35.2118 7.89065 35.2118 17.6184C35.2118 18.7828 35.0826 19.9727 34.8497 21.1369L29.4426 25.069L28.6146 31.6921H19.6631L19.1456 32.0542C18.7058 32.3906 18.1625 32.5722 17.5934 32.5722C17.0501 32.5722 16.5069 32.3909 16.041 32.0542L15.5238 31.6923ZM15.8084 28.6136H9.31456L8.66784 23.3619L3.31253 19.4811C3.15883 18.8721 3.08063 18.2465 3.07969 17.6184C3.07969 16.5575 3.28689 15.5228 3.72641 14.5656L13.1954 24.1381L3.98515 12.7546C4.34749 11.2799 5.14935 9.96056 6.28765 8.9515L14.5406 23.2065L7.21926 7.60627C8.17626 6.33873 9.49586 5.40711 10.9962 4.94143L16.041 22.6375L12.3676 4.21701C13.4907 3.59045 14.7552 3.26104 16.0413 3.26001C16.3 3.26001 16.5846 3.26001 16.8434 3.31181L17.5937 22.4565L18.344 3.31181C18.6284 3.26001 18.8874 3.26001 19.172 3.26001C20.4657 3.26001 21.7074 3.59619 22.8457 4.21701L19.1459 22.6375L24.1909 4.94143C25.7174 5.40685 27.0368 6.33847 27.9681 7.60627L20.6463 23.2065L28.8992 8.9515C30.0375 9.96056 30.8394 11.2799 31.202 12.7546L21.9915 24.1381L31.4864 14.5656C31.9 15.5228 32.1328 16.5575 32.1328 17.6184C32.1328 18.2392 32.0551 18.8603 31.9 19.4811L26.5449 23.3617L25.8723 28.6134H19.3785L18.4215 29.3121C18.1886 29.4934 17.904 29.5711 17.5934 29.5711C17.3088 29.5711 16.9985 29.4934 16.7654 29.3121L15.8084 28.6136Z" fill="#CDCAD5"/>
<path fill-rule="evenodd" clip-rule="evenodd" d="M15.8078 28.6134H9.31397L8.66725 23.3617L3.31194 19.4808C3.15824 18.8718 3.08004 18.2462 3.0791 17.6181C3.0791 16.5573 3.2863 15.5226 3.72582 14.5653L13.1948 24.1379L3.98456 12.7544C4.3469 11.2797 5.14876 9.96031 6.28706 8.95126L14.54 23.2063L7.21867 7.60602C8.17567 6.33848 9.49527 5.40686 10.9956 4.94119L16.0404 22.6372L12.367 4.21677C13.4901 3.5902 14.7546 3.26079 16.0407 3.25977C16.2994 3.25977 16.5841 3.25977 16.8428 3.31157L17.5931 22.4562L18.3434 3.31157C18.6278 3.25977 18.8868 3.25977 19.1714 3.25977C20.4651 3.25977 21.7068 3.59595 22.8451 4.21677L19.1453 22.6372L24.1903 4.94119C25.7169 5.40661 27.0362 6.33822 27.9676 7.60602L20.6457 23.2063L28.8987 8.95126C30.037 9.96031 30.8388 11.2797 31.2014 12.7544L21.9909 24.1379L31.4858 14.5653C31.8994 15.5226 32.1322 16.5573 32.1322 17.6181C32.1322 18.2389 32.0546 18.86 31.8994 19.4808L26.5444 23.3614L25.8717 28.6131H19.3779L18.4209 29.3119C18.188 29.4932 17.9034 29.5709 17.5929 29.5709C17.3082 29.5709 16.9979 29.4932 16.7648 29.3119L15.8078 28.6134Z" fill="#1C1A22"/>
<path fill-rule="evenodd" clip-rule="evenodd" d="M32.8055 42.6876V35.2106H35.2116V42.6876H32.8055ZM28.2526 42.6876V35.2106H30.6584V42.6876H28.2526ZM26.7781 40.2815H21.1897V40.3851C21.1897 40.4628 21.1897 40.5403 21.2153 40.618C21.2153 40.6957 21.2415 40.7731 21.2674 40.8503C21.293 40.928 21.3451 41.0316 21.4225 41.1093C21.4741 41.187 21.5261 41.2644 21.6033 41.3421C21.681 41.4198 21.7846 41.4714 21.8882 41.5229C21.9913 41.575 22.0951 41.6265 22.2244 41.6781C22.328 41.7042 22.4313 41.7301 22.5349 41.7301C22.6642 41.7558 22.7678 41.7558 22.8714 41.7558H22.897C22.9747 41.7558 23.0783 41.7558 23.1814 41.7301C23.285 41.7301 23.3888 41.704 23.4663 41.6781C23.5694 41.6524 23.6732 41.6265 23.7507 41.575C23.8284 41.5488 23.9058 41.4973 23.9835 41.4452C24.0091 41.3937 24.0612 41.3421 24.1127 41.2903C24.1389 41.2383 24.1904 41.1867 24.2163 41.109V41.0829C24.2163 41.0572 24.242 41.0572 24.242 41.0313H26.6224C26.5963 41.0575 26.5963 41.109 26.5704 41.1349C26.5704 41.1349 26.5704 41.1606 26.5447 41.1865C26.5121 41.2776 26.4685 41.3644 26.415 41.445C26.3373 41.5486 26.2598 41.6263 26.1821 41.7299C26.0791 41.8591 25.9493 41.9627 25.8201 42.066C25.6908 42.1696 25.5357 42.2473 25.4064 42.3509C25.1995 42.454 25.0182 42.5317 24.8115 42.6094C24.5787 42.6871 24.3458 42.7387 24.1127 42.7907C23.9058 42.8164 23.6991 42.8684 23.4663 42.8684C23.2588 42.8941 23.0521 42.8941 22.8452 42.8941H22.7937C22.5608 42.8941 22.3018 42.8941 22.069 42.8684C21.862 42.8423 21.6292 42.7907 21.4225 42.7648C21.112 42.6871 20.8276 42.5835 20.5686 42.4804C20.3098 42.3493 20.0592 42.2024 19.8183 42.0407C19.6418 41.8899 19.4775 41.7254 19.327 41.5488C19.1972 41.3937 19.068 41.1867 18.9905 40.9798C18.9128 40.8247 18.8613 40.6434 18.8097 40.4623C18.7836 40.281 18.7577 40.0997 18.7577 39.8928C18.7577 39.712 18.7838 39.5045 18.8097 39.2979C18.8613 39.1171 18.9128 38.9358 18.9905 38.7545C19.0941 38.5475 19.2234 38.3668 19.3788 38.1855C19.5339 37.9785 19.7149 37.8234 19.9221 37.668C20.1171 37.5203 20.325 37.3903 20.5432 37.2797C20.7699 37.1779 21.0032 37.0913 21.2415 37.0207C21.4743 36.9692 21.7072 36.9177 21.9403 36.8915C22.1987 36.8654 22.4577 36.84 22.6906 36.84H22.7942C23.0527 36.84 23.3117 36.8656 23.5699 36.8915C23.8289 36.9431 24.0874 36.9951 24.3202 37.0466C24.5792 37.1243 24.8636 37.2279 25.0964 37.3572C25.3293 37.4864 25.5621 37.6157 25.769 37.797C25.9498 37.9521 26.1311 38.1334 26.2865 38.3665C26.4158 38.5734 26.5194 38.7801 26.597 39.0386C26.6486 39.1943 26.7006 39.3497 26.7263 39.5304C26.7524 39.7117 26.7783 39.8925 26.7783 40.0995V40.1515L26.7781 40.2815ZM24.4751 39.1691H21.2151V39.0914C21.2151 39.0653 21.2151 39.0653 21.2412 39.0394C21.2412 38.9878 21.2674 38.9363 21.2674 38.8845C21.293 38.8063 21.3189 38.7547 21.3451 38.7032C21.3966 38.6517 21.4228 38.574 21.4743 38.5219C21.5264 38.4447 21.6036 38.3927 21.6556 38.3411C21.7333 38.2634 21.8364 38.2119 21.94 38.1598C22.0177 38.1083 22.1208 38.0567 22.2244 38.0306L22.5349 37.9529H22.8714C23.0006 37.9529 23.1298 37.9529 23.2334 37.979C23.3627 38.0047 23.4663 38.0306 23.5696 38.0821C23.6732 38.1083 23.7509 38.1342 23.8286 38.1857C23.9317 38.2373 24.0094 38.315 24.0615 38.367C24.1392 38.4186 24.1645 38.4701 24.2166 38.5219C24.2681 38.574 24.2943 38.6255 24.3458 38.7032C24.3715 38.7547 24.3974 38.8063 24.4235 38.8845C24.4492 38.936 24.4492 39.0137 24.4751 39.0653V39.1691ZM12.3415 35.2106V37.7203L12.4451 37.6167C12.471 37.6167 12.471 37.5911 12.4969 37.5911C12.6003 37.5134 12.7039 37.4359 12.8072 37.3841C12.9399 37.305 13.0782 37.2356 13.2211 37.1767C13.4024 37.099 13.5575 37.0474 13.7127 36.9959C13.8678 36.9438 14.0232 36.9182 14.2042 36.8923C14.3335 36.8661 14.4889 36.8407 14.644 36.8146H15.1097C15.2648 36.8146 15.4461 36.8407 15.6013 36.8661C15.7564 36.8923 15.9118 36.9438 16.067 36.9959C16.2218 37.0474 16.4031 37.1251 16.5324 37.2287C16.6875 37.3318 16.8429 37.4616 16.9722 37.5908C17.0758 37.72 17.1791 37.8752 17.2568 38.0044C17.3345 38.1342 17.386 38.2893 17.4117 38.4186C17.4378 38.5478 17.4635 38.677 17.4635 38.8063C17.4894 38.9619 17.4894 39.1427 17.4894 39.2981V42.6874H15.161V39.5828C15.161 39.4797 15.1351 39.3504 15.1351 39.2466V39.0653C15.1351 38.9876 15.1092 38.8845 15.0576 38.8063L14.9025 38.574C14.8248 38.4963 14.7471 38.4447 14.6694 38.3927C14.592 38.3411 14.5143 38.2896 14.4107 38.2634C14.333 38.2373 14.2294 38.2119 14.1519 38.2119C14.0483 38.1857 13.9709 38.1857 13.8932 38.1857H13.8414C13.7637 38.1857 13.6603 38.2119 13.5568 38.2119C13.4791 38.2375 13.4016 38.2634 13.3239 38.2896C13.2203 38.3152 13.117 38.3673 13.0393 38.4188C12.9359 38.4965 12.8582 38.574 12.7546 38.6517L12.5218 38.9622C12.47 39.0653 12.4182 39.1691 12.3923 39.2984C12.3664 39.3761 12.3664 39.4535 12.3664 39.5053C12.3405 39.6089 12.3405 39.7128 12.3405 39.8158V42.6876H9.93466V35.2106H12.3415ZM8.27965 37.4618H5.79612V37.3841V37.3321C5.79612 37.2544 5.79612 37.1769 5.77022 37.1251C5.74432 37.0474 5.71842 36.9959 5.69252 36.9182C5.66234 36.8554 5.62772 36.7948 5.58892 36.7369C5.53712 36.6853 5.48532 36.6333 5.40788 36.5817C5.349 36.5241 5.2783 36.48 5.20068 36.4525C5.12324 36.401 5.04554 36.3748 4.96784 36.3489L4.6573 36.2712C4.55396 36.2456 4.45036 36.2456 4.34702 36.2456H4.06213C3.95879 36.2456 3.88109 36.2712 3.77749 36.2971C3.67389 36.2971 3.59619 36.3233 3.49285 36.3748C3.41541 36.401 3.33771 36.4525 3.23411 36.4784C3.18231 36.5299 3.10487 36.5815 3.05307 36.6333C2.97537 36.6853 2.92383 36.7369 2.89793 36.8146C2.84613 36.8661 2.82023 36.9438 2.79433 36.9959C2.76843 37.0731 2.74253 37.151 2.74253 37.2287C2.74253 37.2803 2.76843 37.358 2.79433 37.4357C2.79433 37.4872 2.84613 37.5649 2.87203 37.6164L3.05333 37.7977C3.13103 37.8239 3.20847 37.8754 3.28617 37.9013C3.36387 37.927 3.44131 37.9529 3.51875 37.9529C3.64825 37.979 3.75159 38.0044 3.88109 38.0044C4.03623 38.0306 4.21753 38.0306 4.37267 38.0565C4.52781 38.0565 4.7091 38.0821 4.86424 38.0821C5.12298 38.1083 5.40762 38.1083 5.6661 38.1342C5.79535 38.1342 5.89894 38.1598 6.00254 38.1598C6.23538 38.186 6.49412 38.2119 6.72696 38.2634C6.9339 38.315 7.1152 38.367 7.32214 38.4447C7.53475 38.5246 7.7285 38.6477 7.89116 38.8063C8.07246 38.936 8.2017 39.1173 8.30504 39.2981C8.38274 39.4274 8.43428 39.5825 8.46018 39.7123C8.48608 39.8671 8.51198 40.0223 8.51198 40.2036C8.51198 40.3587 8.48608 40.54 8.46018 40.6954C8.43428 40.8503 8.35658 41.0054 8.30504 41.1352C8.2017 41.316 8.0981 41.4973 7.9686 41.6265C7.83936 41.7817 7.70986 41.8855 7.55472 41.9886C7.32188 42.1437 7.0893 42.2735 6.8303 42.3768C6.57156 42.4804 6.28718 42.5581 6.00254 42.6358C5.7179 42.6874 5.43327 42.7135 5.14863 42.7651C4.83835 42.7912 4.52781 42.7912 4.21727 42.8166H4.11393C3.85519 42.8166 3.59619 42.791 3.33771 42.791C3.05307 42.7648 2.76843 42.7389 2.48379 42.6874C2.23085 42.6393 1.98044 42.5788 1.73348 42.5061C1.50064 42.4545 1.2937 42.3512 1.08676 42.2476C0.939641 42.1767 0.800762 42.0898 0.672619 41.9886C0.543378 41.8594 0.43978 41.7301 0.336182 41.6004C0.284382 41.4973 0.232839 41.4196 0.18104 41.316C0.134701 41.199 0.100084 41.0777 0.0776985 40.9539C0.051799 40.8762 0.0258995 40.7988 0.0258995 40.7211C-4.39429e-08 40.618 0 40.5403 0 40.4367V40.4105V40.3328H2.48379V40.5141C2.48379 40.5657 2.50969 40.6434 2.50969 40.7211L2.58713 40.8762C2.63893 40.9539 2.69073 41.0054 2.74228 41.0831C2.79407 41.1352 2.87152 41.1867 2.92357 41.2383C3.02691 41.2903 3.10461 41.3419 3.20821 41.3934C3.31155 41.4196 3.44105 41.4711 3.54439 41.497C3.64799 41.5227 3.77723 41.5486 3.90673 41.5747C4.01007 41.5747 4.13957 41.6004 4.26907 41.6004C4.39831 41.6004 4.50165 41.5747 4.60525 41.5747C4.73449 41.5747 4.83809 41.5486 4.96759 41.5227C5.07093 41.497 5.17453 41.4711 5.27812 41.4196C5.35557 41.3934 5.43327 41.368 5.51096 41.316C5.58866 41.2903 5.6661 41.2383 5.7179 41.1867C5.7697 41.109 5.82125 41.0575 5.87305 40.9798C5.89894 40.9021 5.92484 40.85 5.95074 40.7729C5.97664 40.6952 5.97664 40.6177 5.97664 40.54C5.97664 40.488 5.97664 40.4103 5.95074 40.3326C5.95074 40.281 5.92484 40.2295 5.87305 40.1774C5.82797 40.1118 5.77596 40.0512 5.7179 39.9966C5.6402 39.9446 5.56276 39.9189 5.45916 39.893C5.38147 39.8669 5.27812 39.8415 5.17453 39.8153C5.04528 39.8153 4.94169 39.7897 4.81219 39.7897L3.67389 39.712C3.46695 39.6858 3.23411 39.6858 3.00127 39.6599C2.79408 39.6343 2.56149 39.6084 2.3284 39.5822C2.10349 39.5336 1.87926 39.4819 1.65578 39.4271C1.50064 39.3756 1.34549 39.324 1.1901 39.2463C1.06086 39.1686 0.931358 39.0912 0.82776 38.9873C0.698519 38.8581 0.59492 38.7029 0.517478 38.5737C0.41388 38.4186 0.362337 38.2632 0.310538 38.0819C0.284639 37.9267 0.258739 37.7457 0.258739 37.5905C0.258739 37.3836 0.258739 37.2023 0.310538 36.9956C0.362337 36.8405 0.41388 36.6592 0.517478 36.5299C0.62082 36.323 0.776217 36.1417 0.957258 35.9604C1.1383 35.8055 1.31934 35.676 1.55218 35.5727C1.75912 35.4691 1.99196 35.3914 2.1989 35.3137C2.45206 35.2372 2.712 35.1852 2.97512 35.1585C3.20443 35.1073 3.43866 35.0812 3.67363 35.0808C3.90673 35.0547 4.11367 35.0547 4.34651 35.0547H4.44985C4.70859 35.0547 4.96733 35.0808 5.22581 35.0808C5.45865 35.107 5.71739 35.1585 5.95023 35.1844C6.18307 35.236 6.44181 35.3137 6.64875 35.3914C6.85569 35.4691 7.06263 35.5465 7.26983 35.6758C7.39907 35.7535 7.52856 35.8309 7.63191 35.9348C7.76115 36.0384 7.83885 36.1676 7.91655 36.2968C7.99424 36.3745 8.04579 36.4781 8.07169 36.5812C8.12349 36.6848 8.14913 36.7882 8.20093 36.8918C8.20093 36.9695 8.22683 37.021 8.22683 37.0987C8.25273 37.1764 8.25273 37.2285 8.27863 37.3062V37.3577L8.27965 37.4618Z" fill="#CDCAD5"/>
</svg>
