<svg width="50" height="61" viewBox="0 0 50 61" fill="none" xmlns="http://www.w3.org/2000/svg">
<path fill-rule="evenodd" clip-rule="evenodd" d="M21.8402 44.5883H9.28267L8.11808 35.2702L0.474315 29.7377C0.147091 28.0998 0.000976562 26.4254 0.000976562 24.7875C0.000976562 11.1014 11.1024 0 24.752 0C38.4377 0 49.5395 11.1014 49.5395 24.7875C49.5395 26.4258 49.3577 28.0998 49.0301 29.7377L41.4228 35.2698L40.2578 44.588H27.6639L26.9358 45.0974C26.3171 45.5707 25.5526 45.8261 24.752 45.8261C23.9875 45.8261 23.2234 45.5711 22.5679 45.0974L21.8402 44.5883ZM22.2407 40.2568H13.1044L12.1945 32.8682L4.66004 27.4082C4.4438 26.5513 4.33378 25.6712 4.33246 24.7875C4.33246 23.295 4.62396 21.8392 5.24233 20.4924L18.5644 33.9602L5.60636 17.9446C6.11613 15.8698 7.24428 14.0136 8.84577 12.594L20.457 32.6495L10.1565 10.7013C11.5029 8.91803 13.3594 7.60733 15.4703 6.95216L22.5679 31.849L17.3998 5.93296C18.9799 5.05144 20.7589 4.58799 22.5682 4.58655C22.9323 4.58655 23.3327 4.58655 23.6968 4.65942L24.7524 31.5943L25.808 4.65942C26.2081 4.58655 26.5725 4.58655 26.973 4.58655C28.7931 4.58655 30.54 5.05952 32.1414 5.93296L26.9362 31.849L34.0341 6.95216C36.1818 7.60696 38.038 8.91767 39.3483 10.7013L29.0471 32.6495L40.6583 12.594C42.2598 14.0136 43.3879 15.8698 43.8981 17.9446L30.9397 33.9602L44.2982 20.4924C44.8801 21.8392 45.2077 23.295 45.2077 24.7875C45.2077 25.6609 45.0984 26.5347 44.8801 27.4082L37.346 32.8678L36.3997 40.2565H27.2634L25.917 41.2396C25.5894 41.4947 25.1889 41.604 24.752 41.604C24.3516 41.604 23.915 41.4947 23.5871 41.2396L22.2407 40.2568Z" fill="#CDCAD5"/>
<path fill-rule="evenodd" clip-rule="evenodd" d="M22.2402 40.2572H13.1039L12.1941 32.8685L4.65962 27.4085C4.44337 26.5517 4.33335 25.6715 4.33203 24.7879C4.33203 23.2953 4.62354 21.8396 5.24191 20.4928L18.5639 33.9606L5.60593 17.945C6.11571 15.8702 7.24385 14.014 8.84534 12.5943L20.4566 32.6499L10.156 10.7017C11.5025 8.91839 13.359 7.60769 15.4699 6.95252L22.5675 31.8493L17.3993 5.93333C18.9794 5.05181 20.7585 4.58836 22.5678 4.58691C22.9318 4.58691 23.3323 4.58691 23.6963 4.65979L24.752 31.5946L25.8076 4.65979C26.2077 4.58691 26.5721 4.58691 26.9725 4.58691C28.7927 4.58691 30.5395 5.05989 32.141 5.93333L26.9357 31.8493L34.0336 6.95252C36.1813 7.60733 38.0375 8.91803 39.3479 10.7017L29.0466 32.6499L40.6579 12.5943C42.2593 14.014 43.3875 15.8702 43.8976 17.945L30.9393 33.9606L44.2977 20.4928C44.8797 21.8396 45.2072 23.2953 45.2072 24.7879C45.2072 25.6613 45.0979 26.5351 44.8797 27.4085L37.3456 32.8682L36.3993 40.2568H27.263L25.9165 41.24C25.589 41.495 25.1885 41.6043 24.7516 41.6043C24.3511 41.6043 23.9146 41.495 23.5867 41.24L22.2402 40.2572Z" fill="#1C1A22"/>
<path fill-rule="evenodd" clip-rule="evenodd" d="M46.1545 60.0582V49.5387H49.5396V60.0582H46.1545ZM39.7489 60.0582V49.5387H43.1337V60.0582H39.7489ZM37.6744 56.673H29.812V56.8188C29.812 56.9281 29.812 57.0371 29.8481 57.1464C29.8481 57.2557 29.8849 57.3647 29.9213 57.4732C29.9574 57.5826 30.0306 57.7283 30.1396 57.8376C30.2121 57.9469 30.2854 58.0559 30.3939 58.1652C30.5033 58.2745 30.649 58.347 30.7948 58.4196C30.9398 58.4928 31.0859 58.5653 31.2677 58.6378C31.4135 58.6746 31.5589 58.7111 31.7046 58.7111C31.8865 58.7471 32.0322 58.7471 32.178 58.7471H32.2141C32.3234 58.7471 32.4691 58.7471 32.6142 58.7111C32.7599 58.7111 32.906 58.6743 33.015 58.6378C33.16 58.6018 33.3061 58.5653 33.4151 58.4928C33.5244 58.456 33.6334 58.3835 33.7427 58.3102C33.7788 58.2377 33.852 58.1652 33.9245 58.0923C33.9613 58.0191 34.0338 57.9466 34.0703 57.8373V57.8005C34.0703 57.7644 34.1063 57.7644 34.1063 57.728H37.4554C37.4186 57.7648 37.4186 57.8373 37.3822 57.8737C37.3822 57.8737 37.3822 57.9098 37.3461 57.9462C37.3002 58.0744 37.2389 58.1965 37.1636 58.3099C37.0542 58.4556 36.9453 58.565 36.836 58.7107C36.6909 58.8925 36.5084 59.0383 36.3265 59.1837C36.1447 59.3294 35.9264 59.4388 35.7446 59.5845C35.4535 59.7295 35.1984 59.8389 34.9076 59.9482C34.58 60.0575 34.2524 60.13 33.9245 60.2032C33.6334 60.2393 33.3426 60.3126 33.015 60.3126C32.7231 60.3486 32.4323 60.3486 32.1412 60.3486H32.0687C31.7411 60.3486 31.3767 60.3486 31.0491 60.3126C30.758 60.2758 30.4304 60.2032 30.1396 60.1668C29.7027 60.0575 29.3026 59.9117 28.9382 59.7667C28.574 59.5822 28.2215 59.3756 27.8826 59.148C27.6343 58.9359 27.4032 58.7045 27.1913 58.456C27.0088 58.2377 26.827 57.9466 26.718 57.6554C26.6087 57.4372 26.5362 57.1821 26.4637 56.9274C26.4269 56.6723 26.3904 56.4173 26.3904 56.1261C26.3904 55.8718 26.4272 55.5799 26.4637 55.2891C26.5362 55.0348 26.6087 54.7797 26.718 54.5246C26.8638 54.2335 27.0456 53.9791 27.2642 53.7241C27.4825 53.4329 27.7372 53.2146 28.0287 52.996C28.303 52.7882 28.5955 52.6054 28.9025 52.4498C29.2214 52.3064 29.5496 52.1847 29.8849 52.0854C30.2125 52.0129 30.5401 51.9404 30.868 51.9036C31.2317 51.8668 31.5961 51.8311 31.9236 51.8311H32.0694C32.4331 51.8311 32.7974 51.8671 33.1607 51.9036C33.5251 51.9761 33.8888 52.0493 34.2164 52.1218C34.5808 52.2312 34.9809 52.3769 35.3084 52.5587C35.636 52.7406 35.9636 52.9224 36.2548 53.1775C36.5091 53.3957 36.7642 53.6508 36.9828 53.9788C37.1646 54.2699 37.3104 54.5607 37.4197 54.9244C37.4922 55.1434 37.5655 55.362 37.6015 55.6163C37.6383 55.8714 37.6748 56.1257 37.6748 56.4169V56.4901L37.6744 56.673ZM34.4343 55.108H29.8477V54.9987C29.8477 54.9619 29.8477 54.9619 29.8845 54.9254C29.8845 54.8529 29.9213 54.7804 29.9213 54.7075C29.9574 54.5975 29.9938 54.525 30.0306 54.4525C30.1032 54.38 30.14 54.2706 30.2125 54.1974C30.2857 54.0888 30.3943 54.0156 30.4675 53.943C30.5769 53.8337 30.7219 53.7612 30.8676 53.688C30.977 53.6155 31.122 53.5429 31.2677 53.5061L31.7046 53.3968H32.178C32.3598 53.3968 32.5416 53.3968 32.6874 53.4336C32.8692 53.4697 33.015 53.5061 33.1604 53.5787C33.3061 53.6155 33.4154 53.6519 33.5248 53.7244C33.6698 53.7969 33.7791 53.9062 33.8523 53.9795C33.9617 54.052 33.9974 54.1245 34.0706 54.1974C34.1431 54.2706 34.1799 54.3432 34.2524 54.4525C34.2885 54.525 34.325 54.5975 34.3618 54.7075C34.3978 54.7801 34.3978 54.8894 34.4343 54.9619V55.108ZM17.3634 49.5387V53.0696L17.5092 52.9239C17.5456 52.9239 17.5456 52.8878 17.5821 52.8878C17.7275 52.7785 17.8732 52.6695 18.0186 52.5966C18.2053 52.4853 18.3999 52.3877 18.6009 52.3048C18.856 52.1954 19.0742 52.1229 19.2925 52.0504C19.5108 51.9772 19.7294 51.9411 19.9841 51.9047C20.1659 51.8679 20.3846 51.8321 20.6028 51.7953H21.258C21.4763 51.7953 21.7313 51.8321 21.9496 51.8679C22.1679 51.9047 22.3865 51.9772 22.6048 52.0504C22.8227 52.1229 23.0778 52.2322 23.2596 52.378C23.4779 52.523 23.6965 52.7056 23.8783 52.8874C24.0241 53.0692 24.1695 53.2875 24.2788 53.4693C24.3881 53.6519 24.4606 53.8702 24.4967 54.052C24.5335 54.2338 24.5696 54.4157 24.5696 54.5975C24.606 54.8165 24.606 55.0708 24.606 55.2895V60.0578H21.3302V55.6899C21.3302 55.5449 21.2937 55.3631 21.2937 55.2169V54.9619C21.2937 54.8526 21.2573 54.7075 21.1848 54.5975L20.9665 54.2706C20.8572 54.1613 20.7479 54.0888 20.6386 54.0156C20.5296 53.9431 20.4203 53.8705 20.2745 53.8337C20.1652 53.7969 20.0195 53.7612 19.9105 53.7612C19.7648 53.7244 19.6558 53.7244 19.5465 53.7244H19.4736C19.3643 53.7244 19.2189 53.7612 19.0732 53.7612C18.9638 53.7973 18.8549 53.8337 18.7456 53.8705C18.5998 53.9066 18.4544 53.9798 18.3451 54.0524C18.1997 54.1617 18.0904 54.2706 17.9446 54.3799L17.6171 54.8168C17.5442 54.9619 17.4713 55.108 17.4349 55.2898C17.3984 55.3991 17.3984 55.5081 17.3984 55.581C17.362 55.7267 17.362 55.8728 17.362 56.0179V60.0582H13.9772V49.5387H17.3634ZM11.6487 52.7059H8.15462V52.5966V52.5234C8.15462 52.4141 8.15462 52.3051 8.11819 52.2322C8.08175 52.1229 8.04531 52.0504 8.00887 51.9411C7.96641 51.8527 7.9177 51.7675 7.86312 51.686C7.79024 51.6135 7.71736 51.5403 7.60841 51.4678C7.52557 51.3867 7.4261 51.3247 7.3169 51.2859C7.20795 51.2134 7.09863 51.1766 6.98932 51.1402L6.55242 51.0309C6.40702 50.9948 6.26127 50.9948 6.11588 50.9948H5.71506C5.56966 50.9948 5.46035 51.0309 5.31459 51.0673C5.16884 51.0673 5.05953 51.1041 4.91413 51.1766C4.80518 51.2134 4.69586 51.2859 4.55011 51.3224C4.47723 51.3949 4.36828 51.4674 4.2954 51.5403C4.18609 51.6135 4.11357 51.686 4.07713 51.7953C4.00425 51.8679 3.96782 51.9772 3.93138 52.0504C3.89494 52.159 3.8585 52.2687 3.8585 52.378C3.8585 52.4505 3.89494 52.5598 3.93138 52.6691C3.93138 52.7417 4.00425 52.851 4.04069 52.9235L4.29576 53.1786C4.40508 53.2154 4.51403 53.2879 4.62335 53.3243C4.73266 53.3604 4.84162 53.3968 4.95057 53.3968C5.13276 53.4336 5.27816 53.4693 5.46035 53.4693C5.67862 53.5061 5.93369 53.5061 6.15196 53.5426C6.37022 53.5426 6.62529 53.5787 6.84356 53.5787C7.20759 53.6155 7.60805 53.6155 7.97171 53.6519C8.15354 53.6519 8.29929 53.688 8.44505 53.688C8.77263 53.7248 9.13666 53.7612 9.46424 53.8337C9.75539 53.9062 10.0105 53.9795 10.3016 54.0888C10.6007 54.2012 10.8733 54.3744 11.1022 54.5975C11.3572 54.78 11.5391 55.0351 11.6845 55.2895C11.7938 55.4713 11.8663 55.6896 11.9027 55.8721C11.9392 56.09 11.9756 56.3083 11.9756 56.5634C11.9756 56.7816 11.9392 57.0367 11.9027 57.2553C11.8663 57.4732 11.757 57.6915 11.6845 57.8741C11.5391 58.1284 11.3933 58.3835 11.2111 58.5653C11.0293 58.7836 10.8471 58.9297 10.6288 59.0747C10.3012 59.293 9.97402 59.4756 9.60963 59.6209C9.24561 59.7667 8.84551 59.876 8.44505 59.9853C8.04459 60.0578 7.64413 60.0946 7.24366 60.1672C6.80713 60.204 6.37022 60.204 5.93332 60.2397H5.78793C5.42391 60.2397 5.05953 60.2036 4.69586 60.2036C4.2954 60.1668 3.89494 60.1304 3.49448 60.0578C3.13861 59.9903 2.78631 59.9051 2.43885 59.8028C2.11126 59.7303 1.82012 59.5849 1.52897 59.4391C1.32199 59.3394 1.1266 59.2172 0.946316 59.0747C0.764484 58.8929 0.618731 58.7111 0.472978 58.5285C0.400101 58.3835 0.327585 58.2742 0.254708 58.1284C0.189513 57.9638 0.14081 57.7932 0.109315 57.619C0.0728766 57.5097 0.0364383 57.4007 0.0364383 57.2914C-6.18238e-08 57.1464 0 57.0371 0 56.8913V56.8545V56.7452H3.49448V57.0003C3.49448 57.0728 3.53092 57.1821 3.53092 57.2914L3.63987 57.5097C3.71275 57.619 3.78562 57.6915 3.85814 57.8008C3.93102 57.8741 4.03997 57.9466 4.11321 58.0191C4.2586 58.0923 4.36792 58.1649 4.51367 58.2374C4.65906 58.2742 4.84126 58.3467 4.98665 58.3831C5.1324 58.4192 5.31423 58.4556 5.49642 58.4924C5.64182 58.4924 5.82401 58.5285 6.0062 58.5285C6.18803 58.5285 6.33343 58.4924 6.47918 58.4924C6.66101 58.4924 6.80676 58.4556 6.98896 58.4192C7.13435 58.3831 7.2801 58.3467 7.42586 58.2742C7.53481 58.2374 7.64412 58.2017 7.75344 58.1284C7.86276 58.0923 7.97171 58.0191 8.04459 57.9466C8.11746 57.8373 8.18998 57.7648 8.26286 57.6554C8.2993 57.5461 8.33573 57.4729 8.37217 57.3643C8.40861 57.255 8.40861 57.146 8.40861 57.0367C8.40861 56.9635 8.40861 56.8541 8.37217 56.7448C8.37217 56.6723 8.33573 56.5998 8.26286 56.5266C8.19944 56.4342 8.12626 56.3489 8.04459 56.2722C7.93527 56.199 7.82632 56.1629 7.68056 56.1265C7.57125 56.0897 7.42586 56.0539 7.2801 56.0171C7.09827 56.0171 6.95252 55.9811 6.77033 55.9811L5.16884 55.8718C4.87769 55.835 4.55011 55.835 4.22252 55.7985C3.93102 55.7624 3.60379 55.726 3.27585 55.6892C2.95942 55.6208 2.64395 55.548 2.32953 55.4709C2.11126 55.3984 1.89299 55.3259 1.67436 55.2166C1.49253 55.1073 1.31034 54.9983 1.16459 54.8522C0.982754 54.6704 0.837001 54.4521 0.728046 54.2703C0.582293 54.052 0.509777 53.8334 0.4369 53.5783C0.400462 53.36 0.364023 53.1053 0.364023 52.8871C0.364023 52.5959 0.364023 52.3408 0.4369 52.0501C0.509777 51.8318 0.582293 51.5767 0.728046 51.3949C0.873439 51.1037 1.09207 50.8487 1.34678 50.5936C1.60149 50.3757 1.85619 50.1935 2.18378 50.0481C2.47492 49.9024 2.80251 49.793 3.09366 49.6837C3.44983 49.5761 3.81554 49.503 4.18572 49.4655C4.50835 49.3933 4.83789 49.3567 5.16848 49.3561C5.49642 49.3193 5.78757 49.3193 6.11516 49.3193H6.26055C6.62457 49.3193 6.9886 49.3561 7.35226 49.3561C7.67984 49.3929 8.04387 49.4655 8.37145 49.5019C8.69903 49.5744 9.06306 49.6837 9.3542 49.793C9.64535 49.9024 9.9365 50.0113 10.228 50.1931C10.4098 50.3025 10.592 50.4114 10.7374 50.5575C10.9193 50.7033 11.0286 50.8851 11.1379 51.0669C11.2472 51.1763 11.3197 51.322 11.3562 51.467C11.429 51.6128 11.4651 51.7582 11.538 51.9039C11.538 52.0133 11.5744 52.0858 11.5744 52.1951C11.6109 52.3044 11.6109 52.3776 11.6473 52.487V52.5595L11.6487 52.7059Z" fill="#CDCAD5"/>
</svg>
