<svg width="276" height="151" viewBox="0 0 276 151" fill="none" xmlns="http://www.w3.org/2000/svg">
<path fill-rule="evenodd" clip-rule="evenodd" d="M134.84 89.5883H122.283L121.118 80.2702L113.474 74.7377C113.147 73.0998 113.001 71.4254 113.001 69.7875C113.001 56.1014 124.102 45 137.752 45C151.438 45 162.54 56.1014 162.54 69.7875C162.54 71.4258 162.358 73.0998 162.03 74.7377L154.423 80.2698L153.258 89.588H140.664L139.936 90.0974C139.317 90.5707 138.553 90.8261 137.752 90.8261C136.988 90.8261 136.223 90.5711 135.568 90.0974L134.84 89.5883ZM135.241 85.2568H126.104L125.194 77.8682L117.66 72.4082C117.444 71.5513 117.334 70.6712 117.332 69.7875C117.332 68.295 117.624 66.8392 118.242 65.4924L131.564 78.9602L118.606 62.9446C119.116 60.8698 120.244 59.0136 121.846 57.594L133.457 77.6495L123.156 55.7013C124.503 53.918 126.359 52.6073 128.47 51.9522L135.568 76.849L130.4 50.933C131.98 50.0514 133.759 49.588 135.568 49.5865C135.932 49.5865 136.333 49.5865 136.697 49.6594L137.752 76.5943L138.808 49.6594C139.208 49.5865 139.573 49.5865 139.973 49.5865C141.793 49.5865 143.54 50.0595 145.141 50.933L139.936 76.849L147.034 51.9522C149.182 52.607 151.038 53.9177 152.348 55.7013L142.047 77.6495L153.658 57.594C155.26 59.0136 156.388 60.8698 156.898 62.9446L143.94 78.9602L157.298 65.4924C157.88 66.8392 158.208 68.295 158.208 69.7875C158.208 70.6609 158.098 71.5347 157.88 72.4082L150.346 77.8678L149.4 85.2565H140.263L138.917 86.2396C138.589 86.4947 138.189 86.604 137.752 86.604C137.352 86.604 136.915 86.4947 136.587 86.2396L135.241 85.2568Z" fill="#CDCAD5"/>
<path fill-rule="evenodd" clip-rule="evenodd" d="M135.24 85.2572H126.104L125.194 77.8685L117.66 72.4085C117.443 71.5517 117.333 70.6715 117.332 69.7879C117.332 68.2953 117.624 66.8396 118.242 65.4928L131.564 78.9606L118.606 62.945C119.116 60.8702 120.244 59.014 121.845 57.5943L133.457 77.6499L123.156 55.7017C124.502 53.9184 126.359 52.6077 128.47 51.9525L135.567 76.8493L130.399 50.9333C131.979 50.0518 133.758 49.5884 135.568 49.5869C135.932 49.5869 136.332 49.5869 136.696 49.6598L137.752 76.5946L138.808 49.6598C139.208 49.5869 139.572 49.5869 139.973 49.5869C141.793 49.5869 143.54 50.0599 145.141 50.9333L139.936 76.8493L147.034 51.9525C149.181 52.6073 151.038 53.918 152.348 55.7017L142.047 77.6499L153.658 57.5943C155.259 59.014 156.387 60.8702 156.898 62.945L143.939 78.9606L157.298 65.4928C157.88 66.8396 158.207 68.2953 158.207 69.7879C158.207 70.6613 158.098 71.5351 157.88 72.4085L150.346 77.8682L149.399 85.2568H140.263L138.917 86.24C138.589 86.495 138.188 86.6043 137.752 86.6043C137.351 86.6043 136.915 86.495 136.587 86.24L135.24 85.2572Z" fill="#1C1A22"/>
<path fill-rule="evenodd" clip-rule="evenodd" d="M159.154 105.058V94.5387H162.54V105.058H159.154ZM152.749 105.058V94.5387H156.134V105.058H152.749ZM150.674 101.673H142.812V101.819C142.812 101.928 142.812 102.037 142.848 102.146C142.848 102.256 142.885 102.365 142.921 102.473C142.957 102.583 143.031 102.728 143.14 102.838C143.212 102.947 143.285 103.056 143.394 103.165C143.503 103.275 143.649 103.347 143.795 103.42C143.94 103.493 144.086 103.565 144.268 103.638C144.414 103.675 144.559 103.711 144.705 103.711C144.886 103.747 145.032 103.747 145.178 103.747H145.214C145.323 103.747 145.469 103.747 145.614 103.711C145.76 103.711 145.906 103.674 146.015 103.638C146.16 103.602 146.306 103.565 146.415 103.493C146.524 103.456 146.633 103.383 146.743 103.31C146.779 103.238 146.852 103.165 146.925 103.092C146.961 103.019 147.034 102.947 147.07 102.837V102.8C147.07 102.764 147.106 102.764 147.106 102.728H150.455C150.419 102.765 150.419 102.837 150.382 102.874C150.382 102.874 150.382 102.91 150.346 102.946C150.3 103.074 150.239 103.196 150.164 103.31C150.054 103.456 149.945 103.565 149.836 103.711C149.691 103.893 149.508 104.038 149.327 104.184C149.145 104.329 148.926 104.439 148.745 104.585C148.453 104.73 148.198 104.839 147.908 104.948C147.58 105.057 147.252 105.13 146.925 105.203C146.633 105.239 146.343 105.313 146.015 105.313C145.723 105.349 145.432 105.349 145.141 105.349H145.069C144.741 105.349 144.377 105.349 144.049 105.313C143.758 105.276 143.43 105.203 143.14 105.167C142.703 105.057 142.303 104.912 141.938 104.767C141.574 104.582 141.221 104.376 140.883 104.148C140.634 103.936 140.403 103.705 140.191 103.456C140.009 103.238 139.827 102.947 139.718 102.655C139.609 102.437 139.536 102.182 139.464 101.927C139.427 101.672 139.39 101.417 139.39 101.126C139.39 100.872 139.427 100.58 139.464 100.289C139.536 100.035 139.609 99.7797 139.718 99.5246C139.864 99.2335 140.046 98.9791 140.264 98.7241C140.482 98.4329 140.737 98.2146 141.029 97.996C141.303 97.7882 141.595 97.6054 141.903 97.4498C142.221 97.3064 142.55 97.1847 142.885 97.0854C143.212 97.0129 143.54 96.9404 143.868 96.9036C144.232 96.8668 144.596 96.8311 144.924 96.8311H145.069C145.433 96.8311 145.797 96.8671 146.161 96.9036C146.525 96.9761 146.889 97.0493 147.216 97.1218C147.581 97.2312 147.981 97.3769 148.308 97.5587C148.636 97.7406 148.964 97.9224 149.255 98.1775C149.509 98.3957 149.764 98.6508 149.983 98.9788C150.165 99.2699 150.31 99.5607 150.42 99.9244C150.492 100.143 150.565 100.362 150.602 100.616C150.638 100.871 150.675 101.126 150.675 101.417V101.49L150.674 101.673ZM147.434 100.108H142.848V99.9987C142.848 99.9619 142.848 99.9619 142.885 99.9254C142.885 99.8529 142.921 99.7804 142.921 99.7075C142.957 99.5975 142.994 99.525 143.031 99.4525C143.103 99.38 143.14 99.2706 143.212 99.1974C143.286 99.0888 143.394 99.0156 143.468 98.943C143.577 98.8337 143.722 98.7612 143.868 98.688C143.977 98.6155 144.122 98.5429 144.268 98.5061L144.705 98.3968H145.178C145.36 98.3968 145.542 98.3968 145.687 98.4336C145.869 98.4697 146.015 98.5061 146.16 98.5787C146.306 98.6155 146.415 98.6519 146.525 98.7244C146.67 98.7969 146.779 98.9062 146.852 98.9795C146.962 99.052 146.997 99.1245 147.071 99.1974C147.143 99.2706 147.18 99.3432 147.252 99.4525C147.289 99.525 147.325 99.5975 147.362 99.7075C147.398 99.7801 147.398 99.8894 147.434 99.9619V100.108ZM130.363 94.5387V98.0696L130.509 97.9239C130.546 97.9239 130.546 97.8878 130.582 97.8878C130.727 97.7785 130.873 97.6695 131.019 97.5966C131.205 97.4853 131.4 97.3877 131.601 97.3048C131.856 97.1954 132.074 97.1229 132.293 97.0504C132.511 96.9772 132.729 96.9411 132.984 96.9047C133.166 96.8679 133.385 96.8321 133.603 96.7953H134.258C134.476 96.7953 134.731 96.8321 134.95 96.8679C135.168 96.9047 135.387 96.9772 135.605 97.0504C135.823 97.1229 136.078 97.2322 136.26 97.378C136.478 97.523 136.696 97.7056 136.878 97.8874C137.024 98.0692 137.169 98.2875 137.279 98.4693C137.388 98.6519 137.461 98.8702 137.497 99.052C137.534 99.2338 137.57 99.4157 137.57 99.5975C137.606 99.8165 137.606 100.071 137.606 100.289V105.058H134.33V100.69C134.33 100.545 134.294 100.363 134.294 100.217V99.9619C134.294 99.8526 134.257 99.7075 134.185 99.5975L133.967 99.2706C133.857 99.1613 133.748 99.0888 133.639 99.0156C133.53 98.9431 133.42 98.8705 133.275 98.8337C133.165 98.7969 133.019 98.7612 132.911 98.7612C132.765 98.7244 132.656 98.7244 132.546 98.7244H132.474C132.364 98.7244 132.219 98.7612 132.073 98.7612C131.964 98.7973 131.855 98.8337 131.746 98.8705C131.6 98.9066 131.454 98.9798 131.345 99.0524C131.2 99.1617 131.09 99.2706 130.945 99.3799L130.617 99.8168C130.544 99.9619 130.471 100.108 130.435 100.29C130.398 100.399 130.398 100.508 130.398 100.581C130.362 100.727 130.362 100.873 130.362 101.018V105.058H126.977V94.5387H130.363ZM124.649 97.7059H121.155V97.5966V97.5234C121.155 97.4141 121.155 97.3051 121.118 97.2322C121.082 97.1229 121.045 97.0504 121.009 96.9411C120.966 96.8527 120.918 96.7675 120.863 96.686C120.79 96.6135 120.717 96.5403 120.608 96.4678C120.526 96.3867 120.426 96.3247 120.317 96.2859C120.208 96.2134 120.099 96.1766 119.989 96.1402L119.552 96.0309C119.407 95.9948 119.261 95.9948 119.116 95.9948H118.715C118.57 95.9948 118.46 96.0309 118.315 96.0673C118.169 96.0673 118.06 96.1041 117.914 96.1766C117.805 96.2134 117.696 96.2859 117.55 96.3224C117.477 96.3949 117.368 96.4674 117.295 96.5403C117.186 96.6135 117.114 96.686 117.077 96.7953C117.004 96.8679 116.968 96.9772 116.931 97.0504C116.895 97.159 116.859 97.2687 116.859 97.378C116.859 97.4505 116.895 97.5598 116.931 97.6691C116.931 97.7417 117.004 97.851 117.041 97.9235L117.296 98.1786C117.405 98.2154 117.514 98.2879 117.623 98.3243C117.733 98.3604 117.842 98.3968 117.951 98.3968C118.133 98.4336 118.278 98.4693 118.46 98.4693C118.679 98.5061 118.934 98.5061 119.152 98.5426C119.37 98.5426 119.625 98.5787 119.844 98.5787C120.208 98.6155 120.608 98.6155 120.972 98.6519C121.154 98.6519 121.299 98.688 121.445 98.688C121.773 98.7248 122.137 98.7612 122.464 98.8337C122.755 98.9062 123.01 98.9795 123.302 99.0888C123.601 99.2012 123.873 99.3744 124.102 99.5975C124.357 99.78 124.539 100.035 124.684 100.289C124.794 100.471 124.866 100.69 124.903 100.872C124.939 101.09 124.976 101.308 124.976 101.563C124.976 101.782 124.939 102.037 124.903 102.255C124.866 102.473 124.757 102.692 124.684 102.874C124.539 103.128 124.393 103.383 124.211 103.565C124.029 103.784 123.847 103.93 123.629 104.075C123.301 104.293 122.974 104.476 122.61 104.621C122.246 104.767 121.846 104.876 121.445 104.985C121.045 105.058 120.644 105.095 120.244 105.167C119.807 105.204 119.37 105.204 118.933 105.24H118.788C118.424 105.24 118.06 105.204 117.696 105.204C117.295 105.167 116.895 105.13 116.494 105.058C116.139 104.99 115.786 104.905 115.439 104.803C115.111 104.73 114.82 104.585 114.529 104.439C114.322 104.339 114.127 104.217 113.946 104.075C113.764 103.893 113.619 103.711 113.473 103.529C113.4 103.383 113.328 103.274 113.255 103.128C113.19 102.964 113.141 102.793 113.109 102.619C113.073 102.51 113.036 102.401 113.036 102.291C113 102.146 113 102.037 113 101.891V101.855V101.745H116.494V102C116.494 102.073 116.531 102.182 116.531 102.291L116.64 102.51C116.713 102.619 116.786 102.692 116.858 102.801C116.931 102.874 117.04 102.947 117.113 103.019C117.259 103.092 117.368 103.165 117.514 103.237C117.659 103.274 117.841 103.347 117.987 103.383C118.132 103.419 118.314 103.456 118.496 103.492C118.642 103.492 118.824 103.529 119.006 103.529C119.188 103.529 119.333 103.492 119.479 103.492C119.661 103.492 119.807 103.456 119.989 103.419C120.134 103.383 120.28 103.347 120.426 103.274C120.535 103.237 120.644 103.202 120.753 103.128C120.863 103.092 120.972 103.019 121.045 102.947C121.117 102.837 121.19 102.765 121.263 102.655C121.299 102.546 121.336 102.473 121.372 102.364C121.409 102.255 121.409 102.146 121.409 102.037C121.409 101.963 121.409 101.854 121.372 101.745C121.372 101.672 121.336 101.6 121.263 101.527C121.199 101.434 121.126 101.349 121.045 101.272C120.935 101.199 120.826 101.163 120.681 101.126C120.571 101.09 120.426 101.054 120.28 101.017C120.098 101.017 119.953 100.981 119.77 100.981L118.169 100.872C117.878 100.835 117.55 100.835 117.223 100.799C116.931 100.762 116.604 100.726 116.276 100.689C115.959 100.621 115.644 100.548 115.33 100.471C115.111 100.398 114.893 100.326 114.674 100.217C114.493 100.107 114.31 99.9983 114.165 99.8522C113.983 99.6704 113.837 99.4521 113.728 99.2703C113.582 99.052 113.51 98.8334 113.437 98.5783C113.4 98.36 113.364 98.1053 113.364 97.8871C113.364 97.5959 113.364 97.3408 113.437 97.0501C113.51 96.8318 113.582 96.5767 113.728 96.3949C113.873 96.1037 114.092 95.8487 114.347 95.5936C114.601 95.3757 114.856 95.1935 115.184 95.0481C115.475 94.9024 115.803 94.793 116.094 94.6837C116.45 94.5761 116.816 94.503 117.186 94.4655C117.508 94.3933 117.838 94.3567 118.168 94.3561C118.496 94.3193 118.788 94.3193 119.115 94.3193H119.261C119.625 94.3193 119.989 94.3561 120.352 94.3561C120.68 94.3929 121.044 94.4655 121.371 94.5019C121.699 94.5744 122.063 94.6837 122.354 94.793C122.645 94.9024 122.936 95.0113 123.228 95.1931C123.41 95.3025 123.592 95.4114 123.737 95.5575C123.919 95.7033 124.029 95.8851 124.138 96.0669C124.247 96.1763 124.32 96.322 124.356 96.467C124.429 96.6128 124.465 96.7582 124.538 96.9039C124.538 97.0133 124.574 97.0858 124.574 97.1951C124.611 97.3044 124.611 97.3776 124.647 97.487V97.5595L124.649 97.7059Z" fill="#CDCAD5"/>
</svg>
