<svg width="71" height="12" viewBox="0 0 71 12" fill="none" xmlns="http://www.w3.org/2000/svg">
<path d="M25.2943 11.9999C22.7223 11.9999 20.3348 11.2594 18.7411 9.88627C17.5371 8.84883 16.9586 7.43968 16.9586 5.98932C16.9586 4.55663 17.5621 3.13775 18.741 2.1058C20.221 0.810922 22.8341 0 25.2943 0C28.0168 0 30.1958 0.658318 31.8616 2.10935C33.0468 3.14186 33.6198 4.55444 33.6198 5.98946C33.6198 7.38042 33.0117 8.8617 31.8616 9.88627C30.3104 11.2683 27.8728 11.9999 25.2943 11.9999V10.4172C26.6594 10.4172 27.9257 9.96469 28.81 9.11996C29.6883 8.28098 30.0974 7.24971 30.0974 5.98932C30.0974 4.78191 29.656 3.65305 28.81 2.85239C27.9375 2.02737 26.641 1.56313 25.2943 1.56313C23.9434 1.56313 22.646 2.02258 21.7728 2.85239C20.9313 3.65277 20.4888 4.78492 20.4888 5.98932C20.4888 7.19004 20.9364 8.32149 21.7728 9.1201C22.6467 9.9547 23.9395 10.4173 25.2943 10.4173V12V11.9999ZM6.49579 0.00574831C5.11998 0.00574831 3.55699 0.252789 2.22894 0.822145C1.00327 1.34716 2.90483e-07 2.19626 2.90483e-07 3.60391C-0.000569991 4.87169 0.838741 5.61418 0.81593 5.59365C1.17293 5.90912 1.74763 6.44631 3.25018 6.76179C3.92168 6.90276 5.35736 7.11928 6.78706 7.26271C8.2062 7.40642 9.60282 7.54301 10.1717 7.68124C10.6236 7.79169 11.3828 7.94211 11.3828 8.75973C11.3828 9.57408 10.583 9.82262 10.444 9.87655C10.3051 9.92924 9.34563 10.3519 7.62081 10.3519C6.34737 10.3519 4.81645 9.98426 4.25843 9.79265C3.61515 9.57285 2.94037 9.28215 2.31092 8.54404C2.15438 8.36105 1.90745 7.8578 1.90745 7.35947H0.346446V11.5585H2.08153V10.9912C2.08153 10.9266 2.16564 10.6609 2.45691 10.7872C2.81933 10.9453 3.88319 11.3519 4.99552 11.5749C5.90754 11.758 6.49565 11.8893 7.62951 11.8893C9.4795 11.8893 10.4734 11.5999 11.1604 11.4116C11.8077 11.2337 12.6075 10.9143 13.2572 10.4169C13.609 10.148 14.3806 9.45856 14.3806 8.20721C14.3806 7.00609 13.7091 6.26059 13.4729 6.03381C13.1511 5.72477 12.758 5.48525 12.3484 5.30062C11.9916 5.1394 11.4284 4.94573 10.9676 4.83747C10.0733 4.6267 8.05109 4.36666 7.08403 4.26949C6.06993 4.1678 4.31076 4.02792 3.60817 3.8192C3.39517 3.75583 2.9609 3.55724 2.9609 3.07329C2.9609 2.72908 3.1595 2.43728 3.552 2.20146C4.17503 1.82673 5.4335 1.59379 6.74529 1.59379C8.29617 1.58831 9.60952 1.92869 10.445 2.28728C10.7291 2.40909 11.0616 2.584 11.3256 2.79094C11.6236 3.02416 12.0419 3.50879 12.1932 4.18477H13.5946V0.529665H12.0298V0.954493C12.0298 1.09163 11.8822 1.26983 11.6032 1.12256C10.9029 0.769862 8.9229 0.0088962 6.4955 0.00574831M40.7888 0.669951L48.4223 7.28324L48.3439 2.83063C48.3362 2.24677 48.2241 2.00301 47.5663 2.00301H46.131V0.671046H52.6579V2.00301H51.2579C50.5869 2.00301 50.5446 2.20899 50.5365 2.83063L50.6548 11.3385H48.4196L39.6273 3.80552L39.6291 9.15171C39.6368 9.73284 39.6652 10.0066 40.2889 10.0066H41.8565V11.338H35.4465V10.0067H36.945C37.5047 10.0067 37.4824 9.49442 37.4824 9.12147V2.88127C37.4824 2.47848 37.4236 2.00397 36.5448 2.00397H35.3289V0.669951H40.7888ZM60.1162 10.0041C60.1775 10.0041 60.4498 9.99658 60.5026 9.98111C60.5689 9.96187 60.6301 9.92901 60.682 9.88482C60.7338 9.84063 60.775 9.78616 60.8028 9.72518C60.8228 9.68001 60.8327 9.48019 60.8327 9.4368L60.8339 7.33183C60.8339 7.28119 60.83 7.25929 60.7405 7.14651C60.6421 7.02334 56.7421 2.78054 56.5636 2.59372C56.3419 2.36173 55.9527 2.00315 55.3613 2.00315H54.0051V0.670636H61.6592V2.00151H60.7365C60.5231 2.00151 60.3812 2.19585 60.5636 2.41183C60.5636 2.41183 63.1388 5.36906 63.1632 5.39999C63.1872 5.43147 63.2077 5.43899 63.2405 5.41025C63.2727 5.38083 65.8803 2.43892 65.9008 2.41566C66.0249 2.27304 65.9408 2.00301 65.6734 2.00301H64.7269V0.670636H71V2.00301H69.5985C69.0901 2.00301 68.8833 2.09334 68.5007 2.50845C68.3258 2.69842 64.3842 7.01745 64.277 7.13447C64.2208 7.19565 64.2256 7.28091 64.2256 7.33155V9.43626C64.2256 9.47896 64.2356 9.67905 64.2556 9.72394C64.2833 9.78503 64.3246 9.83958 64.3766 9.88378C64.4285 9.92799 64.4899 9.96078 64.5564 9.97988C64.6091 9.99548 64.8777 10.0031 64.9389 10.0031H66.3725V11.3354H58.7578V10.003L60.1165 10.0041H60.1162Z" fill="#CDCAD5"/>
</svg>
