<svg width="114" height="21" viewBox="0 0 114 21" fill="none" xmlns="http://www.w3.org/2000/svg">
<path d="M40.6133 20.9998C36.4837 20.9998 32.6502 19.704 30.0914 17.301C28.1582 15.4855 27.2293 13.0194 27.2293 10.4813C27.2293 7.9741 28.1983 5.49107 30.0912 3.68514C32.4676 1.41911 36.6631 0 40.6133 0C44.9847 0 48.4834 1.15206 51.1581 3.69137C53.061 5.49826 53.9811 7.97027 53.9811 10.4816C53.9811 12.9157 53.0047 15.508 51.1581 17.301C48.6675 19.7196 44.7535 20.9998 40.6133 20.9998V18.23C42.8052 18.23 44.8384 17.4382 46.2584 15.9599C47.6685 14.4917 48.3255 12.687 48.3255 10.4813C48.3255 8.36834 47.6167 6.39283 46.2584 4.99169C44.8574 3.5479 42.7756 2.73548 40.6133 2.73548C38.4443 2.73548 36.3612 3.53952 34.9591 4.99169C33.608 6.39236 32.8975 8.37361 32.8975 10.4813C32.8975 12.5826 33.6163 14.5626 34.9591 15.9602C36.3623 17.4207 38.4381 18.2303 40.6133 18.2303V21V20.9998ZM10.4299 0.0100595C8.22082 0.0100595 5.71122 0.44238 3.57887 1.43875C1.61088 2.35752 4.6641e-07 3.84346 4.6641e-07 6.30685C-0.000915196 8.52546 1.34671 9.82481 1.31008 9.78889C1.88329 10.341 2.80605 11.2811 5.21859 11.8331C6.29678 12.0798 8.60196 12.4587 10.8975 12.7097C13.1762 12.9612 15.4186 13.2003 16.332 13.4422C17.0577 13.6355 18.2766 13.8987 18.2766 15.3295C18.2766 16.7546 16.9924 17.1896 16.7692 17.284C16.5463 17.3762 15.0057 18.1158 12.2362 18.1158C10.1916 18.1158 7.73346 17.4725 6.83748 17.1371C5.80461 16.7525 4.72116 16.2438 3.71049 14.9521C3.45914 14.6318 3.06266 13.7511 3.06266 12.8791H0.556266V20.2273H3.34217V19.2346C3.34217 19.1215 3.47723 18.6566 3.9449 18.8777C4.52681 19.1543 6.23498 19.8659 8.02098 20.2561C9.48535 20.5765 10.4296 20.8062 12.2502 20.8062C15.2206 20.8062 16.8164 20.2999 17.9195 19.9703C18.9588 19.659 20.243 19.0999 21.2862 18.2296C21.8511 17.7589 23.09 16.5525 23.09 14.3626C23.09 12.2607 22.0118 10.956 21.6325 10.5592C21.1159 10.0183 20.4847 9.59919 19.8271 9.27609C19.2541 8.99394 18.3499 8.65503 17.61 8.46558C16.174 8.09673 12.9271 7.64165 11.3744 7.4716C9.74609 7.29364 6.92149 7.04886 5.7934 6.6836C5.4514 6.57271 4.75412 6.22518 4.75412 5.37826C4.75412 4.77588 5.073 4.26524 5.70321 3.85256C6.70357 3.19678 8.72421 2.78913 10.8305 2.78913C13.3206 2.77955 15.4294 3.37521 16.7708 4.00274C17.227 4.2159 17.7609 4.522 18.1848 4.88414C18.6633 5.29227 19.3349 6.14039 19.5778 7.32334H21.828V0.926914H19.3154V1.67036C19.3154 1.91035 19.0785 2.2222 18.6305 1.96448C17.5061 1.34726 14.3269 0.0155683 10.4294 0.0100595M65.4919 1.17241L77.7485 12.7457L77.6226 4.9536C77.6102 3.93184 77.4303 3.50527 76.374 3.50527H74.0695V1.17433H84.5493V3.50527H82.3014C81.2241 3.50527 81.1561 3.86574 81.1431 4.9536L81.333 19.8424H77.7441L63.6269 6.65965L63.6299 16.0155C63.6422 17.0325 63.6878 17.5115 64.6893 17.5115H67.2062V19.8415H56.9142V17.5117H59.3201C60.2188 17.5117 60.1831 16.6152 60.1831 15.9626V5.04222C60.1831 4.33734 60.0885 3.50695 58.6775 3.50695H56.7253V1.17241H65.4919ZM96.5246 17.5072C96.623 17.5072 97.0602 17.494 97.1449 17.4669C97.2515 17.4333 97.3498 17.3758 97.433 17.2984C97.5163 17.2211 97.5825 17.1258 97.627 17.0191C97.6591 16.94 97.6751 16.5903 97.6751 16.5144L97.6769 12.8307C97.6769 12.7421 97.6708 12.7038 97.527 12.5064C97.369 12.2908 91.1071 4.86594 90.8205 4.53901C90.4645 4.13303 89.8396 3.50551 88.89 3.50551H86.7123V1.17361H99.0021V3.50263H97.5206C97.1779 3.50263 96.9501 3.84274 97.2429 4.22069C97.2429 4.22069 101.378 9.39585 101.417 9.44998C101.455 9.50506 101.488 9.51824 101.541 9.46794C101.593 9.41644 105.78 4.26812 105.813 4.2274C106.012 3.97783 105.877 3.50527 105.447 3.50527H103.928V1.17361H114V3.50527H111.75C110.933 3.50527 110.601 3.66335 109.987 4.38979C109.706 4.72223 103.377 12.2805 103.205 12.4853C103.115 12.5924 103.123 12.7416 103.123 12.8302V16.5134C103.123 16.5882 103.139 16.9383 103.171 17.0169C103.215 17.1238 103.282 17.2193 103.365 17.2966C103.449 17.374 103.547 17.4314 103.654 17.4648C103.739 17.4921 104.17 17.5055 104.268 17.5055H106.57V19.8369H94.3435V17.5053L96.525 17.5072H96.5246Z" fill="#CDCAD5"/>
</svg>
