<svg width="82" height="14" viewBox="0 0 82 14" fill="none" xmlns="http://www.w3.org/2000/svg">
<path fill-rule="evenodd" clip-rule="evenodd" d="M78.7714 10.2623C80.1696 8.86021 80.619 6.46145 79.8592 4.66652C79.2178 3.21858 77.9195 2.0806 76.4584 1.62103C74.0635 0.879759 71.4922 1.66148 70.037 3.5958C68.9902 4.91068 68.7455 7.02239 69.4108 8.56049C69.9829 9.81202 70.9825 11.1352 72.4865 11.276C72.9889 11.2653 73.5333 11.0324 73.7648 10.563C73.9297 10.2559 73.9168 9.85589 73.9043 9.47031C73.8994 9.31805 73.8946 9.16804 73.9008 9.02689L70.1735 9.03469C72.003 6.79675 73.5401 4.10216 74.6357 1.37442C75.6552 4.06755 77.1782 6.62471 79.0979 8.88994L79.2008 9.02055L75.3969 9.02738C75.3419 9.46356 75.3141 9.86806 75.4247 10.2887C75.5519 10.7731 75.9194 11.1293 76.4306 11.2492C77.3683 11.4378 78.0954 10.8355 78.7714 10.2623ZM80.2135 10.7555C81.7745 8.84705 82.1692 5.84397 80.9206 3.62406C80.3602 2.64253 79.5375 1.71704 78.6076 1.12831C76.5183 -0.256757 73.4173 -0.3669 71.2344 0.799343C68.9965 1.95048 67.4526 4.35656 67.6153 6.97122C67.7523 9.77254 69.7924 12.2132 72.4309 12.9784C75.2332 13.8654 78.402 12.9189 80.2135 10.7555ZM65.139 13.4713H0V0.181586H65.1532L65.139 13.4713ZM23.8628 3.76219C23.9749 3.99271 24.0334 4.24321 24.0261 4.55122L16.8259 4.55366C16.6061 4.55366 16.2615 4.67988 16.1353 4.96937C15.9779 5.32953 16.1592 5.74329 16.5159 5.90217C16.6582 5.96553 16.9102 5.95724 16.9102 5.95724H22.1483C23.0855 6.02401 23.9208 6.63077 24.2434 7.63034C24.5242 8.50027 24.3794 9.22399 23.8078 9.93504C23.1479 10.7558 22.2448 10.766 21.2501 10.764L15.4545 10.7572C14.8253 10.7572 14.296 10.1329 14.2063 9.49106L14.2024 9.16648L21.8539 9.17428C22.1098 9.17428 22.4378 8.81851 22.4466 8.45348C22.4563 8.05921 22.1863 7.68541 21.7959 7.68541H16.2839C15.3307 7.68541 14.3589 6.78282 14.2024 5.65557C14.0757 4.74324 14.3735 4.05314 15.0758 3.46393C15.606 3.01946 16.0091 2.89226 16.7503 2.89128L21.8481 2.88446C22.6371 2.86984 23.4939 3.0063 23.8628 3.76219ZM35.7801 2.91858C37.0127 2.91955 38.0117 4.19691 37.9781 5.53324C37.9459 6.82279 36.8304 8.01388 35.8074 8.01388H31.5085C30.8793 7.93591 30.3963 7.47584 30.1478 6.94414C30.0817 6.78211 30.0642 6.56897 30.0486 6.37994C30.0441 6.32619 30.0399 6.27439 30.0347 6.22626L30.2569 6.23065H35.4536C35.6778 6.23065 35.8917 6.02401 35.998 5.76425C36.095 5.52642 36.0891 5.33392 35.9707 5.10583C35.8401 4.85338 35.6042 4.6945 35.3722 4.6945H29.5766L29.5225 4.74957V9.92237C29.5225 10.4039 29.1058 10.7582 28.6141 10.7484C28.1832 10.7406 27.7812 10.3888 27.7812 9.93163V4.39332C27.7812 3.93569 27.9537 3.66521 28.2768 3.35671C28.5784 3.0754 28.9741 2.91688 29.3865 2.91224L35.7801 2.91858ZM45.7755 5.90741L45.7756 5.90751C46.145 6.39945 46.5159 6.89331 46.8543 7.41054H43.0106L44.9229 4.99666C44.9229 4.99666 44.9741 4.91527 45.0238 4.91966C45.0716 4.92405 45.1106 5.0069 45.1106 5.0069C45.3266 5.30957 45.5508 5.60813 45.7755 5.90741ZM46.6823 4.10967C47.1055 4.70281 47.7127 5.51772 48.3487 6.3713L48.3488 6.37134C49.2031 7.51803 50.1095 8.7345 50.6918 9.57684C50.8195 9.91019 50.6698 10.2669 50.5012 10.5374C50.2273 10.7952 49.779 10.8498 49.4666 10.7021C49.1229 10.3927 48.8533 10.0303 48.5869 9.67236L48.5868 9.67221C48.4732 9.51953 48.3602 9.36766 48.2423 9.22107L41.6304 9.20693L40.8486 10.2747C40.602 10.6115 40.2892 10.843 39.8072 10.7562C39.5567 10.7056 39.3188 10.4926 39.236 10.263C39.1078 9.96526 39.1219 9.68406 39.2901 9.41211L43.4809 3.81677C43.8322 3.28702 44.2119 2.90785 44.8679 2.91175C45.7869 2.92389 45.944 3.13231 46.4679 3.82753L46.4682 3.82792C46.5332 3.91417 46.6039 4.0079 46.6823 4.10967ZM61.5476 2.91858C62.4566 2.91955 63.3075 3.61403 63.6486 4.61458C64.0151 5.68725 63.6774 6.6371 62.8537 7.41054C62.671 7.58306 62.3367 7.79409 62.3367 7.79409L63.4732 9.43404C63.577 9.58366 63.6101 9.88143 63.5131 10.1392C63.4235 10.378 63.3046 10.5179 63.0716 10.6188C62.7548 10.7558 62.3367 10.629 62.2017 10.4619C62.2017 10.4619 61.1153 9.12847 60.5139 8.36966C60.4636 8.31647 60.4247 8.26517 60.3857 8.21375C60.3429 8.15726 60.2999 8.10062 60.2415 8.04118L57.3452 8.05531C56.6273 8.05823 55.7793 7.19269 55.7793 6.50357V6.23699L61.1724 6.23016C61.3741 6.22968 61.6008 6.03961 61.7109 5.79105C61.8108 5.56687 61.8089 5.38557 61.7109 5.16042C61.593 4.8914 61.3273 4.70035 61.1178 4.70084L55.2515 4.7179L55.2354 4.77687V10.0462C55.2354 10.3975 54.7549 10.8493 54.2836 10.804C53.8494 10.7631 53.4926 10.3166 53.4936 10.0062L53.5004 4.42061C53.5014 3.8387 53.669 3.61257 54.0336 3.29238C54.3889 2.98047 54.7095 2.91127 55.1808 2.91224L61.5476 2.91858Z" fill="#CDCAD5"/>
</svg>
