<svg width="139" height="23" viewBox="0 0 139 23" fill="none" xmlns="http://www.w3.org/2000/svg">
<path fill-rule="evenodd" clip-rule="evenodd" d="M134.082 17.4681C136.462 15.0815 137.227 10.9984 135.934 7.94314C134.842 5.47853 132.632 3.54151 130.145 2.75924C126.068 1.49749 121.692 2.8281 119.215 6.1206C117.433 8.35875 117.016 11.9532 118.149 14.5713C119.123 16.7016 120.824 18.9538 123.384 19.1936C124.239 19.1753 125.166 18.7788 125.56 17.9799C125.841 17.4572 125.819 16.7763 125.797 16.12C125.789 15.8608 125.781 15.6054 125.791 15.3652L119.447 15.3784C122.561 11.5691 125.178 6.98251 127.042 2.33948C128.778 6.92361 131.37 11.2763 134.638 15.1321L134.813 15.3544L128.338 15.366C128.244 16.1085 128.197 16.797 128.385 17.5129C128.602 18.3375 129.227 18.9439 130.098 19.1479C131.694 19.469 132.931 18.4437 134.082 17.4681ZM136.537 18.3076C139.194 15.0591 139.866 9.94734 137.74 6.16872C136.786 4.49799 135.386 2.92266 133.803 1.92056C130.247 -0.43704 124.968 -0.624522 121.253 1.36061C117.444 3.32002 114.816 7.41554 115.093 11.8661C115.326 16.6344 118.798 20.7888 123.289 22.0912C128.059 23.601 133.453 21.99 136.537 18.3076ZM110.877 22.9299H0V0.308752H110.901L110.877 22.9299ZM40.6181 6.40267C40.8089 6.79505 40.9084 7.22144 40.896 7.74572L28.6401 7.74987C28.266 7.74987 27.6795 7.96472 27.4647 8.45748C27.1967 9.07052 27.5053 9.77481 28.1125 10.0452C28.3548 10.1531 28.7837 10.139 28.7837 10.139H37.6997C39.295 10.2526 40.7168 11.2854 41.266 12.9869C41.7438 14.4676 41.4974 15.6995 40.5244 16.9098C39.4011 18.3068 37.864 18.3242 36.1709 18.3209L26.3058 18.3093C25.2348 18.3093 24.3339 17.2466 24.1813 16.1541L24.1746 15.6016L37.1987 15.6149C37.6342 15.6149 38.1925 15.0093 38.2074 14.388C38.224 13.7169 37.7644 13.0806 37.1 13.0806H27.7177C26.0951 13.0806 24.4409 11.5443 24.1746 9.62549C23.959 8.07257 24.4658 6.89791 25.6612 5.89498C26.5638 5.13842 27.2498 4.92191 28.5116 4.92025L37.1887 4.90864C38.5318 4.88375 39.9901 5.11603 40.6181 6.40267ZM60.9032 4.9667C63.0012 4.96836 64.7018 7.14263 64.6445 9.41728C64.5898 11.6123 62.6909 13.6397 60.9497 13.6397H53.6322C52.5612 13.507 51.7391 12.7239 51.3161 11.8188C51.2037 11.5431 51.1738 11.1803 51.1472 10.8585L51.1472 10.8584C51.1397 10.7669 51.1324 10.6788 51.1236 10.5969L51.5019 10.6044H60.3474C60.729 10.6044 61.0932 10.2526 61.2741 9.81049C61.4391 9.40566 61.4292 9.07799 61.2276 8.68976C61.0053 8.26005 60.6038 7.98961 60.2089 7.98961H50.3438L50.2517 8.08335V16.8883C50.2517 17.7079 49.5425 18.3109 48.7055 18.2944C47.9721 18.2811 47.2877 17.6821 47.2877 16.904V7.47694C47.2877 6.69799 47.5814 6.23759 48.1314 5.71248C48.6447 5.23364 49.3184 4.96381 50.0203 4.95592L60.9032 4.9667ZM77.9169 10.0541L77.9171 10.0544C78.5459 10.8917 79.1771 11.7323 79.7532 12.6127H73.2105L76.4657 8.50393C76.4657 8.50393 76.5528 8.3654 76.6374 8.37286C76.7187 8.38033 76.7851 8.52136 76.7851 8.52136C77.1528 9.03652 77.5344 9.54469 77.9169 10.0541ZM79.4604 6.99414C80.1808 8.00374 81.2143 9.39084 82.2969 10.8438C83.7513 12.7956 85.2941 14.8663 86.2852 16.3001C86.5025 16.8675 86.2478 17.4748 85.9608 17.9352C85.4946 18.374 84.7314 18.4669 84.1997 18.2155C83.6147 17.6888 83.1557 17.0719 82.7024 16.4627L82.7022 16.4624C82.5088 16.2025 82.3165 15.9441 82.1158 15.6945L70.8612 15.6705L69.5306 17.488C69.1109 18.0612 68.5783 18.4553 67.7579 18.3076C67.3315 18.2214 66.9267 17.8588 66.7856 17.4681C66.5675 16.9613 66.5915 16.4826 66.8777 16.0197L74.0111 6.49558C74.6092 5.59385 75.2554 4.94845 76.372 4.95509C77.9363 4.97575 78.2037 5.33051 79.0955 6.5139L79.0961 6.51471C79.2067 6.66147 79.3269 6.82096 79.4604 6.99414ZM104.764 4.9667C106.311 4.96836 107.759 6.15048 108.34 7.85356C108.964 9.67942 108.389 11.2962 106.987 12.6127C106.676 12.9064 106.107 13.2656 106.107 13.2656L108.041 16.057C108.218 16.3117 108.274 16.8186 108.109 17.2574C107.956 17.6639 107.754 17.902 107.358 18.0737C106.818 18.3068 106.107 18.0911 105.877 17.8066C105.877 17.8066 104.028 15.5369 103.004 14.2453C102.918 14.1548 102.852 14.0674 102.786 13.9799C102.713 13.8837 102.64 13.7873 102.54 13.6862L97.6103 13.7102C96.3883 13.7152 94.9449 12.2419 94.9449 11.0689V10.6152L104.125 10.6035C104.468 10.6027 104.854 10.2792 105.041 9.85611C105.211 9.47452 105.208 9.16592 105.041 8.78267C104.841 8.32475 104.389 7.99957 104.032 8.00039L94.0465 8.02943L94.0191 8.1298V17.099C94.0191 17.6971 93.2012 18.4661 92.399 18.3889C91.6599 18.3192 91.0526 17.5594 91.0543 17.0309L91.0659 7.5234C91.0676 6.53291 91.3529 6.148 91.9734 5.60298C92.5782 5.07206 93.124 4.95426 93.9262 4.95592L104.764 4.9667Z" fill="#CDCAD5"/>
</svg>
