<svg width="351" height="35" viewBox="0 0 351 35" fill="none" xmlns="http://www.w3.org/2000/svg">
<path d="M13.1376 33.232L7.95363 33.616V34H22.0176V33.616L16.8336 33.232V1.408H23.8416C24.6096 1.408 25.1536 1.536 25.4736 1.792C25.8256 2.016 26.1456 2.496 26.4336 3.232L29.4096 10.624L29.7936 10.528L28.7376 0.111999H28.4496C27.7456 0.431998 27.1376 0.639998 26.6256 0.735999C26.1456 0.831998 25.5216 0.879997 24.7536 0.879997H6.27363C5.50563 0.879997 4.86563 0.831998 4.35363 0.735999C3.87363 0.639998 3.28163 0.431998 2.57763 0.111999H2.28963L0.417625 10.528L0.801625 10.624L4.11363 3.232C4.43363 2.496 4.76963 2.016 5.12163 1.792C5.47363 1.536 6.03363 1.408 6.80163 1.408H13.1376V33.232ZM60.4195 1.648V33.232L64.3555 33.616V34H52.5475V33.616L56.7235 33.232V16.96H40.7395V33.232L44.9155 33.616V34H33.1075V33.616L37.0435 33.232V1.648L33.1075 1.264V0.879997H44.9155V1.264L40.7395 1.648V16.192H56.7235V1.648L52.5475 1.264V0.879997H64.3555V1.264L60.4195 1.648ZM92.9369 23.92L91.7369 34H68.2169V33.616L72.1529 33.232V1.648L68.2169 1.264V0.879997H91.7849L92.4569 9.904L91.9769 9.952L89.2889 3.232C89.0009 2.496 88.6809 2.016 88.3289 1.792C88.0089 1.568 87.4649 1.456 86.6969 1.456H75.8489V16.192H82.9529C83.7209 16.192 84.2649 16.064 84.5849 15.808C84.9049 15.552 85.1289 15.056 85.2569 14.32L86.0729 10.432H86.6489V22.72H86.0729L85.2569 18.832C85.1289 18.096 84.9049 17.6 84.5849 17.344C84.2649 17.088 83.7209 16.96 82.9529 16.96H75.8489V33.424H86.6009C87.3689 33.424 87.9289 33.312 88.2809 33.088C88.6329 32.832 88.9529 32.352 89.2409 31.648L92.4089 23.872L92.9369 23.92ZM126.213 0.879997V1.264L123.525 1.504C122.757 1.568 122.213 1.728 121.893 1.984C121.605 2.208 121.285 2.688 120.933 3.424L112.581 20.848V33.232L116.757 33.616V34H104.709V33.616L108.885 33.232V21.088L98.4693 1.648L94.5332 1.264V0.879997H106.485V1.264L102.309 1.648L112.053 19.84H112.293L120.165 3.424C120.293 3.136 120.357 2.832 120.357 2.512C120.357 2.192 120.245 1.952 120.021 1.792C119.797 1.632 119.429 1.536 118.917 1.504L115.989 1.264V0.879997H126.213ZM147.435 33.232L142.251 33.616V34H156.315V33.616L151.131 33.232V1.408H158.139C158.907 1.408 159.451 1.536 159.771 1.792C160.123 2.016 160.443 2.496 160.731 3.232L163.707 10.624L164.091 10.528L163.035 0.111999H162.747C162.043 0.431998 161.435 0.639998 160.923 0.735999C160.443 0.831998 159.819 0.879997 159.051 0.879997H140.571C139.803 0.879997 139.163 0.831998 138.651 0.735999C138.171 0.639998 137.579 0.431998 136.875 0.111999H136.587L134.715 10.528L135.099 10.624L138.411 3.232C138.731 2.496 139.067 2.016 139.419 1.792C139.771 1.536 140.331 1.408 141.099 1.408H147.435V33.232ZM196.54 33.616V34H191.596C190.828 34 190.252 33.888 189.868 33.664C189.484 33.44 189.084 33.008 188.668 32.368L181.324 20.512C180.876 19.776 180.492 19.328 180.172 19.168C179.884 18.976 179.356 18.88 178.588 18.88H175.036V33.232L179.212 33.616V34H167.404V33.616L171.34 33.232V1.648L167.404 1.264V0.879997H179.548C183.324 0.879997 186.204 1.648 188.188 3.184C190.172 4.688 191.164 6.88 191.164 9.76C191.164 12 190.556 13.84 189.34 15.28C188.124 16.72 186.364 17.712 184.06 18.256H184.108L192.892 31.984C193.308 32.624 193.708 33.056 194.092 33.28C194.508 33.504 195.1 33.616 195.868 33.616H196.54ZM175.036 1.456V18.16H179.404C181.964 18.16 183.852 17.488 185.068 16.144C186.316 14.768 186.94 12.672 186.94 9.856C186.94 7.008 186.316 4.896 185.068 3.52C183.82 2.144 181.932 1.456 179.404 1.456H175.036ZM220.462 3.808C220.462 3.04 220.366 2.512 220.174 2.224C219.982 1.936 219.598 1.744 219.022 1.648L215.614 1.264V0.879997H226.126V1.264L222.67 1.648C222.094 1.744 221.71 1.936 221.518 2.224C221.326 2.512 221.23 3.04 221.23 3.808V22.24C221.23 24.256 221.07 25.936 220.75 27.28C220.462 28.624 219.998 29.776 219.358 30.736C218.494 31.984 217.31 32.976 215.806 33.712C214.302 34.416 212.638 34.768 210.814 34.768C209.342 34.768 207.886 34.528 206.446 34.048C205.006 33.568 203.806 32.912 202.846 32.08C201.854 31.216 201.15 30.112 200.734 28.768C200.318 27.424 200.11 25.568 200.11 23.2V1.648L196.174 1.264V0.879997H207.982V1.264L203.806 1.648V24.784C203.806 27.12 204.014 28.912 204.43 30.16C204.878 31.408 205.614 32.336 206.638 32.944C207.182 33.264 207.854 33.52 208.654 33.712C209.454 33.904 210.286 34 211.15 34C212.75 34 214.222 33.68 215.566 33.04C216.91 32.4 217.982 31.488 218.782 30.304C219.39 29.408 219.822 28.368 220.078 27.184C220.334 25.968 220.462 24.4 220.462 22.48V3.808ZM239.904 34.768C241.888 34.768 243.664 34.352 245.232 33.52C246.832 32.688 248.08 31.552 248.976 30.112C249.872 28.64 250.32 26.976 250.32 25.12C250.32 23.456 249.952 22.064 249.216 20.944C248.512 19.792 247.568 18.832 246.384 18.064C245.232 17.296 243.696 16.48 241.776 15.616C239.632 14.624 237.968 13.776 236.784 13.072C235.632 12.368 234.72 11.536 234.048 10.576C233.408 9.616 233.088 8.432 233.088 7.024C233.088 5.072 233.68 3.536 234.864 2.416C236.048 1.264 237.632 0.688 239.616 0.688C242.912 0.688 245.36 2.336 246.96 5.632C247.76 7.264 248.416 9.152 248.928 11.296L249.408 11.152L248.928 0.688H248.304L247.152 2.992C245.84 1.968 244.608 1.232 243.456 0.783998C242.336 0.335999 241.12 0.111999 239.808 0.111999C237.92 0.111999 236.224 0.511998 234.72 1.312C233.248 2.08 232.08 3.168 231.216 4.576C230.384 5.952 229.968 7.52 229.968 9.28C229.968 11.008 230.352 12.48 231.12 13.696C231.92 14.88 232.912 15.856 234.096 16.624C235.28 17.36 236.752 18.112 238.512 18.88C240.656 19.808 242.32 20.624 243.504 21.328C244.688 22.032 245.616 22.88 246.288 23.872C246.992 24.864 247.344 26.08 247.344 27.52C247.344 29.568 246.688 31.2 245.376 32.416C244.096 33.6 242.304 34.192 240 34.192C237.312 34.192 235.152 33.28 233.52 31.456C232.72 30.56 232.064 29.504 231.552 28.288C231.072 27.072 230.592 25.376 230.112 23.2L229.68 23.296L230.304 34.768H230.928L231.936 32.128C232.928 32.96 234.128 33.6 235.536 34.048C236.944 34.528 238.4 34.768 239.904 34.768ZM266.966 33.232L261.782 33.616V34H275.846V33.616L270.662 33.232V1.408H277.67C278.438 1.408 278.982 1.536 279.302 1.792C279.654 2.016 279.974 2.496 280.262 3.232L283.238 10.624L283.622 10.528L282.566 0.111999H282.278C281.574 0.431998 280.966 0.639998 280.454 0.735999C279.974 0.831998 279.35 0.879997 278.582 0.879997H260.102C259.334 0.879997 258.694 0.831998 258.182 0.735999C257.702 0.639998 257.11 0.431998 256.406 0.111999H256.118L254.246 10.528L254.63 10.624L257.942 3.232C258.262 2.496 258.598 2.016 258.95 1.792C259.302 1.536 259.862 1.408 260.63 1.408H266.966V33.232ZM321.103 3.808C321.103 3.04 321.007 2.512 320.815 2.224C320.623 1.936 320.239 1.744 319.663 1.648L316.255 1.264V0.879997H326.767V1.264L323.311 1.648C322.735 1.744 322.351 1.936 322.159 2.224C321.967 2.512 321.871 3.04 321.871 3.808V22.24C321.871 24.256 321.711 25.936 321.391 27.28C321.103 28.624 320.639 29.776 319.999 30.736C319.135 31.984 317.951 32.976 316.447 33.712C314.943 34.416 313.279 34.768 311.455 34.768C309.983 34.768 308.527 34.528 307.087 34.048C305.647 33.568 304.447 32.912 303.487 32.08C302.495 31.216 301.791 30.112 301.375 28.768C300.959 27.424 300.751 25.568 300.751 23.2V1.648L296.815 1.264V0.879997H308.623V1.264L304.447 1.648V24.784C304.447 27.12 304.655 28.912 305.071 30.16C305.519 31.408 306.255 32.336 307.279 32.944C307.823 33.264 308.495 33.52 309.295 33.712C310.095 33.904 310.927 34 311.791 34C313.391 34 314.863 33.68 316.207 33.04C317.551 32.4 318.623 31.488 319.423 30.304C320.031 29.408 320.463 28.368 320.719 27.184C320.975 25.968 321.103 24.4 321.103 22.48V3.808ZM340.545 34.768C342.529 34.768 344.305 34.352 345.873 33.52C347.473 32.688 348.721 31.552 349.617 30.112C350.513 28.64 350.961 26.976 350.961 25.12C350.961 23.456 350.593 22.064 349.857 20.944C349.153 19.792 348.209 18.832 347.025 18.064C345.873 17.296 344.337 16.48 342.417 15.616C340.273 14.624 338.609 13.776 337.425 13.072C336.273 12.368 335.361 11.536 334.689 10.576C334.049 9.616 333.729 8.432 333.729 7.024C333.729 5.072 334.321 3.536 335.505 2.416C336.689 1.264 338.273 0.688 340.257 0.688C343.553 0.688 346.001 2.336 347.601 5.632C348.401 7.264 349.057 9.152 349.569 11.296L350.049 11.152L349.569 0.688H348.945L347.793 2.992C346.481 1.968 345.249 1.232 344.097 0.783998C342.977 0.335999 341.761 0.111999 340.449 0.111999C338.561 0.111999 336.865 0.511998 335.361 1.312C333.889 2.08 332.721 3.168 331.857 4.576C331.025 5.952 330.609 7.52 330.609 9.28C330.609 11.008 330.993 12.48 331.761 13.696C332.561 14.88 333.553 15.856 334.737 16.624C335.921 17.36 337.393 18.112 339.153 18.88C341.297 19.808 342.961 20.624 344.145 21.328C345.329 22.032 346.257 22.88 346.929 23.872C347.633 24.864 347.985 26.08 347.985 27.52C347.985 29.568 347.329 31.2 346.017 32.416C344.737 33.6 342.945 34.192 340.641 34.192C337.953 34.192 335.793 33.28 334.161 31.456C333.361 30.56 332.705 29.504 332.193 28.288C331.713 27.072 331.233 25.376 330.753 23.2L330.321 23.296L330.945 34.768H331.569L332.577 32.128C333.569 32.96 334.769 33.6 336.177 34.048C337.585 34.528 339.041 34.768 340.545 34.768Z" fill="white"/>
</svg>
