<svg width="60" height="10" viewBox="0 0 60 10" fill="none" xmlns="http://www.w3.org/2000/svg">
<g clip-path="url(#clip0_2463_901)">
<path d="M0.25508 4.46434C0.467647 3.35899 1.44545 2.59375 2.80588 2.59375C4.37888 2.59375 5.61176 3.27396 5.61176 5.39963V9.35337H4.25134L4.08128 8.50311C3.61364 9.09829 2.97594 9.48091 2.04064 9.48091C0.892781 9.48091 0 8.75819 0 7.44027C0 6.12236 1.19037 5.27209 2.8484 5.27209H3.95374V4.9745C3.95374 4.20926 3.40107 3.99669 2.76337 3.99669C2.29572 3.99669 1.82807 4.16674 1.61551 4.76193L0.25508 4.46434ZM2.42326 8.07797C3.1885 8.07797 3.95374 7.56781 3.95374 6.71755V6.59001H2.89091C2.16818 6.54749 1.74305 6.84509 1.74305 7.44027C1.74305 7.73787 1.99813 8.07797 2.42326 8.07797Z" fill="white"/>
<path d="M32.3098 4.46434C32.5223 3.35899 33.5001 2.59375 34.8606 2.59375C36.4336 2.59375 37.6665 3.27396 37.6665 5.39963V9.35337H36.306L36.136 8.50311C35.6683 9.09829 35.0306 9.48091 34.0953 9.48091C32.9475 9.48091 32.0547 8.75819 32.0547 7.44027C32.0547 6.12236 33.2451 5.27209 34.9031 5.27209H36.0084V4.9745C36.0084 4.20926 35.4558 3.99669 34.8181 3.99669C34.3504 3.99669 33.8828 4.16674 33.6702 4.76193L32.3098 4.46434ZM34.4779 8.07797C35.2432 8.07797 36.0084 7.56781 36.0084 6.71755V6.59001H34.9031C34.1804 6.59001 33.7552 6.84509 33.7552 7.44027C33.7977 7.73787 34.0528 8.07797 34.4779 8.07797Z" fill="white"/>
<path d="M39.1543 9.39589V2.67878H40.8123V3.78412C41.28 2.97637 42.0452 2.59375 42.7679 2.59375C43.0655 2.59375 43.3206 2.63626 43.5757 2.72129L43.2781 4.25177C43.0655 4.12423 42.853 4.0392 42.5979 4.0392C41.6201 4.0392 40.8123 4.84696 40.8123 6.97263V9.35338L39.1543 9.39589Z" fill="white"/>
<path d="M47.1054 2.59332C47.7856 2.59332 48.4233 2.93342 48.7209 3.31604V0H50.3789V9.39545H48.7209V8.71524C48.5083 9.05535 47.9131 9.52299 47.1054 9.52299C45.1072 9.52299 44.0869 8.12005 44.0869 6.07941C44.0869 4.03877 45.1072 2.59332 47.1054 2.59332ZM47.3604 8.07754C48.2107 8.07754 48.8909 7.35481 48.8909 6.0369C48.8909 4.71898 48.2107 3.99626 47.3604 3.99626C46.5102 3.99626 45.83 4.71898 45.83 6.0369C45.83 7.35481 46.5102 8.07754 47.3604 8.07754Z" fill="white"/>
<path d="M56.3308 3.65665L55.353 4.54943C55.0554 4.1243 54.5877 3.95424 54.2476 3.95424C53.9075 3.95424 53.6099 4.16681 53.6099 4.50692C53.6099 4.80451 53.865 5.01708 54.2476 5.14462C55.1829 5.48472 56.6709 5.78232 56.6709 7.18526C56.6709 8.41815 55.7356 9.39595 54.2901 9.39595C52.8872 9.39595 51.9519 8.41815 51.6543 7.61039L52.9722 6.88767C53.2273 7.52537 53.6524 7.99301 54.3326 7.99301C54.8428 7.99301 55.1829 7.73793 55.1829 7.27029C55.1829 6.71761 54.3326 6.59007 53.5249 6.24996C52.8022 5.95237 52.1645 5.48472 52.1645 4.4644C52.1645 3.44408 53.0147 2.50879 54.2901 2.50879C55.1404 2.5513 55.9481 3.01895 56.3308 3.65665Z" fill="white"/>
<path d="M22.0646 2.67822L20.8743 7.31218L19.7264 2.67822H18.1959L17.0906 7.31218L16.1553 4.63384L16.0277 4.93143L15.5176 6.67448L16.3678 9.39533H17.8133L18.9612 5.05897L20.109 9.39533H21.597L23.7227 2.67822H22.0646Z" fill="white"/>
<path d="M30.0144 2.67822L28.824 7.31218L27.6761 2.67822H26.1457L25.0403 7.31218L24.105 4.63384L23.9775 4.93143L23.4248 6.67448L24.3176 9.39533H25.763L26.9109 5.05897L28.0588 9.39533H29.5042L31.6724 2.67822H30.0144Z" fill="white"/>
<path d="M15.7729 2.67822L13.6473 9.35282H12.2018L11.0539 5.05897L9.90608 9.39533H8.46063L6.33496 2.72074H7.99298L9.18336 7.31218L10.3312 2.72074H11.8617L13.0096 7.31218L14.1999 2.72074L15.7729 2.67822Z" fill="white"/>
<path d="M58.8387 7.22754C59.4764 7.22754 59.9441 7.69519 59.9441 8.33289C59.9441 8.97059 59.4764 9.43823 58.8387 9.43823C58.201 9.43823 57.7334 8.97059 57.7334 8.33289C57.7334 7.69519 58.201 7.22754 58.8387 7.22754Z" fill="white"/>
</g>
<defs>
<clipPath id="clip0_2463_901">
<rect width="59.9438" height="9.48048" fill="white"/>
</clipPath>
</defs>
</svg>
