<svg width="114" height="18" viewBox="0 0 114 18" fill="none" xmlns="http://www.w3.org/2000/svg">
<g clip-path="url(#clip0_2118_932)">
<path d="M0.484305 8.4754C0.887892 6.37674 2.74439 4.92383 5.32735 4.92383C8.3139 4.92383 10.6547 6.21531 10.6547 10.2512V17.7579H8.07175L7.74888 16.1436C6.86099 17.2736 5.65022 18.0001 3.87444 18.0001C1.69507 18.0001 0 16.6279 0 14.1256C0 11.6234 2.26009 10.009 5.40807 10.009H7.50673V9.44401C7.50673 7.99109 6.4574 7.5875 5.24664 7.5875C4.35874 7.5875 3.47085 7.91038 3.06726 9.04042L0.484305 8.4754ZM4.6009 15.3364C6.05381 15.3364 7.50673 14.3678 7.50673 12.7534V12.5113H5.48879C4.11659 12.4306 3.30942 12.9956 3.30942 14.1256C3.30942 14.6906 3.79372 15.3364 4.6009 15.3364Z" fill="white"/>
<path d="M61.3451 8.4754C61.7487 6.37674 63.6052 4.92383 66.1882 4.92383C69.1747 4.92383 71.5155 6.21531 71.5155 10.2512V17.7579H68.9326L68.6097 16.1436C67.7218 17.2736 66.5111 18.0001 64.7353 18.0001C62.5559 18.0001 60.8608 16.6279 60.8608 14.1256C60.8608 11.6234 63.1209 10.009 66.2689 10.009H68.3676V9.44401C68.3676 7.99109 67.3182 7.5875 66.1075 7.5875C65.2196 7.5875 64.3317 7.91038 63.9281 9.04042L61.3451 8.4754ZM65.4617 15.3364C66.9146 15.3364 68.3676 14.3678 68.3676 12.7534V12.5113H66.2689C64.8967 12.5113 64.0895 12.9956 64.0895 14.1256C64.1703 14.6906 64.6546 15.3364 65.4617 15.3364Z" fill="white"/>
<path d="M74.3408 17.8386V5.08526H77.4888V7.18392C78.3767 5.65029 79.8296 4.92383 81.2018 4.92383C81.7668 4.92383 82.2511 5.00455 82.7354 5.16598L82.1704 8.07181C81.7668 7.82966 81.3632 7.66822 80.8789 7.66822C79.0224 7.66822 77.4888 9.20185 77.4888 13.2377V17.7579L74.3408 17.8386Z" fill="white"/>
<path d="M89.435 4.92377C90.7265 4.92377 91.9373 5.56951 92.5023 6.29597V0H95.6503V17.8386H92.5023V16.5471C92.0987 17.1928 90.9687 18.0807 89.435 18.0807C85.6413 18.0807 83.7041 15.417 83.7041 11.5426C83.7041 7.66816 85.6413 4.92377 89.435 4.92377ZM89.9194 15.3363C91.5337 15.3363 92.8252 13.9641 92.8252 11.4619C92.8252 8.95964 91.5337 7.58744 89.9194 7.58744C88.305 7.58744 87.0135 8.95964 87.0135 11.4619C87.0135 13.9641 88.305 15.3363 89.9194 15.3363Z" fill="white"/>
<path d="M106.951 6.94158L105.094 8.63665C104.529 7.82947 103.641 7.5066 102.996 7.5066C102.35 7.5066 101.785 7.91019 101.785 8.55593C101.785 9.12095 102.269 9.52454 102.996 9.76669C104.771 10.4124 107.596 10.9775 107.596 13.6411C107.596 15.9819 105.821 17.8384 103.076 17.8384C100.413 17.8384 98.6368 15.9819 98.0718 14.4483L100.574 13.0761C101.058 14.2869 101.866 15.1748 103.157 15.1748C104.126 15.1748 104.771 14.6905 104.771 13.8026C104.771 12.7532 103.157 12.5111 101.623 11.8653C100.251 11.3003 99.0404 10.4124 99.0404 8.47521C99.0404 6.53799 100.655 4.76221 103.076 4.76221C104.691 4.84292 106.224 5.73082 106.951 6.94158Z" fill="white"/>
<path d="M41.8924 5.08496L39.6323 13.8832L37.4529 5.08496H34.5471L32.4485 13.8832L30.6727 8.79797L30.4305 9.36299L29.4619 12.6724L31.0763 17.8383H33.8207L36 9.60514L38.1794 17.8383H41.0045L45.0404 5.08496H41.8924Z" fill="white"/>
<path d="M56.9863 5.08496L54.7262 13.8832L52.5468 5.08496H49.641L47.5424 13.8832L45.7666 8.79797L45.5244 9.36299L44.4751 12.6724L46.1702 17.8383H48.9146L51.0939 9.60514L53.2733 17.8383H56.0177L60.1343 5.08496H56.9863Z" fill="white"/>
<path d="M29.9461 5.08496L25.9103 17.7576H23.1659L20.9865 9.60514L18.8071 17.8383H16.0627L12.0269 5.16568H15.1748L17.4349 13.8832L19.6143 5.16568H22.5201L24.6995 13.8832L26.9596 5.16568L29.9461 5.08496Z" fill="white"/>
<path d="M111.713 13.7222C112.924 13.7222 113.812 14.6101 113.812 15.8208C113.812 17.0316 112.924 17.9195 111.713 17.9195C110.502 17.9195 109.614 17.0316 109.614 15.8208C109.614 14.6101 110.502 13.7222 111.713 13.7222Z" fill="white"/>
</g>
<defs>
<clipPath id="clip0_2118_932">
<rect width="113.812" height="18" fill="white"/>
</clipPath>
</defs>
</svg>
