<svg width="105" height="17" viewBox="0 0 105 17" fill="none" xmlns="http://www.w3.org/2000/svg">
<path d="M6.67715 9.50671L0.263672 16.0337V0H13.0906V16.0337L6.67715 9.50671Z" fill="#B19B71"/>
<path d="M25.0399 13.0306C25.3799 13.0306 25.7198 12.9739 26.0031 12.9173C26.2864 12.8607 26.5696 12.7473 26.7962 12.5774C27.0229 12.4074 27.1928 12.2375 27.3628 11.9542C27.4761 11.6709 27.5894 11.331 27.5894 10.9344C27.5894 10.1412 27.3628 9.5746 26.9096 9.17805C26.4563 8.83814 25.8331 8.66818 25.0966 8.66818H21.3573V13.0306H25.0399ZM24.87 6.3453C25.4931 6.3453 26.0031 6.17535 26.3996 5.89206C26.7962 5.60877 26.9662 5.09888 26.9662 4.47569C26.9662 4.13576 26.9096 3.79585 26.7962 3.56918C26.6829 3.3426 26.5129 3.17263 26.2864 3.0026C26.0597 2.88934 25.8331 2.77602 25.5498 2.71938C25.2665 2.66269 24.9832 2.66269 24.6433 2.66269H21.3573V6.3453H24.87ZM25.3232 -9.91821e-05C26.0597 -9.91821e-05 26.7396 0.056592 27.3628 0.226548C27.986 0.339811 28.4959 0.566478 28.9492 0.849766C29.4024 1.13305 29.7423 1.52961 29.9689 2.03947C30.1956 2.54936 30.3088 3.17263 30.3088 3.85247C30.3088 4.64564 30.1389 5.32548 29.7423 5.83542C29.4024 6.3453 28.8358 6.79855 28.156 7.13848C29.1191 7.42177 29.8556 7.93163 30.3088 8.61147C30.7621 9.29138 31.0454 10.1412 31.0454 11.1043C31.0454 11.8975 30.8754 12.5774 30.5921 13.1439C30.3088 13.7105 29.8556 14.2203 29.3457 14.5603C28.8358 14.9003 28.2126 15.1835 27.5328 15.3534C26.8529 15.5235 26.173 15.6367 25.4931 15.6367H17.9014V-9.91821e-05H25.3232Z" fill="white"/>
<path d="M39.5438 7.02501C39.1473 6.62846 38.5242 6.40179 37.7875 6.40179C37.2777 6.40179 36.8812 6.51512 36.5412 6.68508C36.2013 6.85505 35.9747 7.0817 35.748 7.3083C35.5214 7.53495 35.4081 7.81818 35.3515 8.10147C35.2948 8.38476 35.2382 8.61134 35.2382 8.838H40.337C40.2237 7.98814 39.9405 7.42163 39.5438 7.02501ZM35.9747 12.9738C36.4279 13.427 37.1078 13.6537 38.0142 13.6537C38.6375 13.6537 39.2041 13.4837 39.6571 13.2005C40.1104 12.8605 40.3938 12.5205 40.5071 12.1806H43.2831C42.83 13.5404 42.1501 14.5035 41.2436 15.1267C40.337 15.6933 39.2606 16.0332 37.9576 16.0332C37.0511 16.0332 36.2579 15.8632 35.5214 15.58C34.7849 15.2967 34.2183 14.9001 33.7084 14.3335C33.1985 13.8237 32.8019 13.2005 32.5753 12.4639C32.292 11.7274 32.1787 10.9342 32.1787 10.0277C32.1787 9.17792 32.292 8.38476 32.5753 7.64821C32.8586 6.91168 33.2552 6.28855 33.7651 5.72197C34.275 5.21208 34.8982 4.75884 35.578 4.47555C36.3146 4.19226 37.0511 4.02229 37.9576 4.02229C38.9207 4.02229 39.7705 4.19226 40.5071 4.58887C41.2436 4.98542 41.8101 5.43868 42.2634 6.1185C42.7167 6.74179 43.0566 7.47825 43.2831 8.27143C43.3964 9.06458 43.4531 9.85776 43.3964 10.7642H35.1815C35.1815 11.6708 35.5214 12.5205 35.9747 12.9738Z" fill="white"/>
<path d="M47.8151 -0.00015831V5.892H47.8719C48.2684 5.21216 48.7784 4.75891 49.4015 4.47563C50.0247 4.19234 50.5913 4.02236 51.2144 4.02236C52.0644 4.02236 52.7443 4.1357 53.2541 4.36229C53.7639 4.58894 54.2172 4.92887 54.5006 5.32542C54.7838 5.72204 55.0104 6.23191 55.1237 6.79849C55.237 7.365 55.2936 7.98821 55.2936 8.72475V15.6934H52.1777V9.29132C52.1777 8.32819 52.0076 7.64828 51.7244 7.19504C51.4411 6.74187 50.9312 6.5152 50.1948 6.5152C49.3448 6.5152 48.7217 6.79849 48.3817 7.25173C47.9852 7.76162 47.8151 8.61141 47.8151 9.74457V15.6934H44.6992V-0.00015831H47.8151Z" fill="white"/>
<path d="M63.7352 10.4243C63.5651 10.4809 63.3385 10.5377 63.1118 10.5943C62.8852 10.651 62.6586 10.651 62.3754 10.7076C62.1488 10.7642 61.8656 10.7642 61.6389 10.8209C61.4123 10.8776 61.1857 10.9342 60.959 10.9909C60.7324 11.0475 60.5058 11.1609 60.3924 11.2741C60.2226 11.3875 60.1092 11.5574 59.9959 11.7274C59.8259 11.954 59.8259 12.1806 59.8259 12.4639C59.8259 12.7472 59.8826 12.9738 59.9959 13.1437C60.1092 13.3138 60.2226 13.4837 60.3924 13.597C60.5625 13.7103 60.789 13.767 61.0156 13.8236C61.2422 13.8803 61.4689 13.8803 61.7522 13.8803C62.3754 13.8803 62.8286 13.767 63.1686 13.597C63.5085 13.3704 63.7352 13.1437 63.9051 12.8605C64.0751 12.5772 64.1884 12.2939 64.1884 12.0107C64.245 11.7274 64.245 11.5008 64.245 11.3308V10.141C64.0751 10.2544 63.9051 10.3677 63.7352 10.4243ZM57.5597 6.00525C57.8997 5.49536 58.2962 5.15538 58.806 4.81545C59.316 4.53217 59.8826 4.30557 60.5058 4.19225C61.1289 4.07899 61.7522 4.02228 62.3754 4.02228C62.942 4.02228 63.5085 4.07892 64.1317 4.13561C64.6983 4.19225 65.2648 4.36221 65.7181 4.58886C66.2279 4.81545 66.5679 5.15538 66.9078 5.55199C67.191 5.94854 67.3611 6.51512 67.3611 7.19496V13.1437C67.3611 13.6537 67.4177 14.1636 67.4744 14.6168C67.531 15.0701 67.701 15.4666 67.8709 15.6933H64.6983C64.5849 15.5799 64.5282 15.3534 64.4716 15.1834C64.4151 15.0134 64.4151 14.7868 64.4151 14.6168C63.9051 15.1267 63.3385 15.4666 62.6586 15.6933C61.9789 15.9199 61.299 15.9766 60.6191 15.9766C60.0525 15.9766 59.5992 15.9199 59.0894 15.7499C58.6362 15.6366 58.2396 15.41 57.8429 15.1267C57.503 14.8434 57.2198 14.5035 56.9932 14.0502C56.8231 13.597 56.71 13.1437 56.71 12.5205C56.71 11.8973 56.8231 11.3308 57.0497 10.9342C57.2764 10.5377 57.5597 10.1977 57.8997 9.91444C58.2396 9.68779 58.6929 9.46119 59.146 9.34786C59.5992 9.23455 60.0525 9.12128 60.5625 9.06457C61.0156 9.00795 61.4689 8.95133 61.9221 8.89462C62.3754 8.83799 62.7719 8.78128 63.1118 8.72466C63.4518 8.61133 63.7352 8.49807 63.9618 8.32811C64.1884 8.15815 64.245 7.93149 64.245 7.59158C64.245 7.25165 64.1884 6.96836 64.0751 6.7984C63.9618 6.62845 63.7917 6.45849 63.6219 6.34516C63.4518 6.23183 63.2252 6.1752 62.9985 6.11849C62.7719 6.06187 62.4887 6.06187 62.2055 6.06187C61.5822 6.06187 61.1289 6.1752 60.789 6.45849C60.4492 6.74178 60.2226 7.19496 60.1658 7.76153H57.0497C57.0497 7.08169 57.2764 6.45849 57.5597 6.00525Z" fill="white"/>
<path d="M72.0633 4.30566V5.89201H72.12C72.5165 5.21217 73.0263 4.75893 73.6497 4.47564C74.2728 4.19235 74.9527 4.02238 75.5759 4.02238C76.4256 4.02238 77.1055 4.13571 77.6155 4.36231C78.1819 4.58895 78.5786 4.92888 78.8618 5.32543C79.1452 5.72206 79.3718 6.23192 79.5417 6.7985C79.655 7.36501 79.7118 7.98822 79.7118 8.72476V15.6934H76.5957V9.29133C76.5957 8.32821 76.4256 7.6483 76.1424 7.19505C75.8592 6.74188 75.3492 6.45859 74.556 6.45859C73.7062 6.45859 73.0831 6.7985 72.6864 7.30838C72.2899 7.81827 72.12 8.66813 72.12 9.80122V15.75H69.0039V4.30566H72.0633Z" fill="white"/>
<path d="M86.6801 6.34516C86.1703 6.34516 85.7738 6.45849 85.4338 6.68507C85.0939 6.91167 84.8105 7.19496 84.5839 7.59158C84.3572 7.93149 84.2439 8.32811 84.1306 8.78128C84.0173 9.23455 84.0173 9.63115 84.0173 10.0844C84.0173 10.4809 84.074 10.9342 84.1306 11.3308C84.2439 11.7841 84.3572 12.124 84.5839 12.4639C84.8105 12.8038 85.0371 13.0871 85.3771 13.3138C85.717 13.5404 86.1135 13.6537 86.6235 13.6537C87.36 13.6537 87.9266 13.427 88.3798 13.0305C88.7764 12.6339 89.0597 12.0674 89.1163 11.3308H92.1191C91.8924 12.8605 91.3259 13.9936 90.3628 14.7868C89.3997 15.5799 88.1532 15.9766 86.6235 15.9766C85.7738 15.9766 84.9805 15.8065 84.3007 15.5233C83.5642 15.24 82.9976 14.8434 82.4876 14.3335C81.9778 13.8236 81.5813 13.2004 81.2979 12.5205C81.0147 11.7841 80.9014 11.0475 80.9014 10.1977C80.9014 9.29124 81.0147 8.49807 81.2979 7.76153C81.5813 7.025 81.9212 6.34516 82.431 5.77858C82.9409 5.21208 83.5642 4.81545 84.2439 4.47554C84.9806 4.19225 85.7738 4.02228 86.6801 4.02228C87.36 4.02228 87.9831 4.13561 88.6065 4.30557C89.2296 4.47554 89.7962 4.75883 90.2495 5.09874C90.7593 5.43867 91.156 5.89192 91.4392 6.45849C91.7226 6.96836 91.8924 7.6482 91.949 8.38475H88.8897C88.7764 7.025 88.0399 6.34516 86.6801 6.34516Z" fill="white"/>
<path d="M34.5586 1.07625H40.9039V2.60596H34.5586V1.07625Z" fill="white"/>
<path d="M100.448 7.02501C100.052 6.62846 99.4284 6.40179 98.6919 6.40179C98.1821 6.40179 97.7854 6.51512 97.4454 6.68508C97.1057 6.85505 96.8223 7.0817 96.6524 7.3083C96.4823 7.53495 96.3124 7.81818 96.2557 8.10147C96.1991 8.38476 96.1424 8.61134 96.1424 8.838H101.241C101.072 7.98814 100.788 7.42163 100.448 7.02501ZM96.8223 12.9738C97.2755 13.427 98.012 13.6537 98.862 13.6537C99.4851 13.6537 100.052 13.4837 100.505 13.2005C100.958 12.8605 101.241 12.5205 101.355 12.1806H104.074C103.621 13.5404 102.941 14.5035 102.035 15.1267C101.128 15.6933 100.052 16.0332 98.7486 16.0332C97.8421 16.0332 97.0489 15.8632 96.3124 15.58C95.5758 15.2967 95.0094 14.9001 94.4994 14.3335C93.9896 13.8237 93.5929 13.2005 93.3664 12.4639C93.083 11.7274 92.9697 10.9342 92.9697 10.0277C92.9697 9.17792 93.083 8.38476 93.3664 7.64821C93.6496 6.91168 94.0461 6.28855 94.5561 5.72197C95.066 5.21208 95.6891 4.75884 96.369 4.47555C97.1056 4.19226 97.8987 4.02229 98.7486 4.02229C99.7117 4.02229 100.562 4.19226 101.241 4.58887C101.978 4.98542 102.544 5.43868 102.998 6.1185C103.451 6.74179 103.791 7.47825 104.018 8.27143C104.244 9.06458 104.301 9.91445 104.244 10.821H96.0291C96.0291 11.6708 96.369 12.5205 96.8223 12.9738Z" fill="white"/>
</svg>
