<svg width="56" height="9" viewBox="0 0 56 9" fill="none" xmlns="http://www.w3.org/2000/svg">
<path d="M3.64551 5.00712L0.267578 8.44484V0H7.02345V8.44484L3.64551 5.00712Z" fill="#B19B71"/>
<path d="M13.3165 6.86274C13.4955 6.86274 13.6745 6.83288 13.8238 6.80305C13.973 6.77322 14.1222 6.71354 14.2415 6.62401C14.3609 6.5345 14.4504 6.44499 14.5399 6.29578C14.5996 6.14657 14.6593 5.96753 14.6593 5.75865C14.6593 5.34089 14.5399 5.04247 14.3012 4.83361C14.0625 4.65458 13.7342 4.56507 13.3463 4.56507H11.3769V6.86274H13.3165ZM13.227 3.34162C13.5552 3.34162 13.8238 3.25211 14.0326 3.1029C14.2415 2.9537 14.331 2.68514 14.331 2.35691C14.331 2.17787 14.3012 1.99884 14.2415 1.87946C14.1818 1.76012 14.0923 1.6706 13.973 1.58105C13.8536 1.52139 13.7342 1.46171 13.585 1.43188C13.4358 1.40202 13.2866 1.40202 13.1076 1.40202H11.3769V3.34162H13.227ZM13.4657 -0.00045681C13.8536 -0.00045681 14.2117 0.0294027 14.5399 0.118917C14.8682 0.178573 15.1367 0.297956 15.3754 0.447162C15.6142 0.596368 15.7932 0.805229 15.9125 1.07377C16.0319 1.34233 16.0916 1.6706 16.0916 2.02867C16.0916 2.44642 16.002 2.80449 15.7932 3.07307C15.6142 3.34162 15.3157 3.58035 14.9577 3.75938C15.4649 3.90859 15.8528 4.17713 16.0916 4.5352C16.3303 4.89331 16.4795 5.34089 16.4795 5.84816C16.4795 6.26592 16.39 6.62401 16.2408 6.92239C16.0916 7.2208 15.8528 7.48936 15.5843 7.66839C15.3157 7.84746 14.9875 7.99666 14.6294 8.08615C14.2713 8.1757 13.9133 8.23535 13.5552 8.23535H9.55664V-0.00045681H13.4657Z" fill="white"/>
<path d="M20.9553 3.69978C20.7465 3.49092 20.4183 3.37154 20.0303 3.37154C19.7618 3.37154 19.5529 3.43123 19.3739 3.52074C19.1948 3.61027 19.0755 3.72964 18.9561 3.84899C18.8367 3.96836 18.7771 4.11754 18.7473 4.26675C18.7174 4.41595 18.6876 4.53529 18.6876 4.65467H21.3731C21.3134 4.20705 21.1643 3.90868 20.9553 3.69978ZM19.0755 6.83296C19.3142 7.07168 19.6723 7.19107 20.1497 7.19107C20.478 7.19107 20.7764 7.10155 21.015 6.95235C21.2537 6.77331 21.403 6.59424 21.4627 6.41521H22.9248C22.6861 7.13138 22.328 7.63865 21.8506 7.96689C21.3731 8.2653 20.8062 8.44434 20.1199 8.44434C19.6424 8.44434 19.2246 8.35482 18.8367 8.20561C18.4488 8.05641 18.1504 7.84755 17.8819 7.54913C17.6133 7.28058 17.4044 6.95235 17.2851 6.56442C17.1359 6.17648 17.0762 5.75873 17.0762 5.28128C17.0762 4.8337 17.1359 4.41595 17.2851 4.02802C17.4343 3.64009 17.6431 3.31189 17.9117 3.01348C18.1803 2.74493 18.5085 2.5062 18.8665 2.357C19.2545 2.20779 19.6424 2.11827 20.1199 2.11827C20.6271 2.11827 21.0747 2.20779 21.4627 2.41668C21.8506 2.62554 22.149 2.86427 22.3877 3.22233C22.6264 3.55061 22.8055 3.9385 22.9248 4.35626C22.9844 4.77401 23.0143 5.19177 22.9844 5.66921H18.6577C18.6577 6.14666 18.8367 6.59424 19.0755 6.83296Z" fill="white"/>
<path d="M25.312 -4.57764e-05V3.10331H25.3419C25.5508 2.74525 25.8194 2.50653 26.1476 2.35732C26.4758 2.20811 26.7742 2.11859 27.1024 2.11859C27.5501 2.11859 27.9082 2.17828 28.1767 2.29763C28.4452 2.417 28.684 2.59604 28.8332 2.8049C28.9824 3.0138 29.1017 3.28234 29.1614 3.58076C29.2211 3.87913 29.2509 4.20738 29.2509 4.5953V8.26562H27.6098V4.89372C27.6098 4.38644 27.5202 4.02834 27.371 3.78962C27.2218 3.55093 26.9533 3.43155 26.5654 3.43155C26.1177 3.43155 25.7895 3.58076 25.6104 3.81948C25.4016 4.08803 25.312 4.53561 25.312 5.13244V8.26562H23.6709V-4.57764e-05H25.312Z" fill="white"/>
<path d="M33.6972 5.49071C33.6076 5.52053 33.4883 5.5504 33.3689 5.58023C33.2495 5.61009 33.1302 5.61009 32.981 5.63992C32.8616 5.66974 32.7125 5.66974 32.5931 5.69961C32.4738 5.72943 32.3544 5.75926 32.235 5.78912C32.1157 5.81895 31.9963 5.87864 31.9366 5.93829C31.8471 5.99799 31.7875 6.0875 31.7278 6.17701C31.6382 6.2964 31.6382 6.41574 31.6382 6.56495C31.6382 6.71416 31.6681 6.83349 31.7278 6.92301C31.7875 7.01257 31.8471 7.10208 31.9366 7.16174C32.0262 7.22142 32.1455 7.25125 32.2648 7.28111C32.3842 7.31094 32.5036 7.31094 32.6528 7.31094C32.981 7.31094 33.2197 7.25125 33.3988 7.16174C33.5778 7.04239 33.6972 6.92301 33.7867 6.77384C33.8762 6.62463 33.9359 6.47543 33.9359 6.32622C33.9657 6.17701 33.9657 6.05768 33.9657 5.96815V5.34151C33.8762 5.4012 33.7867 5.46089 33.6972 5.49071ZM30.4446 3.16321C30.6237 2.89466 30.8325 2.7156 31.1011 2.53656C31.3697 2.38735 31.6681 2.268 31.9963 2.20832C32.3245 2.14867 32.6528 2.1188 32.981 2.1188C33.2794 2.1188 33.5778 2.14863 33.906 2.17849C34.2045 2.20832 34.5029 2.29784 34.7416 2.41721C35.0101 2.53656 35.1892 2.71559 35.3682 2.92448C35.5174 3.13334 35.6069 3.43176 35.6069 3.78982V6.92301C35.6069 7.1916 35.6367 7.46015 35.6666 7.69887C35.6964 7.93759 35.786 8.14645 35.8755 8.26583H34.2045C34.1448 8.20614 34.1149 8.0868 34.0851 7.99728C34.0553 7.90773 34.0553 7.78839 34.0553 7.69887C33.7867 7.96742 33.4883 8.14645 33.1302 8.26583C32.7722 8.38518 32.4141 8.41504 32.056 8.41504C31.7576 8.41504 31.5188 8.38518 31.2503 8.29566C31.0116 8.23597 30.8027 8.11663 30.5938 7.96742C30.4148 7.81821 30.2656 7.63918 30.1462 7.40046C30.0567 7.16174 29.9971 6.92301 29.9971 6.59477C29.9971 6.26654 30.0567 5.96815 30.176 5.75926C30.2954 5.5504 30.4446 5.37136 30.6237 5.22216C30.8027 5.10278 31.0415 4.98344 31.2801 4.92375C31.5188 4.86406 31.7576 4.80441 32.0262 4.77454C32.2648 4.74472 32.5036 4.71489 32.7423 4.68503C32.981 4.6552 33.1899 4.62533 33.3689 4.59551C33.548 4.53582 33.6972 4.47616 33.8166 4.38665C33.9359 4.29713 33.9657 4.17775 33.9657 3.99872C33.9657 3.81968 33.9359 3.67048 33.8762 3.58096C33.8166 3.49145 33.727 3.40193 33.6375 3.34224C33.548 3.28255 33.4286 3.25273 33.3092 3.22286C33.1899 3.19304 33.0407 3.19304 32.8915 3.19304C32.5632 3.19304 32.3245 3.25273 32.1455 3.40193C31.9665 3.55114 31.8471 3.78982 31.8172 4.08824H30.176C30.176 3.73017 30.2954 3.40193 30.4446 3.16321Z" fill="white"/>
<path d="M38.084 2.26775V3.10327H38.1139C38.3227 2.74521 38.5912 2.50648 38.9195 2.35728C39.2478 2.20807 39.6059 2.11855 39.9341 2.11855C40.3816 2.11855 40.7397 2.17824 41.0083 2.29759C41.3067 2.41696 41.5156 2.596 41.6648 2.80486C41.814 3.01376 41.9334 3.2823 42.0229 3.58071C42.0825 3.87909 42.1124 4.20733 42.1124 4.59526V8.26558H40.4712V4.89367C40.4712 4.3864 40.3816 4.0283 40.2325 3.78958C40.0833 3.55089 39.8147 3.40169 39.3969 3.40169C38.9493 3.40169 38.6211 3.58071 38.4122 3.84927C38.2034 4.11782 38.1139 4.56544 38.1139 5.16223V8.29541H36.4727V2.26775H38.084Z" fill="white"/>
<path d="M45.7819 3.34224C45.5134 3.34224 45.3045 3.40193 45.1255 3.52127C44.9464 3.64062 44.7972 3.78982 44.6778 3.99872C44.5585 4.17775 44.4988 4.38665 44.4391 4.62533C44.3794 4.86406 44.3794 5.07295 44.3794 5.31168C44.3794 5.52053 44.4093 5.75926 44.4391 5.96815C44.4988 6.20688 44.5585 6.38591 44.6778 6.56495C44.7972 6.74398 44.9166 6.89319 45.0956 7.01257C45.2747 7.13191 45.4835 7.1916 45.7521 7.1916C46.14 7.1916 46.4384 7.07221 46.6771 6.86336C46.886 6.65446 47.0352 6.35609 47.065 5.96815H48.6466C48.5272 6.77384 48.2288 7.37063 47.7215 7.78839C47.2143 8.20614 46.5578 8.41504 45.7521 8.41504C45.3045 8.41504 44.8868 8.32549 44.5287 8.17632C44.1408 8.02711 43.8424 7.81821 43.5737 7.54966C43.3052 7.28111 43.0964 6.95288 42.9471 6.59477C42.798 6.20688 42.7383 5.81895 42.7383 5.37136C42.7383 4.89392 42.798 4.47616 42.9471 4.08824C43.0964 3.70031 43.2754 3.34224 43.544 3.04383C43.8125 2.74545 44.1408 2.53656 44.4988 2.35753C44.8868 2.20832 45.3045 2.1188 45.7819 2.1188C46.14 2.1188 46.4682 2.17849 46.7965 2.268C47.1247 2.35753 47.4231 2.50673 47.6619 2.68576C47.9304 2.8648 48.1393 3.10352 48.2885 3.40193C48.4377 3.67048 48.5272 4.02855 48.557 4.41648H46.9457C46.886 3.70031 46.4981 3.34224 45.7819 3.34224Z" fill="white"/>
<path d="M18.3301 0.567361H21.6721V1.37305H18.3301V0.567361Z" fill="white"/>
<path d="M53.0336 3.69978C52.8247 3.49092 52.4964 3.37154 52.1086 3.37154C51.84 3.37154 51.6311 3.43123 51.452 3.52074C51.2731 3.61027 51.1238 3.72964 51.0344 3.84899C50.9448 3.96836 50.8553 4.11754 50.8254 4.26675C50.7956 4.41595 50.7657 4.53529 50.7657 4.65467H53.4514C53.3619 4.20705 53.2126 3.90868 53.0336 3.69978ZM51.1238 6.83296C51.3626 7.07168 51.7505 7.19107 52.1981 7.19107C52.5263 7.19107 52.8247 7.10155 53.0635 6.95235C53.3022 6.77331 53.4514 6.59424 53.511 6.41521H54.9433C54.7046 7.13138 54.3466 7.63865 53.8691 7.96689C53.3917 8.2653 52.8247 8.44434 52.1384 8.44434C51.661 8.44434 51.2432 8.35482 50.8553 8.20561C50.4673 8.05641 50.169 7.84755 49.9004 7.54913C49.6319 7.28058 49.4229 6.95235 49.3037 6.56442C49.1544 6.17648 49.0947 5.75873 49.0947 5.28128C49.0947 4.8337 49.1544 4.41595 49.3037 4.02802C49.4528 3.64009 49.6617 3.31189 49.9303 3.01348C50.1988 2.74493 50.527 2.5062 50.8851 2.357C51.2731 2.20779 51.6908 2.11827 52.1384 2.11827C52.6457 2.11827 53.0933 2.20779 53.4514 2.41668C53.8393 2.62554 54.1377 2.86427 54.3764 3.22233C54.6151 3.55061 54.7942 3.9385 54.9135 4.35626C55.0329 4.77401 55.0627 5.22163 55.0329 5.69908H50.7061C50.7061 6.14666 50.8851 6.59424 51.1238 6.83296Z" fill="white"/>
</svg>
