<svg width="98" height="24" viewBox="0 0 98 24" fill="none" xmlns="http://www.w3.org/2000/svg">
<rect width="38" height="24" fill="white"/>
<path d="M9.62 16.144C8.772 16.144 8.044 15.964 7.436 15.604C6.828 15.236 6.36 14.728 6.032 14.08C5.704 13.424 5.54 12.668 5.54 11.812C5.54 10.956 5.704 10.2 6.032 9.544C6.36 8.888 6.828 8.376 7.436 8.008C8.044 7.64 8.772 7.456 9.62 7.456C10.628 7.456 11.452 7.708 12.092 8.212C12.74 8.708 13.144 9.408 13.304 10.312H11.612C11.508 9.856 11.284 9.5 10.94 9.244C10.604 8.98 10.156 8.848 9.596 8.848C8.82 8.848 8.212 9.112 7.772 9.64C7.332 10.168 7.112 10.892 7.112 11.812C7.112 12.732 7.332 13.456 7.772 13.984C8.212 14.504 8.82 14.764 9.596 14.764C10.156 14.764 10.604 14.644 10.94 14.404C11.284 14.156 11.508 13.816 11.612 13.384H13.304C13.144 14.248 12.74 14.924 12.092 15.412C11.452 15.9 10.628 16.144 9.62 16.144ZM14.6637 16V7.6H16.4877L19.1637 12.928L21.8037 7.6H23.6277V16H22.0917V10.204L19.7517 14.8H18.5397L16.1997 10.204V16H14.6637ZM28.1254 16.144C27.5094 16.144 26.9654 16.04 26.4934 15.832C26.0214 15.616 25.6494 15.312 25.3774 14.92C25.1054 14.52 24.9654 14.036 24.9574 13.468H26.5774C26.5934 13.86 26.7334 14.192 26.9974 14.464C27.2694 14.728 27.6414 14.86 28.1134 14.86C28.5214 14.86 28.8454 14.764 29.0854 14.572C29.3254 14.372 29.4454 14.108 29.4454 13.78C29.4454 13.436 29.3374 13.168 29.1214 12.976C28.9134 12.784 28.6334 12.628 28.2814 12.508C27.9294 12.388 27.5534 12.26 27.1534 12.124C26.5054 11.9 26.0094 11.612 25.6654 11.26C25.3294 10.908 25.1614 10.44 25.1614 9.856C25.1534 9.36 25.2694 8.936 25.5094 8.584C25.7574 8.224 26.0934 7.948 26.5174 7.756C26.9414 7.556 27.4294 7.456 27.9814 7.456C28.5414 7.456 29.0334 7.556 29.4574 7.756C29.8894 7.956 30.2254 8.236 30.4654 8.596C30.7134 8.956 30.8454 9.384 30.8614 9.88H29.2174C29.2094 9.584 29.0934 9.324 28.8694 9.1C28.6534 8.868 28.3494 8.752 27.9574 8.752C27.6214 8.744 27.3374 8.828 27.1054 9.004C26.8814 9.172 26.7694 9.42 26.7694 9.748C26.7694 10.028 26.8574 10.252 27.0334 10.42C27.2094 10.58 27.4494 10.716 27.7534 10.828C28.0574 10.94 28.4054 11.06 28.7974 11.188C29.2134 11.332 29.5934 11.5 29.9374 11.692C30.2814 11.884 30.5574 12.14 30.7654 12.46C30.9734 12.772 31.0774 13.176 31.0774 13.672C31.0774 14.112 30.9654 14.52 30.7414 14.896C30.5174 15.272 30.1854 15.576 29.7454 15.808C29.3054 16.032 28.7654 16.144 28.1254 16.144Z" fill="#1C1A22"/>
<path d="M44.804 16V10.048H45.932L46.04 10.888C46.232 10.584 46.484 10.344 46.796 10.168C47.116 9.992 47.484 9.904 47.9 9.904C48.844 9.904 49.5 10.276 49.868 11.02C50.084 10.676 50.372 10.404 50.732 10.204C51.1 10.004 51.496 9.904 51.92 9.904C52.664 9.904 53.248 10.128 53.672 10.576C54.096 11.024 54.308 11.692 54.308 12.58V16H53.036V12.712C53.036 11.56 52.596 10.984 51.716 10.984C51.268 10.984 50.9 11.152 50.612 11.488C50.332 11.824 50.192 12.304 50.192 12.928V16H48.92V12.712C48.92 11.56 48.476 10.984 47.588 10.984C47.148 10.984 46.784 11.152 46.496 11.488C46.216 11.824 46.076 12.304 46.076 12.928V16H44.804ZM57.8122 16.144C57.3082 16.144 56.8922 16.06 56.5642 15.892C56.2362 15.724 55.9922 15.504 55.8322 15.232C55.6722 14.952 55.5922 14.648 55.5922 14.32C55.5922 13.744 55.8162 13.288 56.2642 12.952C56.7122 12.616 57.3522 12.448 58.1842 12.448H59.7442V12.34C59.7442 11.876 59.6162 11.528 59.3602 11.296C59.1122 11.064 58.7882 10.948 58.3882 10.948C58.0362 10.948 57.7282 11.036 57.4642 11.212C57.2082 11.38 57.0522 11.632 56.9962 11.968H55.7242C55.7642 11.536 55.9082 11.168 56.1562 10.864C56.4122 10.552 56.7322 10.316 57.1162 10.156C57.5082 9.988 57.9362 9.904 58.4002 9.904C59.2322 9.904 59.8762 10.124 60.3322 10.564C60.7882 10.996 61.0162 11.588 61.0162 12.34V16H59.9122L59.8042 14.98C59.6362 15.308 59.3922 15.584 59.0722 15.808C58.7522 16.032 58.3322 16.144 57.8122 16.144ZM58.0642 15.112C58.4082 15.112 58.6962 15.032 58.9282 14.872C59.1682 14.704 59.3522 14.484 59.4802 14.212C59.6162 13.94 59.7002 13.64 59.7322 13.312H58.3162C57.8122 13.312 57.4522 13.4 57.2362 13.576C57.0282 13.752 56.9242 13.972 56.9242 14.236C56.9242 14.508 57.0242 14.724 57.2242 14.884C57.4322 15.036 57.7122 15.112 58.0642 15.112ZM64.9353 14.176C64.6233 14.176 64.3353 14.14 64.0713 14.068L63.5553 14.572C63.6433 14.628 63.7513 14.676 63.8793 14.716C64.0073 14.756 64.1873 14.792 64.4193 14.824C64.6513 14.856 64.9673 14.888 65.3673 14.92C66.1593 14.992 66.7313 15.184 67.0833 15.496C67.4353 15.8 67.6113 16.208 67.6113 16.72C67.6113 17.072 67.5153 17.404 67.3233 17.716C67.1393 18.036 66.8473 18.292 66.4473 18.484C66.0553 18.684 65.5513 18.784 64.9353 18.784C64.1033 18.784 63.4273 18.624 62.9073 18.304C62.3953 17.992 62.1393 17.516 62.1393 16.876C62.1393 16.628 62.2033 16.38 62.3313 16.132C62.4673 15.892 62.6793 15.664 62.9673 15.448C62.7993 15.376 62.6513 15.3 62.5233 15.22C62.4033 15.132 62.2953 15.044 62.1993 14.956V14.668L63.2313 13.612C62.7673 13.212 62.5353 12.688 62.5353 12.04C62.5353 11.648 62.6273 11.292 62.8113 10.972C63.0033 10.644 63.2793 10.384 63.6393 10.192C63.9993 10 64.4313 9.904 64.9353 9.904C65.2713 9.904 65.5833 9.952 65.8713 10.048H68.0913V10.888L67.0353 10.948C67.2273 11.276 67.3233 11.64 67.3233 12.04C67.3233 12.44 67.2273 12.8 67.0353 13.12C66.8513 13.44 66.5793 13.696 66.2193 13.888C65.8673 14.08 65.4393 14.176 64.9353 14.176ZM64.9353 13.18C65.3033 13.18 65.5993 13.084 65.8233 12.892C66.0553 12.692 66.1713 12.412 66.1713 12.052C66.1713 11.684 66.0553 11.404 65.8233 11.212C65.5993 11.02 65.3033 10.924 64.9353 10.924C64.5593 10.924 64.2553 11.02 64.0233 11.212C63.7993 11.404 63.6873 11.684 63.6873 12.052C63.6873 12.412 63.7993 12.692 64.0233 12.892C64.2553 13.084 64.5593 13.18 64.9353 13.18ZM63.3393 16.756C63.3393 17.1 63.4913 17.356 63.7953 17.524C64.0993 17.7 64.4793 17.788 64.9353 17.788C65.3753 17.788 65.7313 17.692 66.0033 17.5C66.2753 17.316 66.4113 17.068 66.4113 16.756C66.4113 16.524 66.3193 16.324 66.1353 16.156C65.9513 15.996 65.6033 15.896 65.0913 15.856C64.7073 15.832 64.3673 15.796 64.0713 15.748C63.7913 15.9 63.5993 16.064 63.4953 16.24C63.3913 16.416 63.3393 16.588 63.3393 16.756ZM71.2419 16.144C70.7379 16.144 70.3219 16.06 69.9939 15.892C69.6659 15.724 69.4219 15.504 69.2619 15.232C69.1019 14.952 69.0219 14.648 69.0219 14.32C69.0219 13.744 69.2459 13.288 69.6939 12.952C70.1419 12.616 70.7819 12.448 71.6139 12.448H73.1739V12.34C73.1739 11.876 73.0459 11.528 72.7899 11.296C72.5419 11.064 72.2179 10.948 71.8179 10.948C71.4659 10.948 71.1579 11.036 70.8939 11.212C70.6379 11.38 70.4819 11.632 70.4259 11.968H69.1539C69.1939 11.536 69.3379 11.168 69.5859 10.864C69.8419 10.552 70.1619 10.316 70.5459 10.156C70.9379 9.988 71.3659 9.904 71.8299 9.904C72.6619 9.904 73.3059 10.124 73.7619 10.564C74.2179 10.996 74.4459 11.588 74.4459 12.34V16H73.3419L73.2339 14.98C73.0659 15.308 72.8219 15.584 72.5019 15.808C72.1819 16.032 71.7619 16.144 71.2419 16.144ZM71.4939 15.112C71.8379 15.112 72.1259 15.032 72.3579 14.872C72.5979 14.704 72.7819 14.484 72.9099 14.212C73.0459 13.94 73.1299 13.64 73.1619 13.312H71.7459C71.2419 13.312 70.8819 13.4 70.6659 13.576C70.4579 13.752 70.3539 13.972 70.3539 14.236C70.3539 14.508 70.4539 14.724 70.6539 14.884C70.8619 15.036 71.1419 15.112 71.4939 15.112ZM75.533 16V14.968L78.713 11.104H75.581V10.048H80.153V11.08L76.949 14.944H80.213V16H75.533ZM82.2388 8.92C81.9988 8.92 81.7988 8.848 81.6388 8.704C81.4868 8.552 81.4108 8.364 81.4108 8.14C81.4108 7.916 81.4868 7.732 81.6388 7.588C81.7988 7.436 81.9988 7.36 82.2388 7.36C82.4788 7.36 82.6748 7.436 82.8268 7.588C82.9868 7.732 83.0668 7.916 83.0668 8.14C83.0668 8.364 82.9868 8.552 82.8268 8.704C82.6748 8.848 82.4788 8.92 82.2388 8.92ZM81.6028 16V10.048H82.8748V16H81.6028ZM84.554 16V10.048H85.682L85.778 11.092C85.962 10.724 86.23 10.436 86.582 10.228C86.942 10.012 87.354 9.904 87.818 9.904C88.538 9.904 89.102 10.128 89.51 10.576C89.926 11.024 90.134 11.692 90.134 12.58V16H88.874V12.712C88.874 11.56 88.402 10.984 87.458 10.984C86.986 10.984 86.594 11.152 86.282 11.488C85.978 11.824 85.826 12.304 85.826 12.928V16H84.554ZM94.4161 16.144C93.8321 16.144 93.3121 16.016 92.8561 15.76C92.4081 15.496 92.0561 15.132 91.8001 14.668C91.5441 14.204 91.4161 13.664 91.4161 13.048C91.4161 12.424 91.5401 11.876 91.7881 11.404C92.0441 10.932 92.3961 10.564 92.8441 10.3C93.3001 10.036 93.8281 9.904 94.4281 9.904C95.0121 9.904 95.5201 10.036 95.9521 10.3C96.3841 10.556 96.7201 10.9 96.9601 11.332C97.2001 11.764 97.3201 12.24 97.3201 12.76C97.3201 12.84 97.3161 12.928 97.3081 13.024C97.3081 13.112 97.3041 13.212 97.2961 13.324H92.6641C92.7041 13.9 92.8921 14.34 93.2281 14.644C93.5721 14.94 93.9681 15.088 94.4161 15.088C94.7761 15.088 95.0761 15.008 95.3161 14.848C95.5641 14.68 95.7481 14.456 95.8681 14.176H97.1401C96.9801 14.736 96.6601 15.204 96.1801 15.58C95.7081 15.956 95.1201 16.144 94.4161 16.144ZM94.4161 10.948C93.9921 10.948 93.6161 11.076 93.2881 11.332C92.9601 11.58 92.7601 11.956 92.6881 12.46H96.0481C96.0241 11.996 95.8601 11.628 95.5561 11.356C95.2521 11.084 94.8721 10.948 94.4161 10.948Z" fill="white"/>
</svg>
