<svg width="53" height="13" viewBox="0 0 53 13" fill="none" xmlns="http://www.w3.org/2000/svg">
<rect x="0.09375" width="20.0143" height="12.6406" fill="white"/>
<path d="M5.16086 8.18278C4.71423 8.18278 4.33079 8.08797 4.01056 7.89836C3.69033 7.70454 3.44384 7.43698 3.27109 7.09568C3.09833 6.75017 3.01195 6.35199 3.01195 5.90114C3.01195 5.45029 3.09833 5.05211 3.27109 4.7066C3.44384 4.36109 3.69033 4.09142 4.01056 3.8976C4.33079 3.70378 4.71423 3.60687 5.16086 3.60687C5.69177 3.60687 6.12576 3.73959 6.46285 4.00505C6.80415 4.26629 7.01693 4.63497 7.1012 5.1111H6.21004C6.15526 4.87093 6.03728 4.68343 5.8561 4.54859C5.67913 4.40955 5.44317 4.34002 5.14822 4.34002C4.73951 4.34002 4.41928 4.47907 4.18753 4.75716C3.95579 5.03526 3.83992 5.41658 3.83992 5.90114C3.83992 6.3857 3.95579 6.76703 4.18753 7.04512C4.41928 7.319 4.73951 7.45594 5.14822 7.45594C5.44317 7.45594 5.67913 7.39274 5.8561 7.26633C6.03728 7.13571 6.15526 6.95664 6.21004 6.7291H7.1012C7.01693 7.18417 6.80415 7.54021 6.46285 7.79724C6.12576 8.05426 5.69177 8.18278 5.16086 8.18278ZM7.81732 8.10693V3.68271H8.77801L10.1874 6.48893L11.5779 3.68271H12.5386V8.10693H11.7296V5.05422L10.4971 7.4749H9.85879L8.62632 5.05422V8.10693H7.81732ZM14.9075 8.18278C14.5831 8.18278 14.2966 8.128 14.048 8.01845C13.7994 7.90468 13.6034 7.74457 13.4602 7.5381C13.3169 7.32743 13.2432 7.07251 13.239 6.77335H14.0922C14.1006 6.97981 14.1744 7.15467 14.3134 7.29793C14.4567 7.43698 14.6526 7.5065 14.9012 7.5065C15.1161 7.5065 15.2868 7.45594 15.4132 7.35482C15.5396 7.24948 15.6028 7.11043 15.6028 6.93767C15.6028 6.75649 15.5459 6.61534 15.4321 6.51421C15.3226 6.41309 15.1751 6.33092 14.9897 6.26772C14.8043 6.20452 14.6063 6.1371 14.3956 6.06547C14.0543 5.94749 13.7931 5.7958 13.6119 5.61041C13.4349 5.42501 13.3464 5.17852 13.3464 4.87093C13.3422 4.60969 13.4033 4.38637 13.5297 4.20098C13.6603 4.01137 13.8373 3.866 14.0606 3.76487C14.2839 3.65953 14.541 3.60687 14.8317 3.60687C15.1266 3.60687 15.3858 3.65953 15.6091 3.76487C15.8366 3.87021 16.0136 4.01769 16.14 4.2073C16.2706 4.39691 16.3401 4.62233 16.3486 4.88357H15.4827C15.4785 4.72767 15.4174 4.59073 15.2994 4.47275C15.1856 4.35056 15.0255 4.28946 14.8191 4.28946C14.6421 4.28525 14.4925 4.32949 14.3703 4.42219C14.2523 4.51067 14.1933 4.64129 14.1933 4.81405C14.1933 4.96152 14.2397 5.0795 14.3324 5.16798C14.4251 5.25226 14.5515 5.32389 14.7116 5.38288C14.8717 5.44187 15.055 5.50507 15.2615 5.57249C15.4806 5.64833 15.6807 5.73681 15.8619 5.83794C16.0431 5.93906 16.1885 6.0739 16.298 6.24244C16.4076 6.40677 16.4623 6.61955 16.4623 6.88079C16.4623 7.11254 16.4033 7.32743 16.2854 7.52546C16.1674 7.7235 15.9925 7.88362 15.7608 8.00581C15.529 8.12379 15.2446 8.18278 14.9075 8.18278Z" fill="#1C1A22"/>
<path d="M23.692 8.10693V4.97205H24.2861L24.343 5.41448C24.4441 5.25436 24.5769 5.12796 24.7412 5.03526C24.9097 4.94256 25.1036 4.89621 25.3227 4.89621C25.8199 4.89621 26.1654 5.09214 26.3592 5.484C26.473 5.30282 26.6246 5.15956 26.8143 5.05422C27.0081 4.94888 27.2166 4.89621 27.44 4.89621C27.8318 4.89621 28.1394 5.01419 28.3627 5.25015C28.5861 5.48611 28.6977 5.83794 28.6977 6.30564V8.10693H28.0278V6.37517C28.0278 5.76842 27.796 5.46504 27.3325 5.46504C27.0966 5.46504 26.9027 5.55352 26.7511 5.73049C26.6036 5.90746 26.5298 6.16027 26.5298 6.48893V8.10693H25.8599V6.37517C25.8599 5.76842 25.626 5.46504 25.1583 5.46504C24.9266 5.46504 24.7349 5.55352 24.5832 5.73049C24.4357 5.90746 24.362 6.16027 24.362 6.48893V8.10693H23.692ZM30.5433 8.18278C30.2779 8.18278 30.0588 8.13854 29.886 8.05005C29.7133 7.96157 29.5848 7.84569 29.5005 7.70243C29.4162 7.55496 29.3741 7.39484 29.3741 7.22209C29.3741 6.91871 29.4921 6.67854 29.728 6.50157C29.964 6.3246 30.3011 6.23612 30.7393 6.23612H31.5609V6.17924C31.5609 5.93485 31.4935 5.75156 31.3587 5.62937C31.228 5.50718 31.0574 5.44608 30.8467 5.44608C30.6613 5.44608 30.4991 5.49243 30.3601 5.58513C30.2252 5.67361 30.1431 5.80634 30.1136 5.98331H29.4436C29.4647 5.75577 29.5405 5.56195 29.6711 5.40184C29.806 5.23751 29.9745 5.11321 30.1768 5.02894C30.3832 4.94045 30.6087 4.89621 30.853 4.89621C31.2912 4.89621 31.6304 5.01208 31.8706 5.24383C32.1108 5.47136 32.2309 5.78316 32.2309 6.17924V8.10693H31.6494L31.5925 7.56971C31.504 7.74246 31.3755 7.88783 31.207 8.00581C31.0384 8.12379 30.8172 8.18278 30.5433 8.18278ZM30.6761 7.63923C30.8573 7.63923 31.0089 7.59709 31.1311 7.51282C31.2575 7.42434 31.3544 7.30847 31.4219 7.16521C31.4935 7.02195 31.5377 6.86394 31.5546 6.69118H30.8088C30.5433 6.69118 30.3537 6.73753 30.24 6.83023C30.1304 6.92293 30.0756 7.0388 30.0756 7.17785C30.0756 7.32111 30.1283 7.43487 30.2336 7.51914C30.3432 7.5992 30.4907 7.63923 30.6761 7.63923ZM34.295 7.14624C34.1307 7.14624 33.979 7.12728 33.84 7.08936L33.5682 7.35482C33.6146 7.38431 33.6714 7.40959 33.7389 7.43066C33.8063 7.45173 33.9011 7.47069 34.0233 7.48754C34.1455 7.5044 34.3119 7.52125 34.5226 7.5381C34.9397 7.57603 35.241 7.67715 35.4264 7.84148C35.6118 8.00159 35.7045 8.21649 35.7045 8.48615C35.7045 8.67155 35.6539 8.84641 35.5528 9.01074C35.4559 9.17928 35.3021 9.31411 35.0914 9.41524C34.8849 9.52058 34.6195 9.57325 34.295 9.57325C33.8568 9.57325 33.5008 9.48898 33.2269 9.32044C32.9572 9.15611 32.8224 8.9054 32.8224 8.56832C32.8224 8.4377 32.8561 8.30708 32.9235 8.17646C32.9952 8.05005 33.1068 7.92996 33.2585 7.8162C33.17 7.77828 33.0921 7.73825 33.0247 7.69611C32.9615 7.64976 32.9046 7.60341 32.854 7.55707V7.40538L33.3976 6.84919C33.1532 6.63851 33.031 6.36253 33.031 6.02123C33.031 5.81476 33.0794 5.62726 33.1763 5.45872C33.2775 5.28596 33.4228 5.14902 33.6125 5.0479C33.8021 4.94677 34.0296 4.89621 34.295 4.89621C34.472 4.89621 34.6363 4.92149 34.788 4.97205H35.9573V5.41448L35.4011 5.44608C35.5022 5.61883 35.5528 5.81055 35.5528 6.02123C35.5528 6.23191 35.5022 6.42151 35.4011 6.59006C35.3042 6.7586 35.1609 6.89343 34.9713 6.99456C34.7859 7.09568 34.5605 7.14624 34.295 7.14624ZM34.295 6.62166C34.4889 6.62166 34.6448 6.5711 34.7627 6.46997C34.8849 6.36463 34.946 6.21716 34.946 6.02755C34.946 5.83372 34.8849 5.68625 34.7627 5.58513C34.6448 5.484 34.4889 5.43344 34.295 5.43344C34.097 5.43344 33.9369 5.484 33.8147 5.58513C33.6967 5.68625 33.6377 5.83372 33.6377 6.02755C33.6377 6.21716 33.6967 6.36463 33.8147 6.46997C33.9369 6.5711 34.097 6.62166 34.295 6.62166ZM33.4544 8.50511C33.4544 8.6863 33.5345 8.82113 33.6946 8.90961C33.8547 9.00231 34.0549 9.04866 34.295 9.04866C34.5268 9.04866 34.7143 8.9981 34.8576 8.89697C35.0008 8.80006 35.0724 8.66944 35.0724 8.50511C35.0724 8.38292 35.024 8.27758 34.9271 8.1891C34.8302 8.10483 34.6469 8.05216 34.3772 8.03109C34.175 8.01845 33.9959 7.99949 33.84 7.97421C33.6925 8.05426 33.5914 8.14064 33.5366 8.23334C33.4818 8.32604 33.4544 8.41663 33.4544 8.50511ZM37.6167 8.18278C37.3512 8.18278 37.1321 8.13854 36.9594 8.05005C36.7866 7.96157 36.6581 7.84569 36.5738 7.70243C36.4895 7.55496 36.4474 7.39484 36.4474 7.22209C36.4474 6.91871 36.5654 6.67854 36.8013 6.50157C37.0373 6.3246 37.3744 6.23612 37.8126 6.23612H38.6342V6.17924C38.6342 5.93485 38.5668 5.75156 38.432 5.62937C38.3014 5.50718 38.1307 5.44608 37.92 5.44608C37.7346 5.44608 37.5724 5.49243 37.4334 5.58513C37.2985 5.67361 37.2164 5.80634 37.1869 5.98331H36.5169C36.538 5.75577 36.6138 5.56195 36.7445 5.40184C36.8793 5.23751 37.0478 5.11321 37.2501 5.02894C37.4566 4.94045 37.682 4.89621 37.9264 4.89621C38.3646 4.89621 38.7038 5.01208 38.9439 5.24383C39.1841 5.47136 39.3042 5.78316 39.3042 6.17924V8.10693H38.7227L38.6658 7.56971C38.5774 7.74246 38.4488 7.88783 38.2803 8.00581C38.1118 8.12379 37.8905 8.18278 37.6167 8.18278ZM37.7494 7.63923C37.9306 7.63923 38.0823 7.59709 38.2045 7.51282C38.3309 7.42434 38.4278 7.30847 38.4952 7.16521C38.5668 7.02195 38.6111 6.86394 38.6279 6.69118H37.8821C37.6167 6.69118 37.4271 6.73753 37.3133 6.83023C37.2037 6.92293 37.149 7.0388 37.149 7.17785C37.149 7.32111 37.2016 7.43487 37.307 7.51914C37.4165 7.5992 37.564 7.63923 37.7494 7.63923ZM39.8768 8.10693V7.56339L41.5517 5.52824H39.9021V4.97205H42.3101V5.5156L40.6226 7.55075H42.3417V8.10693H39.8768ZM43.4087 4.37794C43.2823 4.37794 43.177 4.34002 43.0927 4.26418C43.0126 4.18412 42.9726 4.0851 42.9726 3.96712C42.9726 3.84914 43.0126 3.75223 43.0927 3.67639C43.177 3.59633 43.2823 3.5563 43.4087 3.5563C43.5351 3.5563 43.6383 3.59633 43.7184 3.67639C43.8027 3.75223 43.8448 3.84914 43.8448 3.96712C43.8448 4.0851 43.8027 4.18412 43.7184 4.26418C43.6383 4.34002 43.5351 4.37794 43.4087 4.37794ZM43.0737 8.10693V4.97205H43.7437V8.10693H43.0737ZM44.6281 8.10693V4.97205H45.2222L45.2727 5.52192C45.3697 5.3281 45.5108 5.17641 45.6962 5.06686C45.8858 4.95309 46.1028 4.89621 46.3472 4.89621C46.7264 4.89621 47.0235 5.01419 47.2384 5.25015C47.4575 5.48611 47.567 5.83794 47.567 6.30564V8.10693H46.9034V6.37517C46.9034 5.76842 46.6548 5.46504 46.1576 5.46504C45.909 5.46504 45.7025 5.55352 45.5382 5.73049C45.3781 5.90746 45.298 6.16027 45.298 6.48893V8.10693H44.6281ZM49.8224 8.18278C49.5148 8.18278 49.2409 8.11536 49.0008 7.98053C48.7648 7.84148 48.5794 7.64976 48.4446 7.40538C48.3097 7.16099 48.2423 6.87658 48.2423 6.55213C48.2423 6.22348 48.3076 5.93485 48.4382 5.68625C48.5731 5.43765 48.7585 5.24383 48.9944 5.10478C49.2346 4.96573 49.5127 4.89621 49.8287 4.89621C50.1363 4.89621 50.4039 4.96573 50.6314 5.10478C50.8589 5.23961 51.0359 5.4208 51.1623 5.64833C51.2887 5.87586 51.3519 6.12657 51.3519 6.40045C51.3519 6.44258 51.3498 6.48893 51.3456 6.53949C51.3456 6.58584 51.3435 6.63851 51.3393 6.6975H48.8996C48.9207 7.00088 49.0197 7.23262 49.1967 7.39274C49.3779 7.54864 49.5864 7.62659 49.8224 7.62659C50.012 7.62659 50.17 7.58445 50.2964 7.50018C50.427 7.4117 50.5239 7.29372 50.5872 7.14624H51.2571C51.1728 7.44119 51.0043 7.68769 50.7515 7.88572C50.5029 8.08376 50.1932 8.18278 49.8224 8.18278ZM49.8224 5.44608C49.5991 5.44608 49.401 5.5135 49.2283 5.64833C49.0555 5.77895 48.9502 5.97699 48.9123 6.24244H50.682C50.6693 5.99805 50.5829 5.80423 50.4228 5.66097C50.2627 5.51771 50.0626 5.44608 49.8224 5.44608Z" fill="white"/>
</svg>
