<svg width="146" height="22" viewBox="0 0 146 22" fill="none" xmlns="http://www.w3.org/2000/svg">
<g clip-path="url(#clip0_2118_910)">
<path d="M15.0849 14.1148L7.94823 7.0574L15.0849 0H7.94823L0.811523 7.0574L4.37987 10.6258L7.94823 14.1148L11.5166 17.6039L15.0849 14.1148Z" fill="white"/>
<path d="M20.1601 10.6258L16.5918 7.05741L13.0234 3.56836L9.53437 7.05741L16.5918 14.1148L9.45508 21.1722H16.5918L20.1601 17.6832L23.7285 14.1148L20.1601 10.6258Z" fill="white"/>
<path d="M32.6094 7.05771C31.5785 7.05771 30.7062 7.3749 30.0719 8.08857C29.4375 8.80224 29.1203 9.7538 29.1203 11.0225C29.1203 12.2913 29.4375 13.2429 29.9926 13.9565C30.6269 14.6702 31.4199 14.9874 32.5301 14.9874C33.2437 14.9874 33.9574 14.8288 34.8297 14.5909V15.6218C34.116 15.8596 33.323 16.0182 32.3715 16.0182C30.9441 16.0182 29.834 15.6218 29.041 14.7495C28.248 13.8772 27.8516 12.6085 27.8516 11.0225C27.8516 9.99169 28.0102 9.11943 28.4066 8.40576C28.8031 7.69209 29.3582 7.05771 29.9926 6.66123C30.6269 6.26475 31.4992 6.02686 32.5301 6.02686C33.5609 6.02686 34.4332 6.18545 35.2262 6.58193L34.7504 7.53349C34.116 7.2956 33.4023 7.05771 32.6094 7.05771Z" fill="white"/>
<path d="M42.5216 13.3219C42.5216 14.1941 42.2044 14.8285 41.57 15.3043C40.9356 15.7801 40.1427 16.0179 39.0325 16.0179C37.8431 16.0179 36.9708 15.8594 36.3364 15.5422V14.432C36.7329 14.5906 37.2087 14.7492 37.6052 14.8285C38.0017 14.9078 38.5567 14.9871 39.0325 14.9871C39.8255 14.9871 40.3806 14.8285 40.6977 14.5906C41.0942 14.2734 41.2528 13.8769 41.2528 13.4012C41.2528 13.084 41.1735 12.7668 41.0149 12.6082C40.8563 12.3703 40.6184 12.2117 40.3013 11.9738C39.9841 11.8152 39.5083 11.5773 38.8739 11.3394C38.0017 11.0223 37.288 10.6258 36.9708 10.15C36.5743 9.67421 36.4157 9.11913 36.4157 8.40546C36.4157 7.69179 36.7329 7.05742 37.288 6.58164C37.8431 6.10586 38.636 5.94727 39.5083 5.94727C40.4599 5.94727 41.3321 6.10586 42.2044 6.50234L41.8872 7.4539C41.0942 7.13672 40.3013 6.97812 39.5083 6.97812C38.8739 6.97812 38.4774 7.13672 38.081 7.37461C37.7638 7.6125 37.6052 8.00898 37.6052 8.48476C37.6052 8.80195 37.6845 9.11913 37.7638 9.27773C37.9224 9.51562 38.081 9.67421 38.3981 9.8328C38.7153 9.9914 39.1118 10.2293 39.7462 10.4672C40.777 10.8637 41.4907 11.2601 41.8872 11.6566C42.363 12.1324 42.5216 12.6875 42.5216 13.3219Z" fill="white"/>
<path d="M50.0548 13.3219C50.0548 14.1941 49.7376 14.8285 49.1032 15.3043C48.4688 15.7801 47.6759 16.0179 46.5657 16.0179C45.3763 16.0179 44.504 15.8594 43.8696 15.5422V14.432C44.2661 14.5906 44.7419 14.7492 45.1384 14.8285C45.5349 14.9078 46.0899 14.9871 46.5657 14.9871C47.3587 14.9871 47.9138 14.8285 48.2309 14.5906C48.6274 14.2734 48.786 13.8769 48.786 13.4012C48.786 13.084 48.7067 12.7668 48.5481 12.6082C48.3895 12.3703 48.1517 12.2117 47.8345 11.9738C47.5173 11.8152 47.0415 11.5773 46.4071 11.3394C45.5349 11.0223 44.8212 10.6258 44.504 10.15C44.1075 9.67421 43.9489 9.11913 43.9489 8.40546C43.9489 7.69179 44.2661 7.05742 44.8212 6.58164C45.3763 6.10586 46.1692 5.94727 47.0415 5.94727C47.9931 5.94727 48.8653 6.10586 49.7376 6.50234L49.4204 7.4539C48.6274 7.13672 47.8345 6.97812 47.0415 6.97812C46.4071 6.97812 46.0106 7.13672 45.6142 7.37461C45.297 7.6125 45.1384 8.00898 45.1384 8.48476C45.1384 8.80195 45.2177 9.11913 45.297 9.27773C45.4556 9.51562 45.6142 9.67421 45.9313 9.8328C46.2485 9.9914 46.645 10.2293 47.2794 10.4672C48.3102 10.8637 49.0239 11.2601 49.4204 11.6566C49.8169 12.1324 50.0548 12.6875 50.0548 13.3219Z" fill="white"/>
<path d="M59.9668 10.8636C59.9668 12.4495 59.491 13.7182 58.6187 14.5905C57.7465 15.4628 56.4777 15.9386 54.8125 15.9386H51.6406V6.18506H54.9711C56.557 6.18506 57.7465 6.58154 58.6187 7.37451C59.491 8.16748 59.9668 9.35693 59.9668 10.8636ZM57.2707 10.9429C57.2707 10.0706 57.1121 9.35693 56.7156 8.96044C56.3984 8.56396 55.8434 8.32607 55.1297 8.32607H54.3367V13.7975H54.8918C55.6848 13.7975 56.2398 13.5597 56.6363 13.0839C57.1121 12.6081 57.2707 11.8944 57.2707 10.9429Z" fill="white"/>
<path d="M65.2002 16.0974C63.9314 16.0974 62.9799 15.7803 62.2662 15.0666C61.5525 14.4322 61.2354 13.4807 61.2354 12.2119C61.2354 10.9432 61.5525 9.9916 62.1869 9.27793C62.8213 8.56426 63.7728 8.24707 64.9623 8.24707C66.0725 8.24707 66.9447 8.56426 67.5791 9.11933C68.2135 9.67441 68.5306 10.5467 68.5306 11.6568V12.8463H63.8521C63.8521 13.2428 64.0107 13.5599 64.3279 13.8771C64.6451 14.115 65.0416 14.2736 65.5174 14.2736C65.9932 14.2736 66.3896 14.1943 66.7861 14.115C67.1826 14.0357 67.5791 13.8771 68.0549 13.6392V15.5424C67.6584 15.7803 67.2619 15.8596 66.7861 15.9389C66.3103 16.0181 65.8346 16.0974 65.2002 16.0974ZM65.0416 10.0709C64.7244 10.0709 64.4865 10.1502 64.2486 10.3881C64.0107 10.5467 63.9314 10.8639 63.8521 11.2603H66.0724C66.0724 10.8639 65.9932 10.626 65.7553 10.3881C65.676 10.1502 65.4381 10.0709 65.0416 10.0709Z" fill="white"/>
<path d="M75.826 13.6393C75.826 14.4323 75.5881 15.0667 75.033 15.4632C74.4779 15.8597 73.685 16.0975 72.6541 16.0975C72.099 16.0975 71.6232 16.0975 71.2268 16.0182C70.8303 15.9389 70.3545 15.8597 69.958 15.7011V13.6393C70.3545 13.7979 70.8303 13.9565 71.3061 14.1151C71.7818 14.1944 72.1783 14.2737 72.5748 14.2737C73.1299 14.2737 73.4471 14.1151 73.4471 13.8772C73.4471 13.7186 73.3678 13.6393 73.2092 13.56C73.0506 13.4808 72.5748 13.2429 71.8611 12.9257C71.1475 12.6085 70.6717 12.2913 70.4338 11.9741C70.1959 11.5776 70.0373 11.1811 70.0373 10.6261C70.0373 9.9124 70.2752 9.35732 70.8303 8.96084C71.3853 8.56436 72.099 8.40576 73.1299 8.40576C73.6057 8.40576 74.0814 8.48506 74.5572 8.56436C75.033 8.64365 75.4295 8.80225 75.9053 9.04014L75.1916 10.7054C74.8744 10.5468 74.4779 10.3882 74.0814 10.3089C73.685 10.2296 73.3678 10.1503 73.1299 10.1503C72.7334 10.1503 72.4955 10.2296 72.4955 10.4675C72.4955 10.6261 72.5748 10.7054 72.7334 10.7847C72.892 10.864 73.2885 11.0226 74.0021 11.3397C74.5572 11.5776 74.9537 11.7362 75.1916 11.9741C75.4295 12.212 75.6674 12.4499 75.7467 12.6878C75.7467 12.8464 75.826 13.2429 75.826 13.6393Z" fill="white"/>
<path d="M77.2534 6.50244C77.2534 6.10596 77.3327 5.78877 77.5706 5.63018C77.8085 5.47158 78.1257 5.31299 78.6015 5.31299C79.0772 5.31299 79.4737 5.39228 79.6323 5.63018C79.8702 5.78877 79.9495 6.10596 79.9495 6.50244C79.9495 7.29541 79.4737 7.61259 78.5222 7.61259C77.6499 7.69189 77.2534 7.29541 77.2534 6.50244ZM79.8702 15.9387H77.2534V8.40556H79.8702V15.9387Z" fill="white"/>
<path d="M88.8308 8.40566V9.67441L87.8 10.0709C87.9586 10.3088 88.0379 10.626 88.0379 10.9432C88.0379 11.7361 87.7207 12.3705 87.1656 12.8463C86.6105 13.3221 85.7383 13.4807 84.6281 13.4807C84.3109 13.4807 84.1523 13.4807 83.9937 13.4014C83.9144 13.4807 83.9144 13.6392 83.9144 13.7185C83.9144 13.8771 83.9937 13.9564 84.2316 14.0357C84.4695 14.115 84.7074 14.115 85.0246 14.115H86.2933C87.9586 14.115 88.8308 14.8287 88.8308 16.256C88.8308 17.2076 88.4344 17.9213 87.6414 18.397C86.8484 18.8728 85.7383 19.19 84.3109 19.19C83.2801 19.19 82.4078 19.0314 81.8527 18.6349C81.2977 18.3177 80.9805 17.7627 80.9805 17.1283C80.9805 16.256 81.5355 15.6217 82.6457 15.3838C82.4078 15.3045 82.2492 15.1459 82.0113 14.908C81.8527 14.6701 81.7734 14.5115 81.7734 14.2736C81.7734 14.0357 81.8527 13.7978 81.932 13.6392C82.0906 13.4807 82.3285 13.2428 82.725 13.0049C82.3285 12.8463 82.0113 12.5291 81.7734 12.2119C81.5355 11.8154 81.4562 11.4189 81.4562 10.8639C81.4562 10.0709 81.7734 9.43652 82.3285 8.96074C82.8836 8.48496 83.6766 8.24707 84.7074 8.24707C84.866 8.24707 85.1039 8.24707 85.4211 8.32637C85.7383 8.32637 85.9762 8.40566 86.1348 8.40566H88.8308ZM83.1215 16.8904C83.1215 17.1283 83.2008 17.2869 83.4387 17.4455C83.6766 17.6041 83.9937 17.6041 84.3902 17.6041C85.0246 17.6041 85.5004 17.5248 85.8969 17.3662C86.2933 17.2076 86.4519 16.9697 86.4519 16.7318C86.4519 16.4939 86.3726 16.4146 86.1348 16.3353C85.8969 16.256 85.5797 16.1767 85.1039 16.1767H84.073C83.7559 16.1767 83.5973 16.256 83.3594 16.3353C83.2008 16.4939 83.1215 16.6525 83.1215 16.8904ZM83.9144 10.8639C83.9144 11.6568 84.1523 12.0533 84.7074 12.0533C84.9453 12.0533 85.1832 11.974 85.2625 11.7361C85.4211 11.5775 85.5004 11.2603 85.5004 10.8639C85.5004 10.0709 85.2625 9.67441 84.7074 9.67441C84.2316 9.67441 83.9144 10.0709 83.9144 10.8639Z" fill="white"/>
<path d="M94.6989 15.9389V11.8155C94.6989 11.3397 94.6196 10.9433 94.461 10.7054C94.3024 10.4675 94.0645 10.3089 93.7474 10.3089C93.2716 10.3089 92.9544 10.4675 92.7958 10.864C92.6372 11.1811 92.4786 11.8155 92.4786 12.6878V16.0182H89.8618V8.48506H91.8442L92.1614 9.43662H92.32C92.5579 9.11943 92.8751 8.80225 93.2716 8.64365C93.6681 8.48506 94.1438 8.40576 94.6196 8.40576C95.4919 8.40576 96.1263 8.64365 96.602 9.11943C97.0778 9.59521 97.3157 10.3089 97.3157 11.1811V16.0975H94.6989V15.9389Z" fill="white"/>
<path d="M105.642 15.9386L104.452 12.846H100.567L99.3772 15.9386H98.2671L102.153 6.18506H103.104L106.91 15.9386H105.642ZM104.056 11.8151L102.946 8.80185C102.787 8.40537 102.628 7.92959 102.47 7.37451C102.391 7.77099 102.232 8.24677 102.073 8.80185L100.963 11.8151H104.056Z" fill="white"/>
<path d="M113.968 15.9387L112.62 11.6566C112.541 11.4187 112.382 10.7844 112.144 9.91211H112.065C111.906 10.7051 111.748 11.2602 111.589 11.7359L110.241 16.018H108.972L106.99 8.72266H108.179C108.655 10.5465 108.972 11.9738 109.289 12.9254C109.527 13.8769 109.686 14.5113 109.686 14.8285H109.765C109.844 14.5906 109.924 14.2734 110.003 13.8769C110.082 13.4805 110.241 13.1633 110.32 12.9254L111.668 8.72266H112.858L114.126 12.9254C114.364 13.7183 114.523 14.3527 114.602 14.8285H114.682C114.682 14.6699 114.761 14.432 114.84 14.1148C114.919 13.7976 115.395 11.9738 116.188 8.72266H117.298L115.316 16.018H113.968V15.9387Z" fill="white"/>
<path d="M123.087 15.9388L122.849 14.9079H122.77C122.373 15.3837 122.056 15.7009 121.659 15.8595C121.263 16.0181 120.866 16.0973 120.311 16.0973C119.598 16.0973 119.043 15.9388 118.646 15.5423C118.25 15.1458 118.012 14.67 118.012 13.9563C118.012 12.4497 119.201 11.736 121.58 11.6567L122.849 11.5774V11.1017C122.849 10.5466 122.69 10.0708 122.452 9.83291C122.214 9.59502 121.818 9.43642 121.263 9.43642C120.629 9.43642 119.994 9.59502 119.201 9.9915L118.884 9.11924C119.28 8.96064 119.598 8.80205 120.073 8.64346C120.47 8.56416 120.946 8.48486 121.342 8.48486C122.214 8.48486 122.849 8.64346 123.245 9.03994C123.642 9.43642 123.88 10.0708 123.88 10.8638V15.8595H123.087V15.9388ZM120.549 15.1458C121.263 15.1458 121.739 14.9872 122.135 14.5907C122.532 14.1942 122.69 13.7184 122.69 13.0048V12.3704L121.58 12.4497C120.708 12.4497 120.073 12.6083 119.677 12.8462C119.28 13.0841 119.122 13.4806 119.122 13.9563C119.122 14.3528 119.28 14.67 119.518 14.8286C119.836 15.0665 120.153 15.1458 120.549 15.1458Z" fill="white"/>
<path d="M129.51 8.48486C129.827 8.48486 130.145 8.48486 130.382 8.56416L130.224 9.59502C129.907 9.51572 129.669 9.51572 129.431 9.51572C128.876 9.51572 128.321 9.75361 127.924 10.2294C127.528 10.7052 127.29 11.3395 127.29 12.0532V15.9388H126.18V8.64346H127.052L127.211 9.9915H127.29C127.528 9.51572 127.924 9.11924 128.241 8.88135C128.638 8.64346 129.034 8.48486 129.51 8.48486Z" fill="white"/>
<path d="M136.726 14.9871C136.171 15.7008 135.378 16.0972 134.347 16.0972C133.396 16.0972 132.682 15.7801 132.127 15.1457C131.572 14.5113 131.334 13.5597 131.334 12.3703C131.334 11.1808 131.572 10.2293 132.127 9.59491C132.682 8.96054 133.396 8.56406 134.347 8.56406C135.299 8.56406 136.092 8.96054 136.647 9.67421H136.726L136.647 9.11913V8.64335V5.55078H137.757V15.9387H136.885L136.726 14.9871ZM134.506 15.1457C135.299 15.1457 135.775 14.9078 136.171 14.5113C136.488 14.1148 136.647 13.4012 136.647 12.5289V12.291C136.647 11.2601 136.488 10.5465 136.092 10.0707C135.775 9.59491 135.22 9.43632 134.427 9.43632C133.792 9.43632 133.316 9.67421 132.92 10.2293C132.603 10.7051 132.365 11.4187 132.365 12.3703C132.365 13.3219 132.523 14.0355 132.841 14.5113C133.316 14.9078 133.792 15.1457 134.506 15.1457Z" fill="white"/>
<path d="M144.814 13.9563C144.814 14.67 144.576 15.1458 144.021 15.5423C143.545 15.9388 142.832 16.0973 141.88 16.0973C140.929 16.0973 140.136 15.9388 139.581 15.6216V14.5907C139.898 14.7493 140.294 14.9079 140.691 14.9872C141.087 15.0665 141.484 15.1458 141.88 15.1458C142.435 15.1458 142.911 15.0665 143.228 14.9079C143.545 14.7493 143.704 14.4321 143.704 14.0356C143.704 13.7184 143.545 13.4806 143.308 13.322C143.07 13.0841 142.594 12.8462 141.88 12.6083C141.167 12.3704 140.691 12.1325 140.453 11.9739C140.136 11.8153 139.977 11.5774 139.818 11.3395C139.66 11.1017 139.581 10.7845 139.581 10.4673C139.581 9.9122 139.818 9.43642 140.294 9.03994C140.77 8.64346 141.404 8.48486 142.277 8.48486C143.07 8.48486 143.863 8.64346 144.576 8.96064L144.18 9.83291C143.466 9.51572 142.752 9.35713 142.197 9.35713C141.642 9.35713 141.246 9.43642 141.008 9.59502C140.77 9.75361 140.611 9.9915 140.611 10.3087C140.611 10.4673 140.691 10.7052 140.77 10.7845C140.849 10.9431 141.008 11.0224 141.246 11.181C141.484 11.3395 141.88 11.4981 142.515 11.736C143.387 12.0532 143.942 12.3704 144.259 12.6876C144.656 13.0841 144.814 13.4806 144.814 13.9563Z" fill="white"/>
</g>
<defs>
<clipPath id="clip0_2118_910">
<rect width="144.32" height="22" fill="white" transform="translate(0.811523)"/>
</clipPath>
</defs>
</svg>
