<svg width="77" height="12" viewBox="0 0 77 12" fill="none" xmlns="http://www.w3.org/2000/svg">
<g clip-path="url(#clip0_2463_911)">
<path d="M8.46107 7.43417L4.70221 3.71709L8.46107 0H4.70221L0.943359 3.71709L2.82279 5.59651L4.70221 7.43417L6.58164 9.27184L8.46107 7.43417Z" fill="white"/>
<path d="M11.1344 5.59648L9.25495 3.71706L7.37552 1.87939L5.53786 3.71706L9.25495 7.43414L5.49609 11.1512H9.25495L11.1344 9.31357L13.0138 7.43414L11.1344 5.59648Z" fill="white"/>
<path d="M17.6914 3.71726C17.1485 3.71726 16.6891 3.88432 16.355 4.26021C16.0208 4.63609 15.8538 5.13727 15.8538 5.80551C15.8538 6.47375 16.0208 6.97494 16.3132 7.35082C16.6473 7.72671 17.065 7.89377 17.6497 7.89377C18.0256 7.89377 18.4015 7.81024 18.8609 7.68494V8.22789C18.485 8.35318 18.0673 8.43671 17.5662 8.43671C16.8144 8.43671 16.2297 8.22789 15.812 7.76847C15.3944 7.30906 15.1855 6.64082 15.1855 5.80551C15.1855 5.26257 15.2691 4.80315 15.4779 4.42727C15.6867 4.05138 15.9791 3.71726 16.3132 3.50844C16.6473 3.29961 17.1067 3.17432 17.6497 3.17432C18.1926 3.17432 18.652 3.25785 19.0697 3.46667L18.8191 3.96785C18.485 3.84256 18.1091 3.71726 17.6914 3.71726Z" fill="white"/>
<path d="M22.912 7.01647C22.912 7.47589 22.7449 7.81001 22.4108 8.0606C22.0767 8.31119 21.659 8.43649 21.0743 8.43649C20.4478 8.43649 19.9884 8.35295 19.6543 8.18589V7.60118C19.8631 7.68471 20.1137 7.76824 20.3225 7.81001C20.5314 7.85177 20.8237 7.89354 21.0743 7.89354C21.492 7.89354 21.7843 7.81001 21.9514 7.68471C22.1602 7.51765 22.2437 7.30883 22.2437 7.05824C22.2437 6.89118 22.202 6.72412 22.1184 6.64059C22.0349 6.51529 21.9096 6.43176 21.7425 6.30647C21.5755 6.22294 21.3249 6.09764 20.9908 5.97235C20.5314 5.80529 20.1555 5.59646 19.9884 5.34587C19.7796 5.09528 19.6961 4.80293 19.6961 4.42704C19.6961 4.05116 19.8631 3.71703 20.1555 3.46644C20.4478 3.21585 20.8655 3.13232 21.3249 3.13232C21.8261 3.13232 22.2855 3.21585 22.7449 3.42468L22.5779 3.92586C22.1602 3.7588 21.7425 3.67527 21.3249 3.67527C20.9908 3.67527 20.782 3.7588 20.5731 3.8841C20.4061 4.00939 20.3225 4.21822 20.3225 4.46881C20.3225 4.63587 20.3643 4.80293 20.4061 4.88646C20.4896 5.01175 20.5731 5.09528 20.7402 5.17881C20.9072 5.26234 21.1161 5.38764 21.4502 5.51293C21.9931 5.72176 22.369 5.93058 22.5779 6.13941C22.8284 6.39 22.912 6.68235 22.912 7.01647Z" fill="white"/>
<path d="M26.8797 7.01647C26.8797 7.47589 26.7127 7.81001 26.3786 8.0606C26.0444 8.31119 25.6268 8.43649 25.0421 8.43649C24.4156 8.43649 23.9562 8.35295 23.6221 8.18589V7.60118C23.8309 7.68471 24.0815 7.76824 24.2903 7.81001C24.4991 7.85177 24.7915 7.89354 25.0421 7.89354C25.4597 7.89354 25.7521 7.81001 25.9191 7.68471C26.128 7.51765 26.2115 7.30883 26.2115 7.05824C26.2115 6.89118 26.1697 6.72412 26.0862 6.64059C26.0027 6.51529 25.8774 6.43176 25.7103 6.30647C25.5433 6.22294 25.2927 6.09764 24.9586 5.97235C24.4991 5.80529 24.1233 5.59646 23.9562 5.34587C23.7474 5.09528 23.6638 4.80293 23.6638 4.42704C23.6638 4.05116 23.8309 3.71703 24.1233 3.46644C24.4156 3.21585 24.8333 3.13232 25.2927 3.13232C25.7939 3.13232 26.2533 3.21585 26.7127 3.42468L26.5456 3.92586C26.128 3.7588 25.7103 3.67527 25.2927 3.67527C24.9586 3.67527 24.7497 3.7588 24.5409 3.8841C24.3738 4.00939 24.2903 4.21822 24.2903 4.46881C24.2903 4.63587 24.3321 4.80293 24.3738 4.88646C24.4574 5.01175 24.5409 5.09528 24.708 5.17881C24.875 5.26234 25.0838 5.38764 25.418 5.51293C25.9609 5.72176 26.3368 5.93058 26.5456 6.13941C26.7544 6.39 26.8797 6.68235 26.8797 7.01647Z" fill="white"/>
<path d="M32.1002 5.72195C32.1002 6.55725 31.8496 7.22549 31.3902 7.68491C30.9308 8.14432 30.2625 8.39491 29.3854 8.39491H27.7148V3.25781H29.469C30.3043 3.25781 30.9308 3.46664 31.3902 3.88429C31.8496 4.30194 32.1002 4.92841 32.1002 5.72195ZM30.6802 5.76372C30.6802 5.3043 30.5966 4.92841 30.3878 4.71959C30.2207 4.51076 29.9284 4.38547 29.5525 4.38547H29.1349V7.26726H29.4272C29.8449 7.26726 30.1372 7.14196 30.346 6.89137C30.5966 6.64078 30.6802 6.2649 30.6802 5.76372Z" fill="white"/>
<path d="M34.8568 8.478C34.1886 8.478 33.6874 8.31094 33.3115 7.93506C32.9356 7.60093 32.7686 7.09975 32.7686 6.43151C32.7686 5.76327 32.9356 5.26209 33.2697 4.88621C33.6039 4.51032 34.105 4.34326 34.7315 4.34326C35.3162 4.34326 35.7756 4.51032 36.1098 4.80268C36.4439 5.09503 36.6109 5.55445 36.6109 6.13916V6.76563H34.1468C34.1468 6.97446 34.2303 7.14152 34.3974 7.30858C34.5645 7.43387 34.7733 7.5174 35.0239 7.5174C35.2745 7.5174 35.4833 7.47564 35.6921 7.43387C35.9009 7.39211 36.1098 7.30858 36.3603 7.18328V8.18565C36.1515 8.31094 35.9427 8.35271 35.6921 8.39447C35.4415 8.43624 35.1909 8.478 34.8568 8.478ZM34.7733 5.30386C34.6062 5.30386 34.4809 5.34562 34.3556 5.47092C34.2303 5.55445 34.1886 5.72151 34.1468 5.93033H35.3162C35.3162 5.72151 35.2745 5.59621 35.1492 5.47092C35.1074 5.34562 34.9821 5.30386 34.7733 5.30386Z" fill="white"/>
<path d="M40.4529 7.18374C40.4529 7.60139 40.3276 7.93551 40.0353 8.14433C39.7429 8.35316 39.3253 8.47846 38.7823 8.47846C38.49 8.47846 38.2394 8.47846 38.0305 8.43669C37.8217 8.39493 37.5711 8.35316 37.3623 8.26963V7.18374C37.5711 7.26727 37.8217 7.3508 38.0723 7.43433C38.3229 7.47609 38.5317 7.51786 38.7406 7.51786C39.0329 7.51786 39.2 7.43433 39.2 7.30903C39.2 7.2255 39.1582 7.18374 39.0747 7.14197C38.9911 7.10021 38.7406 6.97491 38.3647 6.80785C37.9888 6.64079 37.7382 6.47373 37.6129 6.30667C37.4876 6.09785 37.4041 5.88902 37.4041 5.59667C37.4041 5.22078 37.5294 4.92843 37.8217 4.7196C38.1141 4.51078 38.49 4.42725 39.0329 4.42725C39.2835 4.42725 39.5341 4.46901 39.7847 4.51078C40.0353 4.55254 40.2441 4.63607 40.4947 4.76137L40.1188 5.63843C39.9517 5.5549 39.7429 5.47137 39.5341 5.42961C39.3253 5.38784 39.1582 5.34608 39.0329 5.34608C38.8241 5.34608 38.6988 5.38784 38.6988 5.51314C38.6988 5.59667 38.7406 5.63843 38.8241 5.6802C38.9076 5.72196 39.1164 5.80549 39.4923 5.97255C39.7847 6.09785 39.9935 6.18138 40.1188 6.30667C40.2441 6.43197 40.3694 6.55726 40.4112 6.68256C40.4112 6.76609 40.4529 6.97491 40.4529 7.18374Z" fill="white"/>
<path d="M41.2051 3.42433C41.2051 3.2155 41.2468 3.04844 41.3721 2.96491C41.4974 2.88138 41.6645 2.79785 41.9151 2.79785C42.1657 2.79785 42.3745 2.83962 42.458 2.96491C42.5833 3.04844 42.6251 3.2155 42.6251 3.42433C42.6251 3.84198 42.3745 4.00904 41.8733 4.00904C41.4139 4.0508 41.2051 3.84198 41.2051 3.42433ZM42.5833 8.39437H41.2051V4.42669H42.5833V8.39437Z" fill="white"/>
<path d="M47.3027 4.42679V5.09503L46.7598 5.30386C46.8433 5.42915 46.8851 5.59621 46.8851 5.76327C46.8851 6.18092 46.718 6.51504 46.4256 6.76563C46.1333 7.01622 45.6739 7.09975 45.0892 7.09975C44.9221 7.09975 44.8386 7.09975 44.755 7.05799C44.7133 7.09975 44.7133 7.18328 44.7133 7.22505C44.7133 7.30858 44.755 7.35034 44.8803 7.39211C45.0056 7.43387 45.1309 7.43387 45.298 7.43387H45.9662C46.8433 7.43387 47.3027 7.80976 47.3027 8.56153C47.3027 9.06271 47.0939 9.4386 46.6762 9.68919C46.2586 9.93978 45.6739 10.1068 44.9221 10.1068C44.3792 10.1068 43.9197 10.0233 43.6274 9.81448C43.335 9.64742 43.168 9.35507 43.168 9.02095C43.168 8.56153 43.4603 8.22741 44.045 8.10211C43.9197 8.06035 43.8362 7.97682 43.7109 7.85152C43.6274 7.72623 43.5856 7.6427 43.5856 7.5174C43.5856 7.39211 43.6274 7.26681 43.6691 7.18328C43.7527 7.09975 43.878 6.97446 44.0868 6.84916C43.878 6.76563 43.7109 6.59857 43.5856 6.43151C43.4603 6.22269 43.4186 6.01386 43.4186 5.72151C43.4186 5.30386 43.5856 4.96974 43.878 4.71915C44.1703 4.46856 44.588 4.34326 45.1309 4.34326C45.2145 4.34326 45.3397 4.34326 45.5068 4.38503C45.6739 4.38503 45.7992 4.42679 45.8827 4.42679H47.3027ZM44.2956 8.89565C44.2956 9.02095 44.3374 9.10448 44.4627 9.18801C44.588 9.27154 44.755 9.27154 44.9639 9.27154C45.298 9.27154 45.5486 9.22977 45.7574 9.14624C45.9662 9.06271 46.0498 8.93742 46.0498 8.81212C46.0498 8.68682 46.008 8.64506 45.8827 8.60329C45.7574 8.56153 45.5903 8.51976 45.3398 8.51976H44.7968C44.6297 8.51976 44.5462 8.56153 44.4209 8.60329C44.3374 8.68682 44.2956 8.77035 44.2956 8.89565ZM44.7133 5.72151C44.7133 6.13916 44.8386 6.34798 45.1309 6.34798C45.2562 6.34798 45.3815 6.30622 45.4233 6.18092C45.5068 6.09739 45.5486 5.93033 45.5486 5.72151C45.5486 5.30386 45.4233 5.09503 45.1309 5.09503C44.8803 5.09503 44.7133 5.30386 44.7133 5.72151Z" fill="white"/>
<path d="M50.3934 8.39493V6.22314C50.3934 5.97255 50.3516 5.76373 50.2681 5.63843C50.1845 5.51314 50.0592 5.42961 49.8922 5.42961C49.6416 5.42961 49.4745 5.51314 49.391 5.72196C49.3075 5.88902 49.2239 6.22314 49.2239 6.68256V8.43669H47.8457V4.46901H48.8898L49.0569 4.97019H49.1404C49.2657 4.80313 49.4328 4.63607 49.6416 4.55254C49.8504 4.46901 50.101 4.42725 50.3516 4.42725C50.811 4.42725 51.1451 4.55254 51.3957 4.80313C51.6463 5.05372 51.7716 5.42961 51.7716 5.88902V8.47846H50.3934V8.39493Z" fill="white"/>
<path d="M56.1566 8.39491L55.5301 6.76608H53.4836L52.8572 8.39491H52.2725L54.319 3.25781H54.8201L56.8249 8.39491H56.1566ZM55.3213 6.22313L54.7366 4.63606C54.6531 4.42723 54.5695 4.17664 54.486 3.88429C54.4442 4.09311 54.3607 4.3437 54.2772 4.63606L53.6925 6.22313H55.3213Z" fill="white"/>
<path d="M60.5425 8.39486L59.8325 6.13954C59.7907 6.01425 59.7072 5.68013 59.5819 5.22071H59.5401C59.4566 5.63836 59.3731 5.93072 59.2896 6.18131L58.5796 8.43662H57.9113L56.8672 4.59424H57.4937C57.7443 5.55483 57.9113 6.3066 58.0784 6.80779C58.2037 7.30897 58.2872 7.64309 58.2872 7.81015H58.329C58.3707 7.68485 58.4125 7.51779 58.4543 7.30897C58.496 7.10014 58.5796 6.93308 58.6213 6.80779L59.3313 4.59424H59.9578L60.626 6.80779C60.7513 7.22544 60.8349 7.55956 60.8766 7.81015H60.9184C60.9184 7.72662 60.9602 7.60132 61.0019 7.43426C61.0437 7.2672 61.2943 6.30661 61.7119 4.59424H62.2966L61.2525 8.43662H60.5425V8.39486Z" fill="white"/>
<path d="M65.3448 8.39466L65.2195 7.85172H65.1778C64.969 8.10231 64.8019 8.26937 64.5931 8.3529C64.3842 8.43643 64.1754 8.47819 63.8831 8.47819C63.5072 8.47819 63.2148 8.39466 63.006 8.18584C62.7972 7.97701 62.6719 7.72642 62.6719 7.35054C62.6719 6.557 63.2984 6.18112 64.5513 6.13935L65.2195 6.09759V5.847C65.2195 5.55464 65.136 5.30405 65.0107 5.17876C64.8854 5.05346 64.6766 4.96993 64.3842 4.96993C64.0501 4.96993 63.716 5.05346 63.2984 5.26229L63.1313 4.80287C63.3401 4.71934 63.5072 4.63581 63.7578 4.55228C63.9666 4.51052 64.2172 4.46875 64.426 4.46875C64.8854 4.46875 65.2195 4.55228 65.4284 4.76111C65.6372 4.96993 65.7625 5.30405 65.7625 5.7217V8.3529H65.3448V8.39466ZM64.0084 7.97701C64.3842 7.97701 64.6348 7.89348 64.8437 7.68466C65.0525 7.47583 65.136 7.22524 65.136 6.84936V6.51524L64.5513 6.557C64.0919 6.557 63.7578 6.64053 63.5489 6.76583C63.3401 6.89112 63.2566 7.09995 63.2566 7.35054C63.2566 7.55936 63.3401 7.72642 63.4654 7.80995C63.6325 7.93525 63.7995 7.97701 64.0084 7.97701Z" fill="white"/>
<path d="M68.7287 4.46875C68.8958 4.46875 69.0629 4.46875 69.1882 4.51052L69.1046 5.05346C68.9376 5.0117 68.8123 5.0117 68.687 5.0117C68.3946 5.0117 68.1023 5.13699 67.8934 5.38758C67.6846 5.63817 67.5593 5.97229 67.5593 6.34818V8.39466H66.9746V4.55228H67.434L67.5176 5.26229H67.5593C67.6846 5.0117 67.8934 4.80287 68.0605 4.67758C68.2693 4.55228 68.4782 4.46875 68.7287 4.46875Z" fill="white"/>
<path d="M72.5295 7.89338C72.2371 8.26927 71.8195 8.47809 71.2765 8.47809C70.7753 8.47809 70.3995 8.31103 70.1071 7.97691C69.8147 7.64279 69.6895 7.14161 69.6895 6.51513C69.6895 5.88866 69.8147 5.38748 70.1071 5.05336C70.3995 4.71924 70.7753 4.51041 71.2765 4.51041C71.7777 4.51041 72.1954 4.71924 72.4877 5.09512H72.5295L72.4877 4.80277V4.55218V2.92334H73.0724V8.39456H72.613L72.5295 7.89338ZM71.3601 7.97691C71.7777 7.97691 72.0283 7.85161 72.2371 7.64279C72.4042 7.43396 72.4877 7.05808 72.4877 6.59866V6.47337C72.4877 5.93042 72.4042 5.55454 72.1954 5.30395C72.0283 5.05336 71.7359 4.96983 71.3183 4.96983C70.9842 4.96983 70.7336 5.09512 70.5248 5.38748C70.3577 5.63807 70.2324 6.01395 70.2324 6.51513C70.2324 7.01631 70.3159 7.3922 70.483 7.64279C70.7336 7.85161 70.9842 7.97691 71.3601 7.97691Z" fill="white"/>
<path d="M76.7887 7.35054C76.7887 7.72642 76.6634 7.97701 76.3711 8.18584C76.1205 8.39466 75.7446 8.47819 75.2434 8.47819C74.7422 8.47819 74.3246 8.39466 74.0322 8.2276V7.68466C74.1993 7.76819 74.4081 7.85172 74.6169 7.89348C74.8258 7.93525 75.0346 7.97701 75.2434 7.97701C75.5358 7.97701 75.7864 7.93525 75.9534 7.85172C76.1205 7.76819 76.204 7.60113 76.204 7.3923C76.204 7.22524 76.1205 7.09995 75.9952 7.01642C75.8699 6.89112 75.6193 6.76583 75.2434 6.64053C74.8675 6.51524 74.6169 6.38994 74.4916 6.30641C74.3246 6.22288 74.241 6.09759 74.1575 5.97229C74.074 5.847 74.0322 5.67994 74.0322 5.51288C74.0322 5.22052 74.1575 4.96993 74.4081 4.76111C74.6587 4.55228 74.9928 4.46875 75.4522 4.46875C75.8699 4.46875 76.2875 4.55228 76.6634 4.71934L76.4546 5.17876C76.0787 5.0117 75.7028 4.92817 75.4105 4.92817C75.1181 4.92817 74.9093 4.96993 74.784 5.05346C74.6587 5.13699 74.5752 5.26229 74.5752 5.42935C74.5752 5.51288 74.6169 5.63817 74.6587 5.67994C74.7005 5.76347 74.784 5.80523 74.9093 5.88876C75.0346 5.97229 75.2434 6.05582 75.5775 6.18112C76.0369 6.34818 76.3293 6.51524 76.4964 6.6823C76.7052 6.89112 76.7887 7.09995 76.7887 7.35054Z" fill="white"/>
</g>
<defs>
<clipPath id="clip0_2463_911">
<rect width="76.0124" height="11.5873" fill="white" transform="translate(0.943359)"/>
</clipPath>
</defs>
</svg>
